<svg xmlns="http://www.w3.org/2000/svg" xmlns:xlink="http://www.w3.org/1999/xlink" viewBox="0 0 1982 746.65" xmlns:v="https://vecta.io/nano"><style><![CDATA[.U{fill:url(#B)}.V{fill:#fff}.W{fill:url(#E)}.X{fill:#eaefe8}.Y{fill:#fbfcfa}.Z{fill:none}.a{fill:url(#G)}.b{fill:url(#I)}.c{fill:#dee5dc}.d{fill:url(#D)}.e{fill:#1d1d1b}.f{stroke-miterlimit:10}.g{stroke-linecap:round}]]></style><defs><pattern id="A" width="204.84" height="204.84" patternUnits="userSpaceOnUse" viewBox="0 0 204.84 204.84"><path d="M0 0h204.84v204.84H0z" class="Z"/><path d="M0 0h204.84v204.84H0z" class="e"/></pattern><pattern id="B" width="204.84" height="204.84" patternTransform="translate(-364 5)" patternUnits="userSpaceOnUse" viewBox="0 0 204.84 204.84"><path d="M0 0h204.84v204.84H0z" class="Z"/><path d="M0 0h204.84v204.84H0z" class="e"/></pattern><pattern id="C" width="204.84" height="204.84" patternTransform="translate(-364 -228.35)" patternUnits="userSpaceOnUse" viewBox="0 0 204.84 204.84"><path d="M0 0h204.84v204.84H0z" class="Z"/><path d="M0 0h204.84v204.84H0z" fill="#c9ca48"/></pattern><pattern id="D" width="204.84" height="204.84" patternTransform="translate(-364 5)" patternUnits="userSpaceOnUse" viewBox="0 0 204.84 204.84"><path d="M0 0h204.84v204.84H0z" class="Z"/><path d="M0 0h204.84v204.84H0z" fill="#c9ca48"/></pattern><pattern id="E" width="204.84" height="204.84" patternTransform="translate(-364 7)" patternUnits="userSpaceOnUse" viewBox="0 0 204.84 204.84"><path d="M0 0h204.84v204.84H0z" class="Z"/><path d="M0 0h204.84v204.84H0z" class="e"/></pattern><pattern id="F" width="204.84" height="204.84" patternTransform="translate(-364 7)" patternUnits="userSpaceOnUse" viewBox="0 0 204.84 204.84"><path d="M0 0h204.84v204.84H0z" class="Z"/><path d="M0 0h204.84v204.84H0z" fill="#c67042"/></pattern><pattern id="G" width="204.84" height="204.84" patternTransform="translate(-364 -226.35)" patternUnits="userSpaceOnUse" viewBox="0 0 204.84 204.84"><path d="M0 0h204.84v204.84H0z" class="Z"/><path d="M0 0h204.84v204.84H0z" class="e"/></pattern><pattern id="H" width="204.84" height="204.84" patternTransform="translate(-364 13)" patternUnits="userSpaceOnUse" viewBox="0 0 204.84 204.84"><path d="M0 0h204.84v204.84H0z" class="Z"/><path d="M0 0h204.84v204.84H0z" fill="#798023"/></pattern><pattern id="I" width="204.84" height="204.84" patternTransform="translate(-364 13)" patternUnits="userSpaceOnUse" viewBox="0 0 204.84 204.84"><path d="M0 0h204.84v204.84H0z" class="Z"/><path d="M0 0h204.84v204.84H0z" class="e"/></pattern><path id="J" d="M615 591.86s6.22-56 24.6-65.92 33.06 9.26 33.06 9.26l4.33 11.16s-26.35-7.83-33.7 19.57c.02 0-.64 25.14-28.3 25.93z"/></defs><path d="M1569 537.4S597 379.65 0 435.65v311h1569z" class="c"/><path d="M0 746.65s1444-435 1982-323v323H0z" class="X"/><g transform="translate(0 -233.35)" stroke="#000" stroke-width="4" fill="url(#A)" class="f g"><path d="M155 935l188-50"/><path d="M416 866l87-22"/></g><path d="M611 584.65s618-165 1076-178m70 0s113-6 178 9" stroke="#000" stroke-width="4" class="Z f g"/><path d="M655.25 825.62s-115.34-72.37-211.24-24c-.01 0 80.4 73.15 211.24 24z" transform="translate(0 -233.35)" class="U"/><path d="M444 683.65h144l67.25-91.12S536.9 626.4 444 568.65z" class="X"/><g transform="translate(0 -233.35)" class="U"><path d="M588 919H444a2.49 2.49 0 0 1-2.5-2.5V801.62a2.47 2.47 0 0 1 3.82-2.09C481 821.7 524.52 833 574.64 833h0c45.3 0 79.57-9.64 79.9-9.74a2.48 2.48 0 0 1 2.7 3.86L590 918a2.49 2.49 0 0 1-2 1zm-141.5-5h140.24l62.37-84.24a344.12 344.12 0 0 1-74.46 8.24h0c-49.3 0-92.38-10.76-128.13-31.9z"/><path d="M459.5 916.5a2.5 2.5 0 0 1-2.5-2.5V810a2.5 2.5 0 1 1 5 0v104a2.5 2.5 0 0 1-2.5 2.5z"/><path d="M570.5 919.5a2.5 2.5 0 0 1-2-4l61.43-86.4A2.5 2.5 0 1 1 634 832l-61.43 86.42a2.52 2.52 0 0 1-2.07 1.08z"/><path d="M550.5,919.5A2.47,2.47,0,0,1,549,919a2.5,2.5,0,0,1-.57-3.49l59.43-82.42a2.5,2.5,0,0,1,4.06,2.93l-59.43,82.41A2.5,2.5,0,0,1,550.5,919.5Z"/><path d="M531.5,919.5a2.5,2.5,0,0,1-2-4l58.27-82a2.5,2.5,0,1,1,4.08,2.9l-58.27,82A2.52,2.52,0,0,1,531.5,919.5Z"/><path d="M511.5,919.5a2.5,2.5,0,0,1-2-4l58.27-82a2.5,2.5,0,1,1,4.08,2.9l-58.27,82A2.52,2.52,0,0,1,511.5,919.5Z"/><path d="M490.5,919.5a2.5,2.5,0,0,1-2-4l58.27-82a2.5,2.5,0,1,1,4.08,2.9l-58.27,82A2.52,2.52,0,0,1,490.5,919.5Z"/><path d="M468.5,919.5a2.5,2.5,0,0,1-2-4l58.27-82a2.5,2.5,0,1,1,4.08,2.9l-58.27,82A2.52,2.52,0,0,1,468.5,919.5Z"/><path d="M1009 793h16s.38-98.84 22.2-100.17S1069 793 1069 793h16s6.33-115.67-39-115.5c-45 .17-37 115.5-37 115.5z"/></g><path d="M1096.53 541.95s36.14-67.42 52.8-82.36c0 0-29 6.7-40.33 26.72s-12.47 55.64-12.47 55.64z" class="Y"/><g transform="translate(0 -233.35)" class="U"><path d="M1096.53 777.8a2.43 2.43 0 0 1-.65-.09 2.49 2.49 0 0 1-1.85-2.49c0-1.48 1.3-36.48 12.8-56.8 4.88-8.63 13.7-16.2 25.5-21.88a86 86 0 0 1 16.44-6 2.5 2.5 0 0 1 2.23 4.29c-16.15 14.48-51.9 81-52.27 81.68a2.49 2.49 0 0 1-2.2 1.28zm44.6-79.6c-9.15 3.52-23.1 10.6-30 22.68-7 12.3-10 31-11.26 43 9.26-16.6 27.9-49.12 41.26-65.68z"/><path d="M1073 851a2.57 2.57 0 0 1-.55-.06 2.5 2.5 0 0 1-1.9-3c.1-.4 9-40.27 23.75-85.73 19.8-61.24 40.1-103 60.26-124a2.5 2.5 0 1 1 3.61 3.46c-47 48.93-82.38 205.74-82.74 207.3A2.49 2.49 0 0 1 1073 851z"/></g><path d="M1062.67 615.65s20.66-142.9 62-172.9c0 0-40.08 129.9-42.7 172.9z" class="Y"/><path d="M1082 851h-19.3a2.5 2.5 0 0 1-2.48-2.86c0-.36 5.3-36.32 15.56-75.48 13.86-53 29.83-86.3 47.45-99.1a2.5 2.5 0 0 1 3.85 2.76c-.4 1.3-40 130.1-42.6 172.32a2.5 2.5 0 0 1-2.5 2.35zm-16.38-5h14.06c3.27-38.54 31.2-133.33 40-162.58-32.8 35.16-51.1 143.58-54.1 162.58z" transform="translate(0 -233.35)" class="U"/><circle cx="1165" cy="396.32" r="6" class="X"/><path d="M1165,638.17a8.5,8.5,0,1,1,8.5-8.5A8.51,8.51,0,0,1,1165,638.17Zm0-12a3.5,3.5,0,1,0,3.5,3.5A3.5,3.5,0,0,0,1165,626.17Z" transform="translate(0 -233.35)" class="U"/><g fill="url(#C)"><circle cx="1164.25" cy="413.07" r="3.75"/><circle cx="1158.63" cy="420.57" r="3.75"/><circle cx="1152.38" cy="428.07" r="3.75"/><circle cx="1146.75" cy="437.45" r="3.75"/><circle cx="1147.25" cy="402.07" r="3.75"/><circle cx="1141.63" cy="409.57" r="3.75"/><circle cx="1135.38" cy="417.07" r="3.75"/><circle cx="1129.75" cy="426.45" r="3.75"/></g><path d="M1075 498.65s24.93-72.32 39-89.73c0 0-27.56 11.25-35.56 32.8s-3.44 56.92-3.44 56.92z" class="Y"/><g transform="translate(0 -233.35)" class="U"><path d="M1075 734.54h-.26a2.5 2.5 0 0 1-2.22-2.17c-.2-1.46-4.54-36.22 3.58-58.1 3.45-9.3 10.95-18.17 21.7-25.67a86.66 86.66 0 0 1 15.31-8.6 2.5 2.5 0 0 1 2.89 3.88c-13.64 16.87-38.34 88.25-38.6 89a2.49 2.49 0 0 1-2.4 1.66zm31.74-85.72c-8.47 4.94-21.12 14.14-26 27.17-4.93 13.26-4.92 32.23-4.27 44.26 6.53-17.87 19.76-52.95 30.3-71.43z"/><path d="M1063.44,810.55h-.15a2.49,2.49,0,0,1-2.34-2.64c0-.41,2.5-41.19,9.78-88.42,9.8-63.61,23.16-108,39.73-132a2.5,2.5,0,1,1,4.11,2.85C1076,646.15,1066,806.59,1065.94,808.2A2.5,2.5,0,0,1,1063.44,810.55Z"/></g><path d="M1053.28 576.35s-2.38-144.38 33.64-180.58c0 0-18.85 134.63-14.6 177.5z" class="Y"/><path d="M1053.28 812.2a2.5 2.5 0 0 1-1.61-.59 2.46 2.46 0 0 1-.89-1.87c0-.36-.56-36.7 3.32-77 5.25-54.5 15.7-90 31.05-105.4a2.5 2.5 0 0 1 4.25 2.11c-.2 1.34-18.76 134.82-14.6 176.9a2.49 2.49 0 0 1-2.08 2.72l-19.06 3.07a1.72 1.72 0 0 1-.39.05zm30-174.56c-26.74 39.94-27.56 149.86-27.5 169.12l13.9-2.24c-2.97-38.52 9.5-136.6 13.56-166.88z" transform="translate(0 -233.35)" class="U"/><path d="M1125.35 343.04a6 6 0 0 1-11.854 1.866 6 6 0 0 1 9.453-5.796 6 6 0 0 1 2.401 3.93z" class="X"/><g transform="translate(0 -233.35)"><path d="M1119.42,585.85a8.5,8.5,0,0,1-1.35-16.89,8.91,8.91,0,0,1,1.36-.11,8.5,8.5,0,0,1,1.35,16.89A7.8,7.8,0,0,1,1119.42,585.85Zm0-12a3.66,3.66,0,0,0-.57,0,3.44,3.44,0,0,0-2.28,1.4,3.51,3.51,0,1,0,2.85-1.45Z" class="U"/><g class="d"><path d="M1125.05,593.41a3.75,3.75,0,1,1-4.3-3.11A3.75,3.75,0,0,1,1125.05,593.41Z"/><path d="M1120.7,601.71a3.75,3.75,0,1,1-4.3-3.1A3.75,3.75,0,0,1,1120.7,601.71Z"/><path d="M1115.72,610.11a3.75,3.75,0,1,1-4.3-3.1A3.75,3.75,0,0,1,1115.72,610.11Z"/><path d="M1111.66,620.26a3.75,3.75,0,1,1-4.3-3.1A3.75,3.75,0,0,1,1111.66,620.26Z"/><path d="M1106.52,585.26a3.75,3.75,0,1,1-4.3-3.11A3.75,3.75,0,0,1,1106.52,585.26Z"/><path d="M1102.16,593.56a3.75,3.75,0,1,1-4.3-3.1A3.75,3.75,0,0,1,1102.16,593.56Z"/><path d="M1097.19,602a3.75,3.75,0,1,1-4.3-3.1A3.75,3.75,0,0,1,1097.19,602Z"/><path d="M1093.13,612.11a3.75,3.75,0,1,1-4.3-3.1A3.75,3.75,0,0,1,1093.13,612.11Z"/></g></g><path d="M1028 499.55s19.8-73.9 32.6-92.24c0 0-26.7 13.16-33.16 35.22s.56 57.02.56 57.02z" class="Y"/><g transform="translate(0 -233.35)" class="U"><path d="M1028 735h-.08a2.29 2.29 0 0 1-2.37-1.81c-.3-1.45-7.08-35.7-.5-58.1 2.78-9.5 9.64-18.84 19.83-27.08a86 86 0 0 1 14.62-9.61 2.51 2.51 0 0 1 3.16 3.69c-12.42 17.8-32 90.53-32.23 91.26A2.34 2.34 0 0 1 1028 735zm25.8-87.34c-8.1 5.52-20.07 15.6-24 28.93-4 13.57-2.64 32.5-1.15 44.45 5.24-18.28 15.95-54.2 25.17-73.38z"/><path d="M1021.8 812a2.48 2.48 0 0 1-2.5-2.45c0-.4-.4-41.25 3.54-88.87 5.3-64.15 15.5-109.38 30.35-134.44a2.5 2.5 0 0 1 4.3 2.55c-34.55 58.36-33.2 219.1-33.2 220.7a2.46 2.46 0 0 1-2.47 2.5z"/></g><path d="M1011.77 578.55s-12.52-143.85 20.87-182.5c0 0-9.34 135.63-2.08 178.1z" class="Y"/><path d="M1011.77 814.4a2.43 2.43 0 0 1-1.46-.48 2.5 2.5 0 0 1-1-1.8c0-.36-3.13-36.57-2.1-77 1.4-54.73 9.33-90.83 23.56-107.3a2.5 2.5 0 0 1 4.39 1.81c-.1 1.35-9.24 135.8-2.1 177.5a2.52 2.52 0 0 1-1.9 2.86l-18.78 4.4a2.3 2.3 0 0 1-.61.03zm17.8-176.23c-23.88 41.7-17 151.42-15.53 170.63l13.7-3.2c-5.62-38.27-.08-136.93 1.84-167.42z" transform="translate(0 -233.35)" class="U"/><path d="M1067.26 340.76a6 6 0 0 1-9.003 6.471 6 6 0 0 1 1.793-10.941 6 6 0 0 1 7.21 4.47z" class="X"/><g transform="translate(0 -233.35)"><path d="M1061.42,584a8.55,8.55,0,1,1,1.94-.23A8.46,8.46,0,0,1,1061.42,584Zm0-12a3.7,3.7,0,0,0-.8.09,3.5,3.5,0,0,0,.8,6.91,3.7,3.7,0,0,0,.8-.09,3.5,3.5,0,0,0-.8-6.91Z" class="U"/><g class="d"><path d="M1068.17,591.1a3.75,3.75,0,1,1-4.51-2.79A3.75,3.75,0,0,1,1068.17,591.1Z"/><path d="M1064.4,599.69a3.75,3.75,0,1,1-4.5-2.8A3.75,3.75,0,0,1,1064.4,599.69Z"/><path d="M1060,608.42a3.75,3.75,0,1,1-4.51-2.8A3.76,3.76,0,0,1,1060,608.42Z"/><path d="M1056.7,618.83a3.75,3.75,0,1,1-4.51-2.79A3.76,3.76,0,0,1,1056.7,618.83Z"/><path d="M1049.1,584.28a3.75,3.75,0,1,1-4.5-2.8A3.73,3.73,0,0,1,1049.1,584.28Z"/><path d="M1045.34,592.86a3.75,3.75,0,1,1-4.51-2.79A3.75,3.75,0,0,1,1045.34,592.86Z"/><path d="M1041,601.59a3.75,3.75,0,1,1-4.51-2.79A3.76,3.76,0,0,1,1041,601.59Z"/><path d="M1037.63,612a3.75,3.75,0,1,1-4.5-2.79A3.74,3.74,0,0,1,1037.63,612Z"/></g></g><path d="M977 508s16.34-74.73 28.3-93.66c0 0-26.06 14.38-31.5 36.73S977 508 977 508z" class="Y"/><g transform="translate(0 -233.35)" class="U"><path d="M977 744a2.57 2.57 0 0 1-2.43-2c-.36-1.44-8.73-35.5-3.2-58.17 2.34-9.63 8.76-19.34 18.56-28a87.49 87.49 0 0 1 14.16-10.31 2.5 2.5 0 0 1 3.32 3.52c-11.58 18.34-27.8 92.18-28 92.92a2.54 2.54 0 0 1-2.41 2zm21.83-89c-7.84 5.9-19.32 16.5-22.6 30-3.35 13.76-1.13 32.6.92 44.46 4.35-18.46 13.38-54.86 21.7-74.46z"/><path d="M974.35,820.71a2.5,2.5,0,0,1-2.49-2.36c0-.4-2.31-41.2-.59-89,2.33-64.32,10.44-110,24.1-135.71a2.5,2.5,0,1,1,4.41,2.35c-31.81,59.89-23,220.41-22.93,222a2.51,2.51,0,0,1-2.35,2.64Z"/></g><path d="M964.45 587.65s-19.17-143.1 12.4-183.26c0 0-3.05 135.9 6.17 178z" class="Y"/><path d="M964.45 823.52a2.53 2.53 0 0 1-1.38-.41 2.48 2.48 0 0 1-1.1-1.75c-.05-.36-4.82-36.4-5.66-76.86-1.14-54.74 5.1-91.17 18.56-108.3a2.5 2.5 0 0 1 4.47 1.6c0 1.36-2.94 136.1 6.1 177.4a2.51 2.51 0 0 1-1.76 2.95l-18.56 5.27a2.71 2.71 0 0 1-.68.09zm9.72-176.87c-21.92 42.77-9.92 152.05-7.6 171.17L980.1 814c-7.4-38-6.42-136.8-5.92-167.35z" transform="translate(0 -233.35)" class="U"/><path d="M1008.86 347.57a6 6 0 0 1-11.547 3.268 6 6 0 0 1 8.699-6.873 6 6 0 0 1 2.847 3.605z" class="X"/><g transform="translate(0 -233.35)"><path d="M1003.1 591.06a8.5 8.5 0 0 1-7.43-12.64 8.44 8.44 0 0 1 5.11-4 8.29 8.29 0 0 1 2.32-.33 8.54 8.54 0 0 1 8.17 6.18 8.49 8.49 0 0 1-5.85 10.5 8.34 8.34 0 0 1-2.32.29zm0-12a3.54 3.54 0 0 0-1 .14 3.49 3.49 0 0 0-2.1 1.66 3.5 3.5 0 0 0 4 5.07 3.47 3.47 0 0 0 2.11-1.66 3.51 3.51 0 0 0-3.06-5.21z" class="U"/><g class="d"><path d="M1010.55,597.85a3.75,3.75,0,1,1-4.63-2.58A3.74,3.74,0,0,1,1010.55,597.85Z"/><path d="M1007.19,606.6a3.75,3.75,0,1,1-4.63-2.58A3.75,3.75,0,0,1,1007.19,606.6Z"/><path d="M1003.23,615.52a3.75,3.75,0,1,1-4.64-2.58A3.76,3.76,0,0,1,1003.23,615.52Z"/><path d="M1000.38,626.08a3.75,3.75,0,1,1-4.63-2.58A3.75,3.75,0,0,1,1000.38,626.08Z"/><path d="M991.19,591.91a3.75,3.75,0,1,1-4.63-2.58A3.74,3.74,0,0,1,991.19,591.91Z"/><path d="M987.83,600.66a3.75,3.75,0,1,1-4.63-2.58A3.75,3.75,0,0,1,987.83,600.66Z"/><path d="M983.87,609.59a3.75,3.75,0,1,1-4.63-2.59A3.76,3.76,0,0,1,983.87,609.59Z"/><path d="M981,620.14a3.75,3.75,0,1,1-4.63-2.58A3.75,3.75,0,0,1,981,620.14Z"/></g></g><path d="M974.8 545.65l131.46 1.75 18.06 103.86s3.74 12-19.72 30.3c-2.12 1.65-15.62 11-22 11l-76.5.27c-20 .08-23.27-21.86-23.27-21.86s-21.37-6.58-18.5-21.05 10.47-104.26 10.47-104.26z" class="X"/><path d="M1006 929c-16.44 0-23.55-14.07-25.36-22.62a46.42 46.42 0 0 1-9.55-5c-7.4-5.13-10.6-11.56-9.2-18.52 2.8-14.17 10.4-102.9 10.47-103.8a2.31 2.31 0 0 1 2.45-2.06h0l131.46 1.5a2.38 2.38 0 0 1 2.43 2l18 103.7c.45 1.9 2.5 14.75-20.63 32.76-.15.1-15.47 11.66-23.57 11.68l-76.5.4zm-28.9-147.46c-1.24 14.48-7.72 88.94-10.35 102.25-2.38 12.08 16.6 18.1 16.8 18.17a2.71 2.71 0 0 1 1.73 2.17c.13.8 3.22 19.87 20.7 19.87h.1l76.5-.4c4.88 0 16.8-7.7 20.5-10.58 21.5-16.73 18.9-27.5 18.86-27.6s0-.23-.07-.33l-17.7-101.82z" transform="translate(0 -233.35)" class="U"/><path d="M940.8 544.86l131.46 1.9 10.06 124.82s1.43 21-15.72 21l-125.8.48s-21.37-7.14-18.5-22.86 18.5-125.34 18.5-125.34z" class="X"/><path d="M940.8 929a2.42 2.42 0 0 1-.79-.2 44 44 0 0 1-11-5.94c-7.33-5.52-10.5-12.37-9.14-19.8 2.82-15.5 18.34-124 18.5-125.06a2.38 2.38 0 0 1 2.47-2h0l131.46 1.76a2.43 2.43 0 0 1 2.45 2.23l10.06 124.77c0 .5.73 11.75-5.66 18.6a16.5 16.5 0 0 1-12.55 5.11l-125.8.54zm2.2-148.26l-18.2 123.2c-2.25 12.4 13.83 18.92 16.48 19.9l125.37-.48c3.8 0 6.7-1.13 8.88-3.45 4.9-5.24 4.35-14.74 4.35-14.84l-9.87-122.5z" transform="translate(0 -233.35)" class="U"/><path d="M967 559.65h16s.38-98.84 22.2-100.17 21.8 100.17 21.8 100.17h16s6.33-115.67-39-115.5c-45 .17-37 115.5-37 115.5z" class="X"/><g transform="translate(0 -233.35)"><g class="U"><path d="M1043 795h-16a2.5 2.5 0 0 1-2.5-2.5c0-40.56-5.86-97.68-18.9-97.68h-.27c-3.47.2-12.06 5.34-16.94 48.33-2.77 24.46-2.9 49.1-2.9 49.35a2.49 2.49 0 0 1-2.5 2.5h-16a2.5 2.5 0 0 1-2.49-2.33 353.19 353.19 0 0 1 .27-44.06c2.26-31.78 8.77-53.92 19.36-65.3 5.56-6 12.24-8.3 19.85-9.3h.1c7.67 0 14.44 3.3 20.1 9.28 10.78 11.38 17.63 33.4 20.36 65.17a356 356 0 0 1 .93 44.12 2.56 2.56 0 0 1-2.5 2.43zm-13.52-5h11.12c.47-13.43 1.63-80.17-20-103-4.76-5-10.15-7.47-16.48-7.47S992.44 682 987.8 687c-21.27 22.88-19.1 89.7-18.44 103h11.17c.1-6.92.6-27.2 2.9-47.37 4-34.88 11-52.15 21.6-52.8 10.83-.65 18 16.47 21.77 52.3 2.2 20.33 2.6 40.86 2.67 47.86z"/><path d="M1007 825.38S996.18 863 1025.5 882c0 0 12.1-35.2-18.5-56.62z"/></g><path d="M975.78 829.45s8.06 45.34 48.9 50.16c0 0-5.48-43.4-48.9-50.16z" class="d"/><path d="M1024.67 882.1a1.37 1.37 0 0 1-.29 0c-42.18-5-51-51.73-51.06-52.2a2.5 2.5 0 0 1 2.85-2.91c44.75 7 50.92 51.87 51 52.32a2.52 2.52 0 0 1-.71 2.07 2.47 2.47 0 0 1-1.79.72zm-45.57-49.5a78 78 0 0 0 8 19c8.4 14 20 22.4 34.44 25-2.1-9.6-10.87-37.2-42.44-44z" class="U"/></g><path d="M976.34 598.58l48.33 47.7" class="X"/><path d="M1024.67 882.1a2.5 2.5 0 0 1-1.76-.72l-48.33-47.7a2.5 2.5 0 0 1 3.51-3.56l48.33 47.7a2.5 2.5 0 0 1-1.75 4.28z" transform="translate(0 -233.35)" class="U"/><path d="M615 591.86s-5.67-68.74-32.33-91c0 0 39.92-2 51.25 27.2S640 590.4 615 591.86z" class="X"/><g transform="translate(0 -233.35)"><g class="U"><path d="M615 827.7a2.5 2.5 0 0 1-2.49-2.29c-.06-.68-5.9-67.95-31.44-89.26a2.5 2.5 0 0 1 1.47-4.42h1.77c6.8 0 41.3 1.4 51.94 28.83 8 20.6 7.8 42.24-.48 55.13a25.43 25.43 0 0 1-20.62 12zm-26-90.82c9.28 10.4 16.77 27.36 22.3 50.6a292.42 292.42 0 0 1 6 35 20.16 20.16 0 0 0 14.33-9.5c7.33-11.4 7.34-31.74 0-50.6-8-20.57-31.63-24.7-42.63-25.48z"/><path d="M619.93,827a2.36,2.36,0,0,1-.82-.14,2.49,2.49,0,0,1-1.54-3.18c9.34-26.87,6.74-49.69-7.73-67.81a68.93,68.93,0,0,0-24.59-19.27,2.5,2.5,0,0,1,1.9-4.63,73.22,73.22,0,0,1,26.59,20.78c19.46,24.35,15.39,52.91,8.55,72.57A2.51,2.51,0,0,1,619.93,827Z"/></g><path d="M615.25,813.5s-.7-99.22,24.36-99.22c15.06,0,3.72,85,3.72,85Z" class="d"/></g><use xlink:href="#J" class="X"/><g transform="translate(0 -233.35)" class="U"><path d="M615 828a2.73 2.73 0 0 1-2.48-3c.25-2.34 6.58-57.42 25.9-67.88a25 25 0 0 1 12-3.18c14.1 0 23.86 12.56 24.26 13.1a2.47 2.47 0 0 1 .35.61l4.35 11.15a2.51 2.51 0 0 1-3 3.31 29.72 29.72 0 0 0-7.56-.94c-8.16 0-18.73 3.36-22.93 18.63-.4 9.6-7.25 27.2-30.75 28.2zm35.4-69.07a20 20 0 0 0-9.59 2.56c-13.3 7.2-20.72 44-22.95 61 22.16-2.26 23-22.42 23-23.3a2.8 2.8 0 0 1 .09-.58c5.23-19.54 19.68-22.46 27.83-22.46a36.56 36.56 0 0 1 4.31.26l-2.58-6.6c-1.4-1.62-9.5-10.86-20.1-10.86z"/><path d="M623.58 787.5a2.48 2.48 0 0 1-1.5-.5 2.52 2.52 0 0 1-.49-3.51c7-9.3 15.5-14.6 25.15-15.76 16.94-2 31.27 9.55 31.87 10a2.5 2.5 0 0 1-3.17 3.86c-.2-.16-13.37-10.7-28.15-8.94-8.23 1-15.53 5.63-21.7 13.8a2.49 2.49 0 0 1-2 1.04z"/></g><path d="M571 593.86s-5.67-68.74-32.33-91c0 0 39.92-2 51.25 27.2S596 592.4 571 593.86z" class="X"/><g transform="translate(0 -233.35)"><g class="U"><path d="M571 829.7a2.5 2.5 0 0 1-2.49-2.29c-.06-.68-5.9-67.95-31.44-89.26a2.5 2.5 0 0 1 1.47-4.42h1.77c6.8 0 41.3 1.4 51.94 28.83 8 20.6 7.8 42.24-.48 55.13a25.43 25.43 0 0 1-20.62 12zm-26-90.82c9.28 10.4 16.77 27.36 22.3 50.6a292.42 292.42 0 0 1 6 35 20.16 20.16 0 0 0 14.33-9.5c7.33-11.4 7.34-31.74 0-50.6-8-20.57-31.63-24.7-42.63-25.48z"/><path d="M575.93,829a2.36,2.36,0,0,1-.82-.14,2.49,2.49,0,0,1-1.54-3.18c9.34-26.87,6.74-49.69-7.73-67.81a68.93,68.93,0,0,0-24.59-19.27,2.5,2.5,0,0,1,1.9-4.63,73.22,73.22,0,0,1,26.59,20.78c19.46,24.35,15.39,52.91,8.55,72.57A2.51,2.51,0,0,1,575.93,829Z"/></g><path d="M571.25,815.5s-.7-99.22,24.36-99.22c15.06,0,3.72,85,3.72,85Z" class="d"/></g><use xlink:href="#J" x="-44" y="2" class="X"/><g transform="translate(0 -233.35)" class="U"><path d="M571 830a2.73 2.73 0 0 1-2.48-3c.25-2.34 6.58-57.42 25.9-67.88a25 25 0 0 1 12-3.18c14.1 0 23.86 12.56 24.26 13.1a2.47 2.47 0 0 1 .35.61l4.35 11.15a2.51 2.51 0 0 1-3 3.31 29.72 29.72 0 0 0-7.56-.94c-8.16 0-18.73 3.36-22.93 18.63-.4 9.6-7.25 27.2-30.75 28.2zm35.4-69.07a20 20 0 0 0-9.59 2.56c-13.3 7.2-20.72 44-22.95 61 22.16-2.26 23-22.42 23-23.3a2.25 2.25 0 0 1 .08-.58c5.23-19.54 19.68-22.46 27.83-22.46a36.56 36.56 0 0 1 4.31.26l-2.58-6.6c-1.38-1.62-9.5-10.86-20.1-10.86z"/><path d="M579.58 789.5a2.48 2.48 0 0 1-1.5-.5 2.52 2.52 0 0 1-.49-3.51c7-9.3 15.5-14.6 25.15-15.76 16.94-2 31.27 9.55 31.87 10a2.5 2.5 0 0 1-3.17 3.86c-.2-.16-13.37-10.72-28.15-8.94-8.23 1-15.53 5.63-21.7 13.8a2.49 2.49 0 0 1-2 1.04z"/></g><path d="M520 593.86s-5.67-68.74-32.33-91c0 0 39.92-2 51.25 27.2S545 592.4 520 593.86z" class="X"/><g transform="translate(0 -233.35)"><g class="U"><path d="M520 829.7a2.5 2.5 0 0 1-2.49-2.29c-.06-.68-5.9-67.95-31.44-89.26a2.5 2.5 0 0 1 1.47-4.42h1.77c6.8 0 41.3 1.4 51.94 28.83 8 20.6 7.8 42.24-.48 55.13a25.43 25.43 0 0 1-20.62 12zm-26-90.82c9.28 10.4 16.77 27.36 22.3 50.6a292.42 292.42 0 0 1 6 35 20.16 20.16 0 0 0 14.33-9.5c7.33-11.4 7.34-31.74 0-50.6-8-20.57-31.63-24.7-42.63-25.48z"/><path d="M524.93,829a2.36,2.36,0,0,1-.82-.14,2.49,2.49,0,0,1-1.54-3.18c9.34-26.87,6.74-49.69-7.73-67.81a68.93,68.93,0,0,0-24.59-19.27,2.5,2.5,0,0,1,1.9-4.63,73.22,73.22,0,0,1,26.59,20.78c19.46,24.35,15.39,52.91,8.55,72.57A2.51,2.51,0,0,1,524.93,829Z"/></g><path d="M520.25,815.5s-.7-99.22,24.36-99.22c15.06,0,3.72,85,3.72,85Z" class="d"/></g><use xlink:href="#J" x="-95" y="2" class="X"/><g transform="translate(0 -233.35)"><g class="U"><path d="M520 830a2.73 2.73 0 0 1-2.48-3c.25-2.34 6.58-57.42 25.9-67.88a25 25 0 0 1 12-3.18c14.1 0 23.86 12.56 24.26 13.1a2.47 2.47 0 0 1 .35.61l4.35 11.15a2.51 2.51 0 0 1-3 3.31 29.72 29.72 0 0 0-7.56-.94c-8.16 0-18.73 3.36-22.93 18.63-.4 9.6-7.25 27.2-30.75 28.2zm35.4-69.07a20 20 0 0 0-9.59 2.56c-13.3 7.2-20.72 44-22.95 61 22.16-2.26 23-22.42 23-23.3a2.25 2.25 0 0 1 .08-.58c5.23-19.54 19.68-22.46 27.83-22.46a36.56 36.56 0 0 1 4.31.26l-2.58-6.6c-1.38-1.62-9.5-10.86-20.1-10.86z"/><path d="M528.58 789.5a2.48 2.48 0 0 1-1.5-.5 2.52 2.52 0 0 1-.49-3.51c7-9.3 15.5-14.6 25.15-15.76 17-2 31.27 9.55 31.87 10a2.5 2.5 0 0 1-3.17 3.86c-.2-.16-13.38-10.72-28.15-8.94-8.23 1-15.53 5.63-21.7 13.8a2.49 2.49 0 0 1-2 1.04z"/></g><g class="W"><path d="M586.36,559.34c-13.79,0-23.52-9.73-23.66-9.87a2.5,2.5,0,0,1,3.57-3.5h0c.66.66,16.12,16,35,3.57l43.28-76.11a2.6,2.6,0,0,1,.38-.51c.17-.18,17.65-18.31,21.24-31.45a2.5,2.5,0,1,1,4.82,1.32c-3.73,13.68-20,31.07-22.25,33.38l-43.41,76.35a2.58,2.58,0,0,1-.77.84A32.13,32.13,0,0,1,586.36,559.34Z"/><path d="M409.8 392.7a2.62 2.62 0 0 1-.54-.06L274.13 363a2.5 2.5 0 0 1-1.66-1.26c-.13-.23-3-5.67-.94-10.94 1.25-3.23 4-5.6 8.1-7a2.43 2.43 0 0 1 1.36-.08l124.07 27.45A2.5 2.5 0 0 1 404 376l-123.35-27.3c-2.3.9-3.78 2.2-4.43 3.85a8.53 8.53 0 0 0 .26 5.8l133.88 29.36a2.51 2.51 0 0 1-.54 4.95z"/><path d="M694.24 486.5a2.49 2.49 0 0 1-2.33-1.6 173.64 173.64 0 0 0-7.46-16.65c-3.07-5.68-10.4-12-12.23-13.57l-115.07-27.16a2.5 2.5 0 1 1 1.14-4.87L673.94 450a2.47 2.47 0 0 1 1 .48c.4.33 9.93 8.07 13.92 15.44a162.46 162.46 0 0 1 7 15.51l18.6-1.27c-3.08-7.86-12.92-29-32.45-37.82L479.57 394a2.5 2.5 0 0 1 1.16-4.86l202.7 48.3a2.25 2.25 0 0 1 .44.14c26.36 11.72 36.1 42.7 36.5 44a2.49 2.49 0 0 1-2.22 3.22l-23.73 1.63z"/></g><path d="M375.8 915.05l-.2-359H526V913.7l-66.15.73-.08-279s-9.25 4-16-2l.22 280.4z" fill="url(#F)"/><g class="W"><path d="M526.5 558h-151a2.5 2.5 0 0 1-2.5-2.5V465a2.5 2.5 0 1 1 5 0v88h146v-88a2.5 2.5 0 1 1 5 0v90.5a2.5 2.5 0 0 1-2.5 2.5z"/><path d="M339.46 526.14h-.1a2.51 2.51 0 0 1-2.39-2.6 260.55 260.55 0 0 1 8.2-50.28c9.64-35.45 25.15-57.82 46.1-66.48a2.19 2.19 0 0 1 .57-.16l30.83-4.87a2.48 2.48 0 0 1 2.11.66L449.6 426l21.93-23.5a2.5 2.5 0 1 1 3.66 3.41l-23.66 25.34a2.47 2.47 0 0 1-1.75.79 2.4 2.4 0 0 1-1.8-.68l-25.76-24.5-29.32 4.63c-46.4 19.55-50.9 111.3-50.9 112.24a2.5 2.5 0 0 1-2.54 2.39z"/><path d="M375.57,566.71l-.25,0L331.1,562.3a2.49,2.49,0,0,1-1.7-.91,2.52,2.52,0,0,1-.54-1.85l4.06-36.18a2.54,2.54,0,0,1,1-1.71,2.57,2.57,0,0,1,1.91-.48L376,527.62a2.5,2.5,0,0,1-.79,4.94l-37.58-6-3.49,31.05,41.71,4.14a2.5,2.5,0,0,1-.25,5Z"/><path d="M454.48,367H448a2.5,2.5,0,0,1,0-5h3.31l-2.63-11a2.5,2.5,0,1,1,4.86-1.17l3.37,14.07a2.49,2.49,0,0,1-2.43,3.08Z"/><path d="M451,383.05a21.17,21.17,0,0,1-11.9-3.85,2.5,2.5,0,0,1,3-4c.25.19,6,4.4,13,2.2a2.5,2.5,0,1,1,1.5,4.77A18.33,18.33,0,0,1,451,383.05Z"/><path d="M419.13,347.77a2.5,2.5,0,0,1-1.17-4.71c.43-.23,10.63-5.51,18.21-1.19a2.5,2.5,0,0,1-2.48,4.35c-4.3-2.45-11.13.08-13.4,1.27A2.54,2.54,0,0,1,419.13,347.77Z"/><path d="M435.31,351.6a3,3,0,1,1-1.62-4.12A3.14,3.14,0,0,1,435.31,351.6Z"/><path d="M480.16 347.77a2.51 2.51 0 0 1-1.16-.28h0c-2.27-1.2-9.1-3.73-13.4-1.27a2.5 2.5 0 1 1-2.47-4.35c7.57-4.32 17.77 1 18.2 1.2a2.5 2.5 0 0 1-1.16 4.71z"/><path d="M464,351.6a3,3,0,1,0,1.62-4.12A3.15,3.15,0,0,0,464,351.6Z"/><path d="M419.67,406.44h-.14a2.5,2.5,0,0,1-2.36-2.63l.53-10a2.5,2.5,0,0,1,5,.27l-.53,10A2.49,2.49,0,0,1,419.67,406.44Z"/><path d="M452.38,637.25c-14.76,0-24-6.37-24.56-6.76a2.5,2.5,0,0,1,2.89-4.09c.76.54,18.31,12.43,44,.67a2.5,2.5,0,1,1,2.08,4.55A58.29,58.29,0,0,1,452.38,637.25Z"/><path d="M375.57,711.15h-.2c-11.9-.95-18.12-18-18.12-26.89,0-7.87-3.18-26.87-3.21-27.06l-13.8-87.25a2.5,2.5,0,0,1,4.94-.78L359,656.38c.13.77,3.28,19.59,3.28,27.87,0,7.34,5.13,21.24,13.52,21.91a2.5,2.5,0,0,1-.2,5Z"/><path d="M374.72 691.74a5.43 5.43 0 0 1-3.28-1.13c-2-1.47-4.85-5-6.6-18.9-.92-7.25-1.08-13.85-1.1-14.13a2.49 2.49 0 0 1 2.44-2.57h.06a2.52 2.52 0 0 1 2.5 2.46c.42 17.5 3.57 27.57 5.67 29.12.25.2.35.17.5.13a2.5 2.5 0 1 1 1.34 4.82 5.74 5.74 0 0 1-1.52.21z"/><path d="M489.85 574.2c-5.1 0-9.08-1.6-11.8-4.77-4.5-5.22-3.82-12.87-3.65-14.28l-1.4-143.6a2.5 2.5 0 0 1 2.47-2.54h0a2.51 2.51 0 0 1 2.5 2.49l1.4 143.77a2.56 2.56 0 0 1 0 .39c0 .06-.9 6.62 2.5 10.52 1.73 2 4.42 3 8 3a5.91 5.91 0 0 0 4.48-1.83c3.2-3.33 3.65-10.5 3.55-13l-2.44-130.6a2.7 2.7 0 0 1 2.45-2.78h.05a2.71 2.71 0 0 1 2.5 2.69l2.44 130.44c0 .4.4 11.06-4.94 16.62a10.85 10.85 0 0 1-8.1 3.49z"/><path d="M490.7,563.54a3,3,0,1,1-3-3.25A3.13,3.13,0,0,1,490.7,563.54Z"/><path d="M411.7 574.2c-5.1 0-9.07-1.6-11.8-4.77-4.5-5.22-3.83-12.87-3.66-14.28l-1.4-146.73a2.4 2.4 0 0 1 2.48-2.41h0a2.41 2.41 0 0 1 2.5 2.37l1.4 147a2.19 2.19 0 0 1 0 .36c0 .06-.9 6.6 2.48 10.5 1.74 2 4.43 3 8 3a5.89 5.89 0 0 0 4.49-1.84c3.2-3.35 3.65-10.48 3.54-13l-2.44-137.83a2.49 2.49 0 0 1 2.45-2.54 2.53 2.53 0 0 1 2.55 2.46l2.43 137.77c0 .4.4 11-4.93 16.56a10.81 10.81 0 0 1-8.1 3.38z"/><path d="M412.56,563.54a3,3,0,1,1-3-3.25A3.13,3.13,0,0,1,412.56,563.54Z"/></g></g><path d="M502 352.65h25v48h-25z" class="c"/><path d="M494.93 355.57l6.76 1.62" class="V"/><path d="M501.69,593a2.36,2.36,0,0,1-.58-.07l-6.76-1.63a2.5,2.5,0,1,1,1.17-4.86l6.76,1.63a2.5,2.5,0,0,1-.59,4.93Z" transform="translate(0 -233.35)" class="W"/><path d="M493.3 395.33l8.38-2.84" class="V"/><path d="M493.31,631.18a2.5,2.5,0,0,1-.8-4.87l8.38-2.84a2.5,2.5,0,1,1,1.61,4.73L494.11,631A2.45,2.45,0,0,1,493.31,631.18Z" transform="translate(0 -233.35)" class="W"/><path d="M494 381.65h8" class="V"/><path d="M502,617h-8a2.5,2.5,0,0,1,0-5h8a2.5,2.5,0,0,1,0,5Z" transform="translate(0 -233.35)" class="W"/><path d="M493.58 366.93l8.1 1.62" class="V"/><path d="M501.7,604.4a2.83,2.83,0,0,1-.5,0l-8.11-1.62a2.5,2.5,0,0,1,1-4.91l8.11,1.63a2.5,2.5,0,0,1-.48,4.95Z" transform="translate(0 -233.35)" class="W"/><path d="M374 485.65h26v39h-26z" class="c"/><path d="M406.94 492.24l-6.75 1.62" class="V"/><path d="M400.18,729.71a2.5,2.5,0,0,1-.58-4.93l6.76-1.63a2.5,2.5,0,1,1,1.17,4.86l-6.76,1.63A3,3,0,0,1,400.18,729.71Z" transform="translate(0 -233.35)" class="W"/><path d="M408 517.65h-8" class="V"/><path d="M408,753h-8a2.5,2.5,0,0,1,0-5h8a2.5,2.5,0,0,1,0,5Z" transform="translate(0 -233.35)" class="W"/><path d="M408.3 503.6l-8.1 1.62" class="V"/><g transform="translate(0 -233.35)" class="W"><path d="M400.18 741.07a2.51 2.51 0 0 1-.48-5l8.1-1.62a2.5 2.5 0 1 1 1 4.9l-8.13 1.65a2.83 2.83 0 0 1-.5.07z"/><path d="M449.75,401.23c-15.53,0-29-8.07-39-23.4a85.34,85.34,0,0,1-10.56-23.68,87.7,87.7,0,0,1-2.13-22.88,2.5,2.5,0,1,1,5,.31c-.64,10.26,2,21.28,2,21.39.11.43,11,43.26,44.68,43.26h.95c14.2-.34,24.73-8.21,31.33-23.41a78.25,78.25,0,0,0,5.79-23.65c0-.24,1.3-13.93,0-20.78a2.5,2.5,0,1,1,4.92-.9c1.39,7.53.09,21.47,0,22.06a82.15,82.15,0,0,1-6.14,25.13c-7.33,17-19.72,26.17-35.85,26.55Z"/><path d="M406.89,373.53c-5.92,0-14.75-2.41-19.28-11.83-2-4.09-2.08-7.71-.35-10.76,3.31-5.82,12-6.75,13-6.84a2.5,2.5,0,0,1,.44,5c-1.95.18-7.39,1.32-9.1,4.34-.87,1.54-.69,3.59.52,6.12,5.15,10.72,16.89,8.84,17,8.82a2.5,2.5,0,1,1,.85,4.93A18.65,18.65,0,0,1,406.89,373.53Z"/><path d="M488.67 373.53a18.65 18.65 0 0 1-3.09-.24 2.5 2.5 0 1 1 .84-4.93c.48.08 11.9 1.82 17-8.82 1.2-2.53 1.38-4.58.52-6.12-1.7-3-7.16-4.16-9.1-4.34a2.51 2.51 0 1 1 .45-5c1 .1 9.7 1 13 6.84 1.73 3.05 1.6 6.67-.36 10.76-4.5 9.44-13.34 11.85-19.25 11.85z"/><path d="M401.64 287.85L415 321.6s34.16 25.93 76.36 7.27l.6 13.3s22.83-14.24 18.05-41.77c-3.47-20.08-28-53.35-70.13-40.48-33.13 10.08-38.23 27.93-38.23 27.93z"/><path d="M410.83 322.55l-10.35-29.74s-18.63 7.6-15.3 24.68S402 350.4 402 350.4s8.7-8.98 8.83-27.85z"/><path d="M450,472a2.57,2.57,0,0,1-2.5-2.56l-.27-39.86a2.55,2.55,0,0,1,2.48-2.58h0a2.52,2.52,0,0,1,2.5,2.51l.27,39.88A2.57,2.57,0,0,1,450,472Z"/></g><g class="a"><path d="M375.73 582.65l.06 99.5 68.22-1.1-.1-98.4h-68.2z"/><path d="M459.73 582.65l-.35 98.78 66.62-1.1v-97.7h-66.27z"/></g><path d="M459 647.65h67.25l.48 63.56a40.71 40.71 0 0 1 25.08 32.44H459z" class="Y"/><path d="M551.83 979H459.5a2.5 2.5 0 0 1-2.5-2.5v-96a2.5 2.5 0 0 1 2.5-2.5h66.75a2.5 2.5 0 0 1 2.5 2.48l.47 61.9a43 43 0 0 1 25 33.46 2.5 2.5 0 0 1-2.41 3.17zM462 974h86.84a37.83 37.83 0 0 0-22.93-27.58 2.51 2.51 0 0 1-1.68-2.34l-.46-61.08H462z" transform="translate(0 -233.35)" class="W"/><path d="M443 647.65h-66.3l-.47 63.56a40.71 40.71 0 0 0-25.08 32.44H443z" class="Y"/><path d="M443.5 979h-92.35a2.5 2.5 0 0 1-2.48-2.84 42.93 42.93 0 0 1 25.07-33.79l.46-61.9a2.5 2.5 0 0 1 2.5-2.48h66.8a2.5 2.5 0 0 1 2.5 2.5v96a2.5 2.5 0 0 1-2.5 2.5zm-89.38-5H441v-91h-61.82l-.45 61.08a2.5 2.5 0 0 1-1.69 2.34A37.85 37.85 0 0 0 354.12 974z" transform="translate(0 -233.35)" class="W"/><path d="M390 658.3l12.44 7.85" class="V"/><path d="M402.45,902a2.45,2.45,0,0,1-1.34-.39l-12.43-7.85a2.5,2.5,0,0,1,2.67-4.23l12.43,7.86a2.5,2.5,0,0,1-1.33,4.61Z" transform="translate(0 -233.35)" class="W"/><path d="M402.45 658.3L390 666.14" class="V"/><path d="M390,902a2.5,2.5,0,0,1-1.33-4.61l12.43-7.86a2.5,2.5,0,1,1,2.67,4.23l-12.43,7.85A2.45,2.45,0,0,1,390,902Z" transform="translate(0 -233.35)" class="W"/><path d="M390 676.32l12.44 7.86" class="V"/><path d="M402.45,920a2.53,2.53,0,0,1-1.34-.38l-12.43-7.86a2.5,2.5,0,0,1,2.67-4.23l12.43,7.86a2.5,2.5,0,0,1-1.33,4.61Z" transform="translate(0 -233.35)" class="W"/><path d="M402.45 676.32L390 684.18" class="V"/><path d="M390,920a2.5,2.5,0,0,1-1.33-4.61l12.43-7.86a2.5,2.5,0,1,1,2.67,4.23l-12.43,7.86A2.53,2.53,0,0,1,390,920Z" transform="translate(0 -233.35)" class="W"/><path d="M390 613.68l12.44 7.86" class="a"/><path d="M402.45 624.03a2.53 2.53 0 0 1-1.34-.38l-12.43-7.86a2.5 2.5 0 1 1 2.67-4.23l12.43 7.86a2.5 2.5 0 0 1-1.33 4.61z" class="V"/><path d="M402.45 613.68L390 621.54" class="a"/><path d="M390 624.03a2.5 2.5 0 0 1-1.33-4.61l12.43-7.86a2.5 2.5 0 1 1 2.67 4.23l-12.42 7.86a2.53 2.53 0 0 1-1.35.38z" class="V"/><path d="M390 631.7l12.44 7.86" class="a"/><path d="M402.45 642.07a2.54 2.54 0 0 1-1.34-.39l-12.43-7.86a2.5 2.5 0 0 1 .105-4.41 2.5 2.5 0 0 1 2.565.19l12.43 7.85a2.5 2.5 0 0 1-1.33 4.62z" class="V"/><path d="M402.45 631.7L390 639.57" class="a"/><path d="M390 642.07a2.5 2.5 0 0 1-1.33-4.62l12.44-7.8a2.5 2.5 0 1 1 2.67 4.22l-12.43 7.78a2.54 2.54 0 0 1-1.35.42zm112 16.23l12.44 7.85" class="V"/><path d="M514.44,902a2.39,2.39,0,0,1-1.33-.39l-12.44-7.85a2.5,2.5,0,0,1,2.67-4.23l12.44,7.86a2.5,2.5,0,0,1-1.34,4.61Z" transform="translate(0 -233.35)" class="W"/><path d="M514.44 658.3L502 666.14" class="V"/><path d="M502,902a2.5,2.5,0,0,1-1.34-4.61l12.44-7.86a2.5,2.5,0,0,1,2.67,4.23l-12.44,7.85A2.44,2.44,0,0,1,502,902Z" transform="translate(0 -233.35)" class="W"/><path d="M502 676.32l12.44 7.86" class="V"/><path d="M514.44,920a2.47,2.47,0,0,1-1.33-.38l-12.44-7.86a2.5,2.5,0,0,1,2.67-4.23l12.44,7.86a2.5,2.5,0,0,1-1.34,4.61Z" transform="translate(0 -233.35)" class="W"/><path d="M514.44 676.32L502 684.18" class="V"/><path d="M502,920a2.5,2.5,0,0,1-1.34-4.61l12.44-7.86a2.5,2.5,0,0,1,2.67,4.23l-12.44,7.86A2.52,2.52,0,0,1,502,920Z" transform="translate(0 -233.35)" class="W"/><path d="M502 613.68l12.44 7.86" class="a"/><path d="M514.44 624.03a2.47 2.47 0 0 1-1.33-.38l-12.44-7.86a2.5 2.5 0 1 1 2.67-4.23l12.44 7.86a2.5 2.5 0 0 1-1.34 4.61z" class="V"/><path d="M514.44 613.68L502 621.54" class="a"/><path d="M502 624.03a2.5 2.5 0 0 1-1.34-4.61l12.44-7.86a2.5 2.5 0 1 1 2.67 4.23l-12.43 7.86a2.52 2.52 0 0 1-1.34.38z" class="V"/><path d="M502 631.7l12.44 7.86" class="a"/><path d="M514.44 642.07a2.48 2.48 0 0 1-1.33-.39l-12.44-7.86a2.5 2.5 0 0 1 .105-4.41 2.5 2.5 0 0 1 2.565.19l12.44 7.85a2.51 2.51 0 0 1-1.34 4.62z" class="V"/><path d="M514.44 631.7L502 639.57" class="a"/><path d="M502 642.07a2.5 2.5 0 0 1-1.34-4.62l12.45-7.8a2.5 2.5 0 0 1 2.67 4.22l-12.44 7.78a2.53 2.53 0 0 1-1.34.42z" class="V"/><path d="M314.7 96.55s130 36.84 273.32 0L448.8 0z" class="c"/><g transform="translate(0 -233.35)" class="W"><path d="M453.05,348.73c-20.9,0-39.72-1.07-55.65-2.53-50.07-4.57-83-13.81-83.38-13.9a2.5,2.5,0,0,1,1.37-4.81c.32.09,32.95,9.22,82.6,13.75,45.77,4.17,115.79,5.17,189.41-13.76a2.5,2.5,0,1,1,1.25,4.84C539.92,344.85,492.76,348.73,453.05,348.73Z"/><path d="M542.39,526.14l-.37,0a2.51,2.51,0,0,1-1.86-1.34L525,494.91a2.5,2.5,0,1,1,4.45-2.27L543,519.37l35.92-37.44c-5.4-9.08-31.78-53.22-39.18-60.63-7.83-7.82-24.86-9.71-25-9.73h-.13l-30.83-4.87a2.5,2.5,0,1,1,.78-4.94l30.77,4.86c1.43.16,19.09,2.28,28,11.16,8.67,8.66,39.61,61,40.92,63.25a2.49,2.49,0,0,1-.35,3l-39.67,41.35A2.46,2.46,0,0,1,542.39,526.14Z"/></g><path d="M637 189.03s.44-11.18 6.13-10.86 35.63 4.82 32.47 18-17.55 19.22-23 17.93-14.98-16.34-15.6-25.07z" class="Y"/><g transform="translate(0 -233.35)" class="W"><path d="M654.22 450.15a10.07 10.07 0 0 1-2.21-.23c-6.1-1.44-16.74-16.63-17.52-27.36a2.44 2.44 0 0 1 0-.27c.5-12.9 7.6-13.28 8.4-13.28h.38c4.9.27 26.2 3.35 32.9 12.34a10.31 10.31 0 0 1 1.87 8.77c-3.1 12.88-16.02 20.03-23.8 20.03zm-14.73-27.82c.7 8.37 10 21.84 13.67 22.7a4.54 4.54 0 0 0 1.06.11c5.4 0 16.35-5.4 18.93-16.18a5.28 5.28 0 0 0-1-4.63C667 417.45 647.9 414 643 414h0c-2.14 0-3.36 5.27-3.5 8.33z"/><path d="M555.92,551.69h-.1a2.49,2.49,0,0,1-2.1-1.31l-14.4-26.72a2.5,2.5,0,1,1,4.4-2.37l12.4,23L587,496.58l-3.39-4.43a2.5,2.5,0,1,1,4-3L592,495a2.48,2.48,0,0,1,.11,2.87L558,550.55A2.49,2.49,0,0,1,555.92,551.69Z"/></g><path d="M587.5 268.03l30.24-43 8.54-34.63 29-1.33S650 199.73 641 200.18c0 0 10.16 16 6.16 21.48" class="Y"/><g transform="translate(0 -233.35)" class="W"><path d="M587.5 503.88a2.44 2.44 0 0 1-1.43-.46 2.49 2.49 0 0 1-.61-3.48l30-42.65 8.43-34.17a2.49 2.49 0 0 1 2.31-1.9l29-1.33a2.49 2.49 0 0 1 2.21 1.12 2.52 2.52 0 0 1 .15 2.48c-.2.43-4.6 9.17-12.5 11.8 3.1 5.53 8 16 4.22 21.2a2.5 2.5 0 0 1-4-2.95c2-2.68-2.37-12.57-6.25-18.68a2.5 2.5 0 0 1-.1-2.48 2.47 2.47 0 0 1 2.09-1.35c4.15-.2 7.46-3.28 9.56-5.93l-22.22 1-8.1 32.8a2.58 2.58 0 0 1-.39.84l-30.23 43a2.52 2.52 0 0 1-2.16 1.13z"/><path d="M262.68,477.35a91.75,91.75,0,0,1-17.15-1.66,104.85,104.85,0,0,1-32.34-11.81,2.5,2.5,0,0,1-1.19-2.13V366.54a2.32,2.32,0,0,1,0-.46c2.82-15.15,17.37-39.55,54-35,20.35,2.55,37.5,17.84,38.22,18.49a2.5,2.5,0,1,1-3.35,3.71c-.16-.15-16.73-14.89-35.49-17.24-39.9-5-47.56,26.11-48.47,30.7V460.3a103.67,103.67,0,0,0,29.63,10.51c23.32,4.38,44-.35,61.37-14.06V369a2.5,2.5,0,0,1,5,0V458a2.49,2.49,0,0,1-.92,1.94A77,77,0,0,1,262.68,477.35Z"/></g><path d="M432.5 29.12L355.9 83.5" class="Y"/><g transform="translate(0 -233.35)"><g class="W"><path d="M355.9,319.34a2.5,2.5,0,0,1-1.45-4.54l76.61-54.37a2.5,2.5,0,1,1,2.9,4.07l-76.62,54.38A2.49,2.49,0,0,1,355.9,319.34Z"/><path d="M214.48 464.25a2.37 2.37 0 0 1-.52-.06 2.5 2.5 0 0 1-1.93-3L233 362.13c.24-11.88 15.57-29.7 16.23-30.47a2.5 2.5 0 0 1 3.78 3.27c-4.18 4.82-15 19.16-15 27.48a2.22 2.22 0 0 1-.06.51l-21 99.34a2.51 2.51 0 0 1-2.47 1.99z"/><path d="M458,443.6a3,3,0,1,0,1.62-4.12A3.15,3.15,0,0,0,458,443.6Z"/><path d="M458,462.6a3,3,0,1,0,1.62-4.12A3.15,3.15,0,0,0,458,462.6Z"/></g><path d="M761.62 632.32L762 921.1l68.3-1.25-.18-280.38c6.73 5.9 16 1.92 16 1.92l.38 279 66.52-.74v-287.7S915.8 585 899.72 562H779.66s-18.04 15.83-18.04 70.32z" fill="url(#H)"/></g><path d="M959.38 637.28l-35.93-238s-7.66-46.63-23.73-69.63H779.66s-19.6 23.8-22.78 70.06L717 637.5s23.34 17 44.9 16.5 50.5-19.5 64.26-19.5 32.74 18.5 57.9 19.44 39.15-17.12 75.34-16.65z" class="Y"/><g transform="translate(0 -233.35)" class="b"><path d="M886 890h0c-.65 0-1.3-.1-2-.14-14.76-.55-27.62-7.05-37.94-12.24-7.77-3.9-14.48-7.3-19.86-7.3-5.7 0-15 3.86-24.85 7.95-12.68 5.27-27.05 11.24-39.36 11.5h-1c-21.86 0-44.52-16.37-45.47-17.07a2.46 2.46 0 0 1-1-2.43l39.83-237.78c1.68-24.2 7.88-42.3 12.8-53.24 5.37-12 10.34-18.1 10.54-18.36a2.52 2.52 0 0 1 1.94-.92h120.1a2.5 2.5 0 0 1 2 1.07c6.83 9.77 13 24.7 18.25 44.32 3.92 14.54 5.88 26.42 5.9 26.54l35.9 238a2.11 2.11 0 0 1 .09.62 2.44 2.44 0 0 1-2.5 2.43h0c-19 0-31.4 4.78-43.4 9.47-9.67 3.82-18.8 7.56-29.96 7.56zm-59.78-24.7c6.57 0 13.77 3.6 22.1 7.8 10.4 5.23 22.2 11.16 35.88 11.67 11.12.4 19.82-3 30-7 11.25-4.4 24-9.4 42.34-9.65L921 632.7c-.07-.43-7.52-45.08-22.58-67.7H780.9a94.42 94.42 0 0 0-9.25 16.53c-4.72 10.55-10.67 28-12.28 51.45a1 1 0 0 1 0 .24l-39.62 236.34c5 3.35 23.82 15.23 41.27 15.23h.83c11.36-.25 25.27-6 37.55-11.14 10.76-4.48 20.06-8.34 26.77-8.34z"/><path d="M899.72,564H780.14a2.5,2.5,0,0,1-2.43-1.89l-18-71.79,0-.13c-.18-.9-4.35-22.41-.44-37.17a2.5,2.5,0,0,1,4.83,1.27c-3.51,13.29.27,33.64.5,34.88L782.09,559H897.64l12.91-69.75c1.55-6.9,4.53-26.32.05-34.31A2.5,2.5,0,1,1,915,452.5c6.34,11.29.73,36.68.49,37.76L902.18,562A2.5,2.5,0,0,1,899.72,564Z"/><path d="M840.76,377H835a2.5,2.5,0,0,1,0-5h2.67l-2.37-11a2.5,2.5,0,1,1,4.89-1l3,14.07a2.5,2.5,0,0,1-2.45,3Z"/><path d="M836.46 391.3a16.42 16.42 0 0 1-7-1.56 2.5 2.5 0 1 1 2.28-4.45 10.87 10.87 0 0 0 9.29-.09 2.5 2.5 0 0 1 2.32 4.42 14.56 14.56 0 0 1-6.89 1.68z"/><path d="M805.41,353.77a2.5,2.5,0,0,1-1.17-4.71c.43-.23,10.63-5.51,18.21-1.19a2.5,2.5,0,0,1-2.48,4.35c-5.13-2.93-13.32,1.22-13.4,1.27A2.54,2.54,0,0,1,805.41,353.77Z"/><path d="M821.59,357.6a3,3,0,1,1-1.62-4.12A3.14,3.14,0,0,1,821.59,357.6Z"/><path d="M866.43,353.77a2.54,2.54,0,0,1-1.16-.28h0c-2.27-1.19-9.1-3.73-13.4-1.27a2.5,2.5,0,0,1-2.48-4.35c7.58-4.32,17.78,1,18.21,1.19a2.5,2.5,0,0,1-1.17,4.71Z"/><path d="M850.25,357.6a3,3,0,1,0,1.62-4.12A3.15,3.15,0,0,0,850.25,357.6Z"/><path d="M837.21,412.78c-29.21,0-49.74-50.16-50.6-52.29a2.35,2.35,0,0,1-.11-.35,87.52,87.52,0,0,1-2.13-22.87,2.5,2.5,0,1,1,5,.31,83.34,83.34,0,0,0,2,21.21c1.32,3.19,20.82,49,45.89,49,26.26,0,36.4-50.17,36.92-52.83.12-1.34,1.22-14.05,0-20.57a2.5,2.5,0,1,1,4.92-.9c1.38,7.53.08,21.47,0,22.06l0,.21C878.64,358.08,868.16,412.78,837.21,412.78Z"/><path d="M793.17,379.53c-5.92,0-14.75-2.41-19.28-11.83-2-4.09-2.09-7.71-.35-10.76,3.3-5.82,12-6.75,13-6.84a2.5,2.5,0,1,1,.44,5c-2,.18-7.39,1.32-9.1,4.34-.87,1.54-.69,3.59.52,6.12,5.11,10.64,16.54,8.9,17,8.82a2.5,2.5,0,0,1,.84,4.93A18.65,18.65,0,0,1,793.17,379.53Z"/><path d="M875 379.53a18.65 18.65 0 0 1-3.09-.24 2.5 2.5 0 0 1 .83-4.93c.5.08 11.92 1.8 17-8.82 1.22-2.53 1.4-4.58.53-6.12-1.72-3-7.16-4.16-9.1-4.34a2.51 2.51 0 1 1 .45-5c1 .1 9.7 1 13 6.84 1.73 3.05 1.6 6.67-.36 10.76-4.55 9.44-13.4 11.85-19.25 11.85z"/><path d="M754.74,634.72c-11.84,0-20.47-3.05-25.7-9.09-6.21-7.18-5.28-16-5-17.61V560.76a1.48,1.48,0,0,1,0-.21l2.61-31a252.17,252.17,0,0,1,6.58-50.16c8.43-35,23.82-58,44.5-66.53a2.19,2.19,0,0,1,.57-.16l30.7-4.81a2.5,2.5,0,1,1,.77,4.94l-30.4,4.76C733,437.11,731.62,528.75,731.62,529.68a1.15,1.15,0,0,0,0,.19l-2.61,31v47.35a2.12,2.12,0,0,1,0,.44c0,.07-1.27,8,3.9,13.91,4.55,5.22,12.67,7.44,24.17,7.44h.08a2.37,2.37,0,0,1,2.5,2.25,2.45,2.45,0,0,1-2.42,2.51C756.36,634.78,755.54,634.72,754.74,634.72Z"/><path d="M741.64,702.58a5.5,5.5,0,0,1-3.34-1.17c-2-1.5-4.78-5.1-6.37-19-.83-7.26-.91-13.73-.92-14a2.39,2.39,0,0,1,2.47-2.41h0a2.4,2.4,0,0,1,2.5,2.35c.21,17.51,3.23,27.55,5.32,29.14a.42.42,0,0,0,.48.09,2.49,2.49,0,1,1,1.29,4.81A5.68,5.68,0,0,1,741.64,702.58Z"/><path d="M752,665H721.77a2.5,2.5,0,0,1-2.43-1.88c-.22-.89-5.35-22,14-37.62a2.5,2.5,0,1,1,3.14,3.89c-13.85,11.16-13.34,25.5-12.63,30.61H752a2.5,2.5,0,0,1,0,5Z"/><path d="M927.07 634.72h-2.63a2.34 2.34 0 0 1 .08-4.68h.08c11.9 0 20.1-2.15 24.4-7.26s3.08-12 3.07-12a3.15 3.15 0 0 1-.06-.61v-49.3l-2.92-31v-.2c0-.93-1.7-92.6-48-112.12l-30.4-4.76a2.5 2.5 0 0 1-1.585-4.051 2.5 2.5 0 0 1 2.355-.889l30.7 4.8a2.44 2.44 0 0 1 .57.16c20.67 8.55 36.1 31.56 44.65 66.52a253.58 253.58 0 0 1 6.74 50.16l2.93 31a1.93 1.93 0 0 1 0 .24v49.1a20.12 20.12 0 0 1-4.12 15.85c-5.02 6-13.7 9-25.86 9z"/><path d="M935.18,697.51a5.57,5.57,0,0,1-2-.39,2.5,2.5,0,0,1,1.82-4.65c.14,0,.23.08.5-.07,2.25-1.34,6.4-11,8.59-28.4a2.5,2.5,0,1,1,5,.62c0,.28-.86,6.81-2.51,13.93-3.16,13.62-6.35,16.88-8.48,18.15A5.59,5.59,0,0,1,935.18,697.51Z"/><path d="M958.59,665H928a2.5,2.5,0,0,1,0-5h28.58c.82-4.85,1.6-18.49-12.19-29.61a2.5,2.5,0,1,1,3.14-3.89c19.4,15.64,13.71,35.85,13.46,36.71A2.5,2.5,0,0,1,958.59,665Z"/><path d="M870 515.58a20 20 0 0 1-2-.1 23.48 23.48 0 0 1-11-3.68 9.68 9.68 0 0 0-4.37-1.75 2.75 2.75 0 0 0-.41 0c-1.7 0-3.85 1-6.12 2.13-3.4 1.64-7.3 3.5-12 3.32a16.81 16.81 0 0 1-9.33-3.14 11.5 11.5 0 0 0-6-2.28c-2.6-.2-3.7.62-5.4 1.92a14.32 14.32 0 0 1-8.85 3.5 20.27 20.27 0 0 1-14.24-4.5 2.48 2.48 0 0 1-.8-1.82l-.58-95.28c-6.76-4.9-42.16-31.6-43.37-53.54-.37-6.62 3.53-14.5 11.6-23.44 19.4-21.47 57-42.65 77.46-43.58h1.4c19.83 0 48.58 18.07 65.55 35.08 11.72 11.74 18.17 23.05 18.16 31.84 0 19-30.2 48.4-35.7 53.6v93.73a2.46 2.46 0 0 1-.39 1.34 16.27 16.27 0 0 1-13.61 6.66zM852.18 505h.92a14.48 14.48 0 0 1 6.42 2.43 18.5 18.5 0 0 0 8.94 3 13.47 13.47 0 0 0 1.54.08 11.58 11.58 0 0 0 9-3.9v-94a2.48 2.48 0 0 1 .81-1.84c.34-.32 34.85-32.34 34.88-50.67 0-7.35-6.07-17.66-16.7-28.3-18.8-18.85-46-33.6-62-33.6h-1.16c-19 .86-55.63 21.63-74 41.93-7 7.8-10.6 14.65-10.32 19.82.48 8.67 7.88 20.1 21.4 33.07a202.24 202.24 0 0 0 20.91 17.4 2.5 2.5 0 0 1 1.07 2l.57 95.35a15.88 15.88 0 0 0 9.73 2.58 9.54 9.54 0 0 0 6.07-2.48c2-1.53 4.23-3.28 8.82-2.93a16.35 16.35 0 0 1 8.32 3 12 12 0 0 0 6.86 2.38c3.5.12 6.6-1.37 9.62-2.84 2.8-1.17 5.45-2.47 8.3-2.47z"/></g><path d="M792.94 332.42l-21.28 150.53s7.16 6.62 19.26 6 11.73-9.28 22.7-8.44 11.86 8 23.83 8.45 20.87-9.3 29.15-8.46 9.64 7 24 8.46 20.85-8.53 20.85-8.53L889.3 332.65" class="c"/><g transform="translate(0 -233.35)" class="b"><path d="M893.47,725a29.81,29.81,0,0,1-3.07-.16,35.5,35.5,0,0,1-16.62-5.55c-2.46-1.46-4.4-2.61-7.42-2.92s-6.78,1.42-11,3.43c-5.18,2.49-11,5.33-18,5s-10.59-2.62-13.86-4.69c-2.89-1.82-5.39-3.4-10.06-3.76s-6.62,1.17-9.37,3.28-6.3,4.82-13,5.17c-13,.67-20.76-6.36-21.08-6.66a2.51,2.51,0,0,1-.78-2.18l21.29-150.53a2.5,2.5,0,1,1,4.95.7l-21.09,149.1a26.1,26.1,0,0,0,16.45,4.57c5.18-.27,7.64-2.15,10.25-4.15,2.93-2.24,6.25-4.77,12.79-4.28,5.91.45,9.33,2.61,12.35,4.52s5.85,3.7,11.39,3.92c5.75.25,10.8-2.21,15.68-4.56,4.65-2.24,9-4.36,13.62-3.89,4.12.41,6.72,2,9.47,3.6a30.94,30.94,0,0,0,14.56,4.87c10.6,1,16.29-4.65,18-6.71l-22-146.78a2.5,2.5,0,1,1,4.94-.74L914,713.4a2.52,2.52,0,0,1-.38,1.73C913.32,715.56,907.07,725,893.47,725Z"/><path d="M893.47,716a29.81,29.81,0,0,1-3.07-.16,35.5,35.5,0,0,1-16.62-5.55c-2.46-1.46-4.4-2.61-7.42-2.92s-6.78,1.42-11,3.43c-5.18,2.49-11,5.32-18,5s-10.59-2.62-13.86-4.69c-2.89-1.82-5.39-3.4-10.06-3.76s-6.62,1.17-9.37,3.28-6.3,4.82-13,5.17c-13,.68-20.76-6.36-21.08-6.66a2.5,2.5,0,0,1,3.39-3.67h0a25.5,25.5,0,0,0,17.43,5.33c5.18-.27,7.64-2.15,10.25-4.15,2.93-2.24,6.25-4.77,12.79-4.28,5.91.45,9.33,2.61,12.35,4.52s5.85,3.7,11.39,3.92c5.75.25,10.8-2.21,15.68-4.56,4.65-2.24,9-4.35,13.62-3.89,4.12.41,6.72,2,9.47,3.6a30.94,30.94,0,0,0,14.56,4.87c12.74,1.25,18.46-7.32,18.52-7.41a2.5,2.5,0,1,1,4.19,2.72C913.32,706.56,907.07,716,893.47,716Z"/></g><path d="M833 182.54s-27.4 12.47-29.67 37.23c.04 0 34.53-5.5 29.67-37.23z" class="c"/><path d="M803.37 455.62a2.51 2.51 0 0 1-2.49-2.73c1-10.78 6.7-21 16.54-29.56a66.51 66.51 0 0 1 14.58-9.72 2.47 2.47 0 0 1 2.23.08 2.5 2.5 0 0 1 1.28 1.82c5.14 33.8-31.38 40-31.75 40.08a2.56 2.56 0 0 1-.39.03zm27.57-35.8c-6.54 3.78-21.3 13.94-24.57 30 7.73-2.1 25.73-9.3 24.57-30z" transform="translate(0 -233.35)" class="b"/><path d="M840.77 182.54s27.38 12.47 29.66 37.23c0 0-34.5-5.5-29.66-37.23z" class="c"/><g transform="translate(0 -233.35)" class="b"><path d="M870.43 456c-.13 0-.26-.2-.4-.22-.37-.06-36.9-6.38-31.75-40.17a2.58 2.58 0 0 1 1.29-1.87 2.48 2.48 0 0 1 2.22-.11 66.86 66.86 0 0 1 14.59 9.71c9.72 8.48 15.42 18.57 16.5 29.23a4.52 4.52 0 0 1 .06.74 2.67 2.67 0 0 1-2.5 2.69zm-27.57-36.17c-.6 10.4 3.53 18.64 12.3 24.5a44.32 44.32 0 0 0 12.26 5.53c-3.28-16.1-18.03-26.24-24.57-30.02z"/><path d="M748 353.3s37.46-83 85.5-86.12 83.78 89.33 83.78 89.33-24-56.42-82.57-60.7c-36.6-2.67-86.7 57.48-86.7 57.48z"/><path d="M778.08 333.93s44.6-33.72 58-31.15 20 7.4 20 7.4-31.33 43.9-69.86 45.37c0 0-6.62.27-8.25-3-2.6-5.1-.6-15.07.1-18.62z"/><path d="M857 310.6s1.27 35.37 19.9 38.76l9.34 1.9s.1-15.93-1.6-18.6c.04 0-21.24-18.66-27.65-22.05z"/><path d="M788.52 377l2.88 35.58 33.75-5.43s-24.65-25-27.5-30.15c0 0-6.37 1.34-9.14 0z"/><path d="M871 377s-9.5 25-15.63 27.43l26.32 8.27-.8-35.7"/></g><path d="M731.907 572.828l4.77-38.617 25.437 3.14-4.77 38.617z" class="c"/><path d="M768.1 544.7l-6.9.78" class="V"/><path d="M761.2,781.33a2.5,2.5,0,0,1-.28-5l6.91-.78a2.5,2.5,0,0,1,.56,5l-6.9.78Z" transform="translate(0 -233.35)" class="b"/><path d="M765.7 569.76l-7.54-.93" class="V"/><path d="M765.7,805.61l-.31,0-7.53-.93a2.5,2.5,0,1,1,.61-5l7.53.92a2.5,2.5,0,0,1-.3,5Z" transform="translate(0 -233.35)" class="b"/><path d="M768.07 556.15l-8.26.6" class="V"/><g transform="translate(0 -233.35)" class="b"><path d="M759.81,792.61a2.5,2.5,0,0,1-.18-5l8.25-.62a2.5,2.5,0,1,1,.37,5l-8.25.61Z"/><path d="M828 967v10h-97.7s6.36-24.46 26-28.5l13.5 18.5h46.92z"/><path d="M828.5 979h-98.2a2.5 2.5 0 0 1-2.42-3.13 55.3 55.3 0 0 1 5.91-13.41c5.66-9.27 13.25-15.12 22-16.9a2.49 2.49 0 0 1 2.52 1L771 964h45.65l11.92.47A2.49 2.49 0 0 1 831 967v9.53a2.5 2.5 0 0 1-2.5 2.47zm-94.74-5H826v-4.63l-9.42-.37h-46.82a2.49 2.49 0 0 1-2-1l-12.5-17.15c-12.82 3.52-19.2 16.98-21.5 23.15z"/></g><path d="M828.36 686.46l.18 47.16-58.78-.48-13.5-18.28s22.93-3.17 23.16-27.8z" class="Y"/><g transform="translate(0 -233.35)" class="b"><path d="M828.54 969h0l-58.78-.24a2.4 2.4 0 0 1-2-.9l-13.5-18.22a2.47 2.47 0 0 1 1.67-3.92c.84-.12 20.8-3.23 21-25.34a2.65 2.65 0 0 1 2.47-2.63l48.94-.75a2.68 2.68 0 0 1 1.75.87 2.72 2.72 0 0 1 .75 1.85l.16 47a2.33 2.33 0 0 1-2.5 2.29zM771 964l55 .45-.16-42.1-44 .54c-1.28 18.13-14.6 24.68-21.35 26.84z"/><path d="M847,967v10h99.23s-6.36-24.46-26-28.5L906.78,967H859.86Z"/><path d="M946.23 979H847.5a2.5 2.5 0 0 1-2.5-2.5V967a2.5 2.5 0 0 1 2.41-2.5l12.35-.47h45.75l12.74-17.47a2.5 2.5 0 0 1 2.52-1c8.7 1.8 16.3 7.64 22 16.9a55.11 55.11 0 0 1 5.92 13.41 2.51 2.51 0 0 1-2.42 3.13zM850 974h92.77c-2.3-6.18-8.7-19.64-21.46-23.18L908.8 968a2.49 2.49 0 0 1-2 1h-46.94l-9.86.37z"/></g><path d="M848.18 686.46l-.18 47.2 58.78-.48 13.5-18.28s-22.92-3.17-23.16-27.8z" class="Y"/><g transform="translate(0 -233.35)" class="b"><path d="M848 969a2.32 2.32 0 0 1-1.77-.5 2.21 2.21 0 0 1-.73-1.66l.18-47.1a2.48 2.48 0 0 1 2.53-2.45l48.93.62a2.49 2.49 0 0 1 2.47 2.47c.2 22.1 20.16 25.23 21 25.36a2.5 2.5 0 0 1 1.66 4L908.8 968a2.33 2.33 0 0 1-2 .78L848 969zm2.67-46.66l-.17 42.1 55-.45 10.54-14.28c-6.75-2.16-20.07-8.7-21.34-26.84z"/><path d="M868.53 597a2.4 2.4 0 0 1-2.5-2.36c-.13-14.5-6.88-28.7-6.95-28.85a2.46 2.46 0 0 1 1.17-3.3 2.5 2.5 0 0 1 3.34 1.18c.3.62 7.3 15.26 7.44 30.9a2.41 2.41 0 0 1-2.48 2.42z"/><path d="M815.33 597h0a2.4 2.4 0 0 1-2.48-2.41c.14-15.65 7.14-30.34 7.44-31a2.51 2.51 0 0 1 4.51 2.2c-.07.15-6.82 14.3-6.95 28.8a2.41 2.41 0 0 1-2.52 2.41z"/></g></svg>