<svg id="Layer_1" data-name="Layer 1" xmlns="http://www.w3.org/2000/svg" xmlns:xlink="http://www.w3.org/1999/xlink" viewBox="0 0 1982 746.65"><defs><style>.cls-1,.cls-16,.cls-9{fill:none;}.cls-2{fill:#c9ca48;}.cls-3{fill:#c67042;}.cls-4{fill:#798023;}.cls-5{fill:#1d1d1b;}.cls-6{fill:#dee5dc;}.cls-7{fill:#eaefe8;}.cls-8,.cls-9{stroke:#000;stroke-miterlimit:10;stroke-width:4px;}.cls-16,.cls-8,.cls-9{stroke-linecap:round;}.cls-8{fill:url(#New_Pattern_Swatch_7);}.cls-10{fill:url(#New_Pattern_Swatch_7-5);}.cls-11{fill:#fbfcfa;}.cls-12{fill:url(#New_Pattern_Swatch_2);}.cls-13{fill:url(#New_Pattern_Swatch_2-17);}.cls-14{fill:url(#New_Pattern_Swatch_7-93);}.cls-15{fill:url(#New_Pattern_Swatch_3);}.cls-16{stroke:#161616;stroke-linejoin:round;stroke-width:5px;}.cls-17{fill:#fff;}.cls-18{fill:url(#New_Pattern_Swatch_7-159);}.cls-19{fill:url(#New_Pattern_Swatch_5);}.cls-20{fill:url(#New_Pattern_Swatch_7-219);}</style><pattern id="New_Pattern_Swatch_7" data-name="New Pattern Swatch 7" width="204.84" height="204.84" patternUnits="userSpaceOnUse" viewBox="0 0 204.84 204.84"><rect class="cls-1" width="204.84" height="204.84"/><rect class="cls-5" width="204.84" height="204.84"/></pattern><pattern id="New_Pattern_Swatch_7-5" data-name="New Pattern Swatch 7" width="204.84" height="204.84" patternTransform="translate(-364 5)" patternUnits="userSpaceOnUse" viewBox="0 0 204.84 204.84"><rect class="cls-1" width="204.84" height="204.84"/><rect class="cls-5" width="204.84" height="204.84"/></pattern><pattern id="New_Pattern_Swatch_2" data-name="New Pattern Swatch 2" width="204.84" height="204.84" patternTransform="translate(-364 -228.35)" patternUnits="userSpaceOnUse" viewBox="0 0 204.84 204.84"><rect class="cls-1" width="204.84" height="204.84"/><rect class="cls-2" width="204.84" height="204.84"/></pattern><pattern id="New_Pattern_Swatch_2-17" data-name="New Pattern Swatch 2" width="204.84" height="204.84" patternTransform="translate(-364 5)" patternUnits="userSpaceOnUse" viewBox="0 0 204.84 204.84"><rect class="cls-1" width="204.84" height="204.84"/><rect class="cls-2" width="204.84" height="204.84"/></pattern><pattern id="New_Pattern_Swatch_7-93" data-name="New Pattern Swatch 7" width="204.84" height="204.84" patternTransform="translate(-364 7)" patternUnits="userSpaceOnUse" viewBox="0 0 204.84 204.84"><rect class="cls-1" width="204.84" height="204.84"/><rect class="cls-5" width="204.84" height="204.84"/></pattern><pattern id="New_Pattern_Swatch_3" data-name="New Pattern Swatch 3" width="204.84" height="204.84" patternTransform="translate(-364 7)" patternUnits="userSpaceOnUse" viewBox="0 0 204.84 204.84"><rect class="cls-1" width="204.84" height="204.84"/><rect class="cls-3" width="204.84" height="204.84"/></pattern><pattern id="New_Pattern_Swatch_7-159" data-name="New Pattern Swatch 7" width="204.84" height="204.84" patternTransform="translate(-364 -226.35)" patternUnits="userSpaceOnUse" viewBox="0 0 204.84 204.84"><rect class="cls-1" width="204.84" height="204.84"/><rect class="cls-5" width="204.84" height="204.84"/></pattern><pattern id="New_Pattern_Swatch_5" data-name="New Pattern Swatch 5" width="204.84" height="204.84" patternTransform="translate(-364 13)" patternUnits="userSpaceOnUse" viewBox="0 0 204.84 204.84"><rect class="cls-1" width="204.84" height="204.84"/><rect class="cls-4" width="204.84" height="204.84"/></pattern><pattern id="New_Pattern_Swatch_7-219" data-name="New Pattern Swatch 7" width="204.84" height="204.84" patternTransform="translate(-364 13)" patternUnits="userSpaceOnUse" viewBox="0 0 204.84 204.84"><rect class="cls-1" width="204.84" height="204.84"/><rect class="cls-5" width="204.84" height="204.84"/></pattern></defs><g id="background"><path class="cls-6" d="M1569,770.76S597,613,0,669V980H1569Z" transform="translate(0 -233.35)"/><path class="cls-7" d="M0,980S1444,545,1982,657V980H0Z" transform="translate(0 -233.35)"/><path class="cls-8" d="M155,935s159-42,188-50" transform="translate(0 -233.35)"/><path class="cls-8" d="M416,866s71-18,87-22" transform="translate(0 -233.35)"/><path class="cls-9" d="M611,818s618-165,1076-178" transform="translate(0 -233.35)"/></g><path class="cls-9" d="M1757,640s113-6,178,9" transform="translate(0 -233.35)"/><path class="cls-10" d="M655.25,825.62s-115.34-72.37-211.24-24C444,801.62,524.41,874.77,655.25,825.62Z" transform="translate(0 -233.35)"/><path class="cls-7" d="M444,917H588l67.25-91.12S536.91,859.75,444,802Z" transform="translate(0 -233.35)"/><path class="cls-10" d="M588,919H444a2.49,2.49,0,0,1-2.5-2.5V801.62a2.47,2.47,0,0,1,3.82-2.09C481,821.71,524.52,833,574.64,833h0c45.31,0,79.57-9.64,79.91-9.74a2.48,2.48,0,0,1,2.7,3.86L590,918A2.49,2.49,0,0,1,588,919Zm-141.5-5H586.74l62.37-84.24A344.12,344.12,0,0,1,574.65,838h0c-49.3,0-92.38-10.76-128.13-31.91Z" transform="translate(0 -233.35)"/><path class="cls-10" d="M459.5,916.5A2.5,2.5,0,0,1,457,914V810a2.5,2.5,0,0,1,5,0V914A2.5,2.5,0,0,1,459.5,916.5Z" transform="translate(0 -233.35)"/><path class="cls-10" d="M570.5,919.5a2.5,2.5,0,0,1-2-4l61.43-86.41A2.5,2.5,0,0,1,634,832l-61.43,86.42A2.52,2.52,0,0,1,570.5,919.5Z" transform="translate(0 -233.35)"/><path class="cls-10" d="M550.5,919.5A2.47,2.47,0,0,1,549,919a2.5,2.5,0,0,1-.57-3.49l59.43-82.42a2.5,2.5,0,0,1,4.06,2.93l-59.43,82.41A2.5,2.5,0,0,1,550.5,919.5Z" transform="translate(0 -233.35)"/><path class="cls-10" d="M531.5,919.5a2.5,2.5,0,0,1-2-4l58.27-82a2.5,2.5,0,1,1,4.08,2.9l-58.27,82A2.52,2.52,0,0,1,531.5,919.5Z" transform="translate(0 -233.35)"/><path class="cls-10" d="M511.5,919.5a2.5,2.5,0,0,1-2-4l58.27-82a2.5,2.5,0,1,1,4.08,2.9l-58.27,82A2.52,2.52,0,0,1,511.5,919.5Z" transform="translate(0 -233.35)"/><path class="cls-10" d="M490.5,919.5a2.5,2.5,0,0,1-2-4l58.27-82a2.5,2.5,0,1,1,4.08,2.9l-58.27,82A2.52,2.52,0,0,1,490.5,919.5Z" transform="translate(0 -233.35)"/><path class="cls-10" d="M468.5,919.5a2.5,2.5,0,0,1-2-4l58.27-82a2.5,2.5,0,1,1,4.08,2.9l-58.27,82A2.52,2.52,0,0,1,468.5,919.5Z" transform="translate(0 -233.35)"/><path class="cls-10" d="M1009,793h16s.38-98.84,22.19-100.17S1069,793,1069,793h16s6.33-115.67-39-115.5C1001,677.67,1009,793,1009,793Z" transform="translate(0 -233.35)"/><path class="cls-11" d="M1096.53,775.3s36.14-67.42,52.8-82.36c0,0-29,6.71-40.33,26.72S1096.53,775.3,1096.53,775.3Z" transform="translate(0 -233.35)"/><path class="cls-10" d="M1096.53,777.8a2.43,2.43,0,0,1-.65-.09,2.49,2.49,0,0,1-1.85-2.49c0-1.48,1.29-36.48,12.8-56.79,4.88-8.63,13.7-16.19,25.5-21.88a86,86,0,0,1,16.44-6,2.5,2.5,0,0,1,2.23,4.29c-16.15,14.48-51.91,81-52.27,81.68A2.49,2.49,0,0,1,1096.53,777.8Zm44.6-79.59c-9.15,3.52-23.1,10.59-30,22.68-7,12.31-10,31-11.26,43C1109.13,747.3,1127.76,714.77,1141.13,698.21Z" transform="translate(0 -233.35)"/><path class="cls-10" d="M1073,851a2.57,2.57,0,0,1-.55-.06,2.5,2.5,0,0,1-1.9-3c.09-.4,9-40.27,23.75-85.73,19.81-61.24,40.09-103,60.26-124a2.5,2.5,0,0,1,3.61,3.46c-47,48.93-82.38,205.74-82.74,207.31A2.49,2.49,0,0,1,1073,851Z" transform="translate(0 -233.35)"/><path class="cls-11" d="M1062.67,849s20.66-142.91,62-172.91c0,0-40.08,129.91-42.71,172.91Z" transform="translate(0 -233.35)"/><path class="cls-10" d="M1082,851h-19.29a2.5,2.5,0,0,1-2.48-2.86c0-.36,5.31-36.32,15.56-75.48,13.86-53,29.83-86.3,47.45-99.09a2.5,2.5,0,0,1,3.85,2.76c-.39,1.3-40,130.11-42.59,172.32A2.5,2.5,0,0,1,1082,851Zm-16.38-5h14.06c3.27-38.54,31.2-133.33,40-162.58C1086.89,718.58,1068.58,827,1065.58,846Z" transform="translate(0 -233.35)"/><circle class="cls-7" cx="1165" cy="396.32" r="6"/><path class="cls-10" d="M1165,638.17a8.5,8.5,0,1,1,8.5-8.5A8.51,8.51,0,0,1,1165,638.17Zm0-12a3.5,3.5,0,1,0,3.5,3.5A3.5,3.5,0,0,0,1165,626.17Z" transform="translate(0 -233.35)"/><circle class="cls-12" cx="1164.25" cy="413.07" r="3.75"/><circle class="cls-12" cx="1158.63" cy="420.57" r="3.75"/><circle class="cls-12" cx="1152.38" cy="428.07" r="3.75"/><circle class="cls-12" cx="1146.75" cy="437.45" r="3.75"/><circle class="cls-12" cx="1147.25" cy="402.07" r="3.75"/><circle class="cls-12" cx="1141.63" cy="409.57" r="3.75"/><circle class="cls-12" cx="1135.38" cy="417.07" r="3.75"/><circle class="cls-12" cx="1129.75" cy="426.45" r="3.75"/><path class="cls-11" d="M1075,732s24.93-72.32,39-89.73c0,0-27.56,11.25-35.56,32.81S1075,732,1075,732Z" transform="translate(0 -233.35)"/><path class="cls-10" d="M1075,734.54l-.26,0a2.5,2.5,0,0,1-2.22-2.17c-.19-1.46-4.54-36.22,3.58-58.1,3.45-9.29,10.95-18.17,21.69-25.67A86.66,86.66,0,0,1,1113.1,640a2.5,2.5,0,0,1,2.89,3.88c-13.64,16.87-38.34,88.25-38.59,89A2.49,2.49,0,0,1,1075,734.54Zm31.74-85.72c-8.47,4.94-21.12,14.14-26,27.17-4.93,13.26-4.92,32.23-4.27,44.26C1083,702.38,1096.23,667.3,1106.78,648.82Z" transform="translate(0 -233.35)"/><path class="cls-10" d="M1063.44,810.55h-.15a2.49,2.49,0,0,1-2.34-2.64c0-.41,2.5-41.19,9.78-88.42,9.8-63.61,23.16-108,39.73-132a2.5,2.5,0,1,1,4.11,2.85C1076,646.15,1066,806.59,1065.94,808.2A2.5,2.5,0,0,1,1063.44,810.55Z" transform="translate(0 -233.35)"/><path class="cls-11" d="M1053.28,809.7s-2.38-144.38,33.64-180.58c0,0-18.85,134.63-14.59,177.5Z" transform="translate(0 -233.35)"/><path class="cls-10" d="M1053.28,812.2a2.5,2.5,0,0,1-1.61-.59,2.46,2.46,0,0,1-.89-1.87c0-.36-.56-36.7,3.32-77,5.25-54.5,15.69-90,31.05-105.39a2.5,2.5,0,0,1,4.25,2.11c-.19,1.34-18.76,134.82-14.59,176.9a2.49,2.49,0,0,1-2.08,2.72l-19.06,3.07A1.72,1.72,0,0,1,1053.28,812.2Zm30-174.56c-26.74,39.94-27.56,149.86-27.49,169.12l13.89-2.24C1066.71,766,1079.19,667.93,1083.24,637.64Z" transform="translate(0 -233.35)"/><path class="cls-7" d="M1125.35,576.39a6,6,0,1,1-6.88-5A6,6,0,0,1,1125.35,576.39Z" transform="translate(0 -233.35)"/><path class="cls-10" d="M1119.42,585.85a8.5,8.5,0,0,1-1.35-16.89,8.91,8.91,0,0,1,1.36-.11,8.5,8.5,0,0,1,1.35,16.89A7.8,7.8,0,0,1,1119.42,585.85Zm0-12a3.66,3.66,0,0,0-.57,0,3.44,3.44,0,0,0-2.28,1.4,3.51,3.51,0,1,0,2.85-1.45Z" transform="translate(0 -233.35)"/><path class="cls-13" d="M1125.05,593.41a3.75,3.75,0,1,1-4.3-3.11A3.75,3.75,0,0,1,1125.05,593.41Z" transform="translate(0 -233.35)"/><path class="cls-13" d="M1120.7,601.71a3.75,3.75,0,1,1-4.3-3.1A3.75,3.75,0,0,1,1120.7,601.71Z" transform="translate(0 -233.35)"/><path class="cls-13" d="M1115.72,610.11a3.75,3.75,0,1,1-4.3-3.1A3.75,3.75,0,0,1,1115.72,610.11Z" transform="translate(0 -233.35)"/><path class="cls-13" d="M1111.66,620.26a3.75,3.75,0,1,1-4.3-3.1A3.75,3.75,0,0,1,1111.66,620.26Z" transform="translate(0 -233.35)"/><path class="cls-13" d="M1106.52,585.26a3.75,3.75,0,1,1-4.3-3.11A3.75,3.75,0,0,1,1106.52,585.26Z" transform="translate(0 -233.35)"/><path class="cls-13" d="M1102.16,593.56a3.75,3.75,0,1,1-4.3-3.1A3.75,3.75,0,0,1,1102.16,593.56Z" transform="translate(0 -233.35)"/><path class="cls-13" d="M1097.19,602a3.75,3.75,0,1,1-4.3-3.1A3.75,3.75,0,0,1,1097.19,602Z" transform="translate(0 -233.35)"/><path class="cls-13" d="M1093.13,612.11a3.75,3.75,0,1,1-4.3-3.1A3.75,3.75,0,0,1,1093.13,612.11Z" transform="translate(0 -233.35)"/><path class="cls-11" d="M1028,732.9s19.79-73.89,32.6-92.24c0,0-26.7,13.16-33.16,35.22S1028,732.9,1028,732.9Z" transform="translate(0 -233.35)"/><path class="cls-10" d="M1028,735h-.08a2.29,2.29,0,0,1-2.37-1.81c-.29-1.45-7.08-35.71-.51-58.11,2.78-9.51,9.64-18.84,19.83-27.08a86,86,0,0,1,14.62-9.61,2.51,2.51,0,0,1,3.16,3.69c-12.42,17.79-32,90.53-32.23,91.26A2.34,2.34,0,0,1,1028,735Zm25.81-87.34c-8.1,5.52-20.07,15.59-24,28.93-4,13.57-2.64,32.5-1.15,44.45C1033.9,702.76,1044.61,666.84,1053.83,647.66Z" transform="translate(0 -233.35)"/><path class="cls-10" d="M1021.8,812a2.48,2.48,0,0,1-2.5-2.45c0-.41-.4-41.25,3.54-88.87,5.3-64.15,15.51-109.38,30.35-134.44a2.5,2.5,0,0,1,4.3,2.55c-34.55,58.36-33.21,219.09-33.19,220.71a2.46,2.46,0,0,1-2.47,2.5Z" transform="translate(0 -233.35)"/><path class="cls-11" d="M1011.77,811.9s-12.52-143.85,20.87-182.5c0,0-9.34,135.63-2.08,178.09Z" transform="translate(0 -233.35)"/><path class="cls-10" d="M1011.77,814.4a2.43,2.43,0,0,1-1.46-.48,2.5,2.5,0,0,1-1-1.8c0-.36-3.13-36.57-2.09-77,1.4-54.73,9.33-90.83,23.56-107.31a2.5,2.5,0,0,1,4.39,1.81c-.1,1.35-9.24,135.81-2.11,177.49a2.52,2.52,0,0,1-1.9,2.86l-18.78,4.4A2.3,2.3,0,0,1,1011.77,814.4Zm17.8-176.23c-23.88,41.71-17,151.42-15.53,170.63l13.69-3.21C1022.11,767.32,1027.65,668.66,1029.57,638.17Z" transform="translate(0 -233.35)"/><path class="cls-7" d="M1067.26,574.11a6,6,0,1,1-7.21-4.47A6,6,0,0,1,1067.26,574.11Z" transform="translate(0 -233.35)"/><path class="cls-10" d="M1061.42,584a8.55,8.55,0,1,1,1.94-.23A8.46,8.46,0,0,1,1061.42,584Zm0-12a3.7,3.7,0,0,0-.8.09,3.5,3.5,0,0,0,.8,6.91,3.7,3.7,0,0,0,.8-.09,3.5,3.5,0,0,0-.8-6.91Z" transform="translate(0 -233.35)"/><path class="cls-13" d="M1068.17,591.1a3.75,3.75,0,1,1-4.51-2.79A3.75,3.75,0,0,1,1068.17,591.1Z" transform="translate(0 -233.35)"/><path class="cls-13" d="M1064.4,599.69a3.75,3.75,0,1,1-4.5-2.8A3.75,3.75,0,0,1,1064.4,599.69Z" transform="translate(0 -233.35)"/><path class="cls-13" d="M1060,608.42a3.75,3.75,0,1,1-4.51-2.8A3.76,3.76,0,0,1,1060,608.42Z" transform="translate(0 -233.35)"/><path class="cls-13" d="M1056.7,618.83a3.75,3.75,0,1,1-4.51-2.79A3.76,3.76,0,0,1,1056.7,618.83Z" transform="translate(0 -233.35)"/><path class="cls-13" d="M1049.1,584.28a3.75,3.75,0,1,1-4.5-2.8A3.73,3.73,0,0,1,1049.1,584.28Z" transform="translate(0 -233.35)"/><path class="cls-13" d="M1045.34,592.86a3.75,3.75,0,1,1-4.51-2.79A3.75,3.75,0,0,1,1045.34,592.86Z" transform="translate(0 -233.35)"/><path class="cls-13" d="M1041,601.59a3.75,3.75,0,1,1-4.51-2.79A3.76,3.76,0,0,1,1041,601.59Z" transform="translate(0 -233.35)"/><path class="cls-13" d="M1037.63,612a3.75,3.75,0,1,1-4.5-2.79A3.74,3.74,0,0,1,1037.63,612Z" transform="translate(0 -233.35)"/><path class="cls-11" d="M977,741.36s16.34-74.73,28.29-93.66c0,0-26.06,14.38-31.5,36.73S977,741.36,977,741.36Z" transform="translate(0 -233.35)"/><path class="cls-10" d="M977,744a2.57,2.57,0,0,1-2.43-2c-.36-1.44-8.73-35.49-3.21-58.17,2.34-9.63,8.76-19.34,18.56-28a87.49,87.49,0,0,1,14.16-10.31,2.5,2.5,0,0,1,3.32,3.52c-11.58,18.34-27.8,92.18-28,92.92a2.54,2.54,0,0,1-2.41,2Zm21.83-89c-7.84,5.89-19.32,16.5-22.61,30-3.35,13.76-1.13,32.6.92,44.46C981.49,711,990.52,674.6,998.85,655Z" transform="translate(0 -233.35)"/><path class="cls-10" d="M974.35,820.71a2.5,2.5,0,0,1-2.49-2.36c0-.4-2.31-41.2-.59-89,2.33-64.32,10.44-110,24.1-135.71a2.5,2.5,0,1,1,4.41,2.35c-31.81,59.89-23,220.41-22.93,222a2.51,2.51,0,0,1-2.35,2.64Z" transform="translate(0 -233.35)"/><path class="cls-11" d="M964.45,821s-19.17-143.11,12.39-183.26c0,0-3.05,135.91,6.17,178Z" transform="translate(0 -233.35)"/><path class="cls-10" d="M964.45,823.52a2.53,2.53,0,0,1-1.38-.41,2.48,2.48,0,0,1-1.1-1.75c-.05-.36-4.82-36.39-5.66-76.86-1.14-54.74,5.11-91.17,18.56-108.29a2.5,2.5,0,0,1,4.47,1.6c0,1.36-2.94,136.1,6.11,177.4a2.51,2.51,0,0,1-1.76,2.95l-18.56,5.27A2.71,2.71,0,0,1,964.45,823.52Zm9.72-176.87c-21.92,42.77-9.92,152.05-7.61,171.17L980.09,814C972.7,776,973.67,677.2,974.17,646.65Z" transform="translate(0 -233.35)"/><path class="cls-7" d="M1008.86,580.92a6,6,0,1,1-7.41-4.14A6,6,0,0,1,1008.86,580.92Z" transform="translate(0 -233.35)"/><path class="cls-10" d="M1003.09,591.06a8.5,8.5,0,0,1-7.43-12.64,8.44,8.44,0,0,1,5.11-4,8.29,8.29,0,0,1,2.32-.33,8.54,8.54,0,0,1,8.17,6.18,8.49,8.49,0,0,1-5.85,10.5A8.34,8.34,0,0,1,1003.09,591.06Zm0-12a3.54,3.54,0,0,0-1,.14,3.49,3.49,0,0,0-2.1,1.66,3.5,3.5,0,0,0,4,5.07,3.47,3.47,0,0,0,2.11-1.66,3.51,3.51,0,0,0-3.06-5.21Z" transform="translate(0 -233.35)"/><path class="cls-13" d="M1010.55,597.85a3.75,3.75,0,1,1-4.63-2.58A3.74,3.74,0,0,1,1010.55,597.85Z" transform="translate(0 -233.35)"/><path class="cls-13" d="M1007.19,606.6a3.75,3.75,0,1,1-4.63-2.58A3.75,3.75,0,0,1,1007.19,606.6Z" transform="translate(0 -233.35)"/><path class="cls-13" d="M1003.23,615.52a3.75,3.75,0,1,1-4.64-2.58A3.76,3.76,0,0,1,1003.23,615.52Z" transform="translate(0 -233.35)"/><path class="cls-13" d="M1000.38,626.08a3.75,3.75,0,1,1-4.63-2.58A3.75,3.75,0,0,1,1000.38,626.08Z" transform="translate(0 -233.35)"/><path class="cls-13" d="M991.19,591.91a3.75,3.75,0,1,1-4.63-2.58A3.74,3.74,0,0,1,991.19,591.91Z" transform="translate(0 -233.35)"/><path class="cls-13" d="M987.83,600.66a3.75,3.75,0,1,1-4.63-2.58A3.75,3.75,0,0,1,987.83,600.66Z" transform="translate(0 -233.35)"/><path class="cls-13" d="M983.87,609.59a3.75,3.75,0,1,1-4.63-2.59A3.76,3.76,0,0,1,983.87,609.59Z" transform="translate(0 -233.35)"/><path class="cls-13" d="M981,620.14a3.75,3.75,0,1,1-4.63-2.58A3.75,3.75,0,0,1,981,620.14Z" transform="translate(0 -233.35)"/><path class="cls-7" d="M974.8,779l131.46,1.75,18.06,103.86s3.74,12-19.72,30.29c-2.12,1.65-15.62,11-22,11l-76.49.27c-20,.08-23.27-21.86-23.27-21.86s-21.37-6.58-18.51-21.05S974.8,779,974.8,779Z" transform="translate(0 -233.35)"/><path class="cls-10" d="M1006,929c-16.44,0-23.55-14.07-25.36-22.62a46.42,46.42,0,0,1-9.55-5c-7.4-5.13-10.59-11.56-9.21-18.52,2.8-14.17,10.39-102.9,10.47-103.8A2.31,2.31,0,0,1,974.8,777h0l131.46,1.51a2.38,2.38,0,0,1,2.43,2l18,103.7c.45,1.89,2.5,14.75-20.63,32.76-.15.11-15.47,11.66-23.57,11.68-19.16.06-51.51.4-76.49.4ZM977.09,781.54c-1.24,14.48-7.72,88.94-10.35,102.25-2.38,12.08,16.61,18.11,16.8,18.17a2.71,2.71,0,0,1,1.73,2.17c.13.8,3.22,19.87,20.69,19.87h.1c25,0,57.33-.36,76.5-.41,4.88,0,16.8-7.69,20.51-10.58,21.49-16.73,18.9-27.51,18.86-27.61s0-.23-.07-.33l-17.71-101.82Z" transform="translate(0 -233.35)"/><path class="cls-7" d="M940.8,778.21l131.46,1.9,10.06,124.82s1.43,21-15.72,21-125.8.48-125.8.48-21.37-7.14-18.51-22.86S940.8,778.21,940.8,778.21Z" transform="translate(0 -233.35)"/><path class="cls-10" d="M940.8,929a2.42,2.42,0,0,1-.79-.2,44,44,0,0,1-11-5.94c-7.33-5.52-10.49-12.37-9.14-19.79,2.82-15.49,18.34-124,18.5-125.06a2.38,2.38,0,0,1,2.47-2h0l131.46,1.76a2.43,2.43,0,0,1,2.45,2.23l10.06,124.77c0,.51.73,11.75-5.66,18.59a16.5,16.5,0,0,1-12.55,5.11c-16.94,0-124.7.54-125.79.54ZM943,780.74c-2.22,15.52-15.6,108.85-18.21,123.21-2.25,12.39,13.83,18.92,16.48,19.91,7.58,0,109-.48,125.37-.48,3.8,0,6.7-1.13,8.88-3.45,4.91-5.24,4.35-14.74,4.35-14.84L1070,782.58Z" transform="translate(0 -233.35)"/><path class="cls-7" d="M967,793h16s.38-98.84,22.19-100.17S1027,793,1027,793h16s6.33-115.67-39-115.5C959,677.67,967,793,967,793Z" transform="translate(0 -233.35)"/><path class="cls-10" d="M1043,795h-16a2.5,2.5,0,0,1-2.5-2.5c0-40.56-5.86-97.68-18.89-97.68h-.27c-3.47.21-12.06,5.34-16.94,48.33-2.77,24.46-2.9,49.1-2.9,49.35A2.49,2.49,0,0,1,983,795H967a2.5,2.5,0,0,1-2.49-2.33,353.19,353.19,0,0,1,.27-44.06c2.26-31.78,8.77-53.92,19.36-65.31,5.56-6,12.24-8.3,19.85-9.3h.11c7.67,0,14.44,3.29,20.11,9.28,10.78,11.38,17.63,33.39,20.36,65.17a356,356,0,0,1,.93,44.12A2.56,2.56,0,0,1,1043,795Zm-13.52-5h11.12c.47-13.43,1.63-80.17-20-103-4.76-5-10.15-7.47-16.48-7.47S992.44,682,987.8,687c-21.27,22.88-19.1,89.71-18.44,103h11.17c.11-6.92.61-27.2,2.9-47.37,4-34.88,11-52.15,21.61-52.8,10.83-.65,18,16.47,21.77,52.31C1029,762.47,1029.4,783,1029.48,790Z" transform="translate(0 -233.35)"/><path class="cls-10" d="M1007,825.38S996.18,863,1025.51,882C1025.51,882,1037.61,846.8,1007,825.38Z" transform="translate(0 -233.35)"/><path class="cls-13" d="M975.78,829.45s8.06,45.34,48.89,50.16C1024.67,879.61,1019.19,836.2,975.78,829.45Z" transform="translate(0 -233.35)"/><path class="cls-10" d="M1024.67,882.11a1.37,1.37,0,0,1-.29,0c-42.18-5-51-51.73-51.06-52.2a2.5,2.5,0,0,1,2.85-2.91c44.75,7,50.92,51.87,51,52.32a2.52,2.52,0,0,1-.71,2.07A2.47,2.47,0,0,1,1024.67,882.11Zm-45.57-49.5a78,78,0,0,0,8,19c8.39,14,20,22.39,34.44,25C1019.45,867,1010.67,839.42,979.1,832.61Z" transform="translate(0 -233.35)"/><line class="cls-7" x1="976.34" y1="598.58" x2="1024.67" y2="646.27"/><path class="cls-10" d="M1024.67,882.11a2.5,2.5,0,0,1-1.76-.72L974.58,833.7a2.5,2.5,0,0,1,3.51-3.56l48.33,47.69a2.5,2.5,0,0,1-1.75,4.28Z" transform="translate(0 -233.35)"/><path class="cls-7" d="M615,825.21s-5.67-68.74-32.33-91c0,0,39.92-2,51.25,27.21S640,823.75,615,825.21Z" transform="translate(0 -233.35)"/><path class="cls-10" d="M615,827.71a2.5,2.5,0,0,1-2.49-2.29c-.06-.68-5.89-67.95-31.44-89.26a2.5,2.5,0,0,1,1.47-4.42s.63,0,1.77,0c6.8,0,41.3,1.39,51.94,28.83,8,20.61,7.8,42.24-.48,55.13a25.43,25.43,0,0,1-20.62,12Zm-26-90.82c9.28,10.39,16.77,27.36,22.3,50.59a292.42,292.42,0,0,1,6,35,20.16,20.16,0,0,0,14.33-9.5c7.33-11.4,7.34-31.74,0-50.61C623.62,741.8,600,737.68,589,736.89Z" transform="translate(0 -233.35)"/><path class="cls-10" d="M619.93,827a2.36,2.36,0,0,1-.82-.14,2.49,2.49,0,0,1-1.54-3.18c9.34-26.87,6.74-49.69-7.73-67.81a68.93,68.93,0,0,0-24.59-19.27,2.5,2.5,0,0,1,1.9-4.63,73.22,73.22,0,0,1,26.59,20.78c19.46,24.35,15.39,52.91,8.55,72.57A2.51,2.51,0,0,1,619.93,827Z" transform="translate(0 -233.35)"/><path class="cls-13" d="M615.25,813.5s-.7-99.22,24.36-99.22c15.06,0,3.72,85,3.72,85Z" transform="translate(0 -233.35)"/><path class="cls-7" d="M615,825.21s6.22-56,24.61-65.92,33.06,9.26,33.06,9.26L677,779.71s-26.35-7.83-33.69,19.57C643.33,799.28,642.67,824.42,615,825.21Z" transform="translate(0 -233.35)"/><path class="cls-10" d="M615,828a2.73,2.73,0,0,1-2.48-3c.25-2.34,6.58-57.42,25.9-67.88a25,25,0,0,1,12-3.18c14.1,0,23.86,12.56,24.26,13.09a2.47,2.47,0,0,1,.35.61l4.35,11.15a2.51,2.51,0,0,1-3,3.31,29.72,29.72,0,0,0-7.56-.94c-8.16,0-18.73,3.36-22.93,18.63-.39,9.59-7.25,27.2-30.75,28.2Zm35.39-69.07a20,20,0,0,0-9.59,2.56c-13.31,7.2-20.72,44-22.95,61,22.16-2.26,23-22.42,23-23.31a2.8,2.8,0,0,1,.09-.58c5.23-19.54,19.68-22.46,27.83-22.46a36.56,36.56,0,0,1,4.31.26l-2.58-6.61C669.11,768.17,661,758.93,650.39,758.93Z" transform="translate(0 -233.35)"/><path class="cls-10" d="M623.58,787.5a2.48,2.48,0,0,1-1.5-.5,2.52,2.52,0,0,1-.49-3.51c7-9.31,15.5-14.61,25.15-15.76,16.94-2,31.27,9.55,31.87,10a2.5,2.5,0,0,1-3.17,3.86c-.2-.16-13.37-10.71-28.15-8.94-8.23,1-15.53,5.63-21.71,13.81A2.49,2.49,0,0,1,623.58,787.5Z" transform="translate(0 -233.35)"/><path class="cls-7" d="M571,827.21s-5.67-68.74-32.33-91c0,0,39.92-2,51.25,27.21S596,825.75,571,827.21Z" transform="translate(0 -233.35)"/><path class="cls-10" d="M571,829.71a2.5,2.5,0,0,1-2.49-2.29c-.06-.68-5.89-67.95-31.44-89.26a2.5,2.5,0,0,1,1.47-4.42s.63,0,1.77,0c6.8,0,41.3,1.39,51.94,28.83,8,20.61,7.8,42.24-.48,55.13a25.43,25.43,0,0,1-20.62,12Zm-26-90.82c9.28,10.39,16.77,27.36,22.3,50.59a292.42,292.42,0,0,1,6,35,20.16,20.16,0,0,0,14.33-9.5c7.33-11.4,7.34-31.74,0-50.61C579.62,743.8,556,739.68,545,738.89Z" transform="translate(0 -233.35)"/><path class="cls-10" d="M575.93,829a2.36,2.36,0,0,1-.82-.14,2.49,2.49,0,0,1-1.54-3.18c9.34-26.87,6.74-49.69-7.73-67.81a68.93,68.93,0,0,0-24.59-19.27,2.5,2.5,0,0,1,1.9-4.63,73.22,73.22,0,0,1,26.59,20.78c19.46,24.35,15.39,52.91,8.55,72.57A2.51,2.51,0,0,1,575.93,829Z" transform="translate(0 -233.35)"/><path class="cls-13" d="M571.25,815.5s-.7-99.22,24.36-99.22c15.06,0,3.72,85,3.72,85Z" transform="translate(0 -233.35)"/><path class="cls-7" d="M571,827.21s6.22-56,24.61-65.92,33.06,9.26,33.06,9.26L633,781.71s-26.35-7.83-33.69,19.57C599.33,801.28,598.67,826.42,571,827.21Z" transform="translate(0 -233.35)"/><path class="cls-10" d="M571,830a2.73,2.73,0,0,1-2.48-3c.25-2.34,6.58-57.42,25.9-67.88a25,25,0,0,1,12-3.18c14.1,0,23.86,12.56,24.26,13.09a2.47,2.47,0,0,1,.35.61l4.35,11.15a2.51,2.51,0,0,1-3,3.31,29.72,29.72,0,0,0-7.56-.94c-8.16,0-18.73,3.36-22.93,18.63-.39,9.59-7.25,27.2-30.75,28.2Zm35.39-69.07a20,20,0,0,0-9.59,2.56c-13.31,7.2-20.72,44-22.95,61,22.16-2.26,23-22.42,23-23.31a2.25,2.25,0,0,1,.08-.58c5.23-19.54,19.68-22.46,27.83-22.46a36.56,36.56,0,0,1,4.31.26l-2.58-6.61C625.11,770.17,617,760.93,606.39,760.93Z" transform="translate(0 -233.35)"/><path class="cls-10" d="M579.58,789.5a2.48,2.48,0,0,1-1.5-.5,2.52,2.52,0,0,1-.49-3.51c7-9.31,15.5-14.61,25.15-15.76,16.94-2,31.27,9.55,31.87,10a2.5,2.5,0,0,1-3.17,3.86c-.2-.16-13.37-10.72-28.15-8.94-8.23,1-15.53,5.63-21.71,13.81A2.49,2.49,0,0,1,579.58,789.5Z" transform="translate(0 -233.35)"/><path class="cls-7" d="M520,827.21s-5.67-68.74-32.33-91c0,0,39.92-2,51.25,27.21S545,825.75,520,827.21Z" transform="translate(0 -233.35)"/><path class="cls-10" d="M520,829.71a2.5,2.5,0,0,1-2.49-2.29c-.06-.68-5.89-67.95-31.44-89.26a2.5,2.5,0,0,1,1.47-4.42s.63,0,1.77,0c6.8,0,41.3,1.39,51.94,28.83,8,20.61,7.8,42.24-.48,55.13a25.43,25.43,0,0,1-20.62,12Zm-26-90.82c9.28,10.39,16.77,27.36,22.3,50.59a292.42,292.42,0,0,1,6,35,20.16,20.16,0,0,0,14.33-9.5c7.33-11.4,7.34-31.74,0-50.61C528.62,743.8,505,739.68,494,738.89Z" transform="translate(0 -233.35)"/><path class="cls-10" d="M524.93,829a2.36,2.36,0,0,1-.82-.14,2.49,2.49,0,0,1-1.54-3.18c9.34-26.87,6.74-49.69-7.73-67.81a68.93,68.93,0,0,0-24.59-19.27,2.5,2.5,0,0,1,1.9-4.63,73.22,73.22,0,0,1,26.59,20.78c19.46,24.35,15.39,52.91,8.55,72.57A2.51,2.51,0,0,1,524.93,829Z" transform="translate(0 -233.35)"/><path class="cls-13" d="M520.25,815.5s-.7-99.22,24.36-99.22c15.06,0,3.72,85,3.72,85Z" transform="translate(0 -233.35)"/><path class="cls-7" d="M520,827.21s6.22-56,24.61-65.92,33.06,9.26,33.06,9.26L582,781.71s-26.35-7.83-33.69,19.57C548.33,801.28,547.67,826.42,520,827.21Z" transform="translate(0 -233.35)"/><path class="cls-10" d="M520,830a2.73,2.73,0,0,1-2.48-3c.25-2.34,6.58-57.42,25.9-67.88a25,25,0,0,1,12-3.18c14.1,0,23.86,12.56,24.26,13.09a2.47,2.47,0,0,1,.35.61l4.35,11.15a2.51,2.51,0,0,1-3,3.31,29.72,29.72,0,0,0-7.56-.94c-8.16,0-18.73,3.36-22.93,18.63-.39,9.59-7.25,27.2-30.75,28.2Zm35.39-69.07a20,20,0,0,0-9.59,2.56c-13.31,7.2-20.72,44-22.95,61,22.16-2.26,23-22.42,23-23.31a2.25,2.25,0,0,1,.08-.58c5.23-19.54,19.68-22.46,27.83-22.46a36.56,36.56,0,0,1,4.31.26l-2.58-6.61C574.11,770.17,566,760.93,555.39,760.93Z" transform="translate(0 -233.35)"/><path class="cls-10" d="M528.58,789.5a2.48,2.48,0,0,1-1.5-.5,2.52,2.52,0,0,1-.49-3.51c7-9.31,15.5-14.61,25.15-15.76,17-2,31.27,9.55,31.87,10a2.5,2.5,0,0,1-3.17,3.86c-.2-.16-13.38-10.72-28.15-8.94-8.23,1-15.53,5.63-21.71,13.81A2.49,2.49,0,0,1,528.58,789.5Z" transform="translate(0 -233.35)"/><g id="man"><path class="cls-14" d="M586.36,559.34c-13.79,0-23.52-9.73-23.66-9.87a2.5,2.5,0,0,1,3.57-3.5h0c.66.66,16.12,16,35,3.57l43.28-76.11a2.6,2.6,0,0,1,.38-.51c.17-.18,17.65-18.31,21.24-31.45a2.5,2.5,0,1,1,4.82,1.32c-3.73,13.68-20,31.07-22.25,33.38l-43.41,76.35a2.58,2.58,0,0,1-.77.84A32.13,32.13,0,0,1,586.36,559.34Z" transform="translate(0 -233.35)"/><path class="cls-14" d="M409.79,392.69a2.62,2.62,0,0,1-.54-.06L274.13,363a2.5,2.5,0,0,1-1.66-1.26c-.13-.23-3-5.67-.94-10.94,1.25-3.23,4-5.59,8.09-7a2.43,2.43,0,0,1,1.36-.08l124.07,27.45A2.5,2.5,0,0,1,404,376l-123.35-27.3c-2.29.91-3.78,2.21-4.43,3.85a8.53,8.53,0,0,0,.26,5.8l133.88,29.36a2.51,2.51,0,0,1-.54,4.95Z" transform="translate(0 -233.35)"/><path class="cls-14" d="M694.24,486.51a2.49,2.49,0,0,1-2.33-1.6,173.64,173.64,0,0,0-7.46-16.65c-3.07-5.68-10.39-12-12.23-13.57L557.15,427.53a2.5,2.5,0,0,1,1.14-4.87L673.94,450a2.47,2.47,0,0,1,1,.48c.41.33,9.93,8.07,13.92,15.44a162.46,162.46,0,0,1,7,15.51l18.6-1.27c-3.08-7.86-12.92-29-32.45-37.82L479.57,394a2.5,2.5,0,0,1,1.16-4.86l202.7,48.31a2.25,2.25,0,0,1,.44.14c26.36,11.72,36.09,42.71,36.49,44a2.49,2.49,0,0,1-2.22,3.22l-23.73,1.63Z" transform="translate(0 -233.35)"/><path class="cls-15" d="M375.79,915.05l-.21-359H526V913.69l-66.15.73-.08-279s-9.25,4-16-2l.22,280.4Z" transform="translate(0 -233.35)"/><path class="cls-14" d="M526.5,558h-151a2.5,2.5,0,0,1-2.5-2.5V465a2.5,2.5,0,0,1,5,0v88H524V465a2.5,2.5,0,0,1,5,0v90.5A2.5,2.5,0,0,1,526.5,558Z" transform="translate(0 -233.35)"/><path class="cls-16" d="M526.5,506.4" transform="translate(0 -233.35)"/><path class="cls-14" d="M339.46,526.14h-.11a2.51,2.51,0,0,1-2.39-2.6,260.55,260.55,0,0,1,8.2-50.28c9.64-35.45,25.15-57.82,46.09-66.48a2.19,2.19,0,0,1,.57-.16l30.83-4.87a2.48,2.48,0,0,1,2.11.66L449.59,426l21.93-23.49a2.5,2.5,0,0,1,3.66,3.41l-23.66,25.34a2.47,2.47,0,0,1-1.75.79,2.4,2.4,0,0,1-1.8-.68l-25.76-24.49-29.32,4.63C346.5,431.06,342,522.82,342,523.75A2.5,2.5,0,0,1,339.46,526.14Z" transform="translate(0 -233.35)"/><path class="cls-14" d="M375.57,566.71l-.25,0L331.1,562.3a2.49,2.49,0,0,1-1.7-.91,2.52,2.52,0,0,1-.54-1.85l4.06-36.18a2.54,2.54,0,0,1,1-1.71,2.57,2.57,0,0,1,1.91-.48L376,527.62a2.5,2.5,0,0,1-.79,4.94l-37.58-6-3.49,31.05,41.71,4.14a2.5,2.5,0,0,1-.25,5Z" transform="translate(0 -233.35)"/><path class="cls-14" d="M454.48,367H448a2.5,2.5,0,0,1,0-5h3.31l-2.63-11a2.5,2.5,0,1,1,4.86-1.17l3.37,14.07a2.49,2.49,0,0,1-2.43,3.08Z" transform="translate(0 -233.35)"/><path class="cls-14" d="M451,383.05a21.17,21.17,0,0,1-11.9-3.85,2.5,2.5,0,0,1,3-4c.25.19,6,4.4,13,2.2a2.5,2.5,0,1,1,1.5,4.77A18.33,18.33,0,0,1,451,383.05Z" transform="translate(0 -233.35)"/><path class="cls-14" d="M419.13,347.77a2.5,2.5,0,0,1-1.17-4.71c.43-.23,10.63-5.51,18.21-1.19a2.5,2.5,0,0,1-2.48,4.35c-4.3-2.45-11.13.08-13.4,1.27A2.54,2.54,0,0,1,419.13,347.77Z" transform="translate(0 -233.35)"/><path class="cls-14" d="M435.31,351.6a3,3,0,1,1-1.62-4.12A3.14,3.14,0,0,1,435.31,351.6Z" transform="translate(0 -233.35)"/><path class="cls-14" d="M480.16,347.77a2.51,2.51,0,0,1-1.16-.28h0c-2.27-1.19-9.1-3.73-13.41-1.27a2.5,2.5,0,0,1-2.47-4.35c7.57-4.32,17.77,1,18.2,1.19a2.5,2.5,0,0,1-1.16,4.71Z" transform="translate(0 -233.35)"/><path class="cls-14" d="M464,351.6a3,3,0,1,0,1.62-4.12A3.15,3.15,0,0,0,464,351.6Z" transform="translate(0 -233.35)"/><path class="cls-14" d="M419.67,406.44h-.14a2.5,2.5,0,0,1-2.36-2.63l.53-10a2.5,2.5,0,0,1,5,.27l-.53,10A2.49,2.49,0,0,1,419.67,406.44Z" transform="translate(0 -233.35)"/><path class="cls-14" d="M452.38,637.25c-14.76,0-24-6.37-24.56-6.76a2.5,2.5,0,0,1,2.89-4.09c.76.54,18.31,12.43,44,.67a2.5,2.5,0,1,1,2.08,4.55A58.29,58.29,0,0,1,452.38,637.25Z" transform="translate(0 -233.35)"/><path class="cls-14" d="M375.57,711.15h-.2c-11.9-.95-18.12-18-18.12-26.89,0-7.87-3.18-26.87-3.21-27.06l-13.8-87.25a2.5,2.5,0,0,1,4.94-.78L359,656.38c.13.77,3.28,19.59,3.28,27.87,0,7.34,5.13,21.24,13.52,21.91a2.5,2.5,0,0,1-.2,5Z" transform="translate(0 -233.35)"/><path class="cls-14" d="M374.72,691.74a5.43,5.43,0,0,1-3.28-1.13c-2-1.47-4.85-5-6.61-18.91-.92-7.25-1.08-13.85-1.09-14.13a2.49,2.49,0,0,1,2.44-2.57h.06a2.52,2.52,0,0,1,2.5,2.46c.42,17.5,3.57,27.57,5.67,29.12.25.19.35.17.49.13a2.5,2.5,0,0,1,1.34,4.82A5.74,5.74,0,0,1,374.72,691.74Z" transform="translate(0 -233.35)"/><path class="cls-14" d="M489.85,574.19c-5.1,0-9.08-1.61-11.81-4.77-4.5-5.22-3.82-12.87-3.65-14.28L473,411.54a2.5,2.5,0,0,1,2.47-2.54h0a2.51,2.51,0,0,1,2.5,2.49l1.4,143.77a2.56,2.56,0,0,1,0,.39c0,.06-.9,6.62,2.49,10.52,1.73,2,4.42,3,8,3a5.91,5.91,0,0,0,4.48-1.83c3.2-3.33,3.65-10.49,3.55-13l-2.44-130.61a2.7,2.7,0,0,1,2.45-2.78h.05a2.71,2.71,0,0,1,2.5,2.69l2.44,130.44c0,.39.39,11.06-4.94,16.62A10.85,10.85,0,0,1,489.85,574.19Z" transform="translate(0 -233.35)"/><path class="cls-14" d="M490.7,563.54a3,3,0,1,1-3-3.25A3.13,3.13,0,0,1,490.7,563.54Z" transform="translate(0 -233.35)"/><path class="cls-14" d="M411.7,574.19c-5.1,0-9.07-1.61-11.8-4.77-4.51-5.22-3.83-12.87-3.66-14.28l-1.4-146.73a2.4,2.4,0,0,1,2.48-2.41h0a2.41,2.41,0,0,1,2.5,2.37l1.41,147a2.19,2.19,0,0,1,0,.36c0,.06-.9,6.61,2.48,10.5,1.74,2,4.43,3,8,3a5.89,5.89,0,0,0,4.49-1.84c3.21-3.35,3.65-10.48,3.54-13L417.3,416.56a2.49,2.49,0,0,1,2.45-2.54,2.53,2.53,0,0,1,2.55,2.46l2.43,137.77c0,.39.4,11-4.93,16.56A10.81,10.81,0,0,1,411.7,574.19Z" transform="translate(0 -233.35)"/><path class="cls-14" d="M412.56,563.54a3,3,0,1,1-3-3.25A3.13,3.13,0,0,1,412.56,563.54Z" transform="translate(0 -233.35)"/><rect class="cls-6" x="502" y="352.65" width="25" height="48"/><line class="cls-17" x1="494.93" y1="355.57" x2="501.69" y2="357.19"/><path class="cls-14" d="M501.69,593a2.36,2.36,0,0,1-.58-.07l-6.76-1.63a2.5,2.5,0,1,1,1.17-4.86l6.76,1.63a2.5,2.5,0,0,1-.59,4.93Z" transform="translate(0 -233.35)"/><line class="cls-17" x1="493.31" y1="395.33" x2="501.69" y2="392.49"/><path class="cls-14" d="M493.31,631.18a2.5,2.5,0,0,1-.8-4.87l8.38-2.84a2.5,2.5,0,1,1,1.61,4.73L494.11,631A2.45,2.45,0,0,1,493.31,631.18Z" transform="translate(0 -233.35)"/><line class="cls-17" x1="494" y1="381.65" x2="502" y2="381.65"/><path class="cls-14" d="M502,617h-8a2.5,2.5,0,0,1,0-5h8a2.5,2.5,0,0,1,0,5Z" transform="translate(0 -233.35)"/><line class="cls-17" x1="493.58" y1="366.93" x2="501.69" y2="368.55"/><path class="cls-14" d="M501.7,604.4a2.83,2.83,0,0,1-.5,0l-8.11-1.62a2.5,2.5,0,0,1,1-4.91l8.11,1.63a2.5,2.5,0,0,1-.48,4.95Z" transform="translate(0 -233.35)"/><rect class="cls-6" x="374" y="485.65" width="26" height="39"/><line class="cls-17" x1="406.94" y1="492.24" x2="400.19" y2="493.86"/><path class="cls-14" d="M400.18,729.71a2.5,2.5,0,0,1-.58-4.93l6.76-1.63a2.5,2.5,0,1,1,1.17,4.86l-6.76,1.63A3,3,0,0,1,400.18,729.71Z" transform="translate(0 -233.35)"/><line class="cls-17" x1="408" y1="517.65" x2="400" y2="517.65"/><path class="cls-14" d="M408,753h-8a2.5,2.5,0,0,1,0-5h8a2.5,2.5,0,0,1,0,5Z" transform="translate(0 -233.35)"/><line class="cls-17" x1="408.3" y1="503.6" x2="400.19" y2="505.22"/><path class="cls-14" d="M400.18,741.07a2.5,2.5,0,0,1-.48-5l8.11-1.62a2.5,2.5,0,0,1,1,4.9L400.68,741A2.83,2.83,0,0,1,400.18,741.07Z" transform="translate(0 -233.35)"/><path class="cls-16" d="M424,290.28" transform="translate(0 -233.35)"/><path class="cls-14" d="M449.75,401.23c-15.53,0-29-8.07-39-23.4a85.34,85.34,0,0,1-10.56-23.68,87.7,87.7,0,0,1-2.13-22.88,2.5,2.5,0,1,1,5,.31c-.64,10.26,2,21.28,2,21.39.11.43,11,43.26,44.68,43.26h.95c14.2-.34,24.73-8.21,31.33-23.41a78.25,78.25,0,0,0,5.79-23.65c0-.24,1.3-13.93,0-20.78a2.5,2.5,0,1,1,4.92-.9c1.39,7.53.09,21.47,0,22.06a82.15,82.15,0,0,1-6.14,25.13c-7.33,17-19.72,26.17-35.85,26.55Z" transform="translate(0 -233.35)"/><path class="cls-14" d="M406.89,373.53c-5.92,0-14.75-2.41-19.28-11.83-2-4.09-2.08-7.71-.35-10.76,3.31-5.82,12-6.75,13-6.84a2.5,2.5,0,0,1,.44,5c-1.95.18-7.39,1.32-9.1,4.34-.87,1.54-.69,3.59.52,6.12,5.15,10.72,16.89,8.84,17,8.82a2.5,2.5,0,1,1,.85,4.93A18.65,18.65,0,0,1,406.89,373.53Z" transform="translate(0 -233.35)"/><path class="cls-14" d="M488.67,373.53a18.65,18.65,0,0,1-3.09-.24,2.5,2.5,0,0,1,.84-4.93c.48.08,11.9,1.82,17-8.82,1.21-2.53,1.38-4.58.52-6.12-1.71-3-7.16-4.16-9.11-4.34a2.5,2.5,0,0,1,.45-5c1,.09,9.69,1,13,6.84,1.73,3.05,1.61,6.67-.36,10.76C503.42,371.12,494.58,373.53,488.67,373.53Z" transform="translate(0 -233.35)"/><path class="cls-14" d="M401.64,287.85,415,321.61s34.16,25.93,76.36,7.27l.59,13.29S514.78,327.93,510,300.4c-3.47-20.08-28-53.35-70.13-40.48C406.74,270,401.64,287.85,401.64,287.85Z" transform="translate(0 -233.35)"/><path class="cls-14" d="M410.83,322.55l-10.35-29.74s-18.63,7.59-15.3,24.68S402,350.4,402,350.4,410.69,341.42,410.83,322.55Z" transform="translate(0 -233.35)"/><path class="cls-14" d="M450,472a2.57,2.57,0,0,1-2.5-2.56l-.27-39.86a2.55,2.55,0,0,1,2.48-2.58h0a2.52,2.52,0,0,1,2.5,2.51l.27,39.88A2.57,2.57,0,0,1,450,472Z" transform="translate(0 -233.35)"/><polygon class="cls-18" points="375.73 582.65 375.79 682.16 444.01 681.06 443.92 582.65 375.73 582.65"/><polygon class="cls-18" points="459.73 582.65 459.38 681.43 526 680.34 526 582.65 459.73 582.65"/><path class="cls-11" d="M459,881h67.25l.48,63.56A40.71,40.71,0,0,1,551.81,977H459Z" transform="translate(0 -233.35)"/><path class="cls-14" d="M551.83,979H459.5a2.5,2.5,0,0,1-2.5-2.5v-96a2.5,2.5,0,0,1,2.5-2.5h66.75a2.5,2.5,0,0,1,2.5,2.48l.47,61.89a43,43,0,0,1,25,33.46,2.5,2.5,0,0,1-2.41,3.17ZM462,974h86.84a37.83,37.83,0,0,0-22.93-27.58,2.51,2.51,0,0,1-1.68-2.34L523.77,883H462Z" transform="translate(0 -233.35)"/><path class="cls-11" d="M443,881H376.7l-.47,63.56A40.71,40.71,0,0,0,351.15,977H443Z" transform="translate(0 -233.35)"/><path class="cls-14" d="M443.5,979H351.15a2.5,2.5,0,0,1-2.48-2.84,42.93,42.93,0,0,1,25.07-33.79l.46-61.89a2.5,2.5,0,0,1,2.5-2.48h66.8a2.5,2.5,0,0,1,2.5,2.5v96A2.5,2.5,0,0,1,443.5,979Zm-89.38-5H441V883H379.18l-.45,61.08a2.5,2.5,0,0,1-1.69,2.34A37.85,37.85,0,0,0,354.12,974Z" transform="translate(0 -233.35)"/><line class="cls-17" x1="390.01" y1="658.29" x2="402.45" y2="666.14"/><path class="cls-14" d="M402.45,902a2.45,2.45,0,0,1-1.34-.39l-12.43-7.85a2.5,2.5,0,0,1,2.67-4.23l12.43,7.86a2.5,2.5,0,0,1-1.33,4.61Z" transform="translate(0 -233.35)"/><line class="cls-17" x1="402.45" y1="658.29" x2="390.01" y2="666.14"/><path class="cls-14" d="M390,902a2.5,2.5,0,0,1-1.33-4.61l12.43-7.86a2.5,2.5,0,1,1,2.67,4.23l-12.43,7.85A2.45,2.45,0,0,1,390,902Z" transform="translate(0 -233.35)"/><line class="cls-17" x1="390.01" y1="676.32" x2="402.45" y2="684.18"/><path class="cls-14" d="M402.45,920a2.53,2.53,0,0,1-1.34-.38l-12.43-7.86a2.5,2.5,0,0,1,2.67-4.23l12.43,7.86a2.5,2.5,0,0,1-1.33,4.61Z" transform="translate(0 -233.35)"/><line class="cls-17" x1="402.45" y1="676.32" x2="390.01" y2="684.18"/><path class="cls-14" d="M390,920a2.5,2.5,0,0,1-1.33-4.61l12.43-7.86a2.5,2.5,0,1,1,2.67,4.23l-12.43,7.86A2.53,2.53,0,0,1,390,920Z" transform="translate(0 -233.35)"/><line class="cls-18" x1="390.01" y1="613.68" x2="402.45" y2="621.54"/><path class="cls-17" d="M402.45,857.38a2.53,2.53,0,0,1-1.34-.38l-12.43-7.86a2.5,2.5,0,0,1,2.67-4.23l12.43,7.86a2.5,2.5,0,0,1-1.33,4.61Z" transform="translate(0 -233.35)"/><line class="cls-18" x1="402.45" y1="613.68" x2="390.01" y2="621.54"/><path class="cls-17" d="M390,857.38a2.5,2.5,0,0,1-1.33-4.61l12.43-7.86a2.5,2.5,0,1,1,2.67,4.23L391.35,857A2.53,2.53,0,0,1,390,857.38Z" transform="translate(0 -233.35)"/><line class="cls-18" x1="390.01" y1="631.71" x2="402.45" y2="639.57"/><path class="cls-17" d="M402.45,875.42a2.54,2.54,0,0,1-1.34-.39l-12.43-7.86a2.5,2.5,0,1,1,2.67-4.22l12.43,7.85a2.5,2.5,0,0,1-1.33,4.62Z" transform="translate(0 -233.35)"/><line class="cls-18" x1="402.45" y1="631.71" x2="390.01" y2="639.57"/><path class="cls-17" d="M390,875.42a2.5,2.5,0,0,1-1.33-4.62L401.11,863a2.5,2.5,0,1,1,2.67,4.22L391.35,875A2.54,2.54,0,0,1,390,875.42Z" transform="translate(0 -233.35)"/><line class="cls-17" x1="502" y1="658.29" x2="514.44" y2="666.14"/><path class="cls-14" d="M514.44,902a2.39,2.39,0,0,1-1.33-.39l-12.44-7.85a2.5,2.5,0,0,1,2.67-4.23l12.44,7.86a2.5,2.5,0,0,1-1.34,4.61Z" transform="translate(0 -233.35)"/><line class="cls-17" x1="514.44" y1="658.29" x2="502" y2="666.14"/><path class="cls-14" d="M502,902a2.5,2.5,0,0,1-1.34-4.61l12.44-7.86a2.5,2.5,0,0,1,2.67,4.23l-12.44,7.85A2.44,2.44,0,0,1,502,902Z" transform="translate(0 -233.35)"/><line class="cls-17" x1="502" y1="676.32" x2="514.44" y2="684.18"/><path class="cls-14" d="M514.44,920a2.47,2.47,0,0,1-1.33-.38l-12.44-7.86a2.5,2.5,0,0,1,2.67-4.23l12.44,7.86a2.5,2.5,0,0,1-1.34,4.61Z" transform="translate(0 -233.35)"/><line class="cls-17" x1="514.44" y1="676.32" x2="502" y2="684.18"/><path class="cls-14" d="M502,920a2.5,2.5,0,0,1-1.34-4.61l12.44-7.86a2.5,2.5,0,0,1,2.67,4.23l-12.44,7.86A2.52,2.52,0,0,1,502,920Z" transform="translate(0 -233.35)"/><line class="cls-18" x1="502" y1="613.68" x2="514.44" y2="621.54"/><path class="cls-17" d="M514.44,857.38a2.47,2.47,0,0,1-1.33-.38l-12.44-7.86a2.5,2.5,0,0,1,2.67-4.23l12.44,7.86a2.5,2.5,0,0,1-1.34,4.61Z" transform="translate(0 -233.35)"/><line class="cls-18" x1="514.44" y1="613.68" x2="502" y2="621.54"/><path class="cls-17" d="M502,857.38a2.5,2.5,0,0,1-1.34-4.61l12.44-7.86a2.5,2.5,0,0,1,2.67,4.23L503.34,857A2.52,2.52,0,0,1,502,857.38Z" transform="translate(0 -233.35)"/><line class="cls-18" x1="502" y1="631.71" x2="514.44" y2="639.57"/><path class="cls-17" d="M514.44,875.42a2.48,2.48,0,0,1-1.33-.39l-12.44-7.86a2.5,2.5,0,1,1,2.67-4.22l12.44,7.85a2.51,2.51,0,0,1-1.34,4.62Z" transform="translate(0 -233.35)"/><line class="cls-18" x1="514.44" y1="631.71" x2="502" y2="639.57"/><path class="cls-17" d="M502,875.42a2.5,2.5,0,0,1-1.34-4.62L513.11,863a2.5,2.5,0,0,1,2.67,4.22L503.34,875A2.53,2.53,0,0,1,502,875.42Z" transform="translate(0 -233.35)"/><path class="cls-6" d="M314.71,329.9s130,36.84,273.32,0L448.79,233.35Z" transform="translate(0 -233.35)"/><path class="cls-14" d="M453.05,348.73c-20.9,0-39.72-1.07-55.65-2.53-50.07-4.57-83-13.81-83.38-13.9a2.5,2.5,0,0,1,1.37-4.81c.32.09,32.95,9.22,82.6,13.75,45.77,4.17,115.79,5.17,189.41-13.76a2.5,2.5,0,1,1,1.25,4.84C539.92,344.85,492.76,348.73,453.05,348.73Z" transform="translate(0 -233.35)"/><path class="cls-14" d="M542.39,526.14l-.37,0a2.51,2.51,0,0,1-1.86-1.34L525,494.91a2.5,2.5,0,1,1,4.45-2.27L543,519.37l35.92-37.44c-5.4-9.08-31.78-53.22-39.18-60.63-7.83-7.82-24.86-9.71-25-9.73h-.13l-30.83-4.87a2.5,2.5,0,1,1,.78-4.94l30.77,4.86c1.43.16,19.09,2.28,28,11.16,8.67,8.66,39.61,61,40.92,63.25a2.49,2.49,0,0,1-.35,3l-39.67,41.35A2.46,2.46,0,0,1,542.39,526.14Z" transform="translate(0 -233.35)"/><path class="cls-11" d="M637,422.38s.44-11.18,6.13-10.86,35.63,4.82,32.47,18-17.55,19.22-23,17.93S637.62,431.11,637,422.38Z" transform="translate(0 -233.35)"/><path class="cls-14" d="M654.22,450.15a10.07,10.07,0,0,1-2.21-.23c-6.1-1.44-16.74-16.63-17.52-27.36a2.44,2.44,0,0,1,0-.27c.5-12.9,7.59-13.28,8.39-13.28l.38,0c4.91.27,26.2,3.35,32.89,12.34a10.31,10.31,0,0,1,1.87,8.77C674.92,443,662,450.15,654.22,450.15Zm-14.73-27.82c.69,8.37,10,21.84,13.67,22.71a4.54,4.54,0,0,0,1.06.11c5.4,0,16.35-5.4,18.93-16.18a5.28,5.28,0,0,0-1-4.63C667,417.45,647.91,414,643,414h0C640.86,414,639.64,419.27,639.49,422.33Z" transform="translate(0 -233.35)"/><path class="cls-14" d="M555.92,551.69h-.1a2.49,2.49,0,0,1-2.1-1.31l-14.4-26.72a2.5,2.5,0,1,1,4.4-2.37l12.4,23L587,496.58l-3.39-4.43a2.5,2.5,0,1,1,4-3L592,495a2.48,2.48,0,0,1,.11,2.87L558,550.55A2.49,2.49,0,0,1,555.92,551.69Z" transform="translate(0 -233.35)"/><path class="cls-11" d="M587.5,501.38l30.24-43,8.54-34.63,29-1.33S650,433.08,641,433.53c0,0,10.16,16,6.16,21.48" transform="translate(0 -233.35)"/><path class="cls-14" d="M587.5,503.88a2.44,2.44,0,0,1-1.43-.46,2.49,2.49,0,0,1-.61-3.48l30-42.65,8.43-34.17a2.49,2.49,0,0,1,2.31-1.9l29-1.33a2.49,2.49,0,0,1,2.21,1.12,2.52,2.52,0,0,1,.15,2.48c-.21.43-4.61,9.17-12.49,11.8,3.1,5.53,8,16,4.22,21.2a2.5,2.5,0,0,1-4-2.95c2-2.68-2.37-12.57-6.25-18.68a2.5,2.5,0,0,1-.1-2.48,2.47,2.47,0,0,1,2.09-1.35c4.15-.21,7.46-3.28,9.56-5.93l-22.22,1-8.09,32.81a2.58,2.58,0,0,1-.39.84l-30.23,43A2.52,2.52,0,0,1,587.5,503.88Z" transform="translate(0 -233.35)"/><path class="cls-14" d="M262.68,477.35a91.75,91.75,0,0,1-17.15-1.66,104.85,104.85,0,0,1-32.34-11.81,2.5,2.5,0,0,1-1.19-2.13V366.54a2.32,2.32,0,0,1,0-.46c2.82-15.15,17.37-39.55,54-35,20.35,2.55,37.5,17.84,38.22,18.49a2.5,2.5,0,1,1-3.35,3.71c-.16-.15-16.73-14.89-35.49-17.24-39.9-5-47.56,26.11-48.47,30.7V460.3a103.67,103.67,0,0,0,29.63,10.51c23.32,4.38,44-.35,61.37-14.06V369a2.5,2.5,0,0,1,5,0V458a2.49,2.49,0,0,1-.92,1.94A77,77,0,0,1,262.68,477.35Z" transform="translate(0 -233.35)"/><line class="cls-11" x1="432.51" y1="29.12" x2="355.89" y2="83.49"/><path class="cls-14" d="M355.9,319.34a2.5,2.5,0,0,1-1.45-4.54l76.61-54.37a2.5,2.5,0,1,1,2.9,4.07l-76.62,54.38A2.49,2.49,0,0,1,355.9,319.34Z" transform="translate(0 -233.35)"/><path class="cls-14" d="M214.48,464.25a2.37,2.37,0,0,1-.52-.06,2.5,2.5,0,0,1-1.93-3L233,362.13c.24-11.88,15.57-29.71,16.23-30.47a2.5,2.5,0,0,1,3.78,3.27c-4.18,4.82-15,19.16-15,27.48a2.22,2.22,0,0,1-.06.51l-21,99.34A2.51,2.51,0,0,1,214.48,464.25Z" transform="translate(0 -233.35)"/><path class="cls-14" d="M458,443.6a3,3,0,1,0,1.62-4.12A3.15,3.15,0,0,0,458,443.6Z" transform="translate(0 -233.35)"/><path class="cls-14" d="M458,462.6a3,3,0,1,0,1.62-4.12A3.15,3.15,0,0,0,458,462.6Z" transform="translate(0 -233.35)"/></g><g id="woman"><path class="cls-19" d="M761.62,632.32,762,921.1l68.31-1.25-.18-280.38c6.73,5.91,16,1.92,16,1.92l.38,279,66.52-.74V631.94S915.79,585,899.72,562H779.66S761.62,577.83,761.62,632.32Z" transform="translate(0 -233.35)"/><path class="cls-11" d="M959.38,870.63l-35.93-238S915.79,586,899.72,563H779.66s-19.61,23.79-22.78,70.06L717,870.84s23.34,17,44.89,16.51,50.49-19.51,64.26-19.51,32.74,18.5,57.89,19.44S923.19,870.16,959.38,870.63Z" transform="translate(0 -233.35)"/><path class="cls-20" d="M886,890h0c-.65,0-1.31-.11-2-.14-14.76-.55-27.62-7.05-37.94-12.24-7.77-3.9-14.48-7.29-19.86-7.29-5.71,0-15,3.86-24.85,7.95-12.68,5.27-27.05,11.24-39.36,11.51H761c-21.86,0-44.52-16.37-45.47-17.07a2.46,2.46,0,0,1-1-2.43l39.83-237.78c1.68-24.21,7.88-42.31,12.79-53.24,5.37-12,10.34-18.1,10.54-18.36a2.52,2.52,0,0,1,1.94-.92H899.72a2.5,2.5,0,0,1,2,1.07c6.83,9.77,13,24.69,18.25,44.32,3.92,14.54,5.88,26.42,5.9,26.54l35.89,238a2.11,2.11,0,0,1,.09.62,2.44,2.44,0,0,1-2.5,2.43h0c-19,0-31.4,4.78-43.39,9.47C906.29,886.26,897.17,890,886,890Zm-59.78-24.69c6.57,0,13.77,3.61,22.1,7.79,10.41,5.23,22.21,11.16,35.88,11.67,11.12.4,19.82-3,30-7,11.25-4.41,24-9.39,42.34-9.65L921,632.71c-.07-.43-7.52-45.08-22.58-67.71H780.9a94.42,94.42,0,0,0-9.25,16.53c-4.72,10.55-10.67,28-12.28,51.45a1,1,0,0,1,0,.24L719.75,869.56c5,3.35,23.82,15.23,41.27,15.23h.83c11.36-.25,25.27-6,37.55-11.14C810.16,869.17,819.46,865.31,826.17,865.31Z" transform="translate(0 -233.35)"/><path class="cls-20" d="M899.72,564H780.14a2.5,2.5,0,0,1-2.43-1.89l-18-71.79,0-.13c-.18-.9-4.35-22.41-.44-37.17a2.5,2.5,0,0,1,4.83,1.27c-3.51,13.29.27,33.64.5,34.88L782.09,559H897.64l12.91-69.75c1.55-6.9,4.53-26.32.05-34.31A2.5,2.5,0,1,1,915,452.5c6.34,11.29.73,36.68.49,37.76L902.18,562A2.5,2.5,0,0,1,899.72,564Z" transform="translate(0 -233.35)"/><path class="cls-16" d="M912.78,512.4" transform="translate(0 -233.35)"/><path class="cls-20" d="M840.76,377H835a2.5,2.5,0,0,1,0-5h2.67l-2.37-11a2.5,2.5,0,1,1,4.89-1l3,14.07a2.5,2.5,0,0,1-2.45,3Z" transform="translate(0 -233.35)"/><path class="cls-20" d="M836.46,391.29a16.42,16.42,0,0,1-7-1.56,2.5,2.5,0,0,1,2.28-4.45,10.87,10.87,0,0,0,9.29-.09,2.5,2.5,0,0,1,2.32,4.42A14.56,14.56,0,0,1,836.46,391.29Z" transform="translate(0 -233.35)"/><path class="cls-20" d="M805.41,353.77a2.5,2.5,0,0,1-1.17-4.71c.43-.23,10.63-5.51,18.21-1.19a2.5,2.5,0,0,1-2.48,4.35c-5.13-2.93-13.32,1.22-13.4,1.27A2.54,2.54,0,0,1,805.41,353.77Z" transform="translate(0 -233.35)"/><path class="cls-20" d="M821.59,357.6a3,3,0,1,1-1.62-4.12A3.14,3.14,0,0,1,821.59,357.6Z" transform="translate(0 -233.35)"/><path class="cls-20" d="M866.43,353.77a2.54,2.54,0,0,1-1.16-.28h0c-2.27-1.19-9.1-3.73-13.4-1.27a2.5,2.5,0,0,1-2.48-4.35c7.58-4.32,17.78,1,18.21,1.19a2.5,2.5,0,0,1-1.17,4.71Z" transform="translate(0 -233.35)"/><path class="cls-20" d="M850.25,357.6a3,3,0,1,0,1.62-4.12A3.15,3.15,0,0,0,850.25,357.6Z" transform="translate(0 -233.35)"/><path class="cls-20" d="M837.21,412.78c-29.21,0-49.74-50.16-50.6-52.29a2.35,2.35,0,0,1-.11-.35,87.52,87.52,0,0,1-2.13-22.87,2.5,2.5,0,1,1,5,.31,83.34,83.34,0,0,0,2,21.21c1.32,3.19,20.82,49,45.89,49,26.26,0,36.4-50.17,36.92-52.83.12-1.34,1.22-14.05,0-20.57a2.5,2.5,0,1,1,4.92-.9c1.38,7.53.08,21.47,0,22.06l0,.21C878.64,358.08,868.16,412.78,837.21,412.78Z" transform="translate(0 -233.35)"/><path class="cls-20" d="M793.17,379.53c-5.92,0-14.75-2.41-19.28-11.83-2-4.09-2.09-7.71-.35-10.76,3.3-5.82,12-6.75,13-6.84a2.5,2.5,0,1,1,.44,5c-2,.18-7.39,1.32-9.1,4.34-.87,1.54-.69,3.59.52,6.12,5.11,10.64,16.54,8.9,17,8.82a2.5,2.5,0,0,1,.84,4.93A18.65,18.65,0,0,1,793.17,379.53Z" transform="translate(0 -233.35)"/><path class="cls-20" d="M875,379.53a18.65,18.65,0,0,1-3.09-.24,2.5,2.5,0,0,1,.83-4.93c.51.08,11.92,1.81,17-8.82,1.22-2.53,1.39-4.58.53-6.12-1.72-3-7.16-4.16-9.11-4.34a2.5,2.5,0,0,1,.45-5c1,.09,9.69,1,13,6.84,1.73,3.05,1.61,6.67-.36,10.76C889.7,377.12,880.86,379.53,875,379.53Z" transform="translate(0 -233.35)"/><path class="cls-20" d="M754.74,634.72c-11.84,0-20.47-3.05-25.7-9.09-6.21-7.18-5.28-16-5-17.61V560.76a1.48,1.48,0,0,1,0-.21l2.61-31a252.17,252.17,0,0,1,6.58-50.16c8.43-35,23.82-58,44.5-66.53a2.19,2.19,0,0,1,.57-.16l30.7-4.81a2.5,2.5,0,1,1,.77,4.94l-30.4,4.76C733,437.11,731.62,528.75,731.62,529.68a1.15,1.15,0,0,0,0,.19l-2.61,31v47.35a2.12,2.12,0,0,1,0,.44c0,.07-1.27,8,3.9,13.91,4.55,5.22,12.67,7.44,24.17,7.44h.08a2.37,2.37,0,0,1,2.5,2.25,2.45,2.45,0,0,1-2.42,2.51C756.36,634.78,755.54,634.72,754.74,634.72Z" transform="translate(0 -233.35)"/><path class="cls-20" d="M741.64,702.58a5.5,5.5,0,0,1-3.34-1.17c-2-1.5-4.78-5.1-6.37-19-.83-7.26-.91-13.73-.92-14a2.39,2.39,0,0,1,2.47-2.41h0a2.4,2.4,0,0,1,2.5,2.35c.21,17.51,3.23,27.55,5.32,29.14a.42.42,0,0,0,.48.09,2.49,2.49,0,1,1,1.29,4.81A5.68,5.68,0,0,1,741.64,702.58Z" transform="translate(0 -233.35)"/><path class="cls-20" d="M752,665H721.77a2.5,2.5,0,0,1-2.43-1.88c-.22-.89-5.35-22,14-37.62a2.5,2.5,0,1,1,3.14,3.89c-13.85,11.16-13.34,25.5-12.63,30.61H752a2.5,2.5,0,0,1,0,5Z" transform="translate(0 -233.35)"/><path class="cls-20" d="M927.07,634.72c-.86,0-1.74,0-2.63,0a2.34,2.34,0,1,1,.08-4.68h.08c11.89,0,20.1-2.15,24.39-7.26s3.08-12,3.07-12a3.15,3.15,0,0,1-.06-.61V560.88l-2.92-31c0-.07,0-.13,0-.2,0-.93-1.7-92.59-48-112.12l-30.4-4.76a2.5,2.5,0,1,1,.77-4.94l30.71,4.81a2.44,2.44,0,0,1,.57.16c20.67,8.55,36.11,31.56,44.65,66.52a253.58,253.58,0,0,1,6.74,50.16l2.93,31a1.93,1.93,0,0,1,0,.24v49.11a20.12,20.12,0,0,1-4.12,15.85C947.91,631.7,939.23,634.72,927.07,634.72Z" transform="translate(0 -233.35)"/><path class="cls-20" d="M935.18,697.51a5.57,5.57,0,0,1-2-.39,2.5,2.5,0,0,1,1.82-4.65c.14,0,.23.08.5-.07,2.25-1.34,6.4-11,8.59-28.4a2.5,2.5,0,1,1,5,.62c0,.28-.86,6.81-2.51,13.93-3.16,13.62-6.35,16.88-8.48,18.15A5.59,5.59,0,0,1,935.18,697.51Z" transform="translate(0 -233.35)"/><path class="cls-20" d="M958.59,665H928a2.5,2.5,0,0,1,0-5h28.58c.82-4.85,1.6-18.49-12.19-29.61a2.5,2.5,0,1,1,3.14-3.89c19.4,15.64,13.71,35.85,13.46,36.71A2.5,2.5,0,0,1,958.59,665Z" transform="translate(0 -233.35)"/><path class="cls-20" d="M870,515.58a20,20,0,0,1-2-.1,23.48,23.48,0,0,1-11-3.68,9.68,9.68,0,0,0-4.37-1.75,2.75,2.75,0,0,0-.41,0c-1.7,0-3.85,1-6.12,2.13-3.4,1.64-7.31,3.51-12,3.32a16.81,16.81,0,0,1-9.33-3.14,11.5,11.5,0,0,0-6-2.28c-2.59-.2-3.7.62-5.4,1.92a14.32,14.32,0,0,1-8.85,3.5A20.27,20.27,0,0,1,790.28,511a2.48,2.48,0,0,1-.8-1.82l-.58-95.28c-6.76-4.91-42.16-31.61-43.37-53.54-.37-6.62,3.53-14.51,11.6-23.44,19.41-21.47,57-42.65,77.46-43.58.46,0,.92,0,1.39,0,19.83,0,48.58,18.07,65.55,35.08,11.72,11.74,18.17,23.05,18.16,31.84,0,19-30.19,48.39-35.69,53.59v93.73a2.46,2.46,0,0,1-.39,1.34A16.27,16.27,0,0,1,870,515.58ZM852.18,505c.31,0,.61,0,.92,0a14.48,14.48,0,0,1,6.42,2.43,18.5,18.5,0,0,0,8.94,3,13.47,13.47,0,0,0,1.54.08,11.58,11.58,0,0,0,9-3.9v-94a2.48,2.48,0,0,1,.81-1.84c.34-.32,34.85-32.34,34.88-50.67,0-7.35-6.07-17.66-16.7-28.3-18.81-18.85-46-33.61-62-33.61-.39,0-.78,0-1.16,0-19,.86-55.63,21.63-74,41.93-7,7.79-10.61,14.65-10.32,19.82.48,8.67,7.88,20.11,21.4,33.07a202.24,202.24,0,0,0,20.91,17.4,2.5,2.5,0,0,1,1.07,2l.57,95.35a15.88,15.88,0,0,0,9.73,2.58,9.54,9.54,0,0,0,6.07-2.48c2-1.53,4.23-3.28,8.82-2.93a16.35,16.35,0,0,1,8.32,3,12,12,0,0,0,6.86,2.38c3.49.12,6.59-1.37,9.62-2.84C846.69,506.3,849.33,505,852.18,505Z" transform="translate(0 -233.35)"/><path class="cls-6" d="M792.94,565.77,771.66,716.3s7.16,6.62,19.26,6,11.73-9.28,22.71-8.44,11.86,8,23.83,8.45,20.87-9.31,29.15-8.46,9.64,7,24,8.46,20.85-8.53,20.85-8.53L889.31,566" transform="translate(0 -233.35)"/><path class="cls-20" d="M893.47,725a29.81,29.81,0,0,1-3.07-.16,35.5,35.5,0,0,1-16.62-5.55c-2.46-1.46-4.4-2.61-7.42-2.92s-6.78,1.42-11,3.43c-5.18,2.49-11,5.33-18,5s-10.59-2.62-13.86-4.69c-2.89-1.82-5.39-3.4-10.06-3.76s-6.62,1.17-9.37,3.28-6.3,4.82-13,5.17c-13,.67-20.76-6.36-21.08-6.66a2.51,2.51,0,0,1-.78-2.18l21.29-150.53a2.5,2.5,0,1,1,4.95.7l-21.09,149.1a26.1,26.1,0,0,0,16.45,4.57c5.18-.27,7.64-2.15,10.25-4.15,2.93-2.24,6.25-4.77,12.79-4.28,5.91.45,9.33,2.61,12.35,4.52s5.85,3.7,11.39,3.92c5.75.25,10.8-2.21,15.68-4.56,4.65-2.24,9-4.36,13.62-3.89,4.12.41,6.72,2,9.47,3.6a30.94,30.94,0,0,0,14.56,4.87c10.6,1,16.29-4.65,18-6.71l-22-146.78a2.5,2.5,0,1,1,4.94-.74L914,713.4a2.52,2.52,0,0,1-.38,1.73C913.32,715.56,907.07,725,893.47,725Z" transform="translate(0 -233.35)"/><path class="cls-20" d="M893.47,716a29.81,29.81,0,0,1-3.07-.16,35.5,35.5,0,0,1-16.62-5.55c-2.46-1.46-4.4-2.61-7.42-2.92s-6.78,1.42-11,3.43c-5.18,2.49-11,5.32-18,5s-10.59-2.62-13.86-4.69c-2.89-1.82-5.39-3.4-10.06-3.76s-6.62,1.17-9.37,3.28-6.3,4.82-13,5.17c-13,.68-20.76-6.36-21.08-6.66a2.5,2.5,0,0,1,3.39-3.67h0a25.5,25.5,0,0,0,17.43,5.33c5.18-.27,7.64-2.15,10.25-4.15,2.93-2.24,6.25-4.77,12.79-4.28,5.91.45,9.33,2.61,12.35,4.52s5.85,3.7,11.39,3.92c5.75.25,10.8-2.21,15.68-4.56,4.65-2.24,9-4.35,13.62-3.89,4.12.41,6.72,2,9.47,3.6a30.94,30.94,0,0,0,14.56,4.87c12.74,1.25,18.46-7.32,18.52-7.41a2.5,2.5,0,1,1,4.19,2.72C913.32,706.56,907.07,716,893.47,716Z" transform="translate(0 -233.35)"/><path class="cls-6" d="M833,415.89s-27.39,12.47-29.67,37.23C803.37,453.12,837.86,447.61,833,415.89Z" transform="translate(0 -233.35)"/><path class="cls-20" d="M803.37,455.62a2.51,2.51,0,0,1-2.49-2.73c1-10.78,6.71-21,16.54-29.56A66.51,66.51,0,0,1,832,413.61a2.47,2.47,0,0,1,2.23.08,2.5,2.5,0,0,1,1.28,1.82c5.14,33.79-31.38,40-31.75,40.08A2.56,2.56,0,0,1,803.37,455.62Zm27.57-35.79c-6.54,3.78-21.3,13.94-24.57,30C814.1,447.74,832.1,440.53,830.94,419.83Z" transform="translate(0 -233.35)"/><path class="cls-6" d="M840.77,415.89s27.38,12.47,29.66,37.23C870.43,453.12,835.94,447.61,840.77,415.89Z" transform="translate(0 -233.35)"/><path class="cls-20" d="M870.43,456c-.13,0-.26-.2-.39-.22-.37-.06-36.89-6.38-31.75-40.17a2.58,2.58,0,0,1,1.29-1.87,2.48,2.48,0,0,1,2.22-.11,66.86,66.86,0,0,1,14.59,9.71c9.72,8.48,15.42,18.57,16.5,29.23a4.52,4.52,0,0,1,.06.74,2.67,2.67,0,0,1-2.5,2.69Zm-27.57-36.17c-.6,10.41,3.53,18.64,12.31,24.49a44.32,44.32,0,0,0,12.26,5.53C864.15,433.75,849.4,423.61,842.86,419.83Z" transform="translate(0 -233.35)"/><path class="cls-20" d="M748,353.29s37.46-83,85.5-86.12,83.78,89.33,83.78,89.33-24-56.42-82.57-60.69C798.11,293.14,748,353.29,748,353.29Z" transform="translate(0 -233.35)"/><path class="cls-20" d="M778.08,333.93s44.6-33.72,58-31.15,20,7.4,20,7.4-31.33,43.89-69.86,45.37c0,0-6.62.27-8.25-3C775.38,347.45,777.38,337.48,778.08,333.93Z" transform="translate(0 -233.35)"/><path class="cls-20" d="M857,310.61s1.27,35.37,19.9,38.76c.73.14,8.55,1.87,9.34,1.9,0,0,.09-15.93-1.59-18.61C884.69,332.66,863.41,314,857,310.61Z" transform="translate(0 -233.35)"/><path class="cls-20" d="M788.52,377l2.88,35.58,33.75-5.43s-24.65-25-27.49-30.15C797.66,377,791.29,378.34,788.52,377Z" transform="translate(0 -233.35)"/><path class="cls-20" d="M871,377s-9.51,25-15.63,27.43l26.32,8.27L880.9,377" transform="translate(0 -233.35)"/><rect class="cls-6" x="727.5" y="775.55" width="38.91" height="25.63" transform="translate(-126.96 1199.79) rotate(-82.96)"/><line class="cls-17" x1="768.11" y1="544.71" x2="761.21" y2="545.49"/><path class="cls-20" d="M761.2,781.33a2.5,2.5,0,0,1-.28-5l6.91-.78a2.5,2.5,0,0,1,.56,5l-6.9.78Z" transform="translate(0 -233.35)"/><line class="cls-17" x1="765.7" y1="569.76" x2="758.16" y2="568.83"/><path class="cls-20" d="M765.7,805.61l-.31,0-7.53-.93a2.5,2.5,0,1,1,.61-5l7.53.92a2.5,2.5,0,0,1-.3,5Z" transform="translate(0 -233.35)"/><line class="cls-17" x1="768.07" y1="556.15" x2="759.81" y2="556.76"/><path class="cls-20" d="M759.81,792.61a2.5,2.5,0,0,1-.18-5l8.25-.62a2.5,2.5,0,1,1,.37,5l-8.25.61Z" transform="translate(0 -233.35)"/><path class="cls-20" d="M828,967v10H730.31s6.36-24.46,26-28.5l13.5,18.5h46.92Z" transform="translate(0 -233.35)"/><path class="cls-20" d="M828.5,979H730.31a2.5,2.5,0,0,1-2.42-3.13,55.3,55.3,0,0,1,5.91-13.41c5.66-9.27,13.25-15.12,22-16.91a2.49,2.49,0,0,1,2.52,1L771,964h45.65l11.92.47A2.49,2.49,0,0,1,831,967v9.53A2.5,2.5,0,0,1,828.5,979Zm-94.74-5H826v-4.63l-9.42-.37H769.76a2.49,2.49,0,0,1-2-1l-12.51-17.15C742.43,954.37,736.06,967.83,733.76,974Z" transform="translate(0 -233.35)"/><path class="cls-11" d="M828.36,919.81l.18,47.16-58.78-.48-13.5-18.28s22.93-3.17,23.16-27.8Z" transform="translate(0 -233.35)"/><path class="cls-20" d="M828.54,969h0l-58.78-.24a2.4,2.4,0,0,1-2-.9l-13.5-18.22a2.47,2.47,0,0,1,1.67-3.92c.84-.12,20.79-3.23,21-25.34a2.65,2.65,0,0,1,2.47-2.63l48.94-.75h0a2.68,2.68,0,0,1,1.75.87,2.72,2.72,0,0,1,.75,1.85L831,966.6c0,.11,0,0,0,.11a2.33,2.33,0,0,1-2.5,2.29ZM771,964l55,.45-.16-42.11-44,.54c-1.28,18.13-14.6,24.68-21.35,26.84Z" transform="translate(0 -233.35)"/><path class="cls-20" d="M847,967v10h99.23s-6.36-24.46-26-28.5L906.78,967H859.86Z" transform="translate(0 -233.35)"/><path class="cls-20" d="M946.23,979H847.5a2.5,2.5,0,0,1-2.5-2.5V967a2.5,2.5,0,0,1,2.41-2.5l12.35-.47h45.75l12.74-17.47a2.5,2.5,0,0,1,2.52-1c8.71,1.79,16.31,7.64,22,16.91a55.11,55.11,0,0,1,5.92,13.41,2.51,2.51,0,0,1-2.42,3.13ZM850,974h92.77c-2.31-6.18-8.71-19.64-21.46-23.18L908.8,968a2.49,2.49,0,0,1-2,1H859.86l-9.86.37Z" transform="translate(0 -233.35)"/><path class="cls-11" d="M848.18,919.81,848,967l58.78-.48,13.49-18.28s-22.92-3.17-23.16-27.8Z" transform="translate(0 -233.35)"/><path class="cls-20" d="M848,969a2.32,2.32,0,0,1-1.77-.5,2.21,2.21,0,0,1-.73-1.66l.18-47.1a2.48,2.48,0,0,1,2.53-2.45l48.93.62a2.49,2.49,0,0,1,2.47,2.47c.21,22.11,20.16,25.23,21,25.36a2.5,2.5,0,0,1,1.66,4L908.79,968a2.33,2.33,0,0,1-2,.78L848,969Zm2.67-46.66-.17,42.11,55-.45,10.54-14.28c-6.75-2.16-20.07-8.71-21.34-26.84Z" transform="translate(0 -233.35)"/><path class="cls-20" d="M868.53,597a2.4,2.4,0,0,1-2.5-2.36c-.13-14.51-6.88-28.71-6.95-28.85a2.46,2.46,0,0,1,1.17-3.3,2.5,2.5,0,0,1,3.34,1.18c.29.62,7.29,15.26,7.44,30.91a2.41,2.41,0,0,1-2.48,2.42Z" transform="translate(0 -233.35)"/><path class="cls-20" d="M815.33,597h0a2.4,2.4,0,0,1-2.48-2.41c.14-15.65,7.14-30.34,7.44-31a2.51,2.51,0,0,1,4.51,2.2c-.07.15-6.82,14.29-6.95,28.8A2.41,2.41,0,0,1,815.33,597Z" transform="translate(0 -233.35)"/></g></svg>