<svg xmlns="http://www.w3.org/2000/svg" xmlns:xlink="http://www.w3.org/1999/xlink" viewBox="0 0 1257 704" xmlns:v="https://vecta.io/nano"><style><![CDATA[.F{fill:#40403f}.G{fill:#fafcfa}.H{fill:#eaefe8}.I{fill:#dee5dc}.J{fill:#c67042}]]></style><path d="M1258 704S598 291.86 0 355.17v348.38" class="F"/><g class="H"><path d="M30.64 407.18c.38 0 .76-.1 1.12-.27 3.72-1.88 4.46-4.84 5-7 .5-1.95.74-2.77 2.25-3.42 1.26-.55 1.7-.3 3.17.78 1.63 1.2 4.35 3.2 8.53 1.1 3.63-1.83 4.46-4.6 5.06-6.6.54-1.8.84-2.8 2.85-3.64 2.13-.9 3.3-.37 5.06.42 1.88.84 4.45 2 7.8.4 3.47-1.63 4.05-4.68 4.43-6.7.4-2.04.58-2.7 2.03-3.2 1.42-.48 2.1-.1 3.66.9 1.9 1.22 4.74 3.06 9.17.83 4.23-2.12 4.46-5.43 4.62-7.62.14-1.9.18-2.5 1.83-3.17 2.14-.88 3.32-.42 5.1.27 2.16.83 4.85 1.87 8.93.3 5.53-2.12 6.28-6.38 6.7-8.67a15.04 15.04 0 0 1 .15-.77c.77-.72 1.02-1.88.55-2.88-.6-1.25-2.08-1.8-3.33-1.2-1.73.82-2.04 2.57-2.3 3.97-.34 1.93-.67 3.76-3.56 4.87-2.28.87-3.5.4-5.33-.3-2.15-.83-4.83-1.86-8.8-.23-4.52 1.86-4.76 5.2-4.92 7.44-.13 1.88-.2 2.66-1.88 3.5-1.88.94-2.56.5-4.22-.57-1.68-1.08-4.2-2.7-7.98-1.43-4.27 1.45-4.9 4.8-5.33 7-.37 1.93-.58 2.6-1.65 3.1-1.23.58-1.96.3-3.64-.45-2.07-.93-4.9-2.2-9.03-.47-4.18 1.75-5.06 4.68-5.7 6.82-.5 1.7-.8 2.7-2.53 3.57-1.44.73-1.88.4-3.32-.66-1.66-1.22-4.17-3.06-8.12-1.33-3.82 1.67-4.56 4.63-5.1 6.8-.5 1.96-.8 2.93-2.4 3.75-1.23.62-1.73 2.13-1.1 3.36.43.9 1.3 1.4 2.22 1.4zm73 5c.38 0 .76-.1 1.12-.27 3.72-1.88 4.46-4.84 5-7 .5-1.95.74-2.77 2.25-3.42 1.26-.55 1.7-.3 3.17.78 1.63 1.2 4.35 3.2 8.53 1.1 3.63-1.83 4.46-4.6 5.06-6.6.54-1.8.84-2.8 2.85-3.64 2.13-.9 3.3-.37 5.06.42 1.88.84 4.45 2 7.8.4 3.47-1.63 4.05-4.68 4.43-6.7.4-2.04.58-2.7 2.03-3.2 1.42-.48 2.1-.1 3.66.9 1.9 1.22 4.74 3.06 9.17.83 4.23-2.12 4.46-5.43 4.62-7.62.14-1.9.18-2.5 1.83-3.17 2.14-.88 3.32-.42 5.1.27 2.16.83 4.85 1.88 8.93.3 5.53-2.12 6.28-6.38 6.7-8.67a15.04 15.04 0 0 1 .15-.77c.77-.72 1.02-1.88.55-2.88-.6-1.25-2.08-1.8-3.33-1.2-1.73.82-2.04 2.57-2.3 3.97-.34 1.93-.67 3.76-3.56 4.87-2.28.87-3.5.4-5.33-.3-2.15-.83-4.83-1.86-8.8-.23-4.52 1.86-4.76 5.2-4.92 7.44-.13 1.88-.2 2.66-1.88 3.5-1.88.94-2.56.5-4.22-.57-1.68-1.08-4.2-2.7-7.98-1.43-4.27 1.45-4.9 4.8-5.33 7-.37 1.93-.58 2.6-1.65 3.1-1.23.58-1.96.3-3.64-.45-2.07-.93-4.9-2.2-9.03-.47-4.18 1.75-5.06 4.68-5.7 6.82-.5 1.7-.8 2.7-2.53 3.57-1.44.72-1.88.4-3.32-.66-1.66-1.22-4.17-3.06-8.12-1.33-3.82 1.67-4.56 4.63-5.1 6.8-.5 1.96-.8 2.93-2.4 3.75-1.23.62-1.73 2.13-1.1 3.36.43.9 1.3 1.4 2.22 1.4zm74 15c.38 0 .76-.1 1.12-.27 3.72-1.88 4.46-4.84 5-7 .5-1.95.74-2.77 2.25-3.42 1.26-.55 1.7-.3 3.17.78 1.63 1.2 4.35 3.2 8.53 1.1 3.63-1.83 4.46-4.6 5.06-6.6.54-1.8.84-2.8 2.85-3.64 2.13-.9 3.3-.37 5.06.42 1.88.84 4.45 2 7.8.4 3.47-1.63 4.05-4.68 4.43-6.7.4-2.04.58-2.7 2.03-3.2 1.42-.48 2.1-.1 3.66.9 1.9 1.22 4.74 3.06 9.17.83 4.23-2.12 4.46-5.43 4.62-7.62.14-1.9.18-2.5 1.83-3.17 2.14-.88 3.33-.42 5.1.27 2.16.83 4.85 1.87 8.93.3 5.53-2.12 6.28-6.38 6.7-8.67a15.04 15.04 0 0 1 .15-.77c.77-.72 1.02-1.88.55-2.88-.6-1.25-2.08-1.8-3.33-1.2-1.73.82-2.04 2.57-2.3 3.97-.34 1.93-.66 3.76-3.56 4.87-2.27.87-3.5.4-5.33-.3-2.15-.83-4.83-1.86-8.8-.23-4.52 1.86-4.76 5.2-4.92 7.44-.13 1.88-.2 2.66-1.88 3.5-1.88.94-2.56.5-4.22-.57-1.68-1.08-4.2-2.7-7.98-1.43-4.27 1.45-4.9 4.8-5.33 7-.37 1.93-.58 2.6-1.65 3.1-1.23.58-1.96.3-3.64-.45-2.07-.93-4.9-2.2-9.03-.47-4.18 1.75-5.06 4.68-5.7 6.82-.5 1.7-.8 2.7-2.53 3.57-1.44.72-1.88.4-3.32-.66-1.66-1.22-4.17-3.06-8.12-1.33-3.82 1.67-4.56 4.63-5.1 6.8-.5 1.96-.8 2.93-2.4 3.75-1.23.62-1.73 2.13-1.1 3.36.43.9 1.3 1.4 2.22 1.4zm83 14c.38 0 .76-.1 1.12-.27 3.72-1.88 4.46-4.84 5-7 .5-1.95.74-2.77 2.25-3.42 1.26-.55 1.7-.3 3.17.78 1.63 1.2 4.35 3.2 8.53 1.1 3.63-1.83 4.46-4.6 5.06-6.6.54-1.8.84-2.8 2.85-3.64 2.13-.9 3.3-.37 5.06.42 1.88.84 4.45 2 7.8.4 3.47-1.63 4.05-4.68 4.43-6.7.4-2.04.58-2.7 2.03-3.2 1.42-.48 2.1-.1 3.66.9 1.9 1.22 4.74 3.06 9.17.83 4.23-2.12 4.46-5.43 4.62-7.62.14-1.9.18-2.5 1.83-3.17 2.14-.88 3.33-.42 5.1.27 2.16.83 4.85 1.88 8.93.3 5.53-2.12 6.28-6.38 6.7-8.67a15.04 15.04 0 0 1 .15-.77c.77-.72 1.02-1.88.55-2.88-.6-1.25-2.08-1.78-3.33-1.2-1.73.82-2.04 2.57-2.3 3.97-.34 1.93-.66 3.76-3.56 4.87-2.28.87-3.5.4-5.33-.3-2.15-.83-4.83-1.86-8.8-.23-4.52 1.86-4.76 5.2-4.92 7.44-.13 1.88-.2 2.66-1.88 3.5-1.88.94-2.56.5-4.22-.57-1.68-1.08-4.2-2.7-7.98-1.43-4.27 1.45-4.9 4.8-5.33 7-.37 1.93-.58 2.6-1.65 3.1-1.23.58-1.96.3-3.64-.45-2.07-.93-4.9-2.2-9.03-.47-4.18 1.75-5.06 4.68-5.7 6.82-.5 1.7-.8 2.7-2.53 3.57-1.44.72-1.88.4-3.32-.66-1.66-1.22-4.17-3.06-8.12-1.33-3.82 1.67-4.56 4.63-5.1 6.8-.5 1.96-.8 2.93-2.4 3.75-1.23.62-1.73 2.13-1.1 3.36.43.9 1.3 1.4 2.22 1.4z"/><path d="M384.64 490.18c.38 0 .76-.1 1.12-.27 3.72-1.88 4.46-4.84 5-7 .5-1.95.74-2.77 2.25-3.42 1.26-.55 1.7-.3 3.17.78 1.63 1.2 4.35 3.2 8.53 1.1 3.63-1.83 4.46-4.6 5.06-6.6.54-1.8.84-2.8 2.85-3.64 2.13-.9 3.3-.37 5.06.42 1.88.84 4.45 2 7.8.4 3.47-1.63 4.05-4.68 4.43-6.7.4-2.04.58-2.7 2.03-3.2 1.42-.48 2.1-.1 3.66.9 1.9 1.22 4.74 3.06 9.17.83 4.23-2.12 4.46-5.43 4.62-7.62.14-1.9.18-2.5 1.83-3.17 2.14-.88 3.32-.42 5.1.27 2.16.83 4.85 1.88 8.93.3 5.53-2.12 6.28-6.38 6.7-8.67a15.04 15.04 0 0 1 .15-.77c.77-.72 1.02-1.88.55-2.88-.6-1.25-2.08-1.8-3.33-1.2-1.73.82-2.04 2.57-2.3 3.97-.34 1.93-.66 3.76-3.56 4.87-2.28.87-3.5.4-5.33-.3-2.15-.83-4.83-1.86-8.8-.23-4.52 1.86-4.76 5.2-4.92 7.44-.13 1.88-.2 2.66-1.88 3.5-1.88.94-2.56.5-4.22-.57-1.68-1.08-4.2-2.7-7.98-1.43-4.27 1.45-4.9 4.8-5.33 7-.37 1.93-.58 2.6-1.65 3.1-1.23.58-1.96.3-3.64-.45-2.07-.93-4.9-2.2-9.03-.47-4.18 1.75-5.06 4.68-5.7 6.82-.5 1.7-.8 2.7-2.53 3.57-1.44.73-1.88.4-3.32-.66-1.66-1.22-4.17-3.06-8.12-1.33-3.82 1.67-4.56 4.63-5.1 6.8-.5 1.96-.8 2.93-2.4 3.75-1.23.62-1.73 2.13-1.1 3.36.43.9 1.3 1.4 2.22 1.4zm-10.28-250.7s-27.03 78.27-7.24 156.18l-19.8 18.28s-28.67-75.37 0-166.95l27.04-7.5z"/></g><path d="M346.76 416.38c-.8-.2-1.47-.77-1.76-1.54-.3-.78-7.32-19.48-10.9-49.73-3.3-27.88-4.1-71.13 10.85-118.86.25-.8.9-1.43 1.72-1.66l27.03-7.52a2.49 2.49 0 0 1 2.49.7 2.5 2.5 0 0 1 .54 2.53c-.27.78-26.56 78.45-7.18 154.75.23.9-.05 1.83-.73 2.45l-19.8 18.28a2.5 2.5 0 0 1-1.7.66c-.2.01-.38-.02-.57-.06zm23.85-173.26l-21.3 5.92c-24 78-5.9 144.62-.85 160.46l15.88-14.67c-16.46-66.7 1-134.04 6.26-151.7z" class="F"/><path d="M478 266.33l-91.33-32.66-29.34 8 93.4 39.62z" class="H"/><path d="M449.74 283.6l-93.4-39.62a2.51 2.51 0 0 1-1.52-2.47c.07-1.06.8-1.96 1.84-2.24l29.33-8c.5-.13 1.02-.1 1.5.06L478.83 264c.93.33 1.57 1.18 1.65 2.16a2.5 2.5 0 0 1-1.29 2.39L451.9 283.5c-.37.2-.8.3-1.2.3a2.82 2.82 0 0 1-.97-.21zm-63.18-47.3l-21.62 5.9 85.63 36.33 21.34-11.7-85.35-30.53z" class="F"/><path d="M453.33 216.4L316 263.67s-21.33 3.33-14.67-14L438 203s20.67 3.47 15.33 13.4z" class="H"/><path d="M299.2 261.36c-2.15-3.13-2.22-7.36-.2-12.6.27-.7.82-1.23 1.53-1.47l136.67-46.67c.4-.13.8-.17 1.22-.1 1.44.24 14.2 2.56 17.5 9.3.83 1.68 1.43 4.4-.37 7.76a2.49 2.49 0 0 1-1.39 1.18l-137.33 47.27a3.01 3.01 0 0 1-.43.11c-.08.01-1.87.3-4.27.3h0c-6.18-.01-10.65-1.76-12.92-5.07zm152.3-46.97c.4-1.13.16-1.87-.08-2.36-1.57-3.2-8.7-5.6-13.23-6.46l-134.9 46.07c-1 3.06-1 5.37.05 6.88 1.73 2.52 6.25 2.9 8.8 2.9 1.57 0 2.83-.14 3.3-.2L451.5 214.4z" class="F"/><path d="M419.5 370.5l-126.25 61.05 10.73 26.23 123.8-61.33z" class="G"/><path d="M303.1 460.1c-.65-.25-1.17-.75-1.43-1.4l-10.73-26.23c-.5-1.22.04-2.62 1.22-3.2l126.25-61.05c.65-.32 1.4-.33 2.08-.05.67.3 1.17.85 1.4 1.54l8.3 25.96a2.49 2.49 0 0 1-1.27 3l-123.8 61.33c-.35.17-.73.26-1.1.26-.3-.01-.6-.06-.9-.17zM418 374l-121.54 58.78 8.82 21.57 119.48-59.18L418 374z" class="F"/><use xlink:href="#B" class="G"/><path d="M301.45 457.95a2.5 2.5 0 0 1-.24-1.98c.2-.67.66-1.22 1.3-1.53l16.26-8.05c1.18-.6 2.6-.15 3.27 1 4.02 6.93 16.46 30 7.98 36.1a5.71 5.71 0 0 1-3.4 1.08c-9.06 0-22.55-22.16-25.16-26.6zm5.7-.23c6.72 10.9 15.62 21.83 19.45 21.83.25 0 .38-.07.5-.15 3.03-2.18-1.78-15.78-8.24-27.5l-11.7 5.8z" class="F"/><use xlink:href="#B" x="17.37" y="-8.38" class="G"/><use xlink:href="#C" class="F"/><path d="M339.56 439.1s17.64 30 24.94 24.76-8.68-32.8-8.68-32.8l-16.26 8.05z" class="G"/><path d="M337.4 440.36a2.5 2.5 0 0 1-.24-1.98c.2-.67.66-1.22 1.3-1.53l16.26-8.05c1.18-.6 2.6-.15 3.27 1 4.02 6.93 16.46 30 7.98 36.1a5.71 5.71 0 0 1-3.4 1.08c-9.05 0-22.55-22.16-25.16-26.6zm5.7-.24c6.72 10.9 15.62 21.84 19.46 21.84.25 0 .38-.07.5-.15 3.04-2.18-1.78-15.78-8.24-27.5l-11.7 5.8z" class="F"/><use xlink:href="#B" x="53.33" y="-25.98" class="G"/><path d="M354.78 431.98a2.5 2.5 0 0 1-.24-1.98c.2-.67.66-1.22 1.3-1.53l16.26-8.05c1.18-.58 2.6-.15 3.27 1 4.02 6.93 16.46 30 7.98 36.1a5.71 5.71 0 0 1-3.4 1.08c-9.06 0-22.55-22.16-25.16-26.6zm5.7-.23c6.72 10.9 15.62 21.83 19.45 21.83.25 0 .38-.07.5-.15 3.03-2.18-1.78-15.78-8.24-27.5l-11.7 5.8z" class="F"/><use xlink:href="#B" x="70.7" y="-34.35" class="G"/><use xlink:href="#C" x="53.33" y="-25.97" class="F"/><use xlink:href="#B" x="89.3" y="-43.56" class="G"/><path d="M390.73 414.4a2.5 2.5 0 0 1-.24-1.98c.2-.67.66-1.22 1.3-1.53l16.26-8.05c1.18-.6 2.6-.15 3.27 1 4.02 6.93 16.46 30 7.98 36.1a5.71 5.71 0 0 1-3.4 1.08c-9.05 0-22.55-22.16-25.16-26.6zm5.7-.24c6.72 10.9 15.62 21.83 19.45 21.83.25 0 .38-.07.5-.15 3.04-2.18-1.78-15.78-8.24-27.5l-11.7 5.8z" class="F"/><path d="M410.26 404.74s17.64 30 24.94 24.76-8.68-32.8-8.68-32.8l-16.26 8.05z" class="G"/><path d="M408.1 406a2.5 2.5 0 0 1-.24-1.98c.2-.66.66-1.22 1.3-1.53l16.26-8.05c1.18-.6 2.6-.15 3.27 1 4.02 6.93 16.46 30 7.98 36.1a5.72 5.72 0 0 1-3.4 1.09c-9.06-.01-22.55-22.17-25.16-26.6zm5.7-.24c6.72 10.9 15.62 21.84 19.46 21.84.25 0 .38-.07.5-.15 3.03-2.18-1.78-15.78-8.24-27.5l-11.7 5.8z" class="F"/><path d="M771.72 466.08l-34.94 24.3 26.42 66.6s2.9 11.82-1.64 18.17c-4.53 6.36-21.13 25.66-21.13 25.66l-18.9-19.97 12.25-23.66-39.86-85.24s2.57-19.13 10.16-33.63c7.6-14.5 14.53-37.76 14.53-37.76l53.1 65.53z" class="G"/><path d="M738.62 602.38l-18.9-19.8a2.5 2.5 0 0 1-.4-2.87l11.7-22.56L691.68 473c-.2-.43-.28-.92-.2-1.4.1-.8 2.7-19.74 10.43-34.46 7.4-14.12 14.28-37.08 14.35-37.3.26-.9 1-1.56 1.9-1.74a2.51 2.51 0 0 1 2.43.88l53.08 65.52c.44.54.63 1.24.53 1.92-.1.7-.48 1.3-1.05 1.7l-33.3 23.15 25.7 64.76c.04.1.08.2.1.3.13.53 3.1 12.97-2.03 20.18-4.55 6.38-20.6 24.97-21.27 25.76-.46.54-1.13.7-1.84.7h-.06c-.68 0-1.34-.12-1.8-.62zm-4.16-111.1c-.43-1.08-.06-2.3.9-2.97l32.73-22.75-48.45-59.8c-2.42 7.53-7.64 22.88-13.32 33.72-6.5 12.4-9.25 28.54-9.8 32.1l39.54 84.56c.33.7.3 1.52-.04 2.2l-11.44 22.08 15.76 16.66c4.4-5.17 15.65-18.4 19.2-23.38 3.1-4.35 2-12.85 1.28-15.97l-26.35-66.45z" class="F"/><path d="M1012.75 470.6l7.83 82.46s-.98 16-5.97 21.52l13.4 67.46-27.53.58s-10.08-25.44-13.22-43.53c0 0-15-40.68-38.96-58.5-23.95-17.83 64.44-70 64.44-70z" class="I"/><path d="M998.16 643.47c-.4-1.04-10.13-25.62-13.32-43.74-1.2-3.12-15.8-40.62-38.03-57.16-3.56-2.65-5.33-6.25-5.1-10.4.53-9.88 12.54-23.66 35.7-40.96 16.9-12.62 33.9-22.67 34.06-22.77.73-.43 1.64-.46 2.4-.07a2.5 2.5 0 0 1 1.35 1.99l7.83 82.46c.01.13.01.26.01.4-.1 1.63-1.07 15.45-5.8 22l13.18 66.32a2.5 2.5 0 0 1-.5 2.04c-.46.58-1.16.9-1.9.9l-27.58.53c-1.03-.01-1.95-.58-2.33-1.54zm14-68.42c-.15-.78.07-1.58.6-2.16 3.56-3.94 5.03-15.44 5.32-19.8l-7.44-78.3c-20.3 12.4-63.08 41.7-63.93 57.66-.13 2.5.85 4.46 3.1 6.13 10.22 7.6 20.04 19.97 29.16 36.74 6.75 12.4 10.5 22.48 10.65 22.9.05.14.1.3.12.44 2.6 15.04 10.22 35.57 12.46 41.42l22.8-.48-12.84-64.54z" class="F"/><path d="M1036.7 422.3s-7.46 12.48-10.85 27.44c-3.38 14.96-9.32 51.5-22.92 57.22-13.6 5.7-9.66 31.48-24.55 37.96-14.9 6.47-37.27-6.55-51.33-6.82-14.06-.28-71.32-5.98-87-10.15s-84.17-25.65-109.45-63.9-56.72-64.96-56.72-64.96-92.93-35.44-86.77-86.72 29.53-87.14 100.5-85.8 99.5 33.94 131.56 33.53S947.6 243.04 981 296s55.7 126.3 55.7 126.3z" class="G"/><path d="M944.76 544.35c-6.6-1.94-12.83-3.65-17.75-3.75-14.96-.3-71.83-6.05-87.6-10.23-3.37-.9-82.75-22.36-110.9-64.94-23.45-35.48-52.62-61.28-55.94-64.16-3.26-1.3-25-10.1-45.8-24.24-30.2-20.54-44.8-43-42.15-64.95 3.4-28.37 11.85-49.06 25.82-63.26 16.4-16.68 40.4-24.8 73.38-24.8l3.83.04c42.3.8 69.62 12.54 91.58 21.97 15.02 6.46 26.9 11.56 39.33 11.56h.57c4.83-.06 11.22-.5 18.62-1 11.48-.8 25.76-1.78 40.78-1.78 53.44 0 87.65 13.05 104.58 39.88 33.2 52.65 55.76 126.15 56 126.9.2.67.12 1.4-.25 2-.07.12-7.3 12.3-10.55 26.7l-1.36 6.34c-3.94 18.76-9.88 47.1-23.03 52.6-5.6 2.35-7.84 9.27-10.22 16.62-2.65 8.22-5.66 17.48-14.3 21.24-3.1 1.35-6.6 1.9-10.63 1.9h0c-7.76-.01-16.02-2.32-24-4.66zm34.12-247c-15.94-25.27-48.77-37.55-100.35-37.55-14.84 0-29.03.98-40.43 1.77-7.47.52-13.93.96-18.9 1.03h-.64c-13.47 0-26.37-5.54-41.3-11.96-21.56-9.26-48.38-20.8-89.7-21.57l-3.73-.04c-31.56 0-54.4 7.62-69.8 23.3-13.16 13.38-21.15 33.12-24.42 60.35-5.86 48.75 84.27 83.73 85.18 84.08.26.1.5.24.73.43.32.27 32 27.37 57.18 65.48 27.1 41 104.72 61.98 108 62.85 15.13 4 72.02 9.75 86.42 10.04 5.58.1 12.13 1.97 19.06 4 7.65 2.24 15.56 4.45 22.58 4.45h0c3.35 0 6.17-.4 8.64-1.48 6.57-2.85 8.98-10.22 11.53-18.13 2.62-8.1 5.32-16.5 13.04-19.73 10.73-4.5 16.8-33.47 20.07-49.04l1.38-6.43c2.92-12.94 8.73-23.9 10.57-27.2-2.84-9.07-24.4-75.94-55.1-124.65z" class="F"/><path d="M937.65 478l-38.76 20.8 7.23 67.76s4.2 26.3-11.57 36.66-43.08 37.5-43.08 37.5l-30.84-3.46s28.9-35.7 43.42-49.16c0 0 7-15.4 2.1-20.8s-33.55-56.94-33.55-56.94-7.47-13.65-1.56-23.14l42.34-67.52" class="G"/><path d="M851.48 643.23a2.48 2.48 0 0 0 1.76-.73c.27-.27 27.3-27.1 42.7-37.2 7.1-4.66 11.52-12.96 12.8-24 .9-7.77-.02-14.27-.14-15.06l-7.05-66.07 37.27-19.96c1.22-.65 1.68-2.16 1.03-3.38s-2.16-1.68-3.38-1.03l-38.85 20.85a2.5 2.5 0 0 0-1.22 2.42l7.23 67.76c0 .04.01.1.02.13.04.25 3.75 24.83-10.47 34.17-14.43 9.48-37.78 32.23-42.6 37l-25.1-2.8c7.68-9.35 28.74-34.66 40.28-45.35a2.57 2.57 0 0 0 .58-.8c.8-1.73 7.53-17.08 1.67-23.53-3.88-4.26-25.3-42.2-33.2-56.47-.06-.1-6.68-12.5-1.63-20.6l42.34-67.5a2.51 2.51 0 0 0-.79-3.45 2.51 2.51 0 0 0-3.45.79l-42.35 67.53c-6.6 10.6 1.16 25.05 1.5 25.66 2.95 5.3 28.92 51.95 33.9 57.42 2.56 2.8.23 11.84-2.32 17.64-14.58 13.66-42.12 47.62-43.3 49.07-.57.7-.72 1.68-.37 2.52a2.54 2.54 0 0 0 2.03 1.54l30.84 3.46c.1 0 .2.01.3.01z" class="F"/><path d="M719.74 422.04s.95 48.07-24.96 76.76c-25.9 28.7-27.97 36.88-27.97 36.88l23.87 77.1-15.64 24.93-26.63-.35 10.52-28.87s-2.18-11.2-5.5-19.64-37-73.84-37-73.84-11.3-16.8-2.08-27.5 15.83-20.58 15.83-20.58 6.16-15.84-5.88-33.65c0 0-36.08-76.53-37.2-110.7" class="I"/><path d="M675.03 640c.86 0 1.66-.34 2.12-1.07l15.64-24.88c.4-.62.5-1.35.27-2.04l-23.62-76.27c.96-2.23 5.8-11.56 27.2-35.26 26.28-29.1 25.64-76.48 25.6-78.5-.03-1.38-1.16-2.44-2.55-2.45-1.38.03-2.48 1.17-2.45 2.55.01.47.62 47.43-24.32 75.04-25.6 28.34-28.3 37.04-28.54 37.94a2.48 2.48 0 0 0 .04 1.35l23.53 76-14.3 22.77-21.7-.3 9.32-25.56c.16-.43.2-.9.1-1.34-.1-.47-2.26-11.52-5.62-20.08-3.32-8.46-35.72-71.4-37.1-74.07-.04-.1-.1-.17-.15-.25-.1-.15-10.1-15.35-2.26-24.5 9.2-10.7 15.94-20.72 16-20.82.1-.15.2-.32.25-.5.27-.7 6.45-17.18-6.03-35.8-1.9-4.05-35.8-77.05-36.9-109.54-.05-1.38-1.18-2.45-2.58-2.42a2.51 2.51 0 0 0-2.42 2.58c.48 14.45 6.94 37.66 19.2 69 9.1 23.2 18.16 42.5 18.25 42.7.05.12.12.23.2.33 10.45 15.46 6.4 29.06 5.7 31.1-1.08 1.6-7.27 10.55-15.48 20.1-10 11.63.64 28.62 1.8 30.4l36.83 73.48c2.73 6.96 4.7 16.02 5.23 18.54L646 636.43a2.5 2.5 0 0 0 .29 2.28c.46.67 1.2.97 2.02.98l26.66.27zM457.3 288.68s-13.96.57-27.43 16.86-28.82 21.54-34.34 16.66c0 0 .53-10.88-6.05-11.67S378 305.17 378 305.17s-1.8 23.25 11.57 23.73l3.27.58s14.95 4.68 28.55-6.66 24.96-15.34 24.96-15.34 8.4-16.76 10.94-18.8z" class="F"/><path d="M598.66 509.67L562 531.26l21.33 68.4s2 12-3 18-23 24-23 24L540 620.33l14-22.67-33.33-88s4-18.88 12.67-32.77 17.33-36.56 17.33-36.56l48 69.34z" class="I"/><path d="M557.2 644.16a2.49 2.49 0 0 1-1.81-.92l-17.33-21.33a2.5 2.5 0 0 1-.19-2.89l13.35-21.62-32.9-86.85c-.17-.45-.2-.94-.1-1.4.17-.8 4.2-19.48 13-33.58 8.44-13.52 17.03-35.9 17.12-36.13.33-.87 1.1-1.48 2.04-1.6a2.49 2.49 0 0 1 2.36 1.06l48 69.33a2.48 2.48 0 0 1 .39 1.96c-.15.68-.57 1.26-1.17 1.62l-34.96 20.58 20.74 66.52c.03.1.06.22.08.33.1.54 2.12 13.2-3.54 20-5.02 6.02-22.42 23.43-23.15 24.17-.47.47-1.1.73-1.77.73a.33.33 0 0 1-.14 0zM559.6 532c-.35-1.1.12-2.3 1.12-2.9l34.35-20.22-43.8-63.28c-2.98 7.33-9.34 22.24-15.82 32.62-7.4 11.87-11.37 27.76-12.18 31.27l33.07 87.3c.28.73.2 1.54-.2 2.2l-13.07 21.16 14.46 17.8c4.8-4.82 17-17.2 20.9-21.87 3.42-4.1 2.97-12.66 2.48-15.83L559.6 532z" class="F"/><path d="M849.48 531.26l-22.7 79.66s-6.72 14.8-13.4 18.12L801.34 691H775s.34-31.08 4-49.08c0 0 .82-43.48-15-68.8-15.82-25.32 85.5-41.87 85.5-41.87z" class="G"/><path d="M773.22 692.26c-.47-.47-.73-1.12-.72-1.8.01-1.26.4-31.02 4-49.07.03-3.33.05-43.6-14.63-67.08-2.35-3.76-2.7-7.76-.97-11.55 4.1-9 20.3-17.48 48.16-25.16 20.33-5.6 39.8-8.8 40-8.82a2.49 2.49 0 0 1 2.27.81 2.51 2.51 0 0 1 .54 2.35l-22.7 79.66c-.04.12-.08.25-.13.36-.7 1.5-6.64 14.03-13.42 18.4l-11.83 60.6c-.23 1.17-1.26 2.02-2.45 2.02H775a2.52 2.52 0 0 1-1.78-.74zm37.7-63.96c.15-.76.64-1.4 1.34-1.76 4.75-2.37 10.3-12.55 12.16-16.5L846 534.38c-23.4 4.16-73.93 15.9-80.52 30.45-1.04 2.3-.83 4.46.65 6.84 6.76 10.8 11.4 25.9 13.8 44.84 1.78 14.02 1.6 24.75 1.6 25.2 0 .15-.02.3-.05.45-2.97 14.6-3.73 38.13-3.9 45.84h21.73l11.65-59.7z" class="F"/><path d="M873.38 470.45S865 482.33 860.5 497s-13.17 50.67-27.17 55.33c-14 4.67-12 30.67-27.33 36s-36.67-9.33-50.67-10.67c-14-1.33-70.67-11.33-86-16.67-15.33-5.33-82-31.92-104.33-71.96C542.67 449 513.33 420 513.33 420s-90-42.33-80-93 36-84.67 106.67-78 96.67 41.33 128.67 43.33 129.33-7.33 158.67 48c29.32 55.34 46.04 130.12 46.04 130.12z" class="G"/><path d="M772.5 585.34c-6.43-2.43-12.5-4.72-17.4-5.2-14.9-1.42-71.17-11.44-86.58-16.8-3.3-1.14-80.84-28.53-105.7-73.1-20.72-37.14-47.86-65.06-50.95-68.2-3.16-1.53-24.16-11.95-43.84-27.6-28.58-22.75-41.43-46.25-37.15-67.94 5.14-26.03 14.05-45.04 27.26-58.1 15.45-15.3 36.7-22.74 64.97-22.74 5.42 0 11.18.28 17.12.84 42.12 3.97 68.48 17.74 89.67 28.8 14.7 7.67 26.3 13.74 38.92 14.52 4.82.3 11.23.34 18.64.4 20.98.13 49.72.32 76.68 6.38 32.28 7.27 54.28 21.58 65.4 42.55 29.15 55 46.1 130 46.28 130.74.15.7.01 1.4-.4 2-.08.12-8.2 11.75-12.54 25.84l-1.83 6.23c-5.34 18.4-13.4 46.24-26.93 50.75-5.76 1.92-8.52 8.68-11.44 15.83-3.26 8-6.96 17.06-15.86 20.16-2.48.86-5.25 1.3-8.22 1.3h0c-8.43.01-17.4-3.38-26.1-6.65zm52.62-243.84c-10.55-19.9-30.85-32.98-62.08-40-26.43-5.95-54.85-6.13-75.6-6.26l-18.92-.4c-13.68-.86-26.3-7.45-40.92-15.08-20.8-10.86-46.68-24.38-87.82-28.26-5.8-.55-11.4-.82-16.66-.82-49.9 0-76.84 23.7-87.32 76.82-9.5 48.17 77.73 89.84 78.6 90.25.26.12.5.28.7.48.3.3 29.84 29.7 52.1 69.6 23.94 42.93 99.76 69.7 102.97 70.8 14.78 5.14 71.08 15.17 85.42 16.54 5.56.53 11.94 2.94 18.7 5.48 8.26 3.1 16.8 6.33 24.33 6.33h0c2.45 0 4.6-.33 6.58-1.02 6.76-2.35 9.73-9.62 12.87-17.32 3.22-7.9 6.55-16.04 14.5-18.7 11.04-3.68 19.28-32.12 23.7-47.4l1.86-6.3c3.9-12.68 10.5-23.2 12.6-26.32-2.16-9.26-18.6-77.57-45.58-128.44z" class="F"/><path d="M752.08 511s-9.5 12.12-12.16 14.8l24.04 63.77s10.7 24.64-1.98 38.64-37.3 51.8-37.3 51.8H699s19-42.08 29.66-58.75c0 0 2.92-16.8-3.2-20.8s-46.8-46.73-46.8-46.73-10.67-11.37-7.33-22.03l24-76.02" class="G"/><path d="M699 682h25.67c.84 0 1.63-.42 2.1-1.13.25-.37 24.68-37.55 37.07-51.25 5.7-6.3 7.9-15.44 6.36-26.47-1.08-7.75-3.6-13.8-3.92-14.54l-23.48-62.26c3.54-4 10.9-13.37 11.25-13.82a2.5 2.5 0 1 0-3.94-3.08c-2.6 3.34-9.86 12.46-11.96 14.56a2.5 2.5 0 0 0-.57 2.65l24.04 63.77a.61.61 0 0 0 .05.12c.1.23 9.88 23.1-1.54 35.7-11.57 12.78-32.52 44.25-36.8 50.73H702.9c4.82-10.42 19.22-41.14 27.87-54.65.18-.28.3-.6.36-.92.33-1.87 3-18.43-4.3-23.2-4.83-3.15-35.1-34.5-46.35-46.3-.08-.1-9.6-10.4-6.76-19.53l24-76c.42-1.32-.3-2.72-1.63-3.14-1.32-.4-2.72.3-3.14 1.63l-24 76c-3.73 11.92 7.42 23.95 7.9 24.46 4.2 4.4 41.06 43 47.25 47.05 3.2 2.08 3.2 11.4 2.2 17.66-10.68 16.88-28.8 56.68-29.56 58.38a2.51 2.51 0 0 0 .17 2.39c.46.72 1.25 1.15 2.1 1.15z" class="F"/><path d="M557.33 446.33s-2.67 48-30.67 74.67S496 555.67 496 555.67l18 78.67L496 665l-26-9.33 12.67-28s-1.33-11.33-4-20-31.33-76.4-31.33-76.4-10-17.6 0-27.6 17.33-19.33 17.33-19.33 7.33-15.33-3.33-34c0 0-30.2-79.03-28.77-113.18" class="G"/><path d="M496 667.5c.87 0 1.7-.45 2.16-1.23l18-30.67c.32-.55.42-1.2.28-1.82l-17.8-77.85c1.12-2.15 6.65-11.1 29.77-33.12 28.4-27.04 31.33-74.34 31.44-76.34a2.49 2.49 0 0 0-2.36-2.63c-1.38-.06-2.56.98-2.64 2.36-.03.47-2.96 47.34-29.9 73-27.65 26.33-31.02 34.8-31.3 35.7a2.58 2.58 0 0 0-.07 1.35l17.78 77.7-16.45 28.02-21.5-7.72 11.55-25.53c.2-.4.26-.87.2-1.32-.05-.47-1.4-11.66-4.1-20.44-2.67-8.7-30.25-73.88-31.42-76.65-.04-.1-.08-.18-.13-.26-.1-.16-8.93-16.07-.4-24.6 10-10 17.46-19.46 17.53-19.56a2.47 2.47 0 0 0 .29-.47c.32-.67 7.73-16.65-3.32-36.15-1.58-4.18-29.9-79.53-28.54-112 .06-1.38-1-2.54-2.4-2.6-1.36-.1-2.54 1-2.6 2.4-.6 14.45 4.1 38.08 13.96 70.24 7.3 23.83 14.9 43.75 14.98 43.94.05.12.1.24.16.35 9.26 16.2 4.2 29.46 3.35 31.45a248.16 248.16 0 0 1-16.95 18.88c-10.85 10.85-1.52 28.58-.48 30.46l31.2 76.05c2.2 7.16 3.5 16.33 3.82 18.88l-12.38 27.36c-.3.64-.3 1.36-.02 2 .27.64.8 1.14 1.46 1.38l26 9.33c.27.08.55.13.84.13z" class="F"/><path d="M1051.05 277.45L694.1 384.9s-30.84 11.17-33.33-25.13l363.16-106.25c0 .01 29.95-6.78 27.13 23.93z" class="J"/><path d="M658.26 359.95c-.08-1.17.67-2.24 1.8-2.57l363.16-106.25c.05-.01.1-.03.15-.04.13-.03 3.13-.7 7.2-.7 5.3 0 12.7 1.16 17.76 6.7 4.3 4.7 6.05 11.63 5.23 20.6a2.51 2.51 0 0 1-1.77 2.17l-356.9 107.43c-.65.23-5.22 1.75-10.93 1.75h0c-8.84 0-23.93-3.78-25.67-29.08zm386.36-99.5c-3.82-4.2-9.76-5.07-14.07-5.07-3.16 0-5.6.48-6.02.56L663.42 361.6c1.53 14.88 8.42 22.43 20.5 22.43 5.13 0 9.27-1.46 9.3-1.47.04-.02.1-.03.13-.04l355.32-106.96c.35-6.68-1-11.75-4.07-15.1z" class="F"/><path d="M762.32 373.76s-8.74 122.4 96.97 127.32l-9.13 28.15s-114.5 13.52-117.32-148.85l29.48-6.62z" class="I"/><path d="M778.63 509.07c-31-25.22-47.25-68.5-48.3-128.66a2.49 2.49 0 0 1 1.95-2.48l29.5-6.62a2.53 2.53 0 0 1 2.18.54c.6.52.92 1.28.86 2.07-.04.6-3.82 59.12 28.6 95.6 15.97 17.98 38.18 27.75 66 29.04.78.04 1.5.43 1.94 1.07s.56 1.45.32 2.2L852.53 530c-.3.93-1.12 1.6-2.08 1.7-.1.01-2.53.3-6.63.3h0c-11.14 0-39.76-2.23-65.2-22.93zm77.28-5.7c-27.7-1.96-49.97-12.22-66.24-30.53-29.64-33.35-30.38-82.64-30-95.94l-24.3 5.45C738.5 516.53 819.1 527 843.8 527a76.64 76.64 0 0 0 4.48-.13l7.62-23.5z" class="F"/><path d="M933.32 317.76s-8.74 122.4 96.97 127.32l-9.13 28.15s-114.5 13.52-117.32-148.85l29.48-6.62z" class="I"/><path d="M949.63 453.07c-31-25.22-47.25-68.5-48.3-128.66a2.49 2.49 0 0 1 1.95-2.48l29.5-6.62a2.53 2.53 0 0 1 2.18.54c.6.52.92 1.28.86 2.07-.04.6-3.82 59.12 28.6 95.6 15.97 17.98 38.18 27.75 66 29.04.78.04 1.5.43 1.94 1.07s.56 1.45.32 2.2l-9.13 28.15c-.3.93-1.12 1.6-2.08 1.7-.1.01-2.53.3-6.63.3h0c-11.15.03-39.77-2.2-65.2-22.9zm77.28-5.7c-27.7-1.96-49.97-12.22-66.24-30.53-29.64-33.35-30.38-82.64-30-95.94l-24.3 5.45C909.5 460.53 990.1 471 1014.8 471a76.64 76.64 0 0 0 4.48-.13l7.62-23.5z" class="F"/><path d="M878.22 320.37s-4.16 5.74 3.12 13.65 25.92 5.7 35.1-8c9.17-13.72 3.8-43.27-2-44.68-5.8-1.42-8.85 38.72-36.22 39.04z" class="G"/><path d="M879.5 335.7c-8.57-9.3-3.52-16.5-3.3-16.8a2.49 2.49 0 0 1 2-1.03c16.8-.2 23.66-17.2 28.2-28.44 2.68-6.63 4.3-10.64 7.75-10.64.3 0 .6.04.9.1 2.23.54 4.07 2.74 5.6 6.72 3.88 9.97 5.35 30.58-2.13 41.77-6.75 10.1-17.37 13.7-25.06 13.7-5.82-.01-10.78-1.9-13.96-5.37zm31.53-44.4c-4.6 11.4-12.24 30.3-31.2 31.5-.5 1.6-.77 5.03 3.36 9.5 2.2 2.38 5.94 3.75 10.27 3.75 6.4 0 15.25-3 20.9-11.46 5.48-8.2 5.47-23.62 2.67-33.97-1.04-3.82-2.14-5.72-2.76-6.48-.88 1.32-2.17 4.5-3.23 7.14z" class="F"/><path d="M913.44 368.88l-29.53-39.72s-8.84-15.45-23.86-9.58c-15.02 5.88-29.4 14.4-42.38 13.24-12.97-1.17-20.5 8.84-27.9 17.86s-19.5 29.47-17.17 48 37.27 48.95 43.32 55.9 33.2 7.92 39.25 14.88 25.2 27.97 39.2 29.02c14 1.05 42.75-8.87 43.07-17.92 0 0 4.16-14.55-7.68-23.37s-21.35-33.47-21.62-38.56c-.25-5.1 20.92-28.77 5.3-49.77z" class="G"/><g class="F"><path d="M894.18 500.98c-13.87-1.04-31.57-19.16-40.9-29.87-2.5-2.87-10.9-4.88-18.32-6.65-8.94-2.13-17.38-4.14-20.93-8.23-1.14-1.3-3.46-3.6-6.4-6.5-12.42-12.24-35.55-35.03-37.52-50.75-2.43-19.36 10-40.48 17.72-49.9l.96-1.18c6.77-8.3 14.44-17.7 26.82-17.7.75 0 1.5.03 2.27.1.72.07 1.48.1 2.23.1 8.6 0 18.05-4.15 28.06-8.54l10.95-4.63c2.55-1 5.12-1.5 7.62-1.5 11.64 0 18.38 10.6 19.23 12.02l29.45 39.62c12.66 17.03 3 35.53-2.2 45.48-1.14 2.18-2.56 4.9-2.6 5.64.24 4.64 9.42 28.36 20.6 36.7 12.27 9.14 9.24 23.5 8.67 25.77-.9 11.03-29.1 20.1-43.38 20.1-.82-.01-1.6-.03-2.35-.1zM860.96 321.9c-3.6 1.4-7.25 3-10.76 4.55-10.5 4.6-20.43 8.96-30.07 8.96a29.37 29.37 0 0 1-2.68-.12 22.55 22.55 0 0 0-1.82-.08c-10 0-16.3 7.7-22.95 15.86l-.97 1.2c-15.34 18.72-17.67 37.8-16.63 46.1 1.76 14 24.93 36.84 36.07 47.8 3 2.97 5.4 5.32 6.66 6.77 2.5 2.87 10.9 4.88 18.32 6.65 8.94 2.13 17.38 4.15 20.93 8.23 14.78 16.98 28.8 27.5 37.5 28.16a24.77 24.77 0 0 0 1.98.07c14.86 0 38.2-9.47 38.4-15.58a2.9 2.9 0 0 1 .09-.59c.15-.53 3.5-13.03-6.77-20.68-12.5-9.3-22.3-34.5-22.62-40.44-.1-1.95 1.13-4.3 3.17-8.2 5.02-9.6 13.4-25.67 2.62-40.18l-29.53-39.72c-.06-.08-.1-.16-.16-.24-.06-.1-5.7-9.66-14.98-9.66-1.87-.02-3.83.37-5.8 1.14z"/><path d="M886.16 487.84c2.42-6.95-4.38-11.43 2.23-15.17 6.62-3.74 20.76-3.68 29.9-6.38 5.3-1.56 9.2-5.77 11.53-9.04 11.74 8.83 7.6 23.3 7.6 23.3-.32 9.05-29.07 18.97-43.07 17.92-3.03-.23-6.3-1.4-9.62-3.14.25-2.68.68-5.36 1.42-7.5z"/></g><path d="M901.26 493.1a2.47 2.47 0 0 0 1.73-.7 2.51 2.51 0 0 0 .07-3.54c-2.4-2.48-4.72-5.4-5-6.27-.25-1.36-1.56-2.2-2.9-1.96-1.36.25-2.24 1.6-2 2.95.45 2.4 4.13 6.5 6.3 8.75.5.5 1.15.77 1.8.77z" class="H"/><path d="M907.15 416c1.4 0 2.5-.9 2.5-2.3-.1-12.85 4.8-15.97 4.84-16 1.2-.67 1.6-2.12.94-3.33s-2.22-1.6-3.43-.92c-.76.42-7.45 4.4-7.34 20.28 0 1.36 1.12 2.26 2.5 2.26zm-73.2-8.3c6.94 7.76 21.07 11.4 21.07 11.4s-.76 1.7-10.94 2.23l-6.63-3-3.5-10.62zm18.4-3.37a2.46 2.46 0 0 0 1.65-.62 2.51 2.51 0 0 0 .22-3.53c-.4-.45-9.77-10.96-18.82-8.73-1.34.33-2.16 1.68-1.83 3.02s1.68 2.16 3.02 1.83c5.08-1.25 11.74 4.76 13.88 7.18a2.47 2.47 0 0 0 1.88.85z" class="F"/><path d="M800.78 335.45s4.6 5.4-2.04 13.85-25.4 7.72-35.62-5.24c-10.22-12.96-7.17-42.83-1.5-44.7 5.67-1.86 11.85 37.92 39.17 36.1z" class="I"/><path d="M761.16 345.6c-8.34-10.57-8.48-31.23-5.4-41.47 1.23-4.1 2.9-6.43 5.07-7.14.38-.12.77-.2 1.17-.2 3.27 0 5.15 3.77 8.26 10 5.38 10.8 13.58 27.28 30.34 26.15.8-.04 1.56.27 2.07.87.24.28 5.83 7.06-1.97 17.02-3.25 4.15-8.93 6.52-15.6 6.52h0c-9.2-.01-18.14-4.4-23.95-11.77zm37.8-7.6c-18.73 0-27.77-18.14-33.17-28.97-1.26-2.54-2.8-5.6-3.78-6.85-.6.84-1.53 2.8-2.25 6.67-1.98 10.53-.8 25.9 5.32 33.65 4.87 6.17 12.36 9.86 20.03 9.86 5.1 0 9.35-1.68 11.65-4.6 3.77-4.8 3.23-8.2 2.6-9.75h-.4z" class="F"/><path d="M783.2 354.8s-39.62-1.48-60.72 31.97c0 0 48.57 28.27 60.72-31.97z" class="G"/><path d="M721.2 388.92c-.6-.34-1-.9-1.17-1.57s-.05-1.36.3-1.93c19.9-31.55 55.2-33.15 62.08-33.15l.85.01c.73.03 1.42.38 1.87.95.45.58.63 1.32.5 2.04-6.77 33.56-24.76 40.6-38.66 40.6-13.64.02-25.28-6.66-25.77-6.95zm4.88-3.1c3.86 1.83 12 5.08 20.88 5.08 16.76 0 27.88-11.28 33.1-33.55-9.6.43-37 3.87-53.98 28.47z" class="F"/><path d="M780.65 364.62s-40.7 10.3-57.15 20.56" class="G"/><path d="M723.5 387.68a2.46 2.46 0 0 0 1.32-.38c15.94-9.94 56.04-20.16 56.44-20.26a2.5 2.5 0 1 0-1.23-4.85c-1.68.42-41.26 10.52-57.86 20.86a2.5 2.5 0 0 0-.8 3.44 2.51 2.51 0 0 0 2.13 1.19z" class="F"/><path d="M1044.57 267.36s-4.64 5.36 1.93 13.87 25.33 7.92 35.65-4.96 7.5-42.78 1.86-44.68c-5.64-1.9-12.14 37.82-39.44 35.77z" class="I"/><path d="M1044.53 282.76c-7.73-10-2.1-16.75-1.84-17.03.52-.6 1.28-.9 2.08-.86.6.05 1.23.07 1.83.07 15.5 0 23.46-15.63 28.72-25.98 3.15-6.2 5.05-9.95 8.3-9.95.4 0 .8.07 1.2.2 2.17.73 3.8 3.08 5 7.18 3 10.27 2.7 30.93-5.72 41.44-5.8 7.25-14.72 11.58-23.83 11.58-6.76 0-12.5-2.43-15.76-6.65zm35.23-41.53c-5.52 10.86-14.83 29.13-33.83 28.7-.64 1.53-1.22 4.9 2.55 9.77 2.27 2.95 6.68 4.7 11.8 4.7 7.6 0 15.06-3.63 19.93-9.7 6.17-7.7 7.48-23.06 5.58-33.6-.7-3.9-1.64-5.88-2.2-6.7-1 1.24-2.54 4.3-3.83 6.83z" class="F"/><path d="M1075.5 318.73l-26-42.12s-7.48-16.16-22.95-11.6c-15.46 4.56-30.54 11.82-43.36 9.54s-21.2 7.04-29.33 15.4-21.96 27.68-21.25 46.35c.72 18.67 32.9 51.98 38.35 59.43 5.43 7.45 32.4 10.75 37.83 18.2s22.7 30.03 36.55 32.28 43.35-5.16 44.45-14.15c0 0 5.4-14.14-5.64-23.94s-18.4-35.2-18.2-40.28c.17-5.1 23.3-26.84 9.56-49.1z" class="G"/><g class="F"><path d="M1044.92 448.68c-13.73-2.23-29.8-21.8-38.17-33.28-2.24-3.08-10.45-5.8-17.68-8.2-8.72-2.9-16.96-5.63-20.14-10-1.02-1.4-3.13-3.87-5.8-7-11.32-13.27-32.4-37.96-33-53.8-.75-19.5 13.45-39.47 21.95-48.2l1.06-1.1c7-7.22 14.96-15.4 26.2-15.4 1.4 0 2.85.13 4.3.4a27.06 27.06 0 0 0 4.69.39c7.96 0 16.83-3 26.22-6.2l11.3-3.67c2.05-.6 4.1-.9 6.08-.9 12.68 0 19 12.13 19.77 13.7l25.93 42c11.15 18.06-.08 35.66-6.1 45.12-1.32 2.07-2.97 4.65-3.1 5.4-.16 4.64 6.95 29.06 17.38 38.33 11.44 10.16 7.2 24.2 6.42 26.42-1.78 10.64-28 16.44-41.16 16.44-2.28 0-4.34-.15-6.14-.44zm-17.67-181.26c-3.72 1.1-7.48 2.37-11.1 3.6-9.8 3.32-19.04 6.46-27.83 6.46-1.93 0-3.8-.16-5.57-.47-1.16-.2-2.3-.3-3.42-.3-9.12 0-15.98 7.06-22.6 13.9l-1.07 1.1c-16.9 17.33-20.86 36.13-20.54 44.5.54 14.1 21.67 38.85 31.82 50.74 2.75 3.22 4.9 5.76 6.05 7.3 2.24 3.08 10.44 5.8 17.68 8.2 8.72 2.9 16.96 5.63 20.15 10 13.26 18.2 26.32 29.9 34.93 31.3 1.53.25 3.32.38 5.33.38 15.25 0 35.58-6.93 36.24-12.36.02-.2.07-.4.14-.58.2-.5 4.6-12.68-4.96-21.2-11.65-10.34-19.26-36.3-19.05-42.24.07-1.95 1.5-4.2 3.87-7.9 5.82-9.13 15.57-24.42 6.07-39.8l-26-42.12a2.15 2.15 0 0 1-.14-.26c-.05-.1-5.2-10.96-15.3-10.96-1.5 0-3.08.24-4.68.7z"/><path d="M1038.07 434.9c3-6.72-3.38-11.76 3.53-14.92s21-1.88 30.35-3.78c5.43-1.1 9.66-4.96 12.26-8 10.94 9.8 5.57 23.87 5.57 23.87-1.1 9-30.6 16.4-44.45 14.15-3-.5-6.15-1.93-9.3-3.96.46-2.66 1.12-5.3 2.05-7.35z"/></g><path d="M1052.87 441.44c.55 0 1.1-.18 1.57-.56 1.07-.87 1.24-2.44.37-3.52-2.17-2.68-4.24-5.8-4.44-6.68-.14-1.37-1.36-2.34-2.73-2.2-1.37.14-2.37 1.4-2.23 2.77.24 2.42 3.56 6.84 5.52 9.26a2.46 2.46 0 0 0 1.94.94z" class="H"/><path d="M1065.34 365.6c1.3 0 2.4-1 2.5-2.3 1.02-12.8 6.15-15.6 6.2-15.64 1.26-.57 1.8-2.03 1.23-3.3-.57-1.26-2.08-1.8-3.34-1.24-.8.36-7.82 3.96-9.08 19.78a2.5 2.5 0 0 0 2.29 2.69c.07-.01.13 0 .2 0zm-72.4-15.02c6.25 8.33 20 13.16 20 13.16s-.9 1.64-11.1 1.28l-6.35-3.56-2.57-10.88zm18.82-1.78c.52 0 1.04-.16 1.48-.5 1.1-.82 1.35-2.38.53-3.5-.35-.48-8.78-11.76-18-10.32-1.36.2-2.3 1.5-2.1 2.85a2.51 2.51 0 0 0 2.86 2.09c5.2-.8 11.3 5.75 13.2 8.34a2.47 2.47 0 0 0 2.01 1.03z" class="F"/><path d="M966.12 275.73s4.12 5.77-3.22 13.62-25.96 5.5-35.03-8.3-3.46-43.3 2.35-44.66c5.8-1.36 8.53 38.8 35.9 39.33z" class="I"/><path d="M925.78 282.28c-7.4-11.25-5.76-31.7-1.8-41.63 1.58-3.97 3.44-6.16 5.67-6.68.28-.07.57-.1.86-.1 3.46 0 5.05 4.02 7.7 10.7 4.46 11.28 11.2 28.32 27.98 28.64.8.02 1.53.36 2 1 .22.3 5.2 7.46-3.43 16.7-3.17 3.4-8.07 5.1-13.8 5.1h0c-7.76 0-18.44-3.5-25.16-13.72zm7.76-35.88c-1.04-2.64-2.3-5.8-3.17-7.15-.66.78-1.76 2.67-2.82 6.44-2.88 10.32-3.02 25.74 2.4 34 4.64 7.06 12.88 11.63 20.98 11.63 4.33 0 7.93-1.3 10.14-3.67 4.17-4.47 3.92-7.9 3.44-9.5-18.96-1.34-26.45-20.3-30.97-31.75z" class="F"/><path d="M946.93 293.48s-39.35-4.9-63.25 26.62c.01.01 45.96 32.35 63.25-26.62z" class="G"/><path d="M882.25 322.15a2.5 2.5 0 0 1-1.03-1.66c-.1-.67.07-1.35.48-1.9 19.1-25.17 47.87-27.9 59.35-27.9 3.8 0 6.1.28 6.2.3.73.1 1.38.5 1.78 1.1a2.5 2.5 0 0 1 .31 2.08c-5 17-15.73 37.27-38.6 37.27-15.1 0-27.95-8.93-28.5-9.3zm58.8-26.44c-10.4 0-35.95 2.37-53.66 23.76 4.1 2.4 13.3 7 23.35 7 15.15 0 26.2-10.33 32.88-30.7-.75-.03-1.6-.05-2.57-.05z" class="F"/><path d="M943.56 303.05s-41.43 6.76-58.7 15.56" class="G"/><path d="M884.85 321.12c.38 0 .77-.1 1.13-.27 16.73-8.52 57.57-15.26 57.98-15.32a2.51 2.51 0 0 0 2.07-2.87c-.22-1.36-1.5-2.3-2.87-2.06-1.7.28-42 6.92-59.44 15.8-1.23.63-1.72 2.13-1.1 3.36a2.48 2.48 0 0 0 2.22 1.36z" class="F"/><path d="M541.33 358.67s4 31-10 52.33" class="G"/><path d="M531.33 413.5c.8 0 1.6-.4 2.1-1.13 14.34-21.86 10.56-52.72 10.4-54.03-.18-1.37-1.4-2.34-2.8-2.16a2.5 2.5 0 0 0-2.16 2.8c.04.3 3.7 30.35-9.6 50.64a2.49 2.49 0 0 0 .72 3.46 2.4 2.4 0 0 0 1.37.42z" class="F"/><path d="M531.6 365.73s1.72 17.6-4.95 30.1" class="G"/><path d="M526.66 398.33a2.51 2.51 0 0 0 2.21-1.32c6.94-13.02 5.3-30.77 5.23-31.52-.13-1.37-1.36-2.38-2.73-2.24a2.51 2.51 0 0 0-2.25 2.73c.02.17 1.56 17-4.67 28.68-.65 1.22-.2 2.73 1.03 3.38a2.57 2.57 0 0 0 1.18.29z" class="F"/><path d="M670.7 440.25s3.48 36.94 13.78 47.75" class="I"/><path d="M684.47 490.5a2.52 2.52 0 0 0 1.73-.69c1-.95 1.04-2.54.08-3.53-7.96-8.35-12.16-36.22-13.1-46.26-.13-1.38-1.33-2.37-2.72-2.25a2.5 2.5 0 0 0-2.25 2.72c.15 1.54 3.68 37.94 14.46 49.24.48.5 1.14.77 1.8.77z" class="F"/><g class="J"><path d="M276.5 198l13.54 66.92s6.8 21.76-19.55 24.76l-94 10.82-17 26.3s-16.5-31.86-13-62.86L243 252l-10-55 43.5 1z"/><path d="M298.04 192s-21.04 39.1-39 28.4-64.55-36.65-64.55-36.65l22.78-31.22L298.04 192z"/></g><g class="F"><path d="M283.76 52.3c-.23-.7-5.45-17.5 2.88-31.47 5.07-8.52 14-14.04 26.52-16.4 2.7-.5 5.34-.77 7.84-.77 28.33 0 34.28 32.22 34.33 32.54.23 1.3-.62 2.58-1.92 2.87L286.68 54c-.18.04-.37.06-.55.06-1.05 0-2.03-.7-2.37-1.74zM321 8.67c-2.2 0-4.52.23-6.92.68-11.04 2.08-18.82 6.8-23.13 14.02-5.56 9.3-4 20.53-3 25.2l61.9-13.83c-1.84-6.78-8.84-26.08-28.86-26.08z"/><path d="M273.58 69.8c16.22 0 39.63-4.98 43.1-5.74.15-.03 17.86-3.67 35.1-8.5C378 48.2 388.2 42.7 386.95 36.6c-.55-2.7-2.06-4.82-4.5-6.32-8.83-5.43-27.5-.54-29.6.04-1.33.37-2.1 1.74-1.75 3.07a2.49 2.49 0 0 0 3.07 1.75c5.13-1.4 19.73-4.25 25.65-.6 1.25.77 1.95 1.74 2.22 3.06-.04.1-1.27 4.76-33.1 13.56-16.58 4.58-33.13 8-33.3 8.02-17.1 3.73-46.52 8.12-52.86 4.03-.25-.16-.56-.4-.6-.66-.26-1.24-.04-2.33.7-3.44 3.02-4.47 12.98-7.05 16.56-7.66 1.36-.23 2.27-1.53 2.04-2.9s-1.52-2.27-2.88-2.04c-1.53.26-15.1 2.76-19.86 9.78-1.5 2.22-2 4.74-1.46 7.3.23 1.07.9 2.6 2.8 3.82 2.7 1.75 7.62 2.4 13.5 2.4zm10.87-27.73a2.74 2.74 0 0 0 .56-.06l64.36-14.67a2.49 2.49 0 0 0 1.88-3 2.49 2.49 0 0 0-2.99-1.88L283.9 37.13a2.49 2.49 0 0 0-1.88 3c.26 1.16 1.3 1.95 2.43 1.95z"/><path d="M331.9 104.5c1.97 0 4.06-.2 6.3-.6 19.3-3.62 20.4-27.54 18.3-39.7a2.5 2.5 0 0 0-2.89-2.03 2.51 2.51 0 0 0-2.04 2.89c.05.3 5 30.3-14.28 33.92-17.25 3.23-24.98-9.83-25.05-9.96-.7-1.2-2.22-1.6-3.4-.92-1.2.7-1.6 2.22-.92 3.4.07.13 7.66 12.98 24 12.98zm-29.4-6.3a2.35 2.35 0 0 0 .69-.1 2.5 2.5 0 0 0 1.72-3.09l-2.46-8.6a2.52 2.52 0 0 0-.46-.89l-2.8-3.44c-1.3-3.45-2-7.5-1.42-8.45.13-.02.5-.04 1.24.18l2.2 1.33c.87.52 1.96.47 2.78-.13.8-.6 1.18-1.63.94-2.62l-2-8a2.5 2.5 0 0 0-3.03-1.82 2.5 2.5 0 0 0-1.82 3.03l.77 3.08c-2.38-.3-3.83.57-4.68 1.47-3.34 3.54-.45 11.7.5 14.13.1.23.22.45.38.65l2.72 3.34 2.32 8.1a2.46 2.46 0 0 0 2.38 1.83z"/><path d="M286.5 65s.22 20.75 12.3 23c0 0-4.62-9-3.7-14s4.96-2.48 4.96-2.48l-1.25-7.85L286.5 65zm48.2 22.57c.22 0 .45-.03.67-.1l6.32-1.76a2.55 2.55 0 0 0 1.69-1.57 2.5 2.5 0 0 0-.32-2.28l-5.32-7.47a2.51 2.51 0 0 0-3.49-.59 2.51 2.51 0 0 0-.59 3.49l3.25 4.57-2.9.8c-1.33.37-2.1 1.75-1.74 3.08.32 1.1 1.32 1.8 2.42 1.8zM320.17 76.2a6.65 6.65 0 0 0 1.72-.22c3.44-.9 4.8-4.22 4.94-4.6.5-1.3-.15-2.73-1.43-3.23a2.5 2.5 0 0 0-3.22 1.41c-.03.06-.6 1.34-1.6 1.6-.88.22-2.22-.35-3.76-1.6-1.07-.87-2.65-.7-3.52.36s-.7 2.64.36 3.52c2.26 1.83 4.44 2.76 6.5 2.76zm29-6a6.65 6.65 0 0 0 1.72-.22c3.44-.9 4.8-4.22 4.94-4.6.5-1.3-.15-2.73-1.43-3.23s-2.72.14-3.22 1.4c-.03.06-.6 1.34-1.6 1.6-.88.22-2.22-.35-3.76-1.6-1.07-.87-2.65-.7-3.52.36s-.7 2.65.36 3.52c2.26 1.83 4.44 2.76 6.5 2.76z"/></g><path d="M384.93 177.36l-8.23-13.22-25.75-43.84s-9.5-9.95-20.9-.75c-11.4 9.2-.33 22.96-.33 22.96l31.25 47.33s6.16 10.55 16.7 13.33c10.55 2.8 32.54 9.33 32.54 9.33s12.66 7.85 17.9 5.53 13.17 2.62 13.17 2.62-4.14-11.86-10.63-12c0 0 12.27 3.58 15.82 7.54 0 0 .16-11.1-9.52-13 0 0 11.24 2.46 13.94 5.4 0 0-1.7-3.45-4.42-6.5-2.1-2.34-4.77-4.44-7.74-4.56 0 0 13.1.8 6.46-2.68s-12.2-4.32-18.35-2.22l-5-.17-36.95-15.1z" class="H"/><path d="M440 222.78c-1.28-.8-5.32-2.86-8.64-2.86-.85 0-1.6.14-2.2.4-.96.42-2.1.64-3.36.64-6.07 0-14.67-5-16.6-6.15l-32.16-9.22c-11.1-2.93-17.58-13.4-18.2-14.42L327.7 144c-4.36-5.48-9.7-17.9.78-26.38 3.67-2.96 7.56-4.46 11.57-4.46 7.43 0 12.5 5.2 12.7 5.43.13.14.25.3.35.46l25.7 43.8 7.8 12.53 35.8 14.63 4.1.14c6.5-2.1 12.43-1.36 19.87 2.52 1.03.54 3.77 1.97 3.14 4.53-.27 1.1-1.04 1.8-2.1 2.24.32.32.64.66.96 1.02 2.9 3.26 4.72 6.9 4.8 7.06.55 1.1.2 2.46-.83 3.17-1.03.7-2.4.55-3.25-.36-.28-.3-.78-.64-1.47-1 1.05 2.56 1.4 5.14 1.4 6.94-.02 1.03-.66 1.94-1.62 2.3a2.5 2.5 0 0 1-2.74-.68c-.53-.6-1.44-1.26-2.67-1.97 1 1.97 1.57 3.56 1.7 3.93.35 1 .03 2.1-.8 2.78-.45.36-1 .55-1.56.55-.45-.03-.9-.15-1.3-.4zm-3.92-7.12c-.95-1.48-2.08-2.86-3.3-3.7-1.64-.56-2.78-.9-2.8-.9-1.2-.35-1.96-1.54-1.77-2.78s1.25-2.14 2.53-2.12c1.44.03 2.85.46 4.22 1.26 3.08 1.07 5.7 2.15 7.82 3.23-.93-2.02-2.57-4-5.45-4.8l-.87-.2c-1.34-.3-2.2-1.6-1.9-2.95s1.58-2.2 2.93-1.95a11.17 11.17 0 0 1 1.02.24c1.47.35 3.06.77 4.64 1.25-1.27-1.12-2.8-2.1-4.3-2.2l-.2-.01a2.5 2.5 0 0 1-2.35-2.62 2.49 2.49 0 0 1 2.6-2.37l.2.01c.1 0 .22.01.38.02-4.2-1.42-7.78-1.43-11.77-.06-.3.1-.6.15-.9.13l-5-.17c-.3-.01-.6-.07-.86-.18L384 179.7a2.54 2.54 0 0 1-1.18-.99l-8.26-13.27-25.58-43.55c-.82-.76-4.3-3.7-8.9-3.7-2.84 0-5.68 1.13-8.43 3.35-9.3 7.5-.33 18.97.05 19.45a1.33 1.33 0 0 1 .14.19l31.25 47.33c.02.04.05.08.07.1.06.1 5.8 9.7 15.2 12.18 10.47 2.76 32.4 9.3 32.62 9.35.2.06.42.15.6.27 2.5 1.55 9.95 5.58 14.25 5.58.7 0 1.12-.12 1.34-.2 1.25-.55 2.67-.83 4.22-.83 1.6-.02 3.22.28 4.7.72z" class="F"/><path d="M383.84 175.62l-20.07 18.05-13.37-15.43 23.9-17.96z" class="H"/><path d="M363.6 196.16c-.67-.04-1.3-.35-1.73-.86l-13.37-15.43a2.52 2.52 0 0 1-.6-1.9c.07-.7.43-1.32 1-1.73l23.9-17.95c.56-.42 1.28-.6 1.96-.46.7.13 1.3.54 1.66 1.14l9.54 15.34a2.5 2.5 0 0 1-.45 3.18l-20.08 18.04c-.46.4-1.06.64-1.67.64-.05 0-.1 0-.16-.01zm10-32.24l-19.58 14.7L364 190.1l16.62-14.94-7-11.25z" class="F"/><path d="M305.1 101l7.9 23.5 19.36-17L341 111c10.5 7-3.16 28.5-3.16 28.5l-37.8 51.5L216 154.5s18.5-28.5 32.5-48S278.34 88 278.34 88l16.74 3.78" class="H"/><path d="M300.04 193.5c.78 0 1.53-.36 2.02-1.02l37.8-51.5c.03-.04.06-.1.1-.14.6-.96 14.84-23.66 2.44-31.92a3.21 3.21 0 0 0-.45-.24l-8.65-3.5a2.52 2.52 0 0 0-2.59.44l-16.53 14.52-6.7-19.94c-.44-1.3-1.85-2-3.17-1.57a2.5 2.5 0 0 0-1.57 3.17l7.9 23.5c.27.8.9 1.4 1.72 1.62a2.48 2.48 0 0 0 2.3-.54l18.2-15.98 6.97 2.82c7.62 5.5-3.3 23.7-4.04 24.9l-36.57 49.8-79.5-34.53c4.8-7.35 19.4-29.52 30.82-45.43 12.3-17.14 25.7-17.5 27.5-17.47l16.5 3.73c1.34.3 2.7-.54 3-1.9s-.54-2.68-1.9-3l-16.74-3.78a2.63 2.63 0 0 0-.39-.06c-.7-.04-17.4-.86-32.03 19.54-13.87 19.32-32.38 47.8-32.57 48.1a2.51 2.51 0 0 0-.3 2.08 2.48 2.48 0 0 0 1.4 1.57l84.04 36.5a2.48 2.48 0 0 0 .99.21z" class="F"/><path d="M298.04 192l-3.08-18.58-8.47-60.92s-6-15.52-23-10.5-11 25.5-11 25.5l13 67.36s2 14.64 12.5 22.64 32.04 25.5 32.04 25.5 10.52 14.63 17.46 14.48c6.94-.16 13.5 9.02 13.5 9.02s.87-15.17-6.32-18.33c0 0 12.06 9.68 14.18 15.76 0 0 5.32-12.33-4.63-18.92 0 0 11.42 7.95 13.08 12.48 0 0-.3-4.65-1.93-9.3-1.25-3.58-3.27-7.17-6.53-8.68 0 0 14.28 6.95 8.46 0s-11.63-10.48-19.48-10.98l-5.5-2.5-34.3-34.02z" class="H"/><path d="M338.98 267.96c-1.6-2.22-6.74-7.98-11.3-7.98h-.3c-7.58 0-16.9-12.13-19.18-15.24l-31.73-25.24c-10.92-8.32-13.26-22.9-13.45-24.22l-12.97-67.2c-2.3-7.96-2.54-24 12.73-28.5 2.47-.73 4.88-1.1 7.17-1.1 13.64 0 18.66 12.57 18.87 13.1a2.19 2.19 0 0 1 .14.56l8.46 60.86 2.94 17.78 33.42 33.12 4.68 2.13c8.04.63 14.46 4.3 20.77 11.84.87 1.04 2.7 3.22 1.7 5.37-.3.62-1.32 2.14-4.1 1.76a28.52 28.52 0 0 1 .93 2.34c1.72 4.93 2.05 9.77 2.06 9.97.08 1.24-.76 2.35-1.98 2.6a2.5 2.5 0 0 1-2.86-1.58c-.27-.74-1.06-1.78-2.24-3.03.26 3.8-.6 7.37-1.58 9.6-.4.95-1.38 1.56-2.38 1.5-1.03-.04-1.93-.7-2.27-1.67-.45-1.28-1.58-3-3.27-4.98.44 3.66.28 6.64.27 6.87-.06 1.06-.78 1.96-1.8 2.26a2.42 2.42 0 0 1-.7.1c-.8-.02-1.55-.4-2.03-1.06zm-5.86-17.84c-.98-.8-1.22-2.17-.57-3.25.65-1.07 2-1.5 3.14-1 1.52.67 2.85 1.76 3.95 3.24 2.7 2.4 5.78 5.4 8.15 8.34.2-3.14-.52-7-4.1-9.77-.54-.4-.87-.62-.88-.63-1.12-.78-1.4-2.32-.64-3.46a2.51 2.51 0 0 1 3.45-.68c.38.25.73.5 1 .72 2 1.46 4.22 3.16 6.25 4.92-.92-2.5-2.5-5.53-4.9-6.73l-.2-.1a2.5 2.5 0 0 1-1.16-3.32c.6-1.24 2.06-1.77 3.3-1.2l.22.1c1.07.5 2.14.98 3.13 1.38-4.8-5-9.6-7.33-15.6-7.7a2.48 2.48 0 0 1-.88-.22l-5.5-2.5a2.39 2.39 0 0 1-.72-.5l-34.3-34a2.56 2.56 0 0 1-.71-1.37l-3.08-18.64-8.42-60.6c-.7-1.56-4.7-9.67-14.1-9.67-1.8 0-3.74.3-5.76.9-14.38 4.24-9.52 21.67-9.3 22.4l.06.23 13 67.36c.01.04.02.1.02.13.02.14 2.02 13.74 11.54 21 10.4 7.93 31.9 25.37 32.1 25.55.17.14.32.3.45.48 4.02 5.58 11.42 13.44 15.37 13.44h.23c4.03 0 7.75 2.34 10.52 4.77-.36-2.62-1.05-5.37-2.3-7.28-1.63-1.4-2.77-2.34-2.8-2.34z" class="F"/><path d="M297.64 189.56l-30.8 10.86-7.8-23.43 35.03-9z" class="H"/><path d="M265.75 202.67a2.51 2.51 0 0 1-1.27-1.46l-7.8-23.43c-.22-.66-.15-1.38.18-2s.9-1.05 1.57-1.22l35.03-9a2.46 2.46 0 0 1 1.99.33 2.48 2.48 0 0 1 1.1 1.69l3.55 21.56c.2 1.2-.5 2.36-1.63 2.76l-30.8 10.86c-.27.1-.55.14-.83.14-.4 0-.77-.08-1.1-.25zm26.3-31.57l-29.8 7.65 6.14 18.47 26.42-9.32-2.77-16.8z" class="F"/><path d="M214 155.5l-21.5 27.25s-7 16.75-2 33.25S235 390.5 235 390.5s10.05 6.48 22.5 10c13.27 3.75 29 4.57 29 4.57l-14-27.57L237.74 215 250 195.67" class="J"/><path d="M254.14 294.18a2.46 2.46 0 0 0 .53-.06 2.5 2.5 0 0 0 1.92-2.97l-16.2-75.68L252.1 197c.74-1.17.4-2.7-.77-3.45s-2.7-.4-3.45.77l-12.26 19.33a2.48 2.48 0 0 0-.33 1.86l16.4 76.68c.25 1.2 1.3 2 2.44 2zm-42.78 4.86c.2 0 .4-.02.62-.08a2.5 2.5 0 0 0 1.81-3.04l-10.57-41.5a2.5 2.5 0 0 0-3.04-1.8 2.5 2.5 0 0 0-1.8 3.04l10.56 41.5c.3 1.14 1.3 1.9 2.42 1.9z" class="F"/><path d="M265.55 346l6.95 32 14 27.32s-15.73-.94-29-4.7c-12.45-3.52-22.5-9.56-22.5-9.56L223.6 346h41.96z" class="G"/><path d="M286.36 407.7c-.65-.04-16.16-.93-29.54-4.72-12.65-3.58-22.72-9.8-23.14-10.06-.55-.34-.94-.88-1.1-1.5l-11.4-45.28a2.51 2.51 0 0 1 .45-2.15c.47-.6 1.2-.96 1.97-.96h41.96c1.18 0 2.2.82 2.44 1.97l6.88 31.93 13.85 27.15c.4.8.36 1.75-.13 2.5-.46.7-1.25 1.14-2.1 1.14-.05-.01-.1-.01-.14-.01zM226.8 348l10.38 41.16c2.64 1.53 11.1 6.2 21 9 8.66 2.45 18.5 3.66 24.06 4.18l-11.97-23.46c-.1-.2-.17-.4-.22-.6L263.53 348H226.8z" class="F"/><path d="M272.5 377.75l-17.46 3.92" class="G"/><path d="M255.04 384.17c.18 0 .37-.02.55-.06l17.46-3.92a2.5 2.5 0 1 0-1.1-4.88l-17.46 3.92a2.5 2.5 0 0 0-1.89 2.99c.26 1.16 1.3 1.95 2.44 1.95z" class="F"/><path d="M146.75 263.92l44.75-6.73 10 40.53-24.75 2.78-17 26.3s-16.5-31.87-13-62.87z" class="G"/><path d="M159.63 329.28a2.5 2.5 0 0 1-2.1-1.35c-.7-1.33-16.8-32.9-13.26-64.3.13-1.12 1-2.02 2.1-2.2l44.75-6.73c1.28-.2 2.5.62 2.8 1.87l10 40.53c.17.7.04 1.44-.38 2.03-.4.6-1.06.97-1.78 1.05l-23.56 2.64-16.36 25.3a2.5 2.5 0 0 1-2.1 1.14c-.04.01-.08 0-.12 0zm30-69.28l-40.57 6.1c-1.97 22.98 7.03 46.4 11.06 55.53l14.55-22.5c.4-.62 1.07-1.04 1.8-1.12l21.93-2.48-8.77-35.54z" class="F"/><path d="M176.75 300.5l-7.42-11.82" class="G"/><path d="M176.75 303c.45 0 .9-.12 1.33-.38a2.52 2.52 0 0 0 .8-3.45l-7.42-11.82a2.52 2.52 0 0 0-3.45-.8c-1.17.72-1.52 2.28-.8 3.45l7.42 11.82a2.51 2.51 0 0 0 2.12 1.17zm145.3-163.5a2.31 2.31 0 0 0 .37-.03 2.53 2.53 0 0 0 2-1.65l10.3-29.5a2.498 2.498 0 0 0-4.72-1.64l-8.74 25.03-6.24-8.45a2.5 2.5 0 0 0-3.43-.57l-6.58 4.54V107a2.5 2.5 0 1 0-5 0v25a2.5 2.5 0 0 0 1.34 2.21c.82.43 1.82.37 2.58-.16l8.5-5.87 7.6 10.3a2.5 2.5 0 0 0 2.01 1.02z" class="F"/><path d="M313 124.75l-17.92 37.08" class="H"/><path d="M295.08 164.33c.93 0 1.82-.52 2.25-1.4l17.92-37.08c.6-1.24.08-2.74-1.16-3.34a2.5 2.5 0 0 0-3.34 1.16l-17.92 37.08c-.6 1.24-.08 2.74 1.16 3.34.36.17.73.25 1.1.25z" class="F"/><defs ><path id="B" d="M303.6 456.68s17.64 30 24.94 24.75c7.3-5.24-8.68-32.8-8.68-32.8l-16.26 8.06z"/><path id="C" d="M318.82 449.57a2.5 2.5 0 0 1-.24-1.98c.2-.67.66-1.22 1.3-1.53l16.26-8.05c1.18-.6 2.6-.15 3.27 1 4.02 6.93 16.46 30 7.98 36.1a5.71 5.71 0 0 1-3.4 1.08c-9.06 0-22.55-22.16-25.16-26.6zm5.7-.23c6.72 10.9 15.62 21.83 19.45 21.83.25 0 .38-.07.5-.15 3.04-2.18-1.78-15.78-8.24-27.5l-11.7 5.8z"/></defs></svg>