<svg xmlns="http://www.w3.org/2000/svg" xmlns:xlink="http://www.w3.org/1999/xlink" width="1984" height="729.028" xmlns:v="https://vecta.io/nano"><style><![CDATA[.O{fill:url(#A)}.P{fill:#eaefe8}.Q{fill:#dee5dc}.R{fill:#fff}.S{fill:url(#C)}.T{fill:#f2cd00}]]></style><defs><pattern id="A" width="204.843" height="204.842" patternUnits="userSpaceOnUse" viewBox="0 0 204.843 204.842"><path d="M0 0h204.843v204.842H0z" fill="none"/><path d="M0 0h204.843v204.842H0z" fill="#1d1d1b"/></pattern><pattern id="B" y="-256.972" width="204.843" height="204.842" patternUnits="userSpaceOnUse" viewBox="0 0 204.843 204.842"><path d="M0 0h204.843v204.842H0z" fill="none"/><path d="M0 0h204.843v204.842H0z" fill="#c67042"/></pattern><pattern id="C" width="204.843" height="204.842" patternUnits="userSpaceOnUse" viewBox="0 0 204.843 204.842"><path d="M0 0h204.843v204.842H0z" fill="none"/><path d="M0 0h204.843v204.842H0z" fill="#c67042"/></pattern><path id="D" d="M786.202 589.74a2 2 0 0 1-.538-3.927l253.44-70.932a2 2 0 0 1 1.078 3.852l-253.44 70.932a1.99 1.99 0 0 1-.54.075z"/></defs><g class="Q"><circle cx="610.679" cy="378.196" r="30.427" transform="matrix(.97071 -.240253 .240253 .97071 -72.9762 -99.1771)"/><path d="M587.404 78.58c0 8.948 5.4 17.016 13.657 20.44s17.783 1.532 24.11-4.795 8.22-15.843 4.796-24.11-11.492-13.658-20.44-13.658c-12.218 0-22.123 9.905-22.124 22.123z"/></g><g transform="translate(0 -256.972)" class="O"><path d="M609.8472,450a2.3328,2.3328,0,0,1-2.5-2.2871l-.3194-121.167A2.5318,2.5318,0,0,1,609.5215,324h.0063a2.6254,2.6254,0,0,1,2.5,2.6348l.3194,120.9931A2.3864,2.3864,0,0,1,609.8535,450Z"/><path d="M609.85 387.298a2.5 2.5 0 0 1-1.182-4.705l16.44-8.8a2.5 2.5 0 0 1 3.692 2.282 2.5 2.5 0 0 1-1.333 2.126l-16.44 8.8a2.49 2.49 0 0 1-1.178.297z"/><path d="M609.5293,350.27a2.4934,2.4934,0,0,1-1.9194-.8965l-12.9331-15.4687a2.5,2.5,0,1,1,3.8359-3.207l12.9331,15.4687a2.5,2.5,0,0,1-1.9165,4.1035Z"/></g><g class="Q"><path d="M537.61 92.037c-.001 23.88-19.358 43.236-43.237 43.235s-43.236-19.358-43.235-43.237S470.496 48.8 494.375 48.8s43.236 19.358 43.236 43.237z"/><path d="M527.448 31.438a31.44 31.44 0 0 1-53.668 22.231 31.44 31.44 0 0 1-6.815-34.261A31.44 31.44 0 0 1 496.01 0a31.44 31.44 0 0 1 31.438 31.438z"/></g><g transform="translate(0 -256.972)" class="O"><path d="M495.556 451h-.006a2.69 2.69 0 0 1-2.494-2.721l.454-172.453c-.02-1.445 1.063-2.67 2.5-2.826h.006a2.7 2.7 0 0 1 2.494 2.732l-.454 172.448a2.8 2.8 0 0 1-2.5 2.82z"/><path d="M495.554 360.89a2.49 2.49 0 0 1-1.178-.297l-23.362-12.507a2.5 2.5 0 1 1 2.36-4.408l23.362 12.507a2.5 2.5 0 0 1-1.182 4.705z"/><path d="M496.008 308.272a2.5 2.5 0 0 1-1.916-4.104l18.378-21.98a2.5 2.5 0 0 1 3.836 3.207l-18.378 21.98c-.475.57-1.178.898-1.92.897z"/></g><path d="M0 412.028v-253s1631.855 16.855 1850 235z" class="Q"/><path d="M0 412.028s984-204 1984-29v345l-1984 1z" class="P"/><path d="M400.755 616.737a2.5 2.5 0 0 1-.429-4.962c1.54-.27 156.53-27.207 384.668-43.403 133.986-9.513 266.63-13.52 394.233-11.9 159.527 2.02 311.6 12.88 451.996 32.275a2.5 2.5 0 1 1-.684 4.953c-140.2-19.368-292.056-30.21-451.376-32.23-127.47-1.613-259.968 2.386-393.815 11.89-227.883 16.18-382.62 43.07-384.158 43.34a2.44 2.44 0 0 1-.435.038z" transform="translate(0 -256.972)" class="O"/><path d="M1252.565 209.92l-102.338-25.69s-7.35-14.29 4.542-19.188l92.862 19.87s11.774 11.915 4.934 25z" class="R"/><path d="M1252.565 469.39a2.5 2.5 0 0 1-.608-.075l-102.338-25.7a2.5 2.5 0 0 1-1.615-1.281c-.173-.338-4.22-8.346-1.682-15.248a12.66 12.66 0 0 1 7.495-7.396c.467-.193.982-.24 1.476-.133l92.862 19.87c.476.102.913.34 1.255.688a31.11 31.11 0 0 1 5.531 8.32c3.06 6.765 3.005 13.544-.16 19.604a2.5 2.5 0 0 1-2.216 1.343zm-100.55-30.32l99.135 24.887c3.533-9.244-2.974-17.664-4.826-19.8l-91.28-19.53c-1.854.797-3.307 2.3-4.028 4.195-1.347 3.664.19 8.264 1 10.25z" transform="translate(0 -256.972)" class="O"/><path d="M1111 218.25v160.99l308 73.925V281.96l-308-63.71z" class="P"/><path d="M1419.5 712.637c-.196 0-.392-.023-.583-.07l-308-73.925a2.5 2.5 0 0 1-1.917-2.431v-160.99a2.5 2.5 0 0 1 3.007-2.448l308 63.71a2.5 2.5 0 0 1 1.993 2.448v171.205a2.5 2.5 0 0 1-2.5 2.5zM1114 634.24l303 72.725V540.968l-303-62.675z" transform="translate(0 -256.972)" class="O"/><path d="M1419 281.96l107.52-46.867.33 162.485L1419 453.165V281.96z" class="P"/><path d="M1419.5 712.637a2.5 2.5 0 0 1-2.5-2.5V538.932a2.5 2.5 0 0 1 1.499-2.291l107.27-46.867a2.5 2.5 0 0 1 3.501 2.284l.456 162.485a2.5 2.5 0 0 1-1.354 2.229l-107.725 55.587c-.355.183-.748.278-1.147.278zm2.5-172.07v165.466l102.72-53.004-.44-157.15z" transform="translate(0 -256.972)" class="O"/><path d="M1111.886 218.25l134.793-40.803 280.128 57.645-107.23 46.867-307.7-63.71z" class="P"/><g transform="translate(0 -256.972)" class="O"><path d="M1419.576 541.432a2.54 2.54 0 0 1-.507-.052l-307.7-63.71a2.5 2.5 0 0 1-.218-4.841l134.793-40.803c.398-.12.82-.14 1.228-.056l280.128 57.644a2.5 2.5 0 0 1 .497 4.74l-107.23 46.867a2.5 2.5 0 0 1-1.001.209zm-297.56-66.664l297.286 61.555 99.288-43.395-271.796-55.93z"/><path d="M1419.5 599.5c-.196 0-.39-.023-.58-.068l-307.614-73.5a2.5 2.5 0 1 1 1.162-4.863l306.76 73.296 103.213-48.634a2.5 2.5 0 1 1 2.131 4.523l-104.006 49.008c-.333.157-.697.238-1.065.238z"/><path d="M1419.5 659.53c-.186 0-.372-.02-.554-.062l-308-69.973a2.5 2.5 0 0 1 1.107-4.875l307.136 69.776 106.513-52.424a2.5 2.5 0 0 1 2.207 4.486l-107.307 52.814c-.343.17-.72.257-1.103.257z"/><path d="M1389,567.3271a8.5,8.5,0,1,1,8.5-8.5A8.51,8.51,0,0,1,1389,567.3271Zm0-12a3.5,3.5,0,1,0,3.5,3.5A3.5043,3.5043,0,0,0,1389,555.3271Z"/><path d="M1383,633.3271a8.5,8.5,0,1,1,8.5-8.5A8.51,8.51,0,0,1,1383,633.3271Zm0-12a3.5,3.5,0,1,0,3.5,3.5A3.5043,3.5043,0,0,0,1383,621.3271Z"/><path d="M1137,573.3271a8.5,8.5,0,1,1,8.5-8.5A8.51,8.51,0,0,1,1137,573.3271Zm0-12a3.5,3.5,0,1,0,3.5,3.5A3.5043,3.5043,0,0,0,1137,561.3271Z"/><path d="M1137,625.3271a8.5,8.5,0,1,1,8.5-8.5A8.51,8.51,0,0,1,1137,625.3271Zm0-12a3.5,3.5,0,1,0,3.5,3.5A3.5043,3.5043,0,0,0,1137,613.3271Z"/></g><path d="M1145.874 258.502l-102.338-25.7s-7.35-14.29 4.542-19.19l92.862 19.87s11.774 11.915 4.934 25.01z" class="R"/><path d="M1145.874 517.974a2.5 2.5 0 0 1-.608-.075l-102.338-25.7a2.5 2.5 0 0 1-1.615-1.281c-.173-.338-4.22-8.346-1.682-15.248 1.306-3.437 4.04-6.137 7.495-7.397.467-.193.982-.24 1.476-.133l92.862 19.87a2.5 2.5 0 0 1 1.255.688 31.11 31.11 0 0 1 5.531 8.32c3.06 6.765 3.005 13.544-.16 19.604a2.5 2.5 0 0 1-2.216 1.343zm-100.55-30.32l99.136 24.887c3.533-9.244-2.974-17.664-4.826-19.8l-91.28-19.53c-1.854.798-3.307 2.31-4.028 4.196-1.348 3.664.2 8.265 1 10.25z" transform="translate(0 -256.972)" class="O"/><path d="M1176 228.704s20.332-85.348 42.166-88.512 47.22 27.836 47.22 27.836l38.526-89.22s19.806-27.78 56.447-17.78 68.93 96.02 68.93 96.02 41.176 3.882 47.943 26.43 14.73 63.82 14.73 63.82l-72.387 31.66z" class="T"/><g transform="translate(0 -256.972)" class="O"><path d="M1333.98 436.92a2.5 2.5 0 0 1-2.409-1.838l-5.482-19.92c-.122-.444-.12-.913.008-1.356l.137-.478-.034.066a2.5 2.5 0 0 1-3.387 1.013c-2.46-1.326-14.812-8.245-16.442-14.183a5.03 5.03 0 0 1 .485-4.012 4.81 4.81 0 0 1 3.657-2.359c3.133-.35 7.155 2.228 10.38 4.865-.088-3.973.395-8.632 2.708-11.197a6.03 6.03 0 0 1 5.064-2.017 5.17 5.17 0 0 1 3.996 2.286c3.924 5.593-.245 21.986-1.566 26.718l5.296 19.247c.206.752.05 1.557-.424 2.178s-1.207.985-1.987.986zm-22.815-38.113c.045 1.307 4.78 6.212 14.023 11.2a2.5 2.5 0 0 1 1.307 2.382c2.388-8.824 3.818-19.24 2.074-21.726-.112-.16-.143-.162-.234-.17-.382-.064-.77.08-1.018.376-1.83 2.026-1.6 9.378-.852 13.71a2.5 2.5 0 0 1-4.267 2.152c-4.07-4.235-9.196-7.93-10.928-7.93-.035 0-.07.001-.104.005z"/><path d="M1235.98 469.92a2.5 2.5 0 0 1-2.409-1.838l-5.482-19.92c-.122-.444-.12-.913.008-1.356l.137-.478-.034.066c-.657 1.214-2.172 1.667-3.387 1.013-2.46-1.326-14.812-8.245-16.442-14.183a5.03 5.03 0 0 1 .485-4.012 4.81 4.81 0 0 1 3.657-2.359c3.138-.35 7.156 2.227 10.38 4.865-.088-3.973.395-8.632 2.708-11.197a6.04 6.04 0 0 1 5.063-2.017 5.17 5.17 0 0 1 3.996 2.286c3.924 5.593-.245 21.986-1.566 26.718l5.296 19.247c.206.752.05 1.557-.424 2.178s-1.207.985-1.987.986zm-22.815-38.113c.045 1.307 4.78 6.212 14.023 11.2a2.5 2.5 0 0 1 1.307 2.382c2.388-8.824 3.818-19.24 2.074-21.726-.112-.16-.143-.162-.234-.17a1.09 1.09 0 0 0-1.018.376c-1.83 2.026-1.6 9.378-.852 13.71a2.5 2.5 0 0 1-4.267 2.152c-4.16-4.326-9.437-8.112-11.032-7.924z"/><path d="M1320.525 470.348c-.542.001-1.07-.176-1.5-.502l-16.5-12.42c-.368-.277-.653-.65-.822-1.08q-.09-.23-.184-.46l.013.072a2.5 2.5 0 0 1-2.062 2.872c-2.76.454-16.765 2.522-21.682-1.183-1.144-.818-1.894-2.077-2.067-3.473a4.81 4.81 0 0 1 1.454-4.102c2.256-2.186 7.025-2.61 11.2-2.49-2.496-3.09-4.962-7.074-4.697-10.52a6.05 6.05 0 0 1 2.776-4.69c1.337-.912 3.024-1.146 4.56-.632 6.524 2.03 13.24 17.556 15.085 22.108l15.95 12a2.5 2.5 0 0 1-1.505 4.498zm-21.468-16.484c.838.001 1.62.422 2.083 1.12-3.502-8.445-8.733-17.566-11.633-18.468-.187-.06-.213-.04-.288.01a1.09 1.09 0 0 0-.576.921c-.2 2.73 4.47 8.4 7.7 11.37a2.5 2.5 0 0 1-2.062 4.313c-5.933-.884-12.392-.647-13.576.468 1.143 1.476 9.8 1.636 17.943.3.135-.022.272-.033.408-.033z"/><path d="M1367.386 376.186a2.5 2.5 0 0 1-2.496-2.4l-.822-20.644c-.02-.46.09-.916.315-1.318q.12-.215.24-.432l-.045.052a2.5 2.5 0 0 1-3.528.22c-2.096-1.85-12.558-11.4-12.8-17.543-.1-1.403.412-2.78 1.383-3.797a4.81 4.81 0 0 1 4.097-1.468c3.12.365 6.463 3.79 9.007 7.093.815-3.89 2.342-8.318 5.177-10.292a6.05 6.05 0 0 1 5.39-.815 5.17 5.17 0 0 1 3.373 3.132c2.553 6.338-5.225 21.36-7.585 25.668l.795 19.945a2.5 2.5 0 0 1-2.398 2.598l-.102.001zm-14.146-42.36c-.422 1.818 4.93 8.624 11.118 14.09a2.5 2.5 0 0 1 .733 2.612c4.326-8.053 8.08-17.87 6.946-20.687-.073-.18-.103-.19-.2-.217-.358-.15-.768-.098-1.077.136-2.25 1.565-3.68 8.776-3.937 13.156a2.5 2.5 0 0 1-4.645 1.131c-3.07-5.155-7.334-10.01-8.95-10.22z"/><path d="M1394.914 457h-.045a2.69 2.69 0 0 1-2.456-2.769l.364-20.77c.008-.478.143-.945.39-1.354l.267-.45c-.017.02-.034.022-.05.04-.974.978-2.557.982-3.536.01-1.985-1.967-11.882-12.094-11.77-18.25-.01-1.407.57-2.754 1.598-3.714 1.117-1.05 2.666-1.508 4.175-1.232 3.096.544 6.235 4.154 8.585 7.598 1.038-3.836 2.815-8.17 5.76-9.978 1.626-1.02 3.64-1.208 5.427-.505a5.17 5.17 0 0 1 3.189 3.32c2.185 6.475-6.442 21.024-9.045 25.2l-.35 20.184c-.007 1.41-1.094 2.576-2.5 2.683zm-11.838-43.556c-.525 1.8 4.426 8.892 10.29 14.702a2.5 2.5 0 0 1 .581 2.655c4.782-7.792 9.096-17.382 8.124-20.258-.062-.185-.092-.196-.178-.228a1.09 1.09 0 0 0-1.084.074c-2.334 1.434-4.176 8.55-4.685 12.908a2.5 2.5 0 0 1-4.702.862c-2.767-5.323-6.748-10.414-8.348-10.716z"/><path d="M1342.5 441.5a2.5 2.5 0 0 1-2.5-2.5v-10a2.5 2.5 0 1 1 5 0v10a2.5 2.5 0 0 1-2.5 2.5z"/><path d="M1404.69,464.501a2.5026,2.5026,0,0,1-2.3643-3.3135l3.8105-11.0859a2.5,2.5,0,1,1,4.7286,1.625l-3.8106,11.0859A2.501,2.501,0,0,1,1404.69,464.501Z"/><path d="M1383.001,507.001a2.5,2.5,0,0,1-2.2871-1.49l-5.5-12.4355a2.5,2.5,0,1,1,4.5722-2.0215l5.5,12.4356a2.5025,2.5025,0,0,1-2.2851,3.5117Z"/><path d="M1391.5 504.5c-1.076-.001-2.03-.69-2.372-1.7l-3-9a2.5 2.5 0 1 1 4.744-1.582l3 9a2.5 2.5 0 0 1-2.372 3.292z"/><path d="M1227 473.095a2.5 2.5 0 0 1-2.3-1.518l-3.678-8.594a2.5 2.5 0 1 1 4.598-1.967l3.678 8.594a2.5 2.5 0 0 1-2.298 3.484z"/><path d="M1313.998,477.7227a2.4876,2.4876,0,0,1-1.3115-.3731l-7.5-4.6289a2.5,2.5,0,1,1,2.627-4.2539l7.5,4.6289a2.5,2.5,0,0,1-1.3155,4.627Z"/><path d="M1444.5 455.5a2.5 2.5 0 0 1-2.5-2.5v-11a2.5 2.5 0 1 1 5 0v11a2.5 2.5 0 0 1-2.5 2.5z"/><path d="M1452.003 455.5c-.15 0-.3-.013-.45-.04a2.5 2.5 0 0 1-2.013-2.907l2-11a2.5 2.5 0 1 1 4.92.895l-2 11a2.5 2.5 0 0 1-2.457 2.053z"/><path d="M1374.5029,376.5a2.2746,2.2746,0,0,1-.2295-.0107,2.4994,2.4994,0,0,1-2.2627-2.7159l1-11a2.5,2.5,0,1,1,4.9786.4532l-1,11A2.4992,2.4992,0,0,1,1374.5029,376.5Z"/><path d="M471.536 777.256L767.6 697.08s51.013 9.122 39.244 98.048l-296.28 105.7"/><path d="M510.566 903.32a2.5 2.5 0 0 1-.84-4.855L804.562 793.29c3.093-24.712 2.86-57.906-14.837-78.92-9.34-11.09-19.684-14.138-22.06-14.714L472.19 779.67a2.5 2.5 0 0 1-1.307-4.826l296.066-80.175c.356-.097.73-.114 1.093-.048.557.1 13.778 2.6 25.508 16.527 19.237 22.842 19.196 58.455 15.775 84.31a2.5 2.5 0 0 1-1.639 2.026l-296.28 105.7a2.48 2.48 0 0 1-.84.146z"/></g><circle cx="480.414" cy="842.711" r="65.455" transform="matrix(.707107 -.707107 .707107 .707107 -455.1766 329.5567)" class="Q"/><path d="M480.4141,910.666a67.9551,67.9551,0,1,1,67.955-67.9551A68.0319,68.0319,0,0,1,480.4141,910.666Zm0-130.91a62.9551,62.9551,0,1,0,62.955,62.955A63.0263,63.0263,0,0,0,480.4141,779.7559Z" transform="translate(0 -256.972)" class="O"/><path d="M499.042 585.74a18.63 18.63 0 0 1-31.8 13.172 18.63 18.63 0 0 1 13.172-31.8c10.288 0 18.628 8.34 18.628 18.628z" class="P"/><g transform="translate(0 -256.972)" class="O"><path d="M480.4141,863.8389a21.128,21.128,0,1,1,21.1279-21.128A21.1519,21.1519,0,0,1,480.4141,863.8389Zm0-37.2559a16.128,16.128,0,1,0,16.1279,16.1279A16.1469,16.1469,0,0,0,480.4141,826.583Z"/><path d="M598.83 818.233l296.065-80.175s51.013 9.122 39.244 98.048l-296.28 105.7"/><path d="M637.86 944.297a2.5 2.5 0 0 1-.84-4.856l294.835-105.175c3.092-24.712 2.86-57.906-14.837-78.92-9.34-11.09-19.684-14.138-22.06-14.714l-295.475 80.015a2.5 2.5 0 0 1-3.08-3.055 2.5 2.5 0 0 1 1.774-1.772l296.065-80.175c.356-.097.73-.114 1.093-.048.557.1 13.778 2.6 25.508 16.527 19.237 22.842 19.196 58.456 15.775 84.3a2.5 2.5 0 0 1-1.639 2.026L638.7 944.15a2.48 2.48 0 0 1-.84.147z"/></g><circle cx="607.707" cy="626.717" r="65.455" class="Q"/><path d="M607.707,951.6436a67.9551,67.9551,0,1,1,67.9551-67.9551A68.0318,68.0318,0,0,1,607.707,951.6436Zm0-130.91a62.9551,62.9551,0,1,0,62.9551,62.9551A63.0263,63.0263,0,0,0,607.707,820.7334Z" transform="translate(0 -256.972)" class="O"/><circle cx="607.707" cy="883.689" r="18.628" transform="matrix(.62464 -.780913 .780913 .62464 -461.9747 549.2949)" class="P"/><g transform="translate(0 -256.972)" class="O"><path d="M607.707,904.8164a21.128,21.128,0,1,1,21.128-21.1279A21.1516,21.1516,0,0,1,607.707,904.8164Zm0-37.2559a16.128,16.128,0,1,0,16.128,16.128A16.1464,16.1464,0,0,0,607.707,867.5605Z"/><path d="M728.738 834.8l296.065-80.175s51.015 9.122 39.244 98.048L767.77 958.36"/><path d="M767.77 960.862a2.5 2.5 0 0 1-.84-4.856l294.835-105.175c4.35-34.72-.69-61.894-14.608-78.646-9.334-11.236-19.89-14.39-22.295-14.987l-295.47 80.014a2.5 2.5 0 0 1-1.307-4.826l296.065-80.175a2.48 2.48 0 0 1 1.094-.048c.557.1 13.778 2.6 25.508 16.527 19.237 22.842 19.196 58.456 15.774 84.3a2.5 2.5 0 0 1-1.639 2.026l-296.278 105.69a2.48 2.48 0 0 1-.84.147z"/></g><circle cx="737.616" cy="643.282" r="65.455" class="Q"/><path d="M737.6157,968.209a67.9551,67.9551,0,1,1,67.9556-67.9551A68.0319,68.0319,0,0,1,737.6157,968.209Zm0-130.91a62.9551,62.9551,0,1,0,62.9556,62.9551A63.0263,63.0263,0,0,0,737.6157,837.2988Z" transform="translate(0 -256.972)" class="O"/><path d="M756.244 643.282a18.63 18.63 0 0 1-31.8 13.173 18.63 18.63 0 0 1 13.172-31.801 18.63 18.63 0 0 1 18.628 18.628z" class="P"/><g transform="translate(0 -256.972)" class="O"><path d="M737.6157,921.3818a21.1279,21.1279,0,1,1,21.1284-21.1279A21.1516,21.1516,0,0,1,737.6157,921.3818Zm0-37.2558a16.1279,16.1279,0,1,0,16.1284,16.1279A16.1464,16.1464,0,0,0,737.6157,884.126Z"/><path d="M576.23 675.546l301.838-54.55s50.046 13.454 30.712 101.047l-304.235 79.952"/><path d="M604.544 804.496a2.5 2.5 0 0 1-.634-4.919l302.753-79.562c7.306-34.22 4.608-61.726-7.826-79.61-8.34-11.993-18.585-16.04-20.932-16.84l-301.23 54.44a2.5 2.5 0 0 1-.89-4.92l301.838-54.55c.363-.066.737-.05 1.094.046.546.146 13.505 3.77 24 18.65 17.213 24.404 14.125 59.884 8.504 85.35a2.5 2.5 0 0 1-1.806 1.879L605.18 804.413c-.208.055-.422.083-.636.083z"/></g><path d="M644.7 490.15a65.46 65.46 0 0 1-115.289 36.554 65.46 65.46 0 0 1 55.674-107.369c36.017 3.093 62.708 34.798 59.615 70.815z" class="Q"/><path d="M579.5488,809.4805c-1.9521,0-3.9331-.085-5.8882-.253a67.9579,67.9579,0,0,1,5.74-135.666c1.9521,0,3.9331.085,5.8882.253a67.9579,67.9579,0,0,1-5.74,135.666Zm-.1479-130.919a62.9573,62.9573,0,0,0-5.3125,125.6836c1.8135.1563,3.65.2354,5.46.2354a62.9573,62.9573,0,0,0,5.3125-125.6836C583.0479,678.6406,581.2109,678.5615,579.4009,678.5615Z" transform="translate(0 -256.972)" class="O"/><path d="M598.035 486.143a18.63 18.63 0 0 1-32.811 10.405 18.63 18.63 0 0 1 15.845-30.557c4.922.423 9.475 2.783 12.657 6.562s4.732 8.668 4.31 13.6z" class="P"/><g transform="translate(0 -256.972)" class="O"><path d="M579.497 762.65c-.607 0-1.223-.026-1.83-.078-11.626-.998-20.24-11.232-19.243-22.857.993-10.892 10.092-19.252 21.03-19.32.607 0 1.223.026 1.83.078 11.625 1 20.24 11.232 19.243 22.857-.993 10.892-10.09 19.252-21.028 19.32zm-.044-37.257c-8.347.054-15.3 6.436-16.047 14.75-.366 4.262.976 8.494 3.73 11.766s6.697 5.316 10.958 5.68a16.46 16.46 0 0 0 1.402.061c8.347-.055 15.3-6.436 16.047-14.75a16.13 16.13 0 0 0-14.689-17.447c-.466-.04-.937-.06-1.402-.06z"/><path d="M668.744 586.477L973.5 551.65s49.065 16.676 24.083 102.826l-308.787 60.02"/><path d="M688.782 716.997a2.5 2.5 0 0 1-.474-4.954l307.283-59.73c9.513-33.672 8.607-61.294-2.638-79.947-7.542-12.5-17.503-17.213-19.792-18.163L669.028 588.96a2.5 2.5 0 0 1-2.617-3.489 2.5 2.5 0 0 1 2.05-1.478l304.746-34.826c.367-.042.74-.003 1.088.116.536.183 13.23 4.64 22.737 20.17 15.59 25.47 10.205 60.674 2.942 85.72a2.5 2.5 0 0 1-1.925 1.758l-308.787 60.02c-.158.03-.32.046-.48.046z"/></g><path d="M732.4 405.376c-5.427 35.74-38.8 60.314-74.54 54.887s-60.314-38.8-54.887-74.54 38.798-60.314 74.538-54.888c17.163 2.606 32.588 11.923 42.882 25.902s14.612 31.474 12.006 48.637z" class="Q"/><path d="M667.7778,720.4873a68.7575,68.7575,0,0,1-10.2812-.7793,67.9606,67.9606,0,0,1,10.1206-135.1494,68.7316,68.7316,0,0,1,10.28.7783,67.9611,67.9611,0,0,1-10.1192,135.15Zm-.1606-130.9287a62.96,62.96,0,0,0-9.37,125.206,63.6725,63.6725,0,0,0,9.5307.7227,62.9606,62.9606,0,0,0,9.3687-125.207A63.6526,63.6526,0,0,0,667.6172,589.5586Z" transform="translate(0 -256.972)" class="O"/><path d="M686.114 398.348a18.63 18.63 0 0 1-33.418 8.25 18.63 18.63 0 0 1 17.797-29.463c4.885.74 9.275 3.392 12.205 7.37s4.158 8.958 3.416 13.843z" class="P"/><g transform="translate(0 -256.972)" class="O"><path d="M667.7227,673.6523a21.1284,21.1284,0,1,1,20.8632-17.957A21.3218,21.3218,0,0,1,667.7227,673.6523Zm-.0469-37.2587a16.14,16.14,0,1,0,2.4419.1845A16.2245,16.2245,0,0,0,667.6758,636.3936Z"/><path d="M702.65 707.805l301.84-54.55s50.047 13.453 30.712 101.046l-304.234 79.953"/><path d="M730.965 836.756a2.5 2.5 0 0 1-.634-4.919l302.75-79.563c5.196-24.357 7.806-57.45-8.03-79.9-8.356-11.848-18.402-15.77-20.72-16.548l-301.237 54.44a2.5 2.5 0 0 1-2.822-3.309 2.5 2.5 0 0 1 1.933-1.611l301.84-54.55a2.51 2.51 0 0 1 1.094.046c.546.147 13.505 3.77 24 18.648 17.213 24.404 14.125 59.884 8.504 85.35a2.5 2.5 0 0 1-1.806 1.879l-304.235 79.954a2.52 2.52 0 0 1-.637.083z"/></g><path d="M771.11 522.41c-3.093 36.017-34.798 62.707-70.815 59.614s-62.707-34.798-59.614-70.815 34.798-62.707 70.815-59.615c17.296 1.485 33.294 9.78 44.474 23.06s16.626 30.46 15.14 47.755z" class="Q"/><path d="M705.9712,841.7393c-1.9526,0-3.9341-.085-5.89-.253a67.9573,67.9573,0,0,1,5.74-135.665c1.9521,0,3.9331.085,5.8882.2529a67.9573,67.9573,0,0,1-5.7388,135.6651Zm-.1494-130.918a62.9568,62.9568,0,0,0-5.3125,125.6826c1.8139.1563,3.6513.2354,5.4619.2354a62.9568,62.9568,0,0,0,5.311-125.6827C709.4688,710.9,707.6318,710.8213,705.8218,710.8213Z" transform="translate(0 -256.972)" class="O"/><path d="M724.456 518.402a18.63 18.63 0 0 1-32.811 10.404 18.63 18.63 0 0 1 15.845-30.557c4.922.422 9.476 2.783 12.657 6.562s4.732 8.668 4.31 13.59z" class="P"/><path d="M705.9185,794.9082c-.607,0-1.2227-.0264-1.83-.0781a21.1279,21.1279,0,0,1-19.2432-22.8574,21.2516,21.2516,0,0,1,21.0288-19.3213c.607,0,1.2222.0263,1.83.0781a21.1281,21.1281,0,0,1-1.7851,42.1787Zm-.0445-37.2568A16.22,16.22,0,0,0,689.8267,772.4a16.1273,16.1273,0,0,0,14.6894,17.4473c.4658.04.9375.06,1.4024.06a16.1277,16.1277,0,0,0,1.3574-32.1963C706.81,757.6719,706.3384,757.6514,705.874,757.6514Z" transform="translate(0 -256.972)" class="O"/><g fill="#afb7ac"><use xlink:href="#D"/><use xlink:href="#D" x="13" y="18"/><path d="M812.202 632.74a2 2 0 0 1-.569-3.918l245.44-72.932a2 2 0 0 1 1.139 3.834l-245.44 72.932c-.185.056-.377.084-.57.084zm-3 29a2 2 0 0 1-.63-3.898l249.44-82.932a2 2 0 0 1 1.262 3.795l-249.44 82.932c-.204.07-.417.104-.632.103zm-47.83-200.27a2 2 0 0 1-.379-3.964l248.6-48.204a2.001 2.001 0 1 1 .762 3.928l-248.6 48.204c-.126.024-.254.036-.383.036zm11.058 18.28a2 2 0 0 1-.379-3.964l248.6-48.205a2.001 2.001 0 1 1 .762 3.928l-248.6 48.205a2.06 2.06 0 0 1-.383.036zm10.513 25a2 2 0 0 1-.41-3.957l241.082-50.748a2 2 0 0 1 .824 3.914l-241.082 50.748a1.92 1.92 0 0 1-.414.043zm-5.143 27.576a2 2 0 0 1-.473-3.943l245.7-60.023a2 2 0 0 1 .949 3.885l-245.7 60.025a2.01 2.01 0 0 1-.476.057zM740.36 348.9a2 2 0 0 1-.234-3.986l232.408-27.685a2.001 2.001 0 1 1 .473 3.973L740.6 348.897a2.19 2.19 0 0 1-.239.014zm86.332 10.806a2 2 0 0 1-.265-3.982l155.04-20.895a2 2 0 1 1 .534 3.965L826.96 359.7a2.1 2.1 0 0 1-.269.018zm-69.362 30.536a2 2 0 0 1-.266-3.981l225.652-30.536a2 2 0 0 1 2.131 2.743 2 2 0 0 1-1.595 1.22L757.6 390.234c-.1.012-.18.017-.27.018zm-6.6 25.073a2 2 0 0 1-.329-3.973l230.534-38.776a2 2 0 1 1 .663 3.945l-230.534 38.777a2.04 2.04 0 0 1-.333.027z"/></g><g transform="translate(0 -256.972)" class="O"><path d="M959.59 546.662c-2.807-.033-5.595-.46-8.28-1.273a2.47 2.47 0 0 1-.502-.208l-44.618-24.436c-1.488-.757-37.97-20.173-38.296-91.378a2.5 2.5 0 0 1 3.992-2.018L930 470.59v-86.57a2.5 2.5 0 0 1 4.366-1.663c7.353 8.247 29.045 29.65 40.96 29.65 1.643.073 3.25-.5 4.462-1.62a2.5 2.5 0 0 1 4.211 1.822v99.975c-.21 11.955-5.584 34.48-24.41 34.48zm-6.627-6c2.153.634 4.383.97 6.627 1 18.673 0 19.41-29.23 19.41-29.523V416.48a11.84 11.84 0 0 1-3.674.524c-12.81 0-31.813-17.923-40.326-26.673v85.23a2.5 2.5 0 0 1-3.992 2.006l-58.026-43.17c.608 19.176 4.4 44.34 17.883 64.274 8.75 12.945 17.577 17.61 17.665 17.655z"/><path d="M941.5 394.5a2.5 2.5 0 0 1-2.5-2.5v-37.036c-2.23-4.52-12.74-27.1-4.82-35.9 7.846-8.706 19.43-11.486 19.92-11.6a2.5 2.5 0 0 1 3.002 3.005 35.86 35.86 0 0 1-4.385 10.263c3.03 1.588 6.75 5.274 7.633 13.826a2.5 2.5 0 1 1-4.974.514c-1.067-10.32-6.856-10.543-6.915-10.544a2.5 2.5 0 0 1-1.738-4.252c1.697-1.882 3.042-4.054 3.972-6.41-4.844 1.872-9.215 4.79-12.8 8.548-4.556 5.056 1.16 21.59 5.835 30.822a2.51 2.51 0 0 1 .269 1.13V392a2.5 2.5 0 0 1-2.5 2.5z"/><path d="M972.5 407.5a2.5 2.5 0 0 1-2.5-2.5v-37.55a2.5 2.5 0 0 1 .71-1.745l15.694-16.1a2.5 2.5 0 0 1 3.58 3.49L975 368.468V405a2.5 2.5 0 0 1-2.5 2.5z"/><path d="M1037.833 363.264c-13.51 0-30.154-8.49-31.622-9.255l-49.628-22.2a2.5 2.5 0 1 1 2.042-4.564l49.696 22.232c.048.022.095.044.14.068.23.118 22.88 11.868 35 7.95 2.45-.695 4.492-2.392 5.623-4.674.57-1.28.586-2.74.047-4.032-4.562-13.57-43.877-35.454-58.64-42.74-23.95-12.772-60.424-27.36-66.738-19.924-1.694 1.86-2.48 4.372-2.145 6.864 1.082 8.692 13.188 17.412 13.3 17.5a2.5 2.5 0 0 1-2.898 4.075c-.57-.406-14.01-10.07-15.373-20.946a13.44 13.44 0 0 1 3.294-10.728c5.18-6.1 18.795-4.687 41.622 4.32 16.076 6.345 31.06 14.312 31.21 14.39 2.173 1.07 54.942 27.293 61.096 45.595.98 2.553.866 5.396-.314 7.862-1.728 3.487-4.832 6.095-8.564 7.197a23.45 23.45 0 0 1-7.169 1.01z"/><path d="M1052.032 350.336a2.5 2.5 0 0 1-2.272-1.455c-13.65-29.63-37.97-49.543-72.28-59.2a154.57 154.57 0 0 0-48.016-5.626 2.5 2.5 0 0 1-.39-4.984c16.734-.75 33.48 1.193 49.598 5.752 24.662 6.904 57.8 23.257 75.63 61.957a2.5 2.5 0 0 1-2.269 3.547z"/><path d="M1036.273 325.153a2.5 2.5 0 0 1-2.069-3.9c.077-.114 7.875-11.935 4.884-24.907-1.925-8.35-7.89-15.482-17.73-21.202-14.496-8.428-28.04-9.546-40.256-3.323-5.532 2.83-10.348 6.882-14.082 11.85a2.5 2.5 0 0 1-4.336-.3 2.5 2.5 0 0 1 .198-2.506c.222-.326 22.573-32.374 61-10.042 11.1 6.453 17.864 14.682 20.1 24.454 3.456 15.113-5.254 28.228-5.626 28.778-.465.69-1.243 1.1-2.074 1.1z"/><path d="M1040.957 314.412a2.5 2.5 0 0 1-2.121-1.173c-18.376-29.343-67.093-35.456-67.584-35.515a2.5 2.5 0 0 1 .589-4.965 141.64 141.64 0 0 1 28.032 6.938c20.09 7.16 35.03 17.84 43.2 30.887a2.5 2.5 0 0 1-2.117 3.827z"/><path d="M981.145 414.708a2.5 2.5 0 0 1-1.742-4.294 6.15 6.15 0 0 0 2.165-5.142c-.5-5.34-7.763-11.24-10.52-13.064a2.5 2.5 0 1 1 2.753-4.175c1.218.803 11.926 8.093 12.745 16.765.287 3.47-1.067 6.877-3.66 9.204a2.49 2.49 0 0 1-1.742.706z"/><path d="M831.046 378.052a12.45 12.45 0 0 1-6.321-1.95 2.5 2.5 0 0 1 2.753-4.174c.673.434 2.788 1.46 4.496 1 1.094-.362 1.978-1.182 2.42-2.246a2.5 2.5 0 1 1 4.432 2.316c-1.085 2.34-3.14 4.084-5.624 4.776a8.6 8.6 0 0 1-2.157.267z"/><path d="M867.665 371.948c-2.244-.068-4.428-.742-6.32-1.95a2.5 2.5 0 0 1 2.753-4.174c.674.436 2.79 1.46 4.496 1 1.094-.362 1.978-1.182 2.42-2.246a2.5 2.5 0 1 1 4.432 2.316 8.81 8.81 0 0 1-5.623 4.777 8.64 8.64 0 0 1-2.157.266z"/><path d="M847.788 420.773c-6.262-.062-12.503-.75-18.63-2.05-7.224-1.46-14.306-3.546-21.166-6.238a2.5 2.5 0 1 1 1.915-4.619c.347.143 35.01 14.276 56.407 4.355 16.778-7.778 4.793-45.446-1.24-59.305a2.5 2.5 0 0 1 4.584-1.996c.965 2.217 23.36 54.433-1.24 65.838-5.772 2.676-12.674 4.016-20.63 4.016z"/><path d="M797.613 424.88a2.5 2.5 0 0 1-2.474-2.157l-4.048-29.237c-5.43-.045-10.242-1.935-13.172-5.253-2.124-2.405-4.334-6.764-2.8-13.873a9.8 9.8 0 0 1 5.377-7.227c6.9-3.257 17.123 1.816 18.266 2.406a2.5 2.5 0 1 1-2.289 4.445h0c-2.504-1.285-9.875-4.208-13.846-2.328-.865.41-2.077 1.244-2.62 3.758-.878 4.068-.32 7.267 1.66 9.508 2.306 2.612 6.562 3.914 11.37 3.485 1.33-.12 2.518.825 2.698 2.147l4.36 31.482a2.5 2.5 0 0 1-2.134 2.819c-.115.016-.23.023-.346.024z"/><path d="M808.95 383h4.36l-4.36-30.938L769.716 322s-20.053 18.394-9.6 47.634 34.023 27.725 34.023 27.725 4.704-6.115-.893-6.467c-5.717-.357-16.15-2.154-15.693-15.85.432-12.925 25.283-6.042 31.387 7.958z"/><path d="M773.203 318.627l40.106 33.3s43.157-.595 57.107-7.134L875.212 357s20.49-32.26-4.795-53.62-71.057-34.003-97.214 15.258z"/><path d="M746.175 636.51a2.5 2.5 0 0 1-2.493-2.683l11.592-158.388c.067-2.37 1.968-48.537 42.23-50.327 1.005.185 2.024.285 3.046.3l33.1 17.92 24.237-21.095c.714-.622 1.718-.787 2.594-.426l8.46 3.486c.082.034.163.072.24.114 1.164.633 28.54 15.883 30.335 50.02 1.73 32.838.02 130.842.003 131.827a2.5 2.5 0 0 1-2.062 2.418l-150.833 26.794a2.55 2.55 0 0 1-.437.038zm51.69-206.413a2.48 2.48 0 0 1-.14.01c-15.184.676-26.083 8.41-32.393 22.99-2.986 7.148-4.7 14.763-5.063 22.5a1.82 1.82 0 0 1-.006.147l-11.36 155.24 145.64-25.872c.236-14.336 1.55-99.398-.032-129.42-1.593-30.274-25.843-44.806-27.63-45.833l-6.89-2.84-.193.168c.566.592.806 1.423.642 2.226l-7.192 35.312a2.5 2.5 0 0 1-4.129 1.353l-14.66-13.295-11 16.738a2.54 2.54 0 0 1-2.194 1.126 2.5 2.5 0 0 1-2.093-1.305zm7.712 3.724l16.005 29.468 10.075-15.344zm30.69 13.854l12.96 11.753 5.703-27.996z"/></g><path d="M808 361.028h-20v-189h12.307L808 186.692v174.336z" fill="url(#B)"/><path d="M833.975 192l4.6 109.71" class="R"/><path d="M838.583 561.183a2.5 2.5 0 0 1-2.496-2.395l-4.61-109.71a2.5 2.5 0 0 1 2.393-2.603 2.54 2.54 0 0 1 2.603 2.394l4.61 109.71a2.5 2.5 0 0 1-2.393 2.603l-.107.002z" transform="translate(0 -256.972)" class="O"/><path d="M879 361.028h-21V172.384l4.552-5.232L879 179.358v181.67z" fill="url(#B)"/><path d="M746 634.244v53.186s6.67 35.746 39.67 27.027 72.387-25.284 72.387-25.284 23.3-10.463 32.88-33.13 6.217-48.825 6.217-48.825z" transform="translate(0 -256.972)" class="S"/><path d="M760.554 202.024l-36.61 130.783s-3.488 22.67 13.514 27.9 23.105 1.743 25.72 0 110.728-66.12 110.728-66.12L850.8 250.416l-76.29 37.5" class="Q"/><g transform="translate(0 -256.972)"><g class="O"><path d="M752.86 622.942a55.68 55.68 0 0 1-16.139-2.874c-15.08-4.64-16.57-22.1-15.25-30.67a2.4 2.4 0 0 1 .063-.294l36.61-130.783a2.5 2.5 0 0 1 4.213-1.101 2.5 2.5 0 0 1 .601 2.449l-36.567 130.627c-.27 1.95-2.444 20.61 11.798 24.992 16.462 5.065 21.833 1.485 23.6.3 2.468-1.645 93.484-55.855 108.802-64.976l-20.878-39.916-74.1 36.415a2.5 2.5 0 1 1-2.205-4.488l76.29-37.5a2.5 2.5 0 0 1 3.318 1.085l23.105 44.17a2.5 2.5 0 0 1-.937 3.308l-110.62 66.05c-2.32 1.546-5.775 3.184-11.703 3.184z"/><path d="M862.57 386H853a2.5 2.5 0 1 1 0-5h5.388l-4.113-7.65a2.5 2.5 0 0 1 4.404-2.367l6.094 11.334A2.5 2.5 0 0 1 862.57 386z"/></g><g class="S"><path d="M862.55 600.125l53.854-68.703s27.494-18.514 41.532-6.132C974.738 540.11 974 567.1 974 567.1v139.5s21.665 20.926 21.665 37.49c0 0-10.745 7.847-37.533 0S908 705.738 908 705.738v-63.646l-45.447 44.487"/><path d="M776.655 634.007l54.08-68.644s27.828-18.48 41.865-6.1c16.805 14.82 16.4 41.85 16.4 41.85v139.5s21.44 20.925 21.44 37.5c0 0-11.132 7.847-37.92 0S822 739.74 822 739.74V634"/></g><g class="O"><path d="M822.5 664.5a2.5 2.5 0 0 1-2.5-2.5v-28a2.5 2.5 0 1 1 5 0v28a2.5 2.5 0 0 1-2.5 2.5z"/><path d="M888.5 664.5a2.5 2.5 0 0 1-2.5-2.5v-60.887c.006-.3.33-26.05-15.383-39.908-6.338-5.59-16.343-3.672-23.618-1.08a77.38 77.38 0 0 0-14.703 7.234l-63.62 82.292a2.5 2.5 0 1 1-3.956-3.058l63.88-82.626c.164-.213.362-.397.586-.547 1.195-.802 29.432-19.466 44.74-5.966C891.398 572.867 891 600.02 891 601.167V662a2.5 2.5 0 0 1-2.5 2.5z"/></g></g><path d="M889 483.642v-78.613h-67v77.74s23.88 30.515 50.67 38.362 37.655 0 37.655 0c0-16.565-21.325-37.5-21.325-37.5z" fill="#fbfcfa"/><g transform="translate(0 -256.972)" class="O"><path d="M894.622 784.09h-.001a80.65 80.65 0 0 1-22.403-3.588c-11.486-3.365-23.685-11-36.256-22.692a152.95 152.95 0 0 1-15.438-16.539 2.5 2.5 0 0 1-.523-1.53V661.5a2.5 2.5 0 0 1 2.5-2.5h67a2.5 2.5 0 0 1 2.5 2.5v78.087c3.898 4.016 21.2 22.73 21.2 38.517a2.5 2.5 0 0 1-1.047 2.034c-.226.162-5.673 3.953-17.53 3.953zM825 738.865c3.6 4.428 25.076 29.94 48.623 36.84 6.805 2.11 13.875 3.25 21 3.387 7.28 0 11.636-1.55 13.522-2.43-1.18-15.133-20.2-34.072-20.4-34.268a2.5 2.5 0 0 1-.744-1.779V664h-62z"/><path d="M889.6 743.113c-.72.001-1.408-.3-1.882-.854-5.725-6.542-22.852-2.944-28.97-1.007a2.5 2.5 0 0 1-3.238-2.922 2.5 2.5 0 0 1 1.728-1.844c4.335-1.3 8.78-2.197 13.28-2.684 10.004-1.038 17.056.7 20.962 5.163a2.5 2.5 0 0 1-1.88 4.146z"/></g><path d="M908 385.12v63.646s23.604 30.516 50.392 38.362 37.296 0 37.296 0c0-16.565-21.687-37.49-21.687-37.49v-79.61h-66.528z" fill="#fbfcfa"/><path d="M980.25 750.088h0c-7.57-.14-15.08-1.347-22.312-3.588-11.49-3.365-23.643-11.003-36.123-22.7a150.56 150.56 0 0 1-15.301-16.543 2.5 2.5 0 0 1-.515-1.52v-63.564l-1.023-15.5a2.5 2.5 0 0 1 2.495-2.664H974.5a2.5 2.5 0 0 1 2.5 2.5v79.07c3.97 4.02 21.563 22.735 21.563 38.53a2.5 2.5 0 0 1-1.016 2.012c-.22.162-5.522 3.976-17.296 3.976zM911 704.87c3.543 4.42 24.8 29.935 48.344 36.83 6.775 2.106 13.812 3.246 20.905 3.387 7.14 0 11.403-1.538 13.255-2.418-1.192-15.124-20.544-34.07-20.746-34.267a2.5 2.5 0 0 1-.759-1.794V629h-61.858l.852 12.928c.003.055.005.11.005.164z" transform="translate(0 -256.972)" class="O"/><path d="M908 333.028v37" class="P"/><g transform="translate(0 -256.972)" class="O"><path d="M908.5 629.5a2.5 2.5 0 0 1-2.5-2.5v-37a2.5 2.5 0 1 1 5 0v37a2.5 2.5 0 0 1-2.5 2.5z"/><path d="M942.348 711.787a2.5 2.5 0 0 1-.937-4.818c.744-.3 18.418-7.307 34.318-2.764a2.5 2.5 0 1 1-1.374 4.809c-14.225-4.067-30.908 2.525-31.075 2.593a2.51 2.51 0 0 1-.932.181z"/><path d="M763,321h-8a2.5,2.5,0,0,1,0-5h8a2.5,2.5,0,0,1,0,5Z"/><path d="M762.7412,312.4082a2.4917,2.4917,0,0,1-1.8-.7646l-3.9233-4.0684a2.5,2.5,0,1,1,3.5986-3.4707l3.9233,4.0684a2.5,2.5,0,0,1-1.7988,4.2353Z"/><path d="M846.874 431.856a2.5 2.5 0 0 1-2.49-2.309l-.872-11.335a2.5 2.5 0 1 1 4.985-.383l.87 11.335a2.5 2.5 0 0 1-2.301 2.684l-.195.008z"/></g><path d="M857.25 259.41l38.017-22.073s14.82-6.54 23.54 0 19.18 22.073 19.18 22.073-7.692 1.583-10.602 0l-4.22-8.56s9.746 19.16 5.962 22.658-14.682-9.58-14.682-9.58 11.335 19.494 6.976 23.262-13.95-15.096-13.95-15.096-8.717 13.268-20.925 8.836l-13.514 6.756" class="Q"/><path d="M873.035 547.16a2.5 2.5 0 0 1-1.12-4.737l13.514-6.757a2.5 2.5 0 0 1 1.971-.113c10.176 3.69 17.672-7.4 17.986-7.863.49-.74 1.34-1.166 2.227-1.116s1.683.568 2.088 1.36c3.5 6.88 8.2 13.376 10.183 14.156.86-2.12-2.64-11.4-7.598-19.932a2.5 2.5 0 0 1 4.081-2.857c4.08 4.9 9.334 9.282 11.06 9.285.717-1.92-1.762-9.798-5.46-17.543l-1.042-2.113a2.5 2.5 0 1 1 4.471-2.239l3.8 7.71c1.453.226 2.93.255 4.392.085-3.515-4.836-10.392-13.76-16.28-18.177-7.066-5.3-19.6-.313-20.92.24l-37.883 21.995a2.5 2.5 0 1 1-2.511-4.324L894 492.148c.08-.046.162-.088.246-.125.66-.3 16.273-7.047 26.05.287 8.953 6.715 19.317 22.028 19.754 22.677a2.5 2.5 0 0 1-1.57 3.845c-2.5.516-5.05.765-7.603.742 1.736 5.41 2.383 10.484-.063 12.745-.998.91-2.332 1.363-3.678 1.246-1.648-.214-3.222-.818-4.59-1.763 3.008 7.533 3.15 11.962.5 14.253-1.064.928-2.502 1.303-3.883 1.013-4.32-.85-9.265-8.446-12.107-13.474-4.276 4.62-11.717 9.544-20.322 7.006l-12.594 6.297a2.5 2.5 0 0 1-1.116.265z" transform="translate(0 -256.972)" class="O"/><path d="M933.192 218.593l10.462 7.846" class="P"/><g transform="translate(0 -256.972)" class="O"><path d="M943.652 485.9a2.49 2.49 0 0 1-1.498-.5l-10.462-7.846a2.5 2.5 0 1 1 3-4l10.462 7.846a2.5 2.5 0 0 1-1.502 4.5z"/><path d="M957.604 290.728s-15.55-2.71-19.18 3.294 46.995 32.452 46.995 32.452 49.35 24.85 55.537 18.96c5.267-5.012-7.352-16.508-7.352-16.508s-63.34-37.984-76-38.198z"/><path d="M826.73 391.387c-.737 3.915 10.096 15.622 23.024 10.755 6.973-2.624 2.775-9.116-5.337-9.116-4.536 0-15.465-13.446-17.687-1.64z"/><path d="M1245.9 752.04a2.5 2.5 0 0 1-1.654-.625l-12.894-11.377a2.5 2.5 0 1 1 3.309-3.75l9.887 8.725 8.645-31.59a2.5 2.5 0 0 1 4.202-1.118 2.5 2.5 0 0 1 .62 2.438L1248.3 750.2a2.5 2.5 0 0 1-2.411 1.84z"/></g><path d="M1245.9 492.567l-15.156-3.203" class="R"/><path d="M1245.893 752.04c-.175 0-.35-.02-.52-.055l-15.156-3.203a2.5 2.5 0 1 1 1.033-4.893l15.156 3.203a2.5 2.5 0 0 1-.514 4.947z" transform="translate(0 -256.972)" class="O"/><path d="M1201.824 384.368s24.226 41.463 27.644 50.638 42.3 62.02 86.976 33.67c0 0 24.273-9.47 24.947-43.855l-82.932-37.35s-35.733-40.187-56.635-3.103z" class="P"/><g transform="translate(0 -256.972)"><g class="O"><path d="M1289.623 736h-.007c-34.21 0-59.627-35.672-62.49-43.36-3.304-8.87-27.218-49.73-27.46-50.145a2.4 2.4 0 0 1-.02-2.434c6.352-11.27 14.703-16.96 24.818-16.96 16.934 0 32.824 16.38 35.493 19.264l82.46 37.144c.913.413 1.493 1.33 1.474 2.332-.67 34.204-23.515 44.654-26.297 45.826-8.33 5.403-18.04 8.296-27.97 8.335zm-84.905-94.66c4.16 7.15 23.938 41.086 27.093 49.553 2.548 6.84 26.67 40.107 57.807 40.107h.006c9.056-.046 17.905-2.71 25.48-7.674.137-.087.28-.055.432-.113.904-.36 21.98-9.03 23.305-39.88l-81.407-36.637a2.44 2.44 0 0 1-.841-.604c-.16-.18-16.207-17.973-32.127-17.973-7.82 0-14.457 4.45-19.747 13.22z"/><path d="M1341.39 681.793l51.242-32.363s-16.856 58.658-51.242 32.363z"/><path d="M1340.42 684.074l60.49-3.726s-42.993 43.318-60.49 3.726z"/><path d="M1341.432 688.716l58.247 16.743s-55.016 26.424-58.247-16.743z"/></g><path d="M1216.843 626.982s-9.255-22.726 0-22.052c5.6.504 10.69 3.467 13.89 8.1 0 0 10.184-9.503 13.562-5.763s-5.983 21.89-5.983 21.89" class="S"/><path d="M1304.982 761H1288a2.5 2.5 0 1 1 0-5h12.983l-14.326-29.412a2.5 2.5 0 0 1 4.494-2.189l16.078 33.007a2.5 2.5 0 0 1-2.247 3.595z" class="O"/></g><path d="M1304.982 502.19l-13.484 7.627" class="R"/><path d="M1291.5,769.2881a2.5,2.5,0,0,1-1.2324-4.6758l13.4844-7.6269a2.5,2.5,0,1,1,2.4609,4.3515l-13.4844,7.627A2.49,2.49,0,0,1,1291.5,769.2881Z" transform="translate(0 -256.972)" class="O"/><path d="M1233.854 413.838s10.215 3.69 15.425-2.17.575-16.056.575-16.056 11.103 2.204 17.497-4.137l-8.892-4.005s-35.733-40.187-56.635-3.104c0 0 16.053 27.476 23.866 42.645 3.095-1.36 9.095-5.07 8.163-13.175z" class="P"/><path d="M1225.69 686.484a2.5 2.5 0 0 1-2.224-1.356c-7.694-14.936-23.642-42.254-23.802-42.528a2.5 2.5 0 0 1-.019-2.488c6.352-11.27 14.703-16.986 24.818-16.986 16.934 0 32.824 16.366 35.493 19.25l8.42 3.792a2.5 2.5 0 0 1 .734 4.055c-4.68 4.64-11.34 5.347-15.66 5.22 1.04 4.027 1.715 10.34-2.305 14.86-2.417 2.718-6.016 4.154-10.407 4.154a24.03 24.03 0 0 1-4.36-.423c-.74 7.458-6.82 10.983-9.683 12.24a2.49 2.49 0 0 1-1.005.211zm-20.974-45.144l22.03 39.264c3.354-1.914 5.19-5.69 4.622-9.51a2.5 2.5 0 0 1 3.333-2.637c1.95.635 3.985.972 6.036.998 2.965 0 5.21-.833 6.67-2.477 4.017-4.517.207-13.273.167-13.36a2.5 2.5 0 0 1 2.763-3.486c.024.004 6.673 1.233 11.968-1.214l-4.875-2.196c-.32-.144-.607-.354-.84-.617-.16-.18-16.207-17.98-32.127-17.98-7.82 0-14.46 4.444-19.747 13.214z" transform="translate(0 -256.972)" class="O"/><path d="M1267.35 391.477s-4.85 42.946 20.437 52.642 34.726-27.332 34.726-27.332z" class="P"/><g transform="translate(0 -256.972)" class="O"><path d="M1295.944 705h-.003c-3.094.002-6.163-.567-9.05-1.68-11.216-4.3-18.572-15.275-21.273-31.836-1.213-7.72-1.466-15.56-.753-23.343.094-.794.562-1.496 1.26-1.886s1.54-.423 2.267-.087l55.162 25.313c1.097.504 1.678 1.72 1.38 2.89a65.21 65.21 0 0 1-6.354 15.021c-6.026 10.278-13.854 15.606-22.637 15.606zm-26.35-52.773c-.463 10.127-.053 39.188 19.1 46.528a20.34 20.34 0 0 0 7.259 1.452c14.264.003 21.536-18.835 23.555-25.084z"/><path d="M1201.824 641.34a18.75 18.75 0 0 0-10.787 13.465l16.128-4.233z"/><path d="M1228.88,637.8711a3.7305,3.7305,0,1,1-3.73-3.7305A3.73,3.73,0,0,1,1228.88,637.8711Z"/></g><path d="M1150.036 499.136s19.052 20.4 36.2 10.835 17.146-37.134 0-38.274-4.446 35.694-36.2 27.438z" class="T"/><g transform="translate(0 -256.972)" class="O"><path d="M1178.5 781.5a2.5 2.5 0 0 1-2.5-2.5v-9a2.5 2.5 0 1 1 5 0v9a2.5 2.5 0 0 1-2.5 2.5z"/><path d="M1186.5 777.5a2.5 2.5 0 0 1-2.5-2.5v-8a2.5 2.5 0 1 1 5 0v8a2.5 2.5 0 0 1-2.5 2.5z"/><path d="M1196.87 735.986s11.877 3.9 12.514 11.692l-11.562-1.665z"/><path d="M1190.0273,738.5137A3.5137,3.5137,0,1,1,1186.5137,735,3.5137,3.5137,0,0,1,1190.0273,738.5137Z"/></g><path d="M1109.074 437.217s19.052 20.4 36.2 10.835 17.147-37.134 0-38.273-4.446 35.694-36.2 27.44z" class="T"/><g transform="translate(0 -256.972)" class="O"><path d="M1137.5 719.5a2.5 2.5 0 0 1-2.5-2.5v-9a2.5 2.5 0 1 1 5 0v9a2.5 2.5 0 0 1-2.5 2.5z"/><path d="M1145.5 716.5a2.5 2.5 0 0 1-2.5-2.5v-9a2.5 2.5 0 1 1 5 0v9a2.5 2.5 0 0 1-2.5 2.5z"/><path d="M1155.91 674.067s11.877 3.897 12.514 11.69l-11.562-1.665z"/><path d="M1149.0273,677.5137A3.5137,3.5137,0,1,1,1145.5137,674,3.5137,3.5137,0,0,1,1149.0273,677.5137Z"/></g><path d="M1532.72 353.54c.517 3.114-1.588 6.057-4.702 6.574h0a5.72 5.72 0 0 1-6.574-4.703l-44.132-265.95c-.25-1.495.107-3.028.99-4.26s2.218-2.065 3.713-2.313h0a5.72 5.72 0 0 1 6.574 4.703z" class="Q"/><g transform="translate(0 -256.972)"><path d="M1527.0742,619.6641a8.1853,8.1853,0,0,1-8.0976-6.8721l-44.1319-265.9492a8.213,8.213,0,0,1,6.7588-9.4492,8.2054,8.2054,0,0,1,9.4492,6.76l44.1319,265.9492a8.2229,8.2229,0,0,1-8.11,9.5616Zm-44.1191-277.3828a3.2719,3.2719,0,0,0-.5332.0439,3.2156,3.2156,0,0,0-2.6455,3.6982l44.1318,265.95a3.2157,3.2157,0,1,0,6.3447-1.0527l-44.1318-265.9492A3.2029,3.2029,0,0,0,1482.9551,342.2813Z" class="O"/><path d="M1482.03 390.85l16.133-3.18s.607-75.778-21.094-77.8 4.96 80.98 4.96 80.98z" class="S"/></g><path d="M1528.818 332.943s8.977 28.615 27.542 29.227c16.992.56 26.78 79.917 26.78 79.917s-5.958 10.645-7.987 1.326-13.634-56.737-19.94-56.912 5.3 58.945 5.3 58.945-3.338 14.8-8.437 4.44-11.562-60.948-18.687-60.248 3.65 63.125 3.65 63.125-3.482 10.63-7.542 3.622-11.014-66.363-20.072-62.77c-6.745 2.674 1.814 60.4 1.814 60.4s-2.526 19.688-7.992 1.3c-2.537-8.537-16.96-60.234-8.845-79.486 4.156-9.864 25.297-7.578 23.6-41.093z" class="R"/><path d="M1507.598 722.637c-3.214 0-5.017-3.852-6.736-9.637-1.818-6.12-17.514-60.382-8.752-81.17 1.604-3.81 5.024-5.993 8.645-8.307 7.43-4.747 15.853-10.13 14.76-31.688a2.5 2.5 0 0 1 2.088-2.593l10.807-1.794a2.5 2.5 0 0 1 2.794 1.716c.085.27 8.675 26.933 25.24 27.478 11.244.37 18.008 24.21 22.117 42.108 4.547 19.806 7.038 39.802 7.063 40.002.065.575-.04 1.156-.3 1.672-1.082 1.933-3.978 6.575-7.5 6.575h-.001c-1.757 0-4.067-1.15-5.11-5.937-5.927-27.22-13.303-48.232-16.8-53.752-.825 7.48 2.755 32.724 7.065 54.66a2.49 2.49 0 0 1 .15 1.015c-.683 3.028-3.127 10.06-7.127 10.06v-.004c-4 .001-5.373-3.823-5.992-5.078-2.096-4.26-4.288-13.952-6.73-25.175-2.237-10.277-6.29-28.708-9.3-32.985-1.788 6.547 1.308 34.898 5.556 59.506.066.403.032.816-.098 1.203-.595 1.814-2.865 7.734-7.055 7.734-1.94 0-3.636-1.224-5.034-3.638-1.52-2.622-2.983-9.592-5.436-21.686-1.774-8.75-3.785-18.667-5.995-26.593-2.81-10.07-4.78-12.6-5.514-13.224-1.976 3.943-1.31 26.296 3.32 57.514.034.227.036.457.007.684-.964 7.52-3.028 11.33-6.13 11.33zm12.993-128.82c.5 22.648-9.662 29.142-17.146 33.923-3.2 2.045-5.727 3.66-6.728 6.034-3.19 7.566-2.986 22.212.586 42.353a354.81 354.81 0 0 0 8.352 35.45c.467 1.686 1.07 3.332 1.805 4.92a30.65 30.65 0 0 0 1.267-5.494c-.335-2.3-2.226-15.593-3.402-28.994-2.544-28.963.313-32.606 3.19-33.746a4.62 4.62 0 0 1 1.712-.332c6.598 0 10.293 12.97 16.585 44 1.808 8.915 3.677 18.133 4.86 20.174a4.98 4.98 0 0 0 .736 1.021 11.08 11.08 0 0 0 2.068-3.608c-2.416-14.088-9.24-57-4.06-63.8.643-.9 1.64-1.48 2.74-1.597.13-.013.26-.02.39-.02 5.428 0 8.4 9.394 14.535 37.622 2.174 9.99 4.423 20.318 6.25 24.03a8.53 8.53 0 0 0 1.327 2.093 16.54 16.54 0 0 0 2.31-5.486c-.5-2.64-2.78-14.567-4.606-26.866-4.313-29.047-2-31.848-.902-33.193.66-.836 1.665-1.325 2.73-1.33 2.924.08 6.562 2.222 13.994 26.803 4.175 13.81 7.56 28.144 8.415 32.077.11.558.278 1.104.504 1.626a13.24 13.24 0 0 0 2.451-2.958c-.522-3.986-2.906-21.42-6.872-38.684-8.08-35.177-15.36-38.13-17.4-38.196-17.24-.568-26.573-22.028-29.128-28.914z" transform="translate(0 -256.972)" class="O"/><path d="M1412.802 570.237l131.46 1.905 10.06 124.813s1.43 20.957-15.718 20.957l-125.802.476s-21.368-7.145-18.5-22.86 18.5-125.3 18.5-125.3z" class="P"/><path d="M1412.802 978c-.273-.024-.54-.09-.793-.2a44 44 0 0 1-11.037-5.944c-7.328-5.515-10.488-12.368-9.14-19.787 2.816-15.49 18.34-123.964 18.495-125.06.2-1.204 1.257-2.07 2.474-2h.037l131.46 1.76c1.275-.015 2.346.956 2.456 2.226l10.06 124.776c.034.507.723 11.744-5.668 18.586a16.46 16.46 0 0 1-12.542 5.115l-125.79.536zm2.163-148.26l-18.213 123.206c-2.255 12.394 13.832 18.927 16.478 19.912l125.373-.474c3.794 0 6.696-1.13 8.875-3.454 4.91-5.237 4.354-14.74 4.35-14.837l-9.876-122.513z" transform="translate(0 -256.972)" class="O"/><path d="M1394.292 695.527c-2.858 15.717 18.5 22.86 18.5 22.86l125.802-.476c17.146 0 15.718-20.957 15.718-20.957-80.364-52.846-160.03-1.43-160.03-1.43z" fill="#b0bcaf"/><g transform="translate(0 -256.972)" class="O"><path d="M1412.802 978c-.273-.024-.54-.09-.793-.2a44 44 0 0 1-11.037-5.944c-7.328-5.515-10.488-12.368-9.14-19.787a2.5 2.5 0 0 1 2.901-2.019 2.5 2.5 0 0 1 2.019 2.901c-2.246 12.35 13.835 18.918 16.48 19.91l125.37-.475c3.794 0 6.696-1.13 8.875-3.454 4.91-5.238 4.354-14.742 4.35-14.838a2.5 2.5 0 0 1 4.988-.336c.032.476.72 11.73-5.67 18.572a16.47 16.47 0 0 1-12.542 5.125l-125.79.545z"/><path d="M1592.844 936h-40a2.5 2.5 0 0 1-2.491-2.285l-1.555-18a2.5 2.5 0 0 1 2.491-2.715h20.944l-25.686-30.462a2.5 2.5 0 0 1-.581-1.409l-2.347-28.865a2.5 2.5 0 0 1 4.431-1.781l46.722 57.34c.063.077.12.158.174.242.3.475 7.32 11.71 5.01 20.34-.824 3.183-2.992 5.85-5.94 7.308a2.51 2.51 0 0 1-1.162.286zm-37.717-5h37.06c1.455-.85 2.51-2.248 2.927-3.88 1.432-5.323-2.566-13.417-4.326-16.26l-41.54-50.982 1.63 20.05 28.637 33.962a2.5 2.5 0 0 1-1.912 4.111h-23.597z"/><path d="M1496.618 907.19a2.5 2.5 0 0 1-1.484-4.513c25.545-18.817 34.25-64.57 28.797-86.576-.998-4.03-3.404-10.9-8.302-11.635-18.192-2.728-36.136 23.857-36.315 24.127a2.5 2.5 0 1 1-4.163-2.77c.803-1.206 19.898-29.495 41.22-26.302 4.077.613 9.54 3.777 12.413 15.378 5.912 23.86-3.103 71.485-30.686 91.804-.43.317-.948.487-1.48.487z"/><path d="M1339.7 861.376c-6.4 0-13.93-1.74-23.046-5.867a2.5 2.5 0 0 1 2.063-4.555c29.155 13.197 39.252.062 52.033-16.565 5.865-7.63 11.93-15.518 20.4-21.638 7.603-5.488 15.65-7.574 23.916-6.202 16.85 2.796 28.473 18.95 28.96 19.637a2.5 2.5 0 1 1-4.077 2.895h0c-.107-.15-10.944-15.164-25.725-17.603-6.894-1.136-13.672.654-20.148 5.328-7.888 5.692-13.726 13.287-19.37 20.63-9.39 12.213-18.405 23.938-35.014 23.94z"/></g><path d="M1508.28 630.977s-31.713 22.12-17.9 57.737c0 0 36.4-11.74 17.9-57.737zm-198.768-67.18s21.5 32.138 57.378 19.03c0 0-11.03-36.612-57.378-19.03zm76.988.737s-30.333 23.98-14.423 58.706c0 0 35.623-13.897 14.423-58.706zm74.928 40.726s32.5 20.934 60.213-5.365c0 0-24.684-29.203-60.213 5.365zm64.34-22.292s-15.727 35.324 14.5 58.7c0 0 25.095-28.852-14.5-58.7zm-108.87-31.644s-14.012-27.06-43.26-19.948c0 0 5.42 29.642 43.26 19.948zm134.26 10.644s-8.687-20.558-30.45-17.034c0 0 2.266 21.953 30.45 17.034z" class="T"/><g class="S"><circle cx="1481.338" cy="804.951" r="15.502" transform="matrix(.229754 -.973249 .973249 .229754 357.5774 1804.7495)"/><circle cx="1513.338" cy="773.951" r="15.677" transform="matrix(.229754 -.973249 .973249 .229754 412.3961 1812.0158)"/></g></svg>