<svg id="Layer_1" data-name="Layer 1" xmlns="http://www.w3.org/2000/svg" xmlns:xlink="http://www.w3.org/1999/xlink" width="1984" height="729.0283" viewBox="0 0 1984 729.0283"><defs><style>.cls-1,.cls-13{fill:none;}.cls-2{fill:#c67042;}.cls-3{fill:#1d1d1b;}.cls-4{fill:#dee5dc;}.cls-5{fill:url(#New_Pattern_Swatch_7);}.cls-6{fill:#eaefe8;}.cls-7{fill:#fff;}.cls-8{fill:#f2cd00;}.cls-9{fill:#afb7ac;}.cls-10{fill:url(#New_Pattern_Swatch_3);}.cls-11{fill:url(#New_Pattern_Swatch_3-5);}.cls-12{fill:#fbfcfa;}.cls-13{stroke:#fff;stroke-linecap:round;stroke-linejoin:round;stroke-width:5px;}.cls-14{fill:#b0bcaf;}</style><pattern id="New_Pattern_Swatch_7" data-name="New Pattern Swatch 7" width="204.843" height="204.842" patternUnits="userSpaceOnUse" viewBox="0 0 204.843 204.842"><rect class="cls-1" width="204.843" height="204.842"/><rect class="cls-3" width="204.843" height="204.842"/></pattern><pattern id="New_Pattern_Swatch_3" data-name="New Pattern Swatch 3" y="-256.9717" width="204.843" height="204.842" patternUnits="userSpaceOnUse" viewBox="0 0 204.843 204.842"><rect class="cls-1" width="204.843" height="204.842"/><rect class="cls-2" width="204.843" height="204.842"/></pattern><pattern id="New_Pattern_Swatch_3-5" data-name="New Pattern Swatch 3" width="204.843" height="204.842" patternUnits="userSpaceOnUse" viewBox="0 0 204.843 204.842"><rect class="cls-1" width="204.843" height="204.842"/><rect class="cls-2" width="204.843" height="204.842"/></pattern></defs><circle class="cls-4" cx="610.6787" cy="378.1963" r="30.4268" transform="translate(-72.9762 -99.1771) rotate(-13.9015)"/><path class="cls-4" d="M587.4038,335.5508a22.1241,22.1241,0,1,0,22.124-22.1231A22.1243,22.1243,0,0,0,587.4038,335.5508Z" transform="translate(0 -256.9717)"/><path class="cls-5" d="M609.8472,450a2.3328,2.3328,0,0,1-2.5-2.2871l-.3194-121.167A2.5318,2.5318,0,0,1,609.5215,324h.0063a2.6254,2.6254,0,0,1,2.5,2.6348l.3194,120.9931A2.3864,2.3864,0,0,1,609.8535,450Z" transform="translate(0 -256.9717)"/><path class="cls-5" d="M609.8491,387.2979a2.5007,2.5007,0,0,1-1.1816-4.7051l16.44-8.8008a2.5,2.5,0,1,1,2.3594,4.4082l-16.44,8.8008A2.4883,2.4883,0,0,1,609.8491,387.2979Z" transform="translate(0 -256.9717)"/><path class="cls-5" d="M609.5293,350.27a2.4934,2.4934,0,0,1-1.9194-.8965l-12.9331-15.4687a2.5,2.5,0,1,1,3.8359-3.207l12.9331,15.4687a2.5,2.5,0,0,1-1.9165,4.1035Z" transform="translate(0 -256.9717)"/><path class="cls-4" d="M537.6108,349.0088a43.2363,43.2363,0,1,1-43.2358-43.2373A43.2366,43.2366,0,0,1,537.6108,349.0088Z" transform="translate(0 -256.9717)"/><path class="cls-4" d="M527.4482,288.4092A31.4382,31.4382,0,1,1,496.01,256.9717,31.4378,31.4378,0,0,1,527.4482,288.4092Z" transform="translate(0 -256.9717)"/><path class="cls-5" d="M495.5562,451H495.55a2.69,2.69,0,0,1-2.4936-2.7207l.4536-172.4531A2.8062,2.8062,0,0,1,496.01,273h.0063a2.701,2.701,0,0,1,2.4937,2.7324L498.0562,448.18A2.8006,2.8006,0,0,1,495.5562,451Z" transform="translate(0 -256.9717)"/><path class="cls-5" d="M495.5542,360.8887a2.49,2.49,0,0,1-1.1782-.2969L471.0142,348.085a2.5,2.5,0,0,1,2.36-4.4082l23.3618,12.5068a2.5008,2.5008,0,0,1-1.1821,4.7051Z" transform="translate(0 -256.9717)"/><path class="cls-5" d="M496.0083,308.2715a2.5,2.5,0,0,1-1.9165-4.1035L512.47,282.1875a2.5,2.5,0,0,1,3.836,3.207l-18.378,21.9805A2.4941,2.4941,0,0,1,496.0083,308.2715Z" transform="translate(0 -256.9717)"/><path class="cls-4" d="M0,669V416s1631.8554,16.8554,1850,235Z" transform="translate(0 -256.9717)"/><path class="cls-6" d="M0,669s984-204,1984-29V985L0,986Z" transform="translate(0 -256.9717)"/><path class="cls-5" d="M400.7549,616.7373a2.5,2.5,0,0,1-.4292-4.9619c1.5386-.27,156.5307-27.207,384.6684-43.4033,133.9859-9.5127,266.63-13.5186,394.2325-11.9,159.5273,2.02,311.6005,12.8789,451.9961,32.2754a2.5,2.5,0,0,1-.6836,4.9531c-140.19-19.3682-292.0557-30.2109-451.376-32.23-127.4688-1.6133-259.9678,2.3857-393.815,11.8887-227.8833,16.1787-382.6215,43.07-384.1582,43.34A2.4417,2.4417,0,0,1,400.7549,616.7373Z" transform="translate(0 -256.9717)"/><path class="cls-7" d="M1252.5654,466.8906,1150.2275,441.2s-7.3486-14.291,4.542-19.1885l92.8623,19.8692S1259.4053,453.7959,1252.5654,466.8906Z" transform="translate(0 -256.9717)"/><path class="cls-5" d="M1252.5654,469.3906a2.5006,2.5006,0,0,1-.6084-.0752l-102.3379-25.69a2.4983,2.4983,0,0,1-1.6152-1.2812c-.1728-.3379-4.2207-8.3458-1.6816-15.2481a12.6586,12.6586,0,0,1,7.4951-7.3955,2.494,2.494,0,0,1,1.4756-.1328l92.8623,19.8691a2.4968,2.4968,0,0,1,1.2549.6875,31.1111,31.1111,0,0,1,5.5312,8.32c3.0606,6.7647,3.0049,13.544-.16,19.6036A2.5,2.5,0,0,1,1252.5654,469.3906Zm-100.5508-30.3193L1251.15,463.958c3.5332-9.2441-2.9736-17.6641-4.8262-19.8008l-91.2812-19.53a7.4726,7.4726,0,0,0-4.0284,4.1953C1149.667,432.4863,1151.2051,437.0869,1152.0146,439.0713Z" transform="translate(0 -256.9717)"/><polygon class="cls-6" points="1111 218.251 1111 379.24 1419 453.165 1419 281.96 1111 218.251"/><path class="cls-5" d="M1419.5,712.6367a2.464,2.464,0,0,1-.583-.0693l-308-73.9248a2.5,2.5,0,0,1-1.917-2.4307V475.2227a2.5009,2.5009,0,0,1,3.0068-2.4483l308,63.709A2.5,2.5,0,0,1,1422,538.9316V710.1367a2.5005,2.5005,0,0,1-2.5,2.5ZM1114,634.2412l303,72.7246V540.9678L1114,478.293Z" transform="translate(0 -256.9717)"/><polygon class="cls-6" points="1419 281.96 1526.519 235.093 1526.85 397.578 1419 453.165 1419 281.96"/><path class="cls-5" d="M1419.5,712.6367a2.5,2.5,0,0,1-2.5-2.5V538.9316a2.5011,2.5011,0,0,1,1.499-2.291l107.2686-46.8672a2.5,2.5,0,0,1,3.501,2.2842l.456,162.4854a2.5,2.5,0,0,1-1.3535,2.2285l-107.7246,55.5869A2.5048,2.5048,0,0,1,1419.5,712.6367Zm2.5-172.0693V706.0332l102.7207-53.0039-.4414-157.1494Z" transform="translate(0 -256.9717)"/><polygon class="cls-6" points="1111.886 218.251 1246.679 177.448 1526.807 235.093 1419.576 281.96 1111.886 218.251"/><path class="cls-5" d="M1419.5762,541.4316a2.5423,2.5423,0,0,1-.5069-.0517l-307.69-63.709a2.5,2.5,0,0,1-.2178-4.8408l134.793-40.8028a2.4956,2.4956,0,0,1,1.2285-.0556l280.1279,57.6435a2.5005,2.5005,0,0,1,.4971,4.74l-107.2305,46.8672A2.5,2.5,0,0,1,1419.5762,541.4316Zm-297.5586-66.664,297.2861,61.5547,99.2881-43.3955-271.7959-55.9307Z" transform="translate(0 -256.9717)"/><path class="cls-5" d="M1419.5,599.5a2.4941,2.4941,0,0,1-.5811-.0684l-307.6142-73.5a2.5,2.5,0,1,1,1.1621-4.8632l306.7607,73.2959L1522.44,545.7305a2.5,2.5,0,1,1,2.1309,4.5234l-104.0059,49.0078A2.4945,2.4945,0,0,1,1419.5,599.5Z" transform="translate(0 -256.9717)"/><path class="cls-5" d="M1419.5,659.5313a2.4744,2.4744,0,0,1-.5537-.0625l-308-69.9727a2.5,2.5,0,0,1,1.1074-4.875L1419.19,654.3975l106.5127-52.4239a2.5,2.5,0,0,1,2.2071,4.4864l-107.3067,52.8144A2.5026,2.5026,0,0,1,1419.5,659.5313Z" transform="translate(0 -256.9717)"/><path class="cls-5" d="M1389,567.3271a8.5,8.5,0,1,1,8.5-8.5A8.51,8.51,0,0,1,1389,567.3271Zm0-12a3.5,3.5,0,1,0,3.5,3.5A3.5043,3.5043,0,0,0,1389,555.3271Z" transform="translate(0 -256.9717)"/><path class="cls-5" d="M1383,633.3271a8.5,8.5,0,1,1,8.5-8.5A8.51,8.51,0,0,1,1383,633.3271Zm0-12a3.5,3.5,0,1,0,3.5,3.5A3.5043,3.5043,0,0,0,1383,621.3271Z" transform="translate(0 -256.9717)"/><path class="cls-5" d="M1137,573.3271a8.5,8.5,0,1,1,8.5-8.5A8.51,8.51,0,0,1,1137,573.3271Zm0-12a3.5,3.5,0,1,0,3.5,3.5A3.5043,3.5043,0,0,0,1137,561.3271Z" transform="translate(0 -256.9717)"/><path class="cls-5" d="M1137,625.3271a8.5,8.5,0,1,1,8.5-8.5A8.51,8.51,0,0,1,1137,625.3271Zm0-12a3.5,3.5,0,1,0,3.5,3.5A3.5043,3.5043,0,0,0,1137,613.3271Z" transform="translate(0 -256.9717)"/><path class="cls-7" d="M1145.874,515.4736l-102.3379-25.69s-7.3486-14.291,4.542-19.1894l92.8623,19.87S1152.7139,502.3789,1145.874,515.4736Z" transform="translate(0 -256.9717)"/><path class="cls-5" d="M1145.874,517.9736a2.5006,2.5006,0,0,1-.6084-.0752l-102.3379-25.69a2.4983,2.4983,0,0,1-1.6152-1.2812c-.1729-.3379-4.2207-8.3457-1.6816-15.2481a12.6574,12.6574,0,0,1,7.4951-7.3965,2.4948,2.4948,0,0,1,1.4756-.1328l92.8623,19.87a2.4976,2.4976,0,0,1,1.2549.6875,31.1111,31.1111,0,0,1,5.5312,8.32c3.0605,6.7647,3.0049,13.544-.16,19.6036A2.5,2.5,0,0,1,1145.874,517.9736Zm-100.5508-30.3193,99.1358,24.8867c3.5332-9.2441-2.9736-17.664-4.8262-19.8008l-91.2812-19.5312a7.4769,7.4769,0,0,0-4.0284,4.1963C1042.9756,481.0693,1044.5137,485.67,1045.3232,487.6543Z" transform="translate(0 -256.9717)"/><path class="cls-8" d="M1176,485.6758s20.332-85.3477,42.166-88.5117S1265.3848,425,1265.3848,425l38.5263-89.2187s19.8057-27.7793,56.4473-17.78,68.9307,96.02,68.9307,96.02,41.1757,3.8818,47.9433,26.4307,14.73,63.82,14.73,63.82l-72.3867,31.66Z" transform="translate(0 -256.9717)"/><path class="cls-5" d="M1333.9805,436.9209a2.5009,2.5009,0,0,1-2.4092-1.8379l-5.4815-19.92a2.5064,2.5064,0,0,1,.0079-1.3555c.0459-.1592.0918-.3183.1367-.4785l-.0342.0664a2.5009,2.5009,0,0,1-3.3867,1.0127c-2.46-1.3262-14.8125-8.2451-16.4424-14.1826a5.0322,5.0322,0,0,1,.4853-4.0117,4.8106,4.8106,0,0,1,3.6573-2.3594c3.1328-.3486,7.1552,2.2275,10.3808,4.8652-.0879-3.9726.3946-8.6318,2.708-11.1972a6.03,6.03,0,0,1,5.0635-2.0166,5.1712,5.1712,0,0,1,3.9961,2.2861c3.9238,5.5928-.2451,21.9863-1.5664,26.7178l5.2959,19.247a2.5039,2.5039,0,0,1-2.4111,3.1641Zm-22.8155-38.1133c.045,1.3067,4.7813,6.2119,14.0225,11.2a2.5016,2.5016,0,0,1,1.3066,2.3818c2.3877-8.8242,3.8184-19.2412,2.0743-21.7265-.1123-.16-.1426-.1621-.2344-.169a1.0934,1.0934,0,0,0-1.0176.376c-1.83,2.0264-1.59,9.3779-.8525,13.709a2.5,2.5,0,0,1-4.2666,2.1523c-4.0713-4.2353-9.1963-7.9287-10.9278-7.9287A.8946.8946,0,0,0,1311.165,398.8076Z" transform="translate(0 -256.9717)"/><path class="cls-5" d="M1235.9805,469.9209a2.5009,2.5009,0,0,1-2.4092-1.8379l-5.4815-19.92a2.5064,2.5064,0,0,1,.0079-1.3555c.0459-.1592.0918-.3183.1367-.4785l-.0342.0664a2.5023,2.5023,0,0,1-3.3867,1.0127c-2.46-1.3262-14.8125-8.2451-16.4424-14.1826a5.0322,5.0322,0,0,1,.4853-4.0117,4.8106,4.8106,0,0,1,3.6573-2.3594c3.1377-.3506,7.1562,2.2266,10.3808,4.8652-.0879-3.9726.3946-8.6318,2.708-11.1972a6.0382,6.0382,0,0,1,5.0635-2.0166,5.1712,5.1712,0,0,1,3.9961,2.2861c3.9238,5.5928-.2451,21.9863-1.5664,26.7178l5.2959,19.247a2.5039,2.5039,0,0,1-2.4111,3.1641Zm-22.8155-38.1133c.045,1.3067,4.7813,6.2119,14.0225,11.2a2.5016,2.5016,0,0,1,1.3066,2.3818c2.3877-8.8242,3.8184-19.2412,2.0743-21.7265-.1123-.16-.1426-.1621-.2344-.169a1.0911,1.0911,0,0,0-1.0176.376c-1.83,2.0264-1.59,9.3779-.8525,13.709a2.5,2.5,0,0,1-4.2666,2.1523C1220.0381,435.4053,1214.76,431.6191,1213.165,431.8076Z" transform="translate(0 -256.9717)"/><path class="cls-5" d="M1320.5254,470.3477a2.4868,2.4868,0,0,1-1.501-.502l-16.51-12.42a2.5071,2.5071,0,0,1-.8222-1.0791q-.0909-.23-.1836-.461c.0049.0245.0088.0479.0127.0723a2.5,2.5,0,0,1-2.0615,2.8721c-2.7588.4541-16.7647,2.5224-21.6817-1.1826a5.0334,5.0334,0,0,1-2.0674-3.4727,4.8122,4.8122,0,0,1,1.4541-4.1016c2.2559-2.1865,7.0254-2.6113,11.19-2.4912-2.4961-3.0908-4.9619-7.0742-4.6973-10.5185a6.0491,6.0491,0,0,1,2.7764-4.69,5.1764,5.1764,0,0,1,4.5595-.6318c6.5235,2.03,13.2393,17.5557,15.085,22.1084l15.9512,12a2.5,2.5,0,0,1-1.5049,4.4981Zm-21.4678-16.4844a2.5041,2.5041,0,0,1,2.083,1.12c-3.5019-8.4453-8.7334-17.5664-11.6328-18.4678-.1875-.06-.2129-.041-.2881.01a1.09,1.09,0,0,0-.5761.9209c-.21,2.7314,4.4707,8.3994,7.7,11.37a2.5,2.5,0,0,1-2.0616,4.3125c-5.9326-.8838-12.3916-.6475-13.5761.4678,1.1435,1.4756,9.8,1.6357,17.9433.3A2.5244,2.5244,0,0,1,1299.0576,453.8633Z" transform="translate(0 -256.9717)"/><path class="cls-5" d="M1367.3857,376.1855a2.5,2.5,0,0,1-2.4961-2.4l-.8222-20.6436a2.4955,2.4955,0,0,1,.3154-1.3184q.12-.2152.2393-.4316c-.0147.0176-.0293.0352-.045.0518a2.5,2.5,0,0,1-3.5283.22c-2.0957-1.85-12.5576-11.39-12.7988-17.543a5.0335,5.0335,0,0,1,1.3828-3.7969,4.8076,4.8076,0,0,1,4.0967-1.4677c3.1211.3652,6.4629,3.791,9.0068,7.0927.8155-3.8886,2.3418-8.3183,5.1768-10.2919a6.0524,6.0524,0,0,1,5.39-.8155,5.1715,5.1715,0,0,1,3.3731,3.1319c2.5527,6.3378-5.2246,21.3593-7.585,25.6679l.7949,19.9453a2.5,2.5,0,0,1-2.3984,2.5977C1367.4531,376.1846,1367.42,376.1855,1367.3857,376.1855ZM1353.24,333.8262c-.4218,1.8183,4.9287,8.624,11.1182,14.0888a2.5,2.5,0,0,1,.7334,2.6123c4.3262-8.0527,8.0811-17.871,6.9463-20.6865-.0733-.1806-.1026-.1894-.19-.2168a1.0872,1.0872,0,0,0-1.0772.1358c-2.249,1.5654-3.68,8.7763-3.9375,13.1562a2.5,2.5,0,0,1-4.6445,1.1309C1359.12,338.8916,1354.8545,334.0381,1353.24,333.8262Z" transform="translate(0 -256.9717)"/><path class="cls-5" d="M1394.9141,457h-.045a2.69,2.69,0,0,1-2.456-2.7695l.3642-20.77a2.7073,2.7073,0,0,1,.3907-1.3545c.0888-.1386.1777-.3076.2666-.4492-.0166.0186-.0342.0225-.0508.04a2.5021,2.5021,0,0,1-3.5361.0088c-1.9854-1.9668-11.8819-12.0938-11.77-18.25a5.0341,5.0341,0,0,1,1.5977-3.7139,4.8241,4.8241,0,0,1,4.1748-1.2324c3.0957.5439,6.2353,4.1543,8.5849,7.5976,1.0381-3.8359,2.8155-8.1709,5.7588-9.9785a6.0467,6.0467,0,0,1,5.4268-.5049,5.1716,5.1716,0,0,1,3.1885,3.32c2.1855,6.4746-6.4424,21.0245-9.045,25.19l-.3515,20.1836A2.7044,2.7044,0,0,1,1394.9141,457Zm-11.8379-43.5557c-.5254,1.79,4.4258,8.8916,10.291,14.7022a2.5013,2.5013,0,0,1,.581,2.6553c4.7823-7.792,9.0957-17.3819,8.1241-20.2579-.0625-.1855-.0918-.1962-.1778-.2285a1.0911,1.0911,0,0,0-1.084.0742c-2.3339,1.4336-4.1757,8.5508-4.6845,12.9083a2.5,2.5,0,0,1-4.7022.8623C1388.6563,418.8369,1384.6758,413.7461,1383.0762,413.4443Z" transform="translate(0 -256.9717)"/><path class="cls-5" d="M1342.5,441.5a2.5,2.5,0,0,1-2.5-2.5V429a2.5,2.5,0,0,1,5,0v10A2.5,2.5,0,0,1,1342.5,441.5Z" transform="translate(0 -256.9717)"/><path class="cls-5" d="M1404.69,464.501a2.5026,2.5026,0,0,1-2.3643-3.3135l3.8105-11.0859a2.5,2.5,0,1,1,4.7286,1.625l-3.8106,11.0859A2.501,2.501,0,0,1,1404.69,464.501Z" transform="translate(0 -256.9717)"/><path class="cls-5" d="M1383.001,507.001a2.5,2.5,0,0,1-2.2871-1.49l-5.5-12.4355a2.5,2.5,0,1,1,4.5722-2.0215l5.5,12.4356a2.5025,2.5025,0,0,1-2.2851,3.5117Z" transform="translate(0 -256.9717)"/><path class="cls-5" d="M1391.5,504.501a2.503,2.503,0,0,1-2.3721-1.71l-3-9a2.5005,2.5005,0,0,1,4.7442-1.582l3,9a2.5018,2.5018,0,0,1-2.3721,3.292Z" transform="translate(0 -256.9717)"/><path class="cls-5" d="M1227.001,473.0947a2.5,2.5,0,0,1-2.3-1.5176l-3.6778-8.5937a2.5,2.5,0,0,1,4.5977-1.9668l3.6777,8.5938a2.5016,2.5016,0,0,1-2.2978,3.4843Z" transform="translate(0 -256.9717)"/><path class="cls-5" d="M1313.998,477.7227a2.4876,2.4876,0,0,1-1.3115-.3731l-7.5-4.6289a2.5,2.5,0,1,1,2.627-4.2539l7.5,4.6289a2.5,2.5,0,0,1-1.3155,4.627Z" transform="translate(0 -256.9717)"/><path class="cls-5" d="M1444.5,455.5a2.5,2.5,0,0,1-2.5-2.5V442a2.5,2.5,0,0,1,5,0v11A2.5,2.5,0,0,1,1444.5,455.5Z" transform="translate(0 -256.9717)"/><path class="cls-5" d="M1452.0029,455.5a2.5336,2.5336,0,0,1-.45-.04,2.5007,2.5007,0,0,1-2.0127-2.9073l2-11a2.5,2.5,0,0,1,4.92.8946l-2,11A2.5014,2.5014,0,0,1,1452.0029,455.5Z" transform="translate(0 -256.9717)"/><path class="cls-5" d="M1374.5029,376.5a2.2746,2.2746,0,0,1-.2295-.0107,2.4994,2.4994,0,0,1-2.2627-2.7159l1-11a2.5,2.5,0,1,1,4.9786.4532l-1,11A2.4992,2.4992,0,0,1,1374.5029,376.5Z" transform="translate(0 -256.9717)"/><path class="cls-5" d="M471.5356,777.2559l296.0655-80.1748s51.0132,9.122,39.2441,98.0478L510.5664,900.8184" transform="translate(0 -256.9717)"/><path class="cls-5" d="M510.5664,903.3193a2.5,2.5,0,0,1-.84-4.8554L804.5615,793.2891c3.0928-24.712,2.8609-57.9063-14.8374-78.9209-9.3388-11.0889-19.6836-14.1377-22.06-14.7139L472.189,779.6689a2.5,2.5,0,0,1-1.3067-4.8261L766.9478,694.668a2.474,2.474,0,0,1,1.0932-.0479c.5571.1,13.7783,2.6,25.5078,16.5274,19.2373,22.8418,19.1963,58.455,15.7749,84.3095a2.5,2.5,0,0,1-1.6386,2.0264l-296.2788,105.69A2.4812,2.4812,0,0,1,510.5664,903.3193Z" transform="translate(0 -256.9717)"/><circle class="cls-4" cx="480.4141" cy="842.7109" r="65.4551" transform="translate(-455.1766 329.5567) rotate(-45)"/><path class="cls-5" d="M480.4141,910.666a67.9551,67.9551,0,1,1,67.955-67.9551A68.0319,68.0319,0,0,1,480.4141,910.666Zm0-130.91a62.9551,62.9551,0,1,0,62.955,62.955A63.0263,63.0263,0,0,0,480.4141,779.7559Z" transform="translate(0 -256.9717)"/><path class="cls-6" d="M499.042,842.7109a18.6282,18.6282,0,1,1-18.6279-18.6279A18.6281,18.6281,0,0,1,499.042,842.7109Z" transform="translate(0 -256.9717)"/><path class="cls-5" d="M480.4141,863.8389a21.128,21.128,0,1,1,21.1279-21.128A21.1519,21.1519,0,0,1,480.4141,863.8389Zm0-37.2559a16.128,16.128,0,1,0,16.1279,16.1279A16.1469,16.1469,0,0,0,480.4141,826.583Z" transform="translate(0 -256.9717)"/><path class="cls-5" d="M598.8291,818.2334l296.0654-80.1748s51.0132,9.1221,39.2442,98.0478L637.86,941.7959" transform="translate(0 -256.9717)"/><path class="cls-5" d="M637.86,944.2969a2.5006,2.5006,0,0,1-.84-4.8555L931.855,834.2666c3.0923-24.7119,2.8608-57.9062-14.8374-78.9209-9.3389-11.0889-19.6836-14.1377-22.06-14.7139L599.4824,820.6465a2.5,2.5,0,1,1-1.3066-4.8262l296.0654-80.1748a2.4751,2.4751,0,0,1,1.0933-.0478c.5571.1,13.7783,2.6,25.5078,16.5273,19.2373,22.8418,19.1963,58.4561,15.7749,84.31a2.5,2.5,0,0,1-1.6387,2.0263L638.7,944.15A2.48,2.48,0,0,1,637.86,944.2969Z" transform="translate(0 -256.9717)"/><circle class="cls-4" cx="607.707" cy="626.7168" r="65.4551"/><path class="cls-5" d="M607.707,951.6436a67.9551,67.9551,0,1,1,67.9551-67.9551A68.0318,68.0318,0,0,1,607.707,951.6436Zm0-130.91a62.9551,62.9551,0,1,0,62.9551,62.9551A63.0263,63.0263,0,0,0,607.707,820.7334Z" transform="translate(0 -256.9717)"/><circle class="cls-6" cx="607.707" cy="883.6885" r="18.6279" transform="translate(-461.9747 549.2949) rotate(-51.3442)"/><path class="cls-5" d="M607.707,904.8164a21.128,21.128,0,1,1,21.128-21.1279A21.1516,21.1516,0,0,1,607.707,904.8164Zm0-37.2559a16.128,16.128,0,1,0,16.128,16.128A16.1464,16.1464,0,0,0,607.707,867.5605Z" transform="translate(0 -256.9717)"/><path class="cls-5" d="M728.7378,834.7988l296.0649-80.1748s51.0147,9.1221,39.2442,98.0479L767.7686,958.3613" transform="translate(0 -256.9717)"/><path class="cls-5" d="M767.7686,960.8623a2.5006,2.5006,0,0,1-.84-4.8555l294.835-105.1748c4.3515-34.72-.6895-61.8935-14.6084-78.6465-9.334-11.2363-19.8887-14.3906-22.2949-14.9873L729.3911,837.2119a2.5,2.5,0,0,1-1.3066-4.8262l296.0649-80.1748a2.4785,2.4785,0,0,1,1.0938-.0478c.5566.1,13.7783,2.6,25.5078,16.5273,19.2373,22.8418,19.1963,58.4561,15.7744,84.31a2.5005,2.5005,0,0,1-1.6387,2.0264L768.6084,960.7158A2.48,2.48,0,0,1,767.7686,960.8623Z" transform="translate(0 -256.9717)"/><circle class="cls-4" cx="737.6158" cy="643.2822" r="65.4552"/><path class="cls-5" d="M737.6157,968.209a67.9551,67.9551,0,1,1,67.9556-67.9551A68.0319,68.0319,0,0,1,737.6157,968.209Zm0-130.91a62.9551,62.9551,0,1,0,62.9556,62.9551A63.0263,63.0263,0,0,0,737.6157,837.2988Z" transform="translate(0 -256.9717)"/><path class="cls-6" d="M756.2441,900.2539a18.6282,18.6282,0,1,1-18.6284-18.6279A18.6281,18.6281,0,0,1,756.2441,900.2539Z" transform="translate(0 -256.9717)"/><path class="cls-5" d="M737.6157,921.3818a21.1279,21.1279,0,1,1,21.1284-21.1279A21.1516,21.1516,0,0,1,737.6157,921.3818Zm0-37.2558a16.1279,16.1279,0,1,0,16.1284,16.1279A16.1464,16.1464,0,0,0,737.6157,884.126Z" transform="translate(0 -256.9717)"/><path class="cls-5" d="M576.23,675.5459l301.8384-54.55S928.1143,634.45,908.78,722.043L604.5449,801.9951" transform="translate(0 -256.9717)"/><path class="cls-5" d="M604.5435,804.4961a2.5006,2.5006,0,0,1-.6338-4.919l302.7529-79.5625c7.3062-34.22,4.6079-61.7255-7.8262-79.6093-8.3393-11.9932-18.5854-16.0391-20.9316-16.8389l-301.23,54.4395a2.5,2.5,0,0,1-.89-4.92l301.8383-54.55a2.493,2.493,0,0,1,1.0938.0459c.5464.1465,13.5054,3.77,24,18.6494,17.2129,24.4043,14.1255,59.8838,8.5044,85.3506a2.5006,2.5006,0,0,1-1.8062,1.8789L605.18,804.4131A2.5156,2.5156,0,0,1,604.5435,804.4961Z" transform="translate(0 -256.9717)"/><path class="cls-4" d="M644.69,747.1211a65.4551,65.4551,0,1,1-59.6147-70.8154A65.4553,65.4553,0,0,1,644.69,747.1211Z" transform="translate(0 -256.9717)"/><path class="cls-5" d="M579.5488,809.4805c-1.9521,0-3.9331-.085-5.8882-.253a67.9579,67.9579,0,0,1,5.74-135.666c1.9521,0,3.9331.085,5.8882.253a67.9579,67.9579,0,0,1-5.74,135.666Zm-.1479-130.919a62.9573,62.9573,0,0,0-5.3125,125.6836c1.8135.1563,3.65.2354,5.46.2354a62.9573,62.9573,0,0,0,5.3125-125.6836C583.0479,678.6406,581.2109,678.5615,579.4009,678.5615Z" transform="translate(0 -256.9717)"/><path class="cls-6" d="M598.0347,743.1143a18.6283,18.6283,0,1,1-16.9659-20.1524A18.6274,18.6274,0,0,1,598.0347,743.1143Z" transform="translate(0 -256.9717)"/><path class="cls-5" d="M579.4971,762.6494c-.607,0-1.2227-.0264-1.83-.0781a21.1279,21.1279,0,0,1-19.2432-22.8574,21.252,21.252,0,0,1,21.0288-19.3213c.607,0,1.2227.0263,1.83.0781a21.1294,21.1294,0,0,1,19.2427,22.8574A21.2516,21.2516,0,0,1,579.4971,762.6494Zm-.0445-37.2568a16.22,16.22,0,0,0-16.0473,14.749,16.1273,16.1273,0,0,0,14.6894,17.4473c.4658.04.9375.0605,1.4024.0605A16.22,16.22,0,0,0,595.5439,742.9a16.1273,16.1273,0,0,0-14.6889-17.4473C580.3892,725.4131,579.9175,725.3926,579.4526,725.3926Z" transform="translate(0 -256.9717)"/><path class="cls-5" d="M668.7441,586.4766,973.49,551.65s49.065,16.6758,24.0826,102.8262L688.7852,714.4971" transform="translate(0 -256.9717)"/><path class="cls-5" d="M688.7822,716.9971a2.5,2.5,0,0,1-.4741-4.9541l307.2827-59.7285c9.5127-33.6719,8.6074-61.294-2.6382-79.9473-7.5424-12.51-17.5034-17.2129-19.7924-18.1631L669.0278,588.96a2.5,2.5,0,1,1-.5674-4.9668L973.2061,549.167a2.4967,2.4967,0,0,1,1.0883.1162c.5357.1826,13.231,4.6387,22.7369,20.1689,15.5908,25.4708,10.205,60.6739,2.9423,85.7208a2.5006,2.5006,0,0,1-1.9248,1.7578l-308.7866,60.02A2.5233,2.5233,0,0,1,688.7822,716.9971Z" transform="translate(0 -256.9717)"/><path class="cls-4" d="M732.41,662.3477a65.4547,65.4547,0,1,1-54.8877-74.5391A65.4542,65.4542,0,0,1,732.41,662.3477Z" transform="translate(0 -256.9717)"/><path class="cls-5" d="M667.7778,720.4873a68.7575,68.7575,0,0,1-10.2812-.7793,67.9606,67.9606,0,0,1,10.1206-135.1494,68.7316,68.7316,0,0,1,10.28.7783,67.9611,67.9611,0,0,1-10.1192,135.15Zm-.1606-130.9287a62.96,62.96,0,0,0-9.37,125.206,63.6725,63.6725,0,0,0,9.5307.7227,62.9606,62.9606,0,0,0,9.3687-125.207A63.6526,63.6526,0,0,0,667.6172,589.5586Z" transform="translate(0 -256.9717)"/><path class="cls-6" d="M686.1143,655.32a18.6287,18.6287,0,1,1-15.6211-21.2139A18.6257,18.6257,0,0,1,686.1143,655.32Z" transform="translate(0 -256.9717)"/><path class="cls-5" d="M667.7227,673.6523a21.1284,21.1284,0,1,1,20.8632-17.957A21.3218,21.3218,0,0,1,667.7227,673.6523Zm-.0469-37.2587a16.14,16.14,0,1,0,2.4419.1845A16.2245,16.2245,0,0,0,667.6758,636.3936Z" transform="translate(0 -256.9717)"/><path class="cls-5" d="M702.65,707.8047l301.8389-54.5488s50.0468,13.4531,30.7119,101.0459L730.9668,834.2549" transform="translate(0 -256.9717)"/><path class="cls-5" d="M730.9653,836.7559a2.5006,2.5006,0,0,1-.6338-4.919l302.7515-79.5635c5.1963-24.3574,7.8057-57.4492-8.03-79.9013-8.3564-11.8477-18.4023-15.77-20.7207-16.5479l-301.2368,54.44a2.5,2.5,0,1,1-.8891-4.92l301.8388-54.5488a2.5076,2.5076,0,0,1,1.0938.0459c.5459.1465,13.5049,3.7686,24,18.6484,17.2129,24.4043,14.125,59.8838,8.5039,85.3506a2.5009,2.5009,0,0,1-1.8057,1.8789L731.6021,836.6729A2.52,2.52,0,0,1,730.9653,836.7559Z" transform="translate(0 -256.9717)"/><path class="cls-4" d="M771.1108,779.3809a65.4548,65.4548,0,1,1-59.6147-70.8155A65.4536,65.4536,0,0,1,771.1108,779.3809Z" transform="translate(0 -256.9717)"/><path class="cls-5" d="M705.9712,841.7393c-1.9526,0-3.9341-.085-5.89-.253a67.9573,67.9573,0,0,1,5.74-135.665c1.9521,0,3.9331.085,5.8882.2529a67.9573,67.9573,0,0,1-5.7388,135.6651Zm-.1494-130.918a62.9568,62.9568,0,0,0-5.3125,125.6826c1.8139.1563,3.6513.2354,5.4619.2354a62.9568,62.9568,0,0,0,5.311-125.6827C709.4688,710.9,707.6318,710.8213,705.8218,710.8213Z" transform="translate(0 -256.9717)"/><path class="cls-6" d="M724.4561,775.374A18.6284,18.6284,0,1,1,707.49,755.2207,18.6266,18.6266,0,0,1,724.4561,775.374Z" transform="translate(0 -256.9717)"/><path class="cls-5" d="M705.9185,794.9082c-.607,0-1.2227-.0264-1.83-.0781a21.1279,21.1279,0,0,1-19.2432-22.8574,21.2516,21.2516,0,0,1,21.0288-19.3213c.607,0,1.2222.0263,1.83.0781a21.1281,21.1281,0,0,1-1.7851,42.1787Zm-.0445-37.2568A16.22,16.22,0,0,0,689.8267,772.4a16.1273,16.1273,0,0,0,14.6894,17.4473c.4658.04.9375.06,1.4024.06a16.1277,16.1277,0,0,0,1.3574-32.1963C706.81,757.6719,706.3384,757.6514,705.874,757.6514Z" transform="translate(0 -256.9717)"/><path class="cls-9" d="M786.2021,846.7119a2,2,0,0,1-.538-3.9267l253.44-70.9317a2,2,0,0,1,1.0781,3.8516l-253.44,70.9316A1.9894,1.9894,0,0,1,786.2021,846.7119Z" transform="translate(0 -256.9717)"/><path class="cls-9" d="M799.2021,864.7119a2,2,0,0,1-.538-3.9267l253.44-70.9317a2,2,0,0,1,1.0781,3.8516l-253.44,70.9316A1.9894,1.9894,0,0,1,799.2021,864.7119Z" transform="translate(0 -256.9717)"/><path class="cls-9" d="M812.2021,889.7119a2.0006,2.0006,0,0,1-.5688-3.918l245.4409-72.9316a2,2,0,0,1,1.1387,3.834l-245.44,72.9316A1.9954,1.9954,0,0,1,812.2021,889.7119Z" transform="translate(0 -256.9717)"/><path class="cls-9" d="M809.2026,918.7119a2,2,0,0,1-.63-3.8984l249.44-82.9317a2,2,0,0,1,1.2617,3.795l-249.44,82.9316A1.9774,1.9774,0,0,1,809.2026,918.7119Z" transform="translate(0 -256.9717)"/><path class="cls-9" d="M761.3721,718.4414a2,2,0,0,1-.3789-3.9639l248.5986-48.2041a2,2,0,0,1,.7617,3.9278L761.7549,718.4053A2.0567,2.0567,0,0,1,761.3721,718.4414Z" transform="translate(0 -256.9717)"/><path class="cls-9" d="M772.4312,736.7207a2,2,0,0,1-.3785-3.9639l248.5987-48.205a2,2,0,1,1,.7617,3.9277L772.8145,736.6846A2.0588,2.0588,0,0,1,772.4312,736.7207Z" transform="translate(0 -256.9717)"/><path class="cls-9" d="M782.9434,761.7119a2,2,0,0,1-.41-3.957l241.082-50.7481a2,2,0,0,1,.8243,3.9141l-241.0821,50.748A2.0073,2.0073,0,0,1,782.9434,761.7119Z" transform="translate(0 -256.9717)"/><path class="cls-9" d="M777.7993,789.2881a2,2,0,0,1-.4731-3.9434l245.7-60.0234a2,2,0,0,1,.9492,3.8848l-245.7,60.0253A2.045,2.045,0,0,1,777.7993,789.2881Z" transform="translate(0 -256.9717)"/><path class="cls-9" d="M740.3608,605.8828a2,2,0,0,1-.2338-3.9863l232.4082-27.6846a2,2,0,0,1,.4726,3.9727L740.6,605.8691A2.1923,2.1923,0,0,1,740.3608,605.8828Z" transform="translate(0 -256.9717)"/><path class="cls-9" d="M826.6924,616.6875a2,2,0,0,1-.2647-3.9824l155.04-20.8946a2,2,0,0,1,.5342,3.9649L826.9619,616.67A2.101,2.101,0,0,1,826.6924,616.6875Z" transform="translate(0 -256.9717)"/><path class="cls-9" d="M757.33,647.2236a2,2,0,0,1-.2656-3.9814l225.6518-30.5361a2,2,0,1,1,.5361,3.9638L757.6006,647.2061A2.1174,2.1174,0,0,1,757.33,647.2236Z" transform="translate(0 -256.9717)"/><path class="cls-9" d="M750.73,672.2969a2,2,0,0,1-.3291-3.9727l230.5337-38.7763a2,2,0,0,1,.6631,3.9453L751.0635,672.27A2.0407,2.0407,0,0,1,750.73,672.2969Z" transform="translate(0 -256.9717)"/><path class="cls-5" d="M959.5889,546.6621a29.8168,29.8168,0,0,1-8.2813-1.2734,2.4681,2.4681,0,0,1-.5024-.208L906.187,520.7451c-1.4878-.7568-37.9707-20.1728-38.2964-91.3779a2.5,2.5,0,0,1,3.9922-2.0176L930,470.5889V384.0176a2.5,2.5,0,0,1,4.3662-1.6631c7.353,8.2471,29.0449,29.6514,40.96,29.6514a6.2045,6.2045,0,0,0,4.4624-1.62A2.5,2.5,0,0,1,984,412.208v99.9746C983.7891,524.1377,978.416,546.6621,959.5889,546.6621Zm-6.627-6a24.6236,24.6236,0,0,0,6.627,1c18.6728,0,19.4111-29.2285,19.4111-29.5234V416.4814a11.8421,11.8421,0,0,1-3.6738.5245c-12.8106,0-31.813-17.9229-40.3262-26.6729v85.2315a2.5,2.5,0,0,1-3.9922,2.0058l-58.0259-43.1709c.6079,19.1758,4.41,44.3408,17.8833,64.2744,8.75,12.9453,17.5767,17.6094,17.6646,17.6553Z" transform="translate(0 -256.9717)"/><path class="cls-5" d="M941.5,394.5A2.5,2.5,0,0,1,939,392V354.9639c-2.23-4.5205-12.74-27.1-4.8188-35.89,7.8457-8.706,19.43-11.4863,19.9189-11.6006a2.5,2.5,0,0,1,3.002,3.0049,35.86,35.86,0,0,1-4.3853,10.2627c3.0312,1.5879,6.7485,5.2744,7.6333,13.8262a2.5,2.5,0,0,1-4.9736.5137c-1.0674-10.3194-6.8565-10.543-6.9151-10.544a2.5,2.5,0,0,1-1.7378-4.2519,21.1649,21.1649,0,0,0,3.9717-6.4112,35.2547,35.2547,0,0,0-12.8,8.5479c-4.5561,5.0556,1.1611,21.5888,5.835,30.8222a2.51,2.51,0,0,1,.2695,1.13V392A2.5,2.5,0,0,1,941.5,394.5Z" transform="translate(0 -256.9717)"/><path class="cls-5" d="M972.5,407.5A2.5,2.5,0,0,1,970,405V367.4512a2.4994,2.4994,0,0,1,.71-1.7451l15.6938-16.1a2.5,2.5,0,0,1,3.58,3.49L975,368.4678V405A2.5,2.5,0,0,1,972.5,407.5Z" transform="translate(0 -256.9717)"/><path class="cls-5" d="M1037.833,363.2637c-13.5088,0-30.1543-8.4912-31.6221-9.2549L956.583,331.8076a2.5,2.5,0,0,1,2.042-4.5644l49.6963,22.2324c.0478.0215.0947.0439.14.0683.2286.1182,22.8809,11.8682,35.01,7.95a9.0256,9.0256,0,0,0,5.6231-4.6738,5.0946,5.0946,0,0,0,.0468-4.0322c-4.5625-13.57-43.8769-35.4541-58.64-42.74-23.9512-12.7725-60.4239-27.3614-66.7378-19.9239a8.5147,8.5147,0,0,0-2.1455,6.8643c1.082,8.6924,13.188,17.4121,13.31,17.499a2.5,2.5,0,0,1-2.8979,4.0752c-.5713-.4062-14.0112-10.0713-15.3726-20.9463a13.4387,13.4387,0,0,1,3.2945-10.7285c5.18-6.0986,18.7949-4.6875,41.622,4.3213,16.0762,6.3447,31.0611,14.3115,31.2105,14.3906,2.1728,1.0713,54.9424,27.293,61.0957,45.5947a9.9574,9.9574,0,0,1-.3135,7.8623,13.9763,13.9763,0,0,1-8.5644,7.1973A23.4518,23.4518,0,0,1,1037.833,363.2637Z" transform="translate(0 -256.9717)"/><path class="cls-5" d="M1052.0322,350.3359a2.501,2.501,0,0,1-2.2724-1.455c-13.6494-29.6289-37.9688-49.543-72.2813-59.19a154.5677,154.5677,0,0,0-48.0156-5.6259,2.5,2.5,0,0,1-.39-4.9844,156.5363,156.5363,0,0,1,49.5982,5.7519c24.6616,6.9043,57.8013,23.2569,75.6294,61.9571a2.5019,2.5019,0,0,1-2.2686,3.5468Z" transform="translate(0 -256.9717)"/><path class="cls-5" d="M1036.2725,325.1533a2.5,2.5,0,0,1-2.0694-3.9c.0772-.1142,7.875-11.9345,4.8838-24.9072-1.9248-8.3486-7.8887-15.4824-17.7285-21.2021-14.4961-8.4278-28.041-9.5459-40.2563-3.3233A40.9557,40.9557,0,0,0,967.02,283.67a2.5,2.5,0,1,1-4.1377-2.8066c.2217-.3262,22.5728-32.374,60.99-10.042,11.1015,6.4531,17.8642,14.6816,20.1,24.4541,3.456,15.1133-5.2539,28.2275-5.626,28.7783A2.4972,2.4972,0,0,1,1036.2725,325.1533Z" transform="translate(0 -256.9717)"/><path class="cls-5" d="M1040.957,314.4121a2.4982,2.4982,0,0,1-2.1211-1.1728c-18.3759-29.3428-67.0932-35.4561-67.5835-35.5147a2.5,2.5,0,0,1,.5889-4.9648,141.6411,141.6411,0,0,1,28.0317,6.9384c20.0909,7.1592,35.03,17.84,43.2012,30.8868a2.5,2.5,0,0,1-2.1172,3.8271Z" transform="translate(0 -256.9717)"/><path class="cls-5" d="M981.145,414.708a2.5,2.5,0,0,1-1.7417-4.2939,6.1492,6.1492,0,0,0,2.1651-5.1416c-.4991-5.34-7.7632-11.2412-10.52-13.0645a2.5,2.5,0,0,1,2.753-4.1748c1.2182.8027,11.9262,8.0928,12.7446,16.7647a11.1359,11.1359,0,0,1-3.6592,9.2041A2.4918,2.4918,0,0,1,981.145,414.708Z" transform="translate(0 -256.9717)"/><path class="cls-5" d="M831.0459,378.0518a12.4518,12.4518,0,0,1-6.3208-1.95,2.5,2.5,0,0,1,2.7529-4.1739c.6734.4336,2.7876,1.46,4.4961,1.01a3.9753,3.9753,0,0,0,2.4209-2.2461,2.5,2.5,0,0,1,4.4317,2.3164,8.8058,8.8058,0,0,1-5.6236,4.7764A8.6,8.6,0,0,1,831.0459,378.0518Z" transform="translate(0 -256.9717)"/><path class="cls-5" d="M867.6646,371.9482a12.4462,12.4462,0,0,1-6.3208-1.95,2.5,2.5,0,0,1,2.7529-4.1738c.6738.4356,2.789,1.461,4.4956,1.01a3.9758,3.9758,0,0,0,2.4209-2.2461,2.5,2.5,0,0,1,4.4316,2.3164,8.811,8.811,0,0,1-5.6235,4.7773A8.6413,8.6413,0,0,1,867.6646,371.9482Z" transform="translate(0 -256.9717)"/><path class="cls-5" d="M847.7881,420.7725a94.1226,94.1226,0,0,1-18.6289-2.0508,126.4247,126.4247,0,0,1-21.1665-6.2383,2.5,2.5,0,0,1,1.9145-4.6191c.3472.1435,35.0088,14.2763,56.4073,4.3554,16.7783-7.7783,4.7929-45.4463-1.2408-59.3047a2.5,2.5,0,0,1,4.584-1.9961c.9653,2.2168,23.3609,54.4327-1.2407,65.8379C862.6445,419.4326,855.7427,420.7725,847.7881,420.7725Z" transform="translate(0 -256.9717)"/><path class="cls-5" d="M797.6128,424.88a2.5,2.5,0,0,1-2.4736-2.1572l-4.0484-29.2373c-5.4306-.045-10.2417-1.9346-13.1723-5.253-2.1241-2.4053-4.334-6.7636-2.7994-13.873a9.7984,9.7984,0,0,1,5.3765-7.2266c6.9-3.2568,17.1231,1.8164,18.2656,2.4063a2.5,2.5,0,0,1-2.289,4.4453h0c-2.5044-1.2852-9.8745-4.208-13.8462-2.3281-.8648.4091-2.0767,1.2441-2.6192,3.7578-.8784,4.0683-.32,7.2675,1.6592,9.5078,2.3057,2.6123,6.5615,3.914,11.3687,3.4853a2.4949,2.4949,0,0,1,2.6982,2.1475l4.3594,31.4824a2.5008,2.5008,0,0,1-2.1338,2.8193A2.5845,2.5845,0,0,1,797.6128,424.88Z" transform="translate(0 -256.9717)"/><path class="cls-5" d="M808.95,383H813.31L808.95,352.0615,769.7158,322.001s-20.0527,18.3945-9.59,47.6338c10.4624,29.2412,34.0234,27.7246,34.0234,27.7246s4.7041-6.1153-.8926-6.4668c-5.7167-.3574-16.1513-2.1543-15.6933-15.8506C777.9951,362.1172,802.8467,369,808.95,383Z" transform="translate(0 -256.9717)"/><path class="cls-5" d="M773.2031,318.627l40.1065,33.29s43.1572-.5947,57.1074-7.1338l4.7954,12.207s20.4888-32.26-4.7954-53.6211S799.36,269.3662,773.2031,318.627Z" transform="translate(0 -256.9717)"/><path class="cls-5" d="M746.1753,636.5107a2.4992,2.4992,0,0,1-2.4932-2.6826L755.2739,475.44c.0674-2.3711,1.9678-48.5371,42.2305-50.3271a18.2333,18.2333,0,0,0,3.0459.2988l33.09,17.9209,24.2368-21.0947a2.4973,2.4973,0,0,1,2.5938-.4258l8.459,3.4863c.082.0342.1626.0723.2407.1143,1.1645.6328,28.5386,15.8828,30.3345,50.0205,1.7285,32.8379.02,130.8418.0029,131.8271a2.5011,2.5011,0,0,1-2.0625,2.418l-150.8335,26.794A2.5493,2.5493,0,0,1,746.1753,636.5107Zm51.6909-206.413c-.0464.0048-.0928.0078-.14.01-15.1841.6758-26.0826,8.4112-32.3926,22.9912a66.4739,66.4739,0,0,0-5.063,22.501c0,.0488-.0024.0986-.0064.1475l-11.3613,155.24,145.6406-25.8721c.2364-14.3359,1.5489-99.3984-.0317-129.4189-1.5928-30.2744-25.8433-44.8057-27.6289-45.833l-6.8887-2.8389-.1933.168a2.4962,2.4962,0,0,1,.6416,2.2256L853.25,464.73a2.5,2.5,0,0,1-4.1294,1.3525l-14.66-13.2949-10.99,16.7383a2.5416,2.5416,0,0,1-2.1938,1.126,2.5007,2.5007,0,0,1-2.0928-1.3047Zm7.7119,3.7236,16.0054,29.4678,10.0747-15.3438Zm30.689,13.8545,12.9595,11.7529,5.7031-27.9961Z" transform="translate(0 -256.9717)"/><polygon class="cls-10" points="808 361.028 788 361.028 788 172.028 800.307 172.028 808 186.692 808 361.028"/><line class="cls-7" x1="833.9746" y1="192" x2="838.585" y2="301.7109"/><path class="cls-5" d="M838.583,561.1826a2.4992,2.4992,0,0,1-2.4956-2.3955l-4.6108-109.7109a2.501,2.501,0,0,1,2.393-2.6026,2.5375,2.5375,0,0,1,2.6026,2.3936l4.6108,109.7109a2.5011,2.5011,0,0,1-2.3931,2.6026C838.6543,561.1816,838.6187,561.1826,838.583,561.1826Z" transform="translate(0 -256.9717)"/><polygon class="cls-10" points="879 361.028 858 361.028 858 172.384 862.552 167.152 879 179.358 879 361.028"/><path class="cls-11" d="M746,634.2441V687.43s6.67,35.7461,39.67,27.0273,72.3872-25.2841,72.3872-25.2841,23.2905-10.4629,32.8809-33.1309,6.2173-48.8252,6.2173-48.8252Z" transform="translate(0 -256.9717)"/><path class="cls-4" d="M760.5542,458.9961,723.9429,589.7793s-3.4878,22.6689,13.5136,27.8994,23.1045,1.7432,25.72,0S873.9043,551.56,873.9043,551.56L850.8,507.3877l-76.2886,37.49" transform="translate(0 -256.9717)"/><path class="cls-5" d="M752.86,622.9424a55.6785,55.6785,0,0,1-16.1387-2.874c-15.0806-4.64-16.5693-22.09-15.249-30.669a2.4017,2.4017,0,0,1,.0634-.2939L758.147,458.3223a2.5,2.5,0,1,1,4.8144,1.3476L726.394,590.2969c-.2685,1.9492-2.4438,20.6113,11.7979,24.9922,16.4624,5.0654,21.833,1.4853,23.5986.31,2.4683-1.6455,93.4839-55.8545,108.8023-64.9765L849.7144,510.707l-74.1006,36.4151a2.5,2.5,0,0,1-2.2051-4.4883l76.2886-37.49a2.5,2.5,0,0,1,3.3178,1.0849L876.12,550.4a2.5007,2.5007,0,0,1-.9365,3.3076c-37.3511,22.24-108.5391,64.668-110.62,66.0508C762.2437,621.3047,758.7881,622.9424,752.86,622.9424Z" transform="translate(0 -256.9717)"/><path class="cls-5" d="M862.57,386H853a2.5,2.5,0,0,1,0-5h5.3877l-4.1133-7.65a2.5,2.5,0,1,1,4.4043-2.3672l6.0938,11.334A2.5,2.5,0,0,1,862.57,386Z" transform="translate(0 -256.9717)"/><path class="cls-11" d="M862.5488,600.125l53.854-68.7031s27.4937-18.5137,41.5318-6.1319C974.7383,540.1113,974,567.11,974,567.11v139.499s21.665,20.9258,21.665,37.4912c0,0-10.7446,7.8467-37.5332,0S908,705.7383,908,705.7383V642.0918l-45.4468,44.4873" transform="translate(0 -256.9717)"/><path class="cls-11" d="M776.6553,634.0068l54.0791-68.6435s27.8281-18.4815,41.8652-6.1006c16.8047,14.8213,16.4,41.8506,16.4,41.8506v139.5s21.4414,20.9248,21.4414,37.49c0,0-11.1318,7.8467-37.9209,0S822,739.7412,822,739.7412V634" transform="translate(0 -256.9717)"/><path class="cls-5" d="M822.5,664.5A2.5,2.5,0,0,1,820,662V634a2.5,2.5,0,0,1,5,0v28A2.5,2.5,0,0,1,822.5,664.5Z" transform="translate(0 -256.9717)"/><path class="cls-5" d="M888.5,664.5A2.5,2.5,0,0,1,886,662V601.1133c.0059-.31.3291-26.0508-15.3833-39.9082-6.3384-5.5908-16.3428-3.6719-23.6182-1.0791a77.3822,77.3822,0,0,0-14.7031,7.2344l-63.6211,82.2919a2.5,2.5,0,0,1-3.956-3.0585l63.88-82.626a2.4925,2.4925,0,0,1,.5855-.5469c1.1953-.8018,29.4316-19.4658,44.7412-5.9658C891.3984,572.8672,891,600.0186,891,601.167V662A2.5,2.5,0,0,1,888.5,664.5Z" transform="translate(0 -256.9717)"/><path class="cls-12" d="M889,740.6133V662H822v77.7412s23.8813,30.5147,50.67,38.3623,37.6553,0,37.6553,0C910.3257,761.5381,889,740.6133,889,740.6133Z" transform="translate(0 -256.9717)"/><path class="cls-5" d="M894.6221,784.0908h-.001a80.6512,80.6512,0,0,1-22.4033-3.5879c-11.4864-3.3652-23.6846-11-36.2564-22.6924a152.9506,152.9506,0,0,1-15.438-16.539,2.4984,2.4984,0,0,1-.5234-1.53V661.5a2.5,2.5,0,0,1,2.5-2.5h67a2.5,2.5,0,0,1,2.5,2.5v78.0869c3.8975,4.0156,21.2007,22.7315,21.2007,38.5166a2.4987,2.4987,0,0,1-1.0474,2.0342C911.9272,780.3,906.4805,784.0908,894.6221,784.0908ZM825,738.8652c3.59,4.4278,25.0757,29.9414,48.623,36.8389a75.7158,75.7158,0,0,0,20.9986,3.3867c7.2788,0,11.6362-1.5508,13.5215-2.4306-1.1812-15.1329-20.2012-34.0723-20.3994-34.2676A2.5009,2.5009,0,0,1,887,740.6133V664H825Z" transform="translate(0 -256.9717)"/><path class="cls-5" d="M889.5991,743.1133a2.4958,2.4958,0,0,1-1.8823-.8535c-5.7246-6.542-22.8521-2.9444-28.9688-1.0069a2.5,2.5,0,1,1-1.51-4.7656,73.9863,73.9863,0,0,1,13.2788-2.6836c10.0039-1.0381,17.0561.6992,20.9624,5.1631a2.5,2.5,0,0,1-1.88,4.1465Z" transform="translate(0 -256.9717)"/><path class="cls-12" d="M908,642.0918v63.6465s23.6035,30.5156,50.3916,38.3623,37.2959,0,37.2959,0c0-16.5654-21.6875-37.4912-21.6875-37.4912V627H907.4717Z" transform="translate(0 -256.9717)"/><path class="cls-5" d="M980.2505,750.0879h0A80.3961,80.3961,0,0,1,957.939,746.5c-11.4893-3.3652-23.6426-11.0029-36.1231-22.6992a150.5621,150.5621,0,0,1-15.3013-16.543A2.5013,2.5013,0,0,1,906,705.7383V642.1738l-1.0229-15.51A2.4991,2.4991,0,0,1,907.4717,624H974.5a2.5,2.5,0,0,1,2.5,2.5v79.0713c3.9692,4.0205,21.5625,22.7353,21.5625,38.5293a2.5007,2.5007,0,0,1-1.0156,2.0117C997.3271,746.2744,992.0249,750.0879,980.2505,750.0879ZM911,704.87c3.5435,4.419,24.8008,29.9346,48.3442,36.8311a75.4655,75.4655,0,0,0,20.9053,3.3867c7.1406,0,11.4028-1.5381,13.2554-2.418-1.1924-15.124-20.5445-34.0713-20.7461-34.2666A2.5007,2.5007,0,0,1,972,706.6094V629H910.1421l.8525,12.9277c.0034.0547.0054.1094.0054.1641Z" transform="translate(0 -256.9717)"/><line class="cls-6" x1="908" y1="333.0283" x2="908" y2="370.0283"/><path class="cls-5" d="M908.5,629.5A2.5,2.5,0,0,1,906,627V590a2.5,2.5,0,0,1,5,0v37A2.5,2.5,0,0,1,908.5,629.5Z" transform="translate(0 -256.9717)"/><path class="cls-5" d="M942.3481,711.7871a2.5,2.5,0,0,1-.9375-4.8183c.7442-.3008,18.4175-7.3067,34.3184-2.7637a2.5005,2.5005,0,0,1-1.374,4.8086c-14.2251-4.0674-30.9082,2.5254-31.0747,2.5927A2.51,2.51,0,0,1,942.3481,711.7871Z" transform="translate(0 -256.9717)"/><path class="cls-5" d="M763,321h-8a2.5,2.5,0,0,1,0-5h8a2.5,2.5,0,0,1,0,5Z" transform="translate(0 -256.9717)"/><path class="cls-5" d="M762.7412,312.4082a2.4917,2.4917,0,0,1-1.8-.7646l-3.9233-4.0684a2.5,2.5,0,1,1,3.5986-3.4707l3.9233,4.0684a2.5,2.5,0,0,1-1.7988,4.2353Z" transform="translate(0 -256.9717)"/><path class="cls-5" d="M846.8735,431.8555a2.5,2.5,0,0,1-2.49-2.3086l-.8716-11.335a2.5,2.5,0,0,1,4.9854-.3828l.8715,11.335a2.4994,2.4994,0,0,1-2.3007,2.6836C847.0029,431.8535,846.938,431.8555,846.8735,431.8555Z" transform="translate(0 -256.9717)"/><path class="cls-4" d="M857.2485,516.3828,895.2656,494.31s14.8213-6.54,23.5406,0,19.1806,22.0732,19.1806,22.0732-7.6919,1.583-10.6025,0l-4.2188-8.5586s9.7456,19.1612,5.9624,22.6582-14.6816-9.581-14.6816-9.581,11.3345,19.4941,6.9756,23.2617-13.95-15.0957-13.95-15.0957-8.7173,13.2676-20.9253,8.8359L873.0327,544.66" transform="translate(0 -256.9717)"/><path class="cls-5" d="M873.0347,547.1611a2.5009,2.5009,0,0,1-1.12-4.7373l13.5136-6.7568a2.4994,2.4994,0,0,1,1.9712-.1133c10.1758,3.6895,17.6719-7.39,17.9859-7.8633a2.503,2.503,0,0,1,4.3149.2432c3.5,6.88,8.2,13.376,10.1831,14.1562.86-2.121-2.6387-11.4013-7.5981-19.9316a2.5,2.5,0,0,1,4.081-2.8574c4.0806,4.89,9.334,9.2822,11.0591,9.2851.7173-1.9209-1.7622-9.7978-5.4605-17.5429l-1.0415-2.1133a2.5,2.5,0,0,1,4.4707-2.2393c.4458.877.917,1.8291,1.3965,2.833l2.4043,4.878a16.2947,16.2947,0,0,0,4.3921.0849c-3.5146-4.8359-10.3921-13.76-16.2807-18.1767-7.0655-5.3008-19.59-.3135-20.9195.24l-37.8828,21.9951a2.5,2.5,0,0,1-2.5107-4.3242L894.01,492.1475a2.5235,2.5235,0,0,1,.246-.125c.66-.29,16.273-7.0469,26.05.2871,8.9531,6.7148,19.3173,22.0283,19.7543,22.6767a2.5,2.5,0,0,1-1.57,3.8448,36.0536,36.0536,0,0,1-7.6035.7421c1.7358,5.4112,2.3833,10.4844-.0625,12.7452a4.8342,4.8342,0,0,1-3.6782,1.2461,10.435,10.435,0,0,1-4.5894-1.7627c3.0078,7.5332,3.15,11.9619.5,14.2529a4.5025,4.5025,0,0,1-3.8833,1.0127c-4.32-.8486-9.2646-8.4463-12.1069-13.4736-4.2759,4.621-11.7168,9.5439-20.3218,7.0058l-12.5937,6.2969A2.501,2.501,0,0,1,873.0347,547.1611Z" transform="translate(0 -256.9717)"/><line class="cls-6" x1="933.1919" y1="218.5928" x2="943.6543" y2="226.4385"/><path class="cls-5" d="M943.6523,485.91a2.4912,2.4912,0,0,1-1.498-.5l-10.4624-7.8457a2.5,2.5,0,0,1,3-4l10.4624,7.8457a2.5,2.5,0,0,1-1.502,4.5Z" transform="translate(0 -256.9717)"/><path class="cls-5" d="M957.604,290.7275s-15.5493-2.7109-19.1811,3.294,46.9951,32.4521,46.9951,32.4521,49.35,24.8487,55.5371,18.96c5.2666-5.0117-7.3516-16.5078-7.3516-16.5078S970.2627,290.9414,957.604,290.7275Z" transform="translate(0 -256.9717)"/><path class="cls-5" d="M826.7305,391.3867c-.7373,3.9151,10.0957,15.6221,23.0244,10.7549,6.9726-2.624,2.7754-9.1162-5.3374-9.1162C839.8818,393.0254,828.9526,379.5791,826.7305,391.3867Z" transform="translate(0 -256.9717)"/><path class="cls-5" d="M1245.89,752.0391a2.5017,2.5017,0,0,1-1.6542-.625l-12.8936-11.377a2.5,2.5,0,0,1,3.3086-3.75l9.8867,8.7246,8.6445-31.5908a2.5,2.5,0,1,1,4.8223,1.32l-9.7031,35.458a2.4988,2.4988,0,0,1-2.4112,1.84Z" transform="translate(0 -256.9717)"/><line class="cls-7" x1="1245.8896" y1="492.5674" x2="1230.7334" y2="489.3642"/><path class="cls-5" d="M1245.8926,752.04a2.5557,2.5557,0,0,1-.52-.0546l-15.1562-3.2032a2.5,2.5,0,1,1,1.0332-4.8926l15.1563,3.2032a2.5006,2.5006,0,0,1-.5137,4.9472Z" transform="translate(0 -256.9717)"/><path class="cls-6" d="M1201.8242,641.34s24.2256,41.4629,27.6436,50.6377,42.31,62.02,86.9756,33.6709c0,0,24.2734-9.4687,24.9472-43.8554l-82.9316-37.35S1222.7256,604.2559,1201.8242,641.34Z" transform="translate(0 -256.9717)"/><path class="cls-5" d="M1289.623,736h-.0068c-34.2109,0-59.6269-35.6719-62.4912-43.3613-3.3037-8.87-27.2178-49.7305-27.459-50.1446a2.399,2.399,0,0,1-.0195-2.4345c6.3525-11.2715,14.7031-16.96,24.8183-16.96,16.9336,0,32.8243,16.3789,35.4932,19.2637l82.459,37.1435a2.5056,2.5056,0,0,1,1.4736,2.3321c-.6709,34.2041-23.5146,44.6543-26.2968,45.8261A51.7755,51.7755,0,0,1,1289.623,736Zm-84.9052-94.66c4.1611,7.15,23.9385,41.086,27.0927,49.5528,2.5479,6.8388,26.67,40.1074,57.8067,40.1074h.0058a46.9237,46.9237,0,0,0,25.48-7.6738c.1367-.0869.2813-.0547.4317-.1133.9043-.3594,21.98-9.03,23.3046-39.88l-81.4072-36.6367a2.4391,2.4391,0,0,1-.8408-.6045c-.16-.18-16.207-17.9727-32.127-17.9727C1216.6445,628.1191,1210.0068,632.5693,1204.7178,641.34Z" transform="translate(0 -256.9717)"/><path class="cls-5" d="M1341.3906,681.793l51.2422-32.3633S1375.7764,708.0879,1341.3906,681.793Z" transform="translate(0 -256.9717)"/><path class="cls-5" d="M1340.42,684.0742l60.4912-3.7256S1357.918,723.667,1340.42,684.0742Z" transform="translate(0 -256.9717)"/><path class="cls-5" d="M1341.4316,688.7158l58.2471,16.7432S1344.6631,731.8828,1341.4316,688.7158Z" transform="translate(0 -256.9717)"/><path class="cls-11" d="M1216.8428,626.9824s-9.2549-22.7256,0-22.0517a18.9627,18.9627,0,0,1,13.8906,8.09s10.1836-9.5029,13.5615-5.7627-5.9834,21.8887-5.9834,21.8887" transform="translate(0 -256.9717)"/><path class="cls-5" d="M1304.9824,761H1288a2.5,2.5,0,0,1,0-5h12.9834l-14.3262-29.4121a2.5,2.5,0,0,1,4.4942-2.1895l16.0781,33.0069A2.4993,2.4993,0,0,1,1304.9824,761Z" transform="translate(0 -256.9717)"/><line class="cls-7" x1="1304.9824" y1="502.1894" x2="1291.498" y2="509.8164"/><path class="cls-5" d="M1291.5,769.2881a2.5,2.5,0,0,1-1.2324-4.6758l13.4844-7.6269a2.5,2.5,0,1,1,2.4609,4.3515l-13.4844,7.627A2.49,2.49,0,0,1,1291.5,769.2881Z" transform="translate(0 -256.9717)"/><path class="cls-6" d="M1233.8535,670.81s10.2149,3.6894,15.4248-2.169.5752-16.0556.5752-16.0556,11.1026,2.2041,17.4971-4.1368l-8.8916-4.0048s-35.7334-40.1875-56.6348-3.1036c0,0,16.0528,27.4756,23.8662,42.6446C1228.7852,682.625,1234.7852,678.9141,1233.8535,670.81Z" transform="translate(0 -256.9717)"/><path class="cls-5" d="M1225.6914,686.4844a2.5,2.5,0,0,1-2.2236-1.3555c-7.6944-14.9365-23.6416-42.2539-23.8018-42.5283a2.4988,2.4988,0,0,1-.0195-2.4883c6.3525-11.2715,14.7031-16.9863,24.8183-16.9863,16.9336,0,32.8243,16.3662,35.4932,19.251l8.419,3.7919a2.5,2.5,0,0,1,.7343,4.0547c-4.68,4.6407-11.3408,5.3467-15.66,5.2188,1.039,4.0273,1.7148,10.3389-2.3047,14.8594-2.417,2.7177-6.0156,4.1543-10.4072,4.1543a24.03,24.03,0,0,1-4.36-.4229c-.7412,7.458-6.8213,10.9834-9.6826,12.24A2.492,2.492,0,0,1,1225.6914,686.4844ZM1204.7178,641.34c3.0654,5.2745,14.9922,25.875,22.03,39.2637a9.3645,9.3645,0,0,0,4.6221-9.5088,2.5,2.5,0,0,1,3.333-2.6367,20.3362,20.3362,0,0,0,6.0362.9981c2.9648,0,5.2089-.8331,6.6709-2.4766,4.0166-4.5166.207-13.2734.1669-13.36a2.5,2.5,0,0,1,2.7627-3.4863c.0235.0039,6.6729,1.2334,11.9678-1.2139l-4.875-2.1962a2.4873,2.4873,0,0,1-.8408-.6172c-.16-.18-16.207-17.98-32.127-17.98C1216.6445,628.126,1210.0059,632.57,1204.7178,641.34Z" transform="translate(0 -256.9717)"/><path class="cls-6" d="M1267.3506,648.4482s-4.85,42.9463,20.4365,52.6416,34.7256-27.332,34.7256-27.332Z" transform="translate(0 -256.9717)"/><path class="cls-5" d="M1295.9443,705h-.0029a25.1159,25.1159,0,0,1-9.05-1.68c-11.2158-4.3008-18.5723-15.2754-21.2725-31.8359a94.667,94.667,0,0,1-.7529-23.3428,2.4962,2.4962,0,0,1,3.5274-1.9727l55.1621,25.3135a2.5027,2.5027,0,0,1,1.38,2.8906,65.2117,65.2117,0,0,1-6.3544,15.0215C1312.5547,699.6719,1304.7275,705,1295.9443,705Zm-26.3515-52.7725c-.4629,10.127-.0528,39.1885,19.09,46.5284a20.3422,20.3422,0,0,0,7.2588,1.4521c14.2637.0029,21.5361-18.835,23.5547-25.084Z" transform="translate(0 -256.9717)"/><path class="cls-5" d="M1201.8242,641.34a18.7522,18.7522,0,0,0-10.7871,13.4649l16.1279-4.2334Z" transform="translate(0 -256.9717)"/><path class="cls-5" d="M1228.88,637.8711a3.7305,3.7305,0,1,1-3.73-3.7305A3.73,3.73,0,0,1,1228.88,637.8711Z" transform="translate(0 -256.9717)"/><path class="cls-13" d="M1310.25,696.3457" transform="translate(0 -256.9717)"/><path class="cls-13" d="M1281.0215,654.7207" transform="translate(0 -256.9717)"/><path class="cls-8" d="M1150.0361,756.1074s19.0518,20.4,36.1993,10.835,17.1464-37.1338,0-38.2735S1181.7891,764.3633,1150.0361,756.1074Z" transform="translate(0 -256.9717)"/><path class="cls-5" d="M1178.5,781.5a2.5,2.5,0,0,1-2.5-2.5v-9a2.5,2.5,0,0,1,5,0v9A2.5,2.5,0,0,1,1178.5,781.5Z" transform="translate(0 -256.9717)"/><path class="cls-5" d="M1186.5,777.5a2.5,2.5,0,0,1-2.5-2.5v-8a2.5,2.5,0,0,1,5,0v8A2.5,2.5,0,0,1,1186.5,777.5Z" transform="translate(0 -256.9717)"/><path class="cls-5" d="M1196.8711,735.9863s11.8769,3.8985,12.5137,11.6924l-11.5616-1.665Z" transform="translate(0 -256.9717)"/><path class="cls-5" d="M1190.0273,738.5137A3.5137,3.5137,0,1,1,1186.5137,735,3.5137,3.5137,0,0,1,1190.0273,738.5137Z" transform="translate(0 -256.9717)"/><path class="cls-8" d="M1109.0742,694.1885s19.0518,20.4,36.1992,10.8349,17.1465-37.1338,0-38.2734S1140.8271,702.4443,1109.0742,694.1885Z" transform="translate(0 -256.9717)"/><path class="cls-5" d="M1137.5,719.5a2.5,2.5,0,0,1-2.5-2.5v-9a2.5,2.5,0,0,1,5,0v9A2.5,2.5,0,0,1,1137.5,719.5Z" transform="translate(0 -256.9717)"/><path class="cls-5" d="M1145.5,716.5a2.5,2.5,0,0,1-2.5-2.5v-9a2.5,2.5,0,0,1,5,0v9A2.5,2.5,0,0,1,1145.5,716.5Z" transform="translate(0 -256.9717)"/><path class="cls-5" d="M1155.9092,674.0674s11.8769,3.8974,12.5137,11.6914l-11.5616-1.665Z" transform="translate(0 -256.9717)"/><path class="cls-5" d="M1149.0273,677.5137A3.5137,3.5137,0,1,1,1145.5137,674,3.5137,3.5137,0,0,1,1149.0273,677.5137Z" transform="translate(0 -256.9717)"/><path class="cls-4" d="M1532.7188,610.5117a5.7157,5.7157,0,0,1-4.7022,6.5742h0a5.7163,5.7163,0,0,1-6.5742-4.7031l-44.1319-265.9492a5.7143,5.7143,0,0,1,4.7022-6.5742h0a5.7161,5.7161,0,0,1,6.5742,4.7031Z" transform="translate(0 -256.9717)"/><path class="cls-5" d="M1527.0742,619.6641a8.1853,8.1853,0,0,1-8.0976-6.8721l-44.1319-265.9492a8.213,8.213,0,0,1,6.7588-9.4492,8.2054,8.2054,0,0,1,9.4492,6.76l44.1319,265.9492a8.2229,8.2229,0,0,1-8.11,9.5616Zm-44.1191-277.3828a3.2719,3.2719,0,0,0-.5332.0439,3.2156,3.2156,0,0,0-2.6455,3.6982l44.1318,265.95a3.2157,3.2157,0,1,0,6.3447-1.0527l-44.1318-265.9492A3.2029,3.2029,0,0,0,1482.9551,342.2813Z" transform="translate(0 -256.9717)"/><path class="cls-11" d="M1482.0293,390.85l16.1328-3.1787s.6065-75.7783-21.0937-77.8C1455.3652,307.85,1482.0293,390.85,1482.0293,390.85Z" transform="translate(0 -256.9717)"/><path class="cls-7" d="M1528.8184,589.915s8.9775,28.6153,27.542,29.2266c16.9921.56,26.78,79.917,26.78,79.917s-5.958,10.6455-7.9873,1.3262-13.6338-56.7373-19.9394-56.9121,5.31,58.9453,5.31,58.9453-3.3379,14.7988-8.4375,4.44-11.5615-60.9482-18.6875-60.248,3.6514,63.125,3.6514,63.125-3.4824,10.6308-7.542,3.622-11.0137-66.3633-20.0723-62.77c-6.7451,2.6738,1.8145,60.4014,1.8145,60.4014s-2.5264,19.6885-7.9922,1.3c-2.5371-8.5371-16.959-60.2344-8.8447-79.4863,4.1562-9.8643,25.2969-7.5782,23.5986-41.0928Z" transform="translate(0 -256.9717)"/><path class="cls-5" d="M1507.5977,722.6367c-3.2139,0-5.0166-3.8525-6.7364-9.6367-1.8183-6.1191-17.5136-60.3818-8.7519-81.1689,1.6045-3.8086,5.0244-5.9932,8.6445-8.3067,7.4307-4.7471,15.8535-10.1289,14.7607-31.6885a2.5,2.5,0,0,1,2.0879-2.5927l10.8067-1.794a2.4976,2.4976,0,0,1,2.7939,1.7158c.085.27,8.6748,26.9327,25.2393,27.4776,11.2441.3711,18.0078,24.209,22.1172,42.1084,4.5468,19.8056,7.0381,39.8017,7.0625,40.0019a2.9742,2.9742,0,0,1-.3,1.6719c-1.0821,1.9326-3.9785,6.5752-7.501,6.5752h-.001c-1.7568,0-4.0674-1.15-5.1094-5.9375-5.9267-27.2187-13.3027-48.2324-16.8-53.752-.8252,7.4786,2.7549,32.7237,7.0655,54.6612a2.4886,2.4886,0,0,1,.15,1.0146c-.6827,3.0283-3.127,10.06-7.127,10.0606v-.0039c-4,.0009-5.373-3.8233-5.9922-5.0782-2.0957-4.2587-4.2881-13.9521-6.7305-25.1748-2.2373-10.2773-6.291-28.708-9.2988-32.9853-1.7881,6.5469,1.3076,34.8984,5.5557,59.5058a2.5055,2.5055,0,0,1-.0977,1.2032c-.5947,1.8144-2.8652,7.7343-7.0547,7.7343-1.9414,0-3.6357-1.2236-5.0341-3.6376-1.52-2.6221-2.9825-9.5918-5.4356-21.6856-1.7744-8.75-3.7851-18.667-5.9951-26.5928-2.8086-10.07-4.78-12.5986-5.5137-13.2236-1.9756,3.9434-1.3086,26.2959,3.3194,57.5137a2.4753,2.4753,0,0,1,.0068.6845C1512.7646,718.8252,1510.7012,722.6367,1507.5977,722.6367Zm12.9931-128.8213c.501,22.6475-9.6621,29.1416-17.1455,33.9229-3.2,2.0449-5.7275,3.66-6.7285,6.0342-3.1895,7.5664-2.9863,22.2119.5859,42.3535a354.81,354.81,0,0,0,8.3516,35.45,32.3044,32.3044,0,0,0,1.8047,4.9209,30.65,30.65,0,0,0,1.2666-5.4942c-.335-2.3095-2.2256-15.5927-3.4024-28.9941-2.5439-28.9629.3135-32.6055,3.1914-33.7461a4.6218,4.6218,0,0,1,1.712-.332c6.5976,0,10.2929,12.9707,16.5849,44,1.8076,8.915,3.6768,18.1328,4.8594,20.1738a4.98,4.98,0,0,0,.7363,1.0215,11.0817,11.0817,0,0,0,2.0684-3.6084c-2.416-14.0879-9.2393-56.999-4.0606-63.7988a3.8661,3.8661,0,0,1,2.7393-1.5967c.1309-.0127.26-.0186.3906-.0186,5.4278,0,8.39,9.3936,14.5352,37.6221,2.1738,9.9892,4.4228,20.3183,6.249,24.0293a8.5318,8.5318,0,0,0,1.3272,2.0928,16.54,16.54,0,0,0,2.3095-5.4864c-.51-2.6386-2.78-14.5674-4.6064-26.8662-4.3135-29.0469-2.01-31.8476-.9024-33.1933a3.4961,3.4961,0,0,1,2.7295-1.3291c2.9239.0791,6.5615,2.2216,13.9942,26.8027,4.1748,13.8105,7.56,28.1445,8.415,32.0771a7.9434,7.9434,0,0,0,.5039,1.626,13.2375,13.2375,0,0,0,2.4512-2.958c-.5215-3.9863-2.9063-21.4189-6.8721-38.6836-8.081-35.1767-15.3613-38.13-17.4-38.1963-17.24-.5683-26.5732-22.0283-29.1279-28.914Z" transform="translate(0 -256.9717)"/><path class="cls-6" d="M1412.8018,827.209l131.4589,1.9053,10.0606,124.8134s1.4287,20.9571-15.7178,20.9571-125.8017.4756-125.8017.4756-21.3682-7.1446-18.51-22.8614S1412.8018,827.209,1412.8018,827.209Z" transform="translate(0 -256.9717)"/><path class="cls-5" d="M1412.8018,978a2.5872,2.5872,0,0,1-.793-.1992,44,44,0,0,1-11.0371-5.9444c-7.3281-5.5146-10.4883-12.3681-9.14-19.7871,2.8164-15.4912,18.3389-123.9638,18.4951-125.0595a2.3838,2.3838,0,0,1,2.4737-2.01h.0371l131.459,1.76a2.4369,2.4369,0,0,1,2.456,2.2265l10.0606,124.7764c.0342.5068.7226,11.7441-5.668,18.5859a16.4606,16.4606,0,0,1-12.542,5.1153c-16.9443,0-124.7041.5361-125.791.5361Zm2.163-148.26c-2.2216,15.5215-15.6035,108.8545-18.2128,123.2061-2.2549,12.3935,13.832,18.9267,16.4785,19.9121,7.5761-.0332,108.9707-.4736,125.373-.4736,3.794,0,6.6963-1.13,8.875-3.4541,4.9092-5.2373,4.3545-14.7412,4.3486-14.8369l-9.8759-122.5127Z" transform="translate(0 -256.9717)"/><path class="cls-14" d="M1394.292,952.499c-2.8584,15.7168,18.51,22.8614,18.51,22.8614s108.6562-.4756,125.8017-.4756,15.7178-20.9571,15.7178-20.9571C1473.957,901.082,1394.292,952.499,1394.292,952.499Z" transform="translate(0 -256.9717)"/><path class="cls-5" d="M1412.8018,978a2.5872,2.5872,0,0,1-.793-.1992,44,44,0,0,1-11.0371-5.9444c-7.3281-5.5146-10.4883-12.3681-9.14-19.7871a2.4992,2.4992,0,1,1,4.92.8819c-2.2461,12.35,13.8349,18.9179,16.4814,19.9092,7.5986-.0333,108.97-.4747,125.37-.4747,3.794,0,6.6963-1.13,8.875-3.4541,4.9092-5.2382,4.3545-14.7421,4.3486-14.8378a2.5,2.5,0,0,1,4.9883-.336c.0323.4756.7207,11.7305-5.67,18.5723a16.4676,16.4676,0,0,1-12.542,5.125c-16.9443,0-124.7041.5449-125.791.5449Z" transform="translate(0 -256.9717)"/><path class="cls-5" d="M1592.8438,936h-40.01a2.5011,2.5011,0,0,1-2.4912-2.2852l-1.5547-18A2.5008,2.5008,0,0,1,1551.2793,913h20.9443l-25.6855-30.4619a2.5,2.5,0,0,1-.5811-1.4092l-2.3466-28.8652a2.5,2.5,0,0,1,4.4306-1.7813l46.7217,57.3408a2.486,2.486,0,0,1,.1738.2422c.3008.4746,7.32,11.711,5.0088,20.3409a11.3157,11.3157,0,0,1-5.9394,7.3076A2.51,2.51,0,0,1,1592.8438,936Zm-37.7168-5h37.06a6.3031,6.3031,0,0,0,2.9268-3.8809c1.4316-5.3232-2.5664-13.417-4.3262-16.2587l-41.541-50.9825,1.63,20.0489,28.6367,33.9619A2.5,2.5,0,0,1,1577.6016,918h-23.5967Z" transform="translate(0 -256.9717)"/><path class="cls-5" d="M1496.6182,907.1914a2.5,2.5,0,0,1-1.4844-4.5127c25.5449-18.8174,34.25-64.57,28.7969-86.5762-.9981-4.0293-3.4043-10.8994-8.3018-11.6347-18.1924-2.7276-36.1357,23.8574-36.3154,24.1269a2.5,2.5,0,0,1-4.1631-2.77c.8027-1.206,19.8975-29.4951,41.2207-26.3017,4.0771.6132,9.5391,3.7773,12.4131,15.3779,5.9121,23.86-3.1026,71.4853-30.6856,91.8037A2.4864,2.4864,0,0,1,1496.6182,907.1914Z" transform="translate(0 -256.9717)"/><path class="cls-5" d="M1339.71,861.376c-6.4014,0-13.9307-1.7412-23.0459-5.8672a2.5,2.5,0,0,1,2.0625-4.5547c29.1552,13.1973,39.2519.0625,52.0332-16.5645,5.8652-7.6289,11.93-15.5175,20.41-21.6376,7.6035-5.4883,15.6514-7.5743,23.916-6.2022,16.8487,2.7959,28.4727,18.9512,28.959,19.6367a2.5,2.5,0,0,1-4.0771,2.8946h0c-.1074-.1514-10.9444-15.1641-25.7246-17.6026-6.8936-1.1357-13.6719.6543-20.1475,5.3281-7.8877,5.6924-13.7256,13.2872-19.3711,20.6309C1365.335,849.65,1356.32,861.375,1339.71,861.376Z" transform="translate(0 -256.9717)"/><path class="cls-8" d="M1508.2793,887.9482s-31.7129,22.1211-17.9092,57.7373C1490.37,945.6855,1526.7607,933.9443,1508.2793,887.9482Z" transform="translate(0 -256.9717)"/><path class="cls-8" d="M1309.5117,820.7686s21.501,32.1377,57.3779,19.0293C1366.89,839.7979,1355.8594,803.1855,1309.5117,820.7686Z" transform="translate(0 -256.9717)"/><path class="cls-8" d="M1386.49,821.5059s-30.333,23.98-14.4228,58.706C1372.0674,880.2119,1407.69,866.3145,1386.49,821.5059Z" transform="translate(0 -256.9717)"/><path class="cls-8" d="M1461.4277,862.2324s32.5108,20.9336,60.2129-5.3652C1521.6406,856.8672,1496.9561,827.6641,1461.4277,862.2324Z" transform="translate(0 -256.9717)"/><path class="cls-8" d="M1525.7666,839.94s-15.7275,35.3242,14.49,58.69C1540.2568,898.63,1565.3516,869.7783,1525.7666,839.94Z" transform="translate(0 -256.9717)"/><path class="cls-8" d="M1416.8965,808.2959s-14.0117-27.0586-43.26-19.9482C1373.6367,788.3477,1379.0557,817.9893,1416.8965,808.2959Z" transform="translate(0 -256.9717)"/><path class="cls-8" d="M1551.1563,818.94s-8.6875-20.5576-30.4493-17.0341C1520.707,801.9063,1522.9727,823.8594,1551.1563,818.94Z" transform="translate(0 -256.9717)"/><circle class="cls-11" cx="1481.3379" cy="804.9512" r="15.5019" transform="translate(357.5774 1804.7495) rotate(-76.7174)"/><circle class="cls-11" cx="1513.3379" cy="773.9512" r="15.6767" transform="translate(412.3961 1812.0158) rotate(-76.7174)"/></svg>