<?xml version="1.0" encoding="utf-8"?>
<!-- Generator: Adobe Illustrator 24.1.0, SVG Export Plug-In . SVG Version: 6.00 Build 0)  -->
<svg version="1.1" id="Layer_1" xmlns="http://www.w3.org/2000/svg" xmlns:xlink="http://www.w3.org/1999/xlink" x="0px" y="0px"
	 viewBox="0 0 1257 704" style="enable-background:new 0 0 1257 704;" xml:space="preserve">
<style type="text/css">
	.st0{fill:#40403F;}
	.st1{fill:#EAEFE8;}
	.st2{fill:#FAFCFA;}
	.st3{fill:#DEE5DC;}
	.st4{fill:#C67042;}
</style>
<path class="st0" d="M1258,704c0,0-660-412.14-1258-348.83l0,348.38"/>
<g>
	<g>
		<path class="st1" d="M30.64,407.18c0.38,0,0.76-0.09,1.12-0.27c3.72-1.88,4.46-4.84,5-7c0.49-1.95,0.74-2.77,2.25-3.42
			c1.26-0.55,1.7-0.29,3.17,0.78c1.63,1.19,4.35,3.19,8.53,1.09c3.63-1.83,4.46-4.59,5.06-6.6c0.54-1.81,0.84-2.8,2.85-3.64
			c2.13-0.89,3.29-0.37,5.06,0.42c1.88,0.84,4.45,1.99,7.81,0.41c3.47-1.63,4.05-4.68,4.43-6.69c0.39-2.04,0.58-2.71,2.03-3.2
			c1.42-0.48,2.11-0.1,3.66,0.9c1.89,1.22,4.74,3.06,9.17,0.83c4.23-2.12,4.46-5.43,4.62-7.62c0.14-1.91,0.18-2.49,1.83-3.17
			c2.14-0.88,3.32-0.42,5.11,0.27c2.16,0.83,4.85,1.87,8.93,0.31c5.53-2.12,6.28-6.38,6.69-8.67c0.04-0.24,0.1-0.55,0.15-0.77
			c0.77-0.72,1.02-1.88,0.55-2.88c-0.59-1.25-2.08-1.79-3.33-1.2c-1.73,0.82-2.04,2.57-2.29,3.97c-0.34,1.93-0.67,3.76-3.56,4.87
			c-2.28,0.87-3.49,0.4-5.33-0.31c-2.15-0.83-4.83-1.86-8.81-0.23c-4.52,1.86-4.76,5.21-4.92,7.44c-0.13,1.88-0.19,2.66-1.88,3.5
			c-1.88,0.94-2.56,0.5-4.22-0.57c-1.68-1.08-4.21-2.71-7.98-1.43c-4.27,1.45-4.91,4.79-5.33,7c-0.37,1.93-0.58,2.6-1.65,3.1
			c-1.23,0.58-1.96,0.3-3.64-0.45c-2.07-0.93-4.91-2.2-9.03-0.47c-4.18,1.75-5.06,4.68-5.7,6.82c-0.51,1.69-0.81,2.71-2.53,3.57
			c-1.44,0.73-1.88,0.41-3.32-0.66c-1.66-1.22-4.17-3.06-8.12-1.33c-3.82,1.67-4.56,4.63-5.1,6.8c-0.49,1.96-0.79,2.93-2.4,3.75
			c-1.23,0.62-1.73,2.13-1.1,3.36C28.85,406.68,29.73,407.18,30.64,407.18z"/>
	</g>
	<g>
		<path class="st1" d="M103.64,412.18c0.38,0,0.76-0.09,1.12-0.27c3.72-1.88,4.46-4.84,5-7c0.49-1.95,0.74-2.77,2.25-3.42
			c1.26-0.55,1.7-0.29,3.17,0.78c1.63,1.19,4.35,3.19,8.53,1.09c3.63-1.83,4.46-4.59,5.06-6.6c0.54-1.81,0.84-2.8,2.85-3.64
			c2.13-0.89,3.29-0.37,5.06,0.42c1.88,0.84,4.45,1.99,7.81,0.41c3.47-1.63,4.05-4.68,4.43-6.69c0.39-2.04,0.58-2.71,2.03-3.2
			c1.42-0.48,2.11-0.1,3.66,0.9c1.89,1.22,4.74,3.06,9.17,0.83c4.23-2.12,4.46-5.43,4.62-7.62c0.14-1.91,0.18-2.49,1.83-3.17
			c2.14-0.88,3.32-0.42,5.11,0.27c2.16,0.83,4.85,1.88,8.93,0.31c5.53-2.12,6.28-6.38,6.69-8.67c0.04-0.24,0.1-0.55,0.15-0.77
			c0.77-0.72,1.02-1.88,0.55-2.88c-0.59-1.25-2.08-1.79-3.33-1.2c-1.73,0.82-2.04,2.57-2.29,3.97c-0.34,1.93-0.67,3.76-3.56,4.87
			c-2.28,0.87-3.49,0.4-5.33-0.31c-2.15-0.83-4.83-1.86-8.81-0.23c-4.52,1.86-4.76,5.21-4.92,7.44c-0.13,1.88-0.19,2.66-1.88,3.5
			c-1.88,0.94-2.56,0.5-4.22-0.57c-1.68-1.08-4.21-2.71-7.98-1.43c-4.27,1.45-4.91,4.79-5.33,7c-0.37,1.93-0.58,2.6-1.65,3.1
			c-1.23,0.58-1.96,0.3-3.64-0.45c-2.07-0.93-4.91-2.2-9.03-0.47c-4.18,1.75-5.06,4.68-5.7,6.82c-0.51,1.69-0.81,2.71-2.53,3.57
			c-1.44,0.72-1.88,0.41-3.32-0.66c-1.66-1.22-4.17-3.06-8.12-1.33c-3.82,1.67-4.56,4.63-5.1,6.8c-0.49,1.96-0.79,2.93-2.4,3.75
			c-1.23,0.62-1.73,2.13-1.1,3.36C101.85,411.68,102.73,412.18,103.64,412.18z"/>
	</g>
	<g>
		<path class="st1" d="M177.64,427.18c0.38,0,0.76-0.09,1.12-0.27c3.72-1.88,4.46-4.84,5-7c0.49-1.95,0.74-2.77,2.25-3.42
			c1.26-0.55,1.7-0.29,3.17,0.78c1.63,1.19,4.35,3.19,8.53,1.09c3.63-1.83,4.46-4.59,5.06-6.6c0.54-1.81,0.84-2.8,2.85-3.64
			c2.13-0.89,3.29-0.37,5.06,0.42c1.88,0.84,4.45,1.99,7.81,0.41c3.47-1.63,4.05-4.68,4.43-6.69c0.39-2.04,0.58-2.71,2.03-3.2
			c1.42-0.48,2.11-0.1,3.66,0.9c1.89,1.22,4.74,3.06,9.17,0.83c4.23-2.12,4.46-5.43,4.62-7.62c0.14-1.91,0.18-2.49,1.83-3.17
			c2.14-0.88,3.33-0.42,5.11,0.27c2.16,0.83,4.85,1.87,8.93,0.31c5.53-2.12,6.28-6.38,6.69-8.67c0.04-0.24,0.1-0.55,0.15-0.77
			c0.77-0.72,1.02-1.88,0.55-2.88c-0.59-1.25-2.08-1.79-3.33-1.2c-1.73,0.82-2.04,2.57-2.29,3.97c-0.34,1.93-0.66,3.76-3.56,4.87
			c-2.27,0.87-3.49,0.4-5.33-0.31c-2.15-0.83-4.83-1.86-8.81-0.23c-4.52,1.86-4.76,5.21-4.92,7.44c-0.13,1.88-0.19,2.66-1.88,3.5
			c-1.88,0.94-2.56,0.5-4.22-0.57c-1.68-1.08-4.21-2.71-7.98-1.43c-4.27,1.45-4.91,4.79-5.33,7c-0.37,1.93-0.58,2.6-1.65,3.1
			c-1.23,0.58-1.96,0.3-3.64-0.45c-2.07-0.93-4.91-2.2-9.03-0.47c-4.18,1.75-5.06,4.68-5.7,6.82c-0.51,1.69-0.81,2.71-2.53,3.57
			c-1.44,0.72-1.88,0.41-3.32-0.66c-1.66-1.22-4.17-3.06-8.12-1.33c-3.82,1.67-4.56,4.63-5.1,6.8c-0.49,1.96-0.79,2.93-2.4,3.75
			c-1.23,0.62-1.73,2.13-1.1,3.36C175.85,426.68,176.73,427.18,177.64,427.18z"/>
	</g>
	<g>
		<path class="st1" d="M260.64,441.18c0.38,0,0.76-0.09,1.12-0.27c3.72-1.88,4.46-4.84,5-7c0.49-1.95,0.74-2.77,2.25-3.42
			c1.26-0.55,1.7-0.29,3.17,0.78c1.63,1.19,4.35,3.19,8.53,1.09c3.63-1.83,4.46-4.59,5.06-6.6c0.54-1.81,0.84-2.8,2.85-3.64
			c2.13-0.89,3.29-0.37,5.06,0.42c1.88,0.84,4.45,1.99,7.81,0.41c3.47-1.63,4.05-4.68,4.43-6.69c0.39-2.04,0.58-2.71,2.03-3.2
			c1.42-0.48,2.11-0.1,3.66,0.9c1.89,1.22,4.74,3.06,9.17,0.83c4.23-2.12,4.46-5.43,4.62-7.62c0.14-1.91,0.18-2.49,1.83-3.17
			c2.14-0.88,3.33-0.42,5.11,0.27c2.16,0.83,4.85,1.88,8.93,0.31c5.53-2.12,6.28-6.38,6.69-8.67c0.04-0.24,0.1-0.55,0.15-0.77
			c0.77-0.72,1.02-1.88,0.55-2.88c-0.59-1.25-2.08-1.78-3.33-1.2c-1.73,0.82-2.04,2.57-2.29,3.97c-0.34,1.93-0.66,3.76-3.56,4.87
			c-2.28,0.87-3.49,0.4-5.33-0.31c-2.15-0.83-4.83-1.86-8.81-0.23c-4.52,1.86-4.76,5.21-4.92,7.44c-0.13,1.88-0.19,2.66-1.88,3.5
			c-1.88,0.94-2.56,0.5-4.22-0.57c-1.68-1.08-4.21-2.71-7.98-1.43c-4.27,1.45-4.91,4.79-5.33,7c-0.37,1.93-0.58,2.6-1.65,3.1
			c-1.23,0.58-1.96,0.3-3.64-0.45c-2.07-0.93-4.91-2.2-9.03-0.47c-4.18,1.75-5.06,4.68-5.7,6.82c-0.51,1.69-0.81,2.71-2.53,3.57
			c-1.44,0.72-1.88,0.41-3.32-0.66c-1.66-1.22-4.17-3.06-8.12-1.33c-3.82,1.67-4.56,4.63-5.1,6.8c-0.49,1.96-0.79,2.93-2.4,3.75
			c-1.23,0.62-1.73,2.13-1.1,3.36C258.85,440.68,259.73,441.18,260.64,441.18z"/>
	</g>
	<g>
		<path class="st1" d="M384.64,490.18c0.38,0,0.76-0.09,1.12-0.27c3.72-1.88,4.46-4.84,5-7c0.49-1.95,0.74-2.77,2.25-3.42
			c1.26-0.55,1.7-0.29,3.17,0.78c1.63,1.19,4.35,3.19,8.53,1.09c3.63-1.83,4.46-4.59,5.06-6.6c0.54-1.81,0.84-2.8,2.85-3.64
			c2.13-0.89,3.29-0.37,5.06,0.42c1.88,0.84,4.45,1.99,7.81,0.41c3.47-1.63,4.05-4.68,4.43-6.69c0.39-2.04,0.58-2.71,2.03-3.2
			c1.42-0.48,2.11-0.1,3.66,0.9c1.89,1.22,4.74,3.06,9.17,0.83c4.23-2.12,4.46-5.43,4.62-7.62c0.14-1.91,0.18-2.49,1.83-3.17
			c2.14-0.88,3.32-0.42,5.11,0.27c2.16,0.83,4.85,1.88,8.93,0.31c5.53-2.12,6.28-6.38,6.69-8.67c0.04-0.24,0.1-0.55,0.15-0.77
			c0.77-0.72,1.02-1.88,0.55-2.88c-0.59-1.25-2.08-1.79-3.33-1.2c-1.73,0.82-2.04,2.57-2.29,3.97c-0.34,1.93-0.66,3.76-3.56,4.87
			c-2.28,0.87-3.49,0.4-5.33-0.31c-2.15-0.83-4.83-1.86-8.81-0.23c-4.52,1.86-4.76,5.21-4.92,7.44c-0.13,1.88-0.19,2.66-1.88,3.5
			c-1.88,0.94-2.56,0.5-4.22-0.57c-1.68-1.08-4.21-2.71-7.98-1.43c-4.27,1.45-4.91,4.79-5.33,7c-0.37,1.93-0.58,2.6-1.65,3.1
			c-1.23,0.58-1.96,0.3-3.64-0.45c-2.07-0.93-4.91-2.2-9.03-0.47c-4.18,1.75-5.06,4.68-5.7,6.82c-0.51,1.69-0.81,2.71-2.53,3.57
			c-1.44,0.73-1.88,0.41-3.32-0.66c-1.66-1.22-4.17-3.06-8.12-1.33c-3.82,1.67-4.56,4.63-5.1,6.8c-0.49,1.96-0.79,2.93-2.4,3.75
			c-1.23,0.62-1.73,2.13-1.1,3.36C382.85,489.68,383.73,490.18,384.64,490.18z"/>
	</g>
</g>
<g>
	<g>
		<path class="st1" d="M374.36,239.48c0,0-27.03,78.27-7.24,156.18l-19.8,18.28c0,0-28.67-75.37,0-166.95L374.36,239.48z"/>
		<path class="st0" d="M346.76,416.38c-0.81-0.19-1.47-0.77-1.76-1.54c-0.3-0.78-7.32-19.48-10.9-49.73
			c-3.3-27.88-4.09-71.13,10.85-118.86c0.25-0.81,0.9-1.43,1.72-1.66l27.03-7.52c0.9-0.25,1.85,0.02,2.49,0.7
			c0.64,0.68,0.84,1.65,0.54,2.53c-0.27,0.78-26.56,78.45-7.18,154.75c0.23,0.89-0.05,1.83-0.73,2.45l-19.79,18.28
			c-0.47,0.43-1.07,0.66-1.7,0.66C347.14,416.45,346.95,416.42,346.76,416.38z M370.61,243.12l-21.29,5.92
			c-23.99,78-5.9,144.62-0.85,160.46l15.88-14.67C347.89,328.13,365.35,260.79,370.61,243.12z"/>
	</g>
	<g>
		<polygon class="st1" points="478,266.33 386.67,233.67 357.33,241.67 450.72,281.29 		"/>
		<path class="st0" d="M449.74,283.59l-93.39-39.62c-0.98-0.42-1.59-1.41-1.52-2.47c0.07-1.06,0.81-1.96,1.84-2.24l29.33-8
			c0.5-0.13,1.02-0.11,1.5,0.06l91.33,32.67c0.93,0.33,1.57,1.18,1.65,2.16c0.08,0.98-0.43,1.92-1.29,2.39l-27.28,14.95
			c-0.37,0.2-0.79,0.31-1.2,0.31C450.39,283.79,450.06,283.72,449.74,283.59z M386.56,236.29l-21.62,5.9l85.63,36.33l21.34-11.7
			L386.56,236.29z"/>
	</g>
	<g>
		<path class="st1" d="M453.33,216.4L316,263.67c0,0-21.33,3.33-14.67-14L438,203C438,203,458.67,206.47,453.33,216.4z"/>
		<path class="st0" d="M299.21,261.36c-2.15-3.13-2.22-7.36-0.21-12.59c0.27-0.69,0.82-1.23,1.53-1.47l136.67-46.67
			c0.39-0.13,0.81-0.17,1.22-0.1c1.44,0.24,14.19,2.56,17.5,9.29c0.83,1.68,1.43,4.4-0.37,7.76c-0.3,0.55-0.79,0.98-1.39,1.18
			l-137.33,47.27c-0.14,0.05-0.28,0.08-0.43,0.11c-0.08,0.01-1.87,0.29-4.27,0.29h0C305.95,266.42,301.48,264.67,299.21,261.36z
			 M451.5,214.39c0.39-1.13,0.16-1.87-0.08-2.36c-1.57-3.21-8.69-5.59-13.23-6.46l-134.91,46.07c-1.01,3.06-0.99,5.37,0.05,6.88
			c1.73,2.52,6.25,2.9,8.79,2.9c1.57,0,2.83-0.14,3.3-0.2L451.5,214.39z"/>
	</g>
	<g>
		<g>
			<polygon class="st2" points="419.5,370.49 293.25,431.54 303.98,457.77 427.79,396.44 			"/>
			<path class="st0" d="M303.1,460.11c-0.65-0.25-1.17-0.75-1.43-1.39l-10.73-26.23c-0.5-1.22,0.04-2.62,1.22-3.2l126.25-61.05
				c0.65-0.32,1.41-0.33,2.08-0.05c0.67,0.29,1.17,0.85,1.39,1.54l8.3,25.96c0.38,1.18-0.16,2.45-1.27,3l-123.81,61.33
				c-0.35,0.17-0.73,0.26-1.11,0.26C303.68,460.27,303.38,460.22,303.1,460.11z M417.99,373.99l-121.54,58.78l8.82,21.57
				l119.48-59.18L417.99,373.99z"/>
		</g>
		<g>
			<g>
				<path class="st2" d="M303.6,456.68c0,0,17.64,30,24.94,24.75c7.3-5.24-8.68-32.81-8.68-32.81L303.6,456.68z"/>
				<path class="st0" d="M301.45,457.95c-0.35-0.6-0.44-1.32-0.24-1.98c0.2-0.67,0.66-1.22,1.29-1.53l16.26-8.05
					c1.18-0.59,2.61-0.15,3.27,0.99c4.02,6.93,16.46,30,7.98,36.09c-1,0.72-2.15,1.08-3.4,1.08
					C317.55,484.55,304.06,462.39,301.45,457.95z M307.14,457.72c6.72,10.9,15.62,21.83,19.45,21.83c0.25,0,0.38-0.07,0.49-0.15
					c3.03-2.18-1.78-15.78-8.24-27.49L307.14,457.72z"/>
			</g>
			<g>
				<path class="st2" d="M320.97,448.3c0,0,17.64,30,24.94,24.75c7.3-5.24-8.68-32.81-8.68-32.81L320.97,448.3z"/>
				<path class="st0" d="M318.82,449.57c-0.35-0.6-0.44-1.32-0.24-1.98c0.2-0.67,0.66-1.22,1.29-1.53l16.26-8.05
					c1.18-0.59,2.61-0.15,3.27,0.99c4.02,6.93,16.46,30,7.98,36.09c-1,0.72-2.15,1.08-3.4,1.08
					C334.92,476.17,321.43,454.01,318.82,449.57z M324.52,449.34c6.72,10.9,15.62,21.83,19.45,21.83c0.25,0,0.38-0.07,0.49-0.15
					c3.04-2.18-1.78-15.78-8.24-27.49L324.52,449.34z"/>
			</g>
			<g>
				<path class="st2" d="M339.56,439.09c0,0,17.64,30,24.94,24.76c7.3-5.24-8.68-32.81-8.68-32.81L339.56,439.09z"/>
				<path class="st0" d="M337.4,440.36c-0.35-0.6-0.44-1.32-0.24-1.98c0.2-0.67,0.66-1.22,1.29-1.53l16.26-8.05
					c1.18-0.59,2.61-0.15,3.27,0.99c4.02,6.93,16.46,30,7.98,36.09c-1,0.72-2.15,1.08-3.4,1.08
					C353.51,466.96,340.01,444.8,337.4,440.36z M343.1,440.12c6.72,10.9,15.62,21.84,19.46,21.84c0.25,0,0.38-0.07,0.49-0.15
					c3.04-2.18-1.78-15.78-8.24-27.49L343.1,440.12z"/>
			</g>
		</g>
		<g>
			<g>
				<path class="st2" d="M356.93,430.71c0,0,17.64,30,24.94,24.75c7.3-5.24-8.68-32.81-8.68-32.81L356.93,430.71z"/>
				<path class="st0" d="M354.78,431.98c-0.35-0.6-0.44-1.32-0.24-1.98c0.2-0.67,0.66-1.22,1.29-1.53l16.26-8.05
					c1.18-0.58,2.61-0.15,3.27,0.99c4.02,6.93,16.46,30,7.98,36.09c-1,0.72-2.15,1.08-3.4,1.08
					C370.88,458.58,357.39,436.42,354.78,431.98z M360.47,431.75c6.72,10.9,15.62,21.83,19.45,21.83c0.25,0,0.38-0.07,0.49-0.15
					c3.03-2.18-1.78-15.78-8.24-27.49L360.47,431.75z"/>
			</g>
			<g>
				<path class="st2" d="M374.3,422.33c0,0,17.64,30,24.94,24.75c7.3-5.24-8.68-32.81-8.68-32.81L374.3,422.33z"/>
				<path class="st0" d="M372.15,423.6c-0.35-0.6-0.44-1.32-0.24-1.98c0.2-0.67,0.66-1.22,1.29-1.53l16.26-8.05
					c1.18-0.59,2.61-0.15,3.27,0.99c4.02,6.93,16.46,30,7.98,36.09c-1,0.72-2.15,1.08-3.4,1.08
					C388.25,450.2,374.76,428.04,372.15,423.6z M377.85,423.37c6.72,10.9,15.62,21.83,19.45,21.83c0.25,0,0.38-0.07,0.49-0.15
					c3.04-2.18-1.78-15.78-8.24-27.49L377.85,423.37z"/>
			</g>
			<g>
				<path class="st2" d="M392.89,413.12c0,0,17.64,30,24.94,24.75c7.3-5.24-8.68-32.81-8.68-32.81L392.89,413.12z"/>
				<path class="st0" d="M390.73,414.39c-0.35-0.6-0.44-1.32-0.24-1.98c0.2-0.67,0.66-1.22,1.29-1.53l16.26-8.05
					c1.18-0.59,2.61-0.15,3.27,0.99c4.02,6.93,16.46,30,7.98,36.09c-1,0.72-2.15,1.08-3.4,1.08
					C406.84,440.99,393.34,418.83,390.73,414.39z M396.43,414.15c6.72,10.9,15.62,21.83,19.45,21.83c0.25,0,0.38-0.07,0.49-0.15
					c3.04-2.18-1.78-15.78-8.24-27.49L396.43,414.15z"/>
			</g>
			<g>
				<path class="st2" d="M410.26,404.74c0,0,17.64,30,24.94,24.76c7.3-5.24-8.68-32.81-8.68-32.81L410.26,404.74z"/>
				<path class="st0" d="M408.11,406.01c-0.35-0.6-0.44-1.32-0.24-1.98c0.2-0.66,0.66-1.22,1.29-1.53l16.26-8.05
					c1.18-0.59,2.61-0.15,3.27,0.99c4.02,6.93,16.46,30,7.98,36.09c-1,0.72-2.15,1.09-3.4,1.09
					C424.21,432.61,410.72,410.45,408.11,406.01z M413.8,405.77c6.72,10.9,15.62,21.84,19.46,21.84c0.25,0,0.38-0.07,0.49-0.15
					c3.03-2.18-1.78-15.78-8.24-27.49L413.8,405.77z"/>
			</g>
		</g>
	</g>
</g>
<g>
	<g>
		<g>
			<path class="st2" d="M771.72,466.08l-34.94,24.29l26.42,66.61c0,0,2.9,11.82-1.64,18.17c-4.53,6.36-21.13,25.66-21.13,25.66
				l-18.89-19.97l12.25-23.66l-39.86-85.24c0,0,2.57-19.13,10.16-33.63c7.6-14.51,14.53-37.76,14.53-37.76L771.72,466.08z"/>
			<path class="st0" d="M738.62,602.38l-18.89-19.81c-0.73-0.77-0.89-1.92-0.4-2.87l11.69-22.56l-39.34-84.13
				c-0.2-0.43-0.28-0.92-0.21-1.39c0.11-0.8,2.71-19.74,10.43-34.46c7.4-14.12,14.28-37.08,14.35-37.31c0.26-0.89,1-1.56,1.91-1.74
				c0.91-0.18,1.84,0.16,2.43,0.88l53.08,65.52c0.44,0.54,0.63,1.24,0.53,1.92c-0.1,0.69-0.48,1.3-1.05,1.7l-33.31,23.15
				l25.69,64.76c0.04,0.11,0.08,0.19,0.1,0.31c0.13,0.53,3.11,12.97-2.03,20.18c-4.55,6.38-20.59,24.97-21.27,25.76
				c-0.46,0.54-1.13,0.71-1.84,0.71c-0.02,0-0.04,0-0.06,0C739.75,603,739.09,602.88,738.62,602.38z M734.46,491.29
				c-0.43-1.08-0.06-2.31,0.9-2.97l32.73-22.75l-48.45-59.81c-2.42,7.53-7.64,22.88-13.32,33.72c-6.49,12.39-9.25,28.54-9.8,32.1
				l39.54,84.56c0.33,0.7,0.31,1.52-0.04,2.21l-11.44,22.08l15.76,16.66c4.41-5.17,15.65-18.41,19.19-23.38
				c3.11-4.35,2.01-12.85,1.28-15.97L734.46,491.29z"/>
		</g>
		<g>
			<path class="st3" d="M1012.75,470.59l7.83,82.46c0,0-0.98,15.99-5.97,21.52l13.41,67.46l-27.53,0.58c0,0-10.08-25.44-13.22-43.53
				c0,0-15.01-40.68-38.96-58.5C924.36,522.75,1012.75,470.59,1012.75,470.59z"/>
			<path class="st0" d="M998.16,643.47c-0.41-1.04-10.13-25.62-13.32-43.74c-1.19-3.12-15.8-40.62-38.03-57.16
				c-3.56-2.65-5.33-6.25-5.1-10.41c0.53-9.88,12.54-23.66,35.71-40.96c16.9-12.62,33.89-22.67,34.06-22.77
				c0.73-0.43,1.64-0.46,2.41-0.07c0.76,0.39,1.27,1.14,1.35,1.99l7.83,82.46c0.01,0.13,0.01,0.26,0.01,0.39
				c-0.1,1.63-1.07,15.45-5.79,22.01l13.18,66.32c0.14,0.72-0.04,1.46-0.5,2.04s-1.16,0.89-1.9,0.91l-27.53,0.53
				c-0.02,0-0.04,0-0.05,0C999.46,645,998.54,644.43,998.16,643.47z M1012.16,575.05c-0.15-0.78,0.07-1.58,0.6-2.16
				c3.56-3.94,5.03-15.44,5.32-19.8l-7.44-78.31c-20.3,12.39-63.08,41.7-63.93,57.66c-0.13,2.51,0.85,4.46,3.1,6.13
				c10.22,7.61,20.04,19.97,29.16,36.74c6.75,12.41,10.49,22.48,10.65,22.9c0.05,0.14,0.09,0.29,0.12,0.44
				c2.61,15.04,10.22,35.57,12.46,41.42l22.8-0.48L1012.16,575.05z"/>
		</g>
		<g>
			<path class="st2" d="M1036.71,422.3c0,0-7.46,12.48-10.85,27.44c-3.38,14.96-9.32,51.51-22.92,57.22
				c-13.61,5.71-9.66,31.48-24.55,37.96c-14.89,6.47-37.27-6.55-51.33-6.82c-14.06-0.28-71.32-5.98-87.01-10.15
				s-84.17-25.65-109.45-63.9c-25.28-38.25-56.72-64.96-56.72-64.96s-92.93-35.44-86.77-86.72c6.16-51.28,29.53-87.14,100.5-85.81
				c70.97,1.33,99.5,33.94,131.56,33.53c32.06-0.41,128.42-17.05,161.83,35.92S1036.71,422.3,1036.71,422.3z"/>
			<path class="st0" d="M944.76,544.35c-6.6-1.94-12.83-3.65-17.75-3.75c-14.96-0.29-71.83-6.05-87.6-10.23
				c-3.37-0.89-82.75-22.36-110.9-64.94c-23.45-35.48-52.62-61.28-55.94-64.16c-3.26-1.29-25-10.1-45.79-24.24
				c-30.21-20.54-44.79-43-42.15-64.95c3.41-28.37,11.85-49.06,25.82-63.26c16.41-16.68,40.41-24.79,73.38-24.79
				c1.26,0,2.53,0.01,3.83,0.04c42.3,0.79,69.62,12.54,91.58,21.97c15.02,6.46,26.89,11.56,39.33,11.56l0.57,0
				c4.83-0.06,11.22-0.5,18.62-1.01c11.48-0.79,25.76-1.78,40.78-1.78c53.44,0,87.65,13.05,104.58,39.88
				c33.21,52.65,55.76,126.15,55.99,126.89c0.21,0.67,0.12,1.4-0.25,2.01c-0.07,0.12-7.3,12.3-10.55,26.71
				c-0.41,1.83-0.86,3.97-1.36,6.34c-3.94,18.76-9.88,47.09-23.03,52.61c-5.6,2.35-7.84,9.27-10.22,16.62
				c-2.65,8.22-5.66,17.48-14.3,21.24c-3.11,1.35-6.59,1.9-10.63,1.9h0C961.01,549,952.75,546.69,944.76,544.35z M978.88,297.35
				c-15.94-25.27-48.77-37.55-100.35-37.55c-14.84,0-29.03,0.98-40.43,1.77c-7.47,0.52-13.93,0.96-18.9,1.03l-0.64,0
				c-13.47,0-26.37-5.54-41.3-11.96c-21.56-9.26-48.38-20.79-89.7-21.57c-1.26-0.02-2.5-0.04-3.73-0.04
				c-31.56,0-54.39,7.62-69.81,23.29c-13.16,13.38-21.15,33.12-24.42,60.35c-5.86,48.75,84.27,83.73,85.18,84.08
				c0.26,0.1,0.51,0.24,0.73,0.43c0.32,0.27,31.99,27.37,57.18,65.48c27.11,41.01,104.72,61.98,108.01,62.85
				c15.13,4.01,72.02,9.75,86.42,10.04c5.58,0.11,12.13,1.97,19.06,4c7.65,2.24,15.56,4.45,22.58,4.45h0c3.35,0,6.17-0.41,8.64-1.48
				c6.57-2.85,8.98-10.22,11.53-18.13c2.62-8.11,5.32-16.49,13.04-19.73c10.73-4.5,16.81-33.47,20.07-49.04
				c0.5-2.4,0.96-4.58,1.38-6.43c2.92-12.94,8.73-23.91,10.57-27.19C1031.15,412.93,1009.6,346.06,978.88,297.35z"/>
		</g>
		<g>
			<path class="st2" d="M937.65,478c0,0-35.5,18.89-38.76,20.8l7.23,67.76c0,0,4.21,26.29-11.57,36.66
				c-15.78,10.37-43.08,37.51-43.08,37.51l-30.84-3.46c0,0,28.91-35.71,43.42-49.16c0,0,7.01-15.4,2.09-20.81
				c-4.92-5.41-33.55-56.94-33.55-56.94s-7.47-13.65-1.56-23.14c5.91-9.49,42.34-67.52,42.34-67.52"/>
			<path class="st0" d="M851.48,643.23c0.66,0,1.29-0.26,1.76-0.73c0.27-0.27,27.3-27.09,42.69-37.2
				c7.09-4.66,11.52-12.96,12.81-24.01c0.91-7.77-0.02-14.27-0.14-15.06l-7.05-66.07c7.32-4.03,36.94-19.79,37.27-19.96
				c1.22-0.65,1.68-2.16,1.03-3.38c-0.65-1.22-2.16-1.68-3.38-1.03c-1.45,0.77-35.59,18.93-38.85,20.85
				c-0.85,0.5-1.32,1.44-1.22,2.42l7.23,67.76c0,0.04,0.01,0.09,0.02,0.13c0.04,0.25,3.75,24.83-10.47,34.17
				c-14.43,9.48-37.78,32.23-42.61,36.99l-25.09-2.81c7.68-9.35,28.74-34.66,40.28-45.35c0.24-0.22,0.44-0.5,0.58-0.8
				c0.79-1.73,7.53-17.08,1.67-23.53c-3.88-4.26-25.29-42.21-33.21-56.47c-0.06-0.11-6.68-12.49-1.63-20.6
				c5.84-9.37,41.97-66.93,42.34-67.51c0.73-1.17,0.38-2.71-0.79-3.45c-1.17-0.73-2.71-0.38-3.45,0.79
				c-0.36,0.58-36.5,58.15-42.35,67.53c-6.61,10.6,1.16,25.05,1.49,25.66c2.95,5.31,28.92,51.95,33.89,57.42
				c2.56,2.81,0.23,11.84-2.32,17.64c-14.58,13.66-42.12,47.62-43.29,49.07c-0.57,0.71-0.72,1.68-0.37,2.52
				c0.35,0.84,1.13,1.43,2.03,1.54l30.84,3.46C851.3,643.22,851.39,643.23,851.48,643.23z"/>
		</g>
		<g>
			<path class="st3" d="M719.74,422.04c0,0,0.95,48.07-24.96,76.76c-25.91,28.7-27.97,36.88-27.97,36.88l23.87,77.09l-15.64,24.93
				l-26.63-0.35l10.52-28.87c0,0-2.18-11.2-5.49-19.64c-3.31-8.44-37-73.84-37-73.84s-11.3-16.79-2.08-27.51
				c9.22-10.72,15.83-20.58,15.83-20.58s6.16-15.84-5.88-33.65c0,0-36.08-76.53-37.21-110.7"/>
			<path class="st0" d="M675.03,640c0.86,0,1.66-0.34,2.12-1.07l15.64-24.88c0.39-0.62,0.49-1.35,0.27-2.04l-23.62-76.27
				c0.96-2.23,5.79-11.56,27.19-35.26c26.28-29.1,25.64-76.48,25.61-78.49c-0.03-1.38-1.16-2.44-2.55-2.45
				c-1.38,0.03-2.48,1.17-2.45,2.55c0.01,0.47,0.62,47.43-24.32,75.04c-25.59,28.34-28.31,37.04-28.54,37.94
				c-0.11,0.44-0.1,0.91,0.04,1.35l23.53,75.99l-14.29,22.77l-21.7-0.29l9.32-25.56c0.16-0.43,0.19-0.89,0.11-1.34
				c-0.09-0.47-2.26-11.52-5.62-20.08c-3.32-8.46-35.72-71.39-37.1-74.07c-0.04-0.09-0.09-0.17-0.15-0.25
				c-0.1-0.15-10.11-15.35-2.26-24.49c9.21-10.71,15.94-20.72,16.01-20.82c0.1-0.15,0.19-0.32,0.25-0.49
				c0.27-0.7,6.45-17.18-6.03-35.8c-1.89-4.05-35.81-77.05-36.89-109.54c-0.05-1.38-1.18-2.45-2.58-2.42
				c-1.38,0.05-2.46,1.2-2.42,2.58c0.48,14.45,6.94,37.66,19.2,68.99c9.09,23.21,18.16,42.5,18.25,42.69
				c0.05,0.12,0.12,0.23,0.19,0.33c10.45,15.46,6.41,29.06,5.71,31.11c-1.08,1.59-7.27,10.55-15.48,20.1
				c-10,11.63,0.64,28.62,1.81,30.41c1.64,3.18,33.67,65.42,36.83,73.48c2.73,6.96,4.71,16.02,5.23,18.54l-10.28,28.21
				c-0.28,0.76-0.17,1.61,0.29,2.28s1.21,0.97,2.02,0.98L675,640C675.01,640,675.02,640,675.03,640z"/>
		</g>
	</g>
	<path class="st0" d="M457.3,288.68c0,0-13.96,0.57-27.43,16.86c-13.47,16.29-28.82,21.54-34.34,16.66c0,0,0.53-10.88-6.05-11.67
		c-6.58-0.79-11.47-5.36-11.47-5.36s-1.79,23.25,11.57,23.73l3.27,0.58c0,0,14.95,4.68,28.55-6.66
		c13.6-11.34,24.96-15.34,24.96-15.34S454.75,290.72,457.3,288.68z"/>
	<g>
		<g>
			<path class="st3" d="M598.66,509.67L562,531.26l21.33,68.41c0,0,2,12-3,18s-23,24-23,24L540,620.33l14-22.67l-33.33-88
				c0,0,4-18.88,12.67-32.77c8.67-13.89,17.33-36.56,17.33-36.56L598.66,509.67z"/>
			<path class="st0" d="M557.2,644.16c-0.71-0.04-1.37-0.37-1.81-0.92l-17.33-21.33c-0.67-0.83-0.75-1.99-0.19-2.89l13.35-21.62
				l-32.9-86.85c-0.17-0.45-0.21-0.94-0.11-1.4c0.17-0.79,4.19-19.48,12.99-33.58c8.44-13.52,17.03-35.9,17.12-36.13
				c0.33-0.87,1.11-1.48,2.04-1.59c0.93-0.12,1.83,0.3,2.36,1.06l48,69.33c0.4,0.57,0.54,1.28,0.39,1.96
				c-0.15,0.68-0.57,1.26-1.17,1.62l-34.96,20.58l20.74,66.52c0.03,0.11,0.06,0.22,0.08,0.33c0.09,0.54,2.12,13.21-3.54,20.01
				c-5.02,6.02-22.42,23.43-23.15,24.17c-0.47,0.47-1.11,0.73-1.77,0.73C557.29,644.17,557.24,644.17,557.2,644.16z M559.61,532
				c-0.35-1.11,0.12-2.31,1.12-2.9l34.35-20.22l-43.81-63.28c-2.98,7.33-9.34,22.24-15.82,32.62c-7.4,11.87-11.37,27.76-12.18,31.27
				l33.07,87.3c0.28,0.73,0.2,1.54-0.21,2.2l-13.07,21.16l14.46,17.8c4.79-4.82,16.99-17.19,20.89-21.87
				c3.42-4.11,2.97-12.66,2.48-15.83L559.61,532z"/>
		</g>
		<g>
			<path class="st2" d="M849.48,531.26l-22.7,79.66c0,0-6.72,14.79-13.39,18.12L801.34,691H775c0,0,0.34-31.08,4-49.08
				c0,0,0.82-43.48-15.01-68.79C748.17,547.81,849.48,531.26,849.48,531.26z"/>
			<path class="st0" d="M773.22,692.26c-0.47-0.47-0.73-1.12-0.72-1.79c0.01-1.26,0.39-31.02,4.01-49.07
				c0.03-3.33,0.05-43.6-14.63-67.08c-2.35-3.76-2.69-7.76-0.97-11.55c4.09-9.01,20.29-17.48,48.16-25.16
				c20.33-5.6,39.81-8.79,40.01-8.82c0.85-0.14,1.7,0.17,2.27,0.81c0.57,0.64,0.77,1.52,0.54,2.35l-22.7,79.66
				c-0.04,0.12-0.08,0.25-0.13,0.36c-0.69,1.49-6.64,14.03-13.42,18.41l-11.83,60.6c-0.23,1.17-1.26,2.02-2.45,2.02H775
				C774.33,693,773.69,692.73,773.22,692.26z M810.93,628.3c0.15-0.76,0.64-1.41,1.34-1.76c4.75-2.37,10.3-12.55,12.16-16.51
				l21.56-75.65c-23.41,4.16-73.93,15.89-80.52,30.45c-1.04,2.29-0.83,4.46,0.65,6.84c6.76,10.81,11.4,25.89,13.8,44.84
				c1.78,14.02,1.6,24.75,1.59,25.2c0,0.15-0.02,0.3-0.05,0.45c-2.97,14.59-3.73,38.13-3.91,45.84h21.73L810.93,628.3z"/>
		</g>
		<g>
			<path class="st2" d="M873.38,470.45c0,0-8.38,11.88-12.88,26.55s-13.17,50.67-27.17,55.33c-14,4.67-12,30.67-27.33,36
				c-15.33,5.33-36.67-9.33-50.67-10.67c-14-1.33-70.67-11.33-86-16.67c-15.33-5.33-82-31.92-104.33-71.96
				C542.67,449,513.33,420,513.33,420s-90-42.33-80-93c10-50.67,36-84.67,106.67-78c70.67,6.67,96.67,41.33,128.67,43.33
				s129.33-7.33,158.67,48C856.66,395.67,873.38,470.45,873.38,470.45z"/>
			<path class="st0" d="M772.5,585.34c-6.43-2.43-12.51-4.72-17.41-5.19c-14.9-1.42-71.17-11.44-86.58-16.79
				c-3.29-1.14-80.84-28.53-105.7-73.1c-20.72-37.14-47.86-65.06-50.95-68.19c-3.16-1.53-24.16-11.95-43.84-27.61
				c-28.58-22.75-41.43-46.25-37.15-67.94c5.14-26.03,14.05-45.04,27.26-58.11c15.45-15.3,36.71-22.74,64.97-22.74
				c5.42,0,11.18,0.28,17.12,0.84c42.12,3.97,68.48,17.74,89.67,28.8c14.7,7.67,26.3,13.74,38.92,14.52
				c4.82,0.3,11.23,0.34,18.64,0.39c20.98,0.13,49.72,0.32,76.68,6.38c32.28,7.27,54.28,21.58,65.4,42.55
				c29.15,55,46.11,129.99,46.28,130.74c0.15,0.69,0.01,1.41-0.4,1.99c-0.08,0.12-8.21,11.75-12.54,25.84
				c-0.55,1.79-1.16,3.9-1.83,6.23c-5.34,18.41-13.4,46.24-26.93,50.75c-5.76,1.92-8.52,8.68-11.44,15.83
				c-3.26,8-6.96,17.06-15.86,20.16c-2.48,0.86-5.25,1.3-8.22,1.3h0C790.16,592,781.18,588.61,772.5,585.34z M825.12,341.5
				c-10.55-19.9-30.85-32.98-62.08-40.01c-26.43-5.95-54.85-6.13-75.61-6.26c-7.49-0.05-13.96-0.09-18.92-0.4
				c-13.68-0.86-26.3-7.45-40.92-15.08c-20.8-10.86-46.68-24.38-87.82-28.26c-5.79-0.55-11.39-0.82-16.66-0.82
				c-49.91,0-76.84,23.69-87.32,76.82c-9.51,48.17,77.73,89.84,78.61,90.25c0.26,0.12,0.49,0.28,0.69,0.48
				c0.3,0.29,29.84,29.71,52.09,69.6c23.94,42.93,99.76,69.7,102.97,70.81c14.78,5.14,71.08,15.17,85.42,16.54
				c5.56,0.53,11.94,2.94,18.7,5.48c8.26,3.11,16.8,6.33,24.33,6.33h0c2.45,0,4.6-0.33,6.58-1.02c6.76-2.35,9.73-9.62,12.87-17.32
				c3.22-7.89,6.55-16.04,14.49-18.69c11.04-3.68,19.28-32.12,23.71-47.39c0.68-2.36,1.3-4.49,1.86-6.3
				c3.89-12.68,10.51-23.19,12.59-26.32C868.54,460.68,852.09,392.37,825.12,341.5z"/>
		</g>
		<g>
			<path class="st2" d="M752.08,511c0,0-9.49,12.12-12.16,14.79l24.04,63.77c0,0,10.69,24.64-1.98,38.64S724.67,680,724.67,680H699
				c0,0,19-42.08,29.66-58.75c0,0,2.92-16.79-3.21-20.79s-46.79-46.73-46.79-46.73s-10.67-11.37-7.33-22.03
				c3.33-10.67,24-76.02,24-76.02"/>
			<path class="st0" d="M699,682h25.67c0.84,0,1.63-0.42,2.09-1.13c0.25-0.37,24.68-37.55,37.07-51.25
				c5.69-6.29,7.89-15.44,6.36-26.47c-1.08-7.75-3.6-13.81-3.92-14.54l-23.48-62.26c3.54-3.99,10.9-13.37,11.25-13.82
				c0.85-1.09,0.66-2.66-0.43-3.51c-1.09-0.85-2.66-0.66-3.51,0.43c-2.61,3.34-9.86,12.46-11.96,14.56
				c-0.69,0.69-0.92,1.73-0.57,2.65l24.04,63.77c0.01,0.04,0.03,0.08,0.05,0.12c0.1,0.23,9.88,23.09-1.54,35.71
				c-11.57,12.78-32.52,44.25-36.8,50.73H702.9c4.82-10.42,19.22-41.14,27.87-54.65c0.18-0.28,0.3-0.59,0.36-0.92
				c0.33-1.87,2.99-18.43-4.3-23.19c-4.83-3.15-35.09-34.49-46.35-46.3c-0.08-0.09-9.61-10.41-6.76-19.53
				c3.29-10.54,23.79-75.34,24-75.99c0.42-1.32-0.31-2.72-1.63-3.14c-1.32-0.41-2.72,0.31-3.14,1.63
				c-0.21,0.65-20.71,65.46-24,76.01c-3.73,11.92,7.42,23.95,7.9,24.46c4.19,4.4,41.06,43.01,47.25,47.05
				c3.19,2.08,3.21,11.4,2.19,17.66c-10.68,16.88-28.79,56.68-29.56,58.38c-0.35,0.77-0.29,1.67,0.17,2.39
				C697.36,681.57,698.15,682,699,682z"/>
		</g>
		<g>
			<path class="st2" d="M557.33,446.33c0,0-2.67,48-30.67,74.67c-28,26.67-30.67,34.67-30.67,34.67l18,78.67L496,665l-26-9.33
				l12.67-28c0,0-1.33-11.33-4-20c-2.67-8.67-31.33-76.41-31.33-76.41s-10-17.59,0-27.59c10-10,17.33-19.33,17.33-19.33
				s7.33-15.33-3.33-34c0,0-30.21-79.03-28.77-113.18"/>
			<path class="st0" d="M496,667.5c0.87,0,1.7-0.45,2.16-1.23l18-30.67c0.32-0.55,0.42-1.2,0.28-1.82l-17.81-77.85
				c1.12-2.15,6.65-11.1,29.77-33.12c28.39-27.04,31.33-74.34,31.44-76.34c0.08-1.38-0.98-2.56-2.36-2.63
				c-1.38-0.06-2.56,0.98-2.64,2.36c-0.03,0.47-2.96,47.34-29.9,73c-27.65,26.33-31.02,34.81-31.31,35.69
				c-0.14,0.44-0.17,0.9-0.07,1.35l17.78,77.7l-16.45,28.02l-21.5-7.72l11.55-25.53c0.19-0.41,0.26-0.87,0.21-1.32
				c-0.05-0.47-1.39-11.66-4.09-20.44c-2.67-8.69-30.25-73.88-31.42-76.65c-0.04-0.09-0.08-0.18-0.13-0.26
				c-0.09-0.16-8.93-16.07-0.41-24.59c9.99-9.99,17.46-19.46,17.53-19.56c0.11-0.14,0.21-0.3,0.29-0.47
				c0.32-0.67,7.73-16.65-3.32-36.15c-1.58-4.18-29.91-79.53-28.54-112.01c0.06-1.38-1.01-2.54-2.39-2.6
				c-1.36-0.09-2.54,1.01-2.6,2.39c-0.61,14.45,4.09,38.08,13.96,70.24c7.31,23.83,14.91,43.75,14.98,43.94
				c0.05,0.12,0.1,0.24,0.16,0.35c9.26,16.21,4.21,29.46,3.35,31.45c-1.2,1.5-8.05,9.97-16.95,18.88
				c-10.85,10.85-1.52,28.58-0.48,30.46c1.39,3.28,28.65,67.77,31.19,76.05c2.2,7.16,3.49,16.33,3.82,18.88l-12.38,27.36
				c-0.29,0.64-0.3,1.36-0.02,2c0.27,0.64,0.8,1.14,1.46,1.38l26,9.33C495.43,667.45,495.71,667.5,496,667.5z"/>
		</g>
	</g>
	<path class="st4" d="M1051.05,277.45L694.09,384.9c0,0-30.84,11.17-33.33-25.13l363.16-106.25
		C1023.92,253.53,1053.87,246.74,1051.05,277.45z"/>
	<g>
		<path class="st0" d="M658.26,359.95c-0.08-1.17,0.67-2.24,1.79-2.57l363.16-106.25c0.05-0.01,0.1-0.03,0.15-0.04
			c0.13-0.03,3.13-0.7,7.19-0.7c5.31,0,12.71,1.16,17.76,6.7c4.29,4.7,6.05,11.63,5.23,20.59c-0.09,1.01-0.79,1.87-1.77,2.17
			L694.86,387.28c-0.65,0.23-5.22,1.75-10.93,1.75h0C675.09,389.03,660,385.25,658.26,359.95z M1044.62,260.46
			c-3.82-4.19-9.76-5.07-14.07-5.07c-3.16,0-5.6,0.48-6.02,0.56L663.42,361.6c1.53,14.88,8.42,22.43,20.51,22.43
			c5.13,0,9.27-1.46,9.31-1.47c0.04-0.02,0.09-0.03,0.13-0.04l355.32-106.96C1049.04,268.88,1047.68,263.81,1044.62,260.46z"/>
	</g>
	<g>
		<path class="st3" d="M762.32,373.76c0,0-8.74,122.4,96.97,127.32l-9.13,28.15c0,0-114.49,13.52-117.32-148.85L762.32,373.76z"/>
		<path class="st0" d="M778.63,509.07c-31-25.22-47.25-68.51-48.3-128.66c-0.02-1.19,0.79-2.22,1.95-2.48l29.49-6.62
			c0.77-0.17,1.58,0.03,2.18,0.54c0.6,0.52,0.92,1.28,0.86,2.07c-0.04,0.59-3.82,59.12,28.6,95.6c15.97,17.98,38.18,27.75,66,29.04
			c0.78,0.04,1.5,0.43,1.94,1.07c0.44,0.64,0.56,1.45,0.32,2.19L852.53,530c-0.3,0.93-1.12,1.6-2.08,1.71
			c-0.1,0.01-2.53,0.29-6.63,0.29h0C832.68,532,804.06,529.77,778.63,509.07z M855.91,503.38c-27.7-1.96-49.97-12.22-66.24-30.53
			c-29.64-33.35-30.38-82.64-30-95.94l-24.3,5.45C738.51,516.53,819.09,527,843.81,527c1.92,0,3.44-0.07,4.48-0.13L855.91,503.38z"
			/>
	</g>
	<g>
		<path class="st3" d="M933.32,317.76c0,0-8.74,122.4,96.97,127.32l-9.13,28.15c0,0-114.49,13.52-117.32-148.85L933.32,317.76z"/>
		<path class="st0" d="M949.63,453.07c-31-25.22-47.25-68.51-48.3-128.66c-0.02-1.19,0.79-2.22,1.95-2.48l29.49-6.62
			c0.77-0.17,1.58,0.03,2.18,0.54c0.6,0.52,0.92,1.28,0.86,2.07c-0.04,0.59-3.82,59.12,28.6,95.6c15.97,17.98,38.18,27.75,66,29.04
			c0.78,0.04,1.5,0.43,1.94,1.07c0.44,0.64,0.56,1.45,0.32,2.19l-9.13,28.15c-0.3,0.93-1.12,1.6-2.08,1.71
			c-0.1,0.01-2.53,0.29-6.63,0.29h0C1003.68,476,975.06,473.77,949.63,453.07z M1026.91,447.38c-27.7-1.96-49.97-12.22-66.24-30.53
			c-29.64-33.35-30.38-82.64-30-95.94l-24.3,5.45C909.51,460.53,990.09,471,1014.81,471c1.92,0,3.44-0.07,4.48-0.13L1026.91,447.38z
			"/>
	</g>
	<g>
		<g>
			<path class="st2" d="M878.22,320.37c0,0-4.16,5.74,3.12,13.65c7.28,7.91,25.92,5.71,35.1-8.01c9.17-13.72,3.8-43.27-2-44.68
				C908.64,279.91,905.59,320.05,878.22,320.37z"/>
			<path class="st0" d="M879.5,335.71c-8.57-9.31-3.52-16.51-3.3-16.81c0.46-0.64,1.2-1.02,2-1.03
				c16.79-0.19,23.66-17.19,28.2-28.44c2.68-6.63,4.3-10.64,7.75-10.64c0.3,0,0.6,0.04,0.89,0.11c2.23,0.54,4.07,2.74,5.61,6.72
				c3.88,9.97,5.35,30.58-2.13,41.77c-6.75,10.09-17.37,13.69-25.06,13.69C887.64,341.07,882.68,339.17,879.5,335.71z M911.03,291.3
				c-4.61,11.41-12.24,30.3-31.21,31.51c-0.5,1.61-0.77,5.03,3.36,9.51c2.19,2.38,5.94,3.75,10.27,3.75c6.4,0,15.25-3.01,20.9-11.46
				c5.48-8.2,5.47-23.62,2.67-33.97c-1.04-3.82-2.14-5.72-2.76-6.48C913.38,285.48,912.09,288.66,911.03,291.3z"/>
		</g>
		<g>
			<path class="st2" d="M913.44,368.88l-29.53-39.72c0,0-8.84-15.45-23.86-9.58c-15.02,5.88-29.41,14.4-42.38,13.24
				c-12.97-1.17-20.51,8.84-27.9,17.86c-7.39,9.02-19.5,29.47-17.17,48.01c2.33,18.54,37.27,48.95,43.32,55.91
				c6.05,6.96,33.2,7.92,39.25,14.88c6.05,6.96,25.2,27.97,39.19,29.02c14,1.05,42.75-8.87,43.07-17.92c0,0,4.16-14.55-7.68-23.37
				c-11.84-8.82-21.35-33.47-21.62-38.56C907.88,413.55,929.05,389.88,913.44,368.88z"/>
			<path class="st0" d="M894.18,500.98c-13.87-1.04-31.57-19.16-40.89-29.87c-2.5-2.87-10.91-4.88-18.32-6.65
				c-8.94-2.13-17.38-4.14-20.93-8.23c-1.14-1.31-3.46-3.59-6.39-6.49c-12.42-12.24-35.55-35.03-37.52-50.75
				c-2.43-19.36,10-40.48,17.72-49.9l0.96-1.18c6.77-8.29,14.44-17.69,26.82-17.69c0.75,0,1.51,0.03,2.27,0.1
				c0.72,0.07,1.48,0.1,2.23,0.1c8.59,0,18.05-4.15,28.06-8.54c3.56-1.56,7.24-3.18,10.95-4.63c2.55-1,5.12-1.5,7.62-1.5
				c11.64,0,18.38,10.6,19.23,12.02l29.45,39.62c12.66,17.03,2.99,35.53-2.2,45.48c-1.14,2.18-2.56,4.89-2.61,5.64
				c0.24,4.64,9.42,28.36,20.61,36.69c12.27,9.14,9.24,23.5,8.67,25.77c-0.91,11.03-29.1,20.1-43.38,20.1
				C895.71,501.06,894.92,501.04,894.18,500.98z M860.96,321.91c-3.61,1.41-7.25,3.01-10.76,4.55c-10.51,4.61-20.43,8.96-30.07,8.96
				c-0.91,0-1.81-0.04-2.68-0.12c-0.61-0.05-1.23-0.08-1.82-0.08c-10.01,0-16.29,7.7-22.95,15.86l-0.97,1.19
				c-15.34,18.72-17.67,37.79-16.63,46.11c1.76,14,24.93,36.84,36.07,47.81c3.01,2.97,5.39,5.32,6.66,6.77
				c2.5,2.87,10.9,4.88,18.32,6.65c8.94,2.13,17.38,4.15,20.93,8.23c14.78,16.98,28.79,27.51,37.49,28.16
				c0.62,0.05,1.28,0.07,1.98,0.07c14.86,0,38.19-9.47,38.41-15.58c0.01-0.2,0.04-0.4,0.09-0.59c0.15-0.53,3.5-13.03-6.77-20.68
				c-12.5-9.3-22.31-34.51-22.62-40.44c-0.1-1.95,1.13-4.3,3.17-8.21c5.02-9.6,13.41-25.67,2.62-40.18l-29.53-39.72
				c-0.06-0.08-0.11-0.16-0.16-0.24c-0.06-0.1-5.7-9.66-14.98-9.66C864.89,320.75,862.93,321.14,860.96,321.91z"/>
		</g>
		<path class="st0" d="M886.16,487.84c2.42-6.95-4.38-11.43,2.23-15.17c6.62-3.74,20.76-3.68,29.91-6.38
			c5.31-1.56,9.2-5.77,11.53-9.04c11.74,8.83,7.6,23.31,7.6,23.31c-0.32,9.05-29.07,18.97-43.07,17.92
			c-3.03-0.23-6.3-1.39-9.62-3.14C884.99,492.66,885.42,489.98,886.16,487.84z"/>
		<g>
			<path class="st1" d="M901.26,493.09c0.62,0,1.25-0.23,1.73-0.7c0.99-0.96,1.03-2.54,0.07-3.54c-2.39-2.48-4.72-5.41-5-6.27
				c-0.25-1.36-1.56-2.21-2.91-1.96c-1.36,0.25-2.24,1.59-1.99,2.95c0.45,2.39,4.13,6.51,6.29,8.75
				C899.95,492.83,900.6,493.09,901.26,493.09z"/>
		</g>
		<g>
			<path class="st0" d="M907.15,416c0,0,0.01,0,0.02,0c1.38,0,2.49-0.91,2.48-2.29c-0.09-12.85,4.79-15.97,4.84-16
				c1.21-0.67,1.61-2.12,0.94-3.33c-0.67-1.21-2.22-1.6-3.43-0.92c-0.76,0.42-7.45,4.4-7.34,20.28
				C904.66,415.1,905.78,416,907.15,416z"/>
		</g>
		<path class="st0" d="M833.94,407.71c6.94,7.76,21.07,11.39,21.07,11.39s-0.76,1.71-10.94,2.23l-6.63-3L833.94,407.71z"/>
		<g>
			<path class="st0" d="M852.33,404.33c0.59,0,1.18-0.2,1.65-0.62c1.03-0.91,1.13-2.49,0.22-3.53c-0.39-0.45-9.77-10.96-18.82-8.73
				c-1.34,0.33-2.16,1.68-1.83,3.02c0.33,1.34,1.68,2.16,3.02,1.83c5.08-1.25,11.74,4.76,13.88,7.18
				C850.95,404.05,851.63,404.33,852.33,404.33z"/>
		</g>
		<g>
			<path class="st3" d="M800.78,335.45c0,0,4.6,5.39-2.04,13.85c-6.64,8.46-25.39,7.72-35.62-5.24
				c-10.22-12.96-7.17-42.83-1.51-44.7C767.28,297.5,773.46,337.28,800.78,335.45z"/>
			<path class="st0" d="M761.16,345.61c-8.34-10.57-8.48-31.23-5.4-41.47c1.23-4.09,2.89-6.43,5.07-7.14
				c0.38-0.12,0.77-0.19,1.17-0.19c3.27,0,5.15,3.77,8.26,10.01c5.38,10.79,13.58,27.28,30.34,26.15c0.79-0.04,1.56,0.27,2.07,0.87
				c0.24,0.28,5.83,7.06-1.97,17.02c-3.25,4.15-8.93,6.52-15.59,6.52h0C775.92,357.37,766.97,352.97,761.16,345.61z M798.96,338.01
				c-18.73,0-27.77-18.14-33.17-28.97c-1.26-2.54-2.79-5.59-3.78-6.85c-0.59,0.84-1.53,2.81-2.25,6.67
				c-1.98,10.53-0.79,25.9,5.32,33.65c4.87,6.17,12.36,9.86,20.03,9.86c5.11,0,9.35-1.68,11.65-4.61c3.77-4.81,3.23-8.2,2.61-9.75
				C799.24,338.01,799.1,338.01,798.96,338.01z"/>
		</g>
		<g>
			<g>
				<path class="st2" d="M783.19,354.79c0,0-39.62-1.48-60.72,31.97C722.47,386.76,771.04,415.03,783.19,354.79z"/>
				<path class="st0" d="M721.21,388.92c-0.59-0.34-1.01-0.91-1.17-1.57c-0.16-0.66-0.05-1.36,0.31-1.93
					c19.9-31.55,55.2-33.15,62.08-33.15c0.55,0,0.85,0.01,0.85,0.01c0.73,0.03,1.42,0.38,1.87,0.95c0.45,0.58,0.63,1.32,0.49,2.04
					c-6.77,33.56-24.76,40.6-38.66,40.6C733.34,395.89,721.7,389.21,721.21,388.92z M726.09,385.81c3.86,1.83,11.99,5.08,20.88,5.08
					c16.76,0,27.88-11.28,33.1-33.55C770.48,357.77,743.08,361.21,726.09,385.81z"/>
			</g>
			<g>
				<path class="st2" d="M780.65,364.62c0,0-40.69,10.3-57.15,20.56"/>
				<path class="st0" d="M723.5,387.68c0.45,0,0.91-0.12,1.32-0.38c15.94-9.94,56.04-20.16,56.44-20.26
					c1.34-0.34,2.15-1.7,1.81-3.04c-0.34-1.34-1.7-2.15-3.04-1.81c-1.68,0.42-41.26,10.52-57.86,20.86
					c-1.17,0.73-1.53,2.27-0.8,3.44C721.85,387.26,722.67,387.68,723.5,387.68z"/>
			</g>
		</g>
	</g>
	<g>
		<g>
			<path class="st3" d="M1044.57,267.36c0,0-4.64,5.36,1.93,13.87c6.57,8.51,25.33,7.92,35.65-4.96s7.51-42.78,1.86-44.68
				C1078.37,229.68,1071.87,269.41,1044.57,267.36z"/>
			<path class="st0" d="M1044.53,282.76c-7.73-10.01-2.09-16.75-1.84-17.03c0.52-0.6,1.28-0.91,2.08-0.86
				c0.61,0.05,1.23,0.07,1.83,0.07c15.51,0,23.46-15.63,28.72-25.98c3.15-6.2,5.05-9.95,8.31-9.95c0.41,0,0.81,0.07,1.2,0.2
				c2.17,0.73,3.81,3.08,5.01,7.18c3.01,10.27,2.7,30.93-5.72,41.44c-5.81,7.25-14.72,11.58-23.83,11.58
				C1053.53,289.41,1047.79,286.98,1044.53,282.76z M1079.76,241.23c-5.52,10.86-14.83,29.13-33.83,28.7
				c-0.64,1.53-1.22,4.89,2.55,9.77c2.27,2.95,6.68,4.7,11.79,4.7c7.61,0,15.06-3.63,19.93-9.7c6.17-7.7,7.48-23.06,5.58-33.61
				c-0.7-3.9-1.64-5.88-2.19-6.69C1082.6,235.64,1081.05,238.69,1079.76,241.23z"/>
		</g>
		<g>
			<path class="st2" d="M1075.49,318.73l-26-42.12c0,0-7.48-16.16-22.95-11.59c-15.46,4.56-30.54,11.82-43.36,9.54
				c-12.82-2.28-21.19,7.04-29.33,15.39c-8.14,8.35-21.96,27.68-21.25,46.35c0.72,18.67,32.91,51.98,38.35,59.43
				c5.43,7.45,32.4,10.75,37.83,18.2c5.43,7.45,22.7,30.03,36.55,32.28s43.35-5.16,44.45-14.15c0,0,5.4-14.14-5.64-23.94
				c-11.04-9.8-18.39-35.19-18.21-40.28C1066.1,362.75,1089.23,341,1075.49,318.73z"/>
			<path class="st0" d="M1044.92,448.68c-13.73-2.23-29.81-21.81-38.17-33.28c-2.24-3.08-10.45-5.8-17.68-8.2
				c-8.72-2.89-16.96-5.63-20.14-10c-1.02-1.4-3.13-3.87-5.81-7.01c-11.32-13.27-32.4-37.96-33.01-53.8
				c-0.75-19.5,13.45-39.47,21.95-48.19l1.06-1.09c7.01-7.22,14.96-15.41,26.2-15.41c1.41,0,2.85,0.13,4.3,0.39
				c1.47,0.26,3.05,0.39,4.69,0.39c7.96,0,16.83-3.01,26.22-6.2c3.68-1.25,7.49-2.54,11.31-3.67c2.05-0.61,4.1-0.91,6.08-0.91
				c12.68,0,19,12.13,19.77,13.71l25.93,42.01c11.15,18.06-0.08,35.66-6.11,45.12c-1.32,2.07-2.97,4.65-3.09,5.39
				c-0.16,4.64,6.95,29.06,17.38,38.33c11.44,10.16,7.19,24.2,6.42,26.42c-1.78,10.64-27.99,16.44-41.16,16.44
				C1048.78,449.12,1046.72,448.97,1044.92,448.68z M1027.25,267.42c-3.72,1.1-7.48,2.37-11.11,3.61
				c-9.79,3.32-19.04,6.46-27.83,6.46c-1.93,0-3.81-0.16-5.57-0.47c-1.16-0.21-2.31-0.31-3.42-0.31c-9.12,0-15.98,7.06-22.61,13.89
				l-1.07,1.1c-16.9,17.33-20.86,36.13-20.54,44.51c0.54,14.1,21.67,38.85,31.82,50.74c2.75,3.22,4.91,5.76,6.05,7.31
				c2.24,3.08,10.44,5.8,17.68,8.2c8.72,2.89,16.96,5.63,20.15,10c13.26,18.19,26.32,29.89,34.93,31.29
				c1.53,0.25,3.32,0.38,5.33,0.38c15.25,0,35.58-6.93,36.24-12.36c0.02-0.2,0.07-0.4,0.14-0.58c0.19-0.51,4.61-12.68-4.96-21.19
				c-11.65-10.34-19.26-36.3-19.05-42.24c0.07-1.95,1.5-4.19,3.87-7.91c5.82-9.13,15.57-24.42,6.07-39.8l-26-42.12
				c-0.05-0.08-0.1-0.17-0.14-0.26c-0.05-0.11-5.19-10.96-15.3-10.96C1030.42,266.71,1028.85,266.95,1027.25,267.42z"/>
		</g>
		<path class="st0" d="M1038.07,434.91c3.01-6.72-3.38-11.76,3.53-14.92c6.91-3.16,21-1.88,30.35-3.78
			c5.43-1.1,9.66-4.96,12.26-8.01c10.94,9.8,5.57,23.87,5.57,23.87c-1.1,8.99-30.6,16.4-44.45,14.15c-3-0.49-6.15-1.93-9.31-3.96
			C1036.48,439.6,1037.14,436.97,1038.07,434.91z"/>
		<g>
			<path class="st1" d="M1052.87,441.44c0.55,0,1.11-0.18,1.57-0.56c1.07-0.87,1.24-2.44,0.37-3.52c-2.17-2.68-4.24-5.8-4.44-6.68
				c-0.14-1.37-1.36-2.34-2.73-2.21c-1.37,0.14-2.37,1.4-2.23,2.77c0.24,2.42,3.56,6.84,5.52,9.26
				C1051.42,441.12,1052.14,441.44,1052.87,441.44z"/>
		</g>
		<g>
			<path class="st0" d="M1065.34,365.59c1.29,0,2.39-0.99,2.49-2.3c1.02-12.81,6.15-15.61,6.21-15.64c1.26-0.57,1.79-2.03,1.23-3.29
				c-0.57-1.26-2.08-1.81-3.34-1.24c-0.8,0.36-7.82,3.96-9.08,19.78c-0.11,1.38,0.92,2.58,2.29,2.69
				C1065.21,365.58,1065.27,365.59,1065.34,365.59z"/>
		</g>
		<path class="st0" d="M992.94,350.58c6.25,8.33,20.01,13.16,20.01,13.16s-0.9,1.64-11.09,1.28l-6.35-3.56L992.94,350.58z"/>
		<g>
			<path class="st0" d="M1011.76,348.8c0.52,0,1.04-0.16,1.48-0.49c1.11-0.82,1.35-2.38,0.53-3.5c-0.35-0.48-8.78-11.76-18-10.32
				c-1.36,0.21-2.3,1.49-2.09,2.85c0.21,1.36,1.49,2.3,2.86,2.09c5.19-0.81,11.29,5.75,13.21,8.34
				C1010.24,348.45,1011,348.8,1011.76,348.8z"/>
		</g>
		<g>
			<path class="st3" d="M966.12,275.73c0,0,4.12,5.77-3.22,13.62c-7.34,7.85-25.96,5.5-35.03-8.29
				c-9.07-13.79-3.46-43.29,2.35-44.66C936.01,235.04,938.75,275.2,966.12,275.73z"/>
			<path class="st0" d="M925.78,282.28c-7.4-11.25-5.76-31.69-1.81-41.63c1.58-3.97,3.44-6.16,5.67-6.68
				c0.28-0.07,0.57-0.11,0.86-0.11c3.46,0,5.05,4.02,7.69,10.69c4.46,11.28,11.19,28.32,27.98,28.64c0.79,0.02,1.53,0.36,1.99,1.01
				c0.22,0.3,5.2,7.46-3.43,16.7c-3.17,3.39-8.07,5.1-13.79,5.1h0C943.18,296,932.5,292.51,925.78,282.28z M933.54,246.4
				c-1.04-2.64-2.3-5.81-3.17-7.15c-0.66,0.78-1.76,2.67-2.82,6.44c-2.88,10.32-3.02,25.74,2.4,33.99
				c4.64,7.06,12.88,11.63,20.98,11.63c4.33,0,7.93-1.3,10.14-3.67c4.17-4.47,3.92-7.9,3.44-9.49
				C945.55,276.81,938.06,257.85,933.54,246.4z"/>
		</g>
		<g>
			<g>
				<path class="st2" d="M946.93,293.48c0,0-39.35-4.89-63.25,26.62C883.69,320.11,929.64,352.45,946.93,293.48z"/>
				<path class="st0" d="M882.25,322.15c-0.55-0.39-0.93-0.99-1.03-1.66c-0.1-0.67,0.07-1.35,0.48-1.89
					c19.09-25.17,47.87-27.89,59.35-27.89c3.79,0,6.1,0.28,6.2,0.29c0.73,0.09,1.38,0.5,1.78,1.11c0.4,0.61,0.52,1.37,0.31,2.08
					c-4.99,17-15.73,37.27-38.6,37.27C895.65,331.46,882.79,322.53,882.25,322.15z M941.05,295.71c-10.4,0-35.95,2.37-53.66,23.76
					c4.1,2.39,13.3,6.99,23.35,6.99c15.15,0,26.21-10.33,32.88-30.7C942.87,295.73,942.01,295.71,941.05,295.71z"/>
			</g>
			<g>
				<path class="st2" d="M943.56,303.05c0,0-41.43,6.76-58.71,15.56"/>
				<path class="st0" d="M884.85,321.12c0.38,0,0.77-0.09,1.13-0.27c16.73-8.52,57.57-15.26,57.98-15.32
					c1.36-0.22,2.29-1.51,2.07-2.87c-0.22-1.36-1.51-2.29-2.87-2.06c-1.71,0.28-42.01,6.92-59.44,15.8
					c-1.23,0.63-1.72,2.13-1.09,3.36C883.06,320.62,883.94,321.12,884.85,321.12z"/>
			</g>
		</g>
	</g>
	<g>
		<g>
			<path class="st2" d="M541.33,358.67c0,0,4,31-10,52.33"/>
			<path class="st0" d="M531.33,413.5c0.81,0,1.61-0.4,2.09-1.13c14.34-21.86,10.56-52.72,10.39-54.03
				c-0.18-1.37-1.41-2.34-2.8-2.16c-1.37,0.18-2.34,1.43-2.16,2.8c0.04,0.3,3.7,30.35-9.61,50.64c-0.76,1.16-0.44,2.71,0.72,3.46
				C530.38,413.37,530.86,413.5,531.33,413.5z"/>
		</g>
		<g>
			<path class="st2" d="M531.61,365.73c0,0,1.72,17.59-4.95,30.1"/>
			<path class="st0" d="M526.66,398.33c0.89,0,1.76-0.48,2.21-1.32c6.94-13.02,5.3-30.77,5.23-31.52c-0.13-1.37-1.36-2.38-2.73-2.24
				c-1.37,0.13-2.38,1.36-2.25,2.73c0.02,0.17,1.56,17.01-4.67,28.68c-0.65,1.22-0.19,2.73,1.03,3.38
				C525.87,398.24,526.27,398.33,526.66,398.33z"/>
		</g>
	</g>
	<g>
		<path class="st3" d="M670.69,440.25c0,0,3.48,36.94,13.78,47.75"/>
		<path class="st0" d="M684.47,490.5c0.62,0,1.24-0.23,1.73-0.69c1-0.95,1.04-2.54,0.08-3.53c-7.96-8.35-12.16-36.22-13.1-46.26
			c-0.13-1.38-1.33-2.37-2.72-2.25c-1.37,0.13-2.38,1.35-2.25,2.72c0.15,1.54,3.68,37.94,14.46,49.24
			C683.15,490.24,683.81,490.5,684.47,490.5z"/>
	</g>
</g>
<g>
	<path class="st4" d="M276.5,198l13.54,66.92c0,0,6.8,21.76-19.55,24.76c-26.35,3-93.99,10.82-93.99,10.82l-17,26.29
		c0,0-16.5-31.86-13-62.86L243,252l-10-55L276.5,198z"/>
	<path class="st4" d="M298.04,192c0,0-21.04,39.1-38.99,28.4c-17.95-10.7-64.55-36.65-64.55-36.65l22.78-31.22L298.04,192z"/>
	<g>
		<g>
			<path class="st0" d="M283.76,52.31c-0.23-0.71-5.45-17.49,2.88-31.47c5.07-8.52,14-14.04,26.52-16.4
				c2.7-0.51,5.34-0.77,7.84-0.77c28.33,0,34.28,32.22,34.33,32.54c0.23,1.31-0.62,2.58-1.92,2.87l-66.73,14.91
				c-0.18,0.04-0.37,0.06-0.55,0.06C285.08,54.05,284.1,53.36,283.76,52.31z M321.01,8.67c-2.2,0-4.52,0.23-6.92,0.68
				c-11.04,2.08-18.82,6.8-23.13,14.02c-5.56,9.3-4,20.53-2.99,25.21l61.9-13.83C348.03,27.97,341.03,8.67,321.01,8.67z"/>
		</g>
		<g>
			<path class="st0" d="M273.58,69.8c16.22,0,39.63-4.98,43.1-5.74c0.15-0.03,17.86-3.67,35.09-8.51
				c26.23-7.36,36.42-12.86,35.18-18.96c-0.55-2.69-2.06-4.82-4.5-6.32c-8.83-5.43-27.5-0.54-29.59,0.04
				c-1.33,0.37-2.11,1.74-1.75,3.07c0.36,1.33,1.74,2.12,3.07,1.75c5.13-1.4,19.73-4.25,25.65-0.6c1.25,0.77,1.95,1.74,2.22,3.06
				c-0.04,0.11-1.27,4.76-33.11,13.56c-16.58,4.58-33.13,7.99-33.29,8.02c-17.09,3.73-46.52,8.12-52.86,4.03
				c-0.25-0.16-0.56-0.41-0.61-0.66c-0.26-1.24-0.04-2.33,0.71-3.44c3.02-4.47,12.98-7.05,16.56-7.66c1.36-0.23,2.27-1.53,2.04-2.89
				c-0.23-1.36-1.52-2.27-2.88-2.04c-1.53,0.26-15.1,2.76-19.86,9.78c-1.5,2.22-2.01,4.74-1.46,7.29c0.23,1.07,0.9,2.6,2.8,3.82
				C262.78,69.15,267.71,69.8,273.58,69.8z"/>
		</g>
		<g>
			<path class="st0" d="M284.45,42.07c0.18,0,0.37-0.02,0.56-0.06l64.36-14.67c1.35-0.31,2.19-1.65,1.88-2.99
				c-0.31-1.35-1.64-2.19-2.99-1.88L283.9,37.13c-1.35,0.31-2.19,1.65-1.88,2.99C282.28,41.28,283.31,42.07,284.45,42.07z"/>
		</g>
	</g>
	<g>
		<path class="st0" d="M331.9,104.49c1.97,0,4.06-0.19,6.29-0.6c19.29-3.62,20.4-27.54,18.29-39.69c-0.24-1.36-1.54-2.27-2.89-2.03
			c-1.36,0.24-2.27,1.53-2.04,2.89c0.05,0.3,4.99,30.31-14.28,33.92c-17.25,3.23-24.98-9.83-25.05-9.96
			c-0.69-1.2-2.22-1.61-3.41-0.92c-1.2,0.69-1.61,2.22-0.92,3.41C307.96,91.64,315.55,104.49,331.9,104.49z"/>
	</g>
	<g>
		<path class="st0" d="M302.5,98.19c0.23,0,0.46-0.03,0.69-0.1c1.33-0.38,2.1-1.76,1.72-3.09l-2.46-8.6
			c-0.09-0.32-0.25-0.63-0.46-0.89l-2.79-3.44c-1.31-3.45-1.99-7.49-1.42-8.45c0.13-0.02,0.5-0.04,1.24,0.18l2.21,1.33
			c0.87,0.52,1.96,0.47,2.78-0.13c0.81-0.6,1.18-1.63,0.94-2.62l-2-8c-0.33-1.34-1.69-2.15-3.03-1.82
			c-1.34,0.33-2.15,1.69-1.82,3.03l0.77,3.08c-2.38-0.3-3.83,0.57-4.68,1.47c-3.34,3.54-0.45,11.71,0.51,14.13
			c0.09,0.23,0.22,0.45,0.38,0.65l2.72,3.34l2.32,8.1C300.41,97.48,301.41,98.19,302.5,98.19z"/>
	</g>
	<path class="st0" d="M286.5,65c0,0,0.22,20.75,12.29,23c0,0-4.62-9-3.71-14c0.92-5,4.96-2.48,4.96-2.48l-1.25-7.85L286.5,65z"/>
	<g>
		<path class="st0" d="M334.69,87.57c0.22,0,0.45-0.03,0.67-0.09l6.32-1.76c0.78-0.22,1.41-0.81,1.69-1.57
			c0.27-0.77,0.15-1.62-0.32-2.28l-5.32-7.47c-0.8-1.12-2.36-1.39-3.49-0.59c-1.12,0.8-1.39,2.36-0.59,3.49l3.25,4.57l-2.89,0.81
			c-1.33,0.37-2.11,1.75-1.74,3.08C332.59,86.85,333.59,87.57,334.69,87.57z"/>
	</g>
	<g>
		<path class="st0" d="M320.17,76.21c0.58,0,1.16-0.07,1.72-0.22c3.44-0.91,4.8-4.22,4.94-4.59c0.5-1.29-0.15-2.73-1.43-3.23
			c-1.28-0.49-2.72,0.14-3.22,1.41c-0.03,0.06-0.6,1.34-1.59,1.59c-0.88,0.22-2.22-0.35-3.76-1.6c-1.07-0.87-2.65-0.71-3.52,0.36
			c-0.87,1.07-0.71,2.64,0.36,3.52C315.93,75.28,318.11,76.21,320.17,76.21z"/>
	</g>
	<g>
		<path class="st0" d="M349.17,70.21c0.58,0,1.16-0.07,1.72-0.22c3.44-0.91,4.8-4.22,4.94-4.59c0.5-1.29-0.15-2.73-1.43-3.23
			c-1.28-0.5-2.72,0.14-3.22,1.41c-0.03,0.06-0.6,1.34-1.59,1.59c-0.88,0.22-2.22-0.35-3.76-1.6c-1.07-0.87-2.65-0.71-3.52,0.36
			c-0.87,1.07-0.71,2.65,0.36,3.52C344.93,69.28,347.11,70.21,349.17,70.21z"/>
	</g>
	<g>
		<g>
			<path class="st1" d="M384.93,177.36l-8.23-13.22l-25.75-43.84c0,0-9.49-9.95-20.89-0.75c-11.4,9.21-0.33,22.96-0.33,22.96
				l31.25,47.33c0,0,6.16,10.55,16.71,13.33c10.55,2.79,32.54,9.33,32.54,9.33s12.66,7.85,17.91,5.53
				c5.25-2.32,13.17,2.62,13.17,2.62s-4.14-11.86-10.63-12c0,0,12.27,3.58,15.82,7.54c0,0,0.16-11.11-9.52-12.99
				c0,0,11.24,2.46,13.94,5.39c0,0-1.7-3.45-4.42-6.5c-2.09-2.34-4.77-4.44-7.74-4.56c0,0,13.1,0.79,6.46-2.68
				c-6.64-3.47-12.2-4.32-18.35-2.22l-4.99-0.17L384.93,177.36z"/>
			<path class="st0" d="M440,222.78c-1.28-0.79-5.32-2.86-8.64-2.86c-0.85,0-1.59,0.14-2.2,0.41c-0.96,0.42-2.09,0.64-3.36,0.64
				c-6.07,0-14.67-5-16.59-6.15c-2.72-0.81-22.44-6.65-32.16-9.22c-11.09-2.93-17.58-13.4-18.19-14.42l-31.15-47.18
				c-4.36-5.48-9.71-17.91,0.78-26.38c3.67-2.96,7.56-4.46,11.57-4.46c7.43,0,12.49,5.21,12.7,5.43c0.13,0.14,0.25,0.29,0.35,0.46
				l25.71,43.79l7.8,12.53l35.8,14.63l4.09,0.14c6.5-2.1,12.43-1.36,19.87,2.52c1.03,0.54,3.77,1.97,3.14,4.53
				c-0.27,1.11-1.04,1.81-2.11,2.24c0.32,0.32,0.64,0.66,0.96,1.02c2.91,3.26,4.72,6.91,4.79,7.06c0.55,1.11,0.2,2.46-0.83,3.17
				c-1.03,0.7-2.41,0.55-3.25-0.36c-0.28-0.3-0.78-0.64-1.47-1c1.05,2.56,1.41,5.14,1.39,6.94c-0.02,1.03-0.66,1.94-1.62,2.31
				c-0.97,0.36-2.05,0.09-2.74-0.68c-0.53-0.6-1.44-1.26-2.67-1.97c1,1.97,1.57,3.56,1.7,3.93c0.35,1,0.03,2.11-0.8,2.78
				c-0.45,0.36-1.01,0.55-1.56,0.55C440.86,223.15,440.41,223.03,440,222.78z M436.08,215.66c-0.95-1.48-2.08-2.86-3.3-3.71
				c-1.64-0.56-2.78-0.89-2.79-0.9c-1.2-0.35-1.96-1.54-1.77-2.78c0.19-1.24,1.25-2.14,2.53-2.12c1.44,0.03,2.85,0.46,4.22,1.26
				c3.08,1.07,5.69,2.15,7.82,3.23c-0.93-2.02-2.57-4-5.45-4.79c-0.54-0.13-0.86-0.2-0.87-0.2c-1.34-0.29-2.19-1.61-1.91-2.95
				c0.28-1.34,1.58-2.21,2.93-1.95c0.38,0.07,0.74,0.16,1.02,0.24c1.47,0.35,3.06,0.77,4.64,1.25c-1.27-1.12-2.79-2.1-4.31-2.2
				l-0.2-0.01c-1.37-0.08-2.42-1.25-2.35-2.62c0.07-1.37,1.21-2.42,2.6-2.37l0.2,0.01c0.09,0,0.22,0.01,0.38,0.02
				c-4.21-1.42-7.78-1.43-11.77-0.06c-0.29,0.1-0.59,0.15-0.89,0.13l-4.99-0.17c-0.3-0.01-0.59-0.07-0.86-0.18l-36.97-15.1
				c-0.49-0.2-0.9-0.55-1.18-0.99l-8.26-13.27l-25.58-43.55c-0.82-0.76-4.3-3.71-8.9-3.71c-2.84,0-5.68,1.13-8.43,3.35
				c-9.3,7.51-0.33,18.97,0.05,19.45c0.05,0.06,0.1,0.12,0.14,0.19l31.25,47.33c0.02,0.04,0.05,0.08,0.07,0.11
				c0.06,0.1,5.8,9.7,15.19,12.18c10.47,2.76,32.4,9.29,32.62,9.35c0.21,0.06,0.42,0.15,0.6,0.27c2.51,1.55,9.95,5.58,14.25,5.58
				c0.71,0,1.12-0.12,1.34-0.21c1.25-0.55,2.67-0.83,4.22-0.83C432.96,214.92,434.59,215.22,436.08,215.66z"/>
		</g>
		<g>
			<polygon class="st1" points="383.84,175.62 363.77,193.67 350.4,178.24 374.31,160.28 			"/>
			<path class="st0" d="M363.61,196.16c-0.67-0.04-1.29-0.35-1.73-0.86l-13.37-15.43c-0.45-0.52-0.67-1.21-0.6-1.9
				c0.07-0.69,0.43-1.32,0.99-1.73l23.91-17.95c0.56-0.42,1.28-0.59,1.96-0.46c0.69,0.13,1.29,0.54,1.66,1.14l9.54,15.34
				c0.64,1.03,0.45,2.37-0.45,3.18l-20.08,18.04c-0.46,0.41-1.06,0.64-1.67,0.64C363.72,196.17,363.67,196.17,363.61,196.16z
				 M373.62,163.92l-19.58,14.71l9.95,11.48l16.62-14.94L373.62,163.92z"/>
		</g>
	</g>
	<g>
		<path class="st1" d="M305.1,101l7.9,23.5l19.36-17l8.65,3.5c10.51,7-3.16,28.5-3.16,28.5L300.04,191L216,154.5
			c0,0,18.5-28.5,32.5-48S278.34,88,278.34,88l16.74,3.78"/>
		<path class="st0" d="M300.04,193.5c0.78,0,1.53-0.36,2.02-1.02l37.81-51.5c0.03-0.04,0.06-0.09,0.09-0.14
			c0.61-0.96,14.84-23.66,2.44-31.92c-0.14-0.09-0.29-0.17-0.45-0.24l-8.65-3.5c-0.88-0.35-1.88-0.18-2.59,0.44l-16.53,14.52
			l-6.7-19.94c-0.44-1.31-1.85-2.01-3.17-1.57c-1.31,0.44-2.01,1.86-1.57,3.17l7.9,23.5c0.27,0.79,0.91,1.4,1.72,1.62
			c0.8,0.22,1.67,0.02,2.3-0.54l18.2-15.98l6.97,2.82c7.62,5.49-3.31,23.69-4.04,24.89l-36.57,49.81l-79.5-34.53
			c4.81-7.35,19.4-29.52,30.82-45.43c12.31-17.14,25.71-17.51,27.49-17.47l16.51,3.73c1.34,0.31,2.69-0.54,2.99-1.89
			c0.3-1.35-0.54-2.68-1.89-2.99l-16.74-3.78c-0.13-0.03-0.26-0.05-0.39-0.06c-0.7-0.04-17.39-0.86-32.03,19.54
			c-13.87,19.32-32.38,47.81-32.57,48.1c-0.4,0.62-0.51,1.38-0.3,2.08c0.21,0.7,0.72,1.28,1.4,1.57l84.04,36.5
			C299.37,193.43,299.71,193.5,300.04,193.5z"/>
	</g>
	<g>
		<g>
			<path class="st1" d="M298.04,192l-3.08-18.58l-8.47-60.92c0,0-6-15.52-23-10.51s-11,25.51-11,25.51l13,67.36
				c0,0,2,14.64,12.5,22.64s32.04,25.5,32.04,25.5s10.52,14.63,17.46,14.48c6.94-0.16,13.51,9.02,13.51,9.02s0.87-15.17-6.32-18.33
				c0,0,12.06,9.68,14.18,15.76c0,0,5.32-12.33-4.63-18.92c0,0,11.42,7.95,13.08,12.48c0,0-0.3-4.65-1.93-9.31
				c-1.25-3.58-3.27-7.17-6.53-8.68c0,0,14.28,6.95,8.46,0c-5.82-6.95-11.63-10.48-19.48-10.98l-5.49-2.5L298.04,192z"/>
			<path class="st0" d="M338.98,267.96c-1.6-2.22-6.74-7.98-11.3-7.98l-0.29,0c-7.58,0-16.91-12.13-19.18-15.24
				c-2.46-2-21.99-17.83-31.73-25.24c-10.92-8.32-13.26-22.9-13.45-24.22l-12.97-67.19c-2.29-7.96-2.54-24,12.73-28.49
				c2.47-0.73,4.88-1.1,7.17-1.1c13.64,0,18.66,12.57,18.87,13.1c0.07,0.18,0.12,0.37,0.14,0.56l8.46,60.86l2.94,17.78l33.42,33.12
				l4.68,2.13c8.04,0.63,14.46,4.3,20.77,11.84c0.87,1.04,2.69,3.22,1.69,5.37c-0.29,0.62-1.32,2.14-4.1,1.76
				c0.33,0.73,0.64,1.51,0.93,2.34c1.72,4.93,2.05,9.77,2.06,9.97c0.08,1.24-0.76,2.35-1.98,2.61c-1.21,0.26-2.43-0.42-2.86-1.58
				c-0.27-0.74-1.06-1.78-2.24-3.03c0.26,3.8-0.61,7.37-1.58,9.6c-0.41,0.95-1.38,1.56-2.38,1.51c-1.03-0.04-1.93-0.7-2.27-1.67
				c-0.45-1.28-1.58-2.99-3.27-4.98c0.44,3.66,0.28,6.64,0.27,6.87c-0.06,1.06-0.78,1.96-1.8,2.26c-0.23,0.07-0.47,0.1-0.7,0.1
				C340.22,269,339.46,268.62,338.98,267.96z M333.12,250.12c-0.98-0.79-1.22-2.17-0.57-3.25c0.65-1.07,2-1.5,3.14-0.99
				c1.52,0.67,2.85,1.76,3.95,3.24c2.7,2.4,5.78,5.39,8.15,8.34c0.19-3.14-0.52-7-4.09-9.77c-0.54-0.4-0.87-0.62-0.88-0.63
				c-1.12-0.78-1.41-2.32-0.64-3.46c0.77-1.13,2.31-1.43,3.45-0.68c0.38,0.25,0.73,0.51,1.01,0.72c2.01,1.46,4.22,3.16,6.25,4.92
				c-0.92-2.49-2.49-5.53-4.9-6.73l-0.21-0.1c-1.23-0.6-1.75-2.08-1.16-3.32c0.59-1.24,2.06-1.77,3.31-1.19l0.22,0.1
				c1.07,0.51,2.14,0.98,3.13,1.38c-4.81-4.99-9.61-7.33-15.59-7.71c-0.3-0.02-0.6-0.09-0.88-0.22l-5.49-2.5
				c-0.27-0.12-0.51-0.29-0.72-0.5l-34.31-34c-0.37-0.37-0.62-0.85-0.71-1.37l-3.08-18.64l-8.42-60.6
				c-0.69-1.56-4.71-9.67-14.1-9.67c-1.81,0-3.74,0.3-5.76,0.89c-14.38,4.24-9.52,21.67-9.31,22.41c0.02,0.08,0.04,0.15,0.06,0.23
				l13,67.36c0.01,0.04,0.02,0.09,0.02,0.13c0.02,0.14,2.02,13.74,11.54,20.99c10.41,7.93,31.89,25.37,32.11,25.55
				c0.17,0.14,0.32,0.3,0.45,0.48c4.02,5.58,11.42,13.44,15.37,13.44l0.23,0c4.03,0,7.75,2.34,10.52,4.77
				c-0.36-2.62-1.05-5.37-2.3-7.28C334.28,251.05,333.14,250.12,333.12,250.12z"/>
		</g>
		<g>
			<polygon class="st1" points="297.64,189.56 266.85,200.42 259.05,176.99 294.08,168 			"/>
			<path class="st0" d="M265.75,202.67c-0.6-0.3-1.06-0.82-1.27-1.46l-7.79-23.43c-0.22-0.66-0.15-1.38,0.18-1.99
				c0.33-0.61,0.9-1.05,1.57-1.22l35.03-8.99c0.68-0.18,1.4-0.06,1.99,0.33c0.59,0.38,0.99,1,1.1,1.69l3.55,21.56
				c0.2,1.2-0.49,2.36-1.63,2.76l-30.79,10.86c-0.27,0.1-0.55,0.14-0.83,0.14C266.47,202.92,266.09,202.84,265.75,202.67z
				 M292.06,171.1l-29.79,7.65l6.14,18.47l26.42-9.32L292.06,171.1z"/>
		</g>
	</g>
	<path class="st4" d="M214,155.5l-21.5,27.25c0,0-7,16.75-2,33.25S235,390.5,235,390.5s10.05,6.48,22.5,10
		c13.27,3.75,29,4.57,29,4.57l-14-27.57L237.74,215L250,195.67"/>
	<g>
		<path class="st0" d="M254.14,294.18c0.17,0,0.35-0.02,0.53-0.06c1.35-0.29,2.21-1.62,1.92-2.97l-16.19-75.68l11.71-18.47
			c0.74-1.17,0.39-2.71-0.77-3.45c-1.16-0.74-2.71-0.39-3.45,0.77l-12.26,19.33c-0.35,0.55-0.47,1.22-0.33,1.86l16.4,76.68
			C251.95,293.38,252.99,294.18,254.14,294.18z"/>
	</g>
	<g>
		<path class="st0" d="M211.36,299.04c0.2,0,0.41-0.02,0.62-0.08c1.34-0.34,2.15-1.7,1.81-3.04c-3.7-14.6-7.35-28.97-10.57-41.5
			c-0.34-1.34-1.71-2.14-3.04-1.8c-1.34,0.34-2.14,1.71-1.8,3.04c3.21,12.53,6.87,26.9,10.56,41.49
			C209.23,298.29,210.24,299.04,211.36,299.04z"/>
	</g>
	<g>
		<g>
			<path class="st2" d="M265.55,346l6.95,32l14,27.32c0,0-15.73-0.94-29-4.69c-12.45-3.52-22.5-9.56-22.5-9.56
				S230.13,372,223.59,346H265.55z"/>
			<path class="st0" d="M286.36,407.69c-0.65-0.04-16.16-0.93-29.54-4.72c-12.65-3.58-22.72-9.8-23.14-10.06
				c-0.55-0.34-0.94-0.88-1.1-1.51c0,0-4.87-19.28-11.41-45.28c-0.19-0.75-0.02-1.54,0.45-2.15c0.47-0.61,1.2-0.96,1.97-0.96h41.96
				c1.18,0,2.2,0.82,2.44,1.97l6.88,31.93l13.85,27.15c0.41,0.8,0.36,1.75-0.13,2.5c-0.46,0.71-1.25,1.14-2.09,1.14
				C286.45,407.69,286.41,407.69,286.36,407.69z M226.79,348c5.29,21.01,9.35,37.09,10.38,41.16c2.64,1.53,11.09,6.19,21.01,8.99
				c8.66,2.45,18.51,3.66,24.06,4.18l-11.97-23.46c-0.1-0.19-0.17-0.4-0.22-0.61L263.53,348H226.79z"/>
		</g>
		<g>
			<line class="st2" x1="272.5" y1="377.75" x2="255.04" y2="381.67"/>
			<path class="st0" d="M255.04,384.17c0.18,0,0.37-0.02,0.55-0.06l17.46-3.92c1.35-0.3,2.19-1.64,1.89-2.99
				c-0.3-1.35-1.64-2.19-2.99-1.89l-17.46,3.92c-1.35,0.3-2.19,1.64-1.89,2.99C252.86,383.38,253.9,384.17,255.04,384.17z"/>
		</g>
	</g>
	<g>
		<g>
			<path class="st2" d="M146.75,263.92l44.75-6.73l10,40.53c-15,1.62-24.75,2.78-24.75,2.78l-17,26.29
				C159.75,326.79,143.25,294.92,146.75,263.92z"/>
			<path class="st0" d="M159.63,329.28c-0.89-0.04-1.69-0.56-2.1-1.35c-0.69-1.33-16.81-32.9-13.26-64.29
				c0.13-1.12,0.99-2.02,2.11-2.19l44.75-6.73c1.28-0.19,2.49,0.62,2.8,1.87l10,40.53c0.17,0.7,0.04,1.44-0.38,2.03
				c-0.41,0.59-1.06,0.97-1.78,1.05c-11.88,1.28-20.54,2.29-23.56,2.64l-16.36,25.3c-0.46,0.71-1.25,1.14-2.1,1.14
				C159.71,329.29,159.67,329.28,159.63,329.28z M189.62,260l-40.57,6.11c-1.97,22.98,7.03,46.39,11.06,55.53l14.55-22.5
				c0.4-0.62,1.07-1.04,1.8-1.12c0.09-0.01,8.69-1.03,21.93-2.48L189.62,260z"/>
		</g>
		<g>
			<line class="st2" x1="176.75" y1="300.5" x2="169.33" y2="288.68"/>
			<path class="st0" d="M176.75,303c0.45,0,0.91-0.12,1.33-0.38c1.17-0.73,1.52-2.28,0.79-3.45l-7.42-11.82
				c-0.73-1.17-2.28-1.52-3.45-0.79c-1.17,0.73-1.52,2.28-0.79,3.45l7.42,11.82C175.11,302.59,175.92,303,176.75,303z"/>
		</g>
	</g>
	<g>
		<path class="st0" d="M322.05,139.5c0.12,0,0.25-0.01,0.37-0.03c0.92-0.14,1.68-0.77,1.99-1.65l10.3-29.5
			c0.46-1.3-0.23-2.73-1.54-3.18c-1.3-0.46-2.73,0.23-3.18,1.54l-8.74,25.03l-6.24-8.45c-0.8-1.08-2.32-1.34-3.43-0.57l-6.58,4.54
			V107c0-1.38-1.12-2.5-2.5-2.5s-2.5,1.12-2.5,2.5v25c0,0.93,0.52,1.78,1.34,2.21c0.82,0.43,1.82,0.37,2.58-0.16l8.51-5.87
			l7.61,10.3C320.52,139.13,321.27,139.5,322.05,139.5z"/>
	</g>
	<g>
		<line class="st1" x1="313" y1="124.75" x2="295.08" y2="161.83"/>
		<path class="st0" d="M295.08,164.33c0.93,0,1.82-0.52,2.25-1.41l17.92-37.08c0.6-1.24,0.08-2.74-1.16-3.34
			c-1.25-0.6-2.74-0.08-3.34,1.16l-17.92,37.08c-0.6,1.24-0.08,2.74,1.16,3.34C294.35,164.25,294.72,164.33,295.08,164.33z"/>
	</g>
</g>
</svg>
