<?xml version="1.0" encoding="utf-8"?>
<!-- Generator: Adobe Illustrator 24.1.0, SVG Export Plug-In . SVG Version: 6.00 Build 0)  -->
<svg version="1.1" id="Layer_1" xmlns:v="https://vecta.io/nano"
	 xmlns="http://www.w3.org/2000/svg" xmlns:xlink="http://www.w3.org/1999/xlink" x="0px" y="0px" viewBox="0 0 2560 750"
	 style="enable-background:new 0 0 2560 750;" xml:space="preserve">
<style type="text/css">
	.st0{fill:none;}
	.st1{fill:#1D1D1B;}
	.st2{fill:#C9CA48;}
	.st3{fill:#C67042;}
	.st4{fill:#798023;}
	.st5{fill:#DEE5DC;}
	.st6{fill:#EAEFE8;}
	.st7{fill:url(#SVGID_1_);stroke:#000000;stroke-width:4;stroke-linecap:round;stroke-miterlimit:10;}
	.st8{fill:url(#SVGID_2_);stroke:#000000;stroke-width:4;stroke-linecap:round;stroke-miterlimit:10;}
	.st9{fill:none;stroke:#000000;stroke-width:4;stroke-linecap:round;stroke-miterlimit:10;}
	.st10{fill:url(#SVGID_3_);}
	.st11{fill:url(#SVGID_4_);}
	.st12{fill:url(#SVGID_5_);}
	.st13{fill:url(#SVGID_6_);}
	.st14{fill:url(#SVGID_7_);}
	.st15{fill:url(#SVGID_8_);}
	.st16{fill:url(#SVGID_9_);}
	.st17{fill:url(#SVGID_10_);}
	.st18{fill:url(#SVGID_11_);}
	.st19{fill:url(#SVGID_12_);}
	.st20{fill:#FBFCFA;}
	.st21{fill:url(#SVGID_13_);}
	.st22{fill:url(#SVGID_14_);}
	.st23{fill:url(#SVGID_15_);}
	.st24{fill:url(#SVGID_16_);}
	.st25{fill:url(#SVGID_17_);}
	.st26{fill:url(#SVGID_18_);}
	.st27{fill:url(#SVGID_19_);}
	.st28{fill:url(#SVGID_20_);}
	.st29{fill:url(#SVGID_21_);}
	.st30{fill:url(#SVGID_22_);}
	.st31{fill:url(#SVGID_23_);}
	.st32{fill:url(#SVGID_24_);}
	.st33{fill:url(#SVGID_25_);}
	.st34{fill:url(#SVGID_26_);}
	.st35{fill:url(#SVGID_27_);}
	.st36{fill:url(#SVGID_28_);}
	.st37{fill:url(#SVGID_29_);}
	.st38{fill:url(#SVGID_30_);}
	.st39{fill:url(#SVGID_31_);}
	.st40{fill:url(#SVGID_32_);}
	.st41{fill:url(#SVGID_33_);}
	.st42{fill:url(#SVGID_34_);}
	.st43{fill:url(#SVGID_35_);}
	.st44{fill:url(#SVGID_36_);}
	.st45{fill:url(#SVGID_37_);}
	.st46{fill:url(#SVGID_38_);}
	.st47{fill:url(#SVGID_39_);}
	.st48{fill:url(#SVGID_40_);}
	.st49{fill:url(#SVGID_41_);}
	.st50{fill:url(#SVGID_42_);}
	.st51{fill:url(#SVGID_43_);}
	.st52{fill:url(#SVGID_44_);}
	.st53{fill:url(#SVGID_45_);}
	.st54{fill:url(#SVGID_46_);}
	.st55{fill:url(#SVGID_47_);}
	.st56{fill:url(#SVGID_48_);}
	.st57{fill:url(#SVGID_49_);}
	.st58{fill:url(#SVGID_50_);}
	.st59{fill:url(#SVGID_51_);}
	.st60{fill:url(#SVGID_52_);}
	.st61{fill:url(#SVGID_53_);}
	.st62{fill:url(#SVGID_54_);}
	.st63{fill:url(#SVGID_55_);}
	.st64{fill:url(#SVGID_56_);}
	.st65{fill:url(#SVGID_57_);}
	.st66{fill:url(#SVGID_58_);}
	.st67{fill:url(#SVGID_59_);}
	.st68{fill:url(#SVGID_60_);}
	.st69{fill:url(#SVGID_61_);}
	.st70{fill:url(#SVGID_62_);}
	.st71{fill:url(#SVGID_63_);}
	.st72{fill:url(#SVGID_64_);}
	.st73{fill:url(#SVGID_65_);}
	.st74{fill:url(#SVGID_66_);}
	.st75{fill:url(#SVGID_67_);}
	.st76{fill:url(#SVGID_68_);}
	.st77{fill:url(#SVGID_69_);}
	.st78{fill:url(#SVGID_70_);}
	.st79{fill:url(#SVGID_71_);}
	.st80{fill:url(#SVGID_72_);}
	.st81{fill:url(#SVGID_73_);}
	.st82{fill:url(#SVGID_74_);}
	.st83{fill:url(#SVGID_75_);}
	.st84{fill:url(#SVGID_76_);}
	.st85{fill:url(#SVGID_77_);}
	.st86{fill:url(#SVGID_78_);}
	.st87{fill:url(#SVGID_79_);}
	.st88{fill:url(#SVGID_80_);}
	.st89{fill:url(#SVGID_81_);}
	.st90{fill:url(#SVGID_82_);}
	.st91{fill:url(#SVGID_83_);}
	.st92{fill:url(#SVGID_84_);}
	.st93{fill:url(#SVGID_85_);}
	.st94{fill:url(#SVGID_86_);}
	.st95{fill:url(#SVGID_87_);}
	.st96{fill:url(#SVGID_88_);}
	.st97{fill:url(#SVGID_89_);}
	.st98{fill:url(#SVGID_90_);}
	.st99{fill:url(#SVGID_91_);}
	.st100{fill:url(#SVGID_92_);}
	.st101{fill:url(#SVGID_93_);}
	.st102{fill:url(#SVGID_94_);}
	.st103{fill:url(#SVGID_95_);}
	.st104{fill:url(#SVGID_96_);}
	.st105{fill:url(#SVGID_97_);}
	.st106{fill:url(#SVGID_98_);}
	.st107{fill:url(#SVGID_99_);}
	.st108{fill:url(#SVGID_100_);}
	.st109{fill:url(#SVGID_101_);}
	.st110{fill:url(#SVGID_102_);}
	.st111{fill:url(#SVGID_103_);}
	.st112{fill:#FFFFFF;}
	.st113{fill:url(#SVGID_104_);}
	.st114{fill:url(#SVGID_105_);}
	.st115{fill:url(#SVGID_106_);}
	.st116{fill:url(#SVGID_107_);}
	.st117{fill:url(#SVGID_108_);}
	.st118{fill:url(#SVGID_109_);}
	.st119{fill:url(#SVGID_110_);}
	.st120{fill:url(#SVGID_111_);}
	.st121{fill:url(#SVGID_112_);}
	.st122{fill:url(#SVGID_113_);}
	.st123{fill:url(#SVGID_114_);}
	.st124{fill:url(#SVGID_115_);}
	.st125{fill:url(#SVGID_116_);}
	.st126{fill:url(#SVGID_117_);}
	.st127{fill:url(#SVGID_118_);}
	.st128{fill:url(#SVGID_119_);}
	.st129{fill:url(#SVGID_120_);}
	.st130{fill:url(#SVGID_121_);}
	.st131{fill:url(#SVGID_122_);}
	.st132{fill:url(#SVGID_123_);}
	.st133{fill:url(#SVGID_124_);}
	.st134{fill:url(#SVGID_125_);}
	.st135{fill:url(#SVGID_126_);}
	.st136{fill:url(#SVGID_127_);}
	.st137{fill:url(#SVGID_128_);}
	.st138{fill:url(#SVGID_129_);}
	.st139{fill:url(#SVGID_130_);}
	.st140{fill:url(#SVGID_131_);}
	.st141{fill:url(#SVGID_132_);}
	.st142{fill:url(#SVGID_133_);}
	.st143{fill:url(#SVGID_134_);}
	.st144{fill:url(#SVGID_135_);}
	.st145{fill:url(#SVGID_136_);}
	.st146{fill:url(#SVGID_137_);}
	.st147{fill:url(#SVGID_138_);}
	.st148{fill:url(#SVGID_139_);}
	.st149{fill:url(#SVGID_140_);}
	.st150{fill:url(#SVGID_141_);}
	.st151{fill:url(#SVGID_142_);}
	.st152{fill:url(#SVGID_143_);}
	.st153{fill:url(#SVGID_144_);}
	.st154{fill:url(#SVGID_145_);}
	.st155{fill:url(#SVGID_146_);}
	.st156{fill:url(#SVGID_147_);}
	.st157{fill:url(#SVGID_148_);}
	.st158{fill:url(#SVGID_149_);}
	.st159{fill:url(#SVGID_150_);}
	.st160{fill:url(#SVGID_151_);}
	.st161{fill:url(#SVGID_152_);}
	.st162{fill:url(#SVGID_153_);}
	.st163{fill:url(#SVGID_154_);}
	.st164{fill:url(#SVGID_155_);}
	.st165{fill:url(#SVGID_156_);}
	.st166{fill:url(#SVGID_157_);}
	.st167{fill:url(#SVGID_158_);}
	.st168{fill:url(#SVGID_159_);}
	.st169{fill:url(#SVGID_160_);}
	.st170{fill:url(#SVGID_161_);}
	.st171{fill:url(#SVGID_162_);}
	.st172{fill:url(#SVGID_163_);}
	.st173{fill:url(#SVGID_164_);}
	.st174{fill:url(#SVGID_165_);}
	.st175{fill:url(#SVGID_166_);}
	.st176{fill:url(#SVGID_167_);}
	.st177{fill:url(#SVGID_168_);}
	.st178{fill:url(#SVGID_169_);}
	.st179{fill:url(#SVGID_170_);}
	.st180{fill:url(#SVGID_171_);}
	.st181{fill:url(#SVGID_172_);}
	.st182{fill:url(#SVGID_173_);}
	.st183{fill:url(#SVGID_174_);}
	.st184{fill:url(#SVGID_175_);}
	.st185{fill:url(#SVGID_176_);}
	.st186{fill:url(#SVGID_177_);}
	.st187{fill:url(#SVGID_178_);}
	.st188{fill:url(#SVGID_179_);}
	.st189{fill:url(#SVGID_180_);}
	.st190{fill:url(#SVGID_181_);}
	.st191{fill:url(#SVGID_182_);}
	.st192{fill:url(#SVGID_183_);}
	.st193{fill:url(#SVGID_184_);}
	.st194{fill:url(#SVGID_185_);}
</style>
<pattern  x="289" y="750.3" width="204.8" height="204.8" patternUnits="userSpaceOnUse" id="A" viewBox="0 -204.8 204.8 204.8" style="overflow:visible;">
	<g>
		<rect y="-204.8" class="st0" width="204.8" height="204.8"/>
		<path class="st0" d="M0,0h204.8v-204.8H0V0z"/>
		<path class="st1" d="M0,0h204.8v-204.8H0V0z"/>
	</g>
</pattern>
<pattern  x="289" y="750.3" width="204.8" height="204.8" patternUnits="userSpaceOnUse" id="B" viewBox="0 -204.8 204.8 204.8" style="overflow:visible;">
	<g>
		<rect y="-204.8" class="st0" width="204.8" height="204.8"/>
		<path class="st0" d="M0,0h204.8v-204.8H0V0z"/>
		<path class="st1" d="M0,0h204.8v-204.8H0V0z"/>
	</g>
</pattern>
<pattern  x="289" y="750.3" width="204.8" height="204.8" patternUnits="userSpaceOnUse" id="C" viewBox="0 -204.8 204.8 204.8" style="overflow:visible;">
	<g>
		<rect y="-204.8" class="st0" width="204.8" height="204.8"/>
		<path class="st0" d="M0,0h204.8v-204.8H0V0z"/>
		<path class="st2" d="M0,0h204.8v-204.8H0V0z"/>
	</g>
</pattern>
<pattern  x="289" y="750.3" width="204.8" height="204.8" patternUnits="userSpaceOnUse" id="D" viewBox="0 -204.8 204.8 204.8" style="overflow:visible;">
	<g>
		<rect y="-204.8" class="st0" width="204.8" height="204.8"/>
		<path class="st0" d="M0,0h204.8v-204.8H0V0z"/>
		<path class="st2" d="M0,0h204.8v-204.8H0V0z"/>
	</g>
</pattern>
<pattern  x="289" y="750.3" width="204.8" height="204.8" patternUnits="userSpaceOnUse" id="E" viewBox="0 -204.8 204.8 204.8" style="overflow:visible;">
	<g>
		<rect y="-204.8" class="st0" width="204.8" height="204.8"/>
		<path class="st0" d="M0,0h204.8v-204.8H0V0z"/>
		<path class="st1" d="M0,0h204.8v-204.8H0V0z"/>
	</g>
</pattern>
<pattern  x="289" y="750.3" width="204.8" height="204.8" patternUnits="userSpaceOnUse" id="F" viewBox="0 -204.8 204.8 204.8" style="overflow:visible;">
	<g>
		<rect y="-204.8" class="st0" width="204.8" height="204.8"/>
		<path class="st0" d="M0,0h204.8v-204.8H0V0z"/>
		<path class="st3" d="M0,0h204.8v-204.8H0V0z"/>
	</g>
</pattern>
<pattern  x="289" y="750.3" width="204.8" height="204.8" patternUnits="userSpaceOnUse" id="G" viewBox="0 -204.8 204.8 204.8" style="overflow:visible;">
	<g>
		<rect y="-204.8" class="st0" width="204.8" height="204.8"/>
		<path class="st0" d="M0,0h204.8v-204.8H0V0z"/>
		<path class="st1" d="M0,0h204.8v-204.8H0V0z"/>
	</g>
</pattern>
<pattern  x="289" y="750.3" width="204.8" height="204.8" patternUnits="userSpaceOnUse" id="H" viewBox="0 -204.8 204.8 204.8" style="overflow:visible;">
	<g>
		<rect y="-204.8" class="st0" width="204.8" height="204.8"/>
		<path class="st0" d="M0,0h204.8v-204.8H0V0z"/>
		<path class="st4" d="M0,0h204.8v-204.8H0V0z"/>
	</g>
</pattern>
<pattern  x="289" y="750.3" width="204.8" height="204.8" patternUnits="userSpaceOnUse" id="I" viewBox="0 -204.8 204.8 204.8" style="overflow:visible;">
	<g>
		<rect y="-204.8" class="st0" width="204.8" height="204.8"/>
		<path class="st0" d="M0,0h204.8v-204.8H0V0z"/>
		<path class="st1" d="M0,0h204.8v-204.8H0V0z"/>
	</g>
</pattern>
<path class="st5" d="M1858,539.1C1858,539.1,603.4,363,6.4,419L0,748.3h1858V539.1z"/>
<path class="st6" d="M0,748.3c0,0,767.7-188.8,1530.2-309.2c238.2-37.6,706.2-16.9,1029.8,16.4v292.8H0z"/>
<g transform="translate(0 -233.35)">
	
		<pattern  id="SVGID_1_" xlink:href="#A" patternTransform="matrix(0.9995 3.170487e-02 3.170487e-02 -0.9995 327.2755 -16784.5293)">
	</pattern>
	<path class="st7" d="M455.2,874.6l189.5-44"/>
	
		<pattern  id="SVGID_2_" xlink:href="#A" patternTransform="matrix(0.9995 3.170487e-02 3.170487e-02 -0.9995 327.2755 -16784.5293)">
	</pattern>
	<path class="st8" d="M718.2,813.9l87.7-19.2"/>
</g>
<path class="st9" d="M897,565.7c623.9-141.2,623.9-141.2,1082-136.7"/>
<g>
	<pattern  id="SVGID_3_" xlink:href="#B" patternTransform="matrix(0.9365 0 0 -0.9365 -850.2518 -16255.5684)">
	</pattern>
	<path class="st10" d="M796.6,607c0,0-108-67.8-197.8-22.5C598.8,584.5,674.1,653,796.6,607z"/>
	<path class="st6" d="M598.8,692.6h134.9l63-85.3c0,0-110.8,31.7-197.8-22.4V692.6z"/>
	<g transform="translate(0 -233.35)">
		<pattern  id="SVGID_4_" xlink:href="#B" patternTransform="matrix(0.9365 0 0 -0.9365 -850.2518 -16255.5684)">
		</pattern>
		<path class="st11" d="M733.7,927.8H598.8c-1.3,0-2.3-1-2.3-2.3c0,0,0,0,0,0V817.9c0-1.3,1-2.3,2.3-2.3c0.5,0,0.9,0.1,1.3,0.4
			c33.4,20.8,74.2,31.3,121.1,31.3l0,0c42.4,0,74.5-9,74.8-9.1c1.2-0.4,2.5,0.3,2.9,1.6c0.2,0.7,0.1,1.5-0.4,2.1l-63,85.1
			C735.1,927.5,734.4,927.8,733.7,927.8z M601.1,923.1h131.3l58.4-78.9c-22.9,5.1-46.3,7.7-69.7,7.7l0,0c-46.2,0-86.5-10.1-120-29.9
			L601.1,923.1z"/>
		<pattern  id="SVGID_5_" xlink:href="#B" patternTransform="matrix(0.9365 0 0 -0.9365 -850.2518 -16255.5684)">
		</pattern>
		<path class="st12" d="M613.3,925.5c-1.3,0-2.3-1-2.3-2.3v-97.4c0-1.3,1-2.3,2.3-2.3s2.3,1,2.3,2.3v97.4
			C615.7,924.4,614.6,925.5,613.3,925.5z"/>
		<pattern  id="SVGID_6_" xlink:href="#B" patternTransform="matrix(0.9365 0 0 -0.9365 -850.2518 -16255.5684)">
		</pattern>
		<path class="st13" d="M717.3,928.3c-1.3,0-2.3-1-2.3-2.3c0-0.5,0.2-1,0.5-1.4l57.5-80.9c0.7-1.1,2.2-1.4,3.2-0.7
			c1.1,0.7,1.4,2.2,0.7,3.2c0,0-0.1,0.1-0.1,0.1l-57.5,80.9C718.8,927.9,718,928.3,717.3,928.3z"/>
		<pattern  id="SVGID_7_" xlink:href="#B" patternTransform="matrix(0.9365 0 0 -0.9365 -850.2518 -16255.5684)">
		</pattern>
		<path class="st14" d="M698.5,928.3c-0.5,0-1-0.2-1.4-0.5c-1-0.8-1.3-2.2-0.5-3.3c0,0,0,0,0,0l55.7-77.2c0.8-1,2.2-1.3,3.3-0.5
			s1.3,2.2,0.5,3.3l0,0l-55.7,77.2C700,927.9,699.3,928.2,698.5,928.3z"/>
		<pattern  id="SVGID_8_" xlink:href="#B" patternTransform="matrix(0.9365 0 0 -0.9365 -850.2518 -16255.5684)">
		</pattern>
		<path class="st15" d="M680.7,928.3c-1.3,0-2.3-1-2.3-2.3c0-0.5,0.2-1,0.5-1.4l54.6-76.8c0.8-1.1,2.2-1.3,3.3-0.6
			c1.1,0.7,1.3,2.2,0.6,3.3l-54.6,76.8C682.3,927.9,681.5,928.3,680.7,928.3z"/>
		<pattern  id="SVGID_9_" xlink:href="#B" patternTransform="matrix(0.9365 0 0 -0.9365 -850.2518 -16255.5684)">
		</pattern>
		<path class="st16" d="M662,928.3c-1.3,0-2.3-1-2.3-2.3c0-0.5,0.2-1,0.5-1.4l54.6-76.8c0.7-1.1,2.2-1.3,3.3-0.6
			c1.1,0.7,1.3,2.2,0.6,3.3L664,927.2C663.5,927.9,662.8,928.3,662,928.3z"/>
		<pattern  id="SVGID_10_" xlink:href="#B" patternTransform="matrix(0.9365 0 0 -0.9365 -850.2518 -16255.5684)">
		</pattern>
		<path class="st17" d="M642.4,928.3c-1.3,0-2.3-1-2.3-2.3c0-0.5,0.2-1,0.5-1.4l54.6-76.8c0.7-1.1,2.2-1.3,3.3-0.6
			c1.1,0.7,1.3,2.2,0.6,3.3l-54.6,76.8C643.9,927.9,643.1,928.3,642.4,928.3z"/>
		<pattern  id="SVGID_11_" xlink:href="#B" patternTransform="matrix(0.9365 0 0 -0.9365 -850.2518 -16255.5684)">
		</pattern>
		<path class="st18" d="M621.7,928.3c-1.3,0-2.3-1-2.3-2.3c0-0.5,0.2-1,0.5-1.4l54.6-76.8c0.7-1.1,2.2-1.3,3.3-0.6
			c1.1,0.7,1.3,2.2,0.6,3.3l-54.6,76.8C623.3,927.9,622.5,928.3,621.7,928.3z"/>
		<pattern  id="SVGID_12_" xlink:href="#B" patternTransform="matrix(0.9365 0 0 -0.9365 -850.2518 -16255.5684)">
		</pattern>
		<path class="st19" d="M1127.9,809.8h15c0,0,0.4-92.6,20.8-93.8c20.4-1.2,20.4,93.8,20.4,93.8h15c0,0,5.9-108.3-36.5-108.2
			C1120.4,701.8,1127.9,809.8,1127.9,809.8z"/>
	</g>
	<path class="st20" d="M1209.9,559.9c0,0,33.8-63.1,49.4-77.1c0,0-27.2,6.3-37.8,25C1210.9,526.5,1209.9,559.9,1209.9,559.9
		L1209.9,559.9z"/>
	<g transform="translate(0 -233.35)">
		<pattern  id="SVGID_13_" xlink:href="#B" patternTransform="matrix(0.9365 0 0 -0.9365 -850.2518 -16255.5684)">
		</pattern>
		<path class="st21" d="M1209.9,795.6c-0.2,0-0.4,0-0.6-0.1c-1.1-0.3-1.8-1.2-1.7-2.3c0-1.4,1.2-34.2,12-53.2
			c4.6-8.1,12.8-15.2,23.9-20.5c4.9-2.4,10.1-4.3,15.4-5.6c1.3-0.3,2.5,0.5,2.8,1.8c0.2,0.8-0.1,1.7-0.7,2.2
			c-15.1,13.6-48.6,75.9-48.9,76.5C1211.5,795.1,1210.7,795.6,1209.9,795.6L1209.9,795.6z M1251.6,721c-8.6,3.3-21.6,9.9-28.1,21.2
			c-6.6,11.5-9.4,29-10.5,40.3C1221.7,767,1239.1,736.5,1251.6,721z"/>
		<pattern  id="SVGID_14_" xlink:href="#B" patternTransform="matrix(0.9365 0 0 -0.9365 -850.2518 -16255.5684)">
		</pattern>
		<path class="st22" d="M1187.8,864.1c-0.2,0-0.3,0-0.5-0.1c-1.3-0.3-2.1-1.5-1.8-2.8c0,0,0,0,0,0c0.1-0.4,8.4-37.7,22.2-80.3
			c18.5-57.3,37.6-96.5,56.4-116.1c0.9-0.9,2.4-1,3.3-0.1c0.9,0.9,1,2.4,0.1,3.3c-44,45.8-77.1,192.7-77.5,194.1
			C1189.9,863.3,1189,864.1,1187.8,864.1z"/>
	</g>
	<path class="st20" d="M1178.2,628.9c0,0,19.3-133.8,58.1-161.9c0,0-37.5,121.6-40,161.9H1178.2z"/>
	<pattern  id="SVGID_15_" xlink:href="#B" patternTransform="matrix(0.9365 0 0 -0.9365 -850.2518 -16255.5684)">
	</pattern>
	<path class="st23" d="M1196.3,630.8h-18.1c-1.3,0-2.3-1-2.3-2.3c0-0.1,0-0.2,0-0.3c0-0.3,5-34,14.6-70.7
		c13-49.6,27.9-80.8,44.4-92.8c1.1-0.8,2.5-0.5,3.3,0.5c0.4,0.6,0.6,1.4,0.3,2c-0.4,1.2-37.5,121.8-39.9,161.4
		C1198.5,629.8,1197.5,630.8,1196.3,630.8L1196.3,630.8z M1180.9,626.1h13.2c3.1-36.1,29.2-124.9,37.5-152.2
		C1200.8,506.8,1183.7,608.3,1180.9,626.1L1180.9,626.1z"/>
	<circle class="st6" cx="1274" cy="423.5" r="5.6"/>
	<pattern  id="SVGID_16_" xlink:href="#B" patternTransform="matrix(0.9365 0 0 -0.9365 -850.2518 -16255.5684)">
	</pattern>
	<path class="st24" d="M1274,431.5c-4.4,0-8-3.6-8-8s3.6-8,8-8c4.4,0,8,3.6,8,8C1281.9,427.9,1278.4,431.5,1274,431.5z M1274,420.2
		c-1.8,0-3.3,1.5-3.3,3.3s1.5,3.3,3.3,3.3s3.3-1.5,3.3-3.3S1275.8,420.2,1274,420.2z"/>
	<g>
		<pattern  id="SVGID_17_" xlink:href="#C" patternTransform="matrix(0.9365 0 0 -0.9365 -850.2518 -16255.5684)">
		</pattern>
		<circle class="st25" cx="1273.3" cy="439.2" r="3.5"/>
		<pattern  id="SVGID_18_" xlink:href="#C" patternTransform="matrix(0.9365 0 0 -0.9365 -850.2518 -16255.5684)">
		</pattern>
		<circle class="st26" cx="1268" cy="446.2" r="3.5"/>
		<pattern  id="SVGID_19_" xlink:href="#C" patternTransform="matrix(0.9365 0 0 -0.9365 -850.2518 -16255.5684)">
		</pattern>
		<circle class="st27" cx="1262.2" cy="453.2" r="3.5"/>
		<pattern  id="SVGID_20_" xlink:href="#C" patternTransform="matrix(0.9365 0 0 -0.9365 -850.2518 -16255.5684)">
		</pattern>
		<circle class="st28" cx="1256.9" cy="462" r="3.5"/>
		<pattern  id="SVGID_21_" xlink:href="#C" patternTransform="matrix(0.9365 0 0 -0.9365 -850.2518 -16255.5684)">
		</pattern>
		<circle class="st29" cx="1257.4" cy="428.9" r="3.5"/>
		<pattern  id="SVGID_22_" xlink:href="#C" patternTransform="matrix(0.9365 0 0 -0.9365 -850.2518 -16255.5684)">
		</pattern>
		<circle class="st30" cx="1252.1" cy="435.9" r="3.5"/>
		<pattern  id="SVGID_23_" xlink:href="#C" patternTransform="matrix(0.9365 0 0 -0.9365 -850.2518 -16255.5684)">
		</pattern>
		<circle class="st31" cx="1246.3" cy="442.9" r="3.5"/>
		<pattern  id="SVGID_24_" xlink:href="#C" patternTransform="matrix(0.9365 0 0 -0.9365 -850.2518 -16255.5684)">
		</pattern>
		<circle class="st32" cx="1241" cy="451.7" r="3.5"/>
	</g>
	<path class="st20" d="M1189.7,519.3c0,0,23.3-67.7,36.5-84c0,0-25.8,10.5-33.3,30.7C1185.4,486.2,1189.7,519.3,1189.7,519.3
		L1189.7,519.3z"/>
	<g transform="translate(0 -233.35)">
		<pattern  id="SVGID_25_" xlink:href="#B" patternTransform="matrix(0.9365 0 0 -0.9365 -850.2518 -16255.5684)">
		</pattern>
		<path class="st33" d="M1189.7,755.1h-0.2c-1.1-0.1-1.9-1-2.1-2c-0.2-1.4-4.3-33.9,3.4-54.4c3.2-8.7,10.3-17,20.3-24
			c4.5-3.2,9.3-5.9,14.3-8.1c1.2-0.5,2.6,0.1,3,1.3c0.3,0.8,0.2,1.7-0.3,2.3c-12.8,15.8-35.9,82.6-36.1,83.3
			C1191.6,754.5,1190.7,755.1,1189.7,755.1L1189.7,755.1z M1219.4,674.8c-7.9,4.6-19.8,13.2-24.3,25.4c-4.6,12.4-4.6,30.2-4,41.4
			C1197.2,724.9,1209.6,692.1,1219.4,674.8L1219.4,674.8z"/>
		<pattern  id="SVGID_26_" xlink:href="#B" patternTransform="matrix(0.9365 0 0 -0.9365 -850.2518 -16255.5684)">
		</pattern>
		<path class="st34" d="M1178.9,826.2h-0.1c-1.3-0.1-2.3-1.2-2.2-2.5c0,0,0,0,0,0c0-0.4,2.3-38.6,9.2-82.8
			c9.2-59.6,21.7-101.1,37.2-123.6c0.7-1.1,2.2-1.3,3.3-0.6c1.1,0.7,1.3,2.2,0.6,3.3c-36.1,52.3-45.5,202.5-45.5,204
			C1181.2,825.3,1180.1,826.2,1178.9,826.2z"/>
	</g>
	<path class="st20" d="M1169.4,592.1c0,0-2.2-135.2,31.5-169.1c0,0-17.7,126.1-13.7,166.2L1169.4,592.1z"/>
	<pattern  id="SVGID_27_" xlink:href="#B" patternTransform="matrix(0.9365 0 0 -0.9365 -850.2518 -16255.5684)">
	</pattern>
	<path class="st35" d="M1169.4,594.4c-0.6,0-1.1-0.2-1.5-0.6c-0.5-0.4-0.8-1.1-0.8-1.8c0-0.3-0.5-34.4,3.1-72.1
		c4.9-51,14.7-84.3,29.1-98.7c0.9-0.9,2.4-0.9,3.3,0c0.5,0.5,0.8,1.3,0.7,2c-0.2,1.3-17.6,126.3-13.7,165.7c0.1,1.2-0.7,2.4-1.9,2.5
		l-17.8,2.9C1169.6,594.4,1169.5,594.4,1169.4,594.4L1169.4,594.4z M1197.5,431c-25,37.4-25.8,140.3-25.8,158.4l13-2.1
		C1181.9,551.2,1193.6,459.3,1197.5,431L1197.5,431z"/>
	<path class="st6" d="M1236.9,373.6c0.5,3.1-1.6,5.9-4.7,6.4c-3.1,0.5-5.9-1.6-6.4-4.7c-0.5-3.1,1.6-5.9,4.7-6.4
		c1.5-0.2,3,0.1,4.2,1C1235.8,370.8,1236.6,372.1,1236.9,373.6z"/>
	<g transform="translate(0 -233.35)">
		<pattern  id="SVGID_28_" xlink:href="#B" patternTransform="matrix(0.9365 0 0 -0.9365 -850.2518 -16255.5684)">
		</pattern>
		<path class="st36" d="M1231.3,615.8c-4.4,0-8-3.6-7.9-8c0-3.9,2.8-7.2,6.7-7.8c0.4-0.1,0.8-0.1,1.3-0.1c4.4,0,8,3.6,7.9,8
			c0,3.9-2.8,7.2-6.7,7.8C1232.2,615.8,1231.7,615.8,1231.3,615.8z M1231.3,604.6c-0.2,0-0.4,0-0.5,0c-0.9,0.1-1.6,0.6-2.1,1.3
			c-1.1,1.5-0.7,3.5,0.7,4.6c1.5,1.1,3.5,0.7,4.6-0.7c1.1-1.5,0.7-3.5-0.7-4.6C1232.7,604.8,1232,604.5,1231.3,604.6L1231.3,604.6z"
			/>
		<g>
			<pattern  id="SVGID_29_" xlink:href="#D" patternTransform="matrix(0.9365 0 0 -0.9365 -850.2518 -16255.5684)">
			</pattern>
			<path class="st37" d="M1236.6,622.9c0.3,1.9-1,3.7-2.9,4s-3.7-1-4-2.9c-0.3-1.9,1-3.7,2.9-4
				C1234.5,619.7,1236.3,621,1236.6,622.9C1236.6,622.9,1236.6,622.9,1236.6,622.9z"/>
			<pattern  id="SVGID_30_" xlink:href="#D" patternTransform="matrix(0.9365 0 0 -0.9365 -850.2518 -16255.5684)">
			</pattern>
			<path class="st38" d="M1232.5,630.7c0.3,1.9-1,3.7-2.9,4c-1.9,0.3-3.7-1-4-2.9c-0.3-1.9,1-3.7,2.9-4c0,0,0,0,0,0
				C1230.4,627.5,1232.2,628.8,1232.5,630.7z"/>
			<pattern  id="SVGID_31_" xlink:href="#D" patternTransform="matrix(0.9365 0 0 -0.9365 -850.2518 -16255.5684)">
			</pattern>
			<path class="st39" d="M1227.8,638.5c0.3,1.9-1,3.7-2.9,4c-1.9,0.3-3.7-1-4-2.9c-0.3-1.9,1-3.7,2.9-4c0,0,0,0,0,0
				C1225.7,635.3,1227.5,636.6,1227.8,638.5z"/>
			<pattern  id="SVGID_32_" xlink:href="#D" patternTransform="matrix(0.9365 0 0 -0.9365 -850.2518 -16255.5684)">
			</pattern>
			<path class="st40" d="M1224,648c0.3,1.9-1,3.7-2.9,4c-1.9,0.3-3.7-1-4-2.9c-0.3-1.9,1-3.7,2.9-4c0,0,0,0,0,0
				C1221.9,644.8,1223.7,646.1,1224,648z"/>
			<pattern  id="SVGID_33_" xlink:href="#D" patternTransform="matrix(0.9365 0 0 -0.9365 -850.2518 -16255.5684)">
			</pattern>
			<path class="st41" d="M1219.2,615.3c0.3,1.9-1,3.7-2.9,4c-1.9,0.3-3.7-1-4-2.9c-0.3-1.9,1-3.7,2.9-4
				C1217.1,612,1218.9,613.3,1219.2,615.3C1219.2,615.3,1219.2,615.3,1219.2,615.3z"/>
			<pattern  id="SVGID_34_" xlink:href="#D" patternTransform="matrix(0.9365 0 0 -0.9365 -850.2518 -16255.5684)">
			</pattern>
			<path class="st42" d="M1215.1,623c0.3,1.9-1,3.7-2.9,4c-1.9,0.3-3.7-1-4-2.9c-0.3-1.9,1-3.7,2.9-4c0,0,0,0,0,0
				C1213,619.8,1214.8,621.1,1215.1,623z"/>
			<pattern  id="SVGID_35_" xlink:href="#D" patternTransform="matrix(0.9365 0 0 -0.9365 -850.2518 -16255.5684)">
			</pattern>
			<path class="st43" d="M1210.5,630.9c0.3,1.9-1,3.7-2.9,4c-1.9,0.3-3.7-1-4-2.9c-0.3-1.9,1-3.7,2.9-4c0,0,0,0,0,0
				C1208.4,627.7,1210.2,629,1210.5,630.9z"/>
			<pattern  id="SVGID_36_" xlink:href="#D" patternTransform="matrix(0.9365 0 0 -0.9365 -850.2518 -16255.5684)">
			</pattern>
			<path class="st44" d="M1206.7,640.4c0.3,1.9-1,3.7-2.9,4c-1.9,0.3-3.7-1-4-2.9c-0.3-1.9,1-3.7,2.9-4c0,0,0,0,0,0
				C1204.6,637.2,1206.4,638.5,1206.7,640.4z"/>
		</g>
	</g>
	<path class="st20" d="M1145.7,520.2c0,0,18.5-69.2,30.5-86.4c0,0-25,12.3-31.1,33C1139.1,487.4,1145.7,520.2,1145.7,520.2z"/>
	<g transform="translate(0 -233.35)">
		<pattern  id="SVGID_37_" xlink:href="#B" patternTransform="matrix(0.9365 0 0 -0.9365 -850.2518 -16255.5684)">
		</pattern>
		<path class="st45" d="M1145.7,755.5L1145.7,755.5c-1.1,0.1-2.1-0.7-2.3-1.7c-0.3-1.4-6.6-33.4-0.5-54.4c2.6-8.9,9-17.6,18.6-25.4
			c4.2-3.5,8.8-6.5,13.7-9c1.2-0.6,2.6-0.1,3.1,1.1c0.4,0.8,0.3,1.7-0.2,2.4c-11.6,16.7-30,84.8-30.2,85.5
			C1147.7,754.9,1146.7,755.6,1145.7,755.5z M1169.9,673.7c-7.6,5.2-18.8,14.6-22.5,27.1c-3.7,12.7-2.5,30.4-1.1,41.6
			C1151.2,725.3,1161.2,691.7,1169.9,673.7L1169.9,673.7z"/>
		<pattern  id="SVGID_38_" xlink:href="#B" patternTransform="matrix(0.9365 0 0 -0.9365 -850.2518 -16255.5684)">
		</pattern>
		<path class="st46" d="M1139.9,827.6c-1.3,0-2.3-1-2.3-2.3c0-0.4-0.4-38.6,3.3-83.2c5-60.1,14.5-102.4,28.4-125.9
			c0.7-1.1,2.1-1.4,3.2-0.8c1.1,0.7,1.4,2.1,0.8,3.2c-32.4,54.7-31.1,205.2-31.1,206.7C1142.2,826.5,1141.2,827.6,1139.9,827.6
			C1139.9,827.6,1139.9,827.6,1139.9,827.6L1139.9,827.6z"/>
	</g>
	<path class="st20" d="M1130.5,594.2c0,0-11.7-134.7,19.5-170.9c0,0-8.7,127-1.9,166.8L1130.5,594.2z"/>
	<pattern  id="SVGID_39_" xlink:href="#B" patternTransform="matrix(0.9365 0 0 -0.9365 -850.2518 -16255.5684)">
	</pattern>
	<path class="st47" d="M1130.5,596.5c-0.5,0-1-0.2-1.4-0.4c-0.5-0.4-0.9-1-0.9-1.7c0-0.3-2.9-34.2-2-72.1
		c1.3-51.3,8.7-85.1,22.1-100.5c0.8-1,2.3-1.1,3.3-0.3c0.6,0.5,0.9,1.2,0.8,1.9c-0.1,1.3-8.7,127.2-2,166.2c0.2,1.2-0.6,2.4-1.8,2.7
		l-17.6,4.1C1130.9,596.5,1130.7,596.5,1130.5,596.5L1130.5,596.5z M1147.2,431.5c-22.4,39.1-15.9,141.8-14.5,159.8l12.8-3
		C1140.2,552.4,1145.4,460,1147.2,431.5L1147.2,431.5z"/>
	<path class="st6" d="M1182.5,371.5c0.7,3-1.2,6-4.2,6.8c-1.5,0.3-3,0.1-4.2-0.7c-2.6-1.6-3.4-5.1-1.8-7.7c0.8-1.3,2-2.2,3.5-2.5
		C1178.7,366.6,1181.8,368.5,1182.5,371.5L1182.5,371.5z"/>
	<g transform="translate(0 -233.35)">
		<pattern  id="SVGID_40_" xlink:href="#B" patternTransform="matrix(0.9365 0 0 -0.9365 -850.2518 -16255.5684)">
		</pattern>
		<path class="st48" d="M1177,614.1c-4.4,0-8-3.6-8-8c0-4.4,3.6-8,8-8s8,3.6,8,8c0,3.7-2.5,7-6.2,7.8
			C1178.2,614,1177.6,614.1,1177,614.1z M1177,602.8c-0.3,0-0.5,0-0.7,0.1c-1.8,0.4-2.9,2.2-2.5,3.9c0.3,1.5,1.7,2.5,3.2,2.5
			c0.3,0,0.5,0,0.7-0.1c1.8-0.4,2.9-2.2,2.5-3.9C1179.9,603.9,1178.5,602.8,1177,602.8z"/>
		<g>
			<pattern  id="SVGID_41_" xlink:href="#D" patternTransform="matrix(0.9365 0 0 -0.9365 -850.2518 -16255.5684)">
			</pattern>
			<path class="st49" d="M1183.3,620.7c0.4,1.9-0.7,3.8-2.6,4.2c-1.9,0.4-3.8-0.7-4.2-2.6c-0.4-1.9,0.7-3.8,2.6-4.2h0
				C1181,617.7,1182.9,618.8,1183.3,620.7z"/>
			<pattern  id="SVGID_42_" xlink:href="#D" patternTransform="matrix(0.9365 0 0 -0.9365 -850.2518 -16255.5684)">
			</pattern>
			<path class="st50" d="M1179.8,628.8c0.4,1.9-0.7,3.8-2.6,4.2c-1.9,0.4-3.8-0.7-4.2-2.6c-0.4-1.9,0.7-3.8,2.6-4.2c0,0,0,0,0,0
				C1177.5,625.7,1179.3,626.9,1179.8,628.8z"/>
			<pattern  id="SVGID_43_" xlink:href="#D" patternTransform="matrix(0.9365 0 0 -0.9365 -850.2518 -16255.5684)">
			</pattern>
			<path class="st51" d="M1175.7,637c0.4,1.9-0.7,3.8-2.6,4.2c-1.9,0.4-3.8-0.7-4.2-2.6c-0.4-1.9,0.7-3.8,2.6-4.2
				C1173.3,633.9,1175.2,635.1,1175.7,637z"/>
			<pattern  id="SVGID_44_" xlink:href="#D" patternTransform="matrix(0.9365 0 0 -0.9365 -850.2518 -16255.5684)">
			</pattern>
			<path class="st52" d="M1172.6,646.7c0.4,1.9-0.7,3.8-2.6,4.2c-1.9,0.4-3.8-0.7-4.2-2.6c-0.4-1.9,0.7-3.8,2.6-4.2h0
				C1170.2,643.6,1172.1,644.8,1172.6,646.7z"/>
			<pattern  id="SVGID_45_" xlink:href="#D" patternTransform="matrix(0.9365 0 0 -0.9365 -850.2518 -16255.5684)">
			</pattern>
			<path class="st53" d="M1165.5,614.3c0.4,1.9-0.7,3.8-2.6,4.2c-1.9,0.4-3.8-0.7-4.2-2.6c-0.4-1.9,0.7-3.8,2.6-4.2c0,0,0,0,0,0
				C1163.1,611.3,1165,612.4,1165.5,614.3C1165.5,614.3,1165.5,614.3,1165.5,614.3z"/>
			<pattern  id="SVGID_46_" xlink:href="#D" patternTransform="matrix(0.9365 0 0 -0.9365 -850.2518 -16255.5684)">
			</pattern>
			<path class="st54" d="M1161.9,622.4c0.4,1.9-0.7,3.8-2.6,4.2c-1.9,0.4-3.8-0.7-4.2-2.6c-0.4-1.9,0.7-3.8,2.6-4.2h0
				C1159.6,619.3,1161.5,620.5,1161.9,622.4z"/>
			<pattern  id="SVGID_47_" xlink:href="#D" patternTransform="matrix(0.9365 0 0 -0.9365 -850.2518 -16255.5684)">
			</pattern>
			<path class="st55" d="M1157.9,630.6c0.4,1.9-0.7,3.8-2.6,4.2c-1.9,0.4-3.8-0.7-4.2-2.6c-0.4-1.9,0.7-3.8,2.6-4.2h0
				C1155.5,627.5,1157.4,628.7,1157.9,630.6z"/>
			<pattern  id="SVGID_48_" xlink:href="#D" patternTransform="matrix(0.9365 0 0 -0.9365 -850.2518 -16255.5684)">
			</pattern>
			<path class="st56" d="M1154.7,640.3c0.4,1.9-0.7,3.8-2.6,4.2c-1.9,0.4-3.8-0.7-4.2-2.6c-0.4-1.9,0.7-3.8,2.6-4.2c0,0,0,0,0,0
				C1152.4,637.2,1154.3,638.4,1154.7,640.3C1154.7,640.3,1154.7,640.3,1154.7,640.3z"/>
		</g>
	</g>
	<path class="st20" d="M1097.9,528.1c0,0,15.3-70,26.5-87.7c0,0-24.4,13.5-29.5,34.4C1089.8,495.7,1097.9,528.1,1097.9,528.1z"/>
	<g transform="translate(0 -233.35)">
		<pattern  id="SVGID_49_" xlink:href="#B" patternTransform="matrix(0.9365 0 0 -0.9365 -850.2518 -16255.5684)">
		</pattern>
		<path class="st57" d="M1097.9,763.9c-1.1,0-2-0.8-2.3-1.9c-0.3-1.3-8.2-33.2-3-54.5c2.2-9,8.2-18.1,17.4-26.2
			c4.1-3.7,8.5-6.9,13.3-9.7c1.1-0.6,2.6-0.2,3.2,0.9c0.4,0.7,0.4,1.7-0.1,2.4c-10.8,17.2-26,86.3-26.2,87
			C1100,763.1,1099,763.8,1097.9,763.9L1097.9,763.9z M1118.4,680.6c-7.3,5.5-18.1,15.5-21.2,28.1c-3.1,12.9-1.1,30.5,0.9,41.6
			C1102.2,733,1110.6,698.9,1118.4,680.6L1118.4,680.6z"/>
		<pattern  id="SVGID_50_" xlink:href="#B" patternTransform="matrix(0.9365 0 0 -0.9365 -850.2518 -16255.5684)">
		</pattern>
		<path class="st58" d="M1095.5,835.8c-1.2,0-2.3-1-2.3-2.2c0-0.4-2.2-38.6-0.6-83.3c2.2-60.2,9.8-103,22.6-127.1
			c0.6-1.2,2-1.6,3.1-1.1c1.2,0.6,1.6,2,1.1,3.1c0,0,0,0.1-0.1,0.1c-29.8,56.1-21.5,206.4-21.5,207.9c0.1,1.3-0.9,2.4-2.2,2.5
			L1095.5,835.8z"/>
	</g>
	<path class="st20" d="M1086.2,602.7c0,0-18-134,11.6-171.6c0,0-2.9,127.3,5.8,166.7L1086.2,602.7z"/>
	<pattern  id="SVGID_51_" xlink:href="#B" patternTransform="matrix(0.9365 0 0 -0.9365 -850.2518 -16255.5684)">
	</pattern>
	<path class="st59" d="M1086.2,605c-0.5,0-0.9-0.1-1.3-0.4c-0.6-0.4-0.9-1-1-1.6c0-0.3-4.5-34.1-5.3-72
		c-1.1-51.3,4.8-85.4,17.4-101.4c0.8-1,2.3-1.2,3.3-0.4c0.6,0.5,0.9,1.2,0.9,1.9c0,1.3-2.8,127.5,5.7,166.1c0.3,1.2-0.5,2.4-1.6,2.8
		l-17.4,4.9C1086.6,605,1086.4,605,1086.2,605L1086.2,605z M1095.3,439.4c-20.5,40.1-9.3,142.4-7.1,160.3l12.7-3.6
		C1093.9,560.5,1094.8,468,1095.3,439.4L1095.3,439.4z"/>
	<path class="st6" d="M1127.8,377.9c0.8,3-0.9,6.1-3.9,6.9c-3,0.8-6.1-0.9-6.9-3.9l0,0c-0.8-3,0.9-6.1,3.9-6.9
		c1.4-0.4,3-0.2,4.3,0.5C1126.4,375.2,1127.4,376.4,1127.8,377.9L1127.8,377.9z"/>
	<g transform="translate(0 -233.35)">
		<pattern  id="SVGID_52_" xlink:href="#B" patternTransform="matrix(0.9365 0 0 -0.9365 -850.2518 -16255.5684)">
		</pattern>
		<path class="st60" d="M1122.4,620.7c-4.4,0-8-3.6-8-8c0-1.4,0.3-2.7,1-3.9c1-1.8,2.8-3.2,4.8-3.7c0.7-0.2,1.4-0.3,2.2-0.3
			c3.6,0,6.7,2.4,7.7,5.8c1.2,4.2-1.2,8.6-5.5,9.8c0,0,0,0,0,0C1123.8,620.6,1123.1,620.7,1122.4,620.7L1122.4,620.7z M1122.4,609.5
			c-0.3,0-0.6,0-0.9,0.1c-0.8,0.2-1.5,0.8-2,1.6c-0.9,1.6-0.3,3.6,1.3,4.5c0.8,0.4,1.6,0.5,2.5,0.3c0.8-0.2,1.6-0.8,2-1.6
			c0.9-1.6,0.3-3.6-1.3-4.5C1123.4,609.6,1122.9,609.5,1122.4,609.5L1122.4,609.5z"/>
		<g>
			<pattern  id="SVGID_53_" xlink:href="#D" patternTransform="matrix(0.9365 0 0 -0.9365 -850.2518 -16255.5684)">
			</pattern>
			<path class="st61" d="M1129.4,627.1c0.5,1.9-0.5,3.8-2.4,4.3c-1.9,0.5-3.8-0.5-4.3-2.4c-0.5-1.9,0.5-3.8,2.4-4.3c0,0,0,0,0,0
				C1126.9,624.1,1128.8,625.2,1129.4,627.1C1129.4,627,1129.4,627,1129.4,627.1z"/>
			<pattern  id="SVGID_54_" xlink:href="#D" patternTransform="matrix(0.9365 0 0 -0.9365 -850.2518 -16255.5684)">
			</pattern>
			<path class="st62" d="M1126.2,635.2c0.5,1.9-0.5,3.8-2.4,4.3c-1.9,0.5-3.8-0.5-4.3-2.4c-0.5-1.9,0.5-3.8,2.4-4.3c0,0,0,0,0,0
				C1123.7,632.3,1125.7,633.4,1126.2,635.2z"/>
			<pattern  id="SVGID_55_" xlink:href="#D" patternTransform="matrix(0.9365 0 0 -0.9365 -850.2518 -16255.5684)">
			</pattern>
			<path class="st63" d="M1122.5,643.6c0.5,1.9-0.6,3.8-2.4,4.3c-1.9,0.5-3.8-0.6-4.3-2.4c-0.5-1.9,0.5-3.8,2.4-4.3
				C1120,640.7,1122,641.7,1122.5,643.6z"/>
			<pattern  id="SVGID_56_" xlink:href="#D" patternTransform="matrix(0.9365 0 0 -0.9365 -850.2518 -16255.5684)">
			</pattern>
			<path class="st64" d="M1119.8,653.5c0.5,1.9-0.5,3.8-2.4,4.3c-1.9,0.5-3.8-0.5-4.3-2.4c-0.5-1.9,0.5-3.8,2.4-4.3c0,0,0,0,0,0
				C1117.4,650.5,1119.3,651.6,1119.8,653.5z"/>
			<pattern  id="SVGID_57_" xlink:href="#D" patternTransform="matrix(0.9365 0 0 -0.9365 -850.2518 -16255.5684)">
			</pattern>
			<path class="st65" d="M1111.2,621.5c0.5,1.9-0.5,3.8-2.4,4.3s-3.8-0.5-4.3-2.4c-0.5-1.9,0.5-3.8,2.4-4.3c0,0,0,0,0,0
				C1108.7,618.5,1110.7,619.6,1111.2,621.5C1111.2,621.5,1111.2,621.5,1111.2,621.5z"/>
			<pattern  id="SVGID_58_" xlink:href="#D" patternTransform="matrix(0.9365 0 0 -0.9365 -850.2518 -16255.5684)">
			</pattern>
			<path class="st66" d="M1108.1,629.7c0.5,1.9-0.5,3.8-2.4,4.3c-1.9,0.5-3.8-0.5-4.3-2.4c-0.5-1.9,0.5-3.8,2.4-4.3c0,0,0,0,0,0
				C1105.6,626.7,1107.5,627.8,1108.1,629.7z"/>
			<pattern  id="SVGID_59_" xlink:href="#D" patternTransform="matrix(0.9365 0 0 -0.9365 -850.2518 -16255.5684)">
			</pattern>
			<path class="st67" d="M1104.4,638c0.5,1.9-0.6,3.8-2.4,4.3c-1.9,0.5-3.8-0.6-4.3-2.4c-0.5-1.9,0.6-3.8,2.4-4.3
				C1101.9,635.1,1103.8,636.2,1104.4,638z"/>
			<pattern  id="SVGID_60_" xlink:href="#D" patternTransform="matrix(0.9365 0 0 -0.9365 -850.2518 -16255.5684)">
			</pattern>
			<path class="st68" d="M1101.7,647.9c0.5,1.9-0.5,3.8-2.4,4.3c-1.9,0.5-3.8-0.5-4.3-2.4c-0.5-1.9,0.5-3.8,2.4-4.3c0,0,0,0,0,0
				C1099.2,645,1101.2,646.1,1101.7,647.9z"/>
		</g>
	</g>
	<path class="st6" d="M1095.9,563.3L1219,565l16.9,97.3c0,0,3.5,11.2-18.5,28.4c-2,1.5-14.6,10.3-20.6,10.3l-71.6,0.3
		c-18.7,0.1-21.8-20.5-21.8-20.5s-20-6.2-17.3-19.7S1095.9,563.4,1095.9,563.3L1095.9,563.3z"/>
	<pattern  id="SVGID_61_" xlink:href="#B" patternTransform="matrix(0.9365 0 0 -0.9365 -850.2518 -16255.5684)">
	</pattern>
	<path class="st69" d="M1125.1,703.8c-15.4,0-22.1-13.2-23.7-21.2c-3.2-1.2-6.2-2.8-8.9-4.7c-6.9-4.8-9.9-10.8-8.6-17.3
		c2.6-13.3,9.7-96.4,9.8-97.2c0.1-1.2,1.1-2,2.3-1.9l0,0l123.1,1.4c1.1,0,2.1,0.8,2.3,1.9l16.9,97.1c0.4,1.8,2.3,13.8-19.3,30.7
		c-0.1,0.1-14.5,10.9-22.1,10.9L1125.1,703.8L1125.1,703.8z M1098,565.7c-1.2,13.6-7.2,83.3-9.7,95.8c-2.2,11.3,15.5,16.9,15.7,17
		c0.9,0.3,1.5,1.1,1.6,2c0.1,0.7,3,18.6,19.4,18.6h0.1l71.6-0.4c4.6,0,15.7-7.2,19.2-9.9c20.1-15.7,17.7-25.8,17.7-25.8
		s0-0.2-0.1-0.3l-16.6-95.4L1098,565.7z"/>
	<path class="st6" d="M1064,562.6l123.1,1.8l9.4,116.9c0,0,1.3,19.7-14.7,19.7l-117.8,0.4c0,0-20-6.7-17.3-21.4
		C1049.4,665.3,1064,562.6,1064,562.6L1064,562.6z"/>
	<pattern  id="SVGID_62_" xlink:href="#B" patternTransform="matrix(0.9365 0 0 -0.9365 -850.2518 -16255.5684)">
	</pattern>
	<path class="st70" d="M1064,703.8c-0.3,0-0.5-0.1-0.7-0.2c-3.7-1.4-7.1-3.2-10.3-5.6c-6.9-5.2-9.8-11.6-8.6-18.5
		c2.6-14.5,17.2-116.1,17.3-117.1c0.2-1.1,1.2-1.9,2.3-1.9l0,0l123.1,1.6c1.2,0,2.2,0.9,2.3,2.1l9.4,116.8c0,0.5,0.7,11-5.3,17.4
		c-3.1,3.2-7.3,4.9-11.8,4.8L1064,703.8L1064,703.8z M1066.1,565l-17,115.4c-2.1,11.6,13,17.7,15.4,18.6l117.4-0.4
		c3.6,0,6.3-1.1,8.3-3.2c4.6-4.9,4.1-13.8,4.1-13.9l-9.2-114.7L1066.1,565z"/>
	<path class="st6" d="M1088.6,576.5h15c0,0,0.4-92.6,20.8-93.8c20.4-1.2,20.4,93.8,20.4,93.8h15c0,0,5.9-108.3-36.5-108.2
		C1081.1,468.5,1088.6,576.5,1088.6,576.5z"/>
	<g transform="translate(0 -233.35)">
		<g>
			<pattern  id="SVGID_63_" xlink:href="#B" patternTransform="matrix(0.9365 0 0 -0.9365 -850.2518 -16255.5684)">
			</pattern>
			<path class="st71" d="M1159.7,811.7h-15c-1.3,0-2.3-1-2.3-2.3c0-38-5.5-91.5-17.7-91.5h-0.3c-3.2,0.2-11.3,5-15.9,45.3
				c-2.6,22.9-2.7,46-2.7,46.2c0,1.3-1,2.3-2.3,2.3c0,0,0,0,0,0h-15c-1.2,0-2.2-1-2.3-2.2c-0.8-13.7-0.7-27.5,0.3-41.3
				c2.1-29.8,8.2-50.5,18.1-61.2c5.2-5.6,11.5-7.8,18.6-8.7h0.1c7.2,0,13.5,3.1,18.8,8.7c10.1,10.7,16.5,31.3,19.1,61
				c1.1,13.7,1.4,27.5,0.9,41.3C1162,810.7,1161,811.7,1159.7,811.7L1159.7,811.7z M1147.1,807h10.4c0.4-12.6,1.5-75.1-18.7-96.5
				c-4.5-4.7-9.5-7-15.4-7c-5.9,0-10.9,2.3-15.3,7c-19.9,21.4-17.9,84-17.3,96.5h10.5c0.1-6.5,0.6-25.5,2.7-44.4
				c3.7-32.7,10.3-48.8,20.2-49.4c10.1-0.6,16.9,15.4,20.4,49C1146.6,781.2,1147,800.4,1147.1,807L1147.1,807z"/>
			<pattern  id="SVGID_64_" xlink:href="#B" patternTransform="matrix(0.9365 0 0 -0.9365 -850.2518 -16255.5684)">
			</pattern>
			<path class="st72" d="M1126,840.1c0,0-10.1,35.2,17.3,53C1143.4,893.1,1154.7,860.2,1126,840.1z"/>
		</g>
		<pattern  id="SVGID_65_" xlink:href="#D" patternTransform="matrix(0.9365 0 0 -0.9365 -850.2518 -16255.5684)">
		</pattern>
		<path class="st73" d="M1096.8,843.9c0,0,7.5,42.5,45.8,47C1142.6,890.9,1137.5,850.3,1096.8,843.9z"/>
		<pattern  id="SVGID_66_" xlink:href="#B" patternTransform="matrix(0.9365 0 0 -0.9365 -850.2518 -16255.5684)">
		</pattern>
		<path class="st74" d="M1142.6,893.2c-0.1,0-0.2,0-0.3,0c-39.5-4.7-47.8-48.4-47.8-48.9c-0.2-1.3,0.6-2.5,1.9-2.7
			c0.3,0,0.5,0,0.8,0c41.9,6.6,47.7,48.6,47.8,49c0.1,0.7-0.2,1.4-0.7,1.9C1143.8,893,1143.2,893.3,1142.6,893.2L1142.6,893.2z
			 M1099.9,846.9c1.7,6.2,4.2,12.2,7.5,17.8c7.9,13.1,18.7,21,32.3,23.4C1137.7,879.1,1129.5,853.3,1099.9,846.9z"/>
	</g>
	<path class="st6" d="M1097.3,612.9l45.3,44.7"/>
	<pattern  id="SVGID_67_" xlink:href="#B" patternTransform="matrix(0.9365 0 0 -0.9365 -850.2518 -16255.5684)">
	</pattern>
	<path class="st75" d="M1142.6,659.9c-0.6,0-1.2-0.2-1.6-0.7l-45.3-44.7c-0.9-0.9-0.9-2.4,0-3.3c0.9-0.9,2.3-0.9,3.3,0l45.3,44.7
		c0.9,0.9,0.9,2.4,0,3.3C1143.8,659.6,1143.2,659.9,1142.6,659.9L1142.6,659.9z"/>
	<path class="st6" d="M758.9,606.6c0,0-5.3-64.4-30.3-85.2c0,0,37.4-1.9,48,25.5C787.3,574.2,782.4,605.3,758.9,606.6z"/>
	<g transform="translate(0 -233.35)">
		<g>
			<pattern  id="SVGID_68_" xlink:href="#B" patternTransform="matrix(0.9365 0 0 -0.9365 -850.2518 -16255.5684)">
			</pattern>
			<path class="st76" d="M758.9,842.3c-1.2,0-2.2-0.9-2.3-2.1c-0.1-0.6-5.5-63.6-29.4-83.6c-1-0.8-1.1-2.3-0.3-3.3
				c0.4-0.5,1-0.8,1.7-0.8h1.7c6.4,0,38.7,1.3,48.6,27c7.5,19.3,7.3,39.6-0.4,51.6c-4.2,6.7-11.4,10.9-19.3,11.2L758.9,842.3z
				 M734.6,757.3c8.7,9.7,15.7,25.6,20.9,47.4c2.5,10.8,4.4,21.7,5.6,32.8c5.6-0.8,10.5-4.1,13.4-8.9c6.9-10.7,6.9-29.7,0-47.4
				C767,761.9,744.9,758,734.6,757.3L734.6,757.3z"/>
			<pattern  id="SVGID_69_" xlink:href="#B" patternTransform="matrix(0.9365 0 0 -0.9365 -850.2518 -16255.5684)">
			</pattern>
			<path class="st77" d="M763.6,841.6c-0.3,0-0.5,0-0.8-0.1c-1.2-0.4-1.9-1.7-1.4-3c0,0,0,0,0,0c8.7-25.2,6.3-46.5-7.2-63.5
				c-6.2-7.7-14.1-13.9-23-18c-1.2-0.5-1.8-1.9-1.3-3.1s1.9-1.8,3.1-1.3c9.7,4.5,18.2,11.1,24.9,19.5c18.2,22.8,14.4,49.5,8,68
				C765.4,841,764.6,841.6,763.6,841.6z"/>
		</g>
		<pattern  id="SVGID_70_" xlink:href="#D" patternTransform="matrix(0.9365 0 0 -0.9365 -850.2518 -16255.5684)">
		</pattern>
		<path class="st78" d="M759.2,829c0,0-0.7-92.9,22.8-92.9c14.1,0,3.5,79.6,3.5,79.6L759.2,829z"/>
	</g>
	<g>
		<path id="J" class="st6" d="M758.9,606.6c0,0,5.8-52.4,23-61.7c17.2-9.3,31,8.7,31,8.7L817,564c0,0-24.7-7.3-31.6,18.3
			C785.5,582.3,784.8,605.9,758.9,606.6L758.9,606.6z"/>
	</g>
	<g transform="translate(0 -233.35)">
		<pattern  id="SVGID_71_" xlink:href="#B" patternTransform="matrix(0.9365 0 0 -0.9365 -850.2518 -16255.5684)">
		</pattern>
		<path class="st79" d="M758.9,842.6c-1.4-0.1-2.4-1.4-2.3-2.8c0,0,0,0,0,0c0.2-2.2,6.2-53.8,24.3-63.6c3.4-1.9,7.3-2.9,11.2-3
			c13.2,0,22.3,11.8,22.7,12.3c0.1,0.2,0.2,0.4,0.3,0.6l4.1,10.4c0.5,1.2-0.2,2.6-1.4,3c-0.5,0.2-1,0.2-1.4,0.1
			c-2.3-0.6-4.7-0.9-7.1-0.9c-7.6,0-17.5,3.1-21.5,17.4c-0.4,9-6.8,25.5-28.8,26.4H758.9z M792.1,777.9c-3.1,0-6.2,0.9-9,2.4
			c-12.5,6.7-19.4,41.2-21.5,57.1c20.8-2.1,21.5-21,21.5-21.8c0-0.2,0-0.4,0.1-0.5c4.9-18.3,18.4-21,26.1-21c1.3,0,2.7,0.1,4,0.2
			l-2.4-6.2C809.6,786.6,802,777.9,792.1,777.9L792.1,777.9z"/>
		<pattern  id="SVGID_72_" xlink:href="#B" patternTransform="matrix(0.9365 0 0 -0.9365 -850.2518 -16255.5684)">
		</pattern>
		<path class="st80" d="M767,804.7c-0.5,0-1-0.2-1.4-0.5c-1-0.8-1.2-2.3-0.5-3.3c6.6-8.7,14.5-13.7,23.6-14.8
			c15.9-1.9,29.3,8.9,29.8,9.4c1,0.9,1,2.3,0.2,3.3c-0.8,0.9-2.2,1-3.1,0.3c-0.2-0.1-12.5-10-26.4-8.4c-7.7,0.9-14.5,5.3-20.3,12.9
			C768.4,804.3,767.7,804.6,767,804.7L767,804.7z"/>
	</g>
	<path class="st6" d="M717.7,608.5c0,0-5.3-64.4-30.3-85.2c0,0,37.4-1.9,48,25.5C746.1,576.1,741.1,607.1,717.7,608.5z"/>
	<g transform="translate(0 -233.35)">
		<g>
			<pattern  id="SVGID_73_" xlink:href="#B" patternTransform="matrix(0.9365 0 0 -0.9365 -850.2518 -16255.5684)">
			</pattern>
			<path class="st81" d="M717.7,844.2c-1.2,0-2.2-0.9-2.3-2.1c-0.1-0.6-5.5-63.6-29.4-83.6c-1-0.8-1.1-2.3-0.3-3.3
				c0.4-0.5,1-0.8,1.7-0.8h1.7c6.4,0,38.7,1.3,48.6,27c7.5,19.3,7.3,39.6-0.4,51.6c-4.2,6.7-11.4,10.9-19.3,11.2L717.7,844.2z
				 M693.4,759.1c8.7,9.7,15.7,25.6,20.9,47.4c2.5,10.8,4.4,21.7,5.6,32.8c5.6-0.8,10.5-4.1,13.4-8.9c6.9-10.7,6.9-29.7,0-47.4
				C725.8,763.7,703.7,759.9,693.4,759.1L693.4,759.1z"/>
			<pattern  id="SVGID_74_" xlink:href="#B" patternTransform="matrix(0.9365 0 0 -0.9365 -850.2518 -16255.5684)">
			</pattern>
			<path class="st82" d="M722.4,843.5c-0.3,0-0.5,0-0.8-0.1c-1.2-0.4-1.9-1.7-1.4-3c0,0,0,0,0,0c8.7-25.2,6.3-46.5-7.2-63.5
				c-6.2-7.7-14.1-13.9-23-18c-1.2-0.5-1.8-1.9-1.3-3.1c0.5-1.2,1.9-1.8,3.1-1.3c9.7,4.5,18.2,11.1,24.9,19.5
				c18.2,22.8,14.4,49.5,8,68C724.2,842.9,723.3,843.5,722.4,843.5z"/>
		</g>
		<pattern  id="SVGID_75_" xlink:href="#D" patternTransform="matrix(0.9365 0 0 -0.9365 -850.2518 -16255.5684)">
		</pattern>
		<path class="st83" d="M718,830.9c0,0-0.7-92.9,22.8-92.9c14.1,0,3.5,79.6,3.5,79.6L718,830.9z"/>
	</g>
	<g>
		<path id="J_1_" class="st6" d="M717.7,608.5c0,0,5.8-52.4,23-61.7c17.2-9.3,31,8.7,31,8.7l4.1,10.5c0,0-24.7-7.3-31.6,18.3
			C744.2,584.2,743.6,607.8,717.7,608.5L717.7,608.5z"/>
	</g>
	<g transform="translate(0 -233.35)">
		<pattern  id="SVGID_76_" xlink:href="#B" patternTransform="matrix(0.9365 0 0 -0.9365 -850.2518 -16255.5684)">
		</pattern>
		<path class="st84" d="M717.7,844.5c-1.4-0.1-2.4-1.4-2.3-2.8c0,0,0,0,0,0c0.2-2.2,6.2-53.8,24.3-63.6c3.4-1.9,7.3-2.9,11.2-3
			c13.2,0,22.3,11.8,22.7,12.3c0.1,0.2,0.2,0.4,0.3,0.6l4.1,10.4c0.5,1.2-0.2,2.6-1.4,3c-0.5,0.2-1,0.2-1.4,0.1
			c-2.3-0.6-4.7-0.9-7.1-0.9c-7.6,0-17.5,3.1-21.5,17.4c-0.4,9-6.8,25.5-28.8,26.4H717.7z M750.9,779.8c-3.1,0-6.2,0.9-9,2.4
			c-12.5,6.7-19.4,41.2-21.5,57.1c20.8-2.1,21.5-21,21.5-21.8c0-0.2,0-0.4,0.1-0.5c4.9-18.3,18.4-21,26.1-21c1.3,0,2.7,0.1,4,0.2
			l-2.4-6.2C768.4,788.4,760.8,779.8,750.9,779.8L750.9,779.8z"/>
		<pattern  id="SVGID_77_" xlink:href="#B" patternTransform="matrix(0.9365 0 0 -0.9365 -850.2518 -16255.5684)">
		</pattern>
		<path class="st85" d="M725.8,806.5c-0.5,0-1-0.2-1.4-0.5c-1-0.8-1.2-2.3-0.5-3.3c6.6-8.7,14.5-13.7,23.6-14.8
			c15.9-1.9,29.3,8.9,29.8,9.4c1,0.9,1,2.3,0.2,3.3c-0.8,0.9-2.2,1-3.1,0.3c-0.2-0.1-12.5-10-26.4-8.4c-7.7,0.9-14.5,5.3-20.3,12.9
			C727.2,806.1,726.5,806.5,725.8,806.5L725.8,806.5z"/>
	</g>
	<path class="st6" d="M670,608.5c0,0-5.3-64.4-30.3-85.2c0,0,37.4-1.9,48,25.5C698.3,576.1,693.4,607.1,670,608.5z"/>
	<g transform="translate(0 -233.35)">
		<g>
			<pattern  id="SVGID_78_" xlink:href="#B" patternTransform="matrix(0.9365 0 0 -0.9365 -850.2518 -16255.5684)">
			</pattern>
			<path class="st86" d="M670,844.2c-1.2,0-2.2-0.9-2.3-2.1c-0.1-0.6-5.5-63.6-29.4-83.6c-1-0.8-1.1-2.3-0.3-3.3
				c0.4-0.5,1-0.8,1.7-0.8h1.7c6.4,0,38.7,1.3,48.6,27c7.5,19.3,7.3,39.6-0.4,51.6c-4.2,6.7-11.4,10.9-19.3,11.2L670,844.2z
				 M645.6,759.1c8.7,9.7,15.7,25.6,20.9,47.4c2.5,10.8,4.4,21.7,5.6,32.8c5.6-0.8,10.5-4.1,13.4-8.9c6.9-10.7,6.9-29.7,0-47.4
				C678.1,763.7,655.9,759.9,645.6,759.1L645.6,759.1z"/>
			<pattern  id="SVGID_79_" xlink:href="#B" patternTransform="matrix(0.9365 0 0 -0.9365 -850.2518 -16255.5684)">
			</pattern>
			<path class="st87" d="M674.6,843.5c-0.3,0-0.5,0-0.8-0.1c-1.2-0.4-1.9-1.7-1.4-3c0,0,0,0,0,0c8.7-25.2,6.3-46.5-7.2-63.5
				c-6.2-7.7-14.1-13.9-23-18c-1.2-0.5-1.8-1.9-1.3-3.1c0.5-1.2,1.9-1.8,3.1-1.3c9.7,4.5,18.2,11.1,24.9,19.5
				c18.2,22.8,14.4,49.5,8,68C676.5,842.9,675.6,843.5,674.6,843.5z"/>
		</g>
		<pattern  id="SVGID_80_" xlink:href="#D" patternTransform="matrix(0.9365 0 0 -0.9365 -850.2518 -16255.5684)">
		</pattern>
		<path class="st88" d="M670.2,830.9c0,0-0.7-92.9,22.8-92.9c14.1,0,3.5,79.6,3.5,79.6L670.2,830.9z"/>
	</g>
	<g>
		<path id="J_2_" class="st6" d="M670,608.5c0,0,5.8-52.4,23-61.7c17.2-9.3,31,8.7,31,8.7l4.1,10.5c0,0-24.7-7.3-31.6,18.3
			C696.5,584.2,695.9,607.8,670,608.5L670,608.5z"/>
	</g>
	<g transform="translate(0 -233.35)">
		<g>
			<pattern  id="SVGID_81_" xlink:href="#B" patternTransform="matrix(0.9365 0 0 -0.9365 -850.2518 -16255.5684)">
			</pattern>
			<path class="st89" d="M670,844.5c-1.4-0.1-2.4-1.4-2.3-2.8c0,0,0,0,0,0c0.2-2.2,6.2-53.8,24.3-63.6c3.4-1.9,7.3-2.9,11.2-3
				c13.2,0,22.3,11.8,22.7,12.3c0.1,0.2,0.2,0.4,0.3,0.6l4.1,10.4c0.5,1.2-0.2,2.6-1.4,3c-0.5,0.2-1,0.2-1.4,0.1
				c-2.3-0.6-4.7-0.9-7.1-0.9c-7.6,0-17.5,3.1-21.5,17.4c-0.4,9-6.8,25.5-28.8,26.4H670z M703.1,779.8c-3.1,0-6.2,0.9-9,2.4
				c-12.5,6.7-19.4,41.2-21.5,57.1c20.8-2.1,21.5-21,21.5-21.8c0-0.2,0-0.4,0.1-0.5c4.9-18.3,18.4-21,26.1-21c1.3,0,2.7,0.1,4,0.2
				l-2.4-6.2C720.7,788.4,713.1,779.8,703.1,779.8L703.1,779.8z"/>
			<pattern  id="SVGID_82_" xlink:href="#B" patternTransform="matrix(0.9365 0 0 -0.9365 -850.2518 -16255.5684)">
			</pattern>
			<path class="st90" d="M678,806.5c-0.5,0-1-0.2-1.4-0.5c-1-0.8-1.2-2.3-0.5-3.3c6.6-8.7,14.5-13.7,23.6-14.8
				c15.9-1.9,29.3,8.9,29.8,9.4c1,0.9,1,2.3,0.2,3.3c-0.8,0.9-2.2,1-3.1,0.3c-0.2-0.1-12.5-10-26.4-8.4c-7.7,0.9-14.5,5.3-20.3,12.9
				C679.5,806.1,678.8,806.5,678,806.5L678,806.5z"/>
		</g>
		<g>
			<pattern  id="SVGID_83_" xlink:href="#E" patternTransform="matrix(0.9365 0 0 -0.9365 -850.2518 -16257.4404)">
			</pattern>
			<path class="st91" d="M732.1,591c-12.9,0-22-9.1-22.2-9.2c-0.9-0.9-0.9-2.4,0.1-3.3c0.9-0.9,2.4-0.9,3.3,0l0,0
				c0.6,0.6,15.1,15,32.8,3.3l40.5-71.3c0.1-0.2,0.2-0.3,0.4-0.5c0.2-0.2,16.5-17.1,19.9-29.5c0.3-1.3,1.6-2,2.8-1.7s2,1.6,1.7,2.8
				c0,0,0,0.1,0,0.1c-3.5,12.8-18.7,29.1-20.8,31.3l-40.7,71.5c-0.2,0.3-0.4,0.6-0.7,0.8C744.2,588.9,738.2,590.9,732.1,591z"/>
			<pattern  id="SVGID_84_" xlink:href="#E" patternTransform="matrix(0.9365 0 0 -0.9365 -850.2518 -16257.4404)">
			</pattern>
			<path class="st92" d="M566.8,434.9c-0.2,0-0.3,0-0.5-0.1l-126.5-27.8c-0.7-0.1-1.2-0.6-1.6-1.2c-0.1-0.2-2.8-5.3-0.9-10.2
				c1.2-3,3.7-5.2,7.6-6.6c0.4-0.1,0.9-0.2,1.3-0.1l116.2,25.7c1.2,0.5,1.8,1.8,1.4,3c-0.4,1-1.3,1.6-2.3,1.5l-115.5-25.6
				c-2.2,0.8-3.5,2.1-4.1,3.6c-0.6,1.8-0.5,3.7,0.2,5.4l125.4,27.5c1.3,0.3,2,1.6,1.7,2.8C568.8,434.1,567.9,434.9,566.8,434.9
				L566.8,434.9z"/>
			<pattern  id="SVGID_85_" xlink:href="#E" patternTransform="matrix(0.9365 0 0 -0.9365 -850.2518 -16257.4404)">
			</pattern>
			<path class="st93" d="M833.1,522.8c-1,0-1.8-0.6-2.2-1.5c-2.1-5.3-4.4-10.5-7-15.6c-2.9-5.3-9.7-11.2-11.5-12.7l-107.8-25.4
				c-1.3-0.3-2-1.6-1.7-2.8c0.3-1.3,1.6-2,2.8-1.7l108.3,25.6c0.3,0.1,0.7,0.2,0.9,0.4c0.4,0.3,9.3,7.6,13,14.5
				c2.4,4.7,4.6,9.6,6.6,14.5l17.4-1.2c-2.9-7.4-12.1-27.2-30.4-35.4l-189.6-45.3c-1.2-0.3-2-1.6-1.6-2.9c0.3-1.2,1.5-1.9,2.7-1.7
				L823,476.8c0.1,0,0.3,0.1,0.4,0.1c24.7,11,33.8,40,34.2,41.2c0.4,1.2-0.3,2.5-1.5,2.9c-0.2,0.1-0.4,0.1-0.5,0.1l-22.2,1.5
				L833.1,522.8z"/>
		</g>
		<pattern  id="SVGID_86_" xlink:href="#F" patternTransform="matrix(0.9365 0 0 -0.9365 -850.2518 -16257.4404)">
		</pattern>
		<path class="st94" d="M534.9,924.1l-0.2-336.2h140.8v334.9l-61.9,0.7l-0.1-261.3c0,0-8.7,3.7-15-1.9l0.2,262.6L534.9,924.1z"/>
		<g>
			<pattern  id="SVGID_87_" xlink:href="#E" patternTransform="matrix(0.9365 0 0 -0.9365 -850.2518 -16257.4404)">
			</pattern>
			<path class="st95" d="M676.1,589.7H534.7c-1.3,0-2.3-1-2.3-2.3v-84.7c0-1.3,1-2.3,2.3-2.3s2.3,1,2.3,2.3v82.4h136.7v-82.4
				c0-1.3,1-2.3,2.3-2.3s2.3,1,2.3,2.3v84.7C678.4,588.7,677.4,589.7,676.1,589.7z"/>
			<pattern  id="SVGID_88_" xlink:href="#E" patternTransform="matrix(0.9365 0 0 -0.9365 -850.2518 -16257.4404)">
			</pattern>
			<path class="st96" d="M500.9,559.9L500.9,559.9c-1.4-0.1-2.4-1.1-2.3-2.4c1-15.9,3.6-31.7,7.7-47.1c9-33.2,23.6-54.1,43.2-62.3
				c0.2-0.1,0.3-0.1,0.5-0.1l28.9-4.6c0.7-0.1,1.5,0.1,2,0.6l23.2,22.1l20.5-22c0.9-0.9,2.4-1,3.3-0.1c0.9,0.9,1,2.4,0.1,3.3l0,0
				L605.9,471c-0.4,0.5-1,0.7-1.6,0.7c-0.6,0-1.2-0.2-1.7-0.6l-24.1-22.9l-27.5,4.3c-43.5,18.3-47.7,104.2-47.7,105.1
				C503.2,558.9,502.2,559.9,500.9,559.9L500.9,559.9z"/>
			<pattern  id="SVGID_89_" xlink:href="#E" patternTransform="matrix(0.9365 0 0 -0.9365 -850.2518 -16257.4404)">
			</pattern>
			<path class="st97" d="M534.7,597.9h-0.2l-41.4-4.1c-0.6-0.1-1.2-0.4-1.6-0.9c-0.4-0.5-0.6-1.1-0.5-1.7l3.8-33.9
				c0.1-0.6,0.4-1.2,0.9-1.6c0.5-0.4,1.2-0.5,1.8-0.4l37.6,6c1.3,0.2,2.1,1.4,1.9,2.7s-1.4,2.1-2.7,1.9l-35.2-5.6l-3.3,29.1
				l39.1,3.9c1.3,0.1,2.3,1.2,2.2,2.5C537.1,597,536,598,534.7,597.9L534.7,597.9z"/>
			<pattern  id="SVGID_90_" xlink:href="#E" patternTransform="matrix(0.9365 0 0 -0.9365 -850.2518 -16257.4404)">
			</pattern>
			<path class="st98" d="M608.6,410.9h-6.1c-1.3,0-2.3-1-2.3-2.3c0-1.3,1-2.3,2.3-2.3h3.1l-2.5-10.3c-0.3-1.3,0.4-2.5,1.7-2.9
				c1.3-0.3,2.5,0.4,2.9,1.7c0,0,0,0.1,0,0.1l3.2,13.2c0.3,1.3-0.5,2.5-1.7,2.8C609,410.8,608.8,410.9,608.6,410.9L608.6,410.9z"/>
			<pattern  id="SVGID_91_" xlink:href="#E" patternTransform="matrix(0.9365 0 0 -0.9365 -850.2518 -16257.4404)">
			</pattern>
			<path class="st99" d="M605.4,425.9c-4-0.1-7.9-1.3-11.1-3.6c-1-0.8-1.2-2.2-0.5-3.3c0.8-1,2.2-1.2,3.3-0.5l0,0
				c0.2,0.2,5.6,4.1,12.2,2.1c1.2-0.4,2.5,0.3,2.9,1.5s-0.3,2.5-1.5,2.9C608.9,425.6,607.1,425.9,605.4,425.9z"/>
			<pattern  id="SVGID_92_" xlink:href="#E" patternTransform="matrix(0.9365 0 0 -0.9365 -850.2518 -16257.4404)">
			</pattern>
			<path class="st100" d="M575.5,392.9c-1.3,0-2.3-1-2.3-2.3c0-0.9,0.5-1.7,1.2-2.1c0.4-0.2,10-5.2,17.1-1.1
				c1.1,0.6,1.5,2.1,0.9,3.2c-0.6,1.1-2.1,1.5-3.2,0.9c-4-2.3-10.4,0.1-12.5,1.2C576.3,392.8,575.9,392.9,575.5,392.9z"/>
			<pattern  id="SVGID_93_" xlink:href="#E" patternTransform="matrix(0.9365 0 0 -0.9365 -850.2518 -16257.4404)">
			</pattern>
			<path class="st101" d="M590.7,396.5c-0.7,1.4-2.4,2-3.8,1.3c-1.4-0.7-2-2.4-1.3-3.8c0.6-1.3,2.2-1.9,3.5-1.4
				C590.6,393.2,591.3,395,590.7,396.5z"/>
			<pattern  id="SVGID_94_" xlink:href="#E" patternTransform="matrix(0.9365 0 0 -0.9365 -850.2518 -16257.4404)">
			</pattern>
			<path class="st102" d="M632.7,392.9c-0.4,0-0.8-0.1-1.1-0.3l0,0c-2.1-1.1-8.5-3.5-12.5-1.2c-1.1,0.6-2.6,0.2-3.2-0.9
				c-0.6-1.1-0.2-2.6,0.9-3.2c7.1-4,16.6,0.9,17,1.1c1.1,0.6,1.6,2,1,3.2C634.3,392.4,633.5,392.9,632.7,392.9L632.7,392.9z"/>
			<pattern  id="SVGID_95_" xlink:href="#E" patternTransform="matrix(0.9365 0 0 -0.9365 -850.2518 -16257.4404)">
			</pattern>
			<path class="st103" d="M617.5,396.5c0.7,1.4,2.4,2,3.8,1.3c1.4-0.7,2-2.4,1.3-3.8c-0.6-1.3-2.2-1.9-3.5-1.4
				C617.6,393.2,616.9,395,617.5,396.5z"/>
			<pattern  id="SVGID_96_" xlink:href="#E" patternTransform="matrix(0.9365 0 0 -0.9365 -850.2518 -16257.4404)">
			</pattern>
			<path class="st104" d="M576,447.8h-0.1c-1.3-0.1-2.3-1.2-2.2-2.5l0.5-9.4c0.1-1.3,1.2-2.3,2.5-2.2c1.3,0.1,2.3,1.2,2.2,2.5l0,0
				l-0.5,9.4C578.3,446.8,577.3,447.8,576,447.8z"/>
			<pattern  id="SVGID_97_" xlink:href="#E" patternTransform="matrix(0.9365 0 0 -0.9365 -850.2518 -16257.4404)">
			</pattern>
			<path class="st105" d="M606.7,664c-13.8,0-22.5-6-23-6.3c-1.1-0.7-1.3-2.2-0.6-3.3c0.7-1.1,2.2-1.3,3.3-0.6
				c0.7,0.5,17.1,11.6,41.2,0.6c1.2-0.5,2.6,0,3.1,1.2c0.5,1.2,0,2.6-1.2,3.1l0,0C622.4,662.1,614.6,663.9,606.7,664z"/>
			<pattern  id="SVGID_98_" xlink:href="#E" patternTransform="matrix(0.9365 0 0 -0.9365 -850.2518 -16257.4404)">
			</pattern>
			<path class="st106" d="M534.7,733.2h-0.2c-11.1-0.9-17-16.9-17-25.2c0-7.4-3-25.2-3-25.3l-12.9-81.7c-0.2-1.3,0.7-2.5,1.9-2.7
				c1.3-0.2,2.5,0.7,2.7,1.9l12.9,81.7c0.1,0.7,3.1,18.3,3.1,26.1c0,6.9,4.8,19.9,12.7,20.5c1.3,0.1,2.3,1.1,2.2,2.4
				C537.1,732.2,536,733.2,534.7,733.2L534.7,733.2z"/>
			<pattern  id="SVGID_99_" xlink:href="#E" patternTransform="matrix(0.9365 0 0 -0.9365 -850.2518 -16257.4404)">
			</pattern>
			<path class="st107" d="M533.9,715c-1.1,0-2.2-0.4-3.1-1.1c-1.9-1.4-4.5-4.7-6.2-17.7c-0.9-6.8-1-13-1-13.2c0-1.3,1-2.4,2.3-2.4
				c0,0,0,0,0,0h0.1c1.3,0,2.3,1,2.3,2.3c0.4,16.4,3.3,25.8,5.3,27.3c0.2,0.2,0.3,0.2,0.5,0.1c1.2-0.3,2.5,0.4,2.9,1.6
				c0.3,1.2-0.4,2.5-1.6,2.9l0,0C534.9,714.9,534.4,715,533.9,715L533.9,715z"/>
			<pattern  id="SVGID_100_" xlink:href="#E" patternTransform="matrix(0.9365 0 0 -0.9365 -850.2518 -16257.4404)">
			</pattern>
			<path class="st108" d="M641.7,604.9c-4.8,0-8.5-1.5-11.1-4.5c-4.2-4.9-3.6-12.1-3.4-13.4L626,452.6c0-1.3,1-2.4,2.3-2.4
				c0,0,0,0,0,0l0,0c1.3,0,2.3,1,2.3,2.3l1.3,134.6c0,0.1,0,0.2,0,0.4c0,0.1-0.8,6.2,2.3,9.9c1.6,1.9,4.1,2.8,7.5,2.8
				c1.6,0.1,3.1-0.6,4.2-1.7c3-3.1,3.4-9.8,3.3-12.2L647,464c0-1.3,1-2.5,2.3-2.6h0c1.3,0.1,2.3,1.2,2.3,2.5l2.3,122.2
				c0,0.4,0.4,10.4-4.6,15.6C647.4,603.8,644.6,605,641.7,604.9L641.7,604.9z"/>
			<pattern  id="SVGID_101_" xlink:href="#E" patternTransform="matrix(0.9365 0 0 -0.9365 -850.2518 -16257.4404)">
			</pattern>
			<path class="st109" d="M642.5,594.9c-0.1,1.5-1.5,2.7-3,2.6c-1.5-0.1-2.7-1.5-2.6-3c0.1-1.5,1.3-2.6,2.8-2.6
				C641.3,591.9,642.6,593.3,642.5,594.9z"/>
			<pattern  id="SVGID_102_" xlink:href="#E" patternTransform="matrix(0.9365 0 0 -0.9365 -850.2518 -16257.4404)">
			</pattern>
			<path class="st110" d="M568.6,604.9c-4.8,0-8.5-1.5-11.1-4.5c-4.2-4.9-3.6-12.1-3.4-13.4l-1.3-137.4c0-1.2,1-2.3,2.2-2.3
				c0,0,0.1,0,0.1,0l0,0c1.2,0,2.3,0.9,2.3,2.2c0,0,0,0,0,0l1.3,137.7c0,0.1,0,0.2,0,0.3c0,0.1-0.8,6.2,2.3,9.8
				c1.6,1.9,4.1,2.8,7.5,2.8c1.6,0.1,3.1-0.6,4.2-1.7c3-3.1,3.4-9.8,3.3-12.2l-2.3-129.1c0-1.3,1-2.4,2.3-2.4c0,0,0,0,0,0
				c1.3,0,2.4,1,2.4,2.3l2.3,129c0,0.4,0.4,10.3-4.6,15.5C574.2,603.8,571.4,605,568.6,604.9L568.6,604.9z"/>
			<pattern  id="SVGID_103_" xlink:href="#E" patternTransform="matrix(0.9365 0 0 -0.9365 -850.2518 -16257.4404)">
			</pattern>
			<path class="st111" d="M569.4,594.9c-0.1,1.5-1.5,2.7-3,2.6c-1.5-0.1-2.7-1.5-2.6-3c0.1-1.5,1.3-2.6,2.8-2.6
				C568.2,591.9,569.4,593.3,569.4,594.9z"/>
		</g>
	</g>
	<path class="st5" d="M653.1,382.6h23.4v45h-23.4V382.6z"/>
	<path class="st112" d="M646.5,385.3l6.3,1.5"/>
	<pattern  id="SVGID_104_" xlink:href="#E" patternTransform="matrix(0.9365 0 0 -0.9365 -850.2518 -16257.4404)">
	</pattern>
	<path class="st113" d="M652.8,389.2c-0.2,0-0.4,0-0.5-0.1l-6.3-1.5c-1.3-0.3-2.1-1.5-1.8-2.8c0.3-1.3,1.5-2.1,2.8-1.8
		c0,0,0.1,0,0.1,0l6.3,1.5c1.3,0.3,2,1.6,1.7,2.8C654.9,388.4,653.9,389.2,652.8,389.2L652.8,389.2z"/>
	<path class="st112" d="M645,422.6l7.8-2.7"/>
	<pattern  id="SVGID_105_" xlink:href="#E" patternTransform="matrix(0.9365 0 0 -0.9365 -850.2518 -16257.4404)">
	</pattern>
	<path class="st114" d="M645,424.9c-1.3,0-2.3-1-2.3-2.3c0-1,0.6-1.9,1.6-2.2l7.8-2.7c1.2-0.5,2.6,0.1,3,1.3s-0.1,2.6-1.3,3
		c-0.1,0-0.1,0-0.2,0.1l-7.9,2.6C645.5,424.8,645.2,424.9,645,424.9z"/>
	<path class="st112" d="M645.6,409.8h7.5"/>
	<pattern  id="SVGID_106_" xlink:href="#E" patternTransform="matrix(0.9365 0 0 -0.9365 -850.2518 -16257.4404)">
	</pattern>
	<path class="st115" d="M653.1,411.6h-7.5c-1.3,0-2.3-1-2.3-2.3s1-2.3,2.3-2.3h7.5c1.3,0,2.3,1,2.3,2.3S654.4,411.6,653.1,411.6z"/>
	<path class="st112" d="M645.2,396l7.6,1.5"/>
	<pattern  id="SVGID_107_" xlink:href="#E" patternTransform="matrix(0.9365 0 0 -0.9365 -850.2518 -16257.4404)">
	</pattern>
	<path class="st116" d="M652.8,399.8c-0.2,0-0.3,0-0.5,0l-7.6-1.5c-1.3-0.3-2.1-1.5-1.8-2.8c0.3-1.3,1.5-2.1,2.8-1.8l0,0l7.6,1.5
		c1.3,0.3,2.1,1.5,1.8,2.8C654.9,399.1,654,399.9,652.8,399.8L652.8,399.8z"/>
	<path class="st5" d="M533.3,507.2h24.3v36.5h-24.3V507.2z"/>
	<path class="st112" d="M564.1,513.3l-6.3,1.5"/>
	<pattern  id="SVGID_108_" xlink:href="#E" patternTransform="matrix(0.9365 0 0 -0.9365 -850.2518 -16257.4404)">
	</pattern>
	<path class="st117" d="M557.8,517.2c-1.3,0-2.3-1.1-2.3-2.3c0-1.1,0.7-2,1.8-2.3l6.3-1.5c1.3-0.3,2.5,0.4,2.9,1.7s-0.4,2.5-1.7,2.9
		c0,0-0.1,0-0.1,0l-6.3,1.5C558.1,517.2,558,517.2,557.8,517.2z"/>
	<path class="st112" d="M565.1,537.1h-7.5"/>
	<pattern  id="SVGID_109_" xlink:href="#E" patternTransform="matrix(0.9365 0 0 -0.9365 -850.2518 -16257.4404)">
	</pattern>
	<path class="st118" d="M565.1,539h-7.5c-1.3,0-2.3-1-2.3-2.3c0-1.3,1-2.3,2.3-2.3h7.5c1.3,0,2.3,1,2.3,2.3
		C567.4,537.9,566.4,539,565.1,539z"/>
	<path class="st112" d="M565.4,524l-7.6,1.5"/>
	<g transform="translate(0 -233.35)">
		<pattern  id="SVGID_110_" xlink:href="#E" patternTransform="matrix(0.9365 0 0 -0.9365 -850.2518 -16257.4404)">
		</pattern>
		<path class="st119" d="M557.8,761.2c-1.3,0.1-2.4-0.8-2.6-2.1c-0.1-1.3,0.8-2.4,2.1-2.6l7.6-1.5c1.3-0.3,2.5,0.6,2.8,1.8
			c0.3,1.3-0.6,2.5-1.8,2.8l-7.6,1.5C558.1,761.1,557.9,761.2,557.8,761.2L557.8,761.2z"/>
		<pattern  id="SVGID_111_" xlink:href="#E" patternTransform="matrix(0.9365 0 0 -0.9365 -850.2518 -16257.4404)">
		</pattern>
		<path class="st120" d="M604.2,442.9c-14.5,0-27.2-7.6-36.5-21.9c-4.4-6.8-7.7-14.3-9.9-22.2c-1.6-7-2.3-14.2-2-21.4
			c0.1-1.3,1.2-2.3,2.5-2.2s2.3,1.2,2.2,2.5c-0.6,9.6,1.9,19.9,1.9,20c0.1,0.4,10.3,40.5,41.8,40.5h0.9c13.3-0.3,23.2-7.7,29.3-21.9
			c3-7.1,4.8-14.5,5.4-22.1c0-0.2,1.2-13,0-19.5c-0.2-1.3,0.6-2.5,1.9-2.7c1.3-0.2,2.5,0.6,2.7,1.9c1.3,7.1,0.1,20.1,0,20.7
			c-0.7,8.1-2.6,16-5.7,23.5c-6.9,15.9-18.5,24.5-33.6,24.9L604.2,442.9z"/>
		<pattern  id="SVGID_112_" xlink:href="#E" patternTransform="matrix(0.9365 0 0 -0.9365 -850.2518 -16257.4404)">
		</pattern>
		<path class="st121" d="M564.1,417c-5.5,0-13.8-2.3-18.1-11.1c-1.9-3.8-1.9-7.2-0.3-10.1c3.1-5.5,11.2-6.3,12.2-6.4
			c1.3-0.1,2.4,0.8,2.5,2.1c0.1,1.3-0.8,2.4-2.1,2.5c-1.8,0.2-6.9,1.2-8.5,4.1c-0.8,1.4-0.6,3.4,0.5,5.7c4.8,10,15.8,8.3,15.9,8.3
			c1.3-0.2,2.5,0.6,2.7,1.9c0.2,1.3-0.6,2.5-1.9,2.7l0,0C566,416.9,565,417,564.1,417z"/>
		<pattern  id="SVGID_113_" xlink:href="#E" patternTransform="matrix(0.9365 0 0 -0.9365 -850.2518 -16257.4404)">
		</pattern>
		<path class="st122" d="M640.6,417c-1,0-1.9-0.1-2.9-0.2c-1.3-0.2-2.1-1.4-1.9-2.7c0.2-1.3,1.4-2.1,2.7-1.9l0,0
			c0.4,0.1,11.1,1.7,15.9-8.3c1.1-2.4,1.3-4.3,0.5-5.7c-1.6-2.8-6.7-3.9-8.5-4.1c-1.3-0.1-2.2-1.3-2.1-2.6c0.1-1.3,1.3-2.2,2.6-2.1
			c0.9,0.1,9.1,0.9,12.2,6.4c1.6,2.9,1.5,6.2-0.3,10.1C654.5,414.7,646.2,417,640.6,417L640.6,417z"/>
		<pattern  id="SVGID_114_" xlink:href="#E" patternTransform="matrix(0.9365 0 0 -0.9365 -850.2518 -16257.4404)">
		</pattern>
		<path class="st123" d="M559.1,336.8l12.5,31.6c0,0,32,24.3,71.5,6.8l0.6,12.5c0,0,21.4-13.3,16.9-39.1
			c-3.2-18.8-26.2-50-65.7-37.9C563.9,320,559.1,336.8,559.1,336.8L559.1,336.8z"/>
		<pattern  id="SVGID_115_" xlink:href="#E" patternTransform="matrix(0.9365 0 0 -0.9365 -850.2518 -16257.4404)">
		</pattern>
		<path class="st124" d="M567.7,369.2l-9.7-27.9c0,0-17.4,7.1-14.3,23.1c3.1,16,15.8,30.8,15.8,30.8S567.6,386.9,567.7,369.2z"/>
		<pattern  id="SVGID_116_" xlink:href="#E" patternTransform="matrix(0.9365 0 0 -0.9365 -850.2518 -16257.4404)">
		</pattern>
		<path class="st125" d="M604.4,509.2c-1.3,0-2.3-1.1-2.3-2.4l-0.3-37.3c0-1.3,1-2.4,2.3-2.4l0,0c1.3,0,2.3,1.1,2.3,2.4l0.3,37.3
			C606.8,508.1,605.7,509.2,604.4,509.2z"/>
	</g>
	<g>
		<pattern  id="SVGID_117_" xlink:href="#G" patternTransform="matrix(0.9365 0 0 -0.9365 -850.2518 -16257.4404)">
		</pattern>
		<path class="st126" d="M534.9,598l0.1,93.2l63.9-1l-0.1-92.1H534.9L534.9,598z"/>
		<pattern  id="SVGID_118_" xlink:href="#G" patternTransform="matrix(0.9365 0 0 -0.9365 -850.2518 -16257.4404)">
		</pattern>
		<path class="st127" d="M613.5,598l-0.3,92.5l62.4-1V598L613.5,598L613.5,598z"/>
	</g>
	<path class="st20" d="M612.9,658.9h63l0.4,59.5c12.7,5.2,21.7,16.8,23.5,30.4h-86.9V658.9z"/>
	<pattern  id="SVGID_119_" xlink:href="#E" patternTransform="matrix(0.9365 0 0 -0.9365 -850.2518 -16257.4404)">
	</pattern>
	<path class="st128" d="M699.8,750.6h-86.5c-1.3,0-2.3-1-2.3-2.3v-89.9c0-1.3,1-2.3,2.3-2.3h62.5c1.3,0,2.3,1,2.3,2.3l0.4,58
		c12.7,5.7,21.5,17.5,23.4,31.3c0.3,1.2-0.4,2.5-1.6,2.9C700.2,750.6,700,750.6,699.8,750.6L699.8,750.6z M615.7,746H697
		c-2.4-11.7-10.4-21.4-21.5-25.8c-0.9-0.3-1.6-1.2-1.6-2.2l-0.4-57.2h-57.8V746z"/>
	<path class="st20" d="M597.9,658.9h-62.1l-0.4,59.5c-12.7,5.2-21.7,16.8-23.5,30.4h86V658.9z"/>
	<pattern  id="SVGID_120_" xlink:href="#E" patternTransform="matrix(0.9365 0 0 -0.9365 -850.2518 -16257.4404)">
	</pattern>
	<path class="st129" d="M598.3,750.6h-86.5c-1.3,0-2.3-1-2.3-2.3c0-0.1,0-0.2,0-0.3c1.8-13.9,10.7-25.9,23.5-31.6l0.4-58
		c0-1.3,1.1-2.3,2.3-2.3h62.6c1.3,0,2.3,1,2.3,2.3v89.9C600.7,749.6,599.6,750.6,598.3,750.6L598.3,750.6z M514.6,746H596v-85.2
		h-57.9l-0.4,57.2c0,1-0.6,1.9-1.6,2.2C525.1,724.6,517,734.3,514.6,746z"/>
	<path class="st112" d="M548.2,668.8l11.6,7.4"/>
	<pattern  id="SVGID_121_" xlink:href="#E" patternTransform="matrix(0.9365 0 0 -0.9365 -850.2518 -16257.4404)">
	</pattern>
	<path class="st130" d="M559.9,678.5c-0.4,0-0.9-0.1-1.3-0.4l-11.6-7.4c-1.1-0.7-1.4-2.1-0.7-3.2s2.1-1.4,3.2-0.7l11.6,7.4
		c1.1,0.7,1.4,2.1,0.7,3.2C561.4,678.1,560.7,678.5,559.9,678.5L559.9,678.5z"/>
	<path class="st112" d="M559.9,668.8l-11.7,7.3"/>
	<pattern  id="SVGID_122_" xlink:href="#E" patternTransform="matrix(0.9365 0 0 -0.9365 -850.2518 -16257.4404)">
	</pattern>
	<path class="st131" d="M548.2,678.5c-1.3,0-2.3-1.1-2.3-2.4c0-0.8,0.4-1.5,1.1-2l11.6-7.4c1.1-0.7,2.5-0.4,3.2,0.7s0.4,2.5-0.7,3.2
		l-11.6,7.4C549.1,678.4,548.7,678.5,548.2,678.5z"/>
	<path class="st112" d="M548.2,685.7l11.6,7.4"/>
	<pattern  id="SVGID_123_" xlink:href="#E" patternTransform="matrix(0.9365 0 0 -0.9365 -850.2518 -16257.4404)">
	</pattern>
	<path class="st132" d="M559.9,695.4c-0.4,0-0.9-0.1-1.3-0.4l-11.6-7.4c-1.1-0.7-1.4-2.1-0.7-3.2s2.1-1.4,3.2-0.7l11.6,7.4
		c1.1,0.7,1.4,2.1,0.7,3.2C561.4,695,560.7,695.4,559.9,695.4L559.9,695.4z"/>
	<path class="st112" d="M559.9,685.7l-11.7,7.4"/>
	<pattern  id="SVGID_124_" xlink:href="#E" patternTransform="matrix(0.9365 0 0 -0.9365 -850.2518 -16257.4404)">
	</pattern>
	<path class="st133" d="M548.2,695.4c-1.3,0-2.3-1.1-2.3-2.4c0-0.8,0.4-1.5,1.1-2l11.6-7.4c1.1-0.7,2.5-0.4,3.2,0.7s0.4,2.5-0.7,3.2
		l-11.6,7.4C549.1,695.3,548.7,695.4,548.2,695.4z"/>
	<pattern  id="SVGID_125_" xlink:href="#G" patternTransform="matrix(0.9365 0 0 -0.9365 -850.2518 -16257.4404)">
	</pattern>
	<path class="st134" d="M548.2,627.1l11.6,7.4"/>
	<path class="st112" d="M559.9,636.7c-0.4,0-0.9-0.1-1.3-0.4L547,629c-1.1-0.7-1.4-2.1-0.7-3.2s2.1-1.4,3.2-0.7l11.6,7.4
		c1.1,0.7,1.4,2.1,0.7,3.2C561.4,636.3,560.7,636.7,559.9,636.7L559.9,636.7z"/>
	<pattern  id="SVGID_126_" xlink:href="#G" patternTransform="matrix(0.9365 0 0 -0.9365 -850.2518 -16257.4404)">
	</pattern>
	<path class="st135" d="M559.9,627.1l-11.7,7.4"/>
	<path class="st112" d="M548.2,636.7c-1.3,0-2.3-1.1-2.3-2.4c0-0.8,0.4-1.5,1.1-2l11.6-7.4c1.1-0.7,2.5-0.4,3.2,0.7s0.4,2.5-0.7,3.2
		l-11.6,7.4C549.1,636.6,548.7,636.7,548.2,636.7z"/>
	<pattern  id="SVGID_127_" xlink:href="#G" patternTransform="matrix(0.9365 0 0 -0.9365 -850.2518 -16257.4404)">
	</pattern>
	<path class="st136" d="M548.2,643.9l11.6,7.4"/>
	<path class="st112" d="M559.9,653.6c-0.4,0-0.9-0.1-1.3-0.4l-11.6-7.4c-1.1-0.6-1.5-2.1-0.9-3.2c0.2-0.4,0.6-0.7,1-0.9
		c0.8-0.4,1.7-0.3,2.4,0.2l11.6,7.4c1.1,0.7,1.4,2.1,0.7,3.2C561.5,653.2,560.7,653.6,559.9,653.6L559.9,653.6z"/>
	<pattern  id="SVGID_128_" xlink:href="#G" patternTransform="matrix(0.9365 0 0 -0.9365 -850.2518 -16257.4404)">
	</pattern>
	<path class="st137" d="M559.9,643.9l-11.7,7.4"/>
	<path class="st112" d="M548.2,653.6c-1.3,0-2.3-1-2.3-2.3c0-0.8,0.4-1.6,1.1-2l11.6-7.3c1.1-0.7,2.5-0.5,3.3,0.6
		c0.7,1.1,0.5,2.5-0.6,3.3c-0.1,0-0.1,0.1-0.2,0.1l-11.6,7.3C549.1,653.5,548.7,653.6,548.2,653.6L548.2,653.6z M653.1,668.8
		l11.6,7.4"/>
	<pattern  id="SVGID_129_" xlink:href="#E" patternTransform="matrix(0.9365 0 0 -0.9365 -850.2518 -16257.4404)">
	</pattern>
	<path class="st138" d="M664.8,678.5c-0.4,0-0.9-0.1-1.2-0.4l-11.6-7.4c-1.1-0.7-1.4-2.1-0.7-3.2c0.7-1.1,2.1-1.4,3.2-0.7l11.6,7.4
		c1.1,0.7,1.4,2.1,0.7,3.2C666.3,678.1,665.6,678.5,664.8,678.5L664.8,678.5z"/>
	<path class="st112" d="M664.8,668.8l-11.6,7.3"/>
	<pattern  id="SVGID_130_" xlink:href="#E" patternTransform="matrix(0.9365 0 0 -0.9365 -850.2518 -16257.4404)">
	</pattern>
	<path class="st139" d="M653.1,678.5c-1.3,0-2.3-1-2.3-2.3c0-0.8,0.4-1.5,1.1-2l11.6-7.4c1.1-0.7,2.5-0.4,3.2,0.7
		c0.7,1.1,0.4,2.5-0.7,3.2l-11.6,7.4C654,678.4,653.6,678.5,653.1,678.5z"/>
	<path class="st112" d="M653.1,685.7l11.6,7.4"/>
	<pattern  id="SVGID_131_" xlink:href="#E" patternTransform="matrix(0.9365 0 0 -0.9365 -850.2518 -16257.4404)">
	</pattern>
	<path class="st140" d="M664.8,695.4c-0.4,0-0.9-0.1-1.2-0.4l-11.6-7.4c-1.1-0.7-1.4-2.1-0.7-3.2c0.7-1.1,2.1-1.4,3.2-0.7l11.6,7.4
		c1.1,0.7,1.4,2.1,0.7,3.2C666.3,695,665.6,695.4,664.8,695.4L664.8,695.4z"/>
	<path class="st112" d="M664.8,685.7l-11.6,7.4"/>
	<pattern  id="SVGID_132_" xlink:href="#E" patternTransform="matrix(0.9365 0 0 -0.9365 -850.2518 -16257.4404)">
	</pattern>
	<path class="st141" d="M653.1,695.4c-1.3,0-2.3-1-2.3-2.3c0-0.8,0.4-1.5,1.1-2l11.6-7.4c1.1-0.7,2.5-0.4,3.2,0.7
		c0.7,1.1,0.4,2.5-0.7,3.2l0,0l-11.6,7.4C654,695.3,653.6,695.4,653.1,695.4z"/>
	<pattern  id="SVGID_133_" xlink:href="#G" patternTransform="matrix(0.9365 0 0 -0.9365 -850.2518 -16257.4404)">
	</pattern>
	<path class="st142" d="M653.1,627.1l11.6,7.4"/>
	<path class="st112" d="M664.8,636.7c-0.4,0-0.9-0.1-1.2-0.4l-11.6-7.4c-1.1-0.7-1.4-2.1-0.7-3.2c0.7-1.1,2.1-1.4,3.2-0.7l11.6,7.4
		c1.1,0.7,1.4,2.1,0.7,3.2C666.3,636.3,665.6,636.7,664.8,636.7L664.8,636.7z"/>
	<pattern  id="SVGID_134_" xlink:href="#G" patternTransform="matrix(0.9365 0 0 -0.9365 -850.2518 -16257.4404)">
	</pattern>
	<path class="st143" d="M664.8,627.1l-11.6,7.4"/>
	<path class="st112" d="M653.1,636.7c-1.3,0-2.3-1-2.3-2.3c0-0.8,0.4-1.5,1.1-2l11.6-7.4c1.1-0.7,2.5-0.4,3.2,0.7
		c0.7,1.1,0.4,2.5-0.7,3.2l-11.6,7.4C654,636.6,653.6,636.7,653.1,636.7L653.1,636.7z"/>
	<pattern  id="SVGID_135_" xlink:href="#G" patternTransform="matrix(0.9365 0 0 -0.9365 -850.2518 -16257.4404)">
	</pattern>
	<path class="st144" d="M653.1,643.9l11.6,7.4"/>
	<path class="st112" d="M664.8,653.6c-0.4,0-0.9-0.1-1.2-0.4l-11.6-7.4c-1.1-0.6-1.5-2.1-0.9-3.2c0.2-0.4,0.6-0.7,1-0.9
		c0.8-0.4,1.7-0.3,2.4,0.2l11.6,7.4c1.1,0.7,1.4,2.2,0.7,3.2C666.3,653.2,665.6,653.6,664.8,653.6L664.8,653.6z"/>
	<pattern  id="SVGID_136_" xlink:href="#G" patternTransform="matrix(0.9365 0 0 -0.9365 -850.2518 -16257.4404)">
	</pattern>
	<path class="st145" d="M664.8,643.9l-11.6,7.4"/>
	<path class="st112" d="M653.1,653.6c-1.3,0-2.3-1-2.4-2.3c0-0.8,0.4-1.6,1.1-2l11.7-7.3c1.1-0.6,2.6-0.2,3.2,0.9
		c0.6,1,0.3,2.4-0.7,3.1l-11.6,7.3C654,653.5,653.6,653.6,653.1,653.6L653.1,653.6z"/>
	<path class="st5" d="M477.7,142.8c0,0,121.7,34.5,256,0L603.3,52.4L477.7,142.8z"/>
	<g transform="translate(0 -233.35)">
		<pattern  id="SVGID_137_" xlink:href="#E" patternTransform="matrix(0.9365 0 0 -0.9365 -850.2518 -16257.4404)">
		</pattern>
		<path class="st146" d="M607.3,393.8c-19.6,0-37.2-1-52.1-2.4c-46.9-4.3-77.7-12.9-78.1-13c-1.2-0.4-2-1.6-1.6-2.9
			c0.4-1.2,1.6-2,2.9-1.6c0.3,0.1,30.9,8.6,77.4,12.9c42.9,3.9,108.4,4.8,177.4-12.9c1.2-0.4,2.5,0.4,2.9,1.6
			c0.4,1.2-0.4,2.5-1.6,2.9c0,0-0.1,0-0.1,0C688.6,390.1,644.5,393.8,607.3,393.8z"/>
		<pattern  id="SVGID_138_" xlink:href="#E" patternTransform="matrix(0.9365 0 0 -0.9365 -850.2518 -16257.4404)">
		</pattern>
		<path class="st147" d="M690.9,559.9h-0.3c-0.7-0.1-1.4-0.6-1.7-1.3l-14.2-28c-0.6-1.1-0.2-2.6,0.9-3.2c1.1-0.6,2.6-0.2,3.2,0.9
			c0,0.1,0.1,0.1,0.1,0.2l12.7,25l33.6-35.1c-5.1-8.5-29.8-49.8-36.7-56.8c-7.3-7.3-23.3-9.1-23.4-9.1h-0.1l-28.9-4.6
			c-1.3-0.2-2.1-1.4-1.9-2.7c0.2-1.3,1.4-2.1,2.7-1.9l28.8,4.6c1.3,0.1,17.9,2.1,26.2,10.5c8.1,8.1,37.1,57.1,38.3,59.2
			c0.5,0.9,0.4,2.1-0.3,2.8l-37.1,38.7C692.2,559.7,691.6,559.9,690.9,559.9z"/>
	</g>
	<path class="st20" d="M779.5,229.4c0,0,0.4-10.5,5.7-10.2c5.3,0.3,33.4,4.5,30.4,16.9c-3,12.3-16.4,18-21.5,16.8
		C789,251.7,780.1,237.6,779.5,229.4z"/>
	<g transform="translate(0 -233.35)">
		<pattern  id="SVGID_139_" xlink:href="#E" patternTransform="matrix(0.9365 0 0 -0.9365 -850.2518 -16257.4404)">
		</pattern>
		<path class="st148" d="M795.7,488.7c-0.7,0-1.4-0.1-2.1-0.2c-5.7-1.3-15.7-15.6-16.4-25.6c0-0.1,0-0.2,0-0.3
			c0.5-12.1,7.1-12.4,7.9-12.4h0.4c4.6,0.3,24.5,3.1,30.8,11.6c1.8,2.3,2.5,5.4,1.8,8.2C815.1,482,803,488.7,795.7,488.7
			L795.7,488.7z M781.9,462.7c0.7,7.8,9.4,20.5,12.8,21.3c0.3,0.1,0.7,0.1,1,0.1c5.1,0,15.3-5.1,17.7-15.2c0.4-1.5,0-3.1-0.9-4.3
			c-4.8-6.4-22.7-9.7-27.3-9.7l0,0C783.2,454.9,782,459.8,781.9,462.7L781.9,462.7z"/>
		<pattern  id="SVGID_140_" xlink:href="#E" patternTransform="matrix(0.9365 0 0 -0.9365 -850.2518 -16257.4404)">
		</pattern>
		<path class="st149" d="M703.6,583.8L703.6,583.8c-0.9,0-1.7-0.5-2.1-1.2l-13.5-25c-0.6-1.1-0.3-2.6,0.9-3.2
			c1.1-0.6,2.6-0.3,3.2,0.9c0,0,0,0.1,0.1,0.1l11.6,21.5l28.9-44.7l-3.2-4.1c-0.8-1-0.6-2.5,0.5-3.3s2.5-0.6,3.3,0.5l4.1,5.5
			c0.6,0.8,0.6,1.9,0.1,2.7l-31.9,49.3C705.1,583.4,704.4,583.8,703.6,583.8z"/>
	</g>
	<path class="st20" d="M733.2,303.4l28.3-40.3l8-32.4l27.2-1.2c0,0-4.9,10-13.4,10.4c0,0,9.5,15,5.8,20.1"/>
	<g transform="translate(0 -233.35)">
		<pattern  id="SVGID_141_" xlink:href="#E" patternTransform="matrix(0.9365 0 0 -0.9365 -850.2518 -16257.4404)">
		</pattern>
		<path class="st150" d="M733.2,539.1c-0.5,0-0.9-0.1-1.3-0.4c-1.1-0.7-1.3-2.2-0.6-3.2c0,0,0,0,0,0l28.1-39.9l7.9-32
			c0.2-1,1.1-1.7,2.2-1.8l27.2-1.2c0.8,0,1.6,0.4,2.1,1c0.5,0.7,0.5,1.6,0.1,2.3c-0.2,0.4-4.3,8.6-11.7,11.1c2.9,5.2,7.5,15,4,19.9
			c-0.9,1-2.4,1-3.3,0.1c-0.8-0.7-1-1.9-0.4-2.9c1.9-2.5-2.2-11.8-5.9-17.5c-0.4-0.7-0.5-1.6-0.1-2.3c0.4-0.7,1.1-1.2,2-1.3
			c3.9-0.2,7-3.1,9-5.6l-20.8,0.9l-7.6,30.7c-0.1,0.3-0.2,0.5-0.4,0.8L735.2,538C734.7,538.7,734,539.1,733.2,539.1L733.2,539.1z"/>
		<pattern  id="SVGID_142_" xlink:href="#E" patternTransform="matrix(0.9365 0 0 -0.9365 -850.2518 -16257.4404)">
		</pattern>
		<path class="st151" d="M429,514.2c-5.4,0-10.8-0.5-16.1-1.6c-10.6-2-20.9-5.7-30.3-11.1c-0.7-0.4-1.1-1.2-1.1-2v-89.2
			c0-0.1,0-0.3,0-0.4c2.6-14.2,16.3-37,50.6-32.8c19.1,2.4,35.1,16.7,35.8,17.3c1,0.8,1.1,2.3,0.2,3.3c-0.8,1-2.3,1.1-3.3,0.2
			c0,0-0.1,0-0.1-0.1c-0.1-0.1-15.7-13.9-33.2-16.1c-37.4-4.7-44.5,24.5-45.4,28.7v87.6c8.7,4.7,18.1,8,27.7,9.8
			c21.8,4.1,41.2-0.3,57.5-13.2v-82.2c0-1.3,1-2.3,2.3-2.3s2.3,1,2.3,2.3v83.3c0,0.7-0.3,1.4-0.9,1.8
			C462.2,508.6,445.8,514.3,429,514.2z"/>
	</g>
	<path class="st20" d="M588,79.6l-71.7,50.9"/>
	<g transform="translate(0 -233.35)">
		<g>
			<pattern  id="SVGID_143_" xlink:href="#E" patternTransform="matrix(0.9365 0 0 -0.9365 -850.2518 -16257.4404)">
			</pattern>
			<path class="st152" d="M516.3,366.2c-1.3,0-2.3-1-2.3-2.3c0-0.8,0.4-1.5,1-1.9l71.7-50.9c1-0.8,2.5-0.6,3.3,0.4s0.6,2.5-0.4,3.3
				c0,0-0.1,0.1-0.1,0.1l-71.8,50.9C517.3,366.1,516.8,366.2,516.3,366.2z"/>
			<pattern  id="SVGID_144_" xlink:href="#E" patternTransform="matrix(0.9365 0 0 -0.9365 -850.2518 -16257.4404)">
			</pattern>
			<path class="st153" d="M383.9,501.9c-0.2,0-0.3,0-0.5-0.1c-1.3-0.3-2.1-1.5-1.8-2.8c0,0,0,0,0,0l19.6-92.8
				c0.2-11.1,14.6-27.8,15.2-28.5c0.9-1,2.4-1,3.3-0.1c0.9,0.8,1,2.2,0.2,3.2c-3.9,4.5-14,17.9-14,25.7c0,0.2,0,0.3-0.1,0.5
				l-19.7,93C386,501.2,385,501.9,383.9,501.9z"/>
			<pattern  id="SVGID_145_" xlink:href="#E" patternTransform="matrix(0.9365 0 0 -0.9365 -850.2518 -16257.4404)">
			</pattern>
			<path class="st154" d="M611.9,482.6c0.7,1.4,2.4,2,3.8,1.3c1.4-0.7,2-2.4,1.3-3.8c-0.6-1.3-2.2-1.9-3.5-1.4
				C612,479.4,611.3,481.1,611.9,482.6z"/>
			<pattern  id="SVGID_146_" xlink:href="#E" patternTransform="matrix(0.9365 0 0 -0.9365 -850.2518 -16257.4404)">
			</pattern>
			<path class="st155" d="M611.9,500.4c0.7,1.4,2.4,2,3.8,1.3c1.4-0.7,2-2.4,1.3-3.8c-0.6-1.3-2.2-1.9-3.5-1.4
				C612,497.2,611.3,498.9,611.9,500.4z"/>
		</g>
		<pattern  id="SVGID_147_" xlink:href="#H" patternTransform="matrix(0.9365 0 0 -0.9365 -850.2518 -16263.0596)">
		</pattern>
		<path class="st156" d="M896.2,659.3l0.4,270.4l64-1.2L960.4,666c6.3,5.5,15,1.8,15,1.8l0.4,261.3l62.3-0.7V659
			c0,0,2.6-44-12.5-65.5H913.1C913.1,593.5,896.2,608.3,896.2,659.3z"/>
	</g>
	<path class="st20" d="M1081.4,649.2l-33.6-222.9c0,0-7.2-43.7-22.2-65.2H913.1c0,0-18.4,22.3-21.3,65.6l-37.3,222.7
		c0,0,21.9,15.9,42,15.5c20.2-0.5,47.3-18.3,60.2-18.3s30.7,17.3,54.2,18.2C1034.5,665.6,1047.6,648.7,1081.4,649.2L1081.4,649.2z"
		/>
	<g transform="translate(0 -233.35)">
		<pattern  id="SVGID_148_" xlink:href="#I" patternTransform="matrix(0.9365 0 0 -0.9365 -850.2518 -16263.0596)">
		</pattern>
		<path class="st157" d="M1012.7,900.6L1012.7,900.6c-0.6,0-1.2-0.1-1.9-0.1C997,900,985,893.9,975.3,889
			c-7.3-3.7-13.6-6.8-18.6-6.8c-5.3,0-14,3.6-23.3,7.4c-11.9,4.9-25.3,10.5-36.9,10.8h-0.9c-20.5,0-41.7-15.3-42.6-16
			c-0.7-0.5-1.1-1.4-0.9-2.3l37.3-222.7c1.6-22.7,7.4-39.6,12-49.9c5-11.2,9.7-16.9,9.9-17.2c0.4-0.5,1.1-0.9,1.8-0.9h112.5
			c0.7,0,1.4,0.4,1.9,1c6.4,9.1,12.2,23.1,17.1,41.5c3.7,13.6,5.5,24.7,5.5,24.9l33.6,222.9c0.1,0.2,0.1,0.4,0.1,0.6
			c0,1.3-1,2.3-2.3,2.3c0,0,0,0,0,0l0,0c-17.8,0-29.4,4.5-40.6,8.9C1031.7,897.1,1023.2,900.6,1012.7,900.6L1012.7,900.6z
			 M956.7,877.5c6.2,0,12.9,3.4,20.7,7.3c9.7,4.9,20.8,10.5,33.6,10.9c10.4,0.4,18.6-2.8,28.1-6.6c10.5-4.1,22.5-8.8,39.6-9
			l-33.3-220.5c-0.1-0.4-7-42.2-21.1-63.4H914.3c-3.4,4.9-6.3,10-8.7,15.5c-4.4,9.9-10,26.2-11.5,48.2c0,0.1,0,0.2,0,0.2L857,881.5
			c4.7,3.1,22.3,14.3,38.6,14.3h0.8c10.6-0.2,23.7-5.6,35.2-10.4C941.7,881.1,950.4,877.5,956.7,877.5L956.7,877.5z"/>
		<pattern  id="SVGID_149_" xlink:href="#I" patternTransform="matrix(0.9365 0 0 -0.9365 -850.2518 -16263.0596)">
		</pattern>
		<path class="st158" d="M1025.6,595.4h-112c-1.1,0-2-0.7-2.3-1.8l-16.9-67.2v-0.1c-0.2-0.8-4.1-21-0.4-34.8
			c0.4-1.2,1.7-1.9,2.9-1.5c1.1,0.4,1.8,1.5,1.6,2.7c-3.3,12.4,0.3,31.5,0.5,32.7l16.4,65.4h108.2l12.1-65.3
			c1.5-6.5,4.2-24.6,0-32.1c-0.6-1.1-0.2-2.6,0.9-3.2c1.1-0.6,2.6-0.2,3.2,0.9c5.9,10.6,0.7,34.3,0.5,35.4l-12.5,67.2
			C1027.6,594.6,1026.7,595.4,1025.6,595.4z"/>
		<pattern  id="SVGID_150_" xlink:href="#I" patternTransform="matrix(0.9365 0 0 -0.9365 -850.2518 -16263.0596)">
		</pattern>
		<path class="st159" d="M970.4,420.2H965c-1.3,0-2.3-1-2.3-2.3c0-1.3,1-2.3,2.3-2.3h2.5l-2.2-10.3c-0.3-1.2,0.4-2.5,1.7-2.9
			s2.5,0.4,2.9,1.7c0,0.1,0,0.2,0.1,0.3l2.8,13.2c0.3,1.3-0.6,2.5-1.8,2.8C970.7,420.3,970.5,420.3,970.4,420.2L970.4,420.2z"/>
		<pattern  id="SVGID_151_" xlink:href="#I" patternTransform="matrix(0.9365 0 0 -0.9365 -850.2518 -16263.0596)">
		</pattern>
		<path class="st160" d="M966.3,433.6c-2.3,0-4.5-0.5-6.6-1.5c-1.2-0.6-1.6-2-1-3.2c0.6-1.2,2-1.6,3.2-1c2.8,1.3,6,1.2,8.7-0.1
			c1.2-0.5,2.6,0,3.1,1.2c0.5,1.1,0.1,2.4-0.9,3C970.8,433.1,968.6,433.6,966.3,433.6z"/>
		<pattern  id="SVGID_152_" xlink:href="#I" patternTransform="matrix(0.9365 0 0 -0.9365 -850.2518 -16263.0596)">
		</pattern>
		<path class="st161" d="M937.3,398.5c-1.3,0-2.3-1-2.3-2.3c0-0.9,0.5-1.7,1.2-2.1c0.4-0.2,10-5.2,17.1-1.1c1.1,0.6,1.5,2.1,0.9,3.2
			c-0.6,1.1-2.1,1.5-3.2,0.9c-4.8-2.7-12.5,1.1-12.5,1.2C938,398.4,937.6,398.5,937.3,398.5z"/>
		<pattern  id="SVGID_153_" xlink:href="#I" patternTransform="matrix(0.9365 0 0 -0.9365 -850.2518 -16263.0596)">
		</pattern>
		<path class="st162" d="M952.4,402.1c-0.7,1.4-2.4,2-3.8,1.3c-1.4-0.7-2-2.4-1.3-3.8c0.6-1.3,2.2-1.9,3.5-1.4
			C952.4,398.9,953,400.6,952.4,402.1z"/>
		<pattern  id="SVGID_154_" xlink:href="#I" patternTransform="matrix(0.9365 0 0 -0.9365 -850.2518 -16263.0596)">
		</pattern>
		<path class="st163" d="M994.4,398.5c-0.4,0-0.8-0.1-1.1-0.3l0,0c-2.1-1.1-8.5-3.5-12.5-1.2c-1.1,0.6-2.6,0.2-3.2-0.9
			c-0.6-1.1-0.2-2.6,0.9-3.2c7.1-4,16.7,0.9,17.1,1.1c1.1,0.6,1.6,2,1,3.2C996.1,398,995.3,398.5,994.4,398.5L994.4,398.5z"/>
		<pattern  id="SVGID_155_" xlink:href="#I" patternTransform="matrix(0.9365 0 0 -0.9365 -850.2518 -16263.0596)">
		</pattern>
		<path class="st164" d="M979.2,402.1c0.7,1.4,2.4,2,3.8,1.3c1.4-0.7,2-2.4,1.3-3.8c-0.6-1.3-2.2-1.9-3.5-1.4
			C979.3,398.9,978.6,400.6,979.2,402.1z"/>
		<pattern  id="SVGID_156_" xlink:href="#I" patternTransform="matrix(0.9365 0 0 -0.9365 -850.2518 -16263.0596)">
		</pattern>
		<path class="st165" d="M967,453.7c-27.4,0-46.6-47-47.4-49c0-0.1-0.1-0.2-0.1-0.3c-1.6-7-2.3-14.2-2-21.4c0.1-1.3,1.2-2.3,2.5-2.2
			s2.3,1.2,2.2,2.5c-0.2,6.7,0.4,13.3,1.9,19.9c1.2,3,19.5,45.9,43,45.9c24.6,0,34.1-47,34.6-49.5c0.1-1.3,1.1-13.2,0-19.3
			c-0.2-1.3,0.6-2.5,1.9-2.7c1.3-0.2,2.5,0.6,2.7,1.9c1.3,7.1,0.1,20.1,0,20.7v0.2C1005.8,402.5,996,453.7,967,453.7z"/>
		<pattern  id="SVGID_157_" xlink:href="#I" patternTransform="matrix(0.9365 0 0 -0.9365 -850.2518 -16263.0596)">
		</pattern>
		<path class="st166" d="M925.8,422.6c-5.5,0-13.8-2.3-18.1-11.1c-1.9-3.8-2-7.2-0.3-10.1c3.1-5.5,11.2-6.3,12.2-6.4
			c1.3-0.1,2.4,0.8,2.5,2.1s-0.8,2.4-2.1,2.5c-1.9,0.2-6.9,1.2-8.5,4.1c-0.8,1.4-0.6,3.4,0.5,5.7c4.8,10,15.5,8.3,15.9,8.3
			c1.3-0.2,2.5,0.6,2.7,1.9c0.2,1.3-0.6,2.5-1.9,2.7C927.7,422.5,926.8,422.6,925.8,422.6z"/>
		<pattern  id="SVGID_158_" xlink:href="#I" patternTransform="matrix(0.9365 0 0 -0.9365 -850.2518 -16263.0596)">
		</pattern>
		<path class="st167" d="M1002.4,422.6c-1,0-1.9-0.1-2.9-0.2c-1.3-0.2-2.1-1.5-1.9-2.7c0.2-1.2,1.4-2.1,2.7-1.9
			c0.5,0.1,11.2,1.7,15.9-8.3c1.1-2.4,1.3-4.3,0.5-5.7c-1.6-2.8-6.7-3.9-8.5-4.1c-1.3-0.1-2.2-1.3-2.1-2.6s1.3-2.2,2.6-2.1l0,0
			c0.9,0.1,9.1,0.9,12.2,6.4c1.6,2.9,1.5,6.2-0.3,10.1C1016.2,420.3,1007.9,422.6,1002.4,422.6L1002.4,422.6z"/>
		<pattern  id="SVGID_159_" xlink:href="#I" patternTransform="matrix(0.9365 0 0 -0.9365 -850.2518 -16263.0596)">
		</pattern>
		<path class="st168" d="M889.8,661.6c-11.1,0-19.2-2.9-24.1-8.5c-5.8-6.7-4.9-15-4.7-16.5v-44.3c0-0.1,0-0.1,0-0.2l2.4-29
			c0.5-15.8,2.5-31.6,6.2-47c7.9-32.8,22.3-54.3,41.7-62.3c0.2-0.1,0.3-0.1,0.5-0.1l28.7-4.5c1.3-0.2,2.5,0.6,2.7,1.9
			c0.2,1.3-0.6,2.5-1.9,2.7c0,0,0,0-0.1,0l-28.5,4.5c-43.4,18.3-44.7,104.1-44.7,105c0,0.1,0,0.1,0,0.2l-2.4,29v44.3
			c0,0.1,0,0.3,0,0.4c0,0.1-1.2,7.5,3.7,13c4.3,4.9,11.9,7,22.6,7h0.1c1.2-0.1,2.3,0.9,2.3,2.1c0,0,0,0,0,0c0,1.3-1,2.3-2.2,2.4
			c0,0,0,0,0,0C891.3,661.6,890.5,661.6,889.8,661.6z"/>
		<pattern  id="SVGID_160_" xlink:href="#I" patternTransform="matrix(0.9365 0 0 -0.9365 -850.2518 -16263.0596)">
		</pattern>
		<path class="st169" d="M877.5,725.1c-1.1,0-2.2-0.4-3.1-1.1c-1.9-1.4-4.5-4.8-6-17.8c-0.8-6.8-0.9-12.9-0.9-13.1
			c0-1.2,1-2.2,2.2-2.3c0,0,0.1,0,0.1,0l0,0c1.2-0.1,2.3,0.9,2.3,2.2c0,0,0,0,0,0c0.2,16.4,3,25.8,5,27.3c0.1,0.1,0.3,0.2,0.4,0.1
			c1.2-0.3,2.5,0.4,2.9,1.6c0.3,1.2-0.4,2.5-1.6,2.9c0,0,0,0,0,0C878.4,725.1,878,725.1,877.5,725.1z"/>
		<pattern  id="SVGID_161_" xlink:href="#I" patternTransform="matrix(0.9365 0 0 -0.9365 -850.2518 -16263.0596)">
		</pattern>
		<path class="st170" d="M887.2,689.9h-28.3c-1.1,0-2-0.7-2.3-1.8c-0.2-0.8-5-20.6,13.1-35.2c1-0.8,2.5-0.7,3.3,0.3
			c0.8,1,0.7,2.5-0.3,3.3c0,0,0,0-0.1,0.1c-13,10.5-12.5,23.9-11.8,28.7h26.4c1.3,0,2.3,1,2.3,2.3
			C889.6,688.9,888.5,689.9,887.2,689.9z"/>
		<pattern  id="SVGID_162_" xlink:href="#I" patternTransform="matrix(0.9365 0 0 -0.9365 -850.2518 -16263.0596)">
		</pattern>
		<path class="st171" d="M1051.2,661.6h-2.5c-1.2,0-2.2-1-2.2-2.2c0-1.2,1-2.2,2.2-2.2h0.1c11.1,0,18.8-2,22.8-6.8
			c4-4.8,2.9-11.2,2.9-11.2c0-0.2-0.1-0.4-0.1-0.6v-46.2l-2.7-29v-0.2c0-0.9-1.6-86.7-44.9-105l-28.5-4.5c-1.3-0.2-2.2-1.4-2-2.7
			c0.1-0.4,0.2-0.8,0.5-1.1c0.5-0.7,1.4-1,2.2-0.8l28.7,4.5c0.2,0,0.4,0.1,0.5,0.1c19.4,8,33.8,29.6,41.8,62.3
			c3.7,15.4,5.8,31.1,6.3,47l2.7,29c0,0.1,0,0.1,0,0.2v46c0.9,5.3-0.5,10.7-3.9,14.8C1070.7,658.7,1062.6,661.5,1051.2,661.6
			L1051.2,661.6z"/>
		<pattern  id="SVGID_163_" xlink:href="#I" patternTransform="matrix(0.9365 0 0 -0.9365 -850.2518 -16263.0596)">
		</pattern>
		<path class="st172" d="M1058.8,720.4c-0.6,0-1.3-0.1-1.9-0.4c-1.2-0.5-1.7-1.9-1.2-3.1c0.5-1.1,1.7-1.6,2.9-1.3
			c0.1,0,0.2,0.1,0.5-0.1c2.1-1.3,6-10.3,8-26.6c0.2-1.3,1.3-2.2,2.6-2.1s2.2,1.3,2.1,2.6l0,0c0,0.3-0.8,6.4-2.4,13
			c-3,12.8-5.9,15.8-7.9,17C1060.7,720.1,1059.7,720.4,1058.8,720.4z"/>
		<pattern  id="SVGID_164_" xlink:href="#I" patternTransform="matrix(0.9365 0 0 -0.9365 -850.2518 -16263.0596)">
		</pattern>
		<path class="st173" d="M1080.7,689.9h-28.6c-1.3,0-2.3-1-2.3-2.3c0-1.3,1-2.3,2.3-2.3h26.8c0.8-4.5,1.5-17.3-11.4-27.7
			c-1-0.8-1.2-2.3-0.4-3.3c0.8-1,2.3-1.2,3.3-0.4c0,0,0,0,0.1,0.1c18.2,14.6,12.8,33.6,12.6,34.4
			C1082.7,689.3,1081.7,689.9,1080.7,689.9z"/>
		<pattern  id="SVGID_165_" xlink:href="#I" patternTransform="matrix(0.9365 0 0 -0.9365 -850.2518 -16263.0596)">
		</pattern>
		<path class="st174" d="M997.7,550c-0.6,0-1.3,0-1.9-0.1c-3.7-0.3-7.2-1.5-10.3-3.4c-1.2-0.9-2.6-1.4-4.1-1.6c-0.1,0-0.3,0-0.4,0
			c-1.6,0-3.6,0.9-5.7,2c-3.2,1.5-6.8,3.3-11.2,3.1c-3.1-0.1-6.2-1.1-8.7-2.9c-1.6-1.2-3.6-2-5.6-2.1c-2.4-0.2-3.5,0.6-5.1,1.8
			c-2.3,2-5.2,3.2-8.3,3.3c-4.8,0.3-9.6-1.2-13.3-4.2c-0.5-0.4-0.7-1.1-0.7-1.7l-0.5-89.2c-6.3-4.6-39.5-29.6-40.6-50.1
			c-0.3-6.2,3.3-13.6,10.9-22c18.2-20.1,53.4-39.9,72.5-40.8h1.3c18.6,0,45.5,16.9,61.4,32.9c11,11,17,21.6,17,29.8
			c0,17.8-28.3,45.3-33.4,50.2v87.8c0,0.4-0.1,0.9-0.4,1.3C1007.5,547.8,1002.8,550.2,997.7,550L997.7,550z M981,540.1h0.9
			c2.2,0.3,4.2,1,6,2.3c2.5,1.6,5.4,2.6,8.4,2.8c0.5,0.1,1,0.1,1.4,0.1c3.2,0.1,6.3-1.2,8.4-3.7v-88c0-0.7,0.3-1.3,0.8-1.7
			c0.3-0.3,32.6-30.3,32.7-47.5c0-6.9-5.7-16.5-15.6-26.5c-17.6-17.7-43.1-31.5-58.1-31.5h-1.1c-17.8,0.8-52.1,20.3-69.3,39.3
			c-6.6,7.3-9.9,13.7-9.7,18.6c0.4,8.1,7.4,18.8,20,31c6.2,5.9,12.7,11.3,19.6,16.3c0.6,0.4,1,1.1,1,1.9l0.5,89.3
			c2.7,1.8,5.9,2.6,9.1,2.4c2.1-0.1,4.1-0.9,5.7-2.3c1.9-1.4,4-3.1,8.3-2.7c2.8,0.2,5.5,1.2,7.8,2.8c1.9,1.4,4.1,2.2,6.4,2.2
			c3.3,0.1,6.2-1.3,9-2.7C975.9,541.3,978.4,540.1,981,540.1L981,540.1z"/>
	</g>
	<path class="st5" d="M925.6,363.7l-19.9,141c0,0,6.7,6.2,18,5.6c11.3-0.6,11-8.7,21.3-7.9c10.3,0.8,11.1,7.5,22.3,7.9
		c11.2,0.4,19.5-8.7,27.3-7.9s9,6.6,22.5,7.9c13.4,1.4,19.5-8,19.5-8l-20.7-138.4"/>
	<g transform="translate(0 -233.35)">
		<pattern  id="SVGID_166_" xlink:href="#I" patternTransform="matrix(0.9365 0 0 -0.9365 -850.2518 -16263.0596)">
		</pattern>
		<path class="st175" d="M1019.7,746.1c-1,0-1.9-0.1-2.9-0.1c-5.5-0.4-10.9-2.2-15.6-5.2c-2.3-1.4-4.1-2.4-6.9-2.7
			s-6.3,1.3-10.3,3.2c-4.9,2.3-10.3,5-16.9,4.7c-6.6-0.3-9.9-2.5-13-4.4c-2.7-1.7-5-3.2-9.4-3.5c-4.4-0.3-6.2,1.1-8.8,3.1
			s-5.9,4.5-12.2,4.8c-12.2,0.6-19.4-6-19.7-6.2c-0.6-0.5-0.8-1.3-0.7-2l19.9-141c0.2-1.3,1.3-2.2,2.6-2c1.3,0.2,2.2,1.3,2,2.6
			c0,0,0,0.1,0,0.1L908.2,737c4.5,3.1,9.9,4.6,15.4,4.3c4.9-0.3,7.2-2,9.6-3.9c2.7-2.1,5.9-4.5,12-4c5.5,0.4,8.7,2.4,11.6,4.2
			c2.8,1.8,5.5,3.5,10.7,3.7c5.4,0.2,10.1-2.1,14.7-4.3c4.4-2.1,8.4-4.1,12.8-3.6c3.9,0.4,6.3,1.9,8.9,3.4c4.1,2.6,8.8,4.2,13.6,4.6
			c9.9,0.9,15.3-4.4,16.9-6.3l-20.6-137.5c-0.2-1.3,0.6-2.5,1.8-2.7c1.3-0.2,2.5,0.6,2.7,1.8c0,0.1,0,0.1,0,0.2l20.7,138.4
			c0.1,0.6,0,1.1-0.4,1.6C1038.3,737.3,1032.5,746.1,1019.7,746.1z"/>
		<pattern  id="SVGID_167_" xlink:href="#I" patternTransform="matrix(0.9365 0 0 -0.9365 -850.2518 -16263.0596)">
		</pattern>
		<path class="st176" d="M1019.7,737.7c-1,0-1.9-0.1-2.9-0.1c-5.5-0.4-10.9-2.2-15.6-5.2c-2.3-1.4-4.1-2.4-6.9-2.7
			c-2.8-0.3-6.3,1.3-10.3,3.2c-4.9,2.3-10.3,5-16.9,4.7c-6.6-0.3-9.9-2.5-13-4.4c-2.7-1.7-5-3.2-9.4-3.5s-6.2,1.1-8.8,3.1
			c-2.6,2-5.9,4.5-12.2,4.8c-12.2,0.6-19.4-6-19.7-6.2c-0.9-0.9-0.9-2.4,0-3.3c0.9-0.9,2.2-0.9,3.2-0.1l0,0c4.6,3.6,10.5,5.4,16.3,5
			c4.9-0.3,7.2-2,9.6-3.9c2.7-2.1,5.9-4.5,12-4c5.5,0.4,8.7,2.4,11.6,4.2s5.5,3.5,10.7,3.7c5.4,0.2,10.1-2.1,14.7-4.3
			c4.4-2.1,8.4-4.1,12.8-3.6c3.9,0.4,6.3,1.9,8.9,3.4c4.1,2.6,8.8,4.2,13.6,4.6c11.9,1.2,17.3-6.9,17.3-6.9c0.7-1.1,2.1-1.5,3.2-0.8
			c1.1,0.7,1.5,2.1,0.8,3.2c0,0.1-0.1,0.1-0.1,0.2C1038.3,728.9,1032.5,737.7,1019.7,737.7z"/>
	</g>
	<path class="st5" d="M963.1,223.3c0,0-25.7,11.7-27.8,34.9C935.3,258.2,967.6,253,963.1,223.3z"/>
	<pattern  id="SVGID_168_" xlink:href="#I" patternTransform="matrix(0.9365 0 0 -0.9365 -850.2518 -16263.0596)">
	</pattern>
	<path class="st177" d="M935.3,260.5c-1.3,0-2.3-1.1-2.3-2.4c0-0.1,0-0.1,0-0.2c0.9-10.1,6.3-19.7,15.5-27.7
		c4.1-3.6,8.7-6.7,13.7-9.1c0.7-0.3,1.4-0.3,2.1,0.1c0.6,0.3,1.1,1,1.2,1.7c4.8,31.7-29.4,37.5-29.7,37.5
		C935.6,260.5,935.5,260.5,935.3,260.5L935.3,260.5z M961.2,227c-6.1,3.5-19.9,13.1-23,28.1C945.4,253.1,962.2,246.4,961.2,227z"/>
	<path class="st5" d="M970.4,223.3c0,0,25.6,11.7,27.8,34.9C998.1,258.2,965.8,253,970.4,223.3z"/>
	<g transform="translate(0 -233.35)">
		<pattern  id="SVGID_169_" xlink:href="#I" patternTransform="matrix(0.9365 0 0 -0.9365 -850.2518 -16263.0596)">
		</pattern>
		<path class="st178" d="M998.1,494.2c-0.1,0-0.2-0.2-0.4-0.2c-0.3-0.1-34.6-6-29.7-37.6c0.1-0.7,0.6-1.4,1.2-1.8
			c0.6-0.4,1.4-0.4,2.1-0.1c4.9,2.4,9.5,5.5,13.7,9.1c9.1,7.9,14.4,17.4,15.5,27.4c0,0.2,0.1,0.5,0.1,0.7
			C1000.5,493,999.5,494.1,998.1,494.2L998.1,494.2z M972.3,460.3c-0.6,9.7,3.3,17.5,11.5,22.9c3.5,2.3,7.4,4,11.5,5.2
			C992.2,473.4,978.4,463.9,972.3,460.3L972.3,460.3z"/>
		<pattern  id="SVGID_170_" xlink:href="#I" patternTransform="matrix(0.9365 0 0 -0.9365 -850.2518 -16263.0596)">
		</pattern>
		<path class="st179" d="M883.5,398c0,0,35.1-77.7,80.1-80.6c45-2.9,78.5,83.7,78.5,83.7s-22.5-52.8-77.3-56.8
			C930.4,341.7,883.5,398,883.5,398L883.5,398z"/>
		<pattern  id="SVGID_171_" xlink:href="#I" patternTransform="matrix(0.9365 0 0 -0.9365 -850.2518 -16263.0596)">
		</pattern>
		<path class="st180" d="M911.7,379.9c0,0,41.8-31.6,54.3-29.2c12.5,2.4,18.7,6.9,18.7,6.9s-29.3,41.1-65.4,42.5
			c0,0-6.2,0.3-7.7-2.8C909.1,392.6,911,383.2,911.7,379.9L911.7,379.9z"/>
		<pattern  id="SVGID_172_" xlink:href="#I" patternTransform="matrix(0.9365 0 0 -0.9365 -850.2518 -16263.0596)">
		</pattern>
		<path class="st181" d="M985.6,358.1c0,0,1.2,33.1,18.6,36.3l8.7,1.8c0,0,0.1-14.9-1.5-17.4C1011.5,378.7,991.6,361.2,985.6,358.1
			L985.6,358.1z"/>
		<pattern  id="SVGID_173_" xlink:href="#I" patternTransform="matrix(0.9365 0 0 -0.9365 -850.2518 -16263.0596)">
		</pattern>
		<path class="st182" d="M921.4,420.2l2.7,33.3l31.6-5.1c0,0-23.1-23.4-25.8-28.2C930,420.2,924,421.5,921.4,420.2L921.4,420.2z"/>
		<pattern  id="SVGID_174_" xlink:href="#I" patternTransform="matrix(0.9365 0 0 -0.9365 -850.2518 -16263.0596)">
		</pattern>
		<path class="st183" d="M998.7,420.2c0,0-8.9,23.4-14.6,25.7l24.6,7.7l-0.7-33.4"/>
	</g>
	<path class="st5" d="M868.4,588.8l4.5-36.2l23.8,2.9l-4.5,36.2L868.4,588.8z"/>
	<path class="st112" d="M902.3,562.5l-6.5,0.7"/>
	<pattern  id="SVGID_175_" xlink:href="#I" patternTransform="matrix(0.9365 0 0 -0.9365 -850.2518 -16263.0596)">
	</pattern>
	<path class="st184" d="M895.8,565.5c-1.3,0.1-2.4-0.9-2.5-2.2c-0.1-1.3,0.9-2.4,2.2-2.5l6.5-0.7c1.3-0.1,2.5,0.8,2.6,2.1
		c0.1,1.3-0.8,2.5-2.1,2.6l-6.5,0.7H895.8z"/>
	<path class="st112" d="M900.1,585.9l-7.1-0.9"/>
	<pattern  id="SVGID_176_" xlink:href="#I" patternTransform="matrix(0.9365 0 0 -0.9365 -850.2518 -16263.0596)">
	</pattern>
	<path class="st185" d="M900.1,588.3h-0.3l-7.1-0.9c-1.3-0.2-2.2-1.3-2.1-2.6c0.2-1.3,1.3-2.2,2.6-2.1l7.1,0.9
		c1.3,0.1,2.3,1.2,2.2,2.5S901.4,588.3,900.1,588.3L900.1,588.3z"/>
	<path class="st112" d="M902.3,573.2l-7.7,0.6"/>
	<g transform="translate(0 -233.35)">
		<pattern  id="SVGID_177_" xlink:href="#I" patternTransform="matrix(0.9365 0 0 -0.9365 -850.2518 -16263.0596)">
		</pattern>
		<path class="st186" d="M894.5,809.4c-1.3,0-2.4-1-2.4-2.3c0-1.3,1-2.4,2.3-2.4l0,0l7.7-0.6c1.3-0.1,2.4,0.9,2.5,2.2
			c0.1,1.3-0.9,2.4-2.2,2.5l-7.7,0.6L894.5,809.4z"/>
		<pattern  id="SVGID_178_" xlink:href="#I" patternTransform="matrix(0.9365 0 0 -0.9365 -850.2518 -16263.0596)">
		</pattern>
		<path class="st187" d="M958.4,972.7v9.4h-91.5c0,0,6-22.9,24.3-26.7l12.6,17.3h43.9H958.4z"/>
		<pattern  id="SVGID_179_" xlink:href="#I" patternTransform="matrix(0.9365 0 0 -0.9365 -850.2518 -16263.0596)">
		</pattern>
		<path class="st188" d="M958.9,984h-92c-1.3,0-2.3-1-2.3-2.3c0-0.2,0-0.4,0.1-0.6c1.3-4.4,3.1-8.6,5.5-12.6
			c5.3-8.7,12.4-14.2,20.6-15.8c0.9-0.2,1.8,0.2,2.4,0.9l11.9,16.3h42.7l11.2,0.4c1.3,0,2.3,1.1,2.3,2.4v8.9
			C961.2,983,960.2,984,958.9,984z M870.2,979.3h86.4V975l-8.8-0.3h-43.8c-0.7,0-1.4-0.3-1.9-0.9l-11.7-16.1
			C878.3,960.9,872.3,973.5,870.2,979.3z"/>
	</g>
	<path class="st20" d="M958.7,695.2l0.2,44.2l-55-0.4l-12.6-17.1c0,0,21.5-3,21.7-26L958.7,695.2z"/>
	<g transform="translate(0 -233.35)">
		<pattern  id="SVGID_180_" xlink:href="#I" patternTransform="matrix(0.9365 0 0 -0.9365 -850.2518 -16263.0596)">
		</pattern>
		<path class="st189" d="M958.9,974.6L958.9,974.6l-55-0.2c-0.7,0-1.4-0.3-1.9-0.8l-12.6-17.1c-0.8-1-0.5-2.5,0.5-3.2
			c0.3-0.2,0.7-0.4,1.1-0.4c0.8-0.1,19.5-3,19.7-23.7c0-1.3,1-2.4,2.3-2.5l45.8-0.7c0.6,0.1,1.2,0.3,1.6,0.8
			c0.4,0.5,0.7,1.1,0.7,1.7l0.1,44C961.2,973.7,960.2,974.7,958.9,974.6C959,974.6,958.9,974.6,958.9,974.6L958.9,974.6z M905,969.9
			l51.5,0.4l-0.1-39.4l-41.2,0.5c-1.2,17-13.7,23.1-20,25.1L905,969.9z"/>
		<pattern  id="SVGID_181_" xlink:href="#I" patternTransform="matrix(0.9365 0 0 -0.9365 -850.2518 -16263.0596)">
		</pattern>
		<path class="st190" d="M976.2,972.7v9.4h92.9c0,0-6-22.9-24.3-26.7l-12.6,17.3h-43.9H976.2z"/>
		<pattern  id="SVGID_182_" xlink:href="#I" patternTransform="matrix(0.9365 0 0 -0.9365 -850.2518 -16263.0596)">
		</pattern>
		<path class="st191" d="M1069.1,984h-92.5c-1.3,0-2.3-1-2.3-2.3v-8.9c0-1.3,1-2.3,2.3-2.3l11.6-0.4h42.8l11.9-16.4
			c0.5-0.7,1.5-1.1,2.4-0.9c8.1,1.7,15.3,7.2,20.6,15.8c2.4,3.9,4.3,8.1,5.5,12.6c0.3,1.3-0.4,2.5-1.7,2.9
			C1069.5,984,1069.4,984,1069.1,984L1069.1,984z M979,979.3h86.9c-2.2-5.8-8.1-18.4-20.1-21.7l-11.7,16.1c-0.4,0.6-1.1,0.9-1.9,0.9
			h-44L979,975V979.3z"/>
	</g>
	<path class="st20" d="M977.3,695.2l-0.2,44.2l55-0.4l12.6-17.1c0,0-21.5-3-21.7-26L977.3,695.2z"/>
	<g transform="translate(0 -233.35)">
		<pattern  id="SVGID_183_" xlink:href="#I" patternTransform="matrix(0.9365 0 0 -0.9365 -850.2518 -16263.0596)">
		</pattern>
		<path class="st192" d="M977.1,974.6c-0.6,0.1-1.2-0.1-1.7-0.5c-0.4-0.4-0.7-1-0.7-1.6l0.2-44.1c0-1.3,1.1-2.3,2.3-2.3c0,0,0,0,0,0
			l45.8,0.6c1.3,0,2.3,1,2.3,2.3c0.2,20.7,18.9,23.6,19.7,23.7c1.3,0.2,2.2,1.3,2,2.6c-0.1,0.4-0.2,0.8-0.5,1.1l-12.6,17.1
			c-0.5,0.5-1.2,0.8-1.9,0.7L977.1,974.6z M979.6,930.9l-0.2,39.4l51.5-0.4l9.9-13.4c-6.3-2-18.8-8.1-20-25.1L979.6,930.9z"/>
		<pattern  id="SVGID_184_" xlink:href="#I" patternTransform="matrix(0.9365 0 0 -0.9365 -850.2518 -16263.0596)">
		</pattern>
		<path class="st193" d="M996.4,626.3c-1.2,0.1-2.3-0.9-2.3-2.2c0,0,0,0,0-0.1c-0.1-13.6-6.4-26.9-6.5-27c-0.6-1.1-0.1-2.5,1.1-3.1
			c0,0,0,0,0,0c1.2-0.6,2.6-0.1,3.1,1.1c0,0,0,0,0,0c0.3,0.6,6.8,14.3,7,28.9C998.7,625.2,997.7,626.2,996.4,626.3
			C996.4,626.2,996.4,626.2,996.4,626.3L996.4,626.3z"/>
		<pattern  id="SVGID_185_" xlink:href="#I" patternTransform="matrix(0.9365 0 0 -0.9365 -850.2518 -16263.0596)">
		</pattern>
		<path class="st194" d="M946.5,626.3L946.5,626.3c-1.2,0-2.3-0.9-2.3-2.2c0,0,0-0.1,0-0.1c0.1-14.7,6.7-28.4,7-29
			c0.6-1.2,2-1.6,3.2-1c1.1,0.6,1.6,1.9,1.1,3.1c-0.1,0.1-6.4,13.4-6.5,27c0,1.2-1,2.3-2.3,2.3C946.6,626.3,946.6,626.3,946.5,626.3
			z"/>
	</g>
</g>
</svg>
