<?xml version="1.0" encoding="utf-8"?>
<!-- Generator: Adobe Illustrator 24.1.0, SVG Export Plug-In . SVG Version: 6.00 Build 0)  -->
<svg version="1.1" id="Layer_1" xmlns:v="https://vecta.io/nano"
	 xmlns="http://www.w3.org/2000/svg" xmlns:xlink="http://www.w3.org/1999/xlink" x="0px" y="0px" viewBox="0 0 2560 699"
	 style="enable-background:new 0 0 2560 699;" xml:space="preserve">
<style type="text/css">
	.st0{fill:none;}
	.st1{fill:#C4C3BD;}
	.st2{fill:url(#A);}
	.st3{fill:#EAEFE8;}
	.st4{fill:#40403F;}
	.st5{fill:#FAFCFA;}
	.st6{fill:#DEE5DC;}
	.st7{fill:#C67042;}
</style>
<pattern  x="651.5" y="701.5" width="204.8" height="204.8" patternUnits="userSpaceOnUse" id="A" viewBox="0 -204.8 204.8 204.8" style="overflow:visible;">
	<g>
		<rect y="-204.8" class="st0" width="204.8" height="204.8"/>
		<g>
			<path class="st0" d="M0,0h204.8v-204.8H0V0z"/>
			<path class="st0" d="M0,0h204.8v-204.8H0V0z"/>
		</g>
		<path class="st1" d="M0,0h204.8v-204.8H0V0z"/>
	</g>
</pattern>
<path class="st2" d="M2560,701.5V248.2c0,0-846.3-88.7-2247.4,450.8L2560,701.5z"/>
<path class="st3" d="M1349.5,701.5c0,0-751.5-416.7-1349.5-353.4V699"/>
<g>
	<path class="st4" d="M122.1,404.7c0.4,0,0.8-0.1,1.1-0.3c3.7-1.9,4.5-4.8,5-7c0.5-2,0.7-2.8,2.2-3.4c1.3-0.5,1.7-0.3,3.2,0.8
		c1.6,1.2,4.4,3.2,8.5,1.1c3.6-1.8,4.5-4.6,5.1-6.6c0.5-1.8,0.8-2.8,2.8-3.6c2.1-0.9,3.3-0.4,5.1,0.4c1.9,0.8,4.5,2,7.8,0.4
		c3.5-1.6,4-4.7,4.4-6.7c0.4-2,0.6-2.7,2-3.2c1.4-0.5,2.1-0.1,3.7,0.9c1.9,1.2,4.7,3.1,9.2,0.8c4.2-2.1,4.5-5.4,4.6-7.6
		c0.1-1.9,0.2-2.5,1.8-3.2c2.1-0.9,3.3-0.4,5.1,0.3c2.2,0.8,4.9,1.9,8.9,0.3c5.5-2.1,6.3-6.4,6.7-8.7c0-0.3,0.1-0.5,0.1-0.8
		c0.8-0.7,1-1.9,0.6-2.9c-0.6-1.2-2.1-1.8-3.3-1.2c-1.7,0.8-2,2.6-2.3,4c-0.3,1.9-0.7,3.8-3.6,4.9c-2.3,0.9-3.5,0.4-5.3-0.3
		c-2.1-0.8-4.8-1.9-8.8-0.2c-4.5,1.9-4.8,5.2-4.9,7.4c-0.1,1.9-0.2,2.7-1.9,3.5c-1.9,0.9-2.6,0.5-4.2-0.6c-1.7-1.1-4.2-2.7-8-1.4
		c-4.3,1.5-4.9,4.8-5.3,7c-0.4,1.9-0.6,2.6-1.6,3.1c-1.2,0.6-2,0.3-3.6-0.5c-2.1-0.9-4.9-2.2-9-0.5c-4.2,1.8-5.1,4.7-5.7,6.8
		c-0.5,1.7-0.8,2.7-2.5,3.6c-1.4,0.7-1.9,0.4-3.3-0.7c-1.7-1.2-4.2-3.1-8.1-1.3c-3.8,1.7-4.6,4.6-5.1,6.8c-0.5,2-0.8,2.9-2.4,3.8
		c-1.2,0.6-1.7,2.1-1.1,3.4C120.3,404.2,121.2,404.7,122.1,404.7L122.1,404.7z M195.1,409.7c0.4,0,0.8-0.1,1.1-0.3
		c3.7-1.9,4.5-4.8,5-7c0.5-2,0.7-2.8,2.2-3.4c1.3-0.5,1.7-0.3,3.2,0.8c1.6,1.2,4.4,3.2,8.5,1.1c3.6-1.8,4.5-4.6,5.1-6.6
		c0.5-1.8,0.8-2.8,2.9-3.6c2.1-0.9,3.3-0.4,5.1,0.4c1.9,0.8,4.4,2,7.8,0.4c3.5-1.6,4.1-4.7,4.4-6.7c0.4-2,0.6-2.7,2-3.2
		c1.4-0.5,2.1-0.1,3.7,0.9c1.9,1.2,4.7,3.1,9.2,0.8c4.2-2.1,4.5-5.4,4.6-7.6c0.1-1.9,0.2-2.5,1.8-3.2c2.1-0.9,3.3-0.4,5.1,0.3
		c2.2,0.8,4.9,1.9,8.9,0.3c5.5-2.1,6.3-6.4,6.7-8.7c0-0.3,0.1-0.5,0.1-0.8c0.8-0.7,1-1.9,0.6-2.9c-0.6-1.2-2.1-1.8-3.3-1.2
		c-1.7,0.8-2,2.6-2.3,4c-0.3,1.9-0.7,3.8-3.6,4.9c-2.3,0.9-3.5,0.4-5.3-0.3c-2.2-0.8-4.8-1.9-8.8-0.2c-4.5,1.9-4.8,5.2-4.9,7.4
		c-0.1,1.9-0.2,2.7-1.9,3.5c-1.9,0.9-2.6,0.5-4.2-0.6c-1.7-1.1-4.2-2.7-8-1.4c-4.3,1.5-4.9,4.8-5.3,7c-0.4,1.9-0.6,2.6-1.6,3.1
		c-1.2,0.6-2,0.3-3.6-0.5c-2.1-0.9-4.9-2.2-9-0.5c-4.2,1.8-5.1,4.7-5.7,6.8c-0.5,1.7-0.8,2.7-2.5,3.6c-1.4,0.7-1.9,0.4-3.3-0.7
		c-1.7-1.2-4.2-3.1-8.1-1.3c-3.8,1.7-4.6,4.6-5.1,6.8c-0.5,2-0.8,2.9-2.4,3.8c-1.2,0.6-1.7,2.1-1.1,3.4
		C193.3,409.2,194.2,409.7,195.1,409.7L195.1,409.7z M269.1,424.7c0.4,0,0.8-0.1,1.1-0.3c3.7-1.9,4.5-4.8,5-7c0.5-2,0.7-2.8,2.2-3.4
		c1.3-0.5,1.7-0.3,3.2,0.8c1.6,1.2,4.4,3.2,8.5,1.1c3.6-1.8,4.5-4.6,5.1-6.6c0.5-1.8,0.8-2.8,2.9-3.6c2.1-0.9,3.3-0.4,5.1,0.4
		c1.9,0.8,4.5,2,7.8,0.4c3.5-1.6,4.1-4.7,4.4-6.7c0.4-2,0.6-2.7,2-3.2c1.4-0.5,2.1-0.1,3.7,0.9c1.9,1.2,4.7,3.1,9.2,0.8
		c4.2-2.1,4.5-5.4,4.6-7.6c0.1-1.9,0.2-2.5,1.8-3.2c2.1-0.9,3.3-0.4,5.1,0.3c2.2,0.8,4.8,1.9,8.9,0.3c5.5-2.1,6.3-6.4,6.7-8.7
		c0-0.3,0.1-0.5,0.1-0.8c0.8-0.7,1-1.9,0.5-2.9c-0.6-1.2-2.1-1.8-3.3-1.2c-1.7,0.8-2,2.6-2.3,4c-0.3,1.9-0.7,3.8-3.6,4.9
		c-2.3,0.9-3.5,0.4-5.3-0.3c-2.1-0.8-4.8-1.9-8.8-0.2c-4.5,1.9-4.8,5.2-4.9,7.4c-0.1,1.9-0.2,2.7-1.9,3.5c-1.9,0.9-2.6,0.5-4.2-0.6
		c-1.7-1.1-4.2-2.7-8-1.4c-4.3,1.5-4.9,4.8-5.3,7c-0.4,1.9-0.6,2.6-1.6,3.1c-1.2,0.6-2,0.3-3.6-0.5c-2.1-0.9-4.9-2.2-9-0.5
		c-4.2,1.8-5.1,4.7-5.7,6.8c-0.5,1.7-0.8,2.7-2.5,3.6c-1.4,0.7-1.9,0.4-3.3-0.7c-1.7-1.2-4.2-3.1-8.1-1.3c-3.8,1.7-4.6,4.6-5.1,6.8
		c-0.5,2-0.8,2.9-2.4,3.8c-1.2,0.6-1.7,2.1-1.1,3.4C267.3,424.2,268.2,424.7,269.1,424.7L269.1,424.7z M352.1,438.7
		c0.4,0,0.8-0.1,1.1-0.3c3.7-1.9,4.5-4.8,5-7c0.5-2,0.7-2.8,2.2-3.4c1.3-0.5,1.7-0.3,3.2,0.8c1.6,1.2,4.4,3.2,8.5,1.1
		c3.6-1.8,4.5-4.6,5.1-6.6c0.5-1.8,0.8-2.8,2.9-3.6c2.1-0.9,3.3-0.4,5.1,0.4c1.9,0.8,4.5,2,7.8,0.4c3.5-1.6,4-4.7,4.4-6.7
		c0.4-2,0.6-2.7,2-3.2c1.4-0.5,2.1-0.1,3.7,0.9c1.9,1.2,4.7,3.1,9.2,0.8c4.2-2.1,4.5-5.4,4.6-7.6c0.1-1.9,0.2-2.5,1.8-3.2
		c2.1-0.9,3.3-0.4,5.1,0.3c2.2,0.8,4.9,1.9,8.9,0.3c5.5-2.1,6.3-6.4,6.7-8.7c0-0.3,0.1-0.5,0.1-0.8c0.8-0.7,1-1.9,0.5-2.9
		c-0.6-1.2-2.1-1.8-3.3-1.2c-1.7,0.8-2,2.6-2.3,4c-0.3,1.9-0.7,3.8-3.6,4.9c-2.3,0.9-3.5,0.4-5.3-0.3c-2.1-0.8-4.8-1.9-8.8-0.2
		c-4.5,1.9-4.8,5.2-4.9,7.4c-0.1,1.9-0.2,2.7-1.9,3.5c-1.9,0.9-2.6,0.5-4.2-0.6c-1.7-1.1-4.2-2.7-8-1.4c-4.3,1.5-4.9,4.8-5.3,7
		c-0.4,1.9-0.6,2.6-1.6,3.1c-1.2,0.6-2,0.3-3.6-0.5c-2.1-0.9-4.9-2.2-9-0.5c-4.2,1.8-5.1,4.7-5.7,6.8c-0.5,1.7-0.8,2.7-2.5,3.6
		c-1.4,0.7-1.9,0.4-3.3-0.7c-1.7-1.2-4.2-3.1-8.1-1.3c-3.8,1.7-4.6,4.6-5.1,6.8c-0.5,2-0.8,2.9-2.4,3.8c-1.2,0.6-1.7,2.1-1.1,3.4
		C350.3,438.2,351.2,438.7,352.1,438.7L352.1,438.7z"/>
	<path class="st4" d="M476.1,487.7c0.4,0,0.8-0.1,1.1-0.3c3.7-1.9,4.5-4.8,5-7c0.5-2,0.7-2.8,2.2-3.4c1.3-0.5,1.7-0.3,3.2,0.8
		c1.6,1.2,4.4,3.2,8.5,1.1c3.6-1.8,4.5-4.6,5.1-6.6c0.5-1.8,0.8-2.8,2.9-3.6c2.1-0.9,3.3-0.4,5.1,0.4c1.9,0.8,4.4,2,7.8,0.4
		c3.5-1.6,4.1-4.7,4.4-6.7c0.4-2,0.6-2.7,2-3.2c1.4-0.5,2.1-0.1,3.7,0.9c1.9,1.2,4.7,3.1,9.2,0.8c4.2-2.1,4.5-5.4,4.6-7.6
		c0.1-1.9,0.2-2.5,1.8-3.2c2.1-0.9,3.3-0.4,5.1,0.3c2.2,0.8,4.9,1.9,8.9,0.3c5.5-2.1,6.3-6.4,6.7-8.7c0-0.3,0.1-0.5,0.1-0.8
		c0.8-0.7,1-1.9,0.6-2.9c-0.6-1.2-2.1-1.8-3.3-1.2c-1.7,0.8-2,2.6-2.3,4c-0.3,1.9-0.7,3.8-3.6,4.9c-2.3,0.9-3.5,0.4-5.3-0.3
		c-2.1-0.8-4.8-1.9-8.8-0.2c-4.5,1.9-4.8,5.2-4.9,7.4c-0.1,1.9-0.2,2.7-1.9,3.5c-1.9,0.9-2.6,0.5-4.2-0.6c-1.7-1.1-4.2-2.7-8-1.4
		c-4.3,1.5-4.9,4.8-5.3,7c-0.4,1.9-0.6,2.6-1.6,3.1c-1.2,0.6-2,0.3-3.6-0.5c-2.1-0.9-4.9-2.2-9-0.5c-4.2,1.8-5.1,4.7-5.7,6.8
		c-0.5,1.7-0.8,2.7-2.5,3.6c-1.4,0.7-1.9,0.4-3.3-0.7c-1.7-1.2-4.2-3.1-8.1-1.3c-3.8,1.7-4.6,4.6-5.1,6.8c-0.5,2-0.8,2.9-2.4,3.8
		c-1.2,0.6-1.7,2.1-1.1,3.4C474.3,487.2,475.2,487.7,476.1,487.7L476.1,487.7z M465.9,237c0,0-27,78.3-7.2,156.2l-19.8,18.3
		c0,0-28.7-75.4,0-166.9L465.9,237L465.9,237z"/>
</g>
<path class="st4" d="M438.3,413.9c-0.8-0.2-1.5-0.8-1.8-1.5c-0.3-0.8-7.3-19.5-10.9-49.7c-3.3-27.9-4.1-71.1,10.9-118.9
	c0.2-0.8,0.9-1.4,1.7-1.7l27-7.5c0.9-0.2,1.9,0,2.5,0.7c0.6,0.7,0.8,1.7,0.5,2.5c-0.3,0.8-26.6,78.4-7.2,154.8
	c0.2,0.9,0,1.8-0.7,2.5l-19.8,18.3c-0.5,0.4-1.1,0.7-1.7,0.7C438.6,414,438.4,413.9,438.3,413.9L438.3,413.9z M462.1,240.6
	l-21.3,5.9c-24,78-5.9,144.6-0.9,160.5l15.9-14.7C439.4,325.6,456.8,258.3,462.1,240.6L462.1,240.6z"/>
<path class="st3" d="M569.5,263.8l-91.3-32.7l-29.3,8l93.4,39.6L569.5,263.8z"/>
<path class="st4" d="M541.2,281.1l-93.4-39.6c-1-0.4-1.6-1.4-1.5-2.5c0.1-1.1,0.8-2,1.8-2.2l29.3-8c0.5-0.1,1-0.1,1.5,0.1l91.3,32.7
	c0.9,0.3,1.6,1.2,1.7,2.2c0.1,1-0.4,1.9-1.3,2.4L543.4,281c-0.4,0.2-0.8,0.3-1.2,0.3C541.9,281.3,541.5,281.2,541.2,281.1
	L541.2,281.1z M478.1,233.8l-21.6,5.9l85.6,36.3l21.3-11.7L478.1,233.8L478.1,233.8z"/>
<path class="st3" d="M544.8,213.9l-137.3,47.3c0,0-21.3,3.3-14.7-14l136.7-46.7C529.5,200.5,550.2,204,544.8,213.9z"/>
<path class="st4" d="M390.7,258.9c-2.1-3.1-2.2-7.4-0.2-12.6c0.3-0.7,0.8-1.2,1.5-1.5l136.7-46.7c0.4-0.1,0.8-0.2,1.2-0.1
	c1.4,0.2,14.2,2.6,17.5,9.3c0.8,1.7,1.4,4.4-0.4,7.8c-0.3,0.6-0.8,1-1.4,1.2l-137.3,47.3c-0.1,0-0.3,0.1-0.4,0.1
	c-0.1,0-1.9,0.3-4.3,0.3l0,0C397.5,263.9,393,262.2,390.7,258.9L390.7,258.9z M543,211.9c0.4-1.1,0.2-1.9-0.1-2.4
	c-1.6-3.2-8.7-5.6-13.2-6.5l-134.9,46.1c-1,3.1-1,5.4,0,6.9c1.7,2.5,6.2,2.9,8.8,2.9c1.6,0,2.8-0.1,3.3-0.2L543,211.9L543,211.9z"/>
<path class="st5" d="M511,368l-126.2,61l10.7,26.2L519.3,394L511,368z"/>
<path class="st4" d="M394.6,457.6c-0.6-0.2-1.2-0.8-1.4-1.4L382.4,430c-0.5-1.2,0-2.6,1.2-3.2l126.2-61c0.6-0.3,1.4-0.3,2.1,0
	c0.7,0.3,1.2,0.9,1.4,1.5l8.3,26c0.4,1.2-0.2,2.5-1.3,3l-123.8,61.3c-0.4,0.2-0.7,0.3-1.1,0.3C395.2,457.8,394.9,457.7,394.6,457.6
	L394.6,457.6z M509.5,371.5L388,430.3l8.8,21.6l119.5-59.2L509.5,371.5z"/>
<g>
	<path id="B" class="st5" d="M395.1,454.2c0,0,17.6,30,24.9,24.8c7.3-5.2-8.7-32.8-8.7-32.8L395.1,454.2L395.1,454.2z"/>
</g>
<path class="st4" d="M393,455.5c-0.4-0.6-0.4-1.3-0.2-2c0.2-0.7,0.7-1.2,1.3-1.5l16.3-8c1.2-0.6,2.6-0.1,3.3,1c4,6.9,16.5,30,8,36.1
	c-1,0.7-2.2,1.1-3.4,1.1C409.1,482.1,395.6,459.9,393,455.5L393,455.5z M398.7,455.2c6.7,10.9,15.6,21.8,19.5,21.8
	c0.2,0,0.4-0.1,0.5-0.1c3-2.2-1.8-15.8-8.2-27.5L398.7,455.2L398.7,455.2z"/>
<g>
	<path id="B_1_" class="st5" d="M412.5,445.8c0,0,17.6,30,24.9,24.8c7.3-5.2-8.7-32.8-8.7-32.8L412.5,445.8L412.5,445.8z"/>
</g>
<g>
	<path id="C" class="st4" d="M410.3,447.1c-0.4-0.6-0.4-1.3-0.2-2c0.2-0.7,0.7-1.2,1.3-1.5l16.3-8c1.2-0.6,2.6-0.1,3.3,1
		c4,6.9,16.5,30,8,36.1c-1,0.7-2.2,1.1-3.4,1.1C426.4,473.7,412.9,451.5,410.3,447.1L410.3,447.1z M416,446.8
		c6.7,10.9,15.6,21.8,19.5,21.8c0.2,0,0.4-0.1,0.5-0.1c3-2.2-1.8-15.8-8.2-27.5L416,446.8L416,446.8z"/>
</g>
<path class="st5" d="M431.1,436.6c0,0,17.6,30,24.9,24.8s-8.7-32.8-8.7-32.8L431.1,436.6L431.1,436.6z"/>
<path class="st4" d="M428.9,437.9c-0.4-0.6-0.4-1.3-0.2-2c0.2-0.7,0.7-1.2,1.3-1.5l16.3-8c1.2-0.6,2.6-0.1,3.3,1
	c4,6.9,16.5,30,8,36.1c-1,0.7-2.2,1.1-3.4,1.1C445,464.5,431.5,442.3,428.9,437.9L428.9,437.9z M434.6,437.6
	c6.7,10.9,15.6,21.8,19.5,21.8c0.2,0,0.4-0.1,0.5-0.1c3-2.2-1.8-15.8-8.2-27.5L434.6,437.6L434.6,437.6z"/>
<g>
	<path id="B_2_" class="st5" d="M448.4,428.2c0,0,17.6,30,24.9,24.8c7.3-5.2-8.7-32.8-8.7-32.8L448.4,428.2L448.4,428.2z"/>
</g>
<path class="st4" d="M446.3,429.5c-0.4-0.6-0.4-1.3-0.2-2c0.2-0.7,0.7-1.2,1.3-1.5l16.3-8c1.2-0.6,2.6-0.1,3.3,1
	c4,6.9,16.5,30,8,36.1c-1,0.7-2.2,1.1-3.4,1.1C462.4,456.1,448.9,433.9,446.3,429.5L446.3,429.5z M452,429.2
	c6.7,10.9,15.6,21.8,19.5,21.8c0.2,0,0.4-0.1,0.5-0.1c3-2.2-1.8-15.8-8.2-27.5L452,429.2L452,429.2z"/>
<g>
	<path id="B_3_" class="st5" d="M465.8,419.8c0,0,17.6,30,24.9,24.8c7.3-5.2-8.7-32.8-8.7-32.8L465.8,419.8L465.8,419.8z"/>
</g>
<g>
	<path id="C_1_" class="st4" d="M463.7,421.1c-0.4-0.6-0.4-1.3-0.2-2c0.2-0.7,0.7-1.2,1.3-1.5l16.3-8c1.2-0.6,2.6-0.1,3.3,1
		c4,6.9,16.5,30,8,36.1c-1,0.7-2.2,1.1-3.4,1.1C479.8,447.7,466.3,425.6,463.7,421.1L463.7,421.1z M469.4,420.9
		c6.7,10.9,15.6,21.8,19.5,21.8c0.2,0,0.4-0.1,0.5-0.1c3-2.2-1.8-15.8-8.2-27.5L469.4,420.9L469.4,420.9z"/>
</g>
<g>
	<path id="B_4_" class="st5" d="M484.4,410.6c0,0,17.6,30,24.9,24.8c7.3-5.2-8.7-32.8-8.7-32.8L484.4,410.6L484.4,410.6z"/>
</g>
<path class="st4" d="M482.2,411.9c-0.4-0.6-0.4-1.3-0.2-2c0.2-0.7,0.7-1.2,1.3-1.5l16.3-8c1.2-0.6,2.6-0.1,3.3,1
	c4,6.9,16.5,30,8,36.1c-1,0.7-2.2,1.1-3.4,1.1C498.4,438.5,484.9,416.4,482.2,411.9L482.2,411.9z M487.9,411.7
	c6.7,10.9,15.6,21.8,19.5,21.8c0.2,0,0.4-0.1,0.5-0.1c3-2.2-1.8-15.8-8.2-27.5L487.9,411.7L487.9,411.7z"/>
<path class="st5" d="M501.8,402.2c0,0,17.6,30,24.9,24.8s-8.7-32.8-8.7-32.8L501.8,402.2L501.8,402.2z"/>
<path class="st4" d="M499.6,403.5c-0.4-0.6-0.4-1.3-0.2-2c0.2-0.7,0.7-1.2,1.3-1.5l16.3-8c1.2-0.6,2.6-0.1,3.3,1
	c4,6.9,16.5,30,8,36.1c-1,0.7-2.2,1.1-3.4,1.1C515.7,430.1,502.2,408,499.6,403.5L499.6,403.5z M505.3,403.3
	c6.7,10.9,15.6,21.8,19.5,21.8c0.2,0,0.4-0.1,0.5-0.1c3-2.2-1.8-15.8-8.2-27.5L505.3,403.3L505.3,403.3z"/>
<path class="st5" d="M863.2,463.6l-34.9,24.3l26.4,66.6c0,0,2.9,11.8-1.6,18.2c-4.5,6.4-21.1,25.7-21.1,25.7l-18.9-20l12.2-23.7
	l-39.9-85.2c0,0,2.6-19.1,10.2-33.6c7.6-14.5,14.5-37.8,14.5-37.8L863.2,463.6L863.2,463.6z"/>
<path class="st4" d="M830.1,599.9l-18.9-19.8c-0.7-0.8-0.9-1.9-0.4-2.9l11.7-22.6l-39.3-84.2c-0.2-0.4-0.3-0.9-0.2-1.4
	c0.1-0.8,2.7-19.7,10.4-34.5c7.4-14.1,14.3-37.1,14.3-37.3c0.3-0.9,1-1.6,1.9-1.7c0.9-0.2,1.8,0.2,2.4,0.9l53.1,65.5
	c0.4,0.5,0.6,1.2,0.5,1.9c-0.1,0.7-0.5,1.3-1,1.7l-33.3,23.1l25.7,64.8c0,0.1,0.1,0.2,0.1,0.3c0.1,0.5,3.1,13-2,20.2
	c-4.5,6.4-20.6,25-21.3,25.8c-0.5,0.5-1.1,0.7-1.8,0.7h-0.1C831.3,600.5,830.6,600.4,830.1,599.9L830.1,599.9z M826,488.8
	c-0.4-1.1-0.1-2.3,0.9-3l32.7-22.8l-48.5-59.8c-2.4,7.5-7.6,22.9-13.3,33.7c-6.5,12.4-9.2,28.5-9.8,32.1l39.5,84.6
	c0.3,0.7,0.3,1.5,0,2.2l-11.4,22.1l15.8,16.7c4.4-5.2,15.7-18.4,19.2-23.4c3.1-4.3,2-12.8,1.3-16L826,488.8L826,488.8z"/>
<path class="st6" d="M1104.2,468.1l7.8,82.5c0,0-1,16-6,21.5l13.4,67.5l-27.5,0.6c0,0-10.1-25.4-13.2-43.5c0,0-15-40.7-39-58.5
	C1015.8,520.3,1104.2,468.1,1104.2,468.1L1104.2,468.1z"/>
<path class="st4" d="M1089.7,641c-0.4-1-10.1-25.6-13.3-43.7c-1.2-3.1-15.8-40.6-38-57.2c-3.6-2.7-5.3-6.2-5.1-10.4
	c0.5-9.9,12.5-23.7,35.7-41c16.9-12.6,33.9-22.7,34.1-22.8c0.7-0.4,1.6-0.5,2.4-0.1c0.8,0.4,1.3,1.1,1.3,2l7.8,82.5
	c0,0.1,0,0.3,0,0.4c-0.1,1.6-1.1,15.5-5.8,22l13.2,66.3c0.1,0.7,0,1.5-0.5,2c-0.5,0.6-1.2,0.9-1.9,0.9l-27.6,0.5
	C1090.9,642.5,1090,641.9,1089.7,641L1089.7,641z M1103.7,572.5c-0.1-0.8,0.1-1.6,0.6-2.2c3.6-3.9,5-15.4,5.3-19.8l-7.4-78.3
	c-20.3,12.4-63.1,41.7-63.9,57.7c-0.1,2.5,0.8,4.5,3.1,6.1c10.2,7.6,20,20,29.2,36.7c6.8,12.4,10.5,22.5,10.6,22.9
	c0.1,0.1,0.1,0.3,0.1,0.4c2.6,15,10.2,35.6,12.5,41.4l22.8-0.5L1103.7,572.5L1103.7,572.5z"/>
<path class="st5" d="M1128.2,419.8c0,0-7.5,12.5-10.8,27.4c-3.4,15-9.3,51.5-22.9,57.2c-13.6,5.7-9.7,31.5-24.5,38
	c-14.9,6.5-37.3-6.5-51.3-6.8c-14.1-0.3-71.3-6-87-10.2s-84.2-25.6-109.5-63.9s-56.7-65-56.7-65s-92.9-35.4-86.8-86.7
	s29.5-87.1,100.5-85.8s99.5,33.9,131.6,33.5s128.4-17.1,161.8,35.9S1128.2,419.8,1128.2,419.8z"/>
<path class="st4" d="M1036.3,541.8c-6.6-1.9-12.8-3.7-17.8-3.8c-15-0.3-71.8-6-87.6-10.2c-3.4-0.9-82.8-22.4-110.9-64.9
	c-23.5-35.5-52.6-61.3-55.9-64.2c-3.3-1.3-25-10.1-45.8-24.2c-30.2-20.5-44.8-43-42.2-64.9c3.4-28.4,11.8-49.1,25.8-63.3
	c16.4-16.7,40.4-24.8,73.4-24.8l3.8,0c42.3,0.8,69.6,12.5,91.6,22c15,6.5,26.9,11.6,39.3,11.6h0.6c4.8-0.1,11.2-0.5,18.6-1
	c11.5-0.8,25.8-1.8,40.8-1.8c53.4,0,87.7,13,104.6,39.9c33.2,52.6,55.8,126.1,56,126.9c0.2,0.7,0.1,1.4-0.2,2
	c-0.1,0.1-7.3,12.3-10.6,26.7l-1.4,6.3c-3.9,18.8-9.9,47.1-23,52.6c-5.6,2.4-7.8,9.3-10.2,16.6c-2.7,8.2-5.7,17.5-14.3,21.2
	c-3.1,1.3-6.6,1.9-10.6,1.9l0,0C1052.5,546.5,1044.2,544.2,1036.3,541.8L1036.3,541.8z M1070.4,294.8
	c-15.9-25.3-48.8-37.5-100.3-37.5c-14.8,0-29,1-40.4,1.8c-7.5,0.5-13.9,1-18.9,1h-0.6c-13.5,0-26.4-5.5-41.3-12
	c-21.6-9.3-48.4-20.8-89.7-21.6l-3.7,0c-31.6,0-54.4,7.6-69.8,23.3c-13.2,13.4-21.2,33.1-24.4,60.4c-5.9,48.8,84.3,83.7,85.2,84.1
	c0.3,0.1,0.5,0.2,0.7,0.4c0.3,0.3,32,27.4,57.2,65.5c27.1,41,104.7,62,108,62.9c15.1,4,72,9.8,86.4,10c5.6,0.1,12.1,2,19.1,4
	c7.7,2.2,15.6,4.5,22.6,4.5l0,0c3.3,0,6.2-0.4,8.6-1.5c6.6-2.8,9-10.2,11.5-18.1c2.6-8.1,5.3-16.5,13-19.7
	c10.7-4.5,16.8-33.5,20.1-49l1.4-6.4c2.9-12.9,8.7-23.9,10.6-27.2C1122.7,410.4,1101.1,343.6,1070.4,294.8L1070.4,294.8z"/>
<path class="st5" d="M1029.2,475.5l-38.8,20.8l7.2,67.8c0,0,4.2,26.3-11.6,36.7S943,638.2,943,638.2l-30.8-3.5
	c0,0,28.9-35.7,43.4-49.2c0,0,7-15.4,2.1-20.8s-33.5-56.9-33.5-56.9s-7.5-13.6-1.6-23.1l42.3-67.5"/>
<path class="st4" d="M943,640.7c0.7,0,1.3-0.3,1.8-0.7c0.3-0.3,27.3-27.1,42.7-37.2c7.1-4.7,11.5-13,12.8-24
	c0.9-7.8,0-14.3-0.1-15.1l-7-66.1l37.3-20c1.2-0.6,1.7-2.2,1-3.4c-0.7-1.2-2.2-1.7-3.4-1l-38.8,20.9c-0.8,0.5-1.3,1.4-1.2,2.4
	l7.2,67.8c0,0,0,0.1,0,0.1c0,0.2,3.8,24.8-10.5,34.2c-14.4,9.5-37.8,32.2-42.6,37l-25.1-2.8c7.7-9.3,28.7-34.7,40.3-45.3
	c0.2-0.2,0.4-0.5,0.6-0.8c0.8-1.7,7.5-17.1,1.7-23.5c-3.9-4.3-25.3-42.2-33.2-56.5c-0.1-0.1-6.7-12.5-1.6-20.6l42.3-67.5
	c0.7-1.2,0.4-2.7-0.8-3.5c-1.2-0.7-2.7-0.4-3.5,0.8l-42.3,67.5c-6.6,10.6,1.2,25,1.5,25.7c3,5.3,28.9,51.9,33.9,57.4
	c2.6,2.8,0.2,11.8-2.3,17.6c-14.6,13.7-42.1,47.6-43.3,49.1c-0.6,0.7-0.7,1.7-0.4,2.5c0.4,0.8,1.1,1.4,2,1.5l30.8,3.5
	C942.8,640.8,942.9,640.8,943,640.7L943,640.7z"/>
<path class="st6" d="M811.2,419.5c0,0,1,48.1-25,76.8c-25.9,28.7-28,36.9-28,36.9l23.9,77.1l-15.6,24.9l-26.6-0.3l10.5-28.9
	c0,0-2.2-11.2-5.5-19.6s-37-73.8-37-73.8s-11.3-16.8-2.1-27.5s15.8-20.6,15.8-20.6s6.2-15.8-5.9-33.6c0,0-36.1-76.5-37.2-110.7"/>
<path class="st4" d="M766.5,637.5c0.9,0,1.7-0.3,2.1-1.1l15.6-24.9c0.4-0.6,0.5-1.3,0.3-2l-23.6-76.3c1-2.2,5.8-11.6,27.2-35.3
	c26.3-29.1,25.6-76.5,25.6-78.5c0-1.4-1.2-2.4-2.5-2.5c-1.4,0-2.5,1.2-2.5,2.5c0,0.5,0.6,47.4-24.3,75c-25.6,28.3-28.3,37-28.5,37.9
	c-0.1,0.4-0.1,0.9,0,1.3l23.5,76l-14.3,22.8l-21.7-0.3l9.3-25.6c0.2-0.4,0.2-0.9,0.1-1.3c-0.1-0.5-2.3-11.5-5.6-20.1
	c-3.3-8.5-35.7-71.4-37.1-74.1c0-0.1-0.1-0.2-0.2-0.2c-0.1-0.2-10.1-15.4-2.3-24.5c9.2-10.7,15.9-20.7,16-20.8
	c0.1-0.1,0.2-0.3,0.2-0.5c0.3-0.7,6.5-17.2-6-35.8c-1.9-4-35.8-77-36.9-109.5c0-1.4-1.2-2.5-2.6-2.4c-1.4,0-2.5,1.2-2.4,2.6
	c0.5,14.5,6.9,37.7,19.2,69c9.1,23.2,18.2,42.5,18.2,42.7c0,0.1,0.1,0.2,0.2,0.3c10.5,15.5,6.4,29.1,5.7,31.1
	c-1.1,1.6-7.3,10.5-15.5,20.1c-10,11.6,0.6,28.6,1.8,30.4l36.8,73.5c2.7,7,4.7,16,5.2,18.5l-10.3,28.2c-0.3,0.8-0.2,1.6,0.3,2.3
	c0.5,0.7,1.2,1,2,1L766.5,637.5L766.5,637.5z M548.8,286.2c0,0-14,0.6-27.4,16.9c-13.5,16.3-28.8,21.5-34.3,16.7
	c0,0,0.5-10.9-6-11.7s-11.5-5.4-11.5-5.4s-1.8,23.2,11.6,23.7l3.3,0.6c0,0,15,4.7,28.6-6.7c13.6-11.3,25-15.3,25-15.3
	S546.2,288.2,548.8,286.2L548.8,286.2z"/>
<path class="st6" d="M690.2,507.2l-36.7,21.6l21.3,68.4c0,0,2,12-3,18s-23,24-23,24l-17.3-21.3l14-22.7l-33.3-88
	c0,0,4-18.9,12.7-32.8s17.3-36.6,17.3-36.6L690.2,507.2L690.2,507.2z"/>
<path class="st4" d="M648.7,641.7c-0.7,0-1.4-0.4-1.8-0.9l-17.3-21.3c-0.7-0.8-0.7-2-0.2-2.9l13.3-21.6L609.8,508
	c-0.2-0.5-0.2-0.9-0.1-1.4c0.2-0.8,4.2-19.5,13-33.6c8.4-13.5,17-35.9,17.1-36.1c0.3-0.9,1.1-1.5,2-1.6c0.9-0.1,1.8,0.3,2.4,1.1
	l48,69.3c0.4,0.6,0.5,1.3,0.4,2c-0.2,0.7-0.6,1.3-1.2,1.6l-35,20.6l20.7,66.5c0,0.1,0.1,0.2,0.1,0.3c0.1,0.5,2.1,13.2-3.5,20
	c-5,6-22.4,23.4-23.2,24.2c-0.5,0.5-1.1,0.7-1.8,0.7C648.8,641.6,648.8,641.6,648.7,641.7L648.7,641.7z M651.1,529.5
	c-0.3-1.1,0.1-2.3,1.1-2.9l34.3-20.2l-43.8-63.3c-3,7.3-9.3,22.2-15.8,32.6c-7.4,11.9-11.4,27.8-12.2,31.3l33.1,87.3
	c0.3,0.7,0.2,1.5-0.2,2.2l-13.1,21.2l14.5,17.8c4.8-4.8,17-17.2,20.9-21.9c3.4-4.1,3-12.7,2.5-15.8L651.1,529.5z"/>
<path class="st5" d="M941,528.8l-22.7,79.7c0,0-6.7,14.8-13.4,18.1l-12,62h-26.3c0,0,0.3-31.1,4-49.1c0,0,0.8-43.5-15-68.8
	S941,528.8,941,528.8L941,528.8z"/>
<path class="st4" d="M864.7,689.8c-0.5-0.5-0.7-1.1-0.7-1.8c0-1.3,0.4-31,4-49.1c0-3.3,0-43.6-14.6-67.1c-2.3-3.8-2.7-7.8-1-11.5
	c4.1-9,20.3-17.5,48.2-25.2c20.3-5.6,39.8-8.8,40-8.8c0.8-0.1,1.7,0.2,2.3,0.8c0.6,0.6,0.8,1.5,0.5,2.3l-22.7,79.7
	c0,0.1-0.1,0.2-0.1,0.4c-0.7,1.5-6.6,14-13.4,18.4l-11.8,60.6c-0.2,1.2-1.3,2-2.5,2h-26.3C865.8,690.5,865.2,690.2,864.7,689.8
	L864.7,689.8z M902.4,625.8c0.2-0.8,0.6-1.4,1.3-1.8c4.8-2.4,10.3-12.5,12.2-16.5l21.6-75.7c-23.4,4.2-73.9,15.9-80.5,30.5
	c-1,2.3-0.8,4.5,0.7,6.8c6.8,10.8,11.4,25.9,13.8,44.8c1.8,14,1.6,24.8,1.6,25.2c0,0.2,0,0.3,0,0.5c-3,14.6-3.7,38.1-3.9,45.8h21.7
	L902.4,625.8L902.4,625.8z"/>
<path class="st5" d="M964.9,468c0,0-8.4,11.9-12.9,26.5s-13.2,50.7-27.2,55.3c-14,4.7-12,30.7-27.3,36s-36.7-9.3-50.7-10.7
	c-14-1.3-70.7-11.3-86-16.7c-15.3-5.3-82-31.9-104.3-72c-22.3-40-51.7-69-51.7-69s-90-42.3-80-93s36-84.7,106.7-78
	s96.7,41.3,128.7,43.3s129.3-7.3,158.7,48C948.2,393.2,964.9,468,964.9,468L964.9,468z"/>
<path class="st4" d="M864,582.8c-6.4-2.4-12.5-4.7-17.4-5.2c-14.9-1.4-71.2-11.4-86.6-16.8c-3.3-1.1-80.8-28.5-105.7-73.1
	c-20.7-37.1-47.9-65.1-51-68.2c-3.2-1.5-24.2-12-43.8-27.6c-28.6-22.8-41.4-46.2-37.1-67.9c5.1-26,14-45,27.3-58.1
	c15.5-15.3,36.7-22.7,65-22.7c5.4,0,11.2,0.3,17.1,0.8c42.1,4,68.5,17.7,89.7,28.8c14.7,7.7,26.3,13.7,38.9,14.5
	c4.8,0.3,11.2,0.3,18.6,0.4c21,0.1,49.7,0.3,76.7,6.4c32.3,7.3,54.3,21.6,65.4,42.5c29.2,55,46.1,130,46.3,130.7
	c0.2,0.7,0,1.4-0.4,2c-0.1,0.1-8.2,11.8-12.5,25.8l-1.8,6.2c-5.3,18.4-13.4,46.2-26.9,50.8c-5.8,1.9-8.5,8.7-11.4,15.8
	c-3.3,8-7,17.1-15.9,20.2c-2.5,0.9-5.2,1.3-8.2,1.3l0,0C881.7,589.5,872.7,586.1,864,582.8L864,582.8z M916.6,339
	c-10.5-19.9-30.8-33-62.1-40c-26.4-6-54.8-6.1-75.6-6.3l-18.9-0.4c-13.7-0.9-26.3-7.5-40.9-15.1c-20.8-10.9-46.7-24.4-87.8-28.3
	c-5.8-0.6-11.4-0.8-16.7-0.8c-49.9,0-76.8,23.7-87.3,76.8c-9.5,48.2,77.7,89.8,78.6,90.2c0.3,0.1,0.5,0.3,0.7,0.5
	c0.3,0.3,29.8,29.7,52.1,69.6c23.9,42.9,99.8,69.7,103,70.8c14.8,5.1,71.1,15.2,85.4,16.5c5.6,0.5,11.9,2.9,18.7,5.5
	c8.3,3.1,16.8,6.3,24.3,6.3l0,0c2.5,0,4.6-0.3,6.6-1c6.8-2.3,9.7-9.6,12.9-17.3c3.2-7.9,6.5-16,14.5-18.7
	c11-3.7,19.3-32.1,23.7-47.4l1.9-6.3c3.9-12.7,10.5-23.2,12.6-26.3C960.1,458.2,943.6,389.9,916.6,339L916.6,339z"/>
<path class="st5" d="M843.6,508.5c0,0-9.5,12.1-12.2,14.8l24,63.8c0,0,10.7,24.6-2,38.6s-37.3,51.8-37.3,51.8h-25.7
	c0,0,19-42.1,29.7-58.8c0,0,2.9-16.8-3.2-20.8s-46.8-46.7-46.8-46.7s-10.7-11.4-7.3-22l24-76"/>
<path class="st4" d="M790.5,679.5h25.7c0.8,0,1.6-0.4,2.1-1.1c0.2-0.4,24.7-37.5,37.1-51.2c5.7-6.3,7.9-15.4,6.4-26.5
	c-1.1-7.8-3.6-13.8-3.9-14.5l-23.5-62.3c3.5-4,10.9-13.4,11.2-13.8c0.9-1.1,0.7-2.7-0.4-3.5c-1.1-0.9-2.7-0.7-3.5,0.4
	c-2.6,3.3-9.9,12.5-12,14.6c-0.7,0.7-0.9,1.7-0.6,2.7l24,63.8c0,0,0,0.1,0,0.1c0.1,0.2,9.9,23.1-1.5,35.7
	c-11.6,12.8-32.5,44.2-36.8,50.7h-20.4c4.8-10.4,19.2-41.1,27.9-54.7c0.2-0.3,0.3-0.6,0.4-0.9c0.3-1.9,3-18.4-4.3-23.2
	c-4.8-3.2-35.1-34.5-46.3-46.3c-0.1-0.1-9.6-10.4-6.8-19.5l24-76c0.4-1.3-0.3-2.7-1.6-3.1c-1.3-0.4-2.7,0.3-3.1,1.6l-24,76
	c-3.7,11.9,7.4,24,7.9,24.5c4.2,4.4,41.1,43,47.2,47c3.2,2.1,3.2,11.4,2.2,17.7c-10.7,16.9-28.8,56.7-29.6,58.4
	c-0.4,0.8-0.3,1.7,0.2,2.4C788.9,679,789.7,679.5,790.5,679.5L790.5,679.5z"/>
<path class="st5" d="M648.8,443.8c0,0-2.7,48-30.7,74.7c-28,26.7-30.7,34.7-30.7,34.7l18,78.7l-18,30.7l-26-9.3l12.7-28
	c0,0-1.3-11.3-4-20c-2.7-8.7-31.3-76.4-31.3-76.4s-10-17.6,0-27.6s17.3-19.3,17.3-19.3s7.3-15.3-3.3-34c0,0-30.2-79-28.8-113.2"/>
<path class="st4" d="M587.5,665c0.9,0,1.7-0.5,2.2-1.2l18-30.7c0.3-0.5,0.4-1.2,0.3-1.8l-17.8-77.8c1.1-2.2,6.6-11.1,29.8-33.1
	c28.4-27,31.3-74.3,31.4-76.3c0.1-1.4-1-2.5-2.3-2.6c0,0,0,0,0,0c-1.4-0.1-2.6,1-2.6,2.4c0,0.5-3,47.3-29.9,73
	c-27.7,26.3-31,34.8-31.3,35.7c-0.1,0.4-0.2,0.9-0.1,1.3l17.8,77.7l-16.5,28l-21.5-7.7l11.6-25.5c0.2-0.4,0.3-0.9,0.2-1.3
	c0-0.5-1.4-11.7-4.1-20.4c-2.7-8.7-30.2-73.9-31.4-76.7c0-0.1-0.1-0.2-0.1-0.3c-0.1-0.2-8.9-16.1-0.4-24.6
	c10-10,17.5-19.5,17.5-19.6c0.1-0.1,0.2-0.3,0.3-0.5c0.3-0.7,7.7-16.6-3.3-36.1c-1.6-4.2-29.9-79.5-28.5-112c0.1-1.4-1-2.5-2.4-2.6
	c-1.4-0.1-2.5,1-2.6,2.4c-0.6,14.5,4.1,38.1,14,70.2c7.3,23.8,14.9,43.8,15,43.9c0.1,0.1,0.1,0.2,0.2,0.4
	c9.3,16.2,4.2,29.5,3.3,31.5c-5.3,6.6-11,12.9-16.9,18.9c-10.9,10.8-1.5,28.6-0.5,30.5l31.2,76c2.2,7.2,3.5,16.3,3.8,18.9
	l-12.4,27.4c-0.3,0.6-0.3,1.4,0,2c0.3,0.6,0.8,1.1,1.5,1.4l26,9.3C586.9,665,587.2,665,587.5,665L587.5,665z"/>
<path class="st7" d="M1142.6,275l-357,107.4c0,0-30.8,11.2-33.3-25.1L1115.4,251C1115.4,251,1145.4,244.2,1142.6,275L1142.6,275z"/>
<path class="st4" d="M749.8,357.5c-0.1-1.2,0.7-2.2,1.8-2.6l363.2-106.2c0.1,0,0.1,0,0.2,0c0.1,0,3.1-0.7,7.2-0.7
	c5.3,0,12.7,1.2,17.8,6.7c4.3,4.7,6.1,11.6,5.2,20.6c-0.1,1-0.8,1.9-1.8,2.2L786.4,384.8c-0.7,0.2-5.2,1.8-10.9,1.8l0,0
	C766.6,386.5,751.5,382.8,749.8,357.5L749.8,357.5z M1136.1,258c-3.8-4.2-9.8-5.1-14.1-5.1c-3.2,0-5.6,0.5-6,0.6L754.9,359.1
	c1.5,14.9,8.4,22.4,20.5,22.4c5.1,0,9.3-1.5,9.3-1.5c0,0,0.1,0,0.1,0l355.3-107C1140.5,266.4,1139.2,261.3,1136.1,258L1136.1,258z"
	/>
<path class="st6" d="M853.8,371.3c0,0-8.7,122.4,97,127.3l-9.1,28.2c0,0-114.5,13.5-117.3-148.9L853.8,371.3L853.8,371.3z"/>
<path class="st4" d="M870.1,506.6c-31-25.2-47.2-68.5-48.3-128.7c0-1.2,0.8-2.2,2-2.5l29.5-6.6c0.8-0.2,1.6,0,2.2,0.5
	c0.6,0.5,0.9,1.3,0.9,2.1c0,0.6-3.8,59.1,28.6,95.6c16,18,38.2,27.8,66,29c0.8,0,1.5,0.4,1.9,1.1s0.6,1.5,0.3,2.2l-9.1,28.2
	c-0.3,0.9-1.1,1.6-2.1,1.7c-0.1,0-2.5,0.3-6.6,0.3l0,0C924.2,529.5,895.6,527.3,870.1,506.6L870.1,506.6z M947.4,500.9
	c-27.7-2-50-12.2-66.2-30.5c-29.6-33.4-30.4-82.6-30-95.9l-24.3,5.5C830,514,910.6,524.5,935.3,524.5c1.5,0,3,0,4.5-0.1L947.4,500.9
	L947.4,500.9z"/>
<path class="st6" d="M1024.8,315.3c0,0-8.7,122.4,97,127.3l-9.1,28.1c0,0-114.5,13.5-117.3-148.9L1024.8,315.3z"/>
<path class="st4" d="M1041.1,450.6c-31-25.2-47.2-68.5-48.3-128.7c0-1.2,0.8-2.2,2-2.5l29.5-6.6c0.8-0.2,1.6,0,2.2,0.5
	c0.6,0.5,0.9,1.3,0.9,2.1c0,0.6-3.8,59.1,28.6,95.6c16,18,38.2,27.8,66,29c0.8,0,1.5,0.4,1.9,1.1s0.6,1.5,0.3,2.2l-9.1,28.1
	c-0.3,0.9-1.1,1.6-2.1,1.7c-0.1,0-2.5,0.3-6.6,0.3l0,0C1095.2,473.5,1066.6,471.3,1041.1,450.6L1041.1,450.6z M1118.4,444.9
	c-27.7-2-50-12.2-66.2-30.5c-29.6-33.4-30.4-82.6-30-95.9l-24.3,5.5c3.1,134.2,83.7,144.6,108.4,144.6c1.5,0,3,0,4.5-0.1
	L1118.4,444.9L1118.4,444.9z"/>
<path class="st5" d="M969.7,317.9c0,0-4.2,5.7,3.1,13.6s25.9,5.7,35.1-8c9.2-13.7,3.8-43.3-2-44.7
	C1000.1,277.4,997.1,317.6,969.7,317.9L969.7,317.9z"/>
<path class="st4" d="M971,333.2c-8.6-9.3-3.5-16.5-3.3-16.8c0.5-0.6,1.2-1,2-1c16.8-0.2,23.7-17.2,28.2-28.4
	c2.7-6.6,4.3-10.6,7.8-10.6c0.3,0,0.6,0,0.9,0.1c2.2,0.5,4.1,2.7,5.6,6.7c3.9,10,5.3,30.6-2.1,41.8c-6.8,10.1-17.4,13.7-25.1,13.7
	C979.1,338.6,974.2,336.7,971,333.2L971,333.2z M1002.5,288.8c-4.6,11.4-12.2,30.3-31.2,31.5c-0.5,1.6-0.8,5,3.4,9.5
	c2.2,2.4,5.9,3.8,10.3,3.8c6.4,0,15.2-3,20.9-11.5c5.5-8.2,5.5-23.6,2.7-34c-1-3.8-2.1-5.7-2.8-6.5
	C1004.9,283,1003.6,286.1,1002.5,288.8L1002.5,288.8z"/>
<path class="st5" d="M1004.9,366.4l-29.5-39.7c0,0-8.8-15.5-23.9-9.6c-15,5.9-29.4,14.4-42.4,13.2c-13-1.2-20.5,8.8-27.9,17.9
	s-19.5,29.5-17.2,48s37.3,49,43.3,55.9s33.2,7.9,39.2,14.9s25.2,28,39.2,29s42.8-8.9,43.1-17.9c0,0,4.2-14.5-7.7-23.4
	s-21.3-33.5-21.6-38.6C999.4,411,1020.6,387.4,1004.9,366.4L1004.9,366.4z"/>
<g>
	<path class="st4" d="M985.7,498.5c-13.9-1-31.6-19.2-40.9-29.9c-2.5-2.9-10.9-4.9-18.3-6.6c-8.9-2.1-17.4-4.1-20.9-8.2
		c-1.1-1.3-3.5-3.6-6.4-6.5c-12.4-12.2-35.5-35-37.5-50.8c-2.4-19.4,10-40.5,17.7-49.9l1-1.2c6.8-8.3,14.4-17.7,26.8-17.7
		c0.8,0,1.5,0,2.3,0.1c0.7,0.1,1.5,0.1,2.2,0.1c8.6,0,18-4.1,28.1-8.5l11-4.6c2.5-1,5.1-1.5,7.6-1.5c11.6,0,18.4,10.6,19.2,12
		l29.5,39.6c12.7,17,3,35.5-2.2,45.5c-1.1,2.2-2.6,4.9-2.6,5.6c0.2,4.6,9.4,28.4,20.6,36.7c12.3,9.1,9.2,23.5,8.7,25.8
		c-0.9,11-29.1,20.1-43.4,20.1C987.2,498.6,986.4,498.5,985.7,498.5L985.7,498.5z M952.5,319.4c-3.6,1.4-7.2,3-10.8,4.5
		c-10.5,4.6-20.4,9-30.1,9c-0.9,0-1.8,0-2.7-0.1c-0.6-0.1-1.2-0.1-1.8-0.1c-10,0-16.3,7.7-23,15.9l-1,1.2
		c-15.3,18.7-17.7,37.8-16.6,46.1c1.8,14,24.9,36.8,36.1,47.8c3,3,5.4,5.3,6.7,6.8c2.5,2.9,10.9,4.9,18.3,6.6
		c8.9,2.1,17.4,4.1,20.9,8.2c14.8,17,28.8,27.5,37.5,28.2c0.7,0,1.3,0.1,2,0.1c14.9,0,38.2-9.5,38.4-15.6c0-0.2,0-0.4,0.1-0.6
		c0.2-0.5,3.5-13-6.8-20.7c-12.5-9.3-22.3-34.5-22.6-40.4c-0.1-2,1.1-4.3,3.2-8.2c5-9.6,13.4-25.7,2.6-40.2l-29.5-39.7
		c-0.1-0.1-0.1-0.2-0.2-0.2c-0.1-0.1-5.7-9.7-15-9.7C956.4,318.2,954.4,318.6,952.5,319.4L952.5,319.4z"/>
	<path class="st4" d="M977.7,485.3c2.4-7-4.4-11.4,2.2-15.2c6.6-3.7,20.8-3.7,29.9-6.4c5.3-1.6,9.2-5.8,11.5-9
		c11.7,8.8,7.6,23.3,7.6,23.3c-0.3,9-29.1,19-43.1,17.9c-3-0.2-6.3-1.4-9.6-3.1C976.5,490.1,976.9,487.5,977.7,485.3L977.7,485.3z"
		/>
</g>
<path class="st3" d="M992.8,490.6c0.6,0,1.3-0.2,1.7-0.7c1-1,1-2.5,0.1-3.5c-2.4-2.5-4.7-5.4-5-6.3c-0.2-1.4-1.6-2.2-2.9-2
	c-1.4,0.2-2.2,1.6-2,3c0.5,2.4,4.1,6.5,6.3,8.8C991.5,490.3,992.1,490.6,992.8,490.6L992.8,490.6z"/>
<path class="st4" d="M998.7,413.5c1.4,0,2.5-0.9,2.5-2.3c-0.1-12.9,4.8-16,4.8-16c1.2-0.7,1.6-2.1,0.9-3.3s-2.2-1.6-3.4-0.9
	c-0.8,0.4-7.5,4.4-7.3,20.3C996.2,412.6,997.3,413.5,998.7,413.5L998.7,413.5z M925.5,405.2c6.9,7.8,21.1,11.4,21.1,11.4
	s-0.8,1.7-10.9,2.2l-6.6-3L925.5,405.2L925.5,405.2z M943.9,401.8c0.6,0,1.2-0.2,1.7-0.6c1-0.9,1.1-2.5,0.2-3.5
	c-0.4-0.5-9.8-11-18.8-8.7c-1.3,0.3-2.2,1.7-1.8,3s1.7,2.2,3,1.8c5.1-1.2,11.7,4.8,13.9,7.2C942.4,401.5,943.1,401.8,943.9,401.8
	L943.9,401.8z"/>
<path class="st6" d="M892.3,333c0,0,4.6,5.4-2,13.9s-25.4,7.7-35.6-5.2s-7.2-42.8-1.5-44.7C858.8,295,865,334.8,892.3,333L892.3,333
	z"/>
<path class="st4" d="M852.7,343.1c-8.3-10.6-8.5-31.2-5.4-41.5c1.2-4.1,2.9-6.4,5.1-7.1c0.4-0.1,0.8-0.2,1.2-0.2
	c3.3,0,5.2,3.8,8.3,10c5.4,10.8,13.6,27.3,30.3,26.1c0.8,0,1.6,0.3,2.1,0.9c0.2,0.3,5.8,7.1-2,17c-3.2,4.1-8.9,6.5-15.6,6.5l0,0
	C867.4,354.8,858.5,350.4,852.7,343.1L852.7,343.1z M890.5,335.5c-18.7,0-27.8-18.1-33.2-29c-1.3-2.5-2.8-5.6-3.8-6.9
	c-0.6,0.8-1.5,2.8-2.2,6.7c-2,10.5-0.8,25.9,5.3,33.6c4.9,6.2,12.4,9.9,20,9.9c5.1,0,9.3-1.7,11.7-4.6c3.8-4.8,3.2-8.2,2.6-9.8
	L890.5,335.5L890.5,335.5z"/>
<path class="st5" d="M874.7,352.3c0,0-39.6-1.5-60.7,32C814,384.3,862.5,412.5,874.7,352.3L874.7,352.3z"/>
<path class="st4" d="M812.7,386.4c-0.6-0.3-1-0.9-1.2-1.6s0-1.4,0.3-1.9c19.9-31.5,55.2-33.1,62.1-33.1l0.8,0c0.7,0,1.4,0.4,1.9,1
	c0.5,0.6,0.6,1.3,0.5,2c-6.8,33.6-24.8,40.6-38.7,40.6C824.8,393.4,813.2,386.7,812.7,386.4L812.7,386.4z M817.6,383.3
	c3.9,1.8,12,5.1,20.9,5.1c16.8,0,27.9-11.3,33.1-33.5C862,355.3,834.6,358.7,817.6,383.3z"/>
<path class="st5" d="M872.2,362.1c0,0-40.7,10.3-57.2,20.6"/>
<path class="st4" d="M815,385.2c0.5,0,0.9-0.1,1.3-0.4c15.9-9.9,56-20.2,56.4-20.3c1.3-0.3,2.1-1.7,1.8-3c-0.3-1.3-1.7-2.1-3-1.8
	c-1.7,0.4-41.3,10.5-57.9,20.9c-1.2,0.7-1.5,2.3-0.8,3.4C813.3,384.7,814.1,385.2,815,385.2L815,385.2z"/>
<path class="st6" d="M1136.1,264.9c0,0-4.6,5.4,1.9,13.9s25.3,7.9,35.7-5s7.5-42.8,1.9-44.7S1163.4,266.9,1136.1,264.9L1136.1,264.9
	z"/>
<path class="st4" d="M1136,280.3c-7.7-10-2.1-16.8-1.8-17c0.5-0.6,1.3-0.9,2.1-0.9c0.6,0,1.2,0.1,1.8,0.1c15.5,0,23.5-15.6,28.7-26
	c3.2-6.2,5.1-9.9,8.3-9.9c0.4,0,0.8,0.1,1.2,0.2c2.2,0.7,3.8,3.1,5,7.2c3,10.3,2.7,30.9-5.7,41.4c-5.8,7.2-14.7,11.6-23.8,11.6
	C1145,286.9,1139.3,284.5,1136,280.3L1136,280.3z M1171.3,238.7c-5.5,10.9-14.8,29.1-33.8,28.7c-0.6,1.5-1.2,4.9,2.6,9.8
	c2.3,3,6.7,4.7,11.8,4.7c7.6,0,15.1-3.6,19.9-9.7c6.2-7.7,7.5-23.1,5.6-33.6c-0.7-3.9-1.6-5.9-2.2-6.7
	C1174.1,233.1,1172.6,236.2,1171.3,238.7L1171.3,238.7z"/>
<path class="st5" d="M1167,316.2l-26-42.1c0,0-7.5-16.2-22.9-11.6c-15.5,4.6-30.5,11.8-43.4,9.5s-21.2,7-29.3,15.4
	c-8.1,8.4-22,27.7-21.2,46.4c0.7,18.7,32.9,52,38.3,59.4c5.4,7.5,32.4,10.8,37.8,18.2s22.7,30,36.6,32.3s43.3-5.2,44.4-14.1
	c0,0,5.4-14.1-5.6-23.9s-18.4-35.2-18.2-40.3C1157.6,360.2,1180.8,338.5,1167,316.2L1167,316.2z"/>
<g>
	<path class="st4" d="M1136.4,446.2c-13.7-2.2-29.8-21.8-38.2-33.3c-2.2-3.1-10.4-5.8-17.7-8.2c-8.7-2.9-17-5.6-20.1-10
		c-1-1.4-3.1-3.9-5.8-7c-11.3-13.3-32.4-38-33-53.8c-0.8-19.5,13.5-39.5,22-48.2l1.1-1.1c7-7.2,15-15.4,26.2-15.4
		c1.4,0,2.8,0.1,4.3,0.4c1.5,0.3,3.1,0.4,4.7,0.4c8,0,16.8-3,26.2-6.2l11.3-3.7c2.1-0.6,4.1-0.9,6.1-0.9c12.7,0,19,12.1,19.8,13.7
		l25.9,42c11.2,18.1-0.1,35.7-6.1,45.1c-1.3,2.1-3,4.6-3.1,5.4c-0.2,4.6,6.9,29.1,17.4,38.3c11.4,10.2,7.2,24.2,6.4,26.4
		c-1.8,10.6-28,16.4-41.2,16.4C1140.3,446.6,1138.2,446.5,1136.4,446.2L1136.4,446.2z M1118.8,264.9c-3.7,1.1-7.5,2.4-11.1,3.6
		c-9.8,3.3-19,6.5-27.8,6.5c-1.9,0-3.8-0.2-5.6-0.5c-1.2-0.2-2.3-0.3-3.4-0.3c-9.1,0-16,7.1-22.6,13.9l-1.1,1.1
		c-16.9,17.3-20.9,36.1-20.5,44.5c0.5,14.1,21.7,38.9,31.8,50.7c2.8,3.2,4.9,5.8,6,7.3c2.2,3.1,10.4,5.8,17.7,8.2
		c8.7,2.9,17,5.6,20.2,10c13.3,18.2,26.3,29.9,34.9,31.3c1.5,0.2,3.3,0.4,5.3,0.4c15.2,0,35.6-6.9,36.2-12.4c0-0.2,0.1-0.4,0.1-0.6
		c0.2-0.5,4.6-12.7-5-21.2c-11.7-10.3-19.3-36.3-19.1-42.2c0.1-2,1.5-4.2,3.9-7.9c5.8-9.1,15.6-24.4,6.1-39.8l-26-42.1
		c-0.1-0.1-0.1-0.2-0.1-0.3c-0.1-0.1-5.2-11-15.3-11C1121.9,264.2,1120.4,264.5,1118.8,264.9L1118.8,264.9z"/>
	<path class="st4" d="M1129.6,432.4c3-6.7-3.4-11.8,3.5-14.9s21-1.9,30.3-3.8c5.4-1.1,9.7-5,12.3-8c10.9,9.8,5.6,23.9,5.6,23.9
		c-1.1,9-30.6,16.4-44.4,14.1c-3-0.5-6.2-1.9-9.3-4C1128,437.1,1128.6,434.5,1129.6,432.4L1129.6,432.4z"/>
</g>
<path class="st3" d="M1144.4,438.9c0.6,0,1.1-0.2,1.6-0.6c1.1-0.9,1.2-2.4,0.4-3.5c-2.2-2.7-4.2-5.8-4.4-6.7
	c-0.1-1.4-1.4-2.3-2.7-2.2c-1.4,0.1-2.4,1.4-2.2,2.8c0.2,2.4,3.6,6.8,5.5,9.3C1142.9,438.6,1143.6,439,1144.4,438.9L1144.4,438.9z"
	/>
<path class="st4" d="M1156.8,363.1c1.3,0,2.4-1,2.5-2.3c1-12.8,6.2-15.6,6.2-15.6c1.3-0.6,1.8-2,1.2-3.3c-0.6-1.3-2.1-1.8-3.3-1.2
	c-0.8,0.4-7.8,4-9.1,19.8c-0.1,1.4,0.9,2.6,2.3,2.7C1156.7,363.1,1156.8,363.1,1156.8,363.1L1156.8,363.1z M1084.4,348.1
	c6.2,8.3,20,13.2,20,13.2s-0.9,1.6-11.1,1.3l-6.3-3.6L1084.4,348.1L1084.4,348.1z M1103.3,346.3c0.5,0,1-0.2,1.5-0.5
	c1.1-0.8,1.3-2.4,0.5-3.5c-0.4-0.5-8.8-11.8-18-10.3c-1.4,0.2-2.3,1.5-2.1,2.9c0.2,1.4,1.5,2.3,2.9,2.1c5.2-0.8,11.3,5.8,13.2,8.3
	C1101.7,345.9,1102.4,346.3,1103.3,346.3L1103.3,346.3z"/>
<path class="st6" d="M1057.6,273.2c0,0,4.1,5.8-3.2,13.6s-26,5.5-35-8.3c-9.1-13.8-3.5-43.3,2.3-44.7
	C1027.5,232.5,1030.2,272.7,1057.6,273.2L1057.6,273.2z"/>
<path class="st4" d="M1017.3,279.8c-7.4-11.2-5.8-31.7-1.8-41.6c1.6-4,3.4-6.2,5.7-6.7c0.3-0.1,0.6-0.1,0.9-0.1
	c3.5,0,5.1,4,7.7,10.7c4.5,11.3,11.2,28.3,28,28.6c0.8,0,1.5,0.4,2,1c0.2,0.3,5.2,7.5-3.4,16.7c-3.2,3.4-8.1,5.1-13.8,5.1l0,0
	C1034.7,293.5,1024,290,1017.3,279.8L1017.3,279.8z M1025,243.9c-1-2.6-2.3-5.8-3.2-7.1c-0.7,0.8-1.8,2.7-2.8,6.4
	c-2.9,10.3-3,25.7,2.4,34c4.6,7.1,12.9,11.6,21,11.6c4.3,0,7.9-1.3,10.1-3.7c4.2-4.5,3.9-7.9,3.4-9.5
	C1037.1,274.3,1029.6,255.4,1025,243.9L1025,243.9z"/>
<path class="st5" d="M1038.4,291c0,0-39.3-4.9-63.2,26.6C975.2,317.6,1021.1,350,1038.4,291z"/>
<path class="st4" d="M973.8,319.6c-0.6-0.4-0.9-1-1-1.7c-0.1-0.7,0.1-1.4,0.5-1.9c19.1-25.2,47.9-27.9,59.3-27.9
	c3.8,0,6.1,0.3,6.2,0.3c0.7,0.1,1.4,0.5,1.8,1.1c0.4,0.6,0.5,1.4,0.3,2.1c-5,17-15.7,37.3-38.6,37.3
	C987.1,328.9,974.3,320,973.8,319.6L973.8,319.6z M1032.6,293.2c-10.4,0-36,2.4-53.7,23.8c4.1,2.4,13.3,7,23.3,7
	c15.2,0,26.2-10.3,32.9-30.7C1034.4,293.2,1033.5,293.2,1032.6,293.2L1032.6,293.2z"/>
<path class="st5" d="M1035.1,300.5c0,0-41.4,6.8-58.7,15.6"/>
<path class="st4" d="M976.3,318.6c0.4,0,0.8-0.1,1.1-0.3c16.7-8.5,57.6-15.3,58-15.3c1.4-0.2,2.3-1.5,2.1-2.9
	c-0.2-1.4-1.5-2.3-2.9-2.1c-1.7,0.3-42,6.9-59.4,15.8c-1.2,0.6-1.7,2.1-1.1,3.4C974.5,318.1,975.4,318.6,976.3,318.6L976.3,318.6z"
	/>
<path class="st5" d="M632.8,356.2c0,0,4,31-10,52.3"/>
<path class="st4" d="M622.8,411c0.8,0,1.6-0.4,2.1-1.1c14.3-21.9,10.6-52.7,10.4-54c-0.2-1.4-1.4-2.3-2.8-2.2
	c-1.4,0.2-2.3,1.4-2.2,2.8c0,0,0,0,0,0c0,0.3,3.7,30.4-9.6,50.6c-0.8,1.1-0.4,2.7,0.7,3.5c0,0,0,0,0,0
	C621.9,410.9,622.4,411,622.8,411L622.8,411z"/>
<path class="st5" d="M623.1,363.2c0,0,1.7,17.6-5,30.1"/>
<path class="st4" d="M618.2,395.8c0.9,0,1.8-0.5,2.2-1.3c6.9-13,5.3-30.8,5.2-31.5c-0.1-1.4-1.4-2.4-2.7-2.2
	c-1.4,0.1-2.4,1.4-2.2,2.7c0,0.2,1.6,17-4.7,28.7c-0.7,1.2-0.2,2.7,1,3.4C617.3,395.7,617.7,395.8,618.2,395.8L618.2,395.8z"/>
<path class="st6" d="M762.2,437.8c0,0,3.5,36.9,13.8,47.8"/>
<path class="st4" d="M776,488c0.6,0,1.3-0.2,1.7-0.7c1-1,1-2.5,0.1-3.5c-8-8.4-12.2-36.2-13.1-46.3c-0.1-1.4-1.3-2.4-2.7-2.2
	c-1.4,0.1-2.4,1.3-2.2,2.7c0.2,1.5,3.7,37.9,14.5,49.2C774.7,487.7,775.3,488,776,488L776,488z"/>
<g>
	<path class="st7" d="M368,195.5l13.5,66.9c0,0,6.8,21.8-19.5,24.8L268,298l-17,26.3c0,0-16.5-31.9-13-62.9l96.5-11.9l-10-55
		L368,195.5z"/>
	<path class="st7" d="M389.5,189.5c0,0-21,39.1-39,28.4S286,181.2,286,181.2l22.8-31.2L389.5,189.5z"/>
</g>
<g>
	<path class="st4" d="M375.3,49.8c-0.2-0.7-5.5-17.5,2.9-31.5c5.1-8.5,14-14,26.5-16.4c2.7-0.5,5.3-0.8,7.8-0.8
		c28.3,0,34.3,32.2,34.3,32.5c0.2,1.3-0.6,2.6-1.9,2.9l-66.7,14.9c-0.2,0-0.4,0.1-0.5,0.1C376.6,51.6,375.6,50.9,375.3,49.8
		L375.3,49.8z M412.5,6.2c-2.2,0-4.5,0.2-6.9,0.7c-11,2.1-18.8,6.8-23.1,14c-5.6,9.3-4,20.5-3,25.2l61.9-13.8
		C439.5,25.5,432.5,6.2,412.5,6.2L412.5,6.2z"/>
	<path class="st4" d="M365.1,67.3c16.2,0,39.6-5,43.1-5.7c0.1,0,17.9-3.7,35.1-8.5c26.2-7.4,36.4-12.9,35.2-19
		c-0.5-2.7-2.1-4.8-4.5-6.3c-8.8-5.4-27.5-0.5-29.6,0c-1.3,0.4-2.1,1.7-1.8,3.1c0.4,1.3,1.7,2.1,3.1,1.8c0,0,0,0,0,0
		c5.1-1.4,19.7-4.2,25.6-0.6c1.2,0.8,2,1.7,2.2,3.1c0,0.1-1.3,4.8-33.1,13.6c-16.6,4.6-33.1,8-33.3,8c-17.1,3.7-46.5,8.1-52.9,4
		c-0.2-0.2-0.6-0.4-0.6-0.7c-0.3-1.2,0-2.3,0.7-3.4c3-4.5,13-7,16.6-7.7c1.4-0.2,2.3-1.5,2-2.9s-1.5-2.3-2.9-2
		c-1.5,0.3-15.1,2.8-19.9,9.8c-1.5,2.2-2,4.7-1.5,7.3c0.2,1.1,0.9,2.6,2.8,3.8C354.3,66.7,359.2,67.3,365.1,67.3L365.1,67.3z
		 M375.9,39.6c0.2,0,0.4,0,0.6-0.1l64.4-14.7c1.3-0.3,2.2-1.6,1.9-3c0,0,0,0,0,0c-0.3-1.3-1.6-2.2-3-1.9c0,0,0,0,0,0l-64.4,14.7
		c-1.3,0.3-2.2,1.6-1.9,3c0,0,0,0,0,0C373.8,38.8,374.8,39.6,375.9,39.6L375.9,39.6z"/>
	<path class="st4" d="M423.4,102c2,0,4.1-0.2,6.3-0.6c19.3-3.6,20.4-27.5,18.3-39.7c-0.2-1.4-1.5-2.3-2.9-2c-1.4,0.2-2.3,1.5-2,2.9
		c0,0.3,5,30.3-14.3,33.9c-17.2,3.2-25-9.8-25-10c-0.7-1.2-2.2-1.6-3.4-0.9c-1.2,0.7-1.6,2.2-0.9,3.4
		C399.5,89.1,407.1,102,423.4,102L423.4,102z M394,95.7c0.2,0,0.5,0,0.7-0.1c1.3-0.4,2.1-1.8,1.7-3.1c0,0,0,0,0,0l-2.5-8.6
		c-0.1-0.3-0.2-0.6-0.5-0.9l-2.8-3.4c-1.3-3.4-2-7.5-1.4-8.4c0.1,0,0.5,0,1.2,0.2l2.2,1.3c0.9,0.5,2,0.5,2.8-0.1
		c0.8-0.6,1.2-1.6,0.9-2.6l-2-8c-0.3-1.3-1.7-2.2-3-1.8c-1.3,0.3-2.2,1.7-1.8,3l0.8,3.1c-2.4-0.3-3.8,0.6-4.7,1.5
		c-3.3,3.5-0.5,11.7,0.5,14.1c0.1,0.2,0.2,0.4,0.4,0.7l2.7,3.3l2.3,8.1C391.9,94.9,392.9,95.7,394,95.7L394,95.7z"/>
	<path class="st4" d="M378,62.5c0,0,0.2,20.8,12.3,23c0,0-4.6-9-3.7-14s5-2.5,5-2.5l-1.2-7.8L378,62.5z M426.2,85.1
		c0.2,0,0.5,0,0.7-0.1l6.3-1.8c0.8-0.2,1.4-0.8,1.7-1.6c0.3-0.8,0.2-1.6-0.3-2.3l-5.3-7.5c-0.8-1.1-2.4-1.4-3.5-0.6
		c-1.1,0.8-1.4,2.4-0.6,3.5l3.2,4.6l-2.9,0.8c-1.3,0.4-2.1,1.8-1.7,3.1C424.1,84.3,425.1,85,426.2,85.1L426.2,85.1z M411.7,73.7
		c0.6,0,1.2-0.1,1.7-0.2c3.4-0.9,4.8-4.2,4.9-4.6c0.5-1.3-0.1-2.7-1.4-3.2c-1.3-0.5-2.7,0.1-3.2,1.4c0,0.1-0.6,1.3-1.6,1.6
		c-0.9,0.2-2.2-0.3-3.8-1.6c-1.1-0.9-2.6-0.7-3.5,0.4s-0.7,2.6,0.4,3.5C407.4,72.8,409.6,73.7,411.7,73.7L411.7,73.7z M440.7,67.7
		c0.6,0,1.2-0.1,1.7-0.2c3.4-0.9,4.8-4.2,4.9-4.6c0.5-1.3-0.1-2.7-1.4-3.2s-2.7,0.1-3.2,1.4c0,0.1-0.6,1.3-1.6,1.6
		c-0.9,0.2-2.2-0.3-3.8-1.6c-1.1-0.9-2.6-0.7-3.5,0.4c-0.9,1.1-0.7,2.7,0.4,3.5C436.4,66.8,438.6,67.7,440.7,67.7L440.7,67.7z"/>
</g>
<path class="st3" d="M476.4,174.9l-8.2-13.2l-25.8-43.8c0,0-9.5-9.9-20.9-0.8s-0.3,23-0.3,23l31.2,47.3c0,0,6.2,10.6,16.7,13.3
	c10.5,2.8,32.5,9.3,32.5,9.3s12.7,7.9,17.9,5.5s13.2,2.6,13.2,2.6s-4.1-11.9-10.6-12c0,0,12.3,3.6,15.8,7.5c0,0,0.2-11.1-9.5-13
	c0,0,11.2,2.5,13.9,5.4c0,0-1.7-3.4-4.4-6.5c-2.1-2.3-4.8-4.4-7.7-4.6c0,0,13.1,0.8,6.5-2.7s-12.2-4.3-18.4-2.2l-5-0.2L476.4,174.9
	L476.4,174.9z"/>
<path class="st4" d="M531.5,220.3c-1.3-0.8-5.3-2.9-8.6-2.9c-0.8,0-1.6,0.1-2.2,0.4c-1,0.4-2.1,0.6-3.4,0.6c-6.1,0-14.7-5-16.6-6.1
	l-32.2-9.2c-11.1-2.9-17.6-13.4-18.2-14.4l-31.1-47.2c-4.4-5.5-9.7-17.9,0.8-26.4c3.7-3,7.6-4.5,11.6-4.5c7.4,0,12.5,5.2,12.7,5.4
	c0.1,0.1,0.2,0.3,0.4,0.5l25.7,43.8l7.8,12.5l35.8,14.6l4.1,0.1c6.5-2.1,12.4-1.4,19.9,2.5c1,0.5,3.8,2,3.1,4.5
	c-0.3,1.1-1,1.8-2.1,2.2c0.3,0.3,0.6,0.7,1,1c2.9,3.3,4.7,6.9,4.8,7.1c0.5,1.1,0.2,2.5-0.8,3.2c-1,0.7-2.4,0.6-3.2-0.4
	c-0.3-0.3-0.8-0.6-1.5-1c1.1,2.6,1.4,5.1,1.4,6.9c0,1-0.7,1.9-1.6,2.3c-1,0.4-2.1,0.1-2.7-0.7c-0.5-0.6-1.4-1.3-2.7-2
	c1,2,1.6,3.6,1.7,3.9c0.3,1,0,2.1-0.8,2.8c-0.4,0.4-1,0.6-1.6,0.6C532.4,220.7,531.9,220.5,531.5,220.3L531.5,220.3z M527.6,213.2
	c-0.9-1.5-2.1-2.9-3.3-3.7c-1.6-0.6-2.8-0.9-2.8-0.9c-1.2-0.4-2-1.5-1.8-2.8s1.2-2.1,2.5-2.1c1.4,0,2.9,0.5,4.2,1.3
	c3.1,1.1,5.7,2.1,7.8,3.2c-0.9-2-2.6-4-5.5-4.8l-0.9-0.2c-1.3-0.3-2.2-1.6-1.9-2.9c0.3-1.3,1.6-2.2,2.9-1.9c0.3,0.1,0.7,0.1,1,0.2
	c1.5,0.4,3.1,0.8,4.6,1.2c-1.3-1.1-2.8-2.1-4.3-2.2l-0.2,0c-1.4-0.1-2.4-1.2-2.3-2.6c0.1-1.4,1.2-2.4,2.6-2.4l0.2,0
	c0.1,0,0.2,0,0.4,0c-4.2-1.4-7.8-1.4-11.8-0.1c-0.3,0.1-0.6,0.1-0.9,0.1l-5-0.2c-0.3,0-0.6-0.1-0.9-0.2l-37-15.1
	c-0.5-0.2-0.9-0.5-1.2-1l-8.3-13.3l-25.6-43.6c-0.8-0.8-4.3-3.7-8.9-3.7c-2.8,0-5.7,1.1-8.4,3.3c-9.3,7.5-0.3,19,0,19.5
	c0.1,0.1,0.1,0.1,0.1,0.2l31.2,47.3c0,0,0,0.1,0.1,0.1c0.1,0.1,5.8,9.7,15.2,12.2c10.5,2.8,32.4,9.3,32.6,9.4
	c0.2,0.1,0.4,0.1,0.6,0.3c2.5,1.6,9.9,5.6,14.3,5.6c0.7,0,1.1-0.1,1.3-0.2c1.2-0.6,2.7-0.8,4.2-0.8
	C524.5,212.4,526.1,212.7,527.6,213.2L527.6,213.2z"/>
<path class="st3" d="M475.3,173.1l-20.1,18.1l-13.4-15.4l23.9-18L475.3,173.1z"/>
<path class="st4" d="M455.1,193.7c-0.7,0-1.3-0.4-1.7-0.9L440,177.4c-0.5-0.5-0.7-1.2-0.6-1.9c0.1-0.7,0.4-1.3,1-1.7l23.9-17.9
	c0.6-0.4,1.3-0.6,2-0.5c0.7,0.1,1.3,0.5,1.7,1.1l9.5,15.3c0.6,1,0.5,2.4-0.5,3.2l-20.1,18c-0.5,0.4-1.1,0.6-1.7,0.6
	C455.2,193.7,455.2,193.7,455.1,193.7L455.1,193.7z M465.1,161.4l-19.6,14.7l10,11.5l16.6-14.9L465.1,161.4L465.1,161.4z"/>
<path class="st3" d="M396.6,98.5l7.9,23.5l19.4-17l8.6,3.5c10.5,7-3.2,28.5-3.2,28.5l-37.8,51.5l-84-36.5c0,0,18.5-28.5,32.5-48
	s29.8-18.5,29.8-18.5l16.7,3.8"/>
<path class="st4" d="M391.5,191c0.8,0,1.5-0.4,2-1l37.8-51.5c0,0,0.1-0.1,0.1-0.1c0.6-1,14.8-23.7,2.4-31.9
	c-0.1-0.1-0.3-0.2-0.5-0.2l-8.6-3.5c-0.9-0.4-1.9-0.2-2.6,0.4l-16.5,14.5L399,97.7c-0.4-1.3-1.9-2-3.2-1.6c-1.3,0.4-2,1.9-1.6,3.2
	c0,0,0,0,0,0l7.9,23.5c0.3,0.8,0.9,1.4,1.7,1.6c0.8,0.2,1.7,0,2.3-0.5l18.2-16l7,2.8c7.6,5.5-3.3,23.7-4,24.9l-36.6,49.8l-79.5-34.5
	c4.8-7.4,19.4-29.5,30.8-45.4C354.3,88.3,367.7,88,369.5,88l16.5,3.7c1.3,0.3,2.7-0.5,3-1.9s-0.5-2.7-1.9-3L370.4,83
	c-0.1,0-0.3,0-0.4-0.1c-0.7,0-17.4-0.9-32,19.5c-13.9,19.3-32.4,47.8-32.6,48.1c-0.4,0.6-0.5,1.4-0.3,2.1c0.2,0.7,0.7,1.3,1.4,1.6
	l84,36.5C390.9,190.9,391.2,191,391.5,191L391.5,191z"/>
<path class="st3" d="M389.5,189.5l-3.1-18.6L378,110c0,0-6-15.5-23-10.5S344,125,344,125l13,67.4c0,0,2,14.6,12.5,22.6
	s32,25.5,32,25.5s10.5,14.6,17.5,14.5c6.9-0.2,13.5,9,13.5,9s0.9-15.2-6.3-18.3c0,0,12.1,9.7,14.2,15.8c0,0,5.3-12.3-4.6-18.9
	c0,0,11.4,7.9,13.1,12.5c0,0-0.3-4.6-1.9-9.3c-1.2-3.6-3.3-7.2-6.5-8.7c0,0,14.3,6.9,8.5,0s-11.6-10.5-19.5-11l-5.5-2.5L389.5,189.5
	L389.5,189.5z"/>
<path class="st4" d="M430.5,265.5c-1.6-2.2-6.7-8-11.3-8h-0.3c-7.6,0-16.9-12.1-19.2-15.2L368,217c-10.9-8.3-13.3-22.9-13.5-24.2
	l-13-67.2c-2.3-8-2.5-24,12.7-28.5c2.5-0.7,4.9-1.1,7.2-1.1c13.6,0,18.7,12.6,18.9,13.1c0.1,0.2,0.1,0.4,0.1,0.6l8.5,60.9l2.9,17.8
	l33.4,33.1l4.7,2.1c8,0.6,14.5,4.3,20.8,11.8c0.9,1,2.7,3.2,1.7,5.4c-0.3,0.6-1.3,2.1-4.1,1.8c0.3,0.8,0.7,1.5,0.9,2.3
	c1.7,4.9,2,9.8,2.1,10c0.1,1.2-0.8,2.4-2,2.6c-1.2,0.3-2.4-0.4-2.9-1.6c-0.3-0.7-1.1-1.8-2.2-3c0.3,3.8-0.6,7.4-1.6,9.6
	c-0.4,1-1.4,1.6-2.4,1.5c-1,0-1.9-0.7-2.3-1.7c-0.5-1.3-1.6-3-3.3-5c0.4,3.7,0.3,6.6,0.3,6.9c-0.1,1.1-0.8,2-1.8,2.3
	c-0.2,0.1-0.5,0.1-0.7,0.1C431.7,266.5,431,266.1,430.5,265.5L430.5,265.5z M424.6,247.6c-1-0.8-1.2-2.2-0.6-3.2
	c0.6-1.1,2-1.5,3.1-1c1.5,0.7,2.9,1.8,4,3.2c2.7,2.4,5.8,5.4,8.1,8.3c0.2-3.1-0.5-7-4.1-9.8c-0.5-0.4-0.9-0.6-0.9-0.6
	c-1.1-0.8-1.4-2.3-0.6-3.5c0.8-1.1,2.3-1.4,3.5-0.7c0.4,0.2,0.7,0.5,1,0.7c2,1.5,4.2,3.2,6.2,4.9c-0.9-2.5-2.5-5.5-4.9-6.7l-0.2-0.1
	c-1.2-0.6-1.7-2.1-1.2-3.3c0.6-1.2,2.1-1.8,3.3-1.2l0.2,0.1c1.1,0.5,2.1,1,3.1,1.4c-4.8-5-9.6-7.3-15.6-7.7c-0.3,0-0.6-0.1-0.9-0.2
	l-5.5-2.5c-0.3-0.1-0.5-0.3-0.7-0.5l-34.3-34c-0.4-0.4-0.6-0.9-0.7-1.4l-3.1-18.6l-8.4-60.6c-0.7-1.6-4.7-9.7-14.1-9.7
	c-1.8,0-3.7,0.3-5.8,0.9c-14.4,4.2-9.5,21.7-9.3,22.4l0.1,0.2l13,67.4c0,0,0,0.1,0,0.1c0,0.1,2,13.7,11.5,21
	c10.4,7.9,31.9,25.4,32.1,25.6c0.2,0.1,0.3,0.3,0.5,0.5c4,5.6,11.4,13.4,15.4,13.4h0.2c4,0,7.8,2.3,10.5,4.8c-0.4-2.6-1-5.4-2.3-7.3
	C425.8,248.6,424.6,247.6,424.6,247.6L424.6,247.6z"/>
<path class="st3" d="M389.1,187.1l-30.8,10.9l-7.8-23.4l35-9L389.1,187.1z"/>
<path class="st4" d="M357.2,200.2c-0.6-0.3-1.1-0.8-1.3-1.5l-7.8-23.4c-0.2-0.7-0.1-1.4,0.2-2s0.9-1.1,1.6-1.2l35-9
	c0.7-0.2,1.4-0.1,2,0.3c0.6,0.4,1,1,1.1,1.7l3.5,21.6c0.2,1.2-0.5,2.4-1.6,2.8l-30.8,10.9c-0.3,0.1-0.5,0.1-0.8,0.1
	C357.9,200.4,357.6,200.3,357.2,200.2L357.2,200.2z M383.5,168.6l-29.8,7.6l6.1,18.5l26.4-9.3L383.5,168.6L383.5,168.6z"/>
<path class="st7" d="M305.5,153L284,180.2c0,0-7,16.8-2,33.2S326.5,388,326.5,388s10,6.5,22.5,10c13.3,3.8,29,4.6,29,4.6L364,375
	l-34.8-162.5l12.3-19.3"/>
<path class="st4" d="M345.6,291.7c0.2,0,0.4,0,0.5-0.1c1.4-0.3,2.2-1.6,1.9-3c0,0,0,0,0,0L331.9,213l11.7-18.5
	c0.7-1.2,0.4-2.7-0.8-3.4c-1.2-0.8-2.7-0.4-3.5,0.8l-12.3,19.3c-0.4,0.6-0.5,1.2-0.3,1.9l16.4,76.7
	C343.4,290.9,344.5,291.7,345.6,291.7L345.6,291.7z M302.9,296.5c0.2,0,0.4,0,0.6-0.1c1.3-0.3,2.1-1.7,1.8-3c0,0,0,0,0,0l-10.6-41.5
	c-0.3-1.3-1.7-2.1-3-1.8c-1.3,0.3-2.1,1.7-1.8,3l10.6,41.5C300.7,295.8,301.7,296.6,302.9,296.5L302.9,296.5z"/>
<path class="st5" d="M357,343.5l7,32l14,27.3c0,0-15.7-0.9-29-4.7c-12.5-3.5-22.5-9.6-22.5-9.6l-11.4-45.1H357L357,343.5z"/>
<path class="st4" d="M377.9,405.2c-0.6,0-16.2-0.9-29.5-4.7c-12.6-3.6-22.7-9.8-23.1-10.1c-0.6-0.3-0.9-0.9-1.1-1.5l-11.4-45.3
	c-0.2-0.7,0-1.5,0.4-2.1c0.5-0.6,1.2-1,2-1h42c1.2,0,2.2,0.8,2.4,2l6.9,31.9l13.9,27.1c0.4,0.8,0.4,1.8-0.1,2.5
	c-0.5,0.7-1.2,1.1-2.1,1.1C377.9,405.2,377.9,405.2,377.9,405.2L377.9,405.2z M318.3,345.5l10.4,41.2c2.6,1.5,11.1,6.2,21,9
	c8.7,2.5,18.5,3.7,24.1,4.2l-12-23.5c-0.1-0.2-0.2-0.4-0.2-0.6l-6.5-30.3H318.3z"/>
<path class="st5" d="M364,375.2l-17.5,3.9"/>
<path class="st4" d="M346.5,381.7c0.2,0,0.4,0,0.6-0.1l17.5-3.9c1.3-0.3,2.2-1.6,1.9-3c-0.3-1.3-1.6-2.2-3-1.9l-17.5,3.9
	c-1.3,0.3-2.2,1.6-1.9,3c0,0,0,0,0,0C344.4,380.9,345.4,381.7,346.5,381.7z"/>
<path class="st5" d="M238.2,261.4l44.8-6.7l10,40.5l-24.8,2.8l-17,26.3C251.2,324.3,234.8,292.4,238.2,261.4L238.2,261.4z"/>
<path class="st4" d="M251.1,326.8c-0.9,0-1.7-0.6-2.1-1.4c-0.7-1.3-16.8-32.9-13.3-64.3c0.1-1.1,1-2,2.1-2.2l44.7-6.7
	c1.3-0.2,2.5,0.6,2.8,1.9l10,40.5c0.2,0.7,0,1.4-0.4,2c-0.4,0.6-1.1,1-1.8,1l-23.6,2.6l-16.4,25.3c-0.5,0.7-1.3,1.1-2.1,1.1
	C251.2,326.8,251.2,326.8,251.1,326.8L251.1,326.8z M281.1,257.5l-40.6,6.1c-2,23,7,46.4,11.1,55.5l14.5-22.5c0.4-0.6,1.1-1,1.8-1.1
	l21.9-2.5L281.1,257.5L281.1,257.5z"/>
<path class="st5" d="M268.2,298l-7.4-11.8"/>
<path class="st4" d="M268.2,300.5c0.5,0,0.9-0.1,1.3-0.4c1.2-0.7,1.5-2.3,0.8-3.5l-7.4-11.8c-0.7-1.2-2.3-1.5-3.5-0.8
	c-1.2,0.7-1.5,2.3-0.8,3.5l7.4,11.8C266.6,300,267.4,300.5,268.2,300.5L268.2,300.5z M413.5,137c0.1,0,0.2,0,0.4,0
	c0.9-0.1,1.7-0.8,2-1.6l10.3-29.5c0.5-1.3-0.2-2.7-1.5-3.2c-1.3-0.5-2.7,0.2-3.2,1.5l-8.7,25l-6.2-8.4c-0.8-1.1-2.3-1.3-3.4-0.6
	l-6.6,4.5v-20.2c0-1.4-1.1-2.5-2.5-2.5s-2.5,1.1-2.5,2.5v25c0,0.9,0.5,1.8,1.3,2.2c0.8,0.4,1.8,0.4,2.6-0.2l8.5-5.9l7.6,10.3
	C412,136.6,412.7,137,413.5,137L413.5,137z"/>
<path class="st3" d="M404.5,122.2l-17.9,37.1"/>
<path class="st4" d="M386.6,161.8c0.9,0,1.8-0.5,2.2-1.4l17.9-37.1c0.6-1.2,0.1-2.7-1.2-3.3c-1.2-0.6-2.7-0.1-3.3,1.2c0,0,0,0,0,0
	l-17.9,37.1c-0.6,1.2-0.1,2.7,1.2,3.3C385.8,161.8,386.2,161.8,386.6,161.8L386.6,161.8z"/>
</svg>
