<svg xmlns="http://www.w3.org/2000/svg" xmlns:xlink="http://www.w3.org/1999/xlink" width="2560" height="766.176" xmlns:v="https://vecta.io/nano"><style><![CDATA[.V{fill:#40403f}.W{fill:url(#G)}.X{fill:url(#H)}.Y{fill:url(#I)}.Z{fill:none}.a{fill:url(#B)}.b{fill:#eaefe8}.c{fill:#c9ca48}]]></style><defs><pattern id="A" width="204.84" height="204.84" patternTransform="matrix(1, 0, 0, -1, -2127.48, 1122)" patternUnits="userSpaceOnUse" viewBox="0 0 204.84 204.84"><g class="Z"><path d="M0 0h204.84v204.84H0z"/><path d="M0 0h204.84v204.84H0z"/></g><path d="M0 0h204.84v204.84H0z" fill="#c4c3bd"/></pattern><pattern id="B" width="204.84" height="204.84" patternTransform="matrix(1, 0, 0, -1, -2917.48, 1154)" patternUnits="userSpaceOnUse" viewBox="0 0 204.84 204.84"><g class="Z"><path d="M0 0h204.84v204.84H0z"/><path d="M0 0h204.84v204.84H0z"/></g><path d="M0 0h204.84v204.84H0z" class="c"/></pattern><pattern id="C" width="204.84" height="204.84" patternTransform="matrix(1, 0, 0, -1, -2917.48, 941.11)" patternUnits="userSpaceOnUse" viewBox="0 0 204.84 204.84"><g class="Z"><path d="M0 0h204.84v204.84H0z"/><path d="M0 0h204.84v204.84H0z"/></g><path d="M0 0h204.84v204.84H0z" class="c"/></pattern><pattern id="D" width="204.84" height="204.84" patternTransform="matrix(1, 0, 0, -1, -2917.48, 1154)" patternUnits="userSpaceOnUse" viewBox="0 0 204.84 204.84"><g class="Z"><path d="M0 0h204.84v204.84H0z"/><path d="M0 0h204.84v204.84H0z"/></g><path d="M0 0h204.84v204.84H0z" fill="#c67042"/></pattern><pattern id="E" width="204.84" height="204.84" patternTransform="matrix(1, 0, 0, -1, -2917.48, 941.11)" patternUnits="userSpaceOnUse" viewBox="0 0 204.84 204.84"><g class="Z"><path d="M0 0h204.84v204.84H0z"/><path d="M0 0h204.84v204.84H0z"/></g><path d="M0 0h204.84v204.84H0z" fill="#3e462e"/></pattern><clipPath id="F" transform="translate(0 -212.89)"><path d="M558.25 377s55.95 85 116.85 107 75.72-93.33 75.72-93.33l-45.5-60-85.33-22z" class="Z"/></clipPath><pattern id="G" width="204.84" height="204.84" patternTransform="matrix(1, 0, 0, -1, -2730.48, 1122)" patternUnits="userSpaceOnUse" viewBox="0 0 204.84 204.84"><g class="Z"><path d="M0 0h204.84v204.84H0z"/><path d="M0 0h204.84v204.84H0z"/></g><path d="M0 0h204.84v204.84H0z" class="c"/></pattern><pattern id="H" width="204.84" height="204.84" patternTransform="matrix(1, 0, 0, -1, -2170.48, 1122)" patternUnits="userSpaceOnUse" viewBox="0 0 204.84 204.84"><g class="Z"><path d="M0 0h204.84v204.84H0z"/><path d="M0 0h204.84v204.84H0z"/></g><path d="M0 0h204.84v204.84H0z" class="c"/></pattern><pattern id="I" width="204.84" height="204.84" patternTransform="matrix(1, 0, 0, -1, -1630.48, 1122)" patternUnits="userSpaceOnUse" viewBox="0 0 204.84 204.84"><g class="Z"><path d="M0 0h204.84v204.84H0z"/><path d="M0 0h204.84v204.84H0z"/></g><path d="M0 0h204.84v204.84H0z" class="c"/></pattern><path id="J" d="M558.25 218.67a2.5 2.5 0 0 1-1.67-4.36l57.92-52.05a2.5 2.5 0 0 1 3.34 3.72l-57.92 52.05c-.457.415-1.053.643-1.67.64z"/><path id="K" d="M1170.56 537.85a2.49 2.49 0 0 1-2.49-2.32l-5.67-78.5c-.097-1.374.936-2.567 2.3-2.667s2.57.933 2.67 2.307l5.67 78.5a2.5 2.5 0 0 1-2.31 2.67c-.06 0-.12.01-.18.01z"/><path id="L" d="M1172.2 538c-.182 0-.363-.02-.54-.06a2.51 2.51 0 0 1-1.91-2.98l13.5-61.55c.295-1.35 1.63-2.205 2.98-1.9s2.205 1.63 1.9 2.98l-13.5 61.55a2.5 2.5 0 0 1-2.44 1.97z"/><path id="M" d="M1184.4 537.56c-.28.002-.557-.045-.82-.14-1.3-.455-2-1.877-1.54-3.18l13.08-37.62a2.5 2.5 0 0 1 3.179-1.538 2.5 2.5 0 0 1 1.541 3.178l-13.08 37.62c-.348 1.006-1.296 1.68-2.36 1.68z"/><path id="N" d="M1164.45 541.28a2.48 2.48 0 0 1-2.11-1.16l-21.37-33.62a2.5 2.5 0 0 1 2.005-3.837 2.5 2.5 0 0 1 2.215 1.157l21.37 33.62c.356.56.475 1.238.33 1.885s-.54 1.2-1.1 1.565a2.45 2.45 0 0 1-1.34.39z"/><path id="O" d="M1206.84 539.56c0 3.58-14.28 6.47-31.88 6.47-17.6 0-31.88-2.9-31.88-6.47 0-3.58 14.28-6.47 31.88-6.47 17.6 0 31.88 2.9 31.88 6.47z"/><path id="P" d="M1543.9 537.85a2.49 2.49 0 0 1-2.49-2.32l-5.67-78.5c-.097-1.374.936-2.567 2.3-2.667s2.57.933 2.67 2.307l5.67 78.5a2.5 2.5 0 0 1-2.31 2.67c-.05 0-.12.01-.18.01z"/><path id="Q" d="M1537.78 541.28a2.48 2.48 0 0 1-2.11-1.16l-21.37-33.62a2.5 2.5 0 0 1 4.22-2.68l21.37 33.62c.356.56.475 1.238.33 1.885s-.54 1.2-1.1 1.565c-.4.258-.865.394-1.34.4z"/><path id="R" d="M1580.18 539.56c0 3.58-14.27 6.47-31.88 6.47s-31.88-2.9-31.88-6.47c0-3.58 14.28-6.47 31.88-6.47s31.88 2.9 31.88 6.47z"/><path id="S" d="M1365.02 533.85c-.06.002-.12-.002-.18-.01-.66-.048-1.275-.356-1.708-.857s-.65-1.153-.602-1.813l5.67-78.5c.1-1.374 1.296-2.406 2.67-2.307s2.408 1.293 2.3 2.667l-5.67 78.5a2.5 2.5 0 0 1-2.49 2.32z"/><path id="T" d="M1363.36 534c-1.174-.004-2.19-.823-2.44-1.97l-13.5-61.55c-.295-1.35.56-2.685 1.9-2.98s2.685.56 2.98 1.9l13.5 61.55a2.51 2.51 0 0 1-1.91 2.98c-.177.04-.358.06-.54.06z"/><path id="U" d="M1351.17 533.56a2.5 2.5 0 0 1-2.36-1.68l-13.08-37.62a2.5 2.5 0 0 1 1.541-3.178 2.5 2.5 0 0 1 3.179 1.538l13.08 37.62c.45 1.303-.24 2.725-1.54 3.18a2.36 2.36 0 0 1-.82.14z"/><path id="V" d="M1371.13 537.28c-.474-.002-.94-.137-1.34-.4-.56-.355-.956-.918-1.1-1.565s-.025-1.325.33-1.885l21.37-33.62a2.5 2.5 0 0 1 4.359.156 2.5 2.5 0 0 1-.139 2.524l-21.37 33.62a2.48 2.48 0 0 1-2.11 1.16z"/><path id="W" d="M1328.74 535.56c0 3.58 14.27 6.47 31.88 6.47s31.88-2.9 31.88-6.47c0-3.58-14.28-6.47-31.88-6.47-17.6 0-31.88 2.9-31.88 6.47z"/><path id="X" d="M1231.16 706.9a2.49 2.49 0 0 1-2.49-2.32l-7-97c-.097-1.374.936-2.567 2.3-2.667s2.57.933 2.67 2.307l7 97a2.5 2.5 0 0 1-2.31 2.67 1.09 1.09 0 0 1-.18.01z"/><path id="Y" d="M1233.2 707.1c-.182 0-.363-.02-.54-.06a2.51 2.51 0 0 1-1.91-2.98l16.67-76.06c.295-1.35 1.63-2.205 2.98-1.9s2.205 1.63 1.9 2.98l-16.67 76.06c-.25 1.147-1.266 1.966-2.44 1.97z"/><path id="Z" d="M1243.15 706.35c-1.08.003-2.04-.7-2.378-1.717s.026-2.155.898-2.793l39.74-29.05c.72-.532 1.67-.64 2.49-.28s1.384 1.13 1.48 2.02-.293 1.763-1.018 2.288l-39.74 29.05c-.427.31-.942.48-1.47.48z"/><path id="a" d="M1223.6 711.14a2.48 2.48 0 0 1-2.11-1.16l-26.4-41.54a2.5 2.5 0 0 1 2.005-3.837 2.5 2.5 0 0 1 2.215 1.157l26.4 41.54c.356.56.475 1.238.33 1.885s-.54 1.2-1.1 1.565a2.45 2.45 0 0 1-1.34.39z"/><path id="b" d="M1620.94 706.9c-.06.002-.12-.002-.18-.01-.66-.048-1.275-.356-1.708-.857s-.65-1.153-.602-1.813l7-97c.1-1.374 1.296-2.406 2.67-2.307s2.408 1.293 2.3 2.667l-7 97a2.5 2.5 0 0 1-2.49 2.32z"/><path id="c" d="M1618.9 707.1c-1.174-.004-2.19-.823-2.44-1.97l-16.67-76.06c-.295-1.35.56-2.685 1.9-2.98s2.685.56 2.98 1.9l16.67 76.06a2.51 2.51 0 0 1-1.91 2.98c-.177.04-.358.06-.54.06z"/><path id="d" d="M1119.3 430.38a2.49 2.49 0 0 1-2.49-2.32l-4.32-59.87c-.097-1.374.936-2.567 2.3-2.667s2.57.933 2.67 2.307l4.32 59.87a2.5 2.5 0 0 1-2.31 2.67c-.06.008-.12.012-.18.01z"/><path id="e" d="M1120.55 430.5c-.182 0-.363-.02-.54-.06a2.51 2.51 0 0 1-1.91-2.98l10.3-46.95c.295-1.35 1.63-2.205 2.98-1.9s2.205 1.63 1.9 2.98l-10.3 46.95a2.5 2.5 0 0 1-2.44 1.97z"/><path id="f" d="M1129.85 430.17a2.36 2.36 0 0 1-.82-.14c-1.3-.455-2-1.877-1.54-3.18l9.98-28.7a2.5 2.5 0 0 1 3.179-1.538 2.5 2.5 0 0 1 1.541 3.178l-9.98 28.7a2.5 2.5 0 0 1-2.36 1.68z"/><path id="g" d="M1114.63 433a2.48 2.48 0 0 1-2.11-1.16l-16.3-25.64a2.5 2.5 0 0 1 4.22-2.68l16.3 25.64c.357.56.476 1.238.33 1.885s-.54 1.21-1.1 1.565a2.45 2.45 0 0 1-1.34.39z"/><path id="h" d="M1146.96 431.1c0 2.73-10.9 4.94-24.32 4.94s-24.32-2.2-24.32-4.94 10.9-4.94 24.32-4.94c13.44 0 24.32 2.2 24.32 4.94z"/><path id="i" d="M1404.05 430.38a2.49 2.49 0 0 1-2.49-2.32l-4.32-59.87c-.097-1.374.936-2.567 2.3-2.667s2.57.933 2.67 2.307l4.32 59.87a2.5 2.5 0 0 1-2.31 2.67 1.09 1.09 0 0 1-.18.01z"/><path id="j" d="M1405.32 430.5c-.182 0-.363-.02-.54-.06a2.51 2.51 0 0 1-1.91-2.98l10.3-46.95c.295-1.35 1.63-2.205 2.98-1.9s2.205 1.63 1.9 2.98l-10.3 46.95c-.25 1.147-1.266 1.966-2.44 1.97z"/><path id="k" d="M1414.62 430.17a2.36 2.36 0 0 1-.82-.14c-1.3-.455-2-1.877-1.54-3.18l9.98-28.7a2.5 2.5 0 0 1 3.179-1.538 2.5 2.5 0 0 1 1.541 3.178l-9.98 28.7a2.51 2.51 0 0 1-2.36 1.68z"/><path id="l" d="M1399.4 433a2.48 2.48 0 0 1-2.11-1.16l-16.3-25.64a2.5 2.5 0 0 1 4.22-2.68l16.3 25.64c.357.56.476 1.238.33 1.885s-.54 1.21-1.1 1.565a2.43 2.43 0 0 1-1.34.39z"/><path id="m" d="M1431.73 431.1c0 2.73-10.9 4.94-24.32 4.94s-24.32-2.2-24.32-4.94 10.9-4.94 24.32-4.94 24.32 2.2 24.32 4.94z"/><path id="n" d="M1266.35 427.46c-1.174-.004-2.19-.823-2.44-1.97l-10.3-46.95c-.295-1.35.56-2.685 1.9-2.98s2.685.56 2.98 1.9l10.3 46.95a2.51 2.51 0 0 1-1.91 2.98c-.177.04-.358.06-.54.06z"/><path id="o" d="M1257.05 427.12a2.5 2.5 0 0 1-2.36-1.68l-9.98-28.7a2.5 2.5 0 0 1 1.541-3.178 2.5 2.5 0 0 1 3.179 1.538l9.98 28.7c.45 1.303-.24 2.725-1.54 3.18a2.62 2.62 0 0 1-.82.14z"/><path id="p" d="M1272.28 429.95c-.474-.002-.94-.137-1.34-.4-.56-.355-.956-.918-1.1-1.565s-.025-1.325.33-1.885l16.3-25.64a2.5 2.5 0 0 1 4.22 2.68l-16.3 25.64c-.46.72-1.255 1.16-2.1 1.16z"/><path id="q" d="M1239.94 428.05c0 2.73 10.9 4.94 24.32 4.94s24.32-2.2 24.32-4.94-10.9-4.94-24.32-4.94-24.32 2.2-24.32 4.94z"/><path id="r" d="M1212.93 545.1h-.13c-4.16-.22-6.03-2.82-7.4-4.58-1.23-1.58-1.8-2.42-3.42-2.42h-.02c-1.38 0-1.67.6-2.58 2.18-1 1.75-2.68 4.77-7.37 4.53a9.41 9.41 0 0 1-7.29-3.95c-1.2-1.4-1.87-2.17-3.93-2.17-.05 0-.1.01-.15.01-2.3.04-3.16 1-4.46 2.43-1.38 1.53-3.3 3.6-6.98 3.52-3.83-.1-5.6-2.65-6.75-4.34-1.18-1.7-1.62-2.24-3.14-2.12-1.5.13-1.97.76-3 2.3-1.24 1.88-3.1 4.7-8.05 4.46-4.73-.24-6.27-3.17-7.3-5.1-.9-1.7-1.2-2.2-2.95-2.16-2.3.06-3.2.95-4.57 2.3a11.04 11.04 0 0 1-8.04 3.88c-5.92.3-8.32-3.3-9.6-5.24l-.44-.64a2.5 2.5 0 0 1 .9-4.85c1.9.05 2.9 1.53 3.7 2.72 1.1 1.63 2.13 3.18 5.22 3.03 2.44-.12 3.36-1.04 4.76-2.43 1.63-1.63 3.67-3.65 7.97-3.76h.3c4.66 0 6.2 2.9 7.2 4.83.88 1.67 1.24 2.36 3.13 2.45 2.1.1 2.55-.58 3.63-2.22 1.1-1.66 2.76-4.18 6.72-4.53 4.5-.4 6.42 2.4 7.7 4.26 1.1 1.62 1.57 2.15 2.76 2.18 1.34.05 1.92-.52 3.15-1.88 1.52-1.68 3.6-4 8.08-4.07h.22c4.37 0 6.32 2.28 7.74 3.94 1.15 1.34 1.84 2.15 3.75 2.25 1.6.1 1.88-.57 2.78-2.13 1.03-1.8 2.6-4.68 6.9-4.68h.03c4.15 0 6 2.6 7.37 4.36 1.24 1.6 1.9 2.46 3.7 2.56a2.55 2.55 0 0 1 2.364 2.612 2.55 2.55 0 0 1-2.504 2.478z"/><path id="s" d="M1432.93 543.1h-.13c-4.16-.22-6.03-2.82-7.4-4.58-1.23-1.58-1.8-2.42-3.42-2.42h-.02c-1.38 0-1.67.6-2.58 2.18-1 1.75-2.68 4.77-7.37 4.53a9.41 9.41 0 0 1-7.29-3.95c-1.2-1.4-1.87-2.17-3.93-2.17-.05 0-.1.01-.15.01-2.3.04-3.16 1-4.46 2.43-1.35 1.5-3.2 3.53-6.74 3.53h-.24c-3.83-.1-5.6-2.65-6.75-4.34-1.18-1.7-1.62-2.24-3.14-2.12-1.5.13-1.97.76-3 2.3-1.24 1.87-3.07 4.68-8.05 4.46-4.73-.24-6.27-3.17-7.3-5.1-.9-1.7-1.18-2.22-2.95-2.16-2.3.06-3.2.95-4.57 2.3a11.04 11.04 0 0 1-8.04 3.88c-5.92.3-8.32-3.3-9.6-5.24l-.44-.64c-1.02-.362-1.69-1.34-1.66-2.42.008-.665.285-1.298.767-1.755s1.13-.7 1.793-.675c1.9.05 2.9 1.53 3.7 2.72 1.1 1.63 2.14 3.18 5.22 3.03 2.44-.12 3.36-1.04 4.76-2.43 1.63-1.63 3.67-3.65 7.97-3.76h.3c4.66 0 6.2 2.9 7.2 4.83.88 1.67 1.24 2.36 3.13 2.45 2.1.1 2.54-.58 3.63-2.22 1.1-1.66 2.76-4.18 6.72-4.53 4.5-.4 6.42 2.4 7.7 4.26 1.1 1.62 1.57 2.15 2.76 2.18 1.35.04 1.92-.52 3.15-1.88 1.52-1.68 3.6-4 8.08-4.07 4.53-.08 6.5 2.25 7.96 3.94 1.15 1.34 1.84 2.15 3.75 2.25 1.6.1 1.88-.38 2.78-1.94 1.03-1.78 2.6-4.48 6.9-4.5 4.2-.03 6.04 2.4 7.4 4.17 1.24 1.6 1.9 2.36 3.7 2.46a2.49 2.49 0 0 1 2.36 2.63c-.086 1.324-1.183 2.356-2.5 2.36z"/><path id="t" d="M1503.93 714.1h-.13c-4.16-.22-6.03-2.82-7.4-4.58-1.23-1.58-1.8-2.42-3.42-2.42h-.02c-1.38 0-1.67.6-2.58 2.18-1 1.75-2.68 4.77-7.37 4.53a9.41 9.41 0 0 1-7.29-3.95c-1.2-1.4-1.87-2.17-3.93-2.17-.05 0-.1.01-.15.01-2.3.04-3.16 1-4.46 2.43-1.38 1.53-3.3 3.6-6.98 3.52-3.83-.1-5.6-2.65-6.75-4.34-1.18-1.7-1.62-2.24-3.14-2.12-1.5.13-1.97.76-3 2.3-1.24 1.87-3.1 4.68-8.05 4.46-4.73-.24-6.27-3.17-7.3-5.1-.9-1.7-1.2-2.22-2.95-2.16-2.3.06-3.2.95-4.57 2.3a11.04 11.04 0 0 1-8.04 3.88c-5.9.3-8.32-3.3-9.6-5.24l-.44-.64a2.5 2.5 0 0 1 .9-4.85c1.9.05 2.9 1.53 3.7 2.72 1.1 1.63 2.15 3.2 5.22 3.03 2.44-.12 3.36-1.04 4.76-2.43 1.63-1.63 3.67-3.65 7.97-3.76h.3c4.66 0 6.2 2.9 7.2 4.83.88 1.67 1.24 2.36 3.13 2.45 2.1.1 2.55-.58 3.63-2.22 1.1-1.66 2.76-4.18 6.72-4.53 4.48-.4 6.42 2.4 7.7 4.26 1.1 1.62 1.57 2.15 2.76 2.18 1.35.05 1.92-.52 3.15-1.88 1.52-1.68 3.6-4 8.08-4.07h.22c4.37 0 6.32 2.28 7.74 3.94 1.15 1.34 1.84 2.15 3.75 2.25 1.6.1 1.88-.57 2.78-2.13 1.03-1.8 2.6-4.68 6.9-4.68h.03c4.15 0 6 2.6 7.37 4.36 1.24 1.6 1.9 2.46 3.7 2.56a2.55 2.55 0 0 1 2.364 2.612 2.55 2.55 0 0 1-2.504 2.478z"/><path id="u" d="M1308.93 718.1h-.13c-4.16-.22-6.03-2.82-7.4-4.58-1.23-1.58-1.8-2.42-3.42-2.42h-.02c-1.38 0-1.67.6-2.58 2.18-1 1.75-2.68 4.8-7.37 4.53a9.41 9.41 0 0 1-7.29-3.95c-1.2-1.4-1.87-2.17-3.93-2.17-.05 0-.1.01-.15.01-2.3.04-3.16 1-4.46 2.43-1.38 1.53-3.3 3.6-6.98 3.52-3.83-.1-5.6-2.65-6.75-4.34-1.18-1.7-1.62-2.24-3.14-2.12-1.5.13-1.97.76-3 2.3-1.24 1.87-3.08 4.7-8.05 4.46-4.73-.24-6.27-3.17-7.3-5.1-.9-1.7-1.18-2.22-2.95-2.16-2.3.06-3.2.95-4.57 2.3a11.04 11.04 0 0 1-8.04 3.88c-5.9.3-8.32-3.3-9.6-5.24l-.44-.64a2.5 2.5 0 0 1 .9-4.85c1.9.05 2.9 1.53 3.7 2.72 1.1 1.63 2.15 3.17 5.22 3.03 2.44-.12 3.36-1.04 4.76-2.43 1.63-1.63 3.67-3.65 7.97-3.76h.3c4.66 0 6.2 2.9 7.2 4.83.88 1.67 1.24 2.36 3.13 2.45 2.12.1 2.54-.58 3.63-2.22 1.1-1.66 2.76-4.18 6.72-4.53 4.5-.4 6.42 2.4 7.7 4.26 1.1 1.62 1.57 2.15 2.76 2.18 1.37.03 1.92-.52 3.15-1.88 1.52-1.68 3.6-4 8.08-4.07 4.53-.05 6.5 2.25 7.96 3.94 1.15 1.34 1.84 2.15 3.75 2.25 1.6.1 1.88-.57 2.78-2.13 1.03-1.8 2.6-4.68 6.9-4.68h.03c4.15 0 6 2.6 7.37 4.36 1.24 1.6 1.9 2.46 3.7 2.56a2.55 2.55 0 0 1 2.364 2.612 2.55 2.55 0 0 1-2.504 2.478z"/><path id="v" d="M1482.93 436.1h-.13c-4.16-.22-6.03-2.82-7.4-4.58-1.23-1.58-1.8-2.42-3.42-2.42h-.02c-1.38 0-1.67.6-2.58 2.18-1 1.75-2.67 4.78-7.37 4.53a9.41 9.41 0 0 1-7.29-3.95c-1.2-1.4-1.87-2.17-3.93-2.17-.05 0-.1.01-.15.01-2.3.04-3.16 1-4.46 2.43-1.38 1.53-3.3 3.6-6.98 3.52-3.83-.1-5.6-2.65-6.75-4.34-1.18-1.7-1.6-2.24-3.14-2.12-1.5.13-1.97.76-3 2.3-1.24 1.87-3.08 4.7-8.05 4.46-4.73-.24-6.27-3.17-7.3-5.1-.9-1.7-1.2-2.22-2.95-2.16-2.3.06-3.2.95-4.57 2.3a11.04 11.04 0 0 1-8.04 3.88c-5.9.28-8.32-3.3-9.6-5.24l-.44-.64c-1.02-.362-1.69-1.34-1.66-2.42a2.46 2.46 0 0 1 2.56-2.43c1.9.05 2.9 1.53 3.7 2.72 1.1 1.63 2.13 3.2 5.22 3.03 2.44-.12 3.36-1.04 4.76-2.43 1.63-1.63 3.67-3.65 7.97-3.76h.3c4.66 0 6.2 2.9 7.2 4.83.88 1.67 1.24 2.36 3.13 2.45 2.1.1 2.54-.58 3.63-2.22 1.1-1.66 2.76-4.18 6.72-4.53 4.5-.4 6.42 2.4 7.7 4.26 1.1 1.62 1.57 2.15 2.76 2.18 1.37.03 1.92-.52 3.15-1.88 1.52-1.68 3.6-4 8.08-4.07 4.5-.04 6.52 2.25 7.96 3.94 1.15 1.34 1.84 2.15 3.75 2.25 1.6.1 1.88-.57 2.78-2.13 1.03-1.8 2.6-4.68 6.9-4.68h.03c4.15 0 6 2.6 7.37 4.36 1.24 1.6 1.9 2.46 3.7 2.56a2.55 2.55 0 0 1 2.364 2.612 2.55 2.55 0 0 1-2.504 2.478z"/><path id="w" d="M1314.93 435.1h-.13c-4.16-.22-6.03-2.82-7.4-4.58-1.23-1.58-1.8-2.42-3.42-2.42h-.02c-1.38 0-1.67.6-2.58 2.18-1 1.75-2.7 4.77-7.37 4.53a9.41 9.41 0 0 1-7.29-3.95c-1.2-1.4-1.87-2.17-3.93-2.17-.05 0-.1.01-.15.01-2.3.04-3.16 1-4.46 2.43-1.35 1.5-3.2 3.53-6.74 3.53h-.24c-3.83-.1-5.6-2.65-6.75-4.34-1.18-1.7-1.6-2.23-3.14-2.12-1.5.13-1.97.76-3 2.3-1.24 1.88-3.1 4.7-8.05 4.46-4.73-.24-6.27-3.17-7.3-5.1-.9-1.7-1.18-2.22-2.95-2.16-2.3.06-3.2.95-4.57 2.3a11.04 11.04 0 0 1-8.04 3.88c-5.9.3-8.32-3.3-9.6-5.24l-.44-.64c-1.02-.362-1.69-1.34-1.66-2.42.006-.665.283-1.3.765-1.757s1.13-.7 1.795-.673c1.9.05 2.9 1.53 3.7 2.72 1.1 1.63 2.14 3.18 5.22 3.03 2.44-.12 3.36-1.04 4.76-2.43 1.63-1.63 3.67-3.65 7.97-3.76h.3c4.66 0 6.2 2.9 7.2 4.83.88 1.67 1.24 2.36 3.13 2.45 2.1.1 2.55-.58 3.63-2.22 1.1-1.66 2.76-4.18 6.72-4.53 4.48-.4 6.42 2.4 7.7 4.26 1.1 1.62 1.57 2.15 2.76 2.18 1.35.04 1.92-.52 3.15-1.88 1.52-1.68 3.6-4 8.08-4.07h.22c4.37 0 6.32 2.28 7.74 3.94 1.15 1.34 1.84 2.15 3.75 2.25 1.6.1 1.88-.57 2.78-2.13 1.03-1.8 2.6-4.68 6.9-4.68h.03c4.15 0 6 2.6 7.37 4.36 1.24 1.6 1.9 2.46 3.7 2.56 1.36.096 2.4 1.245 2.363 2.607s-1.14 2.452-2.503 2.473z"/><path id="x" d="M1619.93 548.1h-.13c-4.16-.22-6.03-2.82-7.4-4.58-1.23-1.58-1.8-2.42-3.42-2.42h-.02c-1.38 0-1.67.6-2.58 2.18-1 1.75-2.7 4.77-7.37 4.53a9.41 9.41 0 0 1-7.29-3.95c-1.2-1.4-1.87-2.17-3.93-2.17-.05 0-.1.01-.15.01-2.3.04-3.16 1-4.46 2.43-1.38 1.53-3.3 3.6-6.98 3.52-3.83-.1-5.6-2.65-6.75-4.34-1.18-1.7-1.62-2.24-3.14-2.12-1.5.13-1.97.76-3 2.3-1.24 1.87-3.08 4.68-8.05 4.46-4.73-.24-6.27-3.17-7.3-5.1-.9-1.7-1.18-2.2-2.95-2.16-2.3.06-3.2.95-4.57 2.3a11.04 11.04 0 0 1-8.04 3.88c-5.9.28-8.32-3.3-9.6-5.24l-.44-.64a2.52 2.52 0 0 1 .84-4.89h.07c1.9 0 2.9 1.55 3.7 2.74 1.1 1.63 2.14 3.2 5.22 3.04 2.44-.12 3.36-1.03 4.76-2.43 1.63-1.63 3.67-3.65 7.97-3.75h.3c4.66 0 6.2 2.9 7.2 4.83.88 1.67 1.24 2.36 3.13 2.45 2.12.1 2.54-.58 3.63-2.22 1.1-1.66 2.76-4.18 6.72-4.53 4.48-.4 6.42 2.4 7.7 4.26 1.1 1.62 1.57 2.15 2.76 2.18 1.37.04 1.92-.52 3.15-1.88 1.52-1.68 3.6-4 8.08-4.07 4.54-.04 6.52 2.25 7.96 3.94 1.15 1.34 1.84 2.15 3.75 2.25 1.6.1 1.88-.57 2.78-2.13 1.03-1.8 2.6-4.68 6.9-4.68h.03c4.15 0 6 2.6 7.37 4.36 1.24 1.6 1.9 2.46 3.7 2.56 1.39.094 2.443 1.3 2.36 2.68a2.57 2.57 0 0 1-2.51 2.41z"/><path id="y" d="M1686.93 718.1h-.13c-4.16-.22-6.03-2.82-7.4-4.58-1.23-1.58-1.8-2.42-3.42-2.42h-.02c-1.38 0-1.67.6-2.58 2.18-1 1.75-2.68 4.8-7.37 4.53a9.41 9.41 0 0 1-7.29-3.95c-1.2-1.4-1.87-2.17-3.93-2.17-.05 0-.1.01-.15.01-2.3.04-3.16 1-4.46 2.43-1.38 1.53-3.3 3.6-6.98 3.52-3.83-.1-5.6-2.65-6.75-4.34-1.18-1.7-1.62-2.24-3.14-2.12-1.5.13-1.97.76-3 2.3-1.24 1.87-3.08 4.7-8.05 4.46-4.73-.24-6.27-3.17-7.3-5.1-.9-1.7-1.18-2.22-2.95-2.16-2.3.06-3.2.95-4.57 2.3a11.04 11.04 0 0 1-8.04 3.88c-5.9.3-8.32-3.3-9.6-5.24l-.44-.64a2.5 2.5 0 0 1 .9-4.85c1.9.05 2.9 1.53 3.7 2.72 1.1 1.63 2.14 3.17 5.22 3.03 2.44-.12 3.36-1.04 4.76-2.43 1.63-1.63 3.67-3.65 7.97-3.76h.3c4.66 0 6.2 2.9 7.2 4.83.88 1.67 1.24 2.36 3.13 2.45 2.1.1 2.54-.58 3.63-2.22 1.1-1.66 2.76-4.18 6.72-4.53 4.48-.4 6.42 2.4 7.7 4.26 1.1 1.62 1.57 2.15 2.76 2.18 1.36.03 1.92-.52 3.15-1.88 1.52-1.68 3.6-4 8.08-4.07 4.55-.05 6.52 2.25 7.96 3.94 1.15 1.34 1.84 2.15 3.75 2.25 1.6.1 1.88-.57 2.78-2.13 1.03-1.8 2.6-4.68 6.9-4.68h.03c4.15 0 6 2.6 7.37 4.36 1.24 1.6 1.9 2.46 3.7 2.56a2.55 2.55 0 0 1 2.364 2.612 2.55 2.55 0 0 1-2.504 2.478z"/><path id="z" d="M416.67 366.65a2.5 2.5 0 0 1-1.77-.74l-8.67-8.7c-.966-.982-.958-2.56.02-3.53s2.555-.97 3.53.001l8.67 8.7a2.51 2.51 0 0 1-.01 3.54 2.54 2.54 0 0 1-1.77.72z"/><path id="AA" d="M429.53 352.67c-.604.002-1.188-.218-1.64-.62a2.5 2.5 0 0 1-.24-3.53l8.07-9.26a2.5 2.5 0 1 1 3.77 3.29l-8.07 9.26a2.5 2.5 0 0 1-1.89.86z"/><path id="AB" d="M457.53 322.67c-.604.002-1.188-.218-1.64-.62a2.5 2.5 0 0 1-.24-3.53l8.07-9.26c.91-1.03 2.483-1.132 3.52-.228s1.148 2.476.25 3.518l-8.07 9.26a2.5 2.5 0 0 1-1.89.86z"/><path id="AC" d="M472.67 306.65a2.5 2.5 0 0 1-1.77-.74l-8.67-8.7c-.636-.633-.884-1.558-.65-2.425s.912-1.542 1.78-1.77 1.79.025 2.42.665l8.67 8.7c.713.718.924 1.795.534 2.73s-1.302 1.542-2.314 1.54z"/></defs><g fill="#f2cd00"><path d="M2176.47 242.1c-18.33-95.3-99.74-161.84-197.4-161.84S1800 146.8 1781.67 242.1zm32.03 11h-9.5v-5h3.33l-.03-.12-.67-2.75 4.9-1.04.62 2.5.8 3.43zm-11.53-27.07c-1.13-3.8-2.37-7.6-3.7-11.3l4.7-1.67c1.34 3.8 2.6 7.67 3.76 11.55zm-434.8-.15l-4.8-1.43a235.39 235.39 0 0 1 3.77-11.54l4.7 1.67a248.29 248.29 0 0 0-3.69 11.3zm423.74-29.55c-1.63-3.6-3.37-7.2-5.17-10.7l4.45-2.3c1.84 3.58 3.62 7.26 5.28 10.94zm-412.65-.14l-4.55-2.06c1.66-3.68 3.44-7.36 5.3-10.94l4.45 2.3c-1.8 3.5-3.56 7.1-5.2 10.7zm397.66-27.8a230.28 230.28 0 0 0-6.6-9.91l4.1-2.88c2.33 3.3 4.6 6.7 6.74 10.13zm-382.65-.12l-4.23-2.66c2.15-3.4 4.4-6.8 6.73-10.1l4.1 2.88a211.63 211.63 0 0 0-6.59 9.87zm363.94-25.47a221.19 221.19 0 0 0-7.92-8.88l3.64-3.42c2.77 2.95 5.5 6 8.1 9.08zm-345.25-.08l-3.82-3.23c2.6-3.08 5.32-6.12 8.08-9.06l3.64 3.43c-2.7 2.87-5.36 5.86-7.9 8.86zm323.14-22.63a228.51 228.51 0 0 0-9.08-7.67l3.12-3.9a239.01 239.01 0 0 1 9.29 7.84zm-301.04-.04l-3.32-3.73a202.65 202.65 0 0 1 9.3-7.83l3.12 3.9c-3.08 2.44-6.14 5.02-9.1 7.65zm275.96-19.3c-3.3-2.18-6.68-4.3-10.07-6.3l2.54-4.3c3.47 2.04 6.94 4.2 10.3 6.44zm-250.88-.04l-2.76-4.17a232.37 232.37 0 0 1 10.31-6.44l2.54 4.3c-3.4 2-6.78 4.1-10.1 6.3zm223.3-15.54a210.44 210.44 0 0 0-10.86-4.8l1.9-4.62a223.95 223.95 0 0 1 11.1 4.91zm-195.72-.04l-2.14-4.52c3.64-1.73 7.4-3.38 11.13-4.92l1.9 4.62a252.11 252.11 0 0 0-10.9 4.82zm166.23-11.47a228.62 228.62 0 0 0-11.44-3.23l1.23-4.85a225.23 225.23 0 0 1 11.69 3.3zm-136.7-.03l-1.48-4.78c3.86-1.2 7.8-2.3 11.72-3.3l1.23 4.85a223.84 223.84 0 0 0-11.47 3.23zm105.86-7.23c-3.9-.63-7.85-1.18-11.78-1.6l.55-4.97c4 .44 8.06 1 12.04 1.64zm-75-.02l-.8-4.94a248.97 248.97 0 0 1 12.04-1.64l.54 4.97c-3.93.44-7.9.98-11.78 1.6zm43.45-2.93a236.05 236.05 0 0 0-11.9 0l-.12-5c4.03-.1 8.17-.1 12.15 0zM1760 253.1h-9.4l.55-2.96.8-3.47.6-2.47 4.9 1.04-.63 2.65a1.6 1.6 0 0 0-.05.21h3.26zm416 0h-12v-5h12zm-32 0h-12v-5h12zm-32 0h-12v-5h12zm-32 0h-12v-5h12zm-32 0h-12v-5h12zm-32 0h-12v-5h12zm-32 0h-12v-5h12zm-32 0h-12v-5h12zm-32 0h-12v-5h12zm-32 0h-12v-5h12zm-32 0h-12v-5h12zm-32 0h-12v-5h12zm-32 0h-12v-5h12zm438.23-10H2221v-5h3.13l-.12-.5-.52-2.36 4.9-1.03.5 2.28.78 3.66zm-14.18-36.12c-1.2-3.7-2.5-7.4-3.88-11.03l4.68-1.77c1.4 3.7 2.73 7.48 3.96 11.24zm-472.96-.16l-4.75-1.56c1.24-3.77 2.57-7.55 3.96-11.24l4.68 1.77c-1.37 3.62-2.68 7.33-3.9 11.03zm457.23-37.58c-1.78-3.46-3.66-6.92-5.58-10.27l4.34-2.5a257.22 257.22 0 0 1 5.69 10.48zm-441.48-.15l-4.45-2.3a251.55 251.55 0 0 1 5.7-10.47l4.34 2.5a260.79 260.79 0 0 0-5.59 10.27zm419.9-34.6c-2.32-3.13-4.74-6.24-7.2-9.23l3.87-3.17c2.5 3.06 4.97 6.23 7.34 9.42zm-398.3-.12l-4-2.98c2.36-3.17 4.82-6.33 7.32-9.4l3.87 3.17c-2.45 3-4.87 6.1-7.18 9.2zm371.3-30.6a246.5 246.5 0 0 0-8.61-7.91l3.3-3.76c2.97 2.6 5.93 5.3 8.8 8.07zm-344.33-.06l-3.47-3.6c2.85-2.75 5.8-5.46 8.78-8.06l3.3 3.76a255.24 255.24 0 0 0-8.6 7.9zM2120.04 78c-3.2-2.2-6.5-4.33-9.8-6.35l2.62-4.26c3.37 2.07 6.74 4.25 10 6.5zm-280.93-.04l-2.82-4.13c3.27-2.23 6.64-4.4 10.02-6.5l2.62 4.26a235.12 235.12 0 0 0-9.82 6.36zm245.38-20.08c-3.52-1.62-7.13-3.18-10.72-4.63l1.87-4.64a257.46 257.46 0 0 1 10.94 4.72zm-209.8-.05l-2.1-4.54c3.6-1.65 7.3-3.25 10.97-4.73l1.87 4.64a236.64 236.64 0 0 0-10.75 4.63zm171.4-13.88a272.29 272.29 0 0 0-11.35-2.8l1.08-4.88c3.87.86 7.77 1.82 11.58 2.85zm-132.93-.04l-1.3-4.83a257.09 257.09 0 0 1 11.58-2.84l1.08 4.88c-3.8.83-7.6 1.77-11.36 2.8zm92.74-7.4a249.78 249.78 0 0 0-11.66-.92l.28-5c3.96.22 7.96.54 11.88.94zm-52.54-.01l-.5-4.97c3.92-.4 7.92-.7 11.88-.94l.28 5c-3.88.22-7.8.53-11.65.92zM1738 243.1h-9.14l.55-2.96.83-4.03.4-1.9 4.9 1.02-.62 2.88h3.07v5z"/><path d="M2189 243.1h-12v-5h12zm-41 0h-12v-5h12zm-41 0h-12v-5h12zm-41 0h-12v-5h12zm-41 0h-12v-5h12zm-41 0h-12v-5h12zm-41 0h-12v-5h12zm-41 0h-12v-5h12zm-41 0h-12v-5h12zm-41 0h-12v-5h12zm-41 0h-12v-5h12zm491.23 3H2261v-5h3.15l-.1-.43q-.285-1.23-.54-2.46l4.9-1 .52 2.36.76 3.58zm-20.73-56c-1.44-3.76-2.98-7.53-4.56-11.2l4.6-1.98c1.6 3.74 3.17 7.57 4.63 11.4zm-541.84-.18l-4.67-1.8a295.21 295.21 0 0 1 4.64-11.39l4.6 1.98c-1.58 3.68-3.12 7.45-4.56 11.2zm513.52-55.43c-2.2-3.38-4.5-6.75-6.82-10l4.07-2.9a285.02 285.02 0 0 1 6.93 10.19zm-485.18-.16l-4.2-2.73a282.82 282.82 0 0 1 6.92-10.14l4.07 2.9c-2.32 3.26-4.6 6.62-6.8 9.97zm445.7-48.17c-2.87-2.83-5.84-5.62-8.8-8.3l3.35-3.7c3.02 2.73 6.03 5.57 8.96 8.45zm-406.24-.08l-3.5-3.57a295.61 295.61 0 0 1 8.95-8.43l3.35 3.7a285.83 285.83 0 0 0-8.8 8.29zm357.27-38.53a284.59 284.59 0 0 0-10.4-6.18l2.46-4.35a258.1 258.1 0 0 1 10.57 6.3zm-308.3-.05l-2.64-4.24a297.41 297.41 0 0 1 10.58-6.29l2.46 4.35c-3.5 1.97-7 4.05-10.4 6.18zm252.1-26.97a300.69 300.69 0 0 0-11.46-3.77l1.46-4.78c3.9 1.2 7.8 2.48 11.67 3.84zm-195.88-.04l-1.66-4.72a302.21 302.21 0 0 1 11.71-3.85l1.46 4.78c-3.85 1.18-7.72 2.46-11.5 3.8zm135.18-14.23c-3.97-.5-8-.92-12.03-1.25l.42-4.98a289.24 289.24 0 0 1 12.23 1.28zm-74.42-.02l-.62-4.96c4.06-.5 8.17-.93 12.23-1.27l.4 4.98c-4 .33-8.03.75-12.02 1.25zM1696 246.1h-9.15l.55-2.95.8-3.84q.225-1.05.45-2.1l4.9 1-.46 2.15-.16.73h3.08z"/><path d="M2208 246.1h-12v-5h12zm-64 0h-12v-5h12zm-64 0h-12v-5h12zm-64 0h-12v-5h12zm-64 0h-12v-5h12zm-64 0h-12v-5h12zm-64 0h-12v-5h12zm-64 0h-12v-5h12z"/></g><path d="M2268 440.9V221.28c-391.06-41.4-753.45 66.37-957.45 145.92C1079.38 299.4 569.62 228.22 290 271.1v495l1980-.45V441.1l-2-.2z" class="b"/><path d="M1139 656.38s406.867-306.83 1421-223.95v339.053l-1421 1.087z" transform="translate(0 -212.89)" fill="url(#A)"/><path d="M2221.16 353.48a2.41 2.41 0 0 1-.75-.09c-33.8-9.37-43.27-23-52.43-36.17-6.52-9.38-12.68-18.24-27.85-25.3-3.14-1.46-12.1-1.6-22.5-1.78-27.27-.44-68.47-1.12-96.2-22.92-11.33-8.9-16.28-17.78-14.72-26.36 3-16.42 29.06-24.82 30.17-25.16a2.5 2.5 0 0 1 1.5 4.77c-.24.08-24.3 7.83-26.76 21.3-1.2 6.6 3.13 13.85 12.9 21.53 26.4 20.76 66.58 21.4 93.18 21.85 11.86.2 20.43.33 24.53 2.25 16.4 7.64 23.23 17.47 29.84 26.98 8.66 12.45 17.6 25.32 49.66 34.2 1.33.37 2.1 1.75 1.74 3.08a2.45 2.45 0 0 1-2.3 1.82zm16.54-49.58a2.59 2.59 0 0 1-1.31-.32c-12.76-7.2-18.2-13.64-24.48-21.08a157.65 157.65 0 0 0-14.01-15.02c-13.48-12.56-34.24-13.5-50.92-14.25-11.45-.52-20.5-.93-25.34-4.8-8.92-7.15-12.8-14.02-11.56-20.4 1.97-10.1 16.1-14.42 16.7-14.6a2.5 2.5 0 0 1 3.11 1.68 2.5 2.5 0 0 1-1.68 3.11h0c-3.3 1-12.07 4.86-13.22 10.78-1.07 5.5 4.73 11.5 9.8 15.55 3.57 2.86 12.3 3.26 22.44 3.7 17.5.8 39.28 1.78 54.1 15.6a164.56 164.56 0 0 1 14.42 15.45c6.22 7.37 11.14 13.2 23.12 19.95 1.203.68 1.628 2.206.95 3.4a2.55 2.55 0 0 1-2.1 1.26zm-56.3 134.83c-.4.008-.796-.074-1.16-.24-22.8-10.9-37.75-25.7-52.2-40.04-11.38-11.28-23.14-22.94-38.74-32.68-8.37-5.22-28.3-9.72-51.4-14.93-43.48-9.8-97.6-22-122.03-48.1-10.6-11.3-15.46-23.67-14.5-36.73 1.92-25.7 25.66-44.78 26.67-45.58a2.5 2.5 0 0 1 4.022 1.598 2.5 2.5 0 0 1-.922 2.322c-.23.18-23.06 18.55-24.8 42.06-.86 11.6 3.57 22.68 13.16 32.92 23.38 24.97 76.67 37 119.48 46.65 24.5 5.53 43.87 9.9 52.95 15.57 16.07 10.03 28.04 21.9 39.6 33.37 14.82 14.7 28.8 28.56 50.84 39.08a2.49 2.49 0 0 1-.99 4.74zm-126.2 35.77a2.49 2.49 0 0 1-2.03-.93c-41.94-51.93-104.27-73.28-159.27-92.12-26.3-9-51.13-17.5-71.8-28.6-27.1-14.52-40.3-39-38.2-70.75a126.84 126.84 0 0 1 11.36-43.62c.62-1.23 2.117-1.727 3.35-1.113a2.5 2.5 0 0 1 1.13 3.343c-.1.2-9.4 19.13-10.86 41.86-1.94 30.02 10.03 52.18 35.58 65.87 20.3 10.88 44.95 19.32 71.05 28.26 55.63 19.06 118.7 40.65 161.54 93.7a2.51 2.51 0 0 1-.37 3.52 2.48 2.48 0 0 1-1.49.56zm-133.93 22.47c-1 .03-1.923-.536-2.35-1.44-5.54-11.85-35.9-23.38-71.08-36.73-41.67-15.82-93.53-35.5-130.83-65.12-36.78-29.2-43.23-64.57-42.16-89.1a123.23 123.23 0 0 1 11.26-46.62 2.5 2.5 0 0 1 4.46 2.27c-6.413 14.094-10.056 29.3-10.73 44.76-1.42 33.9 12.13 62.43 40.28 84.78 36.7 29.12 88.15 48.66 129.5 64.36 37.68 14.3 67.44 25.6 73.84 39.3a2.5 2.5 0 0 1-1.21 3.32 2.38 2.38 0 0 1-.97.23z" fill="#f3f4f2"/><path d="M1415.28 408.82C1288.64 313.1 439.95 220.716 0 271.1v495.066l2560-.582V450.352C2261 426.5 1549.44 400.8 1415.28 408.82z" class="b"/><path d="M6.462 572.078c-2.45.2-4.9-.643-5.965-2.133-1.293-1.84.023-4.004 2.95-4.836 79.884-22.56 114.247-50.76 147.498-78.024 23.294-19.112 45.295-37.17 81.3-52.235 9.458-3.96 30.756-6.24 60.22-9.38 66.298-7.086 166.505-17.782 224.865-56.853 16.807-11.25 24.904-23.48 24.042-36.353-1.565-23.524-31.98-45.34-57.248-59.497-2.382-1.344-2.586-3.653-.454-5.158a8.37 8.37 0 0 1 8.188-.307c26.923 15.093 59.38 38.56 61.104 64.626.975 14.918-8.165 28.93-27.218 41.686-61.06 40.868-163.58 51.812-231.42 59.06-25.925 2.776-48.334 5.158-55.728 8.255-34.363 14.392-55.797 31.97-78.478 50.584-34.113 27.995-69.405 56.94-151.966 80.26-.546.167-1.1.27-1.678.306zm2.906-157.466a21.26 21.26 0 0 1-7.598-.939c-2.862-1.1-2.17-2.657 1.48-3.506 39.864-9.27 54.567-16.343 73.216-25.314a474.47 474.47 0 0 1 43.91-18.96c46.114-17.223 124.297-21.858 187.086-25.574 36.542-2.168 68.085-4.036 79.663-7.752 33.154-10.66 43.647-23.386 31.214-37.8-9.473-11-29.372-18.94-29.57-19.02-2.796-1.1-2.04-2.667 1.678-3.496s8.98-.62 11.775.47c.888.34 86.24 34.624-2.763 63.244-15.294 4.915-47.725 6.833-88.774 9.27-60.092 3.556-134.92 7.992-177.153 23.775-19.44 7.263-31.806 13.216-42.76 18.47-18.748 9.02-34.93 16.803-77.196 26.632-1.386.3-2.795.46-4.2.5zm2.727-89.978a38.89 38.89 0 0 1-9.81-.842c-3.695-.976-2.803-2.38 1.9-3.142 26.798-4.324 31.003-5.945 37.925-8.62 5.266-2.023 11.807-4.548 28.115-8.783 34.9-9.05 93.22-11.45 140.064-13.375 24.93-1.02 48.458-1.997 55.932-3.653 55.168-12.3 4.374-25.3 2.208-25.847-3.822-.95-3.143-2.363 1.444-3.15a44.75 44.75 0 0 1 15.246.278c.68.16 65.233 16.527-3.015 31.755-12.274 2.74-36.736 3.742-67.696 5.014-43.36 1.782-97.297 4.002-127.238 11.764-15.12 3.912-21.107 6.24-25.95 8.102-8.494 3.286-14.737 5.363-43.743 10.054a42.54 42.54 0 0 1-5.394.448zM1099.97 460a2.55 2.55 0 0 1-2.06-1.41 2.48 2.48 0 0 1 1.19-3.34c13.82-6.48 19.7-12.45 27.15-20a179.17 179.17 0 0 1 17.1-15.7c17.38-13.85 41.58-13.3 61.04-12.87 11.32.25 21.1.47 25.3-2.4 12.12-8.27 17.96-20.03 17.35-34.96a59.32 59.32 0 0 0-4.72-20.52c-.284-.602-.312-1.293-.08-1.917a2.46 2.46 0 0 1 1.32-1.393 2.6 2.6 0 0 1 3.4 1.23c.2.4 18.22 39.46-14.33 61.67-5.6 3.82-15.63 3.6-28.35 3.3-18.6-.42-41.78-.94-57.7 11.75a176.02 176.02 0 0 0-16.64 15.29c-7.5 7.6-13.97 14.17-28.6 21.03-.42.2-.887.284-1.35.24z" fill="#dcdddb"/><path d="M1155.37 441.37c-1.31-.004-2.396-1.02-2.488-2.327s.84-2.465 2.138-2.653c37.77-5.4 75.98-10.2 113.56-14.27a2.5 2.5 0 0 1 2.743 2.221 2.5 2.5 0 0 1-2.213 2.749c-37.53 4.07-75.68 8.86-113.4 14.25-.115.025-.233.035-.35.03z" class="V"/><path d="M928.514 450.058c-.88.106-1.753-.25-2.3-.94a2.47 2.47 0 0 1 .45-3.51c12.12-9.28 16.6-16.36 22.26-25.34a179.67 179.67 0 0 1 13.35-18.98c14.02-17.24 37.8-21.88 56.88-25.6 11.1-2.17 20.7-4.04 24.22-7.76 10.08-10.67 13.27-23.4 9.5-37.85-1.838-6.832-4.882-13.28-9-19.04a2.46 2.46 0 0 1 .51-3.5c1.126-.83 2.707-.623 3.58.47.27.34 26.22 34.66-.84 63.3-4.65 4.92-14.5 6.84-27 9.28-18.27 3.56-41.02 8-53.86 23.8-4.724 5.88-9.066 12.056-13 18.5-5.7 9.03-10.62 16.82-23.47 26.66-.378.273-.818.448-1.28.5zM1104.4 398.45a2.55 2.55 0 0 1-2.06-1.41 2.47 2.47 0 0 1-.11-1.916c.223-.626.693-1.137 1.3-1.414 7.2-3.37 8.55-4.93 10.78-7.5 2.562-3.013 5.43-5.75 8.56-8.17 10.2-8.12 24.17-7.8 35.4-7.56 5.98.13 11.62.26 13.73-1.18 15.62-10.66 7.04-27.4 6.67-28.1-.3-.6-.37-1.28-.165-1.915a2.47 2.47 0 0 1 1.255-1.455 2.59 2.59 0 0 1 3.44 1.07c.1.2 11.07 21.3-8.26 34.5-3.47 2.37-9.34 2.24-16.76 2.07-10.4-.23-23.34-.52-32.07 6.44a51.86 51.86 0 0 0-7.9 7.54c-2.74 3.15-4.67 5.12-12.46 8.77a2.6 2.6 0 0 1-1.36.23zM5.494 746.063c-1.87.25-3.73-.516-4.882-2.008-1.312-1.913-.444-4.317 1.95-5.376 126.092-56.147 193.654-106.586 247.92-147.1l47.183-34.28c17.465-11.985 57.18-24.445 107.47-40.2 87.98-27.6 197.455-61.918 239.4-110.602 17.233-20.017 23.196-40.114 17.677-59.752-11.154-39.766-65.497-65.05-66.037-65.302-2.354-1.075-3.165-3.494-1.814-5.392a5.64 5.64 0 0 1 6.735-1.47c2.393 1.1 58.646 27.3 70.746 70.4 6.137 21.883-.328 44.083-19.2 65.997-43.652 50.676-154.7 85.5-243.944 113.495-47.453 14.88-88.442 27.733-104.633 38.833-15.477 10.6-30.722 21.994-46.875 34.058-54.67 40.8-122.715 91.612-249.868 148.233a5.27 5.27 0 0 1-1.815.474zm231.58 20.017a6.75 6.75 0 0 1-3.4-.558c-2.6-1.22-3.464-3.9-1.924-5.966 82.342-111.8 223.184-170.42 347.455-222.14 58.33-24.28 113.43-47.22 157.477-73.488 78.13-46.626 72.506-109.927 54.032-154.843-.94-2.285.62-4.762 3.485-5.512s5.944.47 6.885 2.756c19.586 47.62 25.444 114.846-57.902 164.577-44.752 26.706-100.238 49.783-158.974 74.238-122.946 51.178-262.313 109.177-343.05 218.808-1 1.242-2.487 2.012-4.084 2.128zm261.955-.046a3.22 3.22 0 0 1-2.258-.55 4.74 4.74 0 0 1-1.278-5.878c54.698-110.175 148.257-167.926 230.8-218.888 38.747-23.925 75.35-46.528 104.6-72.413 38.165-33.774 51.445-80.096 39.514-137.692-.483-2.303.7-4.64 2.656-5.208 1.946-.585 3.906.825 4.4 3.128 8.735 42.128 8.494 101.752-42.227 146.664-29.728 26.315-66.572 49.054-105.603 73.152-81.67 50.43-174.25 107.58-227.882 215.605-.517 1.096-1.534 1.87-2.728 2.08zM721.6 578.7a2.73 2.73 0 0 1-1.02-.08c-.642-.178-1.186-.607-1.5-1.2s-.4-1.27-.2-1.9c4.8-15.7 35.68-32.73 74.8-54.3 42.98-23.7 96.46-53.2 132.14-90.6 22.24-23.3 33.25-49.7 32.73-78.47-.003-1.396 1.114-2.536 2.5-2.56a2.51 2.51 0 0 1 2.6 2.44c.54 30.1-10.94 57.68-34.12 81.98-36.22 37.97-90.1 67.7-133.37 91.57-36.6 20.18-68.2 37.62-72.4 51.36a2.53 2.53 0 0 1-2.15 1.78z" fill="#dcdddb"/><path d="M2111.87 428.946c-.17 0-.338 0-.507-.013-155.5-11.458-317.385-17.768-481.196-18.76-2.6-.013-4.676-1.254-4.657-3.057s2.122-3.005 4.695-3.005h.038c164.1 0 326.324 7.08 482.116 18.565 2.573.196 4.45 1.685 4.17 3.475-.244 1.672-2.272 2.796-4.657 2.796zM1489.5 410.84a2.51 2.51 0 0 1-2.5-2.4 2.6 2.6 0 0 1 2.4-2.7l51.2-1.63a2.59 2.59 0 0 1 2.5 2.55 2.54 2.54 0 0 1-2.45 2.6l-51.05 1.55c-.028.016-.058.026-.1.03zm-155.68 9.9a2.5 2.5 0 0 1-.22-4.99l79.28-6a2.5 2.5 0 0 1 .31 4.99l-79.15 6zM905.5 500.47a2.5 2.5 0 0 1-.8-4.87c.72-.24 72.92-24.48 192.35-52.3a2.5 2.5 0 0 1 1.13 4.87C978.98 475.94 907 500.1 906.3 500.34a2.38 2.38 0 0 1-.79.13z" class="V"/><path d="M816.02 710.5s25.23-97.38 72.7-120.42c0 0-31.03 87.5-63.9 122.87z" transform="translate(0 -212.89)" class="a"/><path d="M820.14 499.5a2.5 2.5 0 0 1-2.21-3.67l45.47-85.97a2.5 2.5 0 0 1 4.329-.159 2.5 2.5 0 0 1 .091 2.499l-45.47 85.97a2.5 2.5 0 0 1-2.21 1.33z" class="V"/><path d="M824.94 713.5s28.15-75.47 67.86-89.9c0 0-31.95 67.1-61.05 92.57z" transform="translate(0 -212.89)" class="a"/><path d="M828.27 502.96a2.54 2.54 0 0 1-1.39-.42 2.5 2.5 0 0 1-.69-3.47l43.32-64.7a2.5 2.5 0 0 1 4.16 2.78l-43.32 64.7a2.49 2.49 0 0 1-2.08 1.11z" class="V"/><path d="M832.2 714.17s23.62-35.24 63.02-33.5c0 0-34.33 36.47-59.6 36.84z" transform="translate(0 -212.89)" class="a"/><path d="M834.23 504.57c-1.12.003-2.107-.742-2.4-1.82s.15-2.228 1.1-2.81L875 474.36a2.5 2.5 0 0 1 3.43.84 2.5 2.5 0 0 1-.84 3.43l-42.06 25.58c-.4.234-.835.36-1.3.36z" class="V"/><path d="M816.47 712.26s-13.7-40.15 11.6-70.44c0 0 8.17 49.42-6.88 69.74z" transform="translate(0 -212.89)" class="a"/><path d="M818.34 500.73c-.1.002-.18-.002-.27-.01a2.5 2.5 0 0 1-2.22-2.75l5.17-48.95a2.5 2.5 0 0 1 2.749-2.213 2.5 2.5 0 0 1 2.221 2.743l-5.17 48.95a2.51 2.51 0 0 1-2.48 2.23z" class="V"/><path d="M794.97 525.43l-13.42 13.44 27.36 15.84 6.15-26.1-20.1-3.2z" fill="url(#C)"/><path d="M686.24 280.6c-7.53 8.32-44.75-13.07-83.13-47.8-38.4-34.7-63.4-69.6-55.88-77.92 7.52-8.32 44.75 13.07 83.13 47.8 38.38 34.7 63.4 69.6 55.88 77.92z" class="V"/><path d="M549.25 156.38L406.52 314.2s-18.4 24.72 1.74 42.93l93.44 84.5s21.96 17.37 41.76-4.52L685.73 279.8s-80.48-15.38-136.48-123.42z" fill="#fff"/><path d="M520.92 451.1h0c-11.7 0-20.4-7-20.78-7.3-.04-.03-.08-.18-.13-.22l-93.44-84.55c-8.96-8.1-12.13-18.76-9.17-30.77 1.416-5.564 3.82-10.827 7.1-15.54.05-.06.1-.13.15-.2L547.4 154.7c.546-.61 1.36-.91 2.17-.8a2.52 2.52 0 0 1 1.9 1.33c28.67 55.32 63.88 85.6 88.36 101.26 26.4 16.9 46.16 20.8 46.36 20.84.887.17 1.614.804 1.9 1.66s.087 1.8-.52 2.47L545.3 439c-7.13 7.9-15.33 12.1-24.38 12.1zm-17.62-11.17c.7.52 8.14 6.17 17.62 6.17h0c7.58 0 14.54-3.66 20.68-10.45l139.46-154.33c-7.34-2.04-23.65-7.6-43.92-20.57-24.52-15.7-59.56-45.73-88.44-100.02L408.46 315.8a43.45 43.45 0 0 0-6.24 13.79c-2.47 10.2.12 18.95 7.7 25.8z" class="V"/><path d="M810.1 873.93l-32.07-118.7s-1.7-19.1-25.3-33.82l-66.12-40.97a85.95 85.95 0 0 0 10.17-13.89l-126.62-56.32-33.66 34.64s-24.9 32.6-.84 58.32c24.8 26.53 69.83 70.14 69.83 70.14s10.6 10.32 5.97 20.6l-23.1 117.04s5.05 13.03 18.14 17.02 59.6 9.8 73.84 8.97c0 0-11.33-22.66-19.4-30.27l21.9-121.25a48.34 48.34 0 0 0 2.03-22.91l11.13 6.9s21.37 7.15 26.2 24.64 23 98.3 23 98.3 11.38 18.37 28.08 18.02 70.27-4.15 70.27-4.15-22.36-26.6-33.5-32.28z" transform="translate(0 -212.89)" fill="url(#D)"/><path d="M682.87 575.04a2.66 2.66 0 0 1-.91-.17 2.5 2.5 0 0 1-1.42-3.24c.38-1 8.66-23.2-7.33-40.74-17.13-18.8-43.7-49.92-43.95-50.23a2.51 2.51 0 0 1-.17-3.03l6.13-9a2.5 2.5 0 0 1 3.47-.66 2.5 2.5 0 0 1 .66 3.47l-5.06 7.44 42.6 48.66c18.14 19.9 8.7 44.87 8.3 45.93a2.5 2.5 0 0 1-2.32 1.58z" class="V"/><path d="M588.37 698.07l11.85-60.04 70.7.6-9.97 55.17c8.07 7.62 19.4 30.27 19.4 30.27l-95.4-6.66z" fill="#fff"/><path d="M680.36 726.1c-.06 0-.12.23-.17.22l-95.4-6.55a2.45 2.45 0 0 1-1.8-.9c-.44-.544-.618-1.253-.5-1.94l3.4-19.32 11.86-60.3c.213-1.213 1.222-2.127 2.45-2.22h.01l70.7.8a2.6 2.6 0 0 1 1.9 1.01 2.63 2.63 0 0 1 .54 2.09l-9.74 53.9c7.77 8.13 17.5 27.15 18.8 29.75a1.85 1.85 0 0 1 .42 1.16c-.01.64-.284 1.25-.757 1.68s-1.104.65-1.743.6c-.005.006-.012.01-.02.01zm-92.45-11l88.17 6.15c-3.58-6.74-11.17-20.3-16.84-25.65-.61-.58-.89-1.43-.74-2.26l9.44-52.25-65.67-.55-11.45 58z" class="V"/><path d="M745.23 679.46l-11.84-51.94 63.06-16.96 13.64 50.48c11.13 5.7 33.48 32.3 33.48 32.3l-94.2 7.3z" fill="#fff"/><g class="V"><path d="M749.38 703.13c-1.194-.003-2.22-.848-2.45-2.02l-4.16-21.17a9038.76 9038.76 0 0 0-11.82-51.86 2.51 2.51 0 0 1 1.79-2.98l63.06-16.96a2.5 2.5 0 0 1 3.06 1.76l13.36 49.46c11.67 6.76 32.36 31.3 33.26 32.37a2.5 2.5 0 0 1-1.72 4.1l-94.2 7.3a1.16 1.16 0 0 1-.19.01zm-13-73.83l11.3 49.6 3.74 19.05 87.04-6.74c-6.52-7.44-21.38-23.8-29.5-27.96-.628-.318-1.1-.9-1.27-1.57l-13-48.07zM644 699.36a2.5 2.5 0 0 1-.44-4.96l16.96-3.06a2.5 2.5 0 0 1 2.9 2.02 2.5 2.5 0 0 1-2.02 2.9l-16.96 3.06c-.146.023-.293.036-.44.04z"/><path d="M796.13 674.36c-1.07 0-2.02-.68-2.37-1.7s-.015-2.132.83-2.8l13.96-10.82a2.5 2.5 0 0 1 4.023 1.63 2.5 2.5 0 0 1-.953 2.32l-13.96 10.82c-.436.343-.975.53-1.53.53z"/></g><path d="M730.96 354.74l-13.37 84.5s-3.7 17.45 7.68 24.9c11.4 7.46 65.67 30.88 65.67 30.88l23.3-30.23-50.66-25.4 11.53-75.76s-4.83-22.76-18.68-26.3" class="b"/><path d="M790.94 497.52a2.65 2.65 0 0 1-.99-.2c-2.22-.96-54.6-23.6-66.05-31.08-12.42-8.13-9.07-26-8.77-27.45l13.36-84.43a2.5 2.5 0 0 1 4.043-1.555 2.5 2.5 0 0 1 .897 2.335l-13.37 84.5c-.012.042-.018.086-.02.13-.03.15-3.2 15.88 6.6 22.3 9.94 6.5 54.06 25.8 63.5 29.9l20.26-26.3-47.95-24.04c-.967-.487-1.51-1.54-1.35-2.6l11.46-75.3c-.73-3-5.54-21.1-16.76-24a2.5 2.5 0 0 1-1.786-3.036 2.5 2.5 0 0 1 3.026-1.804c15.2 3.9 20.3 27.22 20.5 28.2.06.293.07.594.03.9l-11.26 73.96 49.03 24.58c.67.334 1.154.95 1.32 1.68s0 1.492-.46 2.08l-23.3 30.23c-.473.622-1.21.988-2 1z" class="V"/><path d="M717.45 440.7l46.2-1.38 3.52-23.45-45.46-1.4-4.25 26.23z" fill="url(#E)"/><path d="M745.97 500.55l25.54 14.56s21.55 15.3 33.35 16.52c11.8 1.23 34.3-23.06 34.3-23.06s-18.68-11.7-35.84-7.4l5.1-1.36c5.1-1.36 8.72-7.2 8.72-7.2-9.24-4.87-29.85-1.4-29.85-1.4l-16.9-13.03" class="b"/><g class="V"><path d="M805.7 534.18c-.374 0-.748-.02-1.12-.06-12-1.25-32.6-15.6-34.44-16.9l-25.43-14.5a2.5 2.5 0 0 1-.929-3.41 2.5 2.5 0 0 1 3.409-.93l25.53 14.56c.07.04.14.1.2.13.2.15 21.16 14.93 32.16 16.08 2.36.25 8.05-.8 19.67-10.47 4.27-3.56 8.04-7.2 10.3-9.5-5.62-2.9-18.96-8.63-31.17-5.58a2.5 2.5 0 0 1-3.024-1.8 2.5 2.5 0 0 1 1.774-3.04l5.1-1.36c2.082-.712 3.93-1.982 5.34-3.67-7.75-2.2-20.57-.85-25.4-.03a2.49 2.49 0 0 1-1.94-.48l-16.9-13.03c-1.096-.845-1.3-2.42-.455-3.515s2.42-1.3 3.515-.455l16.06 12.37c4.53-.67 21.63-2.78 30.34 1.8a2.5 2.5 0 0 1 .96 3.53c-.947 1.46-2.05 2.8-3.3 4.03 13.02 1.4 23.9 8.1 24.5 8.48.63.396 1.052 1.053 1.15 1.8s-.136 1.482-.64 2.03a152.94 152.94 0 0 1-12.95 12.21c-9.3 7.77-16.8 11.7-22.3 11.7z"/><path d="M804 512.06c-1.278-.004-2.348-.97-2.482-2.242a2.5 2.5 0 0 1 1.962-2.708l24.17-5.18a2.501 2.501 0 0 1 1.05 4.89L804.52 512a2.46 2.46 0 0 1-.53.06zm6.03 8.68c-1.28-.001-2.35-.968-2.48-2.24a2.5 2.5 0 0 1 1.97-2.7l23.53-5a2.5 2.5 0 0 1 2.904 3.223 2.5 2.5 0 0 1-1.874 1.667l-23.53 5a3.05 3.05 0 0 1-.52.05z"/></g><path d="M714.82 301.2s-36.72-9.63-71.5 14.8l-71.52 79.34 92.83 53.5 43.42 23.33 60.75-120.73s.75-13.74-14.34-22.03l-12.44 12.5-25.7-40.7" class="b"/><path d="M708.06 474.7c-.412.002-.818-.102-1.18-.3l-43.42-23.33-92.9-53.55a2.5 2.5 0 0 1-.61-3.84l71.52-79.34a2.48 2.48 0 0 1 .42-.37c35.3-24.82 72.02-15.6 73.56-15.18a5.05 5.05 0 0 0 .2.06c1.064-.3 2.2.134 2.8 1.07l24.03 38.05 10.23-10.3a2.5 2.5 0 0 1 2.98-.43c16.28 8.94 15.67 23.74 15.63 24.36a2.54 2.54 0 0 1-.26 1L710.3 473.32c-.303.603-.837 1.057-1.48 1.26a2.45 2.45 0 0 1-.76.12zm-132.32-79.97l90.15 51.97 41.1 22.08 59.34-117.92c-.04-2.23-.88-11.66-11.44-18.3l-11.1 11.14a2.5 2.5 0 0 1-2.048.72 2.51 2.51 0 0 1-1.842-1.15l-25-39.58a2.64 2.64 0 0 1-.73-.08c-.5-.13-35.96-8.92-69.2 14.28zm256-89.8h0c-17.6 0-41.67-7.36-71.54-21.88-32.98-16.03-72.08-40.18-71-64.26.44-9.7 7.5-15.46 10.85-16.73a67.3 67.3 0 0 1 23.91-4.05c33.17 0 68.86 18.92 87.2 30.2 25.47 15.68 46.54 34.35 50.1 44.4 2 5.64 2.32 14.2-2.75 21.38-3.53 5-11.05 10.95-26.77 10.95zM723.98 203a62.27 62.27 0 0 0-22.14 3.73c-4.56 2.43-7.472 7.115-7.63 12.28-1 22.5 42.28 46.95 68.18 59.54 29.2 14.18 52.52 21.37 69.36 21.37 10.75 0 18.6-3.06 22.68-8.84 3.97-5.62 3.62-12.57 2.12-16.83C850.9 258.3 779.33 203 723.98 203z" class="V"/><path d="M740.8 232.1s38.27 35.05 78.3 34.8c0 0 29.37-43.94-19.3-66.78-48.65-22.85-59 32-59 32z" fill="#fff"/><path d="M818.65 269.1c-40.37 0-77.96-33.86-79.54-35.3-.638-.556-.93-1.41-.77-2.24.08-.4 7.84-39.56 39.58-39.56 7.03 0 14.75 1.97 22.95 5.82 15.18 7.12 24.62 17.02 28.07 29.4 5.72 20.54-7.2 40.08-7.76 40.9-.473.658-1.25 1.028-2.06.98zm-75.1-37.9c6.35 5.47 39.72 32.68 74.14 33.18 2.5-4.27 10.8-20.1 6.4-35.84-3.04-10.9-11.58-19.7-25.37-26.17-7.53-3.54-14.54-5.33-20.83-5.33-24.45 0-32.74 27.64-34.35 34.16z" class="V"/><path d="M744.73 219.97s48.86 34.2 80.5 33.72" fill="#fff"/><path d="M824.56 256.2c-13.46 0-31.15-5.7-52.6-16.97a298.98 298.98 0 0 1-28.66-17.2c-1.122-.796-1.4-2.35-.6-3.475s2.34-1.406 3.47-.625c.48.34 47.92 33.23 78.4 33.23.2 0 .42-.04.62-.04h.04a2.53 2.53 0 0 1 2.499 2.51 2.53 2.53 0 0 1-2.459 2.55c-.23 0-.47.02-.7.02zm-113.46 3l13.7 9.8s-1.3 9.44 4.1 12.87l-5.3 10.1c-.01 0-14.55-15.2-12.5-32.76zm57.06 71.96a23.01 23.01 0 0 1-6.3-.88c-21.78-6.1-30.47-27.74-30.83-28.65a2.5 2.5 0 1 1 4.66-1.82c.08.2 8.2 20.24 27.53 25.66 18.7 5.25 33.2-21.1 33.34-21.38a2.501 2.501 0 1 1 4.4 2.38 66.75 66.75 0 0 1-10.74 14.08c-7.1 7.02-14.62 10.6-22.05 10.6zm13.94-20.4a2.54 2.54 0 0 1-1.08-.24l-7.86-3.74a2.5 2.5 0 0 1-1.18-3.33 2.5 2.5 0 0 1 3.33-1.18l5.42 2.58 5.06-13.25a2.501 2.501 0 1 1 4.67 1.79l-6.03 15.77a2.51 2.51 0 0 1-1.41 1.43 2.59 2.59 0 0 1-.92.17zm-40-32.04l8.72 4.97-10.93 7.1 2.2-12.07z" class="V"/><path d="M556.24 411.48S636 419.72 669 398.28l-7.85 27.5s-76.73 18.86-124.65 6.2z" class="b"/><path d="M576.44 438.85c-15.73 0-29.38-1.5-40.57-4.46-.858-.225-1.532-.888-1.77-1.742s-.006-1.77.61-2.408l19.74-20.5a2.47 2.47 0 0 1 2.06-.75c.15.01 15.18 1.54 34.55 1.54 24.87 0 58.34-2.5 76.6-14.35.876-.566 2.012-.53 2.85.1s1.205 1.696.92 2.7l-7.85 27.5a2.51 2.51 0 0 1-1.81 1.74c-.44.1-43.78 10.63-85.32 10.63zm-35.1-8.28a166.2 166.2 0 0 0 35.11 3.29c36.77 0 75-8.38 82.7-10.16l5.77-20.22c-19.85 9.88-50.6 12.07-73.87 12.07-16.46 0-29.85-1.1-33.84-1.45z" class="V"/><path d="M692.2 298.25s44.78 30.65 30.88 67.74l1.6 34.03s40.65-72.93-12.9-101.25z" class="b"/><path d="M724.7 402.52c-.192.001-.384-.022-.57-.07-1.09-.255-1.877-1.202-1.93-2.32l-1.6-34.03c-.017-.34.037-.68.16-1 13.04-34.8-29.52-64.5-29.95-64.8a2.5 2.5 0 0 1 1.48-4.56l19.6.52c.384.01.76.1 1.1.3 13.54 7.16 22.46 17.72 26.5 31.38 5.1 17.18 1.38 36.22-2.63 49.17a137.84 137.84 0 0 1-9.96 24.13 2.55 2.55 0 0 1-2.2 1.29zm.92-36.14l1.1 23.6c5.7-13.2 14.4-38.85 7.95-60.62-3.6-12.14-11.52-21.6-23.54-28.1l-11.4-.3a104.4 104.4 0 0 1 15.11 15.74c12.8 16.62 16.52 33.8 10.78 49.68z" class="V"/><path d="M674 371.68l-14.2 75.4s.56 21.03 14.2 29.95 78.37 42.93 78.37 42.93l31.3-50.06-52.6-30.13 10.55-82.7s-.16-30.8-30.34-31.72" class="b"/><path d="M752.36 522.46c-.405.001-.803-.098-1.16-.3-2.65-1.4-65-34.16-78.57-43.05-14.56-9.53-15.3-31.06-15.32-31.98-.002-.177.012-.355.04-.53l14.2-75.4a2.5 2.5 0 0 1 4.085-1.429 2.5 2.5 0 0 1 .825 2.359l-14.15 75.12c.12 2.3 1.45 20.1 13.05 27.68 12 7.87 64.98 35.86 76.1 41.73l28.7-45.9-50.34-28.84a2.49 2.49 0 0 1-1.24-2.49l10.52-82.54c-.06-2.47-1.3-28.26-27.92-29.08-.868.02-1.677-.437-2.108-1.19s-.416-1.682.04-2.42 1.28-1.168 2.147-1.12h.08c32.22 1 32.76 33.73 32.77 34.07-.002.087-.008.174-.02.26l-10.34 81.02 51.15 29.28a2.49 2.49 0 0 1 .88 3.48l-31.3 50.06a2.47 2.47 0 0 1-2.12 1.19z" class="V"/><path d="M659.82 442.97l69.85-1.67 4.87-32.44-68.83-2.12-5.9 36.23z" fill="url(#E)"/><g class="V"><path d="M656.778 607.404l5.03-27.544 19.674 3.592-5.03 27.544z"/><path d="M661.72 585.4c-.347-.001-.7-.073-1-.2l-3.6-1.6c-1.265-.558-1.838-2.035-1.28-3.3s2.035-1.838 3.3-1.28l3.6 1.6a2.5 2.5 0 0 1-1.01 4.79zm-8.52 20.35c-1.3-.003-2.396-1.016-2.5-2.323s.834-2.465 2.13-2.657l4.95-.73a2.5 2.5 0 1 1 .73 4.95l-4.95.73a2.29 2.29 0 0 1-.37.03zm5.7-7.15a2.28 2.28 0 0 1-.45-.04l-3.94-.72a2.501 2.501 0 1 1 .9-4.92l3.94.72a2.5 2.5 0 0 1-.45 4.96zm1.67-6.9a2.47 2.47 0 0 1-.92-.18l-4.35-1.73c-1.284-.5-1.9-1.966-1.4-3.25s1.966-1.9 3.25-1.4l4.35 1.73c1.116.445 1.76 1.62 1.532 2.8s-1.26 2.032-2.462 2.03z"/></g><g clip-path="url(#F)"><path d="M547.07 423.3s48.43-88.17 100.12-98.8c0 0-51.62 77.15-92.2 103.35z" transform="translate(0 -212.89)" class="a"/><path d="M551.22 213.3a2.47 2.47 0 0 1-1.68-.65 2.51 2.51 0 0 1-.18-3.53L614.6 137a2.5 2.5 0 0 1 4.233.906 2.5 2.5 0 0 1-.523 2.444l-65.23 72.13c-.467.532-1.142.835-1.85.83z" class="V"/><path d="M554.98 428.4s45.86-66.22 87.9-70.42c0 0-47.5 57.17-81.96 74.7z" transform="translate(0 -212.89)" class="a"/><use xlink:href="#J" class="V"/><path d="M587.07 443.3s48.43-88.17 100.12-98.8c0 0-51.62 77.15-92.2 103.35z" transform="translate(0 -212.89)" class="a"/><path d="M591.22 233.3a2.47 2.47 0 0 1-1.68-.65 2.51 2.51 0 0 1-.18-3.53L654.6 157a2.5 2.5 0 0 1 4.233.906 2.5 2.5 0 0 1-.523 2.444l-65.23 72.13c-.467.532-1.142.835-1.85.83z" class="V"/><path d="M594.98 448.4s45.86-66.22 87.9-70.42c0 0-47.5 57.17-81.96 74.7z" transform="translate(0 -212.89)" class="a"/><path d="M598.25 238.67a2.5 2.5 0 0 1-1.67-4.36l57.92-52.05a2.5 2.5 0 0 1 3.34 3.72l-57.92 52.05c-.457.415-1.053.643-1.67.64z" class="V"/><path d="M597.07 494.3s48.43-88.17 100.12-98.8c0 0-51.62 77.15-92.2 103.35z" transform="translate(0 -212.89)" class="a"/><path d="M601.22 284.3a2.47 2.47 0 0 1-1.68-.65 2.51 2.51 0 0 1-.18-3.53L664.6 208a2.5 2.5 0 0 1 4.233.906 2.5 2.5 0 0 1-.523 2.444l-65.23 72.13c-.467.532-1.142.835-1.85.83z" class="V"/><path d="M604.98 499.4s45.86-66.22 87.9-70.42c0 0-47.5 57.17-81.96 74.7z" transform="translate(0 -212.89)" class="a"/><path d="M608.25 289.67a2.5 2.5 0 0 1-1.67-4.36l57.92-52.05a2.5 2.5 0 0 1 3.34 3.72l-57.92 52.05c-.457.415-1.053.643-1.67.64z" class="V"/></g><path d="M1168,750.43s-24.45-77.65-1.75-113.82c0,0,16.22,73.35,8.84,111.72Z" transform="translate(0 -212.89)" class="W"/><use xlink:href="#K" class="V"/><path d="M1169.75 749.5s-1.12-65.17 24.53-87.78c0 0-4.22 60-18.6 87.8z" transform="translate(0 -212.89)" class="W"/><use xlink:href="#L" class="V"/><path d="M1182.73 748.5s-3.4-34.16 22.08-53.38c0 0-2.65 40.44-18.24 53.7z" transform="translate(0 -212.89)" class="W"/><use xlink:href="#M" class="V"/><path d="M1163.84 753.33s-28.9-18.54-28.13-50.45c0 0 30.06 27.2 30.76 47.64z" transform="translate(0 -212.89)" class="W"/><g class="V"><use xlink:href="#N"/><use xlink:href="#O"/></g><path d="M1541.33,750.43s-24.45-77.65-1.75-113.82c0,0,16.22,73.35,8.84,111.72Z" transform="translate(0 -212.89)" class="W"/><use xlink:href="#P" class="V"/><path d="M1543.08 749.5s-1.12-65.17 24.53-87.78c0 0-4.22 60-18.6 87.8z" transform="translate(0 -212.89)" class="W"/><use xlink:href="#L" x="373.35" class="V"/><path d="M1556.07 748.5s-3.4-34.16 22.08-53.38c0 0-2.65 40.44-18.24 53.7z" transform="translate(0 -212.89)" class="W"/><use xlink:href="#M" x="373.35" class="V"/><path d="M1537.18 753.33s-28.9-18.54-28.13-50.45c0 0 30.06 27.2 30.76 47.64z" transform="translate(0 -212.89)" class="W"/><g class="V"><use xlink:href="#Q"/><use xlink:href="#R"/></g><path d="M1367.58,746.43s24.45-77.65,1.75-113.82c0,0-16.22,73.35-8.84,111.72Z" transform="translate(0 -212.89)" class="W"/><use xlink:href="#S" class="V"/><path d="M1365.83 745.5s1.12-65.17-24.53-87.78c0 0 4.22 60 18.6 87.8z" transform="translate(0 -212.89)" class="W"/><use xlink:href="#T" class="V"/><path d="M1352.85 744.5s3.4-34.16-22.08-53.38c0 0 2.65 40.44 18.24 53.7z" transform="translate(0 -212.89)" class="W"/><use xlink:href="#U" class="V"/><path d="M1371.74 749.33s28.9-18.54 28.13-50.45c0 0-30.06 27.2-30.76 47.64z" transform="translate(0 -212.89)" class="W"/><g class="V"><use xlink:href="#V"/><use xlink:href="#W"/></g><path d="M1228 920s-30.2-95.96-2.16-140.65c0 0 20.05 90.64 10.93 138.06z" transform="translate(0 -212.89)" class="W"/><use xlink:href="#X" class="V"/><path d="M1230.16 918.85s-1.38-80.54 30.3-108.47c0 0-5.2 74.14-23 108.48z" transform="translate(0 -212.89)" class="W"/><use xlink:href="#Y" class="V"/><path d="M1241.05 916.13s20.55-37.1 59.96-38.72c0 0-31.12 39.24-56.28 41.75z" transform="translate(0 -212.89)" class="W"/><use xlink:href="#Z" class="V"/><path d="M1222.86 923.6s-35.7-22.9-34.76-62.35c0 0 37.14 33.6 38 58.87z" transform="translate(0 -212.89)" class="W"/><g class="V"><use xlink:href="#a"/><ellipse cx="1236.6" cy="709.61" rx="39.4" ry="8"/></g><path d="M1413 920s-30.2-95.96-2.16-140.65c0 0 20.05 90.64 10.93 138.06z" transform="translate(0 -212.89)" class="W"/><use xlink:href="#X" x="185" class="V"/><path d="M1415.16 918.85s-1.38-80.54 30.3-108.47c0 0-5.2 74.14-23 108.48z" transform="translate(0 -212.89)" class="W"/><use xlink:href="#Y" x="185" class="V"/><path d="M1426.05 916.13s20.55-37.1 59.96-38.72c0 0-31.12 39.24-56.28 41.75z" transform="translate(0 -212.89)" class="W"/><use xlink:href="#Z" x="185" class="V"/><path d="M1407.86 923.6s-35.7-22.9-34.76-62.35c0 0 37.14 33.6 38 58.87z" transform="translate(0 -212.89)" class="W"/><g class="V"><use xlink:href="#a" x="185"/><ellipse cx="1421.6" cy="709.61" rx="39.4" ry="8"/></g><path d="M1624.1 920s30.2-95.96 2.16-140.65c0 0-20.05 90.64-10.93 138.06z" transform="translate(0 -212.89)" class="W"/><use xlink:href="#b" class="V"/><path d="M1621.94 918.85s1.38-80.54-30.3-108.47c0 0 5.2 74.14 23 108.48z" transform="translate(0 -212.89)" class="W"/><use xlink:href="#c" class="V"/><path d="M1611.05 916.13s-20.55-37.1-59.96-38.72c0 0 31.12 39.24 56.28 41.75z" transform="translate(0 -212.89)" class="W"/><path d="M1608.95 706.35c-.528-.001-1.043-.17-1.47-.48l-39.74-29.05c-.72-.527-1.104-1.398-1.008-2.285s.66-1.655 1.475-2.015 1.763-.257 2.483.27l39.74 29.05c.873.638 1.236 1.765.898 2.793s-1.297 1.72-2.378 1.717z" class="V"/><path d="M1629.24 923.6s35.7-22.9 34.76-62.35c0 0-37.14 33.6-38 58.87z" transform="translate(0 -212.89)" class="W"/><g class="V"><path d="M1628.5 711.14c-.474-.002-.94-.137-1.34-.4-.56-.355-.956-.918-1.1-1.565s-.025-1.325.33-1.885l26.4-41.54a2.5 2.5 0 0 1 4.359.156 2.5 2.5 0 0 1-.139 2.524l-26.4 41.54a2.48 2.48 0 0 1-2.11 1.16z"/><ellipse cx="1615.5" cy="709.61" rx="39.4" ry="8"/></g><path d="M1117.34,642.45s-18.65-59.23-1.34-86.82c0,0,12.38,55.95,6.75,85.22Z" transform="translate(0 -212.89)" class="W"/><use xlink:href="#d" class="V"/><path d="M1118.67 641.74s-.85-49.7 18.7-66.96c0 0-3.2 45.76-14.2 66.96z" transform="translate(0 -212.89)" class="W"/><use xlink:href="#e" class="V"/><path d="M1128.57 640.98s-2.6-26.05 16.84-40.7c0 0-2.02 30.85-13.9 40.96z" transform="translate(0 -212.89)" class="W"/><use xlink:href="#f" class="V"/><path d="M1114.16 644.66s-22.03-14.14-21.45-38.5c0 0 22.93 20.74 23.46 36.34z" transform="translate(0 -212.89)" class="W"/><g class="V"><use xlink:href="#g"/><use xlink:href="#h"/></g><path d="M1402.1,642.45s-18.65-59.23-1.33-86.82c0,0,12.37,55.95,6.74,85.22Z" transform="translate(0 -212.89)" class="W"/><use xlink:href="#i" class="V"/><path d="M1403.43 641.74s-.85-49.7 18.7-66.96c0 0-3.22 45.76-14.2 66.96z" transform="translate(0 -212.89)" class="W"/><use xlink:href="#j" class="V"/><path d="M1413.34 640.98s-2.6-26.05 16.84-40.7c0 0-2.02 30.85-13.9 40.96z" transform="translate(0 -212.89)" class="W"/><use xlink:href="#k" class="V"/><path d="M1398.93 644.66s-22.03-14.14-21.45-38.5c0 0 22.93 20.74 23.46 36.34z" transform="translate(0 -212.89)" class="W"/><g class="V"><use xlink:href="#l"/><use xlink:href="#m"/></g><path d="M1269.57,639.4s18.65-59.23,1.33-86.82c0,0-12.37,55.95-6.74,85.22Z" transform="translate(0 -212.89)" class="W"/><path d="M1267.62 427.33a1.09 1.09 0 0 1-.18-.01c-.66-.048-1.275-.356-1.708-.857s-.65-1.153-.602-1.813l4.32-59.87c.1-1.374 1.296-2.406 2.67-2.307s2.408 1.293 2.3 2.667L1270.1 425a2.5 2.5 0 0 1-2.49 2.32z" class="V"/><path d="M1268.24 638.7s.85-49.7-18.7-66.96c0 0 3.22 45.76 14.2 66.96z" transform="translate(0 -212.89)" class="W"/><use xlink:href="#n" class="V"/><path d="M1258.33 637.93s2.6-26.05-16.84-40.7c0 0 2.02 30.85 13.9 40.95z" transform="translate(0 -212.89)" class="W"/><use xlink:href="#o" class="V"/><path d="M1272.74 641.6s22.03-14.14 21.45-38.5c0 0-22.93 20.74-23.46 36.34z" transform="translate(0 -212.89)" class="W"/><g class="V"><use xlink:href="#p"/><use xlink:href="#q"/><use xlink:href="#r"/><use xlink:href="#s"/><use xlink:href="#t"/><use xlink:href="#u"/><use xlink:href="#v"/><use xlink:href="#w"/><use xlink:href="#x"/><use xlink:href="#y"/></g><path d="M777.18 724.65c1.83.05 2.3 6.07 9.1 5.74s6.05-6.02 12.67-6.2 3.77 6.94 10.44 7.28 4.85-6.24 10.7-6.75c5.84-.5 4.84 6.3 10.17 6.45 5.34.14 4.82-5.83 11.33-5.94s5.4 5.87 11.54 6.2 3.95-6.4 9.8-6.43 4.9 6.3 10.97 6.62" stroke="#161616" stroke-linecap="round" stroke-linejoin="round" stroke-width="5" class="Z"/><g class="V"><path d="M1100.93 714.1h-.13c-4.16-.22-6.03-2.82-7.4-4.58-1.23-1.58-1.8-2.42-3.42-2.42h-.02c-1.38 0-1.67.6-2.58 2.18-1 1.75-2.68 4.77-7.37 4.53a9.41 9.41 0 0 1-7.29-3.95c-1.2-1.4-1.87-2.17-3.93-2.17-.05 0-.1.01-.15.01-2.3.04-3.16 1-4.46 2.43-1.35 1.5-3.2 3.53-6.74 3.53h-.24c-3.83-.1-5.6-2.65-6.75-4.34-1.18-1.7-1.62-2.24-3.14-2.12-1.5.13-1.97.76-3 2.3-1.24 1.87-3.07 4.68-8.05 4.46-4.73-.24-6.27-3.17-7.3-5.1-.9-1.7-1.18-2.22-2.95-2.16-2.3.06-3.2.95-4.57 2.3a11.04 11.04 0 0 1-8.04 3.88c-5.16.25-14.27-.66-19.72-1.2l-3.64-.33c-.662-.017-1.3-.296-1.746-.776s-.702-1.122-.684-1.784c.006-.665.283-1.3.765-1.757s1.13-.7 1.795-.673c.56.01 1.7.12 4 .35 4.96.5 14.2 1.4 18.98 1.18 2.44-.12 3.36-1.04 4.76-2.43 1.63-1.63 3.67-3.65 7.97-3.76 4.88-.13 6.46 2.85 7.5 4.83.88 1.67 1.24 2.36 3.13 2.45 2.1.1 2.55-.58 3.63-2.22 1.1-1.66 2.76-4.18 6.72-4.53 4.48-.4 6.42 2.4 7.7 4.26 1.1 1.62 1.57 2.15 2.76 2.18 1.37.05 1.92-.52 3.15-1.88 1.52-1.68 3.6-4 8.08-4.07h.22c4.37 0 6.32 2.28 7.74 3.94 1.15 1.34 1.84 2.15 3.75 2.25 1.6.1 1.88-.57 2.78-2.13 1.03-1.8 2.6-4.68 6.9-4.68h.03c4.15 0 6 2.6 7.37 4.36 1.24 1.6 1.9 2.46 3.7 2.56a2.55 2.55 0 0 1-.13 5.09z"/><use xlink:href="#z"/><use xlink:href="#z" x="7" y="-7"/><use xlink:href="#AA"/><use xlink:href="#AA" x="-7.47" y="-6.49"/><use xlink:href="#z" x="28" y="-30"/><use xlink:href="#z" x="35" y="-37"/><use xlink:href="#AB"/><use xlink:href="#AA" x="20.53" y="-36.49"/><use xlink:href="#AC"/><use xlink:href="#AC" x="7" y="-7"/><use xlink:href="#AB" x="28" y="-30"/><use xlink:href="#AA" x="48.53" y="-66.49"/><use xlink:href="#AC" x="28" y="-30"/><use xlink:href="#AC" x="35" y="-37"/><use xlink:href="#AB" x="56" y="-60"/><use xlink:href="#AA" x="76.53" y="-96.49"/><use xlink:href="#z" x="29"/><use xlink:href="#z" x="36" y="-7"/><use xlink:href="#AB" x="1" y="30"/><use xlink:href="#AA" x="21.53" y="-6.49"/><use xlink:href="#z" x="57" y="-30"/><use xlink:href="#z" x="64" y="-37"/><use xlink:href="#AB" x="29"/><use xlink:href="#AA" x="49.53" y="-36.49"/><use xlink:href="#AC" x="29"/><use xlink:href="#AC" x="36" y="-7"/><use xlink:href="#AB" x="57" y="-30"/><use xlink:href="#AA" x="77.53" y="-66.49"/><use xlink:href="#AC" x="57" y="-30"/><use xlink:href="#AC" x="64" y="-37"/><use xlink:href="#AB" x="85" y="-60"/><use xlink:href="#AA" x="105.53" y="-96.49"/><use xlink:href="#z"/><use xlink:href="#z" x="7" y="-7"/><use xlink:href="#AA"/><use xlink:href="#AA" x="-7.47" y="-6.49"/><use xlink:href="#z" x="28" y="-30"/><use xlink:href="#z" x="35" y="-37"/><use xlink:href="#AB"/><use xlink:href="#AA" x="20.53" y="-36.49"/><use xlink:href="#AC"/><use xlink:href="#AC" x="7" y="-7"/><use xlink:href="#AB" x="28" y="-30"/><use xlink:href="#AA" x="48.53" y="-66.49"/><use xlink:href="#AC" x="28" y="-30"/><use xlink:href="#AC" x="35" y="-37"/><use xlink:href="#AB" x="56" y="-60"/><use xlink:href="#AA" x="76.53" y="-96.49"/><use xlink:href="#z" x="29"/><use xlink:href="#z" x="36" y="-7"/><use xlink:href="#AB" x="1" y="30"/><use xlink:href="#AA" x="21.53" y="-6.49"/><use xlink:href="#AA" x="1" y="28"/><use xlink:href="#AA" x="-6.47" y="21.51"/><use xlink:href="#z" x="57" y="-30"/><use xlink:href="#z" x="64" y="-37"/><use xlink:href="#AB" x="29"/><use xlink:href="#AA" x="49.53" y="-36.49"/><use xlink:href="#AC" x="29"/><use xlink:href="#AC" x="36" y="-7"/><use xlink:href="#AB" x="57" y="-30"/><use xlink:href="#AA" x="77.53" y="-66.49"/><use xlink:href="#AC" x="57" y="-30"/><use xlink:href="#AC" x="64" y="-37"/><use xlink:href="#AB" x="85" y="-60"/><use xlink:href="#AA" x="105.53" y="-96.49"/><use xlink:href="#z" x="31" y="28"/><use xlink:href="#z" x="38" y="21"/><use xlink:href="#AB" x="3" y="58"/><use xlink:href="#AA" x="23.53" y="21.51"/><use xlink:href="#z" x="59" y="-2"/><use xlink:href="#z" x="66" y="-9"/><use xlink:href="#AB" x="31" y="28"/><use xlink:href="#AA" x="51.53" y="-8.49"/><use xlink:href="#z" x="87" y="-32"/><use xlink:href="#z" x="94" y="-39"/><use xlink:href="#AB" x="59" y="-2"/><use xlink:href="#AA" x="79.53" y="-38.49"/><use xlink:href="#AC" x="59" y="-2"/><use xlink:href="#AC" x="66" y="-9"/><use xlink:href="#AB" x="87" y="-32"/><use xlink:href="#AA" x="107.53" y="-68.49"/><use xlink:href="#z" x="67" y="21"/><use xlink:href="#AB" x="32" y="58"/><use xlink:href="#AA" x="52.53" y="21.51"/><use xlink:href="#AB" x="4" y="86"/><use xlink:href="#AA" x="24.53" y="49.51"/><use xlink:href="#z" x="88" y="-2"/><use xlink:href="#AB" x="60" y="28"/><use xlink:href="#AA" x="80.53" y="-8.49"/><use xlink:href="#z" x="116" y="-32"/><use xlink:href="#z" x="123" y="-39"/><use xlink:href="#AA" x="108.53" y="-38.49"/><use xlink:href="#AC" x="88" y="-2"/><use xlink:href="#AC" x="95" y="-9"/><use xlink:href="#AA" x="136.53" y="-68.49"/><use xlink:href="#z" x="70" y="51"/><use xlink:href="#AA" x="55.53" y="51.51"/><use xlink:href="#z" x="91" y="28"/><use xlink:href="#AB" x="63" y="58"/><use xlink:href="#z" x="126" y="-9"/><use xlink:href="#AA" x="111.53" y="-8.49"/><use xlink:href="#z" x="147" y="-32"/><use xlink:href="#AA" x="139.53" y="-38.49"/><use xlink:href="#z" x="92" y="58"/><use xlink:href="#AA" x="84.53" y="51.51"/><use xlink:href="#AA" x="56.53" y="79.51"/><use xlink:href="#z" x="120" y="28"/><use xlink:href="#AB" x="92" y="58"/><use xlink:href="#z" x="155" y="-9"/><use xlink:href="#AA" x="140.53" y="-8.49"/><path d="M2222.8 429.77c-1.283-.27-2.142-1.482-1.968-2.78s1.32-2.245 2.63-2.167a3369.64 3369.64 0 0 1 114.105 8.913 2.5 2.5 0 0 1 2.237 2.728 2.5 2.5 0 0 1-2.719 2.247c-37.58-3.578-75.912-6.577-113.935-8.9-.118.001-.235-.013-.35-.04z"/></g><path d="M1728,750.43s-24.45-77.65-1.75-113.82c0,0,16.22,73.35,8.84,111.72Z" transform="translate(0 -212.89)" class="X"/><use xlink:href="#K" x="560" class="V"/><path d="M1729.75 749.5s-1.12-65.17 24.53-87.78c0 0-4.22 60-18.6 87.8z" transform="translate(0 -212.89)" class="X"/><use xlink:href="#L" x="560" class="V"/><path d="M1742.73 748.5s-3.4-34.16 22.08-53.38c0 0-2.65 40.44-18.24 53.7z" transform="translate(0 -212.89)" class="X"/><use xlink:href="#M" x="560" class="V"/><path d="M1723.84 753.33s-28.9-18.54-28.13-50.45c0 0 30.06 27.2 30.76 47.64z" transform="translate(0 -212.89)" class="X"/><g class="V"><use xlink:href="#N" x="560"/><use xlink:href="#O" x="560"/></g><path d="M2101.33,750.43s-24.45-77.65-1.75-113.82c0,0,16.22,73.35,8.84,111.72Z" transform="translate(0 -212.89)" class="X"/><use xlink:href="#P" x="560" class="V"/><path d="M2103.08 749.5s-1.12-65.17 24.53-87.78c0 0-4.22 60-18.6 87.8z" transform="translate(0 -212.89)" class="X"/><use xlink:href="#L" x="933.35" class="V"/><path d="M2116.07 748.5s-3.4-34.16 22.08-53.38c0 0-2.65 40.44-18.24 53.7z" transform="translate(0 -212.89)" class="X"/><use xlink:href="#M" x="933.35" class="V"/><path d="M2097.18 753.33s-28.9-18.54-28.13-50.45c0 0 30.06 27.2 30.76 47.64z" transform="translate(0 -212.89)" class="X"/><g class="V"><use xlink:href="#Q" x="560"/><use xlink:href="#R" x="560"/></g><path d="M1927.58,746.43s24.45-77.65,1.75-113.82c0,0-16.22,73.35-8.84,111.72Z" transform="translate(0 -212.89)" class="X"/><use xlink:href="#S" x="560" class="V"/><path d="M1925.83 745.5s1.12-65.17-24.53-87.78c0 0 4.22 60 18.6 87.8z" transform="translate(0 -212.89)" class="X"/><use xlink:href="#T" x="560" class="V"/><path d="M1912.85 744.5s3.4-34.16-22.08-53.38c0 0 2.65 40.44 18.24 53.7z" transform="translate(0 -212.89)" class="X"/><use xlink:href="#U" x="560" class="V"/><path d="M1931.74 749.33s28.9-18.54 28.13-50.45c0 0-30.06 27.2-30.76 47.64z" transform="translate(0 -212.89)" class="X"/><g class="V"><use xlink:href="#V" x="560"/><use xlink:href="#W" x="560"/></g><path d="M1788 920s-30.2-95.96-2.16-140.65c0 0 20.05 90.64 10.93 138.06z" transform="translate(0 -212.89)" class="X"/><use xlink:href="#X" x="560" class="V"/><path d="M1790.16 918.85s-1.38-80.54 30.3-108.47c0 0-5.2 74.14-23 108.48z" transform="translate(0 -212.89)" class="X"/><use xlink:href="#Y" x="560" class="V"/><path d="M1801.05 916.13s20.55-37.1 59.96-38.72c0 0-31.12 39.24-56.28 41.75z" transform="translate(0 -212.89)" class="X"/><use xlink:href="#Z" x="560" class="V"/><path d="M1782.86 923.6s-35.7-22.9-34.76-62.35c0 0 37.14 33.6 38 58.87z" transform="translate(0 -212.89)" class="X"/><g class="V"><use xlink:href="#a" x="560"/><ellipse cx="1796.6" cy="709.61" rx="39.4" ry="8"/></g><path d="M1973 920s-30.2-95.96-2.16-140.65c0 0 20.05 90.64 10.93 138.06z" transform="translate(0 -212.89)" class="X"/><use xlink:href="#X" x="745" class="V"/><path d="M1975.16 918.85s-1.38-80.54 30.3-108.47c0 0-5.2 74.14-23 108.48z" transform="translate(0 -212.89)" class="X"/><use xlink:href="#Y" x="745" class="V"/><path d="M1986.05 916.13s20.55-37.1 59.96-38.72c0 0-31.12 39.24-56.28 41.75z" transform="translate(0 -212.89)" class="X"/><use xlink:href="#Z" x="745" class="V"/><path d="M1967.86 923.6s-35.7-22.9-34.76-62.35c0 0 37.14 33.6 38 58.87z" transform="translate(0 -212.89)" class="X"/><g class="V"><use xlink:href="#a" x="745"/><ellipse cx="1981.6" cy="709.61" rx="39.4" ry="8"/></g><path d="M2184.1 920s30.2-95.96 2.16-140.65c0 0-20.05 90.64-10.93 138.06z" transform="translate(0 -212.89)" class="X"/><use xlink:href="#b" x="560" class="V"/><path d="M2181.94 918.85s1.38-80.54-30.3-108.47c0 0 5.2 74.14 23 108.48z" transform="translate(0 -212.89)" class="X"/><use xlink:href="#c" x="560" class="V"/><path d="M2171.05 916.13s-20.55-37.1-59.96-38.72c0 0 31.12 39.24 56.28 41.75z" transform="translate(0 -212.89)" class="X"/><path d="M2168.95 706.35c-.528-.001-1.043-.17-1.47-.48l-39.74-29.05a2.5 2.5 0 0 1-.54-3.49 2.5 2.5 0 0 1 3.49-.54l39.74 29.05c.873.638 1.236 1.765.898 2.793s-1.297 1.72-2.378 1.717z" class="V"/><path d="M2189.24 923.6s35.7-22.9 34.76-62.35c0 0-37.14 33.6-38 58.87z" transform="translate(0 -212.89)" class="X"/><g class="V"><path d="M2188.5 711.14c-.474-.002-.94-.137-1.34-.4-.56-.355-.956-.918-1.1-1.565s-.025-1.325.33-1.885l26.4-41.54a2.5 2.5 0 0 1 4.22 2.68l-26.4 41.54a2.48 2.48 0 0 1-2.11 1.16z"/><ellipse cx="2175.5" cy="709.61" rx="39.4" ry="8"/></g><path d="M1677.34,642.45s-18.65-59.23-1.34-86.82c0,0,12.38,55.95,6.75,85.22Z" transform="translate(0 -212.89)" class="X"/><use xlink:href="#d" x="560" class="V"/><path d="M1678.67 641.74s-.85-49.7 18.7-66.96c0 0-3.2 45.76-14.2 66.96z" transform="translate(0 -212.89)" class="X"/><use xlink:href="#e" x="560" class="V"/><path d="M1688.57 640.98s-2.6-26.05 16.84-40.7c0 0-2.02 30.85-13.9 40.96z" transform="translate(0 -212.89)" class="X"/><use xlink:href="#f" x="560" class="V"/><path d="M1674.16 644.66s-22.03-14.14-21.45-38.5c0 0 22.93 20.74 23.46 36.34z" transform="translate(0 -212.89)" class="X"/><g class="V"><use xlink:href="#g" x="560"/><use xlink:href="#h" x="560"/></g><path d="M1962.1,642.45s-18.65-59.23-1.33-86.82c0,0,12.37,55.95,6.74,85.22Z" transform="translate(0 -212.89)" class="X"/><use xlink:href="#i" x="560" class="V"/><path d="M1963.43 641.74s-.85-49.7 18.7-66.96c0 0-3.22 45.76-14.2 66.96z" transform="translate(0 -212.89)" class="X"/><use xlink:href="#j" x="560" class="V"/><path d="M1973.34 640.98s-2.6-26.05 16.84-40.7c0 0-2.02 30.85-13.9 40.96z" transform="translate(0 -212.89)" class="X"/><use xlink:href="#k" x="560" class="V"/><path d="M1958.93 644.66s-22.03-14.14-21.45-38.5c0 0 22.93 20.74 23.46 36.34z" transform="translate(0 -212.89)" class="X"/><g class="V"><use xlink:href="#l" x="560"/><use xlink:href="#m" x="560"/></g><path d="M1829.57,639.4s18.65-59.23,1.33-86.82c0,0-12.37,55.95-6.74,85.22Z" transform="translate(0 -212.89)" class="X"/><path d="M1827.62 427.33a1.09 1.09 0 0 1-.18-.01c-.66-.048-1.275-.356-1.708-.857s-.65-1.153-.602-1.813l4.32-59.87c.1-1.374 1.296-2.406 2.67-2.307s2.408 1.293 2.3 2.667L1830.1 425a2.5 2.5 0 0 1-2.49 2.32z" class="V"/><path d="M1828.24 638.7s.85-49.7-18.7-66.96c0 0 3.22 45.76 14.2 66.96z" transform="translate(0 -212.89)" class="X"/><use xlink:href="#n" x="560" class="V"/><path d="M1818.33 637.93s2.6-26.05-16.84-40.7c0 0 2.02 30.85 13.9 40.95z" transform="translate(0 -212.89)" class="X"/><use xlink:href="#o" x="560" class="V"/><path d="M1832.74 641.6s22.03-14.14 21.45-38.5c0 0-22.93 20.74-23.46 36.34z" transform="translate(0 -212.89)" class="X"/><g class="V"><use xlink:href="#p" x="560"/><use xlink:href="#q" x="560"/><use xlink:href="#r" x="560"/><use xlink:href="#s" x="560"/><use xlink:href="#t" x="560"/><use xlink:href="#u" x="560"/><use xlink:href="#v" x="560"/><use xlink:href="#w" x="560"/><use xlink:href="#x" x="560"/><use xlink:href="#y" x="560"/></g><path d="M2268,750.43s-24.45-77.65-1.75-113.82c0,0,16.22,73.35,8.84,111.72Z" transform="translate(0 -212.89)" class="Y"/><use xlink:href="#K" x="1100" class="V"/><path d="M2269.75 749.5s-1.12-65.17 24.53-87.78c0 0-4.22 60-18.6 87.8z" transform="translate(0 -212.89)" class="Y"/><use xlink:href="#L" x="1100" class="V"/><path d="M2282.73 748.5s-3.4-34.16 22.08-53.38c0 0-2.65 40.44-18.24 53.7z" transform="translate(0 -212.89)" class="Y"/><use xlink:href="#M" x="1100" class="V"/><path d="M2263.84 753.33s-28.9-18.54-28.13-50.45c0 0 30.06 27.2 30.76 47.64z" transform="translate(0 -212.89)" class="Y"/><g class="V"><use xlink:href="#N" x="1100"/><use xlink:href="#O" x="1100"/></g><path d="M2467.58,746.43s24.45-77.65,1.75-113.82c0,0-16.22,73.35-8.84,111.72Z" transform="translate(0 -212.89)" class="Y"/><use xlink:href="#S" x="1100" class="V"/><path d="M2465.83 745.5s1.12-65.17-24.53-87.78c0 0 4.22 60 18.6 87.8z" transform="translate(0 -212.89)" class="Y"/><use xlink:href="#T" x="1100" class="V"/><path d="M2452.85 744.5s3.4-34.16-22.08-53.38c0 0 2.65 40.44 18.24 53.7z" transform="translate(0 -212.89)" class="Y"/><use xlink:href="#U" x="1100" class="V"/><path d="M2471.74 749.33s28.9-18.54 28.13-50.45c0 0-30.06 27.2-30.76 47.64z" transform="translate(0 -212.89)" class="Y"/><g class="V"><use xlink:href="#V" x="1100"/><use xlink:href="#W" x="1100"/></g><path d="M2328 920s-30.2-95.96-2.16-140.65c0 0 20.05 90.64 10.93 138.06z" transform="translate(0 -212.89)" class="Y"/><use xlink:href="#X" x="1100" class="V"/><path d="M2330.16 918.85s-1.38-80.54 30.3-108.47c0 0-5.2 74.14-23 108.48z" transform="translate(0 -212.89)" class="Y"/><use xlink:href="#Y" x="1100" class="V"/><path d="M2341.05 916.13s20.55-37.1 59.96-38.72c0 0-31.12 39.24-56.28 41.75z" transform="translate(0 -212.89)" class="Y"/><use xlink:href="#Z" x="1100" class="V"/><path d="M2322.86 923.6s-35.7-22.9-34.76-62.35c0 0 37.14 33.6 38 58.87z" transform="translate(0 -212.89)" class="Y"/><g class="V"><use xlink:href="#a" x="1100"/><ellipse cx="2336.6" cy="709.61" rx="39.4" ry="8"/></g><path d="M2217.34,642.45s-18.65-59.23-1.34-86.82c0,0,12.38,55.95,6.75,85.22Z" transform="translate(0 -212.89)" class="Y"/><use xlink:href="#d" x="1100" class="V"/><path d="M2218.67 641.74s-.85-49.7 18.7-66.96c0 0-3.2 45.76-14.2 66.96z" transform="translate(0 -212.89)" class="Y"/><use xlink:href="#e" x="1100" class="V"/><path d="M2228.57 640.98s-2.6-26.05 16.84-40.7c0 0-2.02 30.85-13.9 40.96z" transform="translate(0 -212.89)" class="Y"/><use xlink:href="#f" x="1100" class="V"/><path d="M2214.16 644.66s-22.03-14.14-21.45-38.5c0 0 22.93 20.74 23.46 36.34z" transform="translate(0 -212.89)" class="Y"/><g class="V"><use xlink:href="#g" x="1100"/><use xlink:href="#h" x="1100"/><use xlink:href="#r" x="1100"/><use xlink:href="#s" x="1100"/><use xlink:href="#u" x="1100"/></g></svg>