<?xml version="1.0" encoding="utf-8"?>
<!-- Generator: Adobe Illustrator 24.1.0, SVG Export Plug-In . SVG Version: 6.00 Build 0)  -->
<svg version="1.1" id="Layer_1" xmlns:v="https://vecta.io/nano"
	 xmlns="http://www.w3.org/2000/svg" xmlns:xlink="http://www.w3.org/1999/xlink" x="0px" y="0px" viewBox="0 0 2560 730"
	 style="enable-background:new 0 0 2560 730;" xml:space="preserve">
<style type="text/css">
	.st0{fill:none;}
	.st1{fill:#1D1D1B;}
	.st2{fill:#C67042;}
	.st3{fill:#DEE5DC;}
	.st4{fill:url(#SVGID_1_);}
	.st5{fill:url(#SVGID_2_);}
	.st6{fill:url(#SVGID_3_);}
	.st7{fill:url(#SVGID_4_);}
	.st8{fill:url(#SVGID_5_);}
	.st9{fill:url(#SVGID_6_);}
	.st10{fill:#EAEFE8;}
	.st11{fill:url(#SVGID_7_);}
	.st12{fill:#FFFFFF;}
	.st13{fill:url(#SVGID_8_);}
	.st14{fill:url(#SVGID_9_);}
	.st15{fill:url(#SVGID_10_);}
	.st16{fill:url(#SVGID_11_);}
	.st17{fill:url(#SVGID_12_);}
	.st18{fill:url(#SVGID_13_);}
	.st19{fill:url(#SVGID_14_);}
	.st20{fill:url(#SVGID_15_);}
	.st21{fill:url(#SVGID_16_);}
	.st22{fill:url(#SVGID_17_);}
	.st23{fill:url(#SVGID_18_);}
	.st24{fill:#F2CD00;}
	.st25{fill:url(#SVGID_19_);}
	.st26{fill:url(#SVGID_20_);}
	.st27{fill:url(#SVGID_21_);}
	.st28{fill:url(#SVGID_22_);}
	.st29{fill:url(#SVGID_23_);}
	.st30{fill:url(#SVGID_24_);}
	.st31{fill:url(#SVGID_25_);}
	.st32{fill:url(#SVGID_26_);}
	.st33{fill:url(#SVGID_27_);}
	.st34{fill:url(#SVGID_28_);}
	.st35{fill:url(#SVGID_29_);}
	.st36{fill:url(#SVGID_30_);}
	.st37{fill:url(#SVGID_31_);}
	.st38{fill:url(#SVGID_32_);}
	.st39{fill:url(#SVGID_33_);}
	.st40{fill:url(#SVGID_34_);}
	.st41{fill:url(#SVGID_35_);}
	.st42{fill:url(#SVGID_36_);}
	.st43{fill:url(#SVGID_37_);}
	.st44{fill:url(#SVGID_38_);}
	.st45{fill:url(#SVGID_39_);}
	.st46{fill:url(#SVGID_40_);}
	.st47{fill:url(#SVGID_41_);}
	.st48{fill:url(#SVGID_42_);}
	.st49{fill:url(#SVGID_43_);}
	.st50{fill:url(#SVGID_44_);}
	.st51{fill:url(#SVGID_45_);}
	.st52{fill:url(#SVGID_46_);}
	.st53{fill:url(#SVGID_47_);}
	.st54{fill:url(#SVGID_48_);}
	.st55{fill:url(#SVGID_49_);}
	.st56{fill:url(#SVGID_50_);}
	.st57{fill:url(#SVGID_51_);}
	.st58{fill:url(#SVGID_52_);}
	.st59{fill:url(#SVGID_53_);}
	.st60{fill:url(#SVGID_54_);}
	.st61{fill:url(#SVGID_55_);}
	.st62{fill:url(#SVGID_56_);}
	.st63{fill:#AFB7AC;}
	.st64{fill:url(#SVGID_57_);}
	.st65{fill:url(#SVGID_58_);}
	.st66{fill:url(#SVGID_59_);}
	.st67{fill:url(#SVGID_60_);}
	.st68{fill:url(#SVGID_61_);}
	.st69{fill:url(#SVGID_62_);}
	.st70{fill:url(#SVGID_63_);}
	.st71{fill:url(#SVGID_64_);}
	.st72{fill:url(#SVGID_65_);}
	.st73{fill:url(#SVGID_66_);}
	.st74{fill:url(#SVGID_67_);}
	.st75{fill:url(#SVGID_68_);}
	.st76{fill:url(#SVGID_69_);}
	.st77{fill:url(#SVGID_70_);}
	.st78{fill:url(#SVGID_71_);}
	.st79{fill:url(#SVGID_72_);}
	.st80{fill:url(#SVGID_73_);}
	.st81{fill:url(#SVGID_74_);}
	.st82{fill:url(#SVGID_75_);}
	.st83{fill:url(#SVGID_76_);}
	.st84{fill:url(#SVGID_77_);}
	.st85{fill:url(#SVGID_78_);}
	.st86{fill:url(#SVGID_79_);}
	.st87{fill:url(#SVGID_80_);}
	.st88{fill:url(#SVGID_81_);}
	.st89{fill:#FBFCFA;}
	.st90{fill:url(#SVGID_82_);}
	.st91{fill:url(#SVGID_83_);}
	.st92{fill:url(#SVGID_84_);}
	.st93{fill:url(#SVGID_85_);}
	.st94{fill:url(#SVGID_86_);}
	.st95{fill:url(#SVGID_87_);}
	.st96{fill:url(#SVGID_88_);}
	.st97{fill:url(#SVGID_89_);}
	.st98{fill:url(#SVGID_90_);}
	.st99{fill:url(#SVGID_91_);}
	.st100{fill:url(#SVGID_92_);}
	.st101{fill:url(#SVGID_93_);}
	.st102{fill:url(#SVGID_94_);}
	.st103{fill:url(#SVGID_95_);}
	.st104{fill:url(#SVGID_96_);}
	.st105{fill:url(#SVGID_97_);}
	.st106{fill:url(#SVGID_98_);}
	.st107{fill:url(#SVGID_99_);}
	.st108{fill:url(#SVGID_100_);}
	.st109{fill:url(#SVGID_101_);}
	.st110{fill:url(#SVGID_102_);}
	.st111{fill:url(#SVGID_103_);}
	.st112{fill:url(#SVGID_104_);}
	.st113{fill:url(#SVGID_105_);}
	.st114{fill:url(#SVGID_106_);}
	.st115{fill:url(#SVGID_107_);}
	.st116{fill:url(#SVGID_108_);}
	.st117{fill:url(#SVGID_109_);}
	.st118{fill:url(#SVGID_110_);}
	.st119{fill:url(#SVGID_111_);}
	.st120{fill:url(#SVGID_112_);}
	.st121{fill:url(#SVGID_113_);}
	.st122{fill:url(#SVGID_114_);}
	.st123{fill:url(#SVGID_115_);}
	.st124{fill:url(#SVGID_116_);}
	.st125{fill:url(#SVGID_117_);}
	.st126{fill:url(#SVGID_118_);}
	.st127{fill:#B0BCAF;}
	.st128{fill:url(#SVGID_119_);}
	.st129{fill:url(#SVGID_120_);}
	.st130{fill:url(#SVGID_121_);}
	.st131{fill:url(#SVGID_122_);}
	.st132{fill:url(#SVGID_123_);}
	.st133{fill:url(#SVGID_124_);}
</style>
<pattern  x="288" y="729.5" width="204.8" height="204.8" patternUnits="userSpaceOnUse" id="A" viewBox="0 -204.8 204.8 204.8" style="overflow:visible;">
	<g>
		<rect y="-204.8" class="st0" width="204.8" height="204.8"/>
		<path class="st0" d="M0,0h204.8v-204.8H0V0z"/>
		<path class="st1" d="M0,0h204.8v-204.8H0V0z"/>
	</g>
</pattern>
<pattern  x="288" y="729.5" width="204.8" height="204.8" patternUnits="userSpaceOnUse" id="B" viewBox="0 -204.8 204.8 204.8" style="overflow:visible;">
	<g>
		<rect y="-204.8" class="st0" width="204.8" height="204.8"/>
		<path class="st0" d="M0,0h204.8v-204.8H0V0z"/>
		<path class="st2" d="M0,0h204.8v-204.8H0V0z"/>
	</g>
</pattern>
<pattern  x="288" y="729.5" width="204.8" height="204.8" patternUnits="userSpaceOnUse" id="C" viewBox="0 -204.8 204.8 204.8" style="overflow:visible;">
	<g>
		<rect y="-204.8" class="st0" width="204.8" height="204.8"/>
		<path class="st0" d="M0,0h204.8v-204.8H0V0z"/>
		<path class="st2" d="M0,0h204.8v-204.8H0V0z"/>
	</g>
</pattern>
<g>
	<circle class="st3" cx="898.7" cy="121.7" r="30.4"/>
	<path class="st3" d="M875.4,79.1c0,8.9,5.4,17,13.7,20.4s17.8,1.5,24.1-4.8s8.2-15.8,4.8-24.1s-11.5-13.7-20.4-13.7
		C885.3,56.9,875.4,66.8,875.4,79.1L875.4,79.1z"/>
</g>
<g transform="translate(0 -256.972)">
	<pattern  id="SVGID_1_" xlink:href="#A" patternTransform="matrix(1 0 0 -1 -2.471 -16878.7969)">
	</pattern>
	<path class="st4" d="M897.8,450.5c-1.3,0.1-2.4-0.9-2.5-2.2c0,0,0-0.1,0-0.1L895,327c0-1.4,1.1-2.5,2.5-2.5h0
		c1.4,0.1,2.5,1.2,2.5,2.6l0.3,121c0,1.3-1.1,2.4-2.4,2.4C897.9,450.5,897.9,450.5,897.8,450.5L897.8,450.5z"/>
	<pattern  id="SVGID_2_" xlink:href="#A" patternTransform="matrix(1 0 0 -1 -2.471 -16878.7969)">
	</pattern>
	<path class="st5" d="M897.8,387.8c-1.4,0-2.5-1.1-2.5-2.5c0-0.9,0.5-1.8,1.3-2.2l16.4-8.8c1.2-0.7,2.7-0.2,3.4,1
		c0.2,0.4,0.3,0.8,0.3,1.3c0,0.9-0.5,1.7-1.3,2.1l-16.4,8.8C898.7,387.7,898.3,387.8,897.8,387.8L897.8,387.8z"/>
	<pattern  id="SVGID_3_" xlink:href="#A" patternTransform="matrix(1 0 0 -1 -2.471 -16878.7969)">
	</pattern>
	<path class="st6" d="M897.5,350.8c-0.7,0-1.4-0.3-1.9-0.9l-12.9-15.5c-0.9-1.1-0.8-2.6,0.3-3.5c1.1-0.9,2.6-0.8,3.5,0.3
		c0,0,0,0,0,0l12.9,15.5c0.9,1.1,0.7,2.6-0.3,3.5C898.7,350.5,898.1,350.8,897.5,350.8L897.5,350.8z"/>
</g>
<g>
	<path class="st3" d="M825.6,92.5c0,23.9-19.4,43.2-43.2,43.2s-43.2-19.4-43.2-43.2s19.4-43.2,43.2-43.2S825.6,68.6,825.6,92.5
		L825.6,92.5z"/>
	<path class="st3" d="M815.4,31.9c0,17.4-14.1,31.4-31.4,31.4c-8.3,0-16.3-3.3-22.2-9.2c-9-9-11.7-22.5-6.8-34.3
		c4.9-11.7,16.3-19.4,29-19.4C801.4,0.5,815.4,14.6,815.4,31.9z"/>
</g>
<g transform="translate(0 -256.972)">
	<pattern  id="SVGID_4_" xlink:href="#A" patternTransform="matrix(1 0 0 -1 -2.471 -16878.7969)">
	</pattern>
	<path class="st7" d="M783.6,451.5L783.6,451.5c-1.4-0.1-2.5-1.3-2.5-2.7l0.5-172.5c0-1.4,1.1-2.7,2.5-2.8h0
		c1.4,0.1,2.5,1.3,2.5,2.7l-0.5,172.4C786.1,450.1,785,451.3,783.6,451.5z"/>
	<pattern  id="SVGID_5_" xlink:href="#A" patternTransform="matrix(1 0 0 -1 -2.471 -16878.7969)">
	</pattern>
	<path class="st8" d="M783.6,361.4c-0.4,0-0.8-0.1-1.2-0.3L759,348.6c-1.2-0.6-1.7-2.2-1-3.4c0.6-1.2,2.2-1.7,3.4-1c0,0,0,0,0,0
		l23.4,12.5c1.2,0.7,1.7,2.2,1,3.4C785.3,360.9,784.5,361.4,783.6,361.4L783.6,361.4z"/>
	<pattern  id="SVGID_6_" xlink:href="#A" patternTransform="matrix(1 0 0 -1 -2.471 -16878.7969)">
	</pattern>
	<path class="st9" d="M784,308.8c-1.4,0-2.5-1.1-2.5-2.5c0-0.6,0.2-1.2,0.6-1.6l18.4-22c0.9-1.1,2.5-1.2,3.5-0.3
		c1.1,0.9,1.2,2.5,0.3,3.5l-18.4,22C785.5,308.4,784.8,308.8,784,308.8L784,308.8z"/>
</g>
<path class="st3" d="M0,474.5V167c0,0,2320.5,21,2560,284.8L0,474.5z"/>
<path class="st10" d="M0,466.6c0,0,1402-330.8,2560-45.5v307.3L0,729.7V466.6z"/>
<pattern  id="SVGID_7_" xlink:href="#A" patternTransform="matrix(1 -8.512138e-03 -7.941811e-03 -0.933 -134.9501 -16165.8389)">
</pattern>
<path class="st11" d="M689,361.4c-1.4,0-2.5-1-2.5-2.3c0-1.1,0.9-2.1,2-2.3c1.5-0.3,156.3-26.7,384.3-43.8
	c133.9-10,266.5-14.9,394.1-14.5c159.5,0.5,311.7,9.4,452.2,26.3c1.4,0.2,2.3,1.3,2.2,2.6c-0.2,1.3-1.4,2.2-2.8,2l0,0
	c-140.3-16.9-292.3-25.7-451.6-26.2c-127.5-0.4-259.9,4.4-393.7,14.4c-227.7,17-382.3,43.4-383.8,43.7
	C689.3,361.4,689.2,361.4,689,361.4L689,361.4z"/>
<path class="st12" d="M1540.6,210.4l-102.3-25.7c0,0-7.3-14.3,4.5-19.2l92.9,19.9C1535.6,185.4,1547.4,197.3,1540.6,210.4
	L1540.6,210.4z"/>
<pattern  id="SVGID_8_" xlink:href="#A" patternTransform="matrix(1 0 0 -1 -2.471 -16878.7969)">
</pattern>
<path class="st13" d="M1540.6,212.9c-0.2,0-0.4,0-0.6-0.1l-102.3-25.7c-0.7-0.2-1.3-0.6-1.6-1.3c-0.2-0.3-4.2-8.3-1.7-15.2
	c1.3-3.4,4-6.1,7.5-7.4c0.5-0.2,1-0.2,1.5-0.1l92.9,19.9c0.5,0.1,0.9,0.3,1.3,0.7c2.3,2.5,4.1,5.3,5.5,8.3c3.1,6.8,3,13.5-0.2,19.6
	C1542.3,212.4,1541.5,212.9,1540.6,212.9L1540.6,212.9z M1440,182.6l99.1,24.9c3.5-9.2-3-17.7-4.8-19.8l-91.3-19.5
	c-1.9,0.8-3.3,2.3-4,4.2C1437.7,176,1439.2,180.6,1440,182.6L1440,182.6z"/>
<path class="st10" d="M1399,218.7v161l308,73.9V282.4L1399,218.7z"/>
<pattern  id="SVGID_9_" xlink:href="#A" patternTransform="matrix(1 0 0 -1 -2.471 -16878.7969)">
</pattern>
<path class="st14" d="M1707.5,456.2c-0.2,0-0.4,0-0.6-0.1l-308-73.9c-1.1-0.3-1.9-1.3-1.9-2.4v-161c0-1.4,1.1-2.5,2.5-2.5
	c0.2,0,0.3,0,0.5,0.1l308,63.7c1.2,0.2,2,1.3,2,2.4v171.2C1710,455,1708.9,456.2,1707.5,456.2L1707.5,456.2z M1402,377.8l303,72.7
	v-166l-303-62.7V377.8z"/>
<path class="st10" d="M1707,282.4l107.5-46.9l0.3,162.5L1707,453.7V282.4z"/>
<pattern  id="SVGID_10_" xlink:href="#A" patternTransform="matrix(1 0 0 -1 -2.471 -16878.7969)">
</pattern>
<path class="st15" d="M1707.5,456.2c-1.4,0-2.5-1.1-2.5-2.5V282.4c0-1,0.6-1.9,1.5-2.3l107.3-46.9c1.3-0.6,2.7,0,3.3,1.3
	c0.1,0.3,0.2,0.7,0.2,1l0.5,162.5c0,0.9-0.5,1.8-1.4,2.2l-107.7,55.6C1708.3,456.1,1707.9,456.2,1707.5,456.2L1707.5,456.2z
	 M1710,284.1v165.5l102.7-53l-0.4-157.1L1710,284.1z"/>
<path class="st10" d="M1399.9,218.7l134.8-40.8l280.1,57.6l-107.2,46.9L1399.9,218.7L1399.9,218.7z"/>
<g transform="translate(0 -256.972)">
	<pattern  id="SVGID_11_" xlink:href="#A" patternTransform="matrix(1 0 0 -1 -2.471 -16878.7969)">
	</pattern>
	<path class="st16" d="M1707.6,541.9c-0.2,0-0.3,0-0.5-0.1l-307.7-63.7c-1.4-0.3-2.2-1.6-1.9-3c0.2-0.9,0.8-1.6,1.7-1.9l134.8-40.8
		c0.4-0.1,0.8-0.1,1.2-0.1l280.1,57.6c1.4,0.3,2.2,1.6,1.9,3c-0.2,0.8-0.7,1.5-1.4,1.8l-107.2,46.9
		C1708.3,541.8,1707.9,541.9,1707.6,541.9L1707.6,541.9z M1410,475.3l297.3,61.6l99.3-43.4l-271.8-55.9L1410,475.3z"/>
	<pattern  id="SVGID_12_" xlink:href="#A" patternTransform="matrix(1 0 0 -1 -2.471 -16878.7969)">
	</pattern>
	<path class="st17" d="M1707.5,600c-0.2,0-0.4,0-0.6-0.1l-307.6-73.5c-1.3-0.3-2.2-1.7-1.9-3s1.7-2.2,3-1.9c0,0,0,0,0,0l306.8,73.3
		l103.2-48.6c1.2-0.6,2.7-0.1,3.3,1.2c0.6,1.2,0.1,2.7-1.2,3.3c0,0,0,0,0,0l-104,49C1708.2,599.9,1707.9,600,1707.5,600L1707.5,600z
		"/>
	<pattern  id="SVGID_13_" xlink:href="#A" patternTransform="matrix(1 0 0 -1 -2.471 -16878.7969)">
	</pattern>
	<path class="st18" d="M1707.5,660c-0.2,0-0.4,0-0.6-0.1l-308-70c-1.3-0.3-2.2-1.7-1.8-3c0.3-1.3,1.6-2.1,2.9-1.8l307.1,69.8
		l106.5-52.4c1.2-0.6,2.7-0.1,3.3,1.2c0.6,1.2,0.1,2.7-1.1,3.3l-107.3,52.8C1708.3,659.9,1707.9,660,1707.5,660L1707.5,660z"/>
	<pattern  id="SVGID_14_" xlink:href="#A" patternTransform="matrix(1 0 0 -1 -2.471 -16878.7969)">
	</pattern>
	<path class="st19" d="M1677,567.8c-4.7,0-8.5-3.8-8.5-8.5s3.8-8.5,8.5-8.5s8.5,3.8,8.5,8.5l0,0C1685.5,564,1681.7,567.8,1677,567.8
		z M1677,555.8c-1.9,0-3.5,1.6-3.5,3.5s1.6,3.5,3.5,3.5s3.5-1.6,3.5-3.5C1680.5,557.4,1678.9,555.8,1677,555.8z"/>
	<pattern  id="SVGID_15_" xlink:href="#A" patternTransform="matrix(1 0 0 -1 -2.471 -16878.7969)">
	</pattern>
	<path class="st20" d="M1671,633.8c-4.7,0-8.5-3.8-8.5-8.5s3.8-8.5,8.5-8.5s8.5,3.8,8.5,8.5l0,0C1679.5,630,1675.7,633.8,1671,633.8
		z M1671,621.8c-1.9,0-3.5,1.6-3.5,3.5s1.6,3.5,3.5,3.5s3.5-1.6,3.5-3.5C1674.5,623.4,1672.9,621.8,1671,621.8z"/>
	<pattern  id="SVGID_16_" xlink:href="#A" patternTransform="matrix(1 0 0 -1 -2.471 -16878.7969)">
	</pattern>
	<path class="st21" d="M1425,573.8c-4.7,0-8.5-3.8-8.5-8.5s3.8-8.5,8.5-8.5s8.5,3.8,8.5,8.5C1433.5,570,1429.7,573.8,1425,573.8z
		 M1425,561.8c-1.9,0-3.5,1.6-3.5,3.5s1.6,3.5,3.5,3.5s3.5-1.6,3.5-3.5C1428.5,563.4,1426.9,561.8,1425,561.8z"/>
	<pattern  id="SVGID_17_" xlink:href="#A" patternTransform="matrix(1 0 0 -1 -2.471 -16878.7969)">
	</pattern>
	<path class="st22" d="M1425,625.8c-4.7,0-8.5-3.8-8.5-8.5s3.8-8.5,8.5-8.5s8.5,3.8,8.5,8.5l0,0C1433.5,622,1429.7,625.8,1425,625.8
		z M1425,613.8c-1.9,0-3.5,1.6-3.5,3.5s1.6,3.5,3.5,3.5s3.5-1.6,3.5-3.5C1428.5,615.4,1426.9,613.8,1425,613.8z"/>
</g>
<path class="st12" d="M1433.9,259l-102.3-25.7c0,0-7.3-14.3,4.5-19.2l92.9,19.9C1428.9,234,1440.7,245.9,1433.9,259L1433.9,259z"/>
<pattern  id="SVGID_18_" xlink:href="#A" patternTransform="matrix(1 0 0 -1 -2.471 -16878.7969)">
</pattern>
<path class="st23" d="M1433.9,261.5c-0.2,0-0.4,0-0.6-0.1l-102.3-25.7c-0.7-0.2-1.3-0.6-1.6-1.3c-0.2-0.3-4.2-8.3-1.7-15.2
	c1.3-3.4,4-6.1,7.5-7.4c0.5-0.2,1-0.2,1.5-0.1l92.9,19.9c0.5,0.1,0.9,0.3,1.3,0.7c2.3,2.5,4.1,5.3,5.5,8.3c3.1,6.8,3,13.5-0.2,19.6
	C1435.7,261,1434.8,261.5,1433.9,261.5L1433.9,261.5z M1333.3,231.2l99.1,24.9c3.5-9.2-3-17.7-4.8-19.8l-91.3-19.5
	c-1.9,0.8-3.3,2.3-4,4.2C1331,224.6,1332.5,229.2,1333.3,231.2L1333.3,231.2z"/>
<path class="st24" d="M1464,229.2c0,0,20.3-85.3,42.2-88.5s47.2,27.8,47.2,27.8l38.5-89.2c0,0,19.8-27.8,56.4-17.8s68.9,96,68.9,96
	s41.2,3.9,47.9,26.4s14.7,63.8,14.7,63.8l-72.4,31.7L1464,229.2z"/>
<g transform="translate(0 -256.972)">
	<pattern  id="SVGID_19_" xlink:href="#A" patternTransform="matrix(1 0 0 -1 -2.471 -16878.7969)">
	</pattern>
	<path class="st25" d="M1622,437.4c-1.1,0-2.1-0.8-2.4-1.8l-5.5-19.9c-0.1-0.4-0.1-0.9,0-1.4l0.1-0.5l0,0.1c-0.7,1.2-2.2,1.7-3.4,1
		c-2.5-1.3-14.8-8.2-16.4-14.2c-0.4-1.3-0.2-2.8,0.5-4c0.8-1.3,2.1-2.2,3.7-2.4c3.1-0.4,7.2,2.2,10.4,4.9c-0.1-4,0.4-8.6,2.7-11.2
		c1.3-1.4,3.2-2.2,5.1-2c1.6,0.1,3.1,0.9,4,2.3c3.9,5.6-0.2,22-1.6,26.7l5.3,19.2c0.2,0.8,0.1,1.6-0.4,2.2S1622.8,437.4,1622,437.4
		L1622,437.4z M1599.2,399.3c0,1.3,4.8,6.2,14,11.2c0.9,0.5,1.4,1.4,1.3,2.4c2.4-8.8,3.8-19.2,2.1-21.7c-0.1-0.2-0.1-0.2-0.2-0.2
		c-0.4-0.1-0.8,0.1-1,0.4c-1.8,2-1.6,9.4-0.9,13.7c0.2,1.4-0.7,2.7-2,2.9c-0.8,0.1-1.6-0.1-2.2-0.7c-4.1-4.2-9.2-7.9-10.9-7.9
		C1599.2,399.3,1599.2,399.3,1599.2,399.3L1599.2,399.3z"/>
	<pattern  id="SVGID_20_" xlink:href="#A" patternTransform="matrix(1 0 0 -1 -2.471 -16878.7969)">
	</pattern>
	<path class="st26" d="M1524,470.4c-1.1,0-2.1-0.8-2.4-1.8l-5.5-19.9c-0.1-0.4-0.1-0.9,0-1.4l0.1-0.5l0,0.1c-0.7,1.2-2.2,1.7-3.4,1
		c-2.5-1.3-14.8-8.2-16.4-14.2c-0.4-1.3-0.2-2.8,0.5-4c0.8-1.3,2.1-2.2,3.7-2.4c3.1-0.4,7.2,2.2,10.4,4.9c-0.1-4,0.4-8.6,2.7-11.2
		c1.3-1.4,3.2-2.2,5.1-2c1.6,0.1,3.1,0.9,4,2.3c3.9,5.6-0.2,22-1.6,26.7l5.3,19.2c0.2,0.8,0.1,1.6-0.4,2.2S1524.8,470.4,1524,470.4
		L1524,470.4z M1501.2,432.3c0,1.3,4.8,6.2,14,11.2c0.9,0.5,1.4,1.4,1.3,2.4c2.4-8.8,3.8-19.2,2.1-21.7c-0.1-0.2-0.1-0.2-0.2-0.2
		c-0.4-0.1-0.8,0.1-1,0.4c-1.8,2-1.6,9.4-0.9,13.7c0.2,1.4-0.7,2.7-2,2.9c-0.8,0.1-1.6-0.1-2.2-0.7
		C1508,435.9,1502.8,432.1,1501.2,432.3L1501.2,432.3z"/>
	<pattern  id="SVGID_21_" xlink:href="#A" patternTransform="matrix(1 0 0 -1 -2.471 -16878.7969)">
	</pattern>
	<path class="st27" d="M1608.5,470.8c-0.5,0-1.1-0.2-1.5-0.5l-16.5-12.4c-0.4-0.3-0.7-0.6-0.8-1.1c-0.1-0.2-0.1-0.3-0.2-0.5l0,0.1
		c0.2,1.4-0.7,2.6-2.1,2.9c0,0,0,0,0,0c-2.8,0.5-16.8,2.5-21.7-1.2c-1.1-0.8-1.9-2.1-2.1-3.5c-0.2-1.5,0.3-3,1.5-4.1
		c2.3-2.2,7-2.6,11.2-2.5c-2.5-3.1-5-7.1-4.7-10.5c0.1-1.9,1.2-3.7,2.8-4.7c1.3-0.9,3-1.1,4.6-0.6c6.5,2,13.2,17.6,15.1,22.1
		l15.9,12c1.1,0.8,1.3,2.4,0.5,3.5C1610.1,470.5,1609.3,470.8,1608.5,470.8L1608.5,470.8z M1587.1,454.3c0.8,0,1.6,0.4,2.1,1.1
		c-3.5-8.4-8.7-17.6-11.6-18.5c-0.2-0.1-0.2,0-0.3,0c-0.3,0.2-0.6,0.5-0.6,0.9c-0.2,2.7,4.5,8.4,7.7,11.4c1,0.9,1.1,2.5,0.1,3.5
		c-0.6,0.6-1.4,0.9-2.2,0.8c-5.9-0.9-12.4-0.6-13.6,0.5c1.1,1.5,9.8,1.6,17.9,0.3C1586.8,454.4,1586.9,454.4,1587.1,454.3
		L1587.1,454.3z"/>
	<pattern  id="SVGID_22_" xlink:href="#A" patternTransform="matrix(1 0 0 -1 -2.471 -16878.7969)">
	</pattern>
	<path class="st28" d="M1655.4,376.7c-1.3,0-2.4-1.1-2.5-2.4l-0.8-20.6c0-0.5,0.1-0.9,0.3-1.3c0.1-0.1,0.2-0.3,0.2-0.4l0,0.1
		c-0.9,1-2.5,1.1-3.5,0.2c-2.1-1.9-12.6-11.4-12.8-17.5c-0.1-1.4,0.4-2.8,1.4-3.8c1.1-1.1,2.6-1.7,4.1-1.5c3.1,0.4,6.5,3.8,9,7.1
		c0.8-3.9,2.3-8.3,5.2-10.3c1.6-1.1,3.6-1.4,5.4-0.8c1.6,0.5,2.8,1.6,3.4,3.1c2.6,6.3-5.2,21.4-7.6,25.7l0.8,19.9
		c0.1,1.4-1,2.5-2.4,2.6L1655.4,376.7L1655.4,376.7z M1641.2,334.3c-0.4,1.8,4.9,8.6,11.1,14.1c0.7,0.7,1,1.7,0.7,2.6
		c4.3-8.1,8.1-17.9,6.9-20.7c-0.1-0.2-0.1-0.2-0.2-0.2c-0.4-0.1-0.8-0.1-1.1,0.1c-2.2,1.6-3.7,8.8-3.9,13.2
		c-0.1,1.4-1.3,2.4-2.6,2.3c-0.8,0-1.6-0.5-2-1.2C1647.1,339.4,1642.8,334.5,1641.2,334.3L1641.2,334.3z"/>
	<pattern  id="SVGID_23_" xlink:href="#A" patternTransform="matrix(1 0 0 -1 -2.471 -16878.7969)">
	</pattern>
	<path class="st29" d="M1682.9,457.5L1682.9,457.5c-1.5-0.1-2.5-1.3-2.5-2.8l0.4-20.8c0-0.5,0.1-0.9,0.4-1.4l0.3-0.5c0,0,0,0-0.1,0
		c-1,1-2.6,1-3.5,0c-2-2-11.9-12.1-11.8-18.2c0-1.4,0.6-2.8,1.6-3.7c1.1-1,2.7-1.5,4.2-1.2c3.1,0.5,6.2,4.2,8.6,7.6
		c1-3.8,2.8-8.2,5.8-10c1.6-1,3.6-1.2,5.4-0.5c1.5,0.5,2.7,1.8,3.2,3.3c2.2,6.5-6.4,21-9,25.2l-0.3,20.2
		C1685.4,456.2,1684.3,457.4,1682.9,457.5L1682.9,457.5z M1671.1,413.9c-0.5,1.8,4.4,8.9,10.3,14.7c0.7,0.7,0.9,1.7,0.6,2.7
		c4.8-7.8,9.1-17.4,8.1-20.3c-0.1-0.2-0.1-0.2-0.2-0.2c-0.3-0.2-0.8-0.1-1.1,0.1c-2.3,1.4-4.2,8.5-4.7,12.9
		c-0.2,1.4-1.4,2.4-2.8,2.2c-0.8-0.1-1.5-0.6-1.9-1.3C1676.7,419.3,1672.7,414.2,1671.1,413.9L1671.1,413.9z"/>
	<pattern  id="SVGID_24_" xlink:href="#A" patternTransform="matrix(1 0 0 -1 -2.471 -16878.7969)">
	</pattern>
	<path class="st30" d="M1630.5,442c-1.4,0-2.5-1.1-2.5-2.5v-10c0-1.4,1.1-2.5,2.5-2.5s2.5,1.1,2.5,2.5v10
		C1633,440.9,1631.9,442,1630.5,442z"/>
	<pattern  id="SVGID_25_" xlink:href="#A" patternTransform="matrix(1 0 0 -1 -2.471 -16878.7969)">
	</pattern>
	<path class="st31" d="M1692.7,465c-1.4,0-2.5-1.1-2.5-2.5c0-0.3,0-0.5,0.1-0.8l3.8-11.1c0.4-1.3,1.9-2,3.2-1.6
		c1.3,0.4,2,1.9,1.6,3.2l-3.8,11.1C1694.7,464.3,1693.8,465,1692.7,465z"/>
	<pattern  id="SVGID_26_" xlink:href="#A" patternTransform="matrix(1 0 0 -1 -2.471 -16878.7969)">
	</pattern>
	<path class="st32" d="M1671,507.5c-1,0-1.9-0.6-2.3-1.5l-5.5-12.4c-0.6-1.3,0-2.7,1.2-3.3c1.3-0.6,2.7,0,3.3,1.2c0,0,0,0.1,0,0.1
		l5.5,12.4c0.6,1.3,0,2.7-1.3,3.3C1671.7,507.4,1671.3,507.5,1671,507.5L1671,507.5z"/>
	<pattern  id="SVGID_27_" xlink:href="#A" patternTransform="matrix(1 0 0 -1 -2.471 -16878.7969)">
	</pattern>
	<path class="st33" d="M1679.5,505c-1.1,0-2-0.7-2.4-1.7l-3-9c-0.4-1.3,0.3-2.7,1.6-3.2c1.3-0.4,2.7,0.3,3.2,1.6l3,9
		c0.4,1.3-0.3,2.7-1.6,3.2C1680,505,1679.8,505,1679.5,505L1679.5,505z"/>
	<pattern  id="SVGID_28_" xlink:href="#A" patternTransform="matrix(1 0 0 -1 -2.471 -16878.7969)">
	</pattern>
	<path class="st34" d="M1515,473.6c-1,0-1.9-0.6-2.3-1.5l-3.7-8.6c-0.5-1.3,0-2.7,1.3-3.3c1.3-0.5,2.7,0,3.3,1.3l3.7,8.6
		c0.5,1.3,0,2.7-1.3,3.3C1515.7,473.5,1515.3,473.6,1515,473.6L1515,473.6z"/>
	<pattern  id="SVGID_29_" xlink:href="#A" patternTransform="matrix(1 0 0 -1 -2.471 -16878.7969)">
	</pattern>
	<path class="st35" d="M1602,478.2c-0.5,0-0.9-0.1-1.3-0.4l-7.5-4.6c-1.2-0.7-1.6-2.2-0.9-3.4c0.7-1.2,2.2-1.6,3.4-0.9c0,0,0,0,0,0
		l7.5,4.6c1.2,0.7,1.5,2.3,0.8,3.4C1603.7,477.8,1602.9,478.2,1602,478.2L1602,478.2z"/>
	<pattern  id="SVGID_30_" xlink:href="#A" patternTransform="matrix(1 0 0 -1 -2.471 -16878.7969)">
	</pattern>
	<path class="st36" d="M1732.5,456c-1.4,0-2.5-1.1-2.5-2.5v-11c0-1.4,1.1-2.5,2.5-2.5s2.5,1.1,2.5,2.5v11
		C1735,454.9,1733.9,456,1732.5,456z"/>
	<pattern  id="SVGID_31_" xlink:href="#A" patternTransform="matrix(1 0 0 -1 -2.471 -16878.7969)">
	</pattern>
	<path class="st37" d="M1740,456c-0.2,0-0.3,0-0.4,0c-1.4-0.2-2.3-1.5-2-2.9c0,0,0,0,0,0l2-11c0.2-1.4,1.5-2.3,2.9-2
		c1.4,0.2,2.3,1.5,2,2.9l-2,11C1742.2,455.1,1741.2,456,1740,456L1740,456z"/>
	<pattern  id="SVGID_32_" xlink:href="#A" patternTransform="matrix(1 0 0 -1 -2.471 -16878.7969)">
	</pattern>
	<path class="st38" d="M1662.5,377c-0.1,0-0.2,0-0.2,0c-1.4-0.1-2.4-1.3-2.3-2.7c0,0,0,0,0,0l1-11c0.1-1.4,1.3-2.4,2.7-2.3
		c1.4,0.1,2.4,1.3,2.3,2.7c0,0,0,0.1,0,0.1l-1,11C1664.9,376,1663.8,377,1662.5,377z"/>
	<pattern  id="SVGID_33_" xlink:href="#A" patternTransform="matrix(1 0 0 -1 -2.471 -16878.7969)">
	</pattern>
	<path class="st39" d="M759.5,777.7l296.1-80.2c0,0,51,9.1,39.2,98L798.6,901.3"/>
	<pattern  id="SVGID_34_" xlink:href="#A" patternTransform="matrix(1 0 0 -1 -2.471 -16878.7969)">
	</pattern>
	<path class="st40" d="M798.6,903.8c-1.4,0-2.5-1.1-2.5-2.5c0-1.1,0.7-2,1.7-2.4l294.8-105.2c3.1-24.7,2.9-57.9-14.8-78.9
		c-9.3-11.1-19.7-14.1-22.1-14.7l-295.5,80c-1.3,0.4-2.7-0.4-3.1-1.8c-0.3-1.3,0.4-2.7,1.7-3l296.1-80.2c0.4-0.1,0.7-0.1,1.1,0
		c0.6,0.1,13.8,2.6,25.5,16.5c19.2,22.8,19.2,58.5,15.8,84.3c-0.1,0.9-0.8,1.7-1.6,2L799.4,903.7
		C799.1,903.8,798.9,903.8,798.6,903.8L798.6,903.8z"/>
</g>
<circle class="st3" cx="768.4" cy="586.2" r="65.5"/>
<pattern  id="SVGID_35_" xlink:href="#A" patternTransform="matrix(1 0 0 -1 -2.471 -16878.7969)">
</pattern>
<path class="st41" d="M768.4,654.2c-37.5,0-68-30.4-68-68c0-37.5,30.4-68,68-68c37.5,0,68,30.4,68,68c0,0,0,0,0,0
	C836.3,623.7,805.9,654.1,768.4,654.2z M768.4,523.3c-34.8,0-63,28.2-63,63c0,34.8,28.2,63,63,63c34.8,0,63-28.2,63-63c0,0,0,0,0,0
	C831.3,551.5,803.2,523.3,768.4,523.3L768.4,523.3z"/>
<path class="st10" d="M787,586.2c0,10.3-8.3,18.6-18.6,18.6c-4.9,0-9.7-2-13.2-5.5c-7.3-7.3-7.3-19.1,0-26.3
	c3.5-3.5,8.2-5.5,13.2-5.5C778.7,567.6,787,575.9,787,586.2z"/>
<g transform="translate(0 -256.972)">
	<pattern  id="SVGID_36_" xlink:href="#A" patternTransform="matrix(1 0 0 -1 -2.471 -16878.7969)">
	</pattern>
	<path class="st42" d="M768.4,864.3c-11.7,0-21.1-9.5-21.1-21.1c0-11.7,9.5-21.1,21.1-21.1s21.1,9.5,21.1,21.1c0,0,0,0,0,0
		C789.5,854.9,780.1,864.3,768.4,864.3z M768.4,827.1c-8.9,0-16.1,7.2-16.1,16.1c0,8.9,7.2,16.1,16.1,16.1c8.9,0,16.1-7.2,16.1-16.1
		c0,0,0,0,0,0C784.5,834.3,777.3,827.1,768.4,827.1z"/>
	<pattern  id="SVGID_37_" xlink:href="#A" patternTransform="matrix(1 0 0 -1 -2.471 -16878.7969)">
	</pattern>
	<path class="st43" d="M886.8,818.7l296.1-80.2c0,0,51,9.1,39.2,98L925.9,942.3"/>
	<pattern  id="SVGID_38_" xlink:href="#A" patternTransform="matrix(1 0 0 -1 -2.471 -16878.7969)">
	</pattern>
	<path class="st44" d="M925.9,944.8c-1.4,0-2.5-1.1-2.5-2.5c0-1.1,0.7-2,1.7-2.4l294.8-105.2c3.1-24.7,2.9-57.9-14.8-78.9
		c-9.3-11.1-19.7-14.1-22.1-14.7l-295.5,80c-1.3,0.4-2.7-0.4-3.1-1.7c-0.1-0.4-0.1-0.9,0-1.3c0.2-0.9,0.9-1.5,1.8-1.8l296.1-80.2
		c0.4-0.1,0.7-0.1,1.1,0c0.6,0.1,13.8,2.6,25.5,16.5c19.2,22.8,19.2,58.5,15.8,84.3c-0.1,0.9-0.8,1.7-1.6,2L926.7,944.6
		C926.4,944.7,926.1,944.8,925.9,944.8z"/>
</g>
<circle class="st3" cx="895.7" cy="627.2" r="65.5"/>
<pattern  id="SVGID_39_" xlink:href="#A" patternTransform="matrix(1 0 0 -1 -2.471 -16878.7969)">
</pattern>
<path class="st45" d="M895.7,695.2c-37.5,0-68-30.4-68-68c0-37.5,30.4-68,68-68s68,30.4,68,68l0,0
	C963.6,664.7,933.2,695.1,895.7,695.2z M895.7,564.2c-34.8,0-63,28.2-63,63s28.2,63,63,63c34.8,0,63-28.2,63-63c0,0,0,0,0,0
	C958.6,592.4,930.5,564.3,895.7,564.2L895.7,564.2z"/>
<circle class="st10" cx="895.7" cy="627.2" r="18.6"/>
<g transform="translate(0 -256.972)">
	<pattern  id="SVGID_40_" xlink:href="#A" patternTransform="matrix(1 0 0 -1 -2.471 -16878.7969)">
	</pattern>
	<path class="st46" d="M895.7,905.3c-11.7,0-21.1-9.5-21.1-21.1S884,863,895.7,863c11.7,0,21.1,9.5,21.1,21.1v0
		C916.8,895.8,907.4,905.3,895.7,905.3z M895.7,868c-8.9,0-16.1,7.2-16.1,16.1s7.2,16.1,16.1,16.1c8.9,0,16.1-7.2,16.1-16.1l0,0
		C911.8,875.3,904.6,868.1,895.7,868z"/>
	<pattern  id="SVGID_41_" xlink:href="#A" patternTransform="matrix(1 0 0 -1 -2.471 -16878.7969)">
	</pattern>
	<path class="st47" d="M1016.7,835.3l296.1-80.2c0,0,51,9.1,39.2,98l-296.3,105.7"/>
	<pattern  id="SVGID_42_" xlink:href="#A" patternTransform="matrix(1 0 0 -1 -2.471 -16878.7969)">
	</pattern>
	<path class="st48" d="M1055.8,961.3c-1.4,0-2.5-1.1-2.5-2.5c0-1.1,0.7-2,1.7-2.4l294.8-105.2c4.3-34.7-0.7-61.9-14.6-78.6
		c-9.3-11.2-19.9-14.4-22.3-15l-295.5,80c-1.3,0.4-2.7-0.4-3.1-1.8c-0.3-1.3,0.4-2.7,1.7-3l296.1-80.2c0.4-0.1,0.7-0.1,1.1,0
		c0.6,0.1,13.8,2.6,25.5,16.5c19.2,22.8,19.2,58.5,15.8,84.3c-0.1,0.9-0.8,1.7-1.6,2l-296.3,105.7
		C1056.3,961.3,1056.1,961.3,1055.8,961.3L1055.8,961.3z"/>
</g>
<circle class="st3" cx="1025.6" cy="643.8" r="65.5"/>
<pattern  id="SVGID_43_" xlink:href="#A" patternTransform="matrix(1 0 0 -1 -2.471 -16878.7969)">
</pattern>
<path class="st49" d="M1025.6,711.7c-37.5,0-68-30.4-68-68c0-37.5,30.4-68,68-68c37.5,0,68,30.4,68,68
	C1093.5,681.3,1063.1,711.7,1025.6,711.7z M1025.6,580.8c-34.8,0-63,28.2-63,63s28.2,63,63,63c34.8,0,63-28.2,63-63
	C1088.5,609,1060.4,580.9,1025.6,580.8L1025.6,580.8z"/>
<path class="st10" d="M1044.2,643.8c0,10.3-8.3,18.6-18.6,18.6c-4.9,0-9.7-2-13.2-5.5c-7.3-7.3-7.3-19.1,0-26.3
	c3.5-3.5,8.2-5.5,13.2-5.5C1035.9,625.1,1044.2,633.5,1044.2,643.8L1044.2,643.8z"/>
<g transform="translate(0 -256.972)">
	<pattern  id="SVGID_44_" xlink:href="#A" patternTransform="matrix(1 0 0 -1 -2.471 -16878.7969)">
	</pattern>
	<path class="st50" d="M1025.6,921.9c-11.7,0-21.1-9.5-21.1-21.1s9.5-21.1,21.1-21.1c11.7,0,21.1,9.5,21.1,21.1
		C1046.7,912.4,1037.3,921.9,1025.6,921.9z M1025.6,884.6c-8.9,0-16.1,7.2-16.1,16.1s7.2,16.1,16.1,16.1c8.9,0,16.1-7.2,16.1-16.1
		C1041.7,891.8,1034.5,884.6,1025.6,884.6z"/>
	<pattern  id="SVGID_45_" xlink:href="#A" patternTransform="matrix(1 0 0 -1 -2.471 -16878.7969)">
	</pattern>
	<path class="st51" d="M864.2,676l301.8-54.5c0,0,50,13.5,30.7,101l-304.2,80"/>
	<pattern  id="SVGID_46_" xlink:href="#A" patternTransform="matrix(1 0 0 -1 -2.471 -16878.7969)">
	</pattern>
	<path class="st52" d="M892.5,805c-1.4,0-2.5-1.1-2.5-2.5c0-1.1,0.8-2.1,1.9-2.4l302.8-79.6c7.3-34.2,4.6-61.7-7.8-79.6
		c-8.3-12-18.6-16-20.9-16.8l-301.2,54.4c-1.4,0.2-2.7-0.7-2.9-2c-0.2-1.3,0.7-2.6,2-2.9l301.8-54.5c0.4-0.1,0.7,0,1.1,0
		c0.5,0.1,13.5,3.8,24,18.7c17.2,24.4,14.1,59.9,8.5,85.3c-0.2,0.9-0.9,1.6-1.8,1.9l-304.2,80C893,805,892.8,805,892.5,805
		L892.5,805z"/>
</g>
<path class="st3" d="M932.7,490.6c-3.1,36-34.8,62.7-70.8,59.6c-17.3-1.5-33.3-9.8-44.5-23.1c-23.3-27.7-19.7-69,7.9-92.2
	c13.3-11.2,30.4-16.6,47.7-15.1C909.1,422.9,935.8,454.6,932.7,490.6L932.7,490.6z"/>
<pattern  id="SVGID_47_" xlink:href="#A" patternTransform="matrix(1 0 0 -1 -2.471 -16878.7969)">
</pattern>
<path class="st53" d="M867.5,553c-2,0-3.9-0.1-5.9-0.3c-37.4-3.2-65.1-36.1-61.9-73.5c3-35.1,32.4-62.1,67.6-62.1
	c2,0,3.9,0.1,5.9,0.3c37.4,3.2,65.1,36.1,61.9,73.5C932.2,526,902.8,553,867.5,553z M867.4,422.1c-34.8,0-62.9,28.3-62.9,63
	c0,32.7,25,59.9,57.6,62.7c1.8,0.2,3.7,0.2,5.5,0.2c34.8,0,62.9-28.3,62.9-63c0-32.7-25-59.9-57.6-62.7
	C871,422.2,869.2,422.1,867.4,422.1L867.4,422.1z"/>
<path class="st10" d="M886,486.6c-0.9,10.3-9.9,17.8-20.2,17c-4.9-0.4-9.5-2.8-12.7-6.6c-6.6-7.9-5.6-19.6,2.3-26.2
	c3.8-3.2,8.7-4.7,13.6-4.3c4.9,0.4,9.5,2.8,12.7,6.6S886.5,481.7,886,486.6L886,486.6z"/>
<g transform="translate(0 -256.972)">
	<pattern  id="SVGID_48_" xlink:href="#A" patternTransform="matrix(1 0 0 -1 -2.471 -16878.7969)">
	</pattern>
	<path class="st54" d="M867.5,763.1c-0.6,0-1.2,0-1.8-0.1c-11.6-1-20.2-11.2-19.2-22.9c1-10.9,10.1-19.3,21-19.3
		c0.6,0,1.2,0,1.8,0.1c11.6,1,20.2,11.2,19.2,22.9C887.5,754.7,878.4,763.1,867.5,763.1L867.5,763.1z M867.5,725.9
		c-8.3,0.1-15.3,6.4-16,14.8c-0.4,4.3,1,8.5,3.7,11.8s6.7,5.3,11,5.7c0.5,0,0.9,0.1,1.4,0.1c8.3-0.1,15.3-6.4,16-14.8
		c0.8-8.9-5.8-16.7-14.7-17.4C868.4,725.9,867.9,725.9,867.5,725.9L867.5,725.9z"/>
	<pattern  id="SVGID_49_" xlink:href="#A" patternTransform="matrix(1 0 0 -1 -2.471 -16878.7969)">
	</pattern>
	<path class="st55" d="M956.7,587l304.8-34.8c0,0,49.1,16.7,24.1,102.8l-308.8,60"/>
	<pattern  id="SVGID_50_" xlink:href="#A" patternTransform="matrix(1 0 0 -1 -2.471 -16878.7969)">
	</pattern>
	<path class="st56" d="M976.8,717.5c-1.4,0-2.5-1.1-2.5-2.5c0-1.2,0.8-2.2,2-2.5l307.3-59.7c9.5-33.7,8.6-61.3-2.6-79.9
		c-7.5-12.5-17.5-17.2-19.8-18.2L957,589.4c-1.4,0.2-2.6-0.8-2.8-2.1c-0.1-0.5,0-0.9,0.2-1.3c0.4-0.8,1.1-1.4,2-1.5l304.7-34.8
		c0.4,0,0.7,0,1.1,0.1c0.5,0.2,13.2,4.6,22.7,20.2c15.6,25.5,10.2,60.7,2.9,85.7c-0.3,0.9-1,1.6-1.9,1.8l-308.8,60
		C977.1,717.5,976.9,717.5,976.8,717.5L976.8,717.5z"/>
</g>
<path class="st3" d="M1020.4,405.9c-5.4,35.7-38.8,60.3-74.5,54.9s-60.3-38.8-54.9-74.5s38.8-60.3,74.5-54.9
	c17.2,2.6,32.6,11.9,42.9,25.9S1023,388.7,1020.4,405.9L1020.4,405.9z"/>
<pattern  id="SVGID_51_" xlink:href="#A" patternTransform="matrix(1 0 0 -1 -2.471 -16878.7969)">
</pattern>
<path class="st57" d="M955.8,464c-3.4,0-6.9-0.3-10.3-0.8c-37.1-5.6-62.6-40.3-57-77.4c5-33.2,33.5-57.7,67.1-57.7
	c3.4,0,6.9,0.3,10.3,0.8c37.1,5.6,62.6,40.3,57,77.4C1017.8,439.4,989.3,464,955.8,464L955.8,464z M955.6,333.1
	c-34.8,0-62.9,28.3-62.9,63c0,31.1,22.8,57.5,53.5,62.2c3.2,0.5,6.3,0.7,9.5,0.7c34.8,0,62.9-28.3,62.9-63
	c0-31.1-22.8-57.5-53.5-62.2C962,333.3,958.8,333.1,955.6,333.1z"/>
<path class="st10" d="M974.1,398.8c-1.5,10.2-11,17.2-21.2,15.6c-4.9-0.7-9.3-3.4-12.2-7.4c-6.1-8.3-4.3-19.9,4-26
	c4-2.9,9-4.2,13.8-3.4c4.9,0.7,9.3,3.4,12.2,7.4S974.9,393.9,974.1,398.8L974.1,398.8z"/>
<g transform="translate(0 -256.972)">
	<pattern  id="SVGID_52_" xlink:href="#A" patternTransform="matrix(1 0 0 -1 -2.471 -16878.7969)">
	</pattern>
	<path class="st58" d="M955.7,674.1c-11.7,0-21.1-9.4-21.2-21.1c0-11.7,9.4-21.1,21.1-21.2c11.7,0,21.1,9.4,21.2,21.1
		c0,1.1-0.1,2.1-0.2,3.2C974.9,666.5,966.1,674,955.7,674.1z M955.7,636.9c-8.9,0-16.1,7.2-16.1,16.1c0,8.9,7.2,16.1,16.1,16.1
		c8.9,0,16.1-7.2,16.1-16.1c0-8-5.8-14.7-13.7-15.9C957.3,636.9,956.5,636.9,955.7,636.9L955.7,636.9z"/>
	<pattern  id="SVGID_53_" xlink:href="#A" patternTransform="matrix(1 0 0 -1 -2.471 -16878.7969)">
	</pattern>
	<path class="st59" d="M990.7,708.3l301.8-54.5c0,0,50,13.5,30.7,101l-304.2,80"/>
	<pattern  id="SVGID_54_" xlink:href="#A" patternTransform="matrix(1 0 0 -1 -2.471 -16878.7969)">
	</pattern>
	<path class="st60" d="M1019,837.2c-1.4,0-2.5-1.1-2.5-2.5c0-1.1,0.8-2.1,1.9-2.4l302.8-79.6c5.2-24.4,7.8-57.5-8-79.9
		c-8.4-11.8-18.4-15.8-20.7-16.5l-301.2,54.4c-1.4,0.3-2.7-0.6-2.9-2c-0.1-0.4,0-0.9,0.1-1.3c0.3-0.8,1-1.5,1.9-1.6l301.8-54.5
		c0.4-0.1,0.7,0,1.1,0c0.5,0.1,13.5,3.8,24,18.6c17.2,24.4,14.1,59.9,8.5,85.3c-0.2,0.9-0.9,1.6-1.8,1.9l-304.2,80
		C1019.4,837.2,1019.2,837.2,1019,837.2z"/>
</g>
<path class="st3" d="M1059.1,522.9c-3.1,36-34.8,62.7-70.8,59.6c-36-3.1-62.7-34.8-59.6-70.8s34.8-62.7,70.8-59.6
	c17.3,1.5,33.3,9.8,44.5,23.1S1060.6,505.6,1059.1,522.9L1059.1,522.9z"/>
<pattern  id="SVGID_55_" xlink:href="#A" patternTransform="matrix(1 0 0 -1 -2.471 -16878.7969)">
</pattern>
<path class="st61" d="M994,585.3c-2,0-3.9-0.1-5.9-0.3c-37.4-3.2-65.1-36.1-61.9-73.5c3-35.1,32.4-62.1,67.6-62.1
	c2,0,3.9,0.1,5.9,0.3c37.4,3.2,65.1,36.1,61.9,73.5C1058.6,558.2,1029.2,585.2,994,585.3L994,585.3z M993.8,454.3
	c-34.8,0-62.9,28.3-62.9,63c0,32.7,25,59.9,57.6,62.7c1.8,0.2,3.7,0.2,5.5,0.2c34.8,0,62.9-28.3,62.9-63c0-32.7-25-59.9-57.6-62.7
	C997.5,454.4,995.6,454.3,993.8,454.3z"/>
<path class="st10" d="M1012.5,518.9c-0.9,10.3-9.9,17.8-20.2,17c-4.9-0.4-9.5-2.8-12.7-6.6c-6.6-7.9-5.6-19.6,2.3-26.2
	c3.8-3.2,8.7-4.7,13.6-4.3c4.9,0.4,9.5,2.8,12.7,6.6S1012.9,514,1012.5,518.9L1012.5,518.9z"/>
<pattern  id="SVGID_56_" xlink:href="#A" patternTransform="matrix(1 0 0 -1 -2.471 -16878.7969)">
</pattern>
<path class="st62" d="M993.9,538.4c-0.6,0-1.2,0-1.8-0.1c-11.6-1-20.2-11.2-19.2-22.9c1-10.9,10.1-19.3,21-19.3c0.6,0,1.2,0,1.8,0.1
	c11.6,1,20.2,11.2,19.2,22.9C1014,530,1004.9,538.4,993.9,538.4L993.9,538.4z M993.9,501.2c-8.3,0.1-15.3,6.4-16,14.7
	c-0.8,8.9,5.8,16.7,14.7,17.4c0,0,0,0,0,0c0.5,0,0.9,0.1,1.4,0.1c8.9,0,16.1-7.2,16.1-16.1c0-8.4-6.4-15.3-14.7-16
	C994.8,501.2,994.3,501.2,993.9,501.2z"/>
<g>
	<g>
		<path id="D" class="st63" d="M1074.2,590.2c-1.1,0-2-0.9-2-2c0-0.9,0.6-1.7,1.5-1.9l253.4-70.9c1.1-0.3,2.2,0.3,2.5,1.4
			c0.3,1.1-0.3,2.2-1.4,2.5l-253.4,70.9C1074.6,590.2,1074.4,590.2,1074.2,590.2z"/>
	</g>
	<g>
		<path id="D_1_" class="st63" d="M1087.2,608.2c-1.1,0-2-0.9-2-2c0-0.9,0.6-1.7,1.5-1.9l253.4-70.9c1.1-0.3,2.2,0.3,2.5,1.4
			c0.3,1.1-0.3,2.2-1.4,2.5l-253.4,70.9C1087.6,608.2,1087.4,608.2,1087.2,608.2z"/>
	</g>
	<path class="st63" d="M1100.2,633.2c-1.1,0-2-0.9-2-2c0-0.9,0.6-1.7,1.4-1.9l245.4-72.9c1.1-0.3,2.2,0.3,2.5,1.4
		c0.3,1-0.3,2.1-1.3,2.5l-245.4,72.9C1100.6,633.2,1100.4,633.2,1100.2,633.2L1100.2,633.2z M1097.2,662.2c-1.1,0-2-0.9-2-2
		c0-0.9,0.6-1.6,1.4-1.9l249.4-82.9c1.1-0.3,2.2,0.3,2.5,1.3c0.3,1-0.2,2.1-1.2,2.5l-249.4,82.9
		C1097.6,662.2,1097.4,662.2,1097.2,662.2L1097.2,662.2z M1049.4,462c-1.1,0-2-0.9-2-2c0-1,0.7-1.8,1.6-2l248.6-48.2
		c1.1-0.2,2.1,0.5,2.4,1.5s-0.5,2.1-1.5,2.4c0,0-0.1,0-0.1,0l-248.6,48.2C1049.6,461.9,1049.5,462,1049.4,462L1049.4,462z
		 M1060.4,480.2c-1.1,0-2-0.9-2-2c0-1,0.7-1.8,1.6-2l248.6-48.2c1.1-0.2,2.1,0.5,2.4,1.5c0.2,1.1-0.5,2.1-1.5,2.4c0,0-0.1,0-0.1,0
		l-248.6,48.2C1060.7,480.2,1060.6,480.2,1060.4,480.2L1060.4,480.2z M1070.9,505.2c-1.1,0-2-0.9-2-2c0-0.9,0.7-1.8,1.6-2
		l241.1-50.7c1.1-0.2,2.1,0.5,2.4,1.6c0.2,1.1-0.5,2.1-1.5,2.3l-241.1,50.7C1071.2,505.2,1071.1,505.2,1070.9,505.2L1070.9,505.2z
		 M1065.8,532.8c-1.1,0-2-0.9-2-2c0-0.9,0.6-1.7,1.5-1.9l245.7-60c1.1-0.2,2.1,0.4,2.4,1.5c0.2,1-0.4,2.1-1.4,2.4l-245.7,60
		C1066.1,532.8,1066,532.8,1065.8,532.8L1065.8,532.8z M1028.4,349.4c-1.1,0-2-0.9-2-2c0-1,0.8-1.9,1.8-2l232.4-27.7
		c1.1-0.2,2.1,0.6,2.3,1.7c0.2,1.1-0.6,2.1-1.7,2.3c0,0-0.1,0-0.1,0l-232.4,27.7C1028.5,349.4,1028.4,349.4,1028.4,349.4
		L1028.4,349.4z M1114.7,360.2c-1.1,0-2-0.9-2-2c0-1,0.7-1.8,1.7-2l155-20.9c1.1-0.1,2.1,0.6,2.2,1.7c0.1,1.1-0.6,2.1-1.7,2.2
		l-155,20.9C1114.9,360.2,1114.8,360.2,1114.7,360.2L1114.7,360.2z M1045.3,390.7c-1.1,0-2-0.9-2-2c0-1,0.7-1.8,1.7-2l225.7-30.5
		c1.1-0.2,2.1,0.6,2.3,1.7c0.1,0.4,0,0.7-0.1,1c-0.3,0.7-0.9,1.1-1.6,1.2l-225.7,30.5C1045.5,390.7,1045.4,390.7,1045.3,390.7
		L1045.3,390.7z M1038.7,415.8c-1.1,0-2-0.9-2-2c0-1,0.7-1.8,1.7-2l230.5-38.8c1.1-0.2,2.1,0.6,2.3,1.6s-0.6,2.1-1.6,2.3
		l-230.5,38.8C1039,415.8,1038.8,415.8,1038.7,415.8L1038.7,415.8z"/>
</g>
<g transform="translate(0 -256.972)">
	<pattern  id="SVGID_57_" xlink:href="#A" patternTransform="matrix(1 0 0 -1 -2.471 -16878.7969)">
	</pattern>
	<path class="st64" d="M1247.6,547.1c-2.8,0-5.6-0.5-8.3-1.3c-0.2-0.1-0.3-0.1-0.5-0.2l-44.6-24.4c-1.5-0.8-38-20.2-38.3-91.4
		c0-1.4,1.1-2.5,2.5-2.5c0.5,0,1.1,0.2,1.5,0.5l58.1,43.2v-86.6c0-1.4,1.1-2.5,2.5-2.5c0.7,0,1.4,0.3,1.9,0.8
		c7.4,8.2,29,29.6,41,29.6c1.6,0.1,3.2-0.5,4.5-1.6c1-0.9,2.6-0.9,3.5,0.1c0.4,0.5,0.7,1.1,0.7,1.7v100
		C1271.8,524.6,1266.4,547.1,1247.6,547.1L1247.6,547.1z M1241,541.1c2.2,0.6,4.4,1,6.6,1c18.7,0,19.4-29.2,19.4-29.5V417
		c-1.2,0.4-2.4,0.5-3.7,0.5c-12.8,0-31.8-17.9-40.3-26.7V476c0,1.4-1.1,2.5-2.5,2.5c-0.5,0-1.1-0.2-1.5-0.5l-58-43.2
		c0.6,19.2,4.4,44.3,17.9,64.3c8.8,12.9,17.6,17.6,17.7,17.7L1241,541.1z"/>
	<pattern  id="SVGID_58_" xlink:href="#A" patternTransform="matrix(1 0 0 -1 -2.471 -16878.7969)">
	</pattern>
	<path class="st65" d="M1229.5,395c-1.4,0-2.5-1.1-2.5-2.5v-37c-2.2-4.5-12.7-27.1-4.8-35.9c7.8-8.7,19.4-11.5,19.9-11.6
		c1.3-0.3,2.7,0.5,3,1.9c0.1,0.4,0.1,0.8,0,1.1c-0.9,3.6-2.4,7.1-4.4,10.3c3,1.6,6.8,5.3,7.6,13.8c0.1,1.4-0.9,2.6-2.2,2.7
		c-1.4,0.1-2.6-0.9-2.7-2.2c-1.1-10.3-6.9-10.5-6.9-10.5c-1.4,0-2.5-1.2-2.5-2.5c0-0.6,0.3-1.3,0.7-1.7c1.7-1.9,3-4.1,4-6.4
		c-4.8,1.9-9.2,4.8-12.8,8.5c-4.6,5.1,1.2,21.6,5.8,30.8c0.2,0.4,0.3,0.7,0.3,1.1v37.6C1232,393.9,1230.9,395,1229.5,395L1229.5,395
		z"/>
	<pattern  id="SVGID_59_" xlink:href="#A" patternTransform="matrix(1 0 0 -1 -2.471 -16878.7969)">
	</pattern>
	<path class="st66" d="M1260.5,408c-1.4,0-2.5-1.1-2.5-2.5v-37.5c0-0.7,0.3-1.3,0.7-1.7l15.7-16.1c1-1,2.6-1,3.5,0c1,1,1,2.5,0,3.5
		l-15,15.4v36.5C1263,406.9,1261.9,408,1260.5,408z"/>
	<pattern  id="SVGID_60_" xlink:href="#A" patternTransform="matrix(1 0 0 -1 -2.471 -16878.7969)">
	</pattern>
	<path class="st67" d="M1325.8,363.8c-13.5,0-30.2-8.5-31.6-9.3l-49.6-22.2c-1.3-0.6-1.8-2-1.3-3.3c0.6-1.3,2-1.8,3.3-1.3
		c0,0,0,0,0,0l49.7,22.2c0,0,0.1,0,0.1,0.1c0.2,0.1,22.9,11.9,35,8c2.4-0.7,4.5-2.4,5.6-4.7c0.6-1.3,0.6-2.7,0-4
		c-4.6-13.6-43.9-35.5-58.6-42.7c-23.9-12.8-60.4-27.4-66.7-19.9c-1.7,1.9-2.5,4.4-2.1,6.9c1.1,8.7,13.2,17.4,13.3,17.5
		c1.1,0.8,1.4,2.4,0.6,3.5s-2.4,1.4-3.5,0.6c-0.6-0.4-14-10.1-15.4-20.9c-0.5-3.9,0.7-7.8,3.3-10.7c5.2-6.1,18.8-4.7,41.6,4.3
		c16.1,6.3,31.1,14.3,31.2,14.4c2.2,1.1,54.9,27.3,61.1,45.6c1,2.6,0.9,5.4-0.3,7.9c-1.7,3.5-4.8,6.1-8.6,7.2
		C1330.7,363.4,1328.2,363.8,1325.8,363.8L1325.8,363.8z"/>
	<pattern  id="SVGID_61_" xlink:href="#A" patternTransform="matrix(1 0 0 -1 -2.471 -16878.7969)">
	</pattern>
	<path class="st68" d="M1340,350.8c-1,0-1.9-0.6-2.3-1.5c-13.7-29.6-38-49.5-72.3-59.2c-15.6-4.4-31.8-6.3-48-5.6
		c-1.4,0.1-2.6-1-2.6-2.3c-0.1-1.3,0.9-2.5,2.3-2.6c16.7-0.8,33.5,1.2,49.6,5.8c24.7,6.9,57.8,23.3,75.6,62c0.6,1.3,0,2.7-1.2,3.3
		C1340.8,350.7,1340.4,350.8,1340,350.8L1340,350.8z"/>
	<pattern  id="SVGID_62_" xlink:href="#A" patternTransform="matrix(1 0 0 -1 -2.471 -16878.7969)">
	</pattern>
	<path class="st69" d="M1324.3,325.6c-1.4,0-2.5-1.1-2.5-2.5c0-0.5,0.1-1,0.4-1.4c0.1-0.1,7.9-11.9,4.9-24.9
		c-1.9-8.4-7.9-15.5-17.7-21.2c-14.5-8.4-28-9.5-40.3-3.3c-5.5,2.8-10.3,6.9-14.1,11.9c-0.8,1.2-2.3,1.5-3.5,0.7
		c-0.4-0.2-0.7-0.6-0.9-1c-0.4-0.8-0.3-1.8,0.2-2.5c0.2-0.3,22.6-32.4,61-10c11.1,6.5,17.9,14.7,20.1,24.5
		c3.5,15.1-5.3,28.2-5.6,28.8C1325.9,325.2,1325.1,325.6,1324.3,325.6L1324.3,325.6z"/>
	<pattern  id="SVGID_63_" xlink:href="#A" patternTransform="matrix(1 0 0 -1 -2.471 -16878.7969)">
	</pattern>
	<path class="st70" d="M1329,314.9c-0.9,0-1.7-0.4-2.1-1.2c-18.4-29.3-67.1-35.5-67.6-35.5c-1.4-0.2-2.3-1.4-2.2-2.8
		c0.2-1.4,1.4-2.3,2.8-2.2c9.6,1.4,18.9,3.7,28,6.9c20.1,7.2,35,17.8,43.2,30.9c0.7,1.2,0.4,2.7-0.8,3.4
		C1329.9,314.8,1329.4,314.9,1329,314.9L1329,314.9z"/>
	<pattern  id="SVGID_64_" xlink:href="#A" patternTransform="matrix(1 0 0 -1 -2.471 -16878.7969)">
	</pattern>
	<path class="st71" d="M1269.1,415.2c-1.4,0-2.5-1.1-2.5-2.5c0-0.7,0.3-1.3,0.8-1.8c1.5-1.3,2.3-3.2,2.2-5.1
		c-0.5-5.3-7.8-11.2-10.5-13.1c-1.2-0.8-1.5-2.3-0.7-3.5c0.8-1.2,2.3-1.5,3.5-0.7c1.2,0.8,11.9,8.1,12.7,16.8
		c0.3,3.5-1.1,6.9-3.7,9.2C1270.4,414.9,1269.8,415.2,1269.1,415.2L1269.1,415.2z"/>
	<pattern  id="SVGID_65_" xlink:href="#A" patternTransform="matrix(1 0 0 -1 -2.471 -16878.7969)">
	</pattern>
	<path class="st72" d="M1119,378.5c-2.2-0.1-4.4-0.7-6.3-2c-1.2-0.8-1.5-2.3-0.7-3.5s2.3-1.5,3.5-0.7c0.7,0.4,2.8,1.5,4.5,1
		c1.1-0.4,2-1.2,2.4-2.2c0.6-1.2,2.2-1.7,3.4-1.1c1.2,0.6,1.7,2.2,1.1,3.4l0,0c-1.1,2.3-3.1,4.1-5.6,4.8
		C1120.5,378.4,1119.8,378.5,1119,378.5L1119,378.5z"/>
	<pattern  id="SVGID_66_" xlink:href="#A" patternTransform="matrix(1 0 0 -1 -2.471 -16878.7969)">
	</pattern>
	<path class="st73" d="M1155.7,372.4c-2.2-0.1-4.4-0.7-6.3-2c-1.2-0.8-1.5-2.3-0.7-3.5c0.8-1.2,2.3-1.5,3.5-0.7
		c0.7,0.4,2.8,1.5,4.5,1c1.1-0.4,2-1.2,2.4-2.2c0.6-1.2,2.2-1.7,3.4-1.1c1.2,0.6,1.7,2.2,1.1,3.4c-1.1,2.3-3.1,4.1-5.6,4.8
		C1157.1,372.3,1156.4,372.4,1155.7,372.4L1155.7,372.4z"/>
	<pattern  id="SVGID_67_" xlink:href="#A" patternTransform="matrix(1 0 0 -1 -2.471 -16878.7969)">
	</pattern>
	<path class="st74" d="M1135.8,421.3c-6.3-0.1-12.5-0.8-18.6-2c-7.2-1.5-14.3-3.5-21.2-6.2c-1.3-0.5-1.9-2-1.4-3.3
		c0.5-1.3,2-1.9,3.3-1.4c0.3,0.1,35,14.3,56.4,4.4c16.8-7.8,4.8-45.4-1.2-59.3c-0.5-1.3,0.1-2.7,1.3-3.3c1.3-0.5,2.7,0,3.3,1.3
		c1,2.2,23.4,54.4-1.2,65.8C1150.6,419.9,1143.7,421.3,1135.8,421.3L1135.8,421.3z"/>
	<pattern  id="SVGID_68_" xlink:href="#A" patternTransform="matrix(1 0 0 -1 -2.471 -16878.7969)">
	</pattern>
	<path class="st75" d="M1085.6,425.4c-1.2,0-2.3-0.9-2.5-2.2l-4-29.2c-5.4,0-10.2-1.9-13.2-5.3c-2.1-2.4-4.3-6.8-2.8-13.9
		c0.5-3.1,2.5-5.8,5.4-7.2c6.9-3.3,17.1,1.8,18.3,2.4c1.2,0.6,1.7,2.1,1.1,3.4c-0.6,1.2-2.1,1.7-3.4,1.1c0,0,0,0,0,0l0,0
		c-2.5-1.3-9.9-4.2-13.8-2.3c-0.9,0.4-2.1,1.2-2.6,3.8c-0.9,4.1-0.3,7.3,1.7,9.5c2.3,2.6,6.6,3.9,11.4,3.5c1.3-0.1,2.5,0.8,2.7,2.1
		l4.4,31.5c0.2,1.4-0.8,2.6-2.1,2.8c0,0,0,0,0,0C1085.8,425.4,1085.7,425.4,1085.6,425.4L1085.6,425.4z"/>
	<pattern  id="SVGID_69_" xlink:href="#A" patternTransform="matrix(1 0 0 -1 -2.471 -16878.7969)">
	</pattern>
	<path class="st76" d="M1096.9,383.5h4.4l-4.4-30.9l-39.2-30.1c0,0-20.1,18.4-9.6,47.6c10.5,29.2,34,27.7,34,27.7s4.7-6.1-0.9-6.5
		c-5.7-0.4-16.2-2.2-15.7-15.9C1066,362.6,1090.8,369.5,1096.9,383.5L1096.9,383.5z"/>
	<pattern  id="SVGID_70_" xlink:href="#A" patternTransform="matrix(1 0 0 -1 -2.471 -16878.7969)">
	</pattern>
	<path class="st77" d="M1061.2,319.1l40.1,33.3c0,0,43.2-0.6,57.1-7.1l4.8,12.2c0,0,20.5-32.3-4.8-53.6S1087.4,269.9,1061.2,319.1
		L1061.2,319.1z"/>
	<pattern  id="SVGID_71_" xlink:href="#A" patternTransform="matrix(1 0 0 -1 -2.471 -16878.7969)">
	</pattern>
	<path class="st78" d="M1034.2,637c-1.4,0-2.5-1.1-2.5-2.5c0-0.1,0-0.1,0-0.2l11.6-158.4c0.1-2.4,2-48.5,42.2-50.3
		c1,0.2,2,0.3,3,0.3l33.1,17.9l24.2-21.1c0.7-0.6,1.7-0.8,2.6-0.4l8.5,3.5c0.1,0,0.2,0.1,0.2,0.1c1.2,0.6,28.5,15.9,30.3,50
		c1.7,32.8,0,130.8,0,131.8c0,1.2-0.9,2.2-2.1,2.4L1034.6,637C1034.5,637,1034.3,637,1034.2,637L1034.2,637z M1085.9,430.6
		c0,0-0.1,0-0.1,0c-15.2,0.7-26.1,8.4-32.4,23c-3,7.1-4.7,14.8-5.1,22.5c0,0,0,0.1,0,0.1l-11.4,155.2l145.6-25.9
		c0.2-14.3,1.6-99.4,0-129.4c-1.6-30.3-25.8-44.8-27.6-45.8l-6.9-2.8l-0.2,0.2c0.6,0.6,0.8,1.4,0.6,2.2l-7.2,35.3
		c-0.3,1.4-1.6,2.2-2.9,2c-0.4-0.1-0.8-0.3-1.2-0.6l-14.7-13.3l-11,16.7c-0.5,0.7-1.3,1.2-2.2,1.1c-0.9,0-1.7-0.5-2.1-1.3
		L1085.9,430.6z M1093.6,434.3l16,29.5l10.1-15.3L1093.6,434.3z M1124.3,448.2l13,11.8l5.7-28L1124.3,448.2z"/>
</g>
<pattern  id="SVGID_72_" xlink:href="#B" patternTransform="matrix(1 0 0 -1 -2.471 -16878.7969)">
</pattern>
<path class="st79" d="M1096,361.5h-20v-189h12.3l7.7,14.7V361.5z"/>
<path class="st12" d="M1122,192.5l4.6,109.7"/>
<pattern  id="SVGID_73_" xlink:href="#A" patternTransform="matrix(1 0 0 -1 -2.471 -16878.7969)">
</pattern>
<path class="st80" d="M1126.6,304.7c-1.3,0-2.4-1.1-2.5-2.4l-4.6-109.7c-0.1-1.4,1-2.5,2.4-2.6c0,0,0,0,0,0c1.4,0,2.5,1,2.6,2.4
	l4.6,109.7c0.1,1.4-1,2.5-2.4,2.6c0,0,0,0,0,0L1126.6,304.7L1126.6,304.7z"/>
<pattern  id="SVGID_74_" xlink:href="#B" patternTransform="matrix(1 0 0 -1 -2.471 -16878.7969)">
</pattern>
<path class="st81" d="M1167,361.5h-21V172.9l4.6-5.2l16.4,12.2V361.5z"/>
<pattern  id="SVGID_75_" xlink:href="#C" patternTransform="matrix(1 0 0 -1 -2.471 -16878.7969)">
</pattern>
<path class="st82" d="M1034,377.8v53.2c0,0,6.7,35.7,39.7,27s72.4-25.3,72.4-25.3s23.3-10.5,32.9-33.1s6.2-48.8,6.2-48.8L1034,377.8
	z"/>
<path class="st3" d="M1048.6,202.5l-36.6,130.8c0,0-3.5,22.7,13.5,27.9s23.1,1.7,25.7,0s110.7-66.1,110.7-66.1l-23.1-44.2
	l-76.3,37.5"/>
<g transform="translate(0 -256.972)">
	<g>
		<pattern  id="SVGID_76_" xlink:href="#A" patternTransform="matrix(1 0 0 -1 -2.471 -16878.7969)">
		</pattern>
		<path class="st83" d="M1040.9,623.4c-5.5-0.2-10.9-1.1-16.1-2.9c-15.1-4.6-16.6-22.1-15.2-30.7c0-0.1,0-0.2,0.1-0.3l36.6-130.8
			c0.4-1.3,1.7-2.1,3.1-1.8c0.4,0.1,0.8,0.4,1.2,0.7c0.6,0.6,0.9,1.6,0.6,2.4l-36.6,130.6c-0.3,2-2.4,20.6,11.8,25
			c16.5,5.1,21.8,1.5,23.6,0.3c2.5-1.6,93.5-55.9,108.8-65l-20.9-39.9l-74.1,36.4c-1.2,0.6-2.7,0.1-3.3-1.1s-0.1-2.7,1.1-3.3
			l76.3-37.5c1.2-0.6,2.7-0.1,3.3,1.1l23.1,44.2c0.6,1.2,0.2,2.6-0.9,3.3l-110.6,66C1050.2,621.8,1046.8,623.4,1040.9,623.4
			L1040.9,623.4z"/>
		<pattern  id="SVGID_77_" xlink:href="#A" patternTransform="matrix(1 0 0 -1 -2.471 -16878.7969)">
		</pattern>
		<path class="st84" d="M1150.6,386.5h-9.6c-1.4,0-2.5-1.1-2.5-2.5s1.1-2.5,2.5-2.5h5.4l-4.1-7.6c-0.6-1.2-0.2-2.7,1-3.4
			c1.2-0.6,2.7-0.2,3.4,1l6.1,11.3c0.7,1.2,0.2,2.7-1,3.4C1151.4,386.4,1151,386.5,1150.6,386.5z"/>
	</g>
	<g>
		<pattern  id="SVGID_78_" xlink:href="#C" patternTransform="matrix(1 0 0 -1 -2.471 -16878.7969)">
		</pattern>
		<path class="st85" d="M1150.6,600.6l53.9-68.7c0,0,27.5-18.5,41.5-6.1c16.8,14.8,16.1,41.8,16.1,41.8v139.5
			c0,0,21.7,20.9,21.7,37.5c0,0-10.7,7.8-37.5,0s-50.1-38.4-50.1-38.4v-63.6l-45.4,44.5"/>
		<pattern  id="SVGID_79_" xlink:href="#C" patternTransform="matrix(1 0 0 -1 -2.471 -16878.7969)">
		</pattern>
		<path class="st86" d="M1064.7,634.5l54.1-68.6c0,0,27.8-18.5,41.9-6.1c16.8,14.8,16.4,41.8,16.4,41.8v139.5
			c0,0,21.4,20.9,21.4,37.5c0,0-11.1,7.8-37.9,0c-26.8-7.8-50.5-38.4-50.5-38.4V634.5"/>
	</g>
	<g>
		<pattern  id="SVGID_80_" xlink:href="#A" patternTransform="matrix(1 0 0 -1 -2.471 -16878.7969)">
		</pattern>
		<path class="st87" d="M1110.5,665c-1.4,0-2.5-1.1-2.5-2.5v-28c0-1.4,1.1-2.5,2.5-2.5s2.5,1.1,2.5,2.5v28
			C1113,663.9,1111.9,665,1110.5,665z"/>
		<pattern  id="SVGID_81_" xlink:href="#A" patternTransform="matrix(1 0 0 -1 -2.471 -16878.7969)">
		</pattern>
		<path class="st88" d="M1176.5,665c-1.4,0-2.5-1.1-2.5-2.5v-60.9c0-0.3,0.3-26-15.4-39.9c-6.3-5.6-16.3-3.7-23.6-1.1
			c-5.1,1.9-10.1,4.3-14.7,7.2l-63.6,82.3c-0.8,1.1-2.4,1.3-3.5,0.4c-1.1-0.8-1.3-2.4-0.4-3.5l63.9-82.6c0.2-0.2,0.4-0.4,0.6-0.5
			c1.2-0.8,29.4-19.5,44.7-6c17.5,15.4,17.1,42.6,17.1,43.7v60.8C1179,663.9,1177.9,665,1176.5,665z"/>
	</g>
</g>
<path class="st89" d="M1177,484.1v-78.6h-67v77.7c0,0,23.9,30.5,50.7,38.4c26.8,7.8,37.7,0,37.7,0
	C1198.3,505.1,1177,484.1,1177,484.1L1177,484.1z"/>
<g transform="translate(0 -256.972)">
	<pattern  id="SVGID_82_" xlink:href="#A" patternTransform="matrix(1 0 0 -1 -2.471 -16878.7969)">
	</pattern>
	<path class="st90" d="M1182.6,784.6L1182.6,784.6c-7.6-0.1-15.1-1.3-22.4-3.6c-11.5-3.4-23.7-11-36.3-22.7
		c-5.5-5.1-10.7-10.7-15.4-16.5c-0.3-0.4-0.5-1-0.5-1.5V662c0-1.4,1.1-2.5,2.5-2.5h67c1.4,0,2.5,1.1,2.5,2.5v78.1
		c3.9,4,21.2,22.7,21.2,38.5c0,0.8-0.4,1.6-1,2C1199.9,780.8,1194.5,784.6,1182.6,784.6L1182.6,784.6z M1113,739.4
		c3.6,4.4,25.1,29.9,48.6,36.8c6.8,2.1,13.9,3.2,21,3.4c7.3,0,11.6-1.5,13.5-2.4c-1.2-15.1-20.2-34.1-20.4-34.3
		c-0.5-0.5-0.7-1.1-0.7-1.8v-76.6h-62L1113,739.4z"/>
	<pattern  id="SVGID_83_" xlink:href="#A" patternTransform="matrix(1 0 0 -1 -2.471 -16878.7969)">
	</pattern>
	<path class="st91" d="M1177.6,743.6c-0.7,0-1.4-0.3-1.9-0.9c-5.7-6.5-22.9-2.9-29-1c-1.3,0.4-2.7-0.3-3.2-1.6
		c-0.1-0.4-0.2-0.9-0.1-1.4c0.2-0.9,0.9-1.6,1.7-1.8c4.3-1.3,8.8-2.2,13.3-2.7c10-1,17.1,0.7,21,5.2c0.9,1,0.8,2.6-0.2,3.5
		C1178.8,743.4,1178.2,743.6,1177.6,743.6L1177.6,743.6z"/>
</g>
<path class="st89" d="M1196,385.6v63.6c0,0,23.6,30.5,50.4,38.4s37.3,0,37.3,0c0-16.6-21.7-37.5-21.7-37.5v-79.6h-66.5L1196,385.6z"
	/>
<pattern  id="SVGID_84_" xlink:href="#A" patternTransform="matrix(1 0 0 -1 -2.471 -16878.7969)">
</pattern>
<path class="st92" d="M1268.2,493.6L1268.2,493.6c-7.6-0.1-15.1-1.3-22.3-3.6c-11.5-3.4-23.6-11-36.1-22.7
	c-5.5-5.1-10.6-10.7-15.3-16.5c-0.3-0.4-0.5-1-0.5-1.5v-63.6l-1-15.5c-0.1-1.4,1-2.6,2.3-2.7c0.1,0,0.1,0,0.2,0h67
	c1.4,0,2.5,1.1,2.5,2.5v79.1c4,4,21.6,22.7,21.6,38.5c0,0.8-0.4,1.5-1,2C1285.3,489.8,1280,493.6,1268.2,493.6L1268.2,493.6z
	 M1199,448.4c3.5,4.4,24.8,29.9,48.3,36.8c6.8,2.1,13.8,3.2,20.9,3.4c7.1,0,11.4-1.5,13.3-2.4c-1.2-15.1-20.5-34.1-20.7-34.3
	c-0.5-0.5-0.8-1.1-0.8-1.8v-77.6h-61.9l0.9,12.9c0,0.1,0,0.1,0,0.2L1199,448.4z"/>
<path class="st10" d="M1196,333.5v37"/>
<g transform="translate(0 -256.972)">
	<pattern  id="SVGID_85_" xlink:href="#A" patternTransform="matrix(1 0 0 -1 -2.471 -16878.7969)">
	</pattern>
	<path class="st93" d="M1196.5,630c-1.4,0-2.5-1.1-2.5-2.5v-37c0-1.4,1.1-2.5,2.5-2.5s2.5,1.1,2.5,2.5v37
		C1199,628.9,1197.9,630,1196.5,630z"/>
	<pattern  id="SVGID_86_" xlink:href="#A" patternTransform="matrix(1 0 0 -1 -2.471 -16878.7969)">
	</pattern>
	<path class="st94" d="M1230.3,712.3c-1.4,0-2.5-1.1-2.5-2.5c0-1,0.6-1.9,1.6-2.3c0.7-0.3,18.4-7.3,34.3-2.8
		c1.3,0.4,2.1,1.8,1.7,3.1c-0.4,1.3-1.8,2.1-3.1,1.7l0,0c-14.2-4.1-30.9,2.5-31.1,2.6C1231,712.2,1230.7,712.3,1230.3,712.3
		L1230.3,712.3z"/>
	<pattern  id="SVGID_87_" xlink:href="#A" patternTransform="matrix(1 0 0 -1 -2.471 -16878.7969)">
	</pattern>
	<path class="st95" d="M1051,321.5h-8c-1.4,0-2.5-1.1-2.5-2.5s1.1-2.5,2.5-2.5h8c1.4,0,2.5,1.1,2.5,2.5S1052.4,321.5,1051,321.5z"/>
	<pattern  id="SVGID_88_" xlink:href="#A" patternTransform="matrix(1 0 0 -1 -2.471 -16878.7969)">
	</pattern>
	<path class="st96" d="M1050.7,312.9c-0.7,0-1.3-0.3-1.8-0.8l-3.9-4.1c-1-1-1-2.6,0-3.5c1-1,2.6-1,3.5,0c0,0,0,0,0,0l3.9,4.1
		c1,1,0.9,2.6-0.1,3.5C1052,312.6,1051.4,312.9,1050.7,312.9L1050.7,312.9z"/>
	<pattern  id="SVGID_89_" xlink:href="#A" patternTransform="matrix(1 0 0 -1 -2.471 -16878.7969)">
	</pattern>
	<path class="st97" d="M1134.9,432.3c-1.3,0-2.4-1-2.5-2.3l-0.9-11.3c-0.1-1.4,0.9-2.6,2.3-2.7s2.6,0.9,2.7,2.3c0,0,0,0,0,0.1
		l0.9,11.3c0.1,1.4-0.9,2.6-2.3,2.7L1134.9,432.3L1134.9,432.3z"/>
</g>
<path class="st3" d="M1145.2,259.9l38-22.1c0,0,14.8-6.5,23.5,0s19.2,22.1,19.2,22.1s-7.7,1.6-10.6,0l-4.2-8.6c0,0,9.7,19.2,6,22.7
	s-14.7-9.6-14.7-9.6s11.3,19.5,7,23.3c-4.4,3.8-13.9-15.1-13.9-15.1s-8.7,13.3-20.9,8.8l-13.5,6.8"/>
<pattern  id="SVGID_90_" xlink:href="#A" patternTransform="matrix(1 0 0 -1 -2.471 -16878.7969)">
</pattern>
<path class="st98" d="M1161,290.7c-1.4,0-2.5-1.1-2.5-2.5c0-0.9,0.5-1.8,1.4-2.2l13.5-6.8c0.6-0.3,1.3-0.3,2-0.1
	c10.2,3.7,17.7-7.4,18-7.9c0.5-0.7,1.3-1.2,2.2-1.1s1.7,0.6,2.1,1.4c3.5,6.9,8.2,13.4,10.2,14.2c0.9-2.1-2.6-11.4-7.6-19.9
	c-0.7-1.2-0.3-2.7,0.9-3.4c1.1-0.6,2.4-0.4,3.2,0.6c4.1,4.9,9.3,9.3,11.1,9.3c0.7-1.9-1.8-9.8-5.5-17.5l-1-2.1
	c-0.6-1.2-0.1-2.7,1.1-3.4c1.2-0.6,2.7-0.1,3.4,1.1l3.8,7.7c1.5,0.2,2.9,0.3,4.4,0.1c-3.5-4.8-10.4-13.8-16.3-18.2
	c-7.1-5.3-19.6-0.3-20.9,0.2l-37.9,22c-1.2,0.7-2.7,0.3-3.4-0.9s-0.3-2.7,0.9-3.4l38-22.1c0.1,0,0.2-0.1,0.2-0.1
	c0.7-0.3,16.3-7,26,0.3c9,6.7,19.3,22,19.8,22.7c0.8,1.1,0.5,2.7-0.7,3.5c-0.3,0.2-0.6,0.3-0.9,0.4c-2.5,0.5-5.1,0.8-7.6,0.7
	c1.7,5.4,2.4,10.5-0.1,12.7c-1,0.9-2.3,1.4-3.7,1.2c-1.6-0.2-3.2-0.8-4.6-1.8c3,7.5,3.2,12,0.5,14.3c-1.1,0.9-2.5,1.3-3.9,1
	c-4.3-0.8-9.3-8.4-12.1-13.5c-4.3,4.6-11.7,9.5-20.3,7l-12.6,6.3C1161.8,290.6,1161.4,290.7,1161,290.7L1161,290.7z"/>
<path class="st10" d="M1221.2,219.1l10.5,7.8"/>
<g transform="translate(0 -256.972)">
	<pattern  id="SVGID_91_" xlink:href="#A" patternTransform="matrix(1 0 0 -1 -2.471 -16878.7969)">
	</pattern>
	<path class="st99" d="M1231.7,486.4c-0.5,0-1.1-0.2-1.5-0.5l-10.5-7.8c-1.1-0.8-1.3-2.4-0.5-3.5s2.4-1.3,3.5-0.5l0,0l10.5,7.8
		c1.1,0.8,1.3,2.4,0.5,3.5C1233.2,486,1232.4,486.4,1231.7,486.4z"/>
	<pattern  id="SVGID_92_" xlink:href="#A" patternTransform="matrix(1 0 0 -1 -2.471 -16878.7969)">
	</pattern>
	<path class="st100" d="M1245.6,291.2c0,0-15.6-2.7-19.2,3.3c-3.6,6,47,32.5,47,32.5s49.4,24.9,55.5,19c5.3-5-7.4-16.5-7.4-16.5
		S1258.3,291.4,1245.6,291.2z"/>
	<pattern  id="SVGID_93_" xlink:href="#A" patternTransform="matrix(1 0 0 -1 -2.471 -16878.7969)">
	</pattern>
	<path class="st101" d="M1114.7,391.9c-0.7,3.9,10.1,15.6,23,10.8c7-2.6,2.8-9.1-5.3-9.1C1127.9,393.5,1117,380.1,1114.7,391.9
		L1114.7,391.9z"/>
	<pattern  id="SVGID_94_" xlink:href="#A" patternTransform="matrix(1 0 0 -1 -2.471 -16878.7969)">
	</pattern>
	<path class="st102" d="M1533.9,752.5c-0.6,0-1.2-0.2-1.7-0.6l-12.9-11.4c-1-0.9-1.1-2.5-0.2-3.5c0.9-1,2.5-1.1,3.5-0.2l9.9,8.7
		l8.6-31.6c0.3-1.3,1.7-2.1,3.1-1.8c0.4,0.1,0.8,0.3,1.1,0.7c0.6,0.6,0.9,1.6,0.6,2.4l-9.7,35.5C1536,751.8,1535,752.5,1533.9,752.5
		L1533.9,752.5z"/>
</g>
<path class="st12" d="M1533.9,493.1l-15.2-3.2"/>
<pattern  id="SVGID_95_" xlink:href="#A" patternTransform="matrix(1 0 0 -1 -2.471 -16878.7969)">
</pattern>
<path class="st103" d="M1533.9,495.6c-0.2,0-0.3,0-0.5-0.1l-15.2-3.2c-1.4-0.3-2.2-1.6-1.9-3c0.3-1.4,1.6-2.2,3-1.9l15.2,3.2
	c1.4,0.3,2.2,1.6,1.9,3C1536.1,494.7,1535.1,495.6,1533.9,495.6L1533.9,495.6z"/>
<path class="st10" d="M1489.8,384.9c0,0,24.2,41.5,27.6,50.6s42.3,62,87,33.7c0,0,24.3-9.5,24.9-43.9l-82.9-37.4
	C1546.5,388,1510.7,347.8,1489.8,384.9z"/>
<g transform="translate(0 -256.972)">
	<g>
		<pattern  id="SVGID_96_" xlink:href="#A" patternTransform="matrix(1 0 0 -1 -2.471 -16878.7969)">
		</pattern>
		<path class="st104" d="M1577.6,736.5L1577.6,736.5c-34.2,0-59.6-35.7-62.5-43.4c-3.3-8.9-27.2-49.7-27.5-50.1
			c-0.4-0.7-0.5-1.7,0-2.4c6.4-11.3,14.7-17,24.8-17c16.9,0,32.8,16.4,35.5,19.3l82.5,37.1c0.9,0.4,1.5,1.3,1.5,2.3
			c-0.7,34.2-23.5,44.7-26.3,45.8C1597.3,733.6,1587.6,736.4,1577.6,736.5L1577.6,736.5z M1492.7,641.8c4.2,7.2,23.9,41.1,27.1,49.6
			c2.5,6.8,26.7,40.1,57.8,40.1h0c9.1,0,17.9-2.7,25.5-7.7c0.1-0.1,0.3-0.1,0.4-0.1c0.9-0.4,22-9,23.3-39.9l-81.4-36.6
			c-0.3-0.1-0.6-0.3-0.8-0.6c-0.2-0.2-16.2-18-32.1-18C1504.6,628.6,1498,633.1,1492.7,641.8L1492.7,641.8z"/>
		<pattern  id="SVGID_97_" xlink:href="#A" patternTransform="matrix(1 0 0 -1 -2.471 -16878.7969)">
		</pattern>
		<path class="st105" d="M1629.4,682.3l51.2-32.4C1680.6,649.9,1663.8,708.6,1629.4,682.3z"/>
		<pattern  id="SVGID_98_" xlink:href="#A" patternTransform="matrix(1 0 0 -1 -2.471 -16878.7969)">
		</pattern>
		<path class="st106" d="M1628.4,684.6l60.5-3.7C1688.9,680.8,1645.9,724.2,1628.4,684.6z"/>
		<pattern  id="SVGID_99_" xlink:href="#A" patternTransform="matrix(1 0 0 -1 -2.471 -16878.7969)">
		</pattern>
		<path class="st107" d="M1629.4,689.2l58.2,16.7C1687.7,705.9,1632.7,732.4,1629.4,689.2z"/>
	</g>
	<pattern  id="SVGID_100_" xlink:href="#C" patternTransform="matrix(1 0 0 -1 -2.471 -16878.7969)">
	</pattern>
	<path class="st108" d="M1504.8,627.5c0,0-9.3-22.7,0-22.1c5.6,0.5,10.7,3.5,13.9,8.1c0,0,10.2-9.5,13.6-5.8s-6,21.9-6,21.9"/>
	<pattern  id="SVGID_101_" xlink:href="#A" patternTransform="matrix(1 0 0 -1 -2.471 -16878.7969)">
	</pattern>
	<path class="st109" d="M1593,761.5h-17c-1.4,0-2.5-1.1-2.5-2.5s1.1-2.5,2.5-2.5h13l-14.3-29.4c-0.6-1.3,0-2.7,1.2-3.3
		c1.2-0.6,2.7-0.1,3.3,1.1l16.1,33c0.6,1.2,0.1,2.7-1.2,3.3C1593.7,761.4,1593.4,761.5,1593,761.5L1593,761.5z"/>
</g>
<path class="st12" d="M1593,502.7l-13.5,7.6"/>
<pattern  id="SVGID_102_" xlink:href="#A" patternTransform="matrix(1 0 0 -1 -2.471 -16878.7969)">
</pattern>
<path class="st110" d="M1579.5,512.8c-1.4,0-2.5-1.1-2.5-2.5c0-0.9,0.5-1.7,1.3-2.2l13.5-7.6c1.2-0.7,2.7-0.3,3.4,0.9
	c0.7,1.2,0.3,2.7-0.9,3.4c0,0-0.1,0-0.1,0l-13.5,7.6C1580.4,512.7,1579.9,512.8,1579.5,512.8z"/>
<path class="st10" d="M1521.9,414.3c0,0,10.2,3.7,15.4-2.2s0.6-16.1,0.6-16.1s11.1,2.2,17.5-4.1l-8.9-4c0,0-35.7-40.2-56.6-3.1
	c0,0,16.1,27.5,23.9,42.6C1516.8,426.1,1522.8,422.4,1521.9,414.3L1521.9,414.3z"/>
<pattern  id="SVGID_103_" xlink:href="#A" patternTransform="matrix(1 0 0 -1 -2.471 -16878.7969)">
</pattern>
<path class="st111" d="M1513.7,430c-0.9,0-1.8-0.5-2.2-1.4c-7.7-14.9-23.6-42.3-23.8-42.5c-0.4-0.8-0.5-1.7,0-2.5
	c6.4-11.3,14.7-17,24.8-17c16.9,0,32.8,16.4,35.5,19.2l8.4,3.8c1.3,0.6,1.8,2,1.3,3.3c-0.1,0.3-0.3,0.5-0.5,0.7
	c-4.7,4.6-11.3,5.3-15.7,5.2c1,4,1.7,10.3-2.3,14.9c-2.4,2.7-6,4.2-10.4,4.2c-1.5,0-2.9-0.1-4.4-0.4c-0.7,7.5-6.8,11-9.7,12.2
	C1514.4,429.9,1514,430,1513.7,430L1513.7,430z M1492.7,384.9l22,39.3c3.4-1.9,5.2-5.7,4.6-9.5c-0.2-1.4,0.8-2.6,2.2-2.8
	c0.4,0,0.8,0,1.1,0.1c1.9,0.6,4,1,6,1c3,0,5.2-0.8,6.7-2.5c4-4.5,0.2-13.3,0.2-13.4c-0.6-1.3,0-2.7,1.2-3.3c0.5-0.2,1-0.3,1.5-0.2
	c0,0,6.7,1.2,12-1.2l-4.9-2.2c-0.3-0.1-0.6-0.4-0.8-0.6c-0.2-0.2-16.2-18-32.1-18C1504.6,371.6,1498,376.1,1492.7,384.9
	L1492.7,384.9z"/>
<path class="st10" d="M1555.3,392c0,0-4.8,42.9,20.4,52.6s34.7-27.3,34.7-27.3L1555.3,392z"/>
<g transform="translate(0 -256.972)">
	<pattern  id="SVGID_104_" xlink:href="#A" patternTransform="matrix(1 0 0 -1 -2.471 -16878.7969)">
	</pattern>
	<path class="st112" d="M1583.9,705.5L1583.9,705.5c-3.1,0-6.2-0.6-9.1-1.7c-11.2-4.3-18.6-15.3-21.3-31.8
		c-1.2-7.7-1.5-15.6-0.8-23.3c0.1-0.8,0.6-1.5,1.3-1.9s1.5-0.4,2.3-0.1l55.2,25.3c1.1,0.5,1.7,1.7,1.4,2.9c-1.5,5.3-3.6,10.3-6.4,15
		C1600.6,700.2,1592.7,705.5,1583.9,705.5L1583.9,705.5z M1557.6,652.7c-0.5,10.1-0.1,39.2,19.1,46.5c2.3,0.9,4.8,1.4,7.3,1.5
		c14.3,0,21.5-18.8,23.6-25.1L1557.6,652.7z"/>
	<pattern  id="SVGID_105_" xlink:href="#A" patternTransform="matrix(1 0 0 -1 -2.471 -16878.7969)">
	</pattern>
	<path class="st113" d="M1489.8,641.8c-5.6,2.5-9.6,7.5-10.8,13.5l16.1-4.2L1489.8,641.8z"/>
	<pattern  id="SVGID_106_" xlink:href="#A" patternTransform="matrix(1 0 0 -1 -2.471 -16878.7969)">
	</pattern>
	<path class="st114" d="M1516.9,638.4c0,2.1-1.7,3.7-3.7,3.7c-2.1,0-3.7-1.7-3.7-3.7c0-2.1,1.7-3.7,3.7-3.7c0,0,0,0,0,0
		C1515.2,634.6,1516.9,636.3,1516.9,638.4C1516.9,638.4,1516.9,638.4,1516.9,638.4z"/>
</g>
<path class="st24" d="M1438,499.6c0,0,19.1,20.4,36.2,10.8c17.1-9.6,17.1-37.1,0-38.3S1469.8,507.9,1438,499.6L1438,499.6z"/>
<g transform="translate(0 -256.972)">
	<pattern  id="SVGID_107_" xlink:href="#A" patternTransform="matrix(1 0 0 -1 -2.471 -16878.7969)">
	</pattern>
	<path class="st115" d="M1466.5,782c-1.4,0-2.5-1.1-2.5-2.5v-9c0-1.4,1.1-2.5,2.5-2.5s2.5,1.1,2.5,2.5v9
		C1469,780.9,1467.9,782,1466.5,782z"/>
	<pattern  id="SVGID_108_" xlink:href="#A" patternTransform="matrix(1 0 0 -1 -2.471 -16878.7969)">
	</pattern>
	<path class="st116" d="M1474.5,778c-1.4,0-2.5-1.1-2.5-2.5v-8c0-1.4,1.1-2.5,2.5-2.5s2.5,1.1,2.5,2.5v8
		C1477,776.9,1475.9,778,1474.5,778z"/>
	<pattern  id="SVGID_109_" xlink:href="#A" patternTransform="matrix(1 0 0 -1 -2.471 -16878.7969)">
	</pattern>
	<path class="st117" d="M1484.9,736.5c0,0,11.9,3.9,12.5,11.7l-11.6-1.7L1484.9,736.5z"/>
	<pattern  id="SVGID_110_" xlink:href="#A" patternTransform="matrix(1 0 0 -1 -2.471 -16878.7969)">
	</pattern>
	<path class="st118" d="M1478,739c0,1.9-1.6,3.5-3.5,3.5s-3.5-1.6-3.5-3.5c0-1.9,1.6-3.5,3.5-3.5l0,0
		C1476.5,735.5,1478,737.1,1478,739z"/>
</g>
<path class="st24" d="M1397.1,437.7c0,0,19.1,20.4,36.2,10.8s17.1-37.1,0-38.3S1428.8,446,1397.1,437.7L1397.1,437.7z"/>
<g transform="translate(0 -256.972)">
	<pattern  id="SVGID_111_" xlink:href="#A" patternTransform="matrix(1 0 0 -1 -2.471 -16878.7969)">
	</pattern>
	<path class="st119" d="M1425.5,720c-1.4,0-2.5-1.1-2.5-2.5v-9c0-1.4,1.1-2.5,2.5-2.5s2.5,1.1,2.5,2.5v9
		C1428,718.9,1426.9,720,1425.5,720z"/>
	<pattern  id="SVGID_112_" xlink:href="#A" patternTransform="matrix(1 0 0 -1 -2.471 -16878.7969)">
	</pattern>
	<path class="st120" d="M1433.5,717c-1.4,0-2.5-1.1-2.5-2.5v-9c0-1.4,1.1-2.5,2.5-2.5s2.5,1.1,2.5,2.5v9
		C1436,715.9,1434.9,717,1433.5,717z"/>
	<pattern  id="SVGID_113_" xlink:href="#A" patternTransform="matrix(1 0 0 -1 -2.471 -16878.7969)">
	</pattern>
	<path class="st121" d="M1443.9,674.6c0,0,11.9,3.9,12.5,11.7l-11.6-1.7L1443.9,674.6z"/>
	<pattern  id="SVGID_114_" xlink:href="#A" patternTransform="matrix(1 0 0 -1 -2.471 -16878.7969)">
	</pattern>
	<path class="st122" d="M1437,678c0,1.9-1.6,3.5-3.5,3.5s-3.5-1.6-3.5-3.5c0-1.9,1.6-3.5,3.5-3.5l0,0
		C1435.5,674.5,1437,676.1,1437,678z"/>
</g>
<path class="st3" d="M1820.7,354c0.5,3.1-1.6,6.1-4.7,6.6l0,0c-3.1,0.5-6.1-1.6-6.6-4.7l-44.1-266c-0.2-1.5,0.1-3,1-4.3
	s2.2-2.1,3.7-2.3l0,0c3.1-0.5,6.1,1.6,6.6,4.7L1820.7,354z"/>
<g transform="translate(0 -256.972)">
	<pattern  id="SVGID_115_" xlink:href="#A" patternTransform="matrix(1 0 0 -1 -2.471 -16878.7969)">
	</pattern>
	<path class="st123" d="M1815.1,620.2c-4,0-7.5-2.9-8.1-6.9l-44.1-265.9c-0.7-4.5,2.3-8.7,6.8-9.4c0,0,0,0,0,0
		c4.5-0.7,8.7,2.3,9.4,6.7c0,0,0,0,0,0l44.1,265.9c0.7,4.5-2.3,8.7-6.8,9.5C1816,620.1,1815.5,620.2,1815.1,620.2L1815.1,620.2z
		 M1771,342.8c-0.2,0-0.4,0-0.5,0c-1.8,0.3-2.9,1.9-2.6,3.7l44.1,266c0.3,1.8,1.9,2.9,3.7,2.6c1.8-0.3,2.9-1.9,2.6-3.7l0,0
		l-44.1-265.9C1773.9,343.9,1772.5,342.8,1771,342.8z"/>
	<pattern  id="SVGID_116_" xlink:href="#C" patternTransform="matrix(1 0 0 -1 -2.471 -16878.7969)">
	</pattern>
	<path class="st124" d="M1770,391.3l16.1-3.2c0,0,0.6-75.8-21.1-77.8S1770,391.3,1770,391.3L1770,391.3z"/>
</g>
<path class="st12" d="M1816.8,333.4c0,0,9,28.6,27.5,29.2c17,0.6,26.8,79.9,26.8,79.9s-6,10.6-8,1.3s-13.6-56.7-19.9-56.9
	s5.3,58.9,5.3,58.9s-3.3,14.8-8.4,4.4s-11.6-60.9-18.7-60.2s3.7,63.1,3.7,63.1s-3.5,10.6-7.5,3.6s-11-66.4-20.1-62.8
	c-6.7,2.7,1.8,60.4,1.8,60.4s-2.5,19.7-8,1.3c-2.5-8.5-17-60.2-8.8-79.5c4.2-9.9,25.3-7.6,23.6-41.1L1816.8,333.4z"/>
<pattern  id="SVGID_117_" xlink:href="#A" patternTransform="matrix(1 0 0 -1 -2.471 -16878.7969)">
</pattern>
<path class="st125" d="M1795.6,466.2c-3.2,0-5-3.9-6.7-9.6c-1.8-6.1-17.5-60.4-8.8-81.2c1.6-3.8,5-6,8.6-8.3
	c7.4-4.7,15.9-10.1,14.8-31.7c-0.1-1.3,0.8-2.4,2.1-2.6l10.8-1.8c1.2-0.2,2.4,0.5,2.8,1.7c0.1,0.3,8.7,26.9,25.2,27.5
	c11.2,0.4,18,24.2,22.1,42.1c4.5,19.8,7,39.8,7.1,40c0.1,0.6,0,1.2-0.3,1.7c-1.1,1.9-4,6.6-7.5,6.6h0c-1.8,0-4.1-1.2-5.1-5.9
	c-5.9-27.2-13.3-48.2-16.8-53.8c-0.8,7.5,2.8,32.7,7.1,54.7c0.1,0.3,0.2,0.7,0.2,1c-0.7,3-3.1,10.1-7.1,10.1v0c-4,0-5.4-3.8-6-5.1
	c-2.1-4.3-4.3-14-6.7-25.2c-2.2-10.3-6.3-28.7-9.3-33c-1.8,6.5,1.3,34.9,5.6,59.5c0.1,0.4,0,0.8-0.1,1.2c-0.6,1.8-2.9,7.7-7.1,7.7
	c-1.9,0-3.6-1.2-5-3.6c-1.5-2.6-3-9.6-5.4-21.7c-1.8-8.8-3.8-18.7-6-26.6c-2.8-10.1-4.8-12.6-5.5-13.2c-2,3.9-1.3,26.3,3.3,57.5
	c0,0.2,0,0.5,0,0.7C1800.8,462.3,1798.7,466.1,1795.6,466.2L1795.6,466.2z M1808.6,337.3c0.5,22.6-9.7,29.1-17.1,33.9
	c-3.2,2-5.7,3.7-6.7,6c-3.2,7.6-3,22.2,0.6,42.4c2.2,12,5,23.8,8.4,35.5c0.5,1.7,1.1,3.3,1.8,4.9c0.6-1.8,1-3.6,1.3-5.5
	c-0.3-2.3-2.2-15.6-3.4-29c-2.5-29,0.3-32.6,3.2-33.7c0.5-0.2,1.1-0.3,1.7-0.3c6.6,0,10.3,13,16.6,44c1.8,8.9,3.7,18.1,4.9,20.2
	c0.2,0.4,0.4,0.7,0.7,1c0.9-1.1,1.6-2.3,2.1-3.6c-2.4-14.1-9.2-57-4.1-63.8c0.6-0.9,1.6-1.5,2.7-1.6c0.1,0,0.3,0,0.4,0
	c5.4,0,8.4,9.4,14.5,37.6c2.2,10,4.4,20.3,6.2,24c0.3,0.8,0.8,1.5,1.3,2.1c1.1-1.7,1.9-3.5,2.3-5.5c-0.5-2.6-2.8-14.6-4.6-26.9
	c-4.3-29-2-31.8-0.9-33.2c0.7-0.8,1.7-1.3,2.7-1.3c2.9,0.1,6.6,2.2,14,26.8c4.2,13.8,7.6,28.1,8.4,32.1c0.1,0.6,0.3,1.1,0.5,1.6
	c1-0.9,1.8-1.9,2.5-3c-0.5-4-2.9-21.4-6.9-38.7c-8.1-35.2-15.4-38.1-17.4-38.2c-17.2-0.6-26.6-22-29.1-28.9L1808.6,337.3z"/>
<path class="st10" d="M1700.8,570.7l131.5,1.9l10.1,124.8c0,0,1.4,21-15.7,21l-125.8,0.5c0,0-21.4-7.1-18.5-22.9
	S1700.8,570.7,1700.8,570.7L1700.8,570.7z"/>
<pattern  id="SVGID_118_" xlink:href="#A" patternTransform="matrix(1 0 0 -1 -2.471 -16878.7969)">
</pattern>
<path class="st126" d="M1700.8,721.5c-0.3,0-0.5-0.1-0.8-0.2c-3.9-1.4-7.7-3.4-11-5.9c-7.3-5.5-10.5-12.4-9.1-19.8
	c2.8-15.5,18.3-124,18.5-125.1c0.2-1.2,1.3-2.1,2.5-2h0l131.5,1.8c1.3,0,2.3,1,2.5,2.2l10.1,124.8c0,0.5,0.7,11.7-5.7,18.6
	c-3.3,3.4-7.8,5.3-12.5,5.1L1700.8,721.5L1700.8,721.5z M1703,573.3l-18.2,123.2c-2.3,12.4,13.8,18.9,16.5,19.9l125.4-0.5
	c3.8,0,6.7-1.1,8.9-3.5c4.9-5.2,4.4-14.7,4.3-14.8l-9.9-122.5L1703,573.3z"/>
<path class="st127" d="M1682.3,696c-2.9,15.7,18.5,22.9,18.5,22.9l125.8-0.5c17.1,0,15.7-21,15.7-21
	C1761.9,644.6,1682.3,696,1682.3,696L1682.3,696z"/>
<g transform="translate(0 -256.972)">
	<pattern  id="SVGID_119_" xlink:href="#A" patternTransform="matrix(1 0 0 -1 -2.471 -16878.7969)">
	</pattern>
	<path class="st128" d="M1700.8,978.5c-0.3,0-0.5-0.1-0.8-0.2c-3.9-1.4-7.7-3.4-11-5.9c-7.3-5.5-10.5-12.4-9.1-19.8
		c0.2-1.4,1.5-2.3,2.9-2c1.4,0.2,2.3,1.5,2,2.9c-2.2,12.3,13.8,18.9,16.5,19.9l125.4-0.5c3.8,0,6.7-1.1,8.9-3.5
		c4.9-5.2,4.4-14.7,4.3-14.8c-0.1-1.4,1-2.6,2.4-2.6c1.3-0.1,2.5,0.9,2.6,2.3c0,0.5,0.7,11.7-5.7,18.6c-3.3,3.4-7.8,5.3-12.5,5.1
		L1700.8,978.5L1700.8,978.5z"/>
	<pattern  id="SVGID_120_" xlink:href="#A" patternTransform="matrix(1 0 0 -1 -2.471 -16878.7969)">
	</pattern>
	<path class="st129" d="M1880.8,936.5h-40c-1.3,0-2.4-1-2.5-2.3l-1.6-18c-0.1-1.4,0.9-2.6,2.3-2.7c0.1,0,0.1,0,0.2,0h20.9
		l-25.7-30.5c-0.3-0.4-0.5-0.9-0.6-1.4l-2.3-28.9c-0.1-1.4,0.9-2.6,2.3-2.7c0.8-0.1,1.6,0.3,2.1,0.9l46.7,57.3
		c0.1,0.1,0.1,0.2,0.2,0.2c0.3,0.5,7.3,11.7,5,20.3c-0.8,3.2-3,5.8-5.9,7.3C1881.7,936.4,1881.3,936.5,1880.8,936.5L1880.8,936.5z
		 M1843.1,931.5h37.1c1.5-0.8,2.5-2.2,2.9-3.9c1.4-5.3-2.6-13.4-4.3-16.3l-41.5-51l1.6,20l28.6,34c0.9,1.1,0.8,2.6-0.3,3.5
		c-0.5,0.4-1,0.6-1.6,0.6H1842L1843.1,931.5z"/>
	<pattern  id="SVGID_121_" xlink:href="#A" patternTransform="matrix(1 0 0 -1 -2.471 -16878.7969)">
	</pattern>
	<path class="st130" d="M1784.6,907.7c-1.4,0-2.5-1.1-2.5-2.5c0-0.8,0.4-1.5,1-2c25.5-18.8,34.2-64.6,28.8-86.6
		c-1-4-3.4-10.9-8.3-11.6c-18.2-2.7-36.1,23.9-36.3,24.1c-0.8,1.1-2.3,1.5-3.5,0.7c-1.1-0.8-1.5-2.3-0.7-3.5
		c0.8-1.2,19.9-29.5,41.2-26.3c4.1,0.6,9.5,3.8,12.4,15.4c5.9,23.9-3.1,71.5-30.7,91.8C1785.7,907.5,1785.2,907.7,1784.6,907.7z"/>
	<pattern  id="SVGID_122_" xlink:href="#A" patternTransform="matrix(1 0 0 -1 -2.471 -16878.7969)">
	</pattern>
	<path class="st131" d="M1627.7,861.9c-6.4,0-13.9-1.7-23-5.9c-1.3-0.6-1.8-2.1-1.2-3.3c0.6-1.3,2.1-1.8,3.3-1.2
		c29.2,13.2,39.3,0.1,52-16.6c5.9-7.6,11.9-15.5,20.4-21.6c7.6-5.5,15.7-7.6,23.9-6.2c16.8,2.8,28.5,19,29,19.6
		c0.8,1.1,0.5,2.7-0.6,3.5c-1.1,0.8-2.7,0.5-3.5-0.6l0,0c-0.1-0.2-10.9-15.2-25.7-17.6c-6.9-1.1-13.7,0.7-20.1,5.3
		c-7.9,5.7-13.7,13.3-19.4,20.6C1653.3,850.1,1644.3,861.9,1627.7,861.9L1627.7,861.9z"/>
</g>
<path class="st24" d="M1796.3,631.5c0,0-31.7,22.1-17.9,57.7C1778.4,689.2,1814.8,677.5,1796.3,631.5z M1597.5,564.3
	c0,0,21.5,32.1,57.4,19C1654.9,583.3,1643.9,546.7,1597.5,564.3z M1674.5,565c0,0-30.3,24-14.4,58.7
	C1660.1,623.7,1695.7,609.8,1674.5,565z M1749.4,605.7c0,0,32.5,20.9,60.2-5.4C1809.6,600.4,1785,571.2,1749.4,605.7z M1813.8,583.5
	c0,0-15.7,35.3,14.5,58.7C1828.3,642.2,1853.4,613.3,1813.8,583.5z M1704.9,551.8c0,0-14-27.1-43.3-19.9
	C1661.6,531.9,1667.1,561.5,1704.9,551.8z M1839.2,562.5c0,0-8.7-20.6-30.4-17C1808.7,545.4,1811,567.4,1839.2,562.5z"/>
<g>
	<pattern  id="SVGID_123_" xlink:href="#C" patternTransform="matrix(0.2298 -0.9732 -0.9732 -0.2298 -13954.9727 -19339.3652)">
	</pattern>
	<circle class="st132" cx="1769.3" cy="548.5" r="15.5"/>
	<pattern  id="SVGID_124_" xlink:href="#C" patternTransform="matrix(0.2298 -0.9732 -0.9732 -0.2298 -13900.1543 -19346.6328)">
	</pattern>
	<circle class="st133" cx="1801.3" cy="517.5" r="15.7"/>
</g>
</svg>
