<?xml version="1.0" standalone="no"?>
<!DOCTYPE svg PUBLIC "-//W3C//DTD SVG 1.1//EN" "http://www.w3.org/Graphics/SVG/1.1/DTD/svg11.dtd" >
<svg>
<metadata>
Created by FontForge 20090914 at Fri Feb 24 04:47:43 2012
 By root
(c) 2008 Myriam Hure'
</metadata>
<defs>
<font id="Typo3-Medium" horiz-adv-x="614" >
  <font-face 
    font-family="Typo3"
    font-weight="700"
    font-stretch="normal"
    units-per-em="1000"
    panose-1="2 0 6 3 0 0 0 0 0 0"
    ascent="800"
    descent="-200"
    x-height="627"
    cap-height="889"
    bbox="-60 -293 1545 1138"
    underline-thickness="20"
    underline-position="-133"
    unicode-range="U+0020-U+2026"
  />
<missing-glyph horiz-adv-x="500" 
d="M0 533h400v-533h-400v533zM350 50v433h-300v-433h300z" />
    <glyph glyph-name=".notdef" horiz-adv-x="500" 
d="M0 533h400v-533h-400v533zM350 50v433h-300v-433h300z" />
    <glyph glyph-name="circumflex" unicode="&#x2c6;" 
d="M284 865l14 -31q2 -6 5 -11q6 -13 13 -23q17 -25 44 -42q33 -21 84 -35q1 0 -2 -5l-17 -22q-41 -2 -93 17q-67 24 -104 71q-35 -41 -91 -69q-46 -22 -81 -26l-18 21q-3 4 -2 5q49 15 87 43q30 22 51 52q16 23 25 45q6 19 4 22q2 -1 12 2l21 6q31 7 38 -1q5 -8 10 -19z
" />
    <glyph glyph-name="circumflex" 
d="M284 865l14 -31q2 -6 5 -11q6 -13 13 -23q17 -25 44 -42q33 -21 84 -35q1 0 -2 -5l-17 -22q-41 -2 -93 17q-67 24 -104 71q-35 -41 -91 -69q-46 -22 -81 -26l-18 21q-3 4 -2 5q49 15 87 43q30 22 51 52q16 23 25 45q6 19 4 22q2 -1 12 2l21 6q31 7 38 -1q5 -8 10 -19z
" />
    <glyph glyph-name="space" unicode=" " horiz-adv-x="345" 
 />
    <glyph glyph-name="exclam" unicode="!" horiz-adv-x="173" 
d="M89 217l-2 26q-1 34 -3 69l-25 433l-5 122h118q0 -52 -6 -149q-2 -42 -6 -93l-27 -354q-3 -35 -4 -55zM154 104q18 0 18 -19v-82q0 -17 -18 -17h-82q-18 0 -18 17v82q0 19 18 19h82z" />
    <glyph glyph-name="quotesingle" unicode="'" horiz-adv-x="159" 
d="M-9 628zM-9 628q6 3 9 6l12 10q14 13 25 27q30 39 31 89h-27q-9 1 -14 9q-3 6 -3 9v95q0 4 2 7q4 9 13 9q5 -1 19 -1l78 1q10 -1 13 -7l2 -5v-43q0 -54 -21 -101q-17 -39 -46 -71q-12 -13 -25 -24l-22 -17q-21 -15 -21 -13z" />
    <glyph glyph-name="parenleft" unicode="(" horiz-adv-x="469" 
d="M95 602q23 92 67 174q83 152 222 250q5 -1 14 -13q9 -13 7 -18q-55 -50 -96 -103q-46 -60 -78 -126q-34 -73 -51 -156q-19 -89 -19 -192q0 -391 232 -596q0 -6 -10 -19q-10 -12 -15 -12q-35 16 -82 62q-54 53 -99 126q-53 85 -82 183q-35 114 -35 235q0 107 25 205z" />
    <glyph glyph-name="parenright" unicode=")" horiz-adv-x="491" 
d="M383 212q-24 -92 -68 -173q-41 -76 -100 -141q-54 -60 -121 -107q-5 1 -14 13q-10 13 -9 18q57 51 98 103q46 60 77 125q34 72 51 155q18 89 18 193q0 187 -55 335q-59 156 -176 262q-1 4 10 17q10 13 14 14q37 -17 84 -63q54 -54 98 -126q53 -86 83 -184
q35 -114 35 -235q0 -107 -25 -206z" />
    <glyph glyph-name="comma" unicode="," horiz-adv-x="295" 
d="M44 -107q15 33 11 69q-3 27 -16 52q-4 9 -9 15l-5 7q6 24 27 41q-1 1 10 0h10l14 -2q37 -9 53 -34q25 -41 10 -87q-12 -38 -48 -78q-27 -30 -64 -57l-33 -23l-13 9q-6 4 -9 7q-4 3 -2 4q45 35 64 77z" />
    <glyph glyph-name="hyphen" unicode="-" horiz-adv-x="298" 
d="M-12 366q122 -1 255 0q2 -32 0 -69h-255v69z" />
    <glyph glyph-name="period" unicode="." horiz-adv-x="151" 
d="M133 111q20 0 20 -20v-89q0 -20 -20 -20h-89q-20 0 -20 20v89q0 20 20 20h89z" />
    <glyph glyph-name="slash" unicode="/" horiz-adv-x="444" 
d="M442 887l-334 -902q-1 -1 -18 -1l-72 2q-17 -1 -18 -4l357 938z" />
    <glyph glyph-name="zero" unicode="0" horiz-adv-x="759" 
d="M503 878q20 -11 37 -25q14 -11 24 -22q20 -23 37 -52q20 -34 34 -75q16 -47 25 -101q10 -62 10 -131q0 -287 -137 -415q-44 -41 -100 -60q-41 -14 -80 -14q-119 0 -186 58q-57 50 -90 145q-37 105 -37 247q0 118 25 208q28 98 87 166q43 49 111 76q62 24 125 24
q62 0 115 -29zM268 816q-33 -31 -56 -87q-20 -50 -31 -116q-10 -60 -10 -122q0 -108 17 -194q16 -82 45 -139q57 -111 148 -114q82 -3 130 123q42 113 39 277q-3 166 -52 279q-55 127 -145 127q-48 0 -85 -34z" />
    <glyph glyph-name="one" unicode="1" horiz-adv-x="514" 
d="M451 9q0 -7 3 -10h-405q4 1 2 4l-2 6v13h11q9 0 19 1q27 4 48 13q29 12 45 32q20 25 20 60l4 223v93v87q0 33 -1 58l-3 63q-6 41 -39 44l-17 1q-11 1 -21 1q-27 2 -47 2v36q69 0 139 58q65 54 65 95q5 1 24 0h16q8 -1 9 -2q-5 -35 -6 -94q-1 -66 -1 -262v-86
q0 -62 1 -120q0 -69 1 -116q1 -55 2 -75q4 -67 28 -86q20 -17 105 -29q-1 -3 0 -10z" />
    <glyph glyph-name="two" unicode="2" horiz-adv-x="730" 
d="M83 685l-29 30q17 32 43 63q28 35 62 62q39 30 81 47q46 19 94 19q102 0 169 -73q68 -74 68 -191q0 -76 -44 -159q-40 -76 -121 -166l-97 -108l-81 -85q-2 -4 0 -8q1 -4 5 -4q37 -5 129 -7q78 -2 152 -1q6 0 12 1l15 3q18 5 35 17q21 14 40 38q22 28 41 69l8 -2
q6 -1 8 -2q7 -2 10 -7q-9 -41 -34 -111q-28 -79 -45 -104q-4 -5 -19 -7q-17 -3 -53 -3h-86l-154 3l-153 1q-39 0 -75 -2q-3 2 -4 14q-2 10 -2 18l67 61q33 31 60 59q60 62 130 151q126 164 126 305q0 81 -39 132q-44 59 -129 59q-99 0 -190 -112z" />
    <glyph glyph-name="three" unicode="3" horiz-adv-x="661" 
d="M131 104q4 -5 9 -9q5 -6 12 -11q16 -12 33 -22q48 -25 103 -23q72 2 120 45q56 50 56 139q1 91 -59 150q-61 59 -160 59h-21q-16 -1 -30 -4q14 34 15 51q97 20 146 70q45 45 45 109q0 65 -37 107q-40 45 -106 45q-96 0 -170 -74l-18 28q21 25 44 47q28 26 58 46
q73 48 144 48q86 0 142 -57q54 -56 55 -138q0 -63 -40 -115q-17 -21 -41 -41q-18 -16 -44 -34q-3 -3 0 -7q40 -12 72 -29q37 -20 64 -45q65 -60 65 -150q0 -75 -40 -140q-37 -60 -101 -102q-102 -65 -217 -65q-34 0 -64 10q-26 7 -49 21q-18 10 -34 25l-20 20z" />
    <glyph glyph-name="four" unicode="4" horiz-adv-x="698" 
d="M687 260h-75q-2 1 -5 1h-82q-5 0 -8 -9l3 -281q-32 -1 -67 -5q-39 -5 -59 -10l1 73q1 41 1 75q1 84 1 150q0 7 -6 7h-372q-1 5 1 24q1 19 4 23q31 46 99 139l64 88l187 254q56 77 70 99l14 3l58 7v-541q0 -3 2 -6t5 -3q52 0 97 1l70 2q-2 -16 -3 -47v-44zM391 345
q6 0 6 9l6 390q1 -1 0 -2q-43 -79 -114 -187q-66 -100 -145 -207q-1 -2 29 -2q26 -1 83 -1h135z" />
    <glyph glyph-name="five" unicode="5" horiz-adv-x="683" 
d="M495 779q-43 -5 -87 -6q-58 -2 -125 1q-3 0 -8 -4l-9 -10l-13 -18q-25 -47 -38 -94q-2 -6 0 -13q2 -6 5 -7l94 -49q20 -10 36 -19l72 -39q37 -22 61 -40q114 -82 114 -204q0 -65 -31 -122q-28 -53 -79 -94q-101 -81 -222 -81q-65 0 -116 21q-41 18 -68 47q-20 20 -20 45
l2 153q1 2 11 2q9 -1 12 -2q13 -85 82 -140q67 -54 151 -54q72 0 119 45t47 117q0 63 -24 101t-93 87q-27 19 -64 40l-66 35q-6 4 -15 8q-3 2 -8 4q-5 3 -7 4l-28 14q-28 15 -40 23q-3 5 -4 21q-1 15 1 22q13 62 59 165q44 100 71 131l14 12q9 6 17 5l327 3q-4 -74 -42 -94
q-14 -8 -40 -11z" />
    <glyph glyph-name="six" unicode="6" horiz-adv-x="667" 
d="M434 774q-62 -46 -109 -100q-41 -46 -71 -97q-25 -42 -43 -88q-2 -3 0 -5q2 -3 5 -2l42 23q23 12 39 19q43 17 99 17q86 0 147 -70q64 -72 64 -178q0 -176 -146 -267q-68 -43 -145 -43q-131 0 -204 93q-65 83 -65 209q0 190 143 356q146 168 390 250q2 -7 6 -15
q4 -9 5 -9q-87 -42 -157 -93zM221 417q-60 -57 -60 -157q0 -64 16 -111q14 -42 39 -69q22 -23 51 -34q24 -10 49 -10q76 0 119 55q47 57 47 165q0 36 -5 69q-6 39 -18 69q-32 74 -100 74q-83 0 -138 -51z" />
    <glyph glyph-name="seven" unicode="7" horiz-adv-x="626" 
d="M581 881q2 -7 2 -10q-14 -54 -67 -191l-52 -132l-58 -141l-109 -264l-40 -99q-17 -43 -23 -62q-1 -2 -4 -4q-2 -1 -4 -1q-32 4 -47 24q-2 2 -2 9q1 7 2 10l25 61l283 687q-56 1 -155 1q-54 0 -94 -1q-47 -1 -68 -3q-30 -2 -51 -24q-24 -23 -50 -81q-2 -2 -12 1t-15 7
q33 116 49 229q31 -12 102 -12h285q21 0 37 1q42 0 62 2q2 -1 4 -7z" />
    <glyph glyph-name="eight" unicode="8" horiz-adv-x="724" 
d="M512 838q68 -61 68 -153q0 -94 -160 -203q-1 -1 -1 -4t1 -3q98 -49 147 -106q54 -62 54 -135q0 -97 -94 -172q-93 -73 -210 -73q-71 0 -127 20q-50 19 -84 53q-61 61 -61 145q0 57 34 105q25 36 71 69q15 11 36 23l22 14q4 2 7 3q24 15 14 20q-79 34 -117 101
q-30 54 -30 121q0 105 85 173q79 62 179 62q98 0 166 -60zM215 808q-45 -40 -46 -100q1 -75 35 -122q39 -54 132 -82q3 -2 13 -5q9 -3 12 -1q45 29 80 76q36 48 36 86q0 79 -46 133q-46 55 -114 55q-59 -1 -102 -40zM461 83q56 49 58 113q-1 39 -6 59q-7 30 -26 53
q-22 27 -65 50q-47 24 -123 46q-24 7 -80 -49q-28 -28 -44 -58q-20 -36 -20 -71q4 -73 58 -128q56 -57 135 -60q60 0 113 45z" />
    <glyph glyph-name="nine" unicode="9" horiz-adv-x="712" 
d="M84 -42q-7 16 -6 21q85 39 152 88q63 45 112 99q44 50 78 110q31 53 54 116q1 2 -1 5q-3 2 -5 0q-115 -73 -210 -73q-90 0 -156 75q-69 77 -69 192q0 165 136 258q84 56 179 56q130 0 207 -103q74 -96 74 -243q0 -108 -41 -208q-40 -94 -113 -176q-145 -161 -378 -235
q-5 1 -13 18zM194 795q-43 -55 -43 -144q0 -118 62 -183q54 -57 140 -57q62 0 111 31q20 12 26 33q9 42 9 87q0 123 -53 205q-54 84 -139 84q-69 0 -113 -56z" />
    <glyph glyph-name="colon" unicode=":" horiz-adv-x="69" 
d="M81 558q20 0 20 -20v-89q0 -20 -20 -20h-89q-20 0 -20 20v89q0 20 20 20h89zM78 111q20 0 20 -20v-89q0 -20 -20 -20h-89q-20 0 -20 20v89q0 20 20 20h89z" />
    <glyph glyph-name="semicolon" unicode=";" horiz-adv-x="105" 
d="M48 -107q15 33 11 69q-3 27 -16 52q-4 9 -9 15l-5 7q6 24 27 41q-1 1 10 0h10l14 -2q37 -9 53 -34q25 -41 10 -87q-12 -38 -48 -78q-27 -30 -64 -57l-33 -23l-13 9q-6 4 -9 7q-4 3 -2 4q45 35 64 77zM120 561q20 0 20 -20v-89q0 -20 -20 -20h-89q-20 0 -20 20v89
q0 20 20 20h89z" />
    <glyph glyph-name="question" unicode="?" horiz-adv-x="333" 
d="M120 280q3 -15 9 -26q2 -5 5 -9l10 -12q3 -3 4 -5l-30 -22l-19 19q-6 6 -11 13q-14 18 -21 37q-10 23 -10 47q0 37 31 70q13 13 33 28l9 7q3 3 9 7l4 3q1 0 3 2q1 1 2 1q6 5 10 7q22 17 36 29q20 18 33 35q31 41 31 94q0 128 -77 180q-73 51 -158 1v48q41 38 120 36
q81 -2 148 -66q74 -71 74 -172q0 -92 -39 -149q-16 -25 -39 -44q-20 -16 -46 -30l-66 -30q-12 -5 -19 -9q-39 -21 -39 -48q0 -24 3 -42zM152 111q20 0 20 -20v-89q0 -20 -20 -20h-89q-20 0 -20 20v89q0 20 20 20h89z" />
    <glyph glyph-name="A" unicode="A" horiz-adv-x="937" 
d="M689 0v19q10 0 23 3q15 3 27 9q31 16 22 45l-22 54l-44 99l-61 139h-322l-146 -296q-10 -25 9 -39q14 -11 36 -13l17 -1v-19h-232l-1 19q0 -1 9 -1q10 0 20 3q31 9 43 31q8 9 27 45l45 90l56 118l61 132l59 131l106 238q5 27 -21 45q-24 16 -55 16v19h213l220 -530
l54 -131l42 -99q17 -41 22 -51q18 -36 38 -48q14 -8 40 -8v-10v-9h-285zM479 774l-143 -330h268z" />
    <glyph glyph-name="B" unicode="B" horiz-adv-x="786" 
d="M615 693zM45 871q1 -1 5 -1h10q17 -1 29 -8q19 -11 29 -33q13 -29 13 -75v-650q-3 -57 -41 -76q-13 -6 -28 -8q-5 -1 -11 -1h-6l1 -19h356q97 0 166 29q59 24 95 67q30 35 43 81q11 33 11 66q0 115 -60 174q-54 53 -175 77q58 33 92 79q41 54 41 120q0 100 -63 152
q-53 44 -136 44h-371v-18zM483 591q-25 -36 -73 -53q-36 -13 -88 -16q-18 -1 -41 -1h-35v309l67 1q52 0 89 -9q51 -11 78 -37q34 -31 34 -83q0 -69 -31 -111zM245 440q4 0 8 1l31 1q27 2 51 1q68 0 120 -12q66 -16 103 -50q45 -41 45 -107q0 -94 -52 -147q-42 -42 -115 -56
q-29 -5 -62 -6q-26 -1 -54 2q-20 1 -40 4l-17 3q-9 0 -13 42q-3 35 -4 101z" />
    <glyph glyph-name="C" unicode="C" horiz-adv-x="802" 
d="M720 694h-21v6q-1 7 -4 15q-7 26 -24 47q-25 30 -67 47q-53 21 -130 21q-76 0 -139 -35q-57 -32 -98 -89q-79 -108 -79 -244q0 -75 16 -141q17 -75 53 -131q41 -63 102 -96q69 -38 161 -38q65 0 118 25q43 19 77 54q24 24 41 53l12 25h28l-18 -101q0 -2 -16 -21
q-21 -24 -49 -45q-38 -29 -83 -45q-55 -20 -118 -20q-82 0 -157 23q-84 26 -146 78q-70 58 -107 143q-42 95 -42 219q0 108 41 198q38 83 109 144q137 118 332 118q48 0 92 -10q34 -8 65 -22q21 -11 38 -23q13 -9 13 -10v-145z" />
    <glyph glyph-name="D" unicode="D" horiz-adv-x="896" 
d="M48 886v-3v-7q-1 -10 0 -10h14q17 -2 30 -9q18 -10 28 -31q12 -25 11 -64v-648q0 -36 -13 -59q-10 -19 -28 -28q-7 -3 -15 -5q-7 -2 -14 -2q-13 -1 -13 0v-20h298q92 0 176 25q89 27 156 79q74 56 113 137q43 89 43 203q0 121 -40 210q-38 83 -112 136q-68 50 -166 74
q-90 22 -205 22h-263zM249 828q-9 -1 19 -1h49q397 0 397 -386q0 -106 -34 -185q-30 -71 -85 -118q-49 -41 -113 -61q-56 -18 -117 -18l-76 1q-31 2 -42 38z" />
    <glyph glyph-name="E" unicode="E" horiz-adv-x="743" 
d="M62 890v-19q46 0 69 -29q16 -21 16 -44v-704q0 -47 -42 -67q-7 -3 -16 -5l-13 -3q-13 -2 -13 0v-19h621l3 150l-19 3l-1 -15q-3 -17 -10 -32q-10 -21 -27 -32q-21 -15 -51 -15l-278 -1q-34 0 -34 1l-3 212l-4 175l270 1q49 0 68 -42q6 -13 8 -29q1 -5 1 -10v-3h19v243
h-19l-1 -16q-3 -15 -9 -28q-19 -38 -66 -40q-29 -1 -76 -1q-39 -1 -87 -1l-101 1v307l285 -1q33 0 55 -18q18 -14 28 -39q7 -18 10 -39q1 -7 1 -13v-5h20l7 176z" />
    <glyph glyph-name="F" unicode="F" horiz-adv-x="707" 
d="M44 889v-18q0 1 13 -1q7 0 14 -2q8 -2 15 -5q19 -9 30 -26q13 -21 13 -54l1 -685q0 -47 -34 -66q-12 -8 -28 -11l-13 -2h-10v-19h284v20q-29 0 -53 16q-32 23 -32 68l-2 342l263 1q56 0 76 -42q3 -7 5 -15l2 -14v-13h19l1 243h-19v-6q0 -5 -1 -10q-3 -16 -9 -29
q-20 -39 -69 -39h-267v306h291q33 0 55 -16q18 -14 28 -36q7 -17 10 -37q1 -6 1 -11v-5h21l6 166h-611z" />
    <glyph glyph-name="G" unicode="G" horiz-adv-x="821" 
d="M460 900q-36 -4 -71 -13q-40 -11 -77 -27q-42 -18 -78 -42q-85 -57 -132 -145q-55 -104 -55 -246q0 -127 45 -221q39 -82 111 -136q62 -47 143 -70q68 -19 139 -19q53 0 99 6q39 5 74 13q29 7 56 17l39 17v409l-234 1v-28q0 1 19 1q22 0 41 -6q26 -9 40 -29
q19 -24 19 -64l-1 -218q0 -1 -12 -7q-15 -8 -34 -15q-27 -9 -57 -14q-38 -6 -80 -6q-54 -1 -101 18q-53 21 -91 65q-43 48 -66 121q-25 81 -25 190q0 104 30 185q27 70 76 119q42 42 97 64q49 19 97 19q42 0 78 -5q43 -7 75 -21q79 -37 79 -119h26l-4 154q-88 56 -208 56
q-27 0 -57 -4z" />
    <glyph glyph-name="H" unicode="H" horiz-adv-x="977" 
d="M44 871h11l13 -2q17 -3 29 -12q34 -25 33 -91v-662q0 -50 -34 -72q-12 -7 -28 -11l-13 -2h-10v-19h285v19q-13 0 -25 3q-16 3 -27 11q-30 19 -30 63l-2 328h479v-334q1 -38 -31 -57q-12 -7 -27 -11q-12 -3 -24 -4v-18h284v19h-11l-13 2q-16 4 -28 11q-32 21 -32 72
l-1 673q0 93 84 93v19l-285 1v-20l23 -3q16 -3 27 -10q33 -20 34 -76l-1 -282h-478l1 260q0 38 14 64q11 21 30 33q15 9 31 11q13 3 16 1v21h-294v-18z" />
    <glyph glyph-name="I" unicode="I" horiz-adv-x="377" 
d="M50 889v-21l17 -2q16 -2 28 -9q39 -20 38 -69l1 -686q0 -56 -42 -75q-8 -4 -16 -6l-14 -2q-13 -1 -13 0v-19h285v19q0 -1 -13 1q-7 0 -14 2q-8 2 -15 6q-42 20 -42 76v685q0 48 37 68q13 7 28 10l19 2v20h-284z" />
    <glyph glyph-name="J" unicode="J" horiz-adv-x="534" 
d="M209 867h7l19 -3q17 -3 28 -11q32 -23 32 -94v-575q0 -34 -3 -56q-3 -29 -13 -47q-22 -45 -83 -46q-36 0 -63 18q-23 15 -38 42q-12 21 -19 47q-2 10 -3 19l-1 13h-25l-4 -141q0 -1 9 -8l11 -8q8 -6 16 -10q22 -11 48 -17q32 -9 68 -9q85 0 147 50q68 53 68 139v609
q0 61 41 81q12 6 28 8l15 1v20h-285v-22z" />
    <glyph glyph-name="K" unicode="K" horiz-adv-x="864" 
d="M47 889v-22h9q6 0 12 -1q16 -2 28 -10q36 -22 36 -84v-661q0 -60 -40 -82q-13 -7 -29 -9q-5 -1 -10 -1h-6v-19h290q-1 0 -1 10l1 10h-10q-6 0 -12 1q-17 2 -30 9q-37 21 -37 80v281l36 42l387 -433h193v20q-35 -1 -93 48q-48 41 -120 123l-67 79l-140 170l-70 82l233 268
q37 45 85 65q16 6 34 10l23 3v21h-226l1 -21q28 0 37 -12q13 -18 -22 -55l-291 -321v293q0 62 37 84q12 7 28 9q6 1 12 1h7v22h-285z" />
    <glyph glyph-name="L" unicode="L" horiz-adv-x="615" 
d="M47 889v-22q56 1 76 -39q7 -14 9 -33l1 -22l-2 -675q0 -46 -35 -66q-12 -8 -26 -11q-12 -3 -19 -2v-19h556l5 156h-19v-4q0 -6 -1 -11q-3 -19 -10 -34q-11 -21 -31 -34q-25 -15 -63 -15h-111q-55 -1 -87 0q-23 0 -34 19q-8 13 -8 34l-1 658q0 39 13 63q11 20 30 28
q7 4 16 5q6 2 13 2q13 1 13 0v21z" />
    <glyph glyph-name="M" unicode="M" horiz-adv-x="1290" 
d="M47 868q0 1 13 -1q16 -3 30 -10q19 -11 30 -29q15 -24 16 -58q1 -35 1 -135q0 -86 -2 -203q-1 -105 -3 -194q-2 -88 -3 -108q-1 -43 -14 -70q-11 -21 -29 -32q-13 -7 -29 -8h-15v-20h256v20q0 -1 -13 0q-16 2 -29 9q-19 10 -30 29q-13 25 -13 64l-1 603l394 -725h51
q29 65 77 164l144 292l94 186l41 81l18 -365l3 -98q4 -103 3 -140q-1 -39 -15 -63q-10 -20 -29 -29q-7 -4 -15 -6q-6 -2 -13 -2q-13 -1 -13 0v-20h286l-1 20q0 -1 -13 0l-13 2q-8 2 -15 5q-40 19 -44 76q-3 53 -6 157l-6 203q-6 234 -6 307q0 58 31 82q11 9 27 13l14 2
q5 1 12 1v21h-207q-31 -75 -80 -180q-21 -46 -47 -98l-49 -101l-139 -280l-37 -76l-398 735h-214v-21z" />
    <glyph glyph-name="N" unicode="N" horiz-adv-x="940" 
d="M65 889v-21q0 2 14 -4q16 -6 30 -19q19 -19 29 -48q14 -37 14 -90v-304q-1 -5 -1 -11v-276q0 -36 -13 -59q-11 -19 -29 -29q-14 -7 -30 -9q-13 -2 -13 -1v-18h256v19q0 -1 -15 1q-18 2 -32 11q-21 12 -33 34q-15 28 -15 71v585l532 -721h91l-2 174v515l1 80q0 63 37 87
q12 8 28 11q6 1 12 1h8v21h-247v-21q0 1 13 -1l13 -2q8 -2 15 -5q42 -19 43 -70l4 -476q0 -90 1 -140l-257 342l-149 203l-120 170h-185z" />
    <glyph glyph-name="O" unicode="O" horiz-adv-x="995" 
d="M829 134q-60 -72 -142 -111q-89 -42 -196 -42q-108 0 -194 39q-81 37 -137 105q-109 131 -109 330q0 190 137 319q136 128 333 128q110 0 195 -39q78 -36 132 -102q49 -61 74 -141q23 -75 23 -157q0 -191 -116 -329zM723 739q-79 93 -222 93q-127 0 -217 -97
q-48 -52 -73 -123q-29 -78 -29 -174q0 -98 29 -175q27 -70 76 -119q90 -90 222 -90q52 0 102 22q54 24 96 70q46 51 72 123q28 81 28 183q0 189 -84 287z" />
    <glyph glyph-name="P" unicode="P" horiz-adv-x="710" 
d="M459 888q119 0 186 -76q60 -67 60 -167q0 -105 -91 -186q-84 -75 -187 -85l-69 -6l-113 -5l1 -267q0 -46 38 -66l14 -6q6 -2 12 -3l13 -2v-19h-270v18q0 -1 12 2q6 1 12 3q7 2 14 6q38 19 38 60l2 665q0 68 -26 94q-19 19 -60 19v21h414zM246 446l10 -1l10 -2h13
q48 0 90 6q57 7 98 25q51 22 79 58q32 41 32 102q0 84 -48 133q-39 39 -108 54q-28 6 -59 8q-26 2 -54 1q-11 0 -23 -1l-41 -3z" />
    <glyph glyph-name="Q" unicode="Q" horiz-adv-x="948" 
d="M1013 -238q0 3 -8 -1l-5 -3q-3 -2 -6 -3q-7 -4 -14 -7q-20 -8 -39 -13q-27 -7 -53 -7q-38 0 -95 39q-46 31 -105 86q-23 22 -47 48q-20 19 -41 42l-30 33q-12 14 -15 16l-4 -1q-5 -2 -15 -3l-33 -3q-25 -2 -59 -2q-183 0 -297 120q-119 125 -119 337q0 103 43 193
q39 82 109 146q138 124 305 124q228 0 337 -119q101 -110 101 -320q0 -91 -28 -171q-25 -68 -69 -126q-36 -47 -83 -85q-37 -29 -74 -47q22 -36 126 -143q51 -52 88 -83q44 -37 61 -37q19 0 31 3q10 1 15 4q4 3 5 5q1 1 1 2zM702 738q-86 90 -214 90q-51 0 -97 -12
q-63 -16 -110 -52q-57 -45 -89 -117q-37 -85 -37 -206q0 -104 30 -183q28 -71 78 -118q44 -42 104 -63q52 -19 109 -19h6q5 0 11 1q19 2 38 6q26 6 51 16q31 12 58 30q31 22 57 51q29 33 49 74q23 47 35 105q13 63 13 138q0 162 -92 259z" />
    <glyph glyph-name="R" unicode="R" horiz-adv-x="875" 
d="M702 0q-25 0 -82 59q-25 25 -54 60q-26 30 -55 69l-52 68l-82 116l-14 -1q-17 -1 -33 -1q-51 -2 -83 3l-1 -260q0 -62 36 -84q6 -4 14 -6q6 -2 12 -3l15 -1v-19h-278v19q0 -1 13 0q7 0 14 1q8 2 15 5q42 18 42 75l2 678q0 33 -14 54q-10 18 -29 27q-14 6 -30 8
q-14 1 -14 0v21h408q102 0 174 -66q81 -73 81 -195q0 -63 -32 -114q-25 -40 -70 -72q-32 -22 -70 -37l-32 -11l125 -167l71 -89q36 -44 60 -68q30 -31 69 -44l23 -6l9 -1v-18h-158zM514 790q-27 19 -64 28q-31 8 -66 8l-68 1q-38 0 -68 -2l-1 -185q0 -59 1 -101q0 -52 1 -88
l5 -1q3 -1 6 -1q5 -1 10 -1q14 -2 34 -3q25 -1 58 -1q31 0 66 10q40 12 72 34q36 26 57 62q23 41 23 93q0 99 -66 147z" />
    <glyph glyph-name="S" unicode="S" horiz-adv-x="717" 
d="M297 893q-60 -13 -107 -39q-55 -30 -86 -74q-36 -50 -39 -117q0 -129 109 -181q25 -12 57 -24q23 -9 61 -22l61 -20q33 -12 57 -23q60 -27 90 -59q36 -38 36 -91t-26 -91q-22 -34 -63 -56q-34 -19 -78 -28q-37 -8 -73 -8q-79 0 -142 42q-35 24 -55 58q-22 38 -22 86h-23
v-189q0 -1 20 -12l24 -12q16 -7 33 -13q42 -17 87 -26q56 -12 113 -12q121 3 217 71q50 36 78 84q31 53 33 115q0 92 -67 160q-56 57 -146 88q-19 7 -49 16l-47 15q-55 17 -85 33q-83 42 -81 118q2 80 77 122q30 17 69 25q34 8 68 8q52 0 92 -27q31 -21 53 -58
q15 -28 23 -58q3 -11 4 -19q1 -7 0 -6l21 -2v193q0 1 -9 7l-13 7l-19 8q-26 10 -59 15q-41 7 -91 7q-51 0 -103 -11z" />
    <glyph glyph-name="T" unicode="T" horiz-adv-x="804" 
d="M38 889v-146h19v4q0 4 1 9q1 7 3 14q2 8 5 15q18 42 65 42h214l1 -702q0 -41 -14 -67q-10 -21 -29 -31q-14 -7 -30 -8q-14 -1 -14 0v-19h299v19q0 -1 -13 0q-17 2 -30 9q-19 10 -30 29q-13 23 -13 59v711h207q36 0 59 -14q19 -10 28 -29q7 -14 9 -30v-14h18v149h-755z
" />
    <glyph glyph-name="U" unicode="U" horiz-adv-x="963" 
d="M631 889v-22h11q8 0 14 -1q17 -3 29 -12q33 -26 33 -104v-442q0 -80 -96 -164q-100 -86 -202 -86q-100 0 -163 92q-57 84 -57 192v547h-200v-22q0 1 13 -1q16 -2 30 -9q18 -10 29 -28q13 -23 13 -57l4 -483q0 -144 80 -225q83 -84 235 -83q91 1 173 47q35 20 72 50
q30 25 67 62v-140h194v20q0 -1 -12 0l-13 2q-7 2 -14 6q-39 19 -39 77v784h-201z" />
    <glyph glyph-name="V" unicode="V" horiz-adv-x="921" 
d="M-6 889v-22h9l13 -2q16 -4 31 -14q19 -13 36 -34q21 -26 38 -64l250 -557l51 -110l37 -76q14 -29 16 -29q11 -1 27 4q13 5 27 13q13 7 22 14q8 7 6 8l258 684q23 55 47 92q21 31 42 48q17 15 35 20q7 2 15 3h13v22h-286v-22q45 0 66 -16q31 -24 9 -84l-142 -398l-30 -80
q-32 -85 -56 -143q0 -1 -3 6l-162 354l-44 99q-46 104 -62 147q-15 40 -10 68q5 22 22 34q12 9 30 12q15 3 15 2v21h-320z" />
    <glyph glyph-name="W" unicode="W" horiz-adv-x="1485" 
d="M0 889v-22h7q4 0 9 -2q6 -1 12 -4q7 -4 14 -9q18 -14 35 -39q21 -30 42 -76l81 -185l241 -569q2 2 6 4q5 2 6 3q7 3 12 7q13 8 19 22l271 713l328 -750q31 3 52 37l250 668q24 68 54 111q24 35 51 53q19 12 38 16q6 1 12 1h5v21h-285v-21q0 1 17 -1q20 -2 34 -9
q21 -11 27 -30q9 -24 -4 -61l-212 -585l-284 670l-18 21l-8 7q-19 17 -52 23l-283 -697l-214 500q-24 58 -24 96q-1 31 13 48q10 12 27 16q14 4 14 2v21h-293z" />
    <glyph glyph-name="X" unicode="X" horiz-adv-x="910" 
d="M3 889v-22h27q15 -1 28 -8q33 -15 79 -77l54 -74l172 -246l-269 -369q-20 -26 -36 -40q-36 -34 -74 -35v-18h246v18q0 -1 -14 1q-17 3 -29 7q-37 14 -13 44l133 183l39 55l65 92l94 -128l73 -101q38 -52 51 -74q34 -54 -1 -72q-11 -5 -28 -7q-14 -1 -14 0v-18h297v18h-12
q-7 1 -15 5q-11 6 -27 22q-19 18 -47 50q-24 27 -72 94l-46 62l-125 178l-33 49l105 143l81 108q41 55 55 71q35 41 66 56q13 7 27 9l12 2h12v22h-257v-22q36 0 53 -10q23 -13 3 -41l-206 -278l-179 262q-18 27 -17 44q0 13 13 19q5 2 12 3q5 1 12 1h14q1 0 0 11v11h-309z
" />
    <glyph glyph-name="Y" unicode="Y" horiz-adv-x="877" 
d="M-32 867h8q5 1 9 0q6 0 11 -2q7 -1 14 -5q16 -8 35 -27q22 -22 46 -59q34 -45 80 -114l80 -121l61 -96q25 -39 25 -40l-1 -295q0 -34 -13 -56q-11 -17 -29 -26q-8 -3 -16 -5q-7 -2 -14 -2q-13 -1 -13 0v-19h300v20q-4 -1 -17 0q-18 1 -34 7q-21 9 -33 27q-15 22 -15 57
v309l63 93l85 121l46 63q49 67 80 103q25 29 46 46q18 13 33 18l11 3h9q8 0 9 1v21h-243v-22q0 1 15 0q17 -1 27 -7q33 -18 -11 -79l-210 -285l-201 295q-34 52 3 68q11 5 28 7l12 1v22h-286v-22z" />
    <glyph glyph-name="Z" unicode="Z" horiz-adv-x="840" 
d="M128 886l-3 -163h18l2 16q5 20 15 37q15 22 40 36q31 16 76 16h281l-56 -83l-284 -419l-74 -106l-134 -184l-1 -36h716l4 160h-22l-2 -13q-1 -7 -4 -14q-6 -18 -19 -31q-35 -36 -113 -38l-380 -1l509 759l23 64h-592z" />
    <glyph glyph-name="bracketleft" unicode="[" horiz-adv-x="386" 
d="M302 -150h-94q-31 1 -51 1q-25 1 -34 2q-1 0 -4 5q-3 4 -3 7l-1 771q1 151 1 190q1 8 4 15q3 9 8 10l31 1h149q-2 5 -1 21v8l2 23l-254 -1v-1097q0 -3 5 -4q6 -2 28 -2h215z" />
    <glyph glyph-name="bracketright" unicode="]" horiz-adv-x="386" 
d="M89 -150h94l52 1q24 1 33 2q2 0 5 5q2 4 2 7l1 771q0 151 -1 190q-1 8 -3 15q-4 9 -9 10l-30 1h-150q3 5 2 21l-2 31l254 -1v-1097q0 -3 -5 -4q-6 -2 -29 -2h-215z" />
    <glyph glyph-name="grave" unicode="`" 
d="M306 746q-1 -4 -3 -11l-4 -12l-2 -5h-41q-26 0 -43 1q-51 2 -84 10q-43 10 -65 32q-26 26 -26 70q0 18 2 29q2 9 5 14l6 9q4 5 6 13l26 -3q-2 -5 10 -25q15 -26 38 -48q30 -30 69 -47q48 -21 105 -21q2 -1 1 -6z" />
    <glyph glyph-name="a" unicode="a" horiz-adv-x="720" 
d="M498 0l-4 5l-8 9q-11 15 -17 34q-61 -39 -117 -54q-46 -12 -106 -12q-59 0 -104 18q-40 16 -67 46q-46 49 -46 114q0 74 50 119q42 37 120 54q33 7 73 11q33 3 73 4q27 1 68 1h57q0 121 -26 175q-30 63 -105 63q-47 0 -90 -7q-35 -6 -67 -16q-23 -7 -46 -17q-3 -2 -8 -4
l-16 -8l1 50q55 28 122 44q59 13 112 14q44 1 82 -8q45 -10 78 -34q38 -27 58 -71q23 -49 23 -118v-307q0 -85 85 -85q-1 1 -1 -11l1 -9h-175zM472 296h-18l-6 1h-26q-30 1 -53 0q-63 -1 -105 -12q-54 -13 -82 -42q-33 -33 -33 -89q0 -53 36 -86q35 -33 86 -33q65 0 118 25
q21 10 42 25l35 27q3 2 4 24q2 19 2 52v108z" />
    <glyph glyph-name="b" unicode="b" horiz-adv-x="799" 
d="M346 -7q-39 7 -72 22q-12 5 -24 12l-30 18q-5 3 -8 3q-53 0 -85 -48h-35q0 74 1 209l-1 253l-1 330q-1 29 -22 51q-24 24 -63 24v22h200l1 -358q29 27 53 45q30 21 60 35q68 32 156 32q71 0 128 -27q53 -25 90 -70q70 -85 69 -206q-1 -97 -33 -172q-28 -65 -78 -110
q-44 -39 -99 -58q-49 -18 -95 -18q-62 0 -112 11zM596 511q-51 75 -147 75q-40 0 -82 -15q-46 -17 -83 -49q-41 -37 -64 -90q-26 -59 -26 -135q0 -115 62 -187q65 -74 173 -74q86 0 147 74q65 79 67 209q1 121 -47 192z" />
    <glyph glyph-name="c" unicode="c" horiz-adv-x="647" 
d="M593 64q1 -5 -20 -18q-22 -15 -54 -28q-39 -17 -80 -26q-49 -12 -96 -12q-93 0 -164 39q-59 32 -100 91q-33 46 -50 103q-14 44 -14 77q0 94 33 166q31 65 88 108q51 40 122 60q64 18 138 18q107 0 168 -46l-10 -132q-5 -1 -13 0q-7 1 -8 2q0 11 -10 30q-11 21 -29 40
q-21 23 -49 36q-32 15 -70 15q-119 0 -183 -80q-58 -72 -58 -191q0 -135 66 -210q62 -71 167 -71q72 0 125 18q44 14 101 52v-41z" />
    <glyph glyph-name="d" unicode="d" horiz-adv-x="827" 
d="M595 0v76l-44 -29q-29 -19 -55 -31q-33 -16 -66 -24q-39 -11 -78 -11q-91 0 -155 29q-59 27 -96 77q-34 45 -49 109q-14 56 -14 126q0 125 76 215q41 49 100 76q66 30 148 30q107 0 227 -93v231q0 51 -36 73q-13 8 -29 11l-11 2h-9v22h201v-791q0 -79 84 -79v-19h-194z
M538 504q-32 38 -73 59q-47 23 -101 23q-95 0 -152 -82q-54 -78 -54 -199q0 -122 58 -197q56 -73 146 -73q40 0 76 12q44 15 77 47q38 37 59 95q24 67 24 159q0 85 -60 156z" />
    <glyph glyph-name="e" unicode="e" horiz-adv-x="646" 
d="M159 392q-7 -23 -7 -76q1 -134 69 -212q61 -69 150 -69q47 0 90 10q34 8 64 23q12 5 23 12q9 5 18 11l19 13q1 -3 1 -9l-1 -24q-1 -7 0 -12q-52 -40 -109 -58q-62 -19 -145 -19q-126 0 -211 94q-86 97 -86 246q0 129 81 219q88 99 236 101q119 2 186 -60q71 -65 71 -190
h-449zM498 447q0 63 -44 103q-42 37 -99 37q-72 0 -123 -47q-42 -38 -57 -93h323z" />
    <glyph glyph-name="f" unicode="f" horiz-adv-x="433" 
d="M513 734h-5l-7 -1q-8 0 -11 1q0 111 -131 111q-65 0 -92 -53q-11 -21 -16 -51q-4 -23 -4 -53v-86h190v-48h-191l1 -16l2 -418q0 -54 29 -81q24 -22 64 -22v-17h-293q0 12 2 17q52 0 70 30q11 21 11 73l1 434h-94v48h60q20 0 33 1l2 77q4 92 80 157q73 62 164 62h11
q8 0 15 -1q19 -1 36 -3q48 -6 73 -21v-140z" />
    <glyph glyph-name="g" unicode="g" horiz-adv-x="664" 
d="M513 552q70 -25 70 -114q0 -113 -65 -178q-27 -27 -67 -47q-32 -17 -76 -29q-31 -9 -76 -18q-4 0 -9 -1l-58 -12q-65 -15 -65 -41q0 -23 60 -25q20 -1 64 0l79 1q165 0 226 -59q27 -25 38 -65q9 -32 8 -82q-1 -64 -79 -115q-43 -27 -100 -43q-65 -17 -143 -17
q-77 0 -136 18q-51 16 -86 43q-59 47 -59 102t31 92q24 30 78 56q-3 1 -7 3l-10 4q-13 6 -23 14q-28 23 -28 54q0 55 53 81q22 10 59 19l35 7q7 2 18 3l19 4q-94 0 -156 52q-70 58 -71 162q-1 78 70 146q36 35 82 54q51 21 108 21q42 0 80 -7q29 -5 52 -14l16 -7q6 -3 10 -6
l2 -2l-5 2h190v-56h-129zM183 531q-28 -44 -28 -133q0 -70 37 -115q39 -49 104 -49q171 0 171 176q0 89 -29 127q-37 49 -137 49q-84 0 -118 -55zM469 -13q-51 28 -142 26l-106 -2q-36 -15 -55 -58q-13 -32 -13 -67q0 -75 65 -112q25 -14 58 -22q27 -6 55 -6q90 0 141 36
q54 37 54 108q0 65 -57 97z" />
    <glyph glyph-name="h" unicode="h" horiz-adv-x="786" 
d="M217 372q1 72 56 138q30 35 68 54q43 22 93 22q53 0 93 -40q44 -45 44 -114l1 -328q0 -85 -84 -85v-19h284q-1 1 0 10v9q-85 0 -84 81v336q0 94 -63 150q-59 53 -156 56q-52 1 -103 -17q-41 -15 -80 -41q-27 -20 -51 -43q-18 -17 -18 -19v367h-199v-22q85 0 85 -84
l-1 -675q0 -54 -34 -76q-11 -8 -26 -11l-10 -2h-8v-19h277v19q-36 0 -57 19q-27 22 -27 71v263z" />
    <glyph glyph-name="i" unicode="i" horiz-adv-x="368" 
d="M35 -1v20q51 0 72 37q8 13 11 31l2 13v411q0 41 -18 65q-22 29 -67 29v22h200v-503q0 -62 28 -87q20 -18 57 -18v-20h-285zM169 886q64 0 64 -64t-64 -64t-64 64t64 64z" />
    <glyph glyph-name="j" unicode="j" horiz-adv-x="336" 
d="M231 -113q0 -68 -77 -126q-70 -53 -134 -53q-1 2 -1 11l1 14q34 10 61 47q29 40 31 88q2 50 3 140v520l-2 14q-2 17 -10 29q-20 34 -73 34l1 22h200v-740zM153 886q64 0 64 -64t-64 -64t-64 64t64 64z" />
    <glyph glyph-name="k" unicode="k" horiz-adv-x="747" 
d="M574 0q-2 0 -16 14q-13 12 -36 36l-48 52l-157 170l-35 36q-14 14 -16 14q-6 0 -12 -4q-8 -6 -8 -17v-179q0 -103 85 -103v-19h-285v19q85 0 85 83l-1 673q-1 28 -7 45q-16 47 -75 47v22h198v-505q27 20 64 51l66 56l98 88q4 7 3 12q-1 6 -13 10q-14 4 -42 4v22h228v-22
h-13q-6 0 -11 -1q-13 0 -23 -3q-23 -7 -53 -31l-61 -50l-56 -49l-85 -78l235 -265l43 -47l30 -33q12 -13 15 -14q17 -11 37 -14q16 -3 16 -1v-19h-150z" />
    <glyph glyph-name="l" unicode="l" horiz-adv-x="372" 
d="M32 0v19h8l11 2q14 4 26 11q33 21 33 67l1 435l-1 247q-1 87 -84 87v21h200v-785q0 -43 27 -66q23 -19 58 -19v-19h-279z" />
    <glyph glyph-name="m" unicode="m" horiz-adv-x="1300" 
d="M964 0v19q31 0 54 16q30 22 30 63l2 231q0 40 -1 80q-3 177 -150 177q-85 0 -143 -67q-50 -59 -50 -124v-302q0 -26 16 -46q23 -28 69 -28v-19h-285v19q33 0 57 18q27 20 27 55v289q0 205 -170 205q-62 0 -123 -65t-61 -127v-279q0 -61 36 -84q13 -8 29 -10l11 -2h8v-19
l-285 1v18q49 0 70 32q15 24 15 71v381q0 102 -85 102v11q0 9 -1 11h202v-98q32 32 50 47q26 23 52 36q58 31 148 31q142 0 200 -123q24 28 46 47q26 24 54 40q65 37 149 37q108 -1 169 -62q60 -61 60 -164l1 -322q0 -37 28 -58q24 -19 56 -19v-19h-285z" />
    <glyph glyph-name="n" unicode="n" horiz-adv-x="822" 
d="M777 5v-5h-284v19q37 0 59 19q26 22 25 66l1 282q0 39 -6 71q-7 38 -22 64q-38 65 -125 65q-70 0 -135 -61q-67 -63 -67 -136v-267q0 -103 85 -103v-19h-285v20q85 0 85 94v384q1 52 -15 77q-20 31 -70 31v21h200v-101q45 50 109 81q74 36 155 36q32 0 65 -10
q37 -12 67 -34q34 -27 53 -64q21 -44 21 -100v-324q0 -53 28 -75q21 -17 56 -17q1 -8 0 -14z" />
    <glyph glyph-name="o" unicode="o" horiz-adv-x="791" 
d="M125 73q-84 89 -82 237q0 121 110 226q113 107 250 106q96 0 168 -29q62 -25 103 -72q35 -39 52 -91q15 -42 15 -86q0 -94 -36 -171q-33 -70 -92 -120q-110 -92 -252 -92q-150 0 -236 92zM567 501q-30 39 -73 61q-48 24 -109 24q-106 0 -165 -74q-56 -70 -56 -186
q0 -67 20 -123q19 -52 52 -90q64 -74 145 -74q114 1 178 81q63 79 62 217q0 94 -54 164z" />
    <glyph glyph-name="p" unicode="p" horiz-adv-x="853" 
d="M778 158q-28 -59 -78 -100q-94 -76 -234 -76q-27 0 -63 8q-31 7 -65 19q-60 21 -91 40v-239q0 -41 26 -63q23 -19 58 -20v-19h-285v20q45 0 68 30q17 21 17 45v707q0 96 -85 96v21h199v-95q46 46 110 77q74 35 143 35q156 0 237 -99q72 -90 72 -244q0 -80 -29 -143z
M635 509q-52 77 -158 77q-59 0 -107 -29q-42 -26 -73 -73q-27 -41 -42 -92q-13 -46 -13 -89q0 -68 21 -123q19 -48 54 -82q60 -61 134 -64q96 0 163 84q67 83 67 202q0 120 -46 189z" />
    <glyph glyph-name="q" unicode="q" horiz-adv-x="779" 
d="M802 -292h-285v20q41 0 61 21q24 27 24 92v233q-126 -93 -254 -93q-150 0 -232 95q-75 87 -75 227q0 139 97 239q100 101 244 100q49 -1 94 -15q35 -12 65 -32q22 -14 38 -31q13 -13 13 -14q21 26 34 39q23 21 56 38h34v-782q0 -55 14 -80q19 -37 72 -37v-20zM541 495
q-29 42 -69 65q-44 26 -97 26q-62 0 -107 -27q-40 -23 -66 -67q-22 -39 -33 -91q-9 -45 -9 -96q0 -46 11 -90q11 -50 35 -88q26 -43 65 -66q44 -27 102 -27q108 0 168 95q53 81 53 199q0 91 -53 167z" />
    <glyph glyph-name="r" unicode="r" horiz-adv-x="503" 
d="M39 0v19q52 0 72 36q8 13 11 30l2 15v417q0 88 -85 88v22h201v-95l36 34q24 21 47 37q62 40 123 40q21 0 49 -16v-128h-20q0 30 -14 49q-18 25 -54 25q-59 0 -115 -64q-53 -59 -53 -110v-306l2 -12q3 -16 11 -29q21 -33 72 -33v-19h-285z" />
    <glyph glyph-name="s" unicode="s" horiz-adv-x="566" 
d="M165 -7q-36 8 -68 24q-22 10 -40 24l-14 10l-1 122h22q0 -60 66 -101q56 -36 112 -36q74 0 122 32q52 36 52 98t-58 92q-23 11 -60 21l-69 16q-42 10 -68 20q-36 12 -60 30q-58 43 -58 127q0 45 22 81q19 30 53 52q28 18 64 28q30 9 55 9q53 0 99 -8q37 -6 68 -17
q23 -8 42 -18l21 -13l-1 -12q0 -7 -1 -14q-1 -9 -1 -18q-4 -50 -4 -84h-10q-11 1 -13 0q0 55 -46 92q-50 39 -131 36q-54 0 -88 -21q-39 -23 -39 -69q0 -58 61 -89q24 -12 62 -23l45 -11q2 -1 9 -2q6 -2 9 -2q5 -2 9 -2q45 -11 72 -21q37 -13 62 -30q61 -41 61 -118
q0 -65 -34 -113q-28 -40 -79 -66q-39 -20 -88 -30q-18 -4 -36 -6q-15 -2 -26 -2q-50 1 -95 12z" />
    <glyph glyph-name="t" unicode="t" horiz-adv-x="452" 
d="M440 34q0 -1 -11 -9q-14 -10 -30 -18q-22 -12 -43 -19q-27 -9 -52 -9q-72 0 -124 44q-30 26 -46 64q-19 43 -19 100l-2 392q0 1 -11 1l-94 -1q-1 5 -1 12l1 29q69 8 118 42q57 41 57 102q0 -1 7 -1l33 -1q7 0 7 -1v-141q0 1 29 1l129 -2q30 0 30 1v-41h-188v-343
q0 -43 3 -71q5 -38 17 -64q30 -65 116 -65q20 0 50 18l18 11l4 4q2 1 1 0zM230 620z" />
    <glyph glyph-name="u" unicode="u" horiz-adv-x="825" 
d="M9 621v5h199v-385q0 -39 6 -72q8 -38 24 -66q39 -68 126 -68q67 0 130 63q65 65 65 138v273q0 53 -24 77q-20 19 -61 19v22h201v-498q0 -52 15 -78q20 -33 69 -33v-18h-200v76l-38 -28q-28 -17 -56 -31q-36 -16 -71 -25q-42 -11 -83 -11q-32 0 -66 11q-40 12 -72 35
q-37 27 -57 65q-23 44 -23 100v336q0 40 -28 60q-23 17 -56 17q-1 9 0 16z" />
    <glyph glyph-name="v" unicode="v" horiz-adv-x="660" 
d="M720 605q-49 0 -71 -16q-20 -15 -47 -64l-75 -142l-195 -383h-48l-235 540q-9 16 -19 29q-30 36 -78 36v22h285v-22q-64 0 -64 -37q0 -12 26 -80l26 -67l88 -211q13 -31 19 -47q8 -18 8 -21q128 233 204 418q19 45 -57 45v22h233v-22z" />
    <glyph glyph-name="w" unicode="w" horiz-adv-x="1095" 
d="M1162 605q-51 2 -84 -41l-12 -20l-101 -194l-92 -182l-81 -168h-65l-57 134l-58 143q-13 30 -25 62l-39 97q-2 0 -10 -15l-21 -39l-62 -124l-127 -258h-64l-147 348l-40 90q-41 93 -55 117q-29 50 -82 50v22h285v-22q-10 0 -20 -2q-13 -2 -23 -6q-28 -12 -28 -39
q0 -4 5 -20l62 -154l82 -192l20 -50l57 117l72 153l65 140l34 75q43 2 55 -22q11 -22 36 -83l79 -199q16 -43 27 -68q29 -76 45 -113l43 83q1 4 3 6l52 104l53 106q27 57 45 99q18 43 5 56q-9 8 -46 9v22h214v-22z" />
    <glyph glyph-name="x" unicode="x" horiz-adv-x="713" 
d="M388 0v19q61 0 61 36q0 3 -6 14q-6 10 -17 26q-17 27 -49 70l-73 99l-81 -95l-74 -84q-18 -22 -18 -25q0 -5 1 -10q2 -8 7 -14q16 -17 54 -17v-19h-244l-1 19q25 -1 63 18q21 10 56 44q29 27 68 72l72 83l61 74l-92 133l-51 70q-30 37 -60 69q-12 12 -36 18q-17 5 -34 5
v22h284v-21q-6 0 -14 -1q-10 -1 -19 -5q-23 -9 -23 -28q0 -5 21 -33q15 -22 46 -61l63 -81q6 -8 6 -9l94 111l38 48q15 21 15 27q0 22 -21 28q-7 3 -19 3q-4 1 -10 1h-10v21h212v-21q-49 -2 -78 -35l-190 -225l205 -288q22 -26 44 -34q9 -3 18 -4q3 -1 7 -1h7l1 -19h-284z
" />
    <glyph glyph-name="y" unicode="y" horiz-adv-x="681" 
d="M711 605q-70 -2 -108 -76l-151 -304q-1 -1 -1 -2l-81 -164l-33 -64q-33 -64 -57 -106q-50 -89 -87 -125q-36 -35 -79 -36q-35 0 -67 17q-6 3 -11 7q-4 2 -8 5l-8 5l8 20q31 0 70 27q34 23 71 64q70 76 98 141q-10 21 -25 57l-137 329l-32 74q-31 73 -42 93q-19 38 -74 39
v21h285v-22q-71 0 -71 -41q0 -14 26 -83l27 -68l114 -271l198 405q28 58 -59 58v22h234v-22z" />
    <glyph glyph-name="z" unicode="z" horiz-adv-x="629" 
d="M34 -1q-3 3 -3 51q5 8 24 33l361 453q19 25 24 34h-250q-32 -1 -49 -18q-22 -21 -22 -68q-2 -1 -9 -1h-11v144h488l-1 -55l-423 -522h304q105 0 105 82h20v-132z" />
    <glyph glyph-name="uni00A0" unicode="&#xa0;" horiz-adv-x="866" 
d="M498 3q0 1 -2 4l-4 6q-3 5 -5 11q-2 7 -2 14q-54 -28 -99 -38q-36 -9 -82 -9q-85 0 -119 46q-27 36 -16 83q13 54 59 87q38 27 101 40q26 5 56 8q26 2 57 3h95q21 89 11 128q-12 46 -69 46q-36 0 -70 -5q-28 -4 -54 -12q-19 -5 -37 -13l-21 -8l9 37q47 20 100 31
q47 10 88 11q33 0 61 -6q32 -8 53 -25q52 -42 30 -138l-53 -224q-15 -62 50 -62q-1 1 -2 -8q-1 -3 -1 -6q-1 -2 0 -1h-134zM492 220q-23 1 -41 0q-48 -1 -82 -8q-42 -10 -69 -31q-31 -24 -40 -65q-9 -39 13 -63q20 -24 59 -24q50 0 94 18q18 7 36 18l31 20q3 2 8 18l27 109
q1 4 1 8h-37zM685 120q42 65 42 168q0 149 -81 231q-73 74 -192 73q-48 -1 -98 -21q-61 -24 -109 -70q-56 -55 -87 -135q-36 -93 -36 -216q0 -73 16 -133q14 -54 41 -96q47 -74 122 -99q42 -13 76 -10q2 -1 2 -8t-2 -10q-24 -20 -72 -20q-26 0 -64 20q-46 24 -85 64
q-46 49 -73 114q-31 77 -31 171q0 196 120 337q136 160 320 160q71 0 129 -29q53 -27 91 -75q72 -91 72 -213q0 -64 -17 -120q-16 -52 -46 -94z" />
    <glyph glyph-name="dieresis" unicode="&#xa8;" 
d="M98 789q52 0 52 -53t-56 -53q-49 0 -49 53t53 53zM260 787q52 0 52 -54q0 -51 -54 -51q-51 0 -51 51q0 54 53 54z" />
    <glyph glyph-name="guillemotleft" unicode="&#xab;" horiz-adv-x="515" 
d="M480 57l-231 235q-21 21 -2 39l297 299q0 1 4 -3q4 -5 6 -11q6 -20 -17 -50l-109 -135l-57 -69q-27 -33 -40 -45q8 -8 35 -40l120 -150q33 -41 51 -61q24 -27 20 -44q-1 -6 -6 -13l-7 -11q-22 18 -64 59zM296 57l-148 151l-20 20l-63 64q-20 20 -2 39l297 299q0 1 4 -3
q4 -5 6 -11q6 -20 -17 -50l-48 -61l-60 -74l-57 -69q-28 -33 -40 -45l34 -40l120 -150q33 -41 51 -61q24 -27 20 -44q-1 -6 -6 -13l-7 -11q-21 18 -64 59z" />
    <glyph glyph-name="degree" unicode="&#xb0;" horiz-adv-x="320" 
d="M4 757q0 47 48 88q48 42 106 41q78 0 116 -39q28 -29 28 -69q0 -71 -54 -114q-47 -36 -108 -35q-137 0 -136 128zM215 812q-23 26 -65 26q-79 0 -79 -79q0 -39 26 -64q23 -23 51 -23q88 1 87 91q0 28 -20 49z" />
    <glyph glyph-name="acute" unicode="&#xb4;" 
d="M60 746q1 -4 3 -11l4 -12l2 -5q43 0 84 6q48 6 84 17q91 30 91 90q0 18 -2 29q-2 9 -5 14l-7 9q-4 5 -6 13l-25 -3q1 -4 -14 -25q-18 -26 -43 -48q-32 -30 -70 -47q-46 -21 -95 -21q-2 -1 -1 -6z" />
    <glyph glyph-name="guillemotright" unicode="&#xbb;" horiz-adv-x="515" 
d="M89 566l85 -85l147 -150q21 -20 2 -39l-297 -299l-4 4q-4 4 -6 10q-6 20 17 50l108 136l57 68q28 33 40 45l-34 40l-120 150q-33 41 -51 61q-24 27 -21 45q2 5 7 12l7 11q21 -18 63 -59zM273 566l85 -85l146 -150q21 -19 3 -39l-297 -299l-4 4q-5 4 -7 10q-6 20 17 50
l108 136l58 68q27 33 40 45q-8 8 -34 40l-27 34l-15 18q-3 4 -8 10l-70 88q-34 41 -52 61q-23 27 -20 45q2 5 7 12l7 11q21 -18 63 -59z" />
    <glyph glyph-name="Agrave" unicode="&#xc0;" horiz-adv-x="965" 
d="M689 0v19q10 0 23 3q15 3 27 9q31 16 22 45l-22 54l-44 99l-61 139h-322l-146 -296q-10 -25 9 -39q14 -11 36 -13l17 -1v-19h-232l-1 19q0 -1 9 -1q10 0 20 3q31 9 43 31q8 9 27 45l45 90l56 118l61 132l59 131l106 238q5 27 -21 45q-24 16 -55 16v19h213l220 -530
l54 -131l42 -99q17 -41 22 -51q18 -36 38 -48q14 -8 40 -8v-10v-9h-285zM479 774l-143 -330h268zM623 968q-1 -4 -3 -11l-4 -12l-2 -5h-41q-26 0 -43 1q-51 2 -84 10q-43 10 -65 32q-26 26 -26 70q0 18 2 29q2 9 5 14l6 9q4 5 6 13l26 -3q-2 -5 10 -25q15 -26 38 -48
q30 -30 69 -47q48 -21 105 -21q2 -1 1 -6z" />
    <glyph glyph-name="Acircumflex" unicode="&#xc2;" horiz-adv-x="965" 
d="M689 0v19q10 0 23 3q15 3 27 9q31 16 22 45l-22 54l-44 99l-61 139h-322l-146 -296q-10 -25 9 -39q14 -11 36 -13l17 -1v-19h-232l-1 19q0 -1 9 -1q10 0 20 3q31 9 43 31q8 9 27 45l45 90l56 118l61 132l59 131l106 238q5 27 -21 45q-24 16 -55 16v19h213l220 -530
l54 -131l42 -99q17 -41 22 -51q18 -36 38 -48q14 -8 40 -8v-10v-9h-285zM479 774l-143 -330h268zM513 1045l4 -9q0 -1 1 -4l11 -23q5 -10 11 -19q14 -21 37 -36q28 -18 70 -29q2 -1 -6 -12l-9 -11q-35 -2 -79 14q-56 20 -87 60q-30 -34 -77 -57q-39 -20 -68 -23l-10 10
q-9 11 -7 12q41 13 73 36q26 19 43 44q14 19 21 38q6 16 4 19q1 -1 9 2l18 4q12 3 19 3q10 0 13 -3z" />
    <glyph glyph-name="Egrave" unicode="&#xc8;" horiz-adv-x="743" 
d="M501 971q-1 -4 -3 -11l-4 -12l-2 -5h-41q-26 0 -43 1q-51 2 -84 10q-43 10 -65 32q-26 26 -26 70q0 18 2 29q1 9 5 14l6 9q4 5 6 13l26 -3q-2 -5 10 -25q15 -26 38 -48q30 -30 69 -47q47 -21 105 -21q1 -1 1 -6zM62 890v-19q46 0 69 -29q16 -21 16 -44v-704
q0 -47 -42 -67q-7 -3 -16 -5l-13 -3q-13 -2 -13 0v-19h621l3 150l-19 3l-1 -15q-3 -17 -10 -32q-10 -21 -27 -32q-21 -15 -51 -15l-278 -1q-34 0 -34 1l-3 212l-4 175l270 1q49 0 68 -42q6 -13 8 -29q1 -5 1 -10v-3h19v243h-19l-1 -16q-3 -15 -9 -28q-19 -38 -66 -40
q-29 -1 -76 -1q-39 -1 -87 -1l-101 1v307l285 -1q33 0 55 -18q18 -14 28 -39q7 -18 10 -39q1 -7 1 -13v-5h20l7 176z" />
    <glyph glyph-name="Eacute" unicode="&#xc9;" horiz-adv-x="743" 
d="M62 890v-19q46 0 69 -29q16 -21 16 -44v-704q0 -47 -42 -67q-7 -3 -16 -5l-13 -3q-13 -2 -13 0v-19h621l3 150l-19 3l-1 -15q-3 -17 -10 -32q-10 -21 -27 -32q-21 -15 -51 -15l-278 -1q-34 0 -34 1l-3 212l-4 175l270 1q49 0 68 -42q6 -13 8 -29q1 -5 1 -10v-3h19v243
h-19l-1 -16q-3 -15 -9 -28q-19 -38 -66 -40q-29 -1 -76 -1q-39 -1 -87 -1l-101 1v307l285 -1q33 0 55 -18q18 -14 28 -39q7 -18 10 -39q1 -7 1 -13v-5h20l7 176zM271 988q1 -4 3 -11l4 -12l2 -5q43 0 84 6q48 6 84 17q91 30 91 90q0 18 -2 29q-2 9 -5 14l-7 9q-3 5 -6 13
l-25 -3q1 -4 -14 -25q-18 -26 -43 -48q-32 -30 -70 -47q-46 -21 -95 -21q-2 -1 -1 -6z" />
    <glyph glyph-name="Ecircumflex" unicode="&#xca;" horiz-adv-x="743" 
d="M62 890v-19q46 0 69 -29q16 -21 16 -44v-704q0 -47 -42 -67q-7 -3 -16 -5l-13 -3q-13 -2 -13 0v-19h621l3 150l-19 3l-1 -15q-3 -17 -10 -32q-10 -21 -27 -32q-21 -15 -51 -15l-278 -1q-34 0 -34 1l-3 212l-4 175l270 1q49 0 68 -42q6 -13 8 -29q1 -5 1 -10v-3h19v243
h-19l-1 -16q-3 -15 -9 -28q-19 -38 -66 -40q-29 -1 -76 -1q-39 -1 -87 -1l-101 1v307l285 -1q33 0 55 -18q18 -14 28 -39q7 -18 10 -39q1 -7 1 -13v-5h20l7 176zM493 1089l14 -31q2 -6 5 -11q6 -13 13 -23q17 -25 44 -42q33 -21 84 -35q1 0 -1 -5l-18 -22q-41 -2 -93 17
q-67 24 -104 71q-35 -41 -91 -69q-45 -22 -80 -26l-19 21q-3 4 -1 5q49 15 86 43q31 22 52 52q16 23 24 45q7 19 5 22q1 -1 11 2l21 6q31 7 38 -1q5 -8 10 -19z" />
    <glyph glyph-name="Ograve" unicode="&#xd2;" horiz-adv-x="995" 
d="M654 974q0 -4 -3 -11q-1 -6 -4 -12l-2 -5h-40q-26 0 -44 1q-51 2 -84 10q-42 10 -64 32q-26 26 -26 70q0 18 2 29q1 9 5 14l6 9q4 5 6 13l25 -3q-1 -5 11 -25q15 -26 37 -48q31 -30 69 -47q48 -21 106 -21q1 -1 0 -6zM829 134q-60 -72 -142 -111q-89 -42 -196 -42
q-108 0 -194 39q-81 37 -137 105q-109 131 -109 330q0 190 137 319q136 128 333 128q110 0 195 -39q78 -36 132 -102q49 -61 74 -141q23 -75 23 -157q0 -191 -116 -329zM723 739q-79 93 -222 93q-127 0 -217 -97q-48 -52 -73 -123q-29 -78 -29 -174q0 -98 29 -175
q27 -70 76 -119q90 -90 222 -90q52 0 102 22q54 24 96 70q46 51 72 123q28 81 28 183q0 189 -84 287z" />
    <glyph glyph-name="Oacute" unicode="&#xd3;" horiz-adv-x="995" 
d="M384 970q0 -4 3 -11q1 -5 4 -11l2 -5q43 0 84 5q48 6 84 18q90 29 90 89q0 19 -2 30q-1 8 -4 13l-7 9q-4 6 -6 13l-25 -3q1 -4 -14 -25q-18 -25 -43 -48q-33 -30 -70 -47q-46 -21 -95 -21q-2 0 -1 -6zM829 134q-60 -72 -142 -111q-89 -42 -196 -42q-108 0 -194 39
q-81 37 -137 105q-109 131 -109 330q0 190 137 319q136 128 333 128q110 0 195 -39q78 -36 132 -102q49 -61 74 -141q23 -75 23 -157q0 -191 -116 -329zM723 739q-79 93 -222 93q-127 0 -217 -97q-48 -52 -73 -123q-29 -78 -29 -174q0 -98 29 -175q27 -70 76 -119
q90 -90 222 -90q52 0 102 22q54 24 96 70q46 51 72 123q28 81 28 183q0 189 -84 287z" />
    <glyph glyph-name="Ocircumflex" unicode="&#xd4;" horiz-adv-x="995" 
d="M552 1072l14 -31q2 -6 5 -11q6 -13 13 -23q17 -25 44 -42q33 -21 84 -35q1 0 -2 -5l-17 -22q-41 -2 -93 17q-67 24 -104 71q-35 -41 -91 -69q-46 -22 -81 -26l-18 21q-3 4 -2 5q49 15 87 43q30 22 51 52q16 23 25 45q6 19 4 22q2 -1 12 2l21 6q31 7 38 -1q5 -8 10 -19z
M829 134q-60 -72 -142 -111q-89 -42 -196 -42q-108 0 -194 39q-81 37 -137 105q-109 131 -109 330q0 190 137 319q136 128 333 128q110 0 195 -39q78 -36 132 -102q49 -61 74 -141q23 -75 23 -157q0 -191 -116 -329zM723 739q-79 93 -222 93q-127 0 -217 -97
q-48 -52 -73 -123q-29 -78 -29 -174q0 -98 29 -175q27 -70 76 -119q90 -90 222 -90q52 0 102 22q54 24 96 70q46 51 72 123q28 81 28 183q0 189 -84 287z" />
    <glyph glyph-name="Odieresis" unicode="&#xd6;" horiz-adv-x="995" 
d="M829 134q-60 -72 -142 -111q-89 -42 -196 -42q-108 0 -194 39q-81 37 -137 105q-109 131 -109 330q0 190 137 319q136 128 333 128q110 0 195 -39q78 -36 132 -102q49 -61 74 -141q23 -75 23 -157q0 -191 -116 -329zM723 739q-79 93 -222 93q-127 0 -217 -97
q-48 -52 -73 -123q-29 -78 -29 -174q0 -98 29 -175q27 -70 76 -119q90 -90 222 -90q52 0 102 22q54 24 96 70q46 51 72 123q28 81 28 183q0 189 -84 287z" />
    <glyph glyph-name="agrave" unicode="&#xe0;" horiz-adv-x="634" 
d="M339 587q-47 0 -90 -7q-35 -6 -67 -16q-23 -7 -46 -17q-3 -2 -8 -4l-16 -8l1 50q55 28 122 44q59 13 112 14zM498 0l-4 5l-8 9q-11 15 -17 34q-61 -39 -117 -54q-46 -12 -106 -12q-59 0 -104 18q-40 16 -67 46q-46 49 -46 114q0 74 50 119q42 37 120 54q33 7 73 11
q33 3 73 4q27 1 68 1h57q0 121 -26 175q-30 63 -105 63q-47 0 -90 -7q-35 -6 -67 -16q-23 -7 -46 -17q-3 -2 -8 -4l-16 -8l1 50q55 28 122 44q59 13 112 14q44 1 82 -8q45 -10 78 -34q38 -27 58 -71q23 -49 23 -118v-307q0 -85 85 -85q-1 1 -1 -11l1 -9h-175zM472 296h-18
l-6 1h-26q-30 1 -53 0q-63 -1 -105 -12q-54 -13 -82 -42q-33 -33 -33 -89q0 -53 36 -86q35 -33 86 -33q65 0 118 25q21 10 42 25l35 27q3 2 4 24q2 19 2 52v108zM452 762q0 -4 -3 -11q-1 -5 -4 -12l-2 -5h-40q-26 0 -44 1q-51 2 -84 10q-42 10 -64 32q-26 26 -26 70
q0 19 2 29q1 9 5 14l6 9q4 5 6 13l25 -3q-1 -4 11 -25q15 -26 37 -48q31 -30 69 -47q48 -21 106 -21q1 0 0 -6z" />
    <glyph glyph-name="aacute" unicode="&#xe1;" horiz-adv-x="634" 
d="M339 587q-47 0 -90 -7q-35 -6 -67 -16q-23 -7 -46 -17q-3 -2 -8 -4l-16 -8l1 50q55 28 122 44q59 13 112 14zM498 0l-4 5l-8 9q-11 15 -17 34q-61 -39 -117 -54q-46 -12 -106 -12q-59 0 -104 18q-40 16 -67 46q-46 49 -46 114q0 74 50 119q42 37 120 54q33 7 73 11
q33 3 73 4q27 1 68 1h57q0 121 -26 175q-30 63 -105 63q-47 0 -90 -7q-35 -6 -67 -16q-23 -7 -46 -17q-3 -2 -8 -4l-16 -8l1 50q55 28 122 44q59 13 112 14q44 1 82 -8q45 -10 78 -34q38 -27 58 -71q23 -49 23 -118v-307q0 -85 85 -85q-1 1 -1 -11l1 -9h-175zM472 296h-18
l-6 1h-26q-30 1 -53 0q-63 -1 -105 -12q-54 -13 -82 -42q-33 -33 -33 -89q0 -53 36 -86q35 -33 86 -33q65 0 118 25q21 10 42 25l35 27q3 2 4 24q2 19 2 52v108zM211 756q0 -4 3 -11q1 -6 4 -12l2 -5q43 0 84 6q48 6 84 17q90 30 90 90q0 18 -2 29q-1 9 -4 14l-7 9
q-4 5 -6 13l-25 -3q1 -4 -14 -25q-18 -26 -43 -48q-33 -30 -70 -47q-46 -21 -95 -21q-2 -1 -1 -6z" />
    <glyph glyph-name="acircumflex" unicode="&#xe2;" horiz-adv-x="634" 
d="M378 865l14 -31q2 -6 5 -11q6 -13 13 -23q17 -25 44 -42q33 -21 84 -35q1 0 -2 -5l-17 -22q-41 -2 -93 17q-67 24 -104 71q-35 -41 -91 -69q-46 -22 -81 -26l-18 21q-3 4 -2 5q49 15 87 43q30 22 51 52q16 23 25 45q6 19 4 22q2 -1 12 2l21 6q31 7 38 -1q5 -8 10 -19z
M339 587q-47 0 -90 -7q-35 -6 -67 -16q-23 -7 -46 -17q-3 -2 -8 -4l-16 -8l1 50q55 28 122 44q59 13 112 14zM498 0l-4 5l-8 9q-11 15 -17 34q-61 -39 -117 -54q-46 -12 -106 -12q-59 0 -104 18q-40 16 -67 46q-46 49 -46 114q0 74 50 119q42 37 120 54q33 7 73 11
q33 3 73 4q27 1 68 1h57q0 121 -26 175q-30 63 -105 63q-47 0 -90 -7q-35 -6 -67 -16q-23 -7 -46 -17q-3 -2 -8 -4l-16 -8l1 50q55 28 122 44q59 13 112 14q44 1 82 -8q45 -10 78 -34q38 -27 58 -71q23 -49 23 -118v-307q0 -85 85 -85q-1 1 -1 -11l1 -9h-175zM472 296h-18
l-6 1h-26q-30 1 -53 0q-63 -1 -105 -12q-54 -13 -82 -42q-33 -33 -33 -89q0 -53 36 -86q35 -33 86 -33q65 0 118 25q21 10 42 25l35 27q3 2 4 24q2 19 2 52v108z" />
    <glyph glyph-name="adieresis" unicode="&#xe4;" horiz-adv-x="634" 
d="M339 587q-47 0 -90 -7q-35 -6 -67 -16q-23 -7 -46 -17q-3 -2 -8 -4l-16 -8l1 50q55 28 122 44q59 13 112 14zM498 0l-4 5l-8 9q-11 15 -17 34q-61 -39 -117 -54q-46 -12 -106 -12q-59 0 -104 18q-40 16 -67 46q-46 49 -46 114q0 74 50 119q42 37 120 54q33 7 73 11
q33 3 73 4q27 1 68 1h57q0 121 -26 175q-30 63 -105 63q-47 0 -90 -7q-35 -6 -67 -16q-23 -7 -46 -17q-3 -2 -8 -4l-16 -8l1 50q55 28 122 44q59 13 112 14q44 1 82 -8q45 -10 78 -34q38 -27 58 -71q23 -49 23 -118v-307q0 -85 85 -85q-1 1 -1 -11l1 -9h-175zM472 296h-18
l-6 1h-26q-30 1 -53 0q-63 -1 -105 -12q-54 -13 -82 -42q-33 -33 -33 -89q0 -53 36 -86q35 -33 86 -33q65 0 118 25q21 10 42 25l35 27q3 2 4 24q2 19 2 52v108zM266 802q53 0 53 -53t-56 -53q-49 0 -49 53t52 53zM428 800q53 0 53 -54q0 -51 -54 -51q-51 0 -51 51
q0 54 52 54z" />
    <glyph glyph-name="ccedilla" unicode="&#xe7;" horiz-adv-x="607" 
d="M368 -50q0 1 8 -3l9 -4l9 -6q26 -18 26 -41q0 -46 -26 -68q-19 -16 -44 -16q-13 0 -37 4q-21 3 -23 4q2 3 3 7q1 2 1 6q2 7 5 9q68 4 79 45q10 41 -74 39l13 58h55zM592 58q0 -5 -22 -17q-24 -13 -58 -26q-41 -14 -84 -22q-50 -11 -97 -11q-90 0 -158 39q-57 32 -96 90
q-31 46 -48 102q-13 45 -13 77q0 100 40 175q35 65 98 109q53 36 121 55q56 15 109 15q45 0 103 -10q62 -11 79 -24l-11 -142q-12 0 -22 5q-1 34 -41 70q-48 44 -116 44q-119 0 -183 -80q-58 -72 -58 -191q0 -134 68 -209q63 -71 165 -72q73 -1 124 15q44 14 100 51v-43z
" />
    <glyph glyph-name="egrave" unicode="&#xe8;" horiz-adv-x="630" 
d="M159 392q-7 -23 -7 -76q1 -134 69 -212q61 -69 150 -69q47 0 90 10q34 8 64 23q12 5 23 12q9 5 18 11l19 13q1 -3 1 -9l-1 -24q-1 -7 0 -12q-52 -40 -109 -58q-62 -19 -145 -19q-126 0 -211 94q-86 97 -86 246q0 129 81 219q88 99 236 101q119 2 186 -60q71 -65 71 -190
h-449zM498 447q0 63 -44 103q-42 37 -99 37q-72 0 -123 -47q-42 -38 -57 -93h323zM472 766q0 -4 -3 -11q-1 -6 -4 -12l-2 -5h-40q-26 0 -44 1q-51 2 -84 10q-42 10 -64 32q-26 26 -26 70q0 18 2 29q1 9 5 14l6 9q4 5 6 13l25 -3q-1 -5 11 -25q15 -26 37 -48q31 -30 69 -47
q48 -21 106 -21q1 -1 0 -6z" />
    <glyph glyph-name="eacute" unicode="&#xe9;" 
d="M159 392q-7 -23 -7 -76q1 -134 69 -212q61 -69 150 -69q47 0 90 10q34 8 64 23q12 5 23 12q9 5 18 11l19 13q1 -3 1 -9l-1 -24q-1 -7 0 -12q-52 -40 -109 -58q-62 -19 -145 -19q-126 0 -211 94q-86 97 -86 246q0 129 81 219q88 99 236 101q119 2 186 -60q71 -65 71 -190
h-449zM498 447q0 63 -44 103q-42 37 -99 37q-72 0 -123 -47q-42 -38 -57 -93h323zM211 753q0 -4 3 -11q1 -5 4 -11l2 -6q43 1 84 6q48 6 84 18q90 29 90 89q0 18 -2 29q-1 9 -4 14l-7 9q-4 5 -6 13l-25 -3q1 -4 -14 -25q-18 -26 -43 -48q-33 -30 -70 -47q-46 -21 -95 -21
q-2 0 -1 -6z" />
    <glyph glyph-name="ecircumflex" unicode="&#xea;" 
d="M159 392q-7 -23 -7 -76q1 -134 69 -212q61 -69 150 -69q47 0 90 10q34 8 64 23q12 5 23 12q9 5 18 11l19 13q1 -3 1 -9l-1 -24q-1 -7 0 -12q-52 -40 -109 -58q-62 -19 -145 -19q-126 0 -211 94q-86 97 -86 246q0 129 81 219q88 99 236 101q119 2 186 -60q71 -65 71 -190
h-449zM498 447q0 63 -44 103q-42 37 -99 37q-72 0 -123 -47q-42 -38 -57 -93h323zM391 864l14 -31q2 -6 5 -11q6 -13 13 -23q17 -25 44 -42q33 -21 84 -35q1 0 -2 -5l-17 -22q-41 -2 -93 17q-67 24 -104 71q-35 -41 -91 -69q-46 -22 -81 -26l-18 21q-3 4 -2 5q49 15 87 43
q30 22 51 52q16 23 25 45q6 19 4 22q2 -1 12 2l21 6q31 7 38 -1q5 -8 10 -19z" />
    <glyph glyph-name="edieresis" unicode="&#xeb;" 
d="M159 392q-7 -23 -7 -76q1 -134 69 -212q61 -69 150 -69q47 0 90 10q34 8 64 23q12 5 23 12q9 5 18 11l19 13q1 -3 1 -9l-1 -24q-1 -7 0 -12q-52 -40 -109 -58q-62 -19 -145 -19q-126 0 -211 94q-86 97 -86 246q0 129 81 219q88 99 236 101q119 2 186 -60q71 -65 71 -190
h-449zM498 447q0 63 -44 103q-42 37 -99 37q-72 0 -123 -47q-42 -38 -57 -93h323zM252 825q53 0 53 -53t-56 -53q-49 0 -49 53t52 53zM414 823q53 0 53 -54q0 -51 -54 -51q-51 0 -51 51q0 54 52 54z" />
    <glyph glyph-name="igrave" unicode="&#xec;" horiz-adv-x="344" 
d="M305 760q0 -4 -3 -11q-1 -6 -4 -12l-2 -5h-40q-26 0 -44 1q-51 2 -84 10q-42 10 -64 32q-26 26 -26 70q0 18 2 29q1 9 5 14l6 9q4 5 6 13l25 -3q-1 -5 11 -25q15 -26 37 -48q31 -30 69 -47q48 -21 106 -21q1 -1 0 -6zM35 -1v20q51 0 72 37q8 13 11 31l2 13v411
q0 41 -18 65q-22 29 -67 29v22h200v-503q0 -62 28 -87q20 -18 57 -18v-20h-285z" />
    <glyph glyph-name="iacute" unicode="&#xed;" horiz-adv-x="370" 
d="M26 746q1 -4 3 -11l4 -12l2 -5q43 0 84 6q48 6 84 17q91 30 91 90q0 18 -2 29q-2 9 -5 14l-7 9q-4 5 -6 13l-25 -3q1 -4 -14 -25q-18 -26 -43 -48q-32 -30 -70 -47q-46 -21 -95 -21q-2 -1 -1 -6zM35 -1v20q51 0 72 37q8 13 11 31l2 13v411q0 41 -18 65q-22 29 -67 29v22
h200v-503q0 -62 28 -87q20 -18 57 -18v-20h-285z" />
    <glyph glyph-name="icircumflex" unicode="&#xee;" horiz-adv-x="344" 
d="M216 876l14 -32q2 -6 5 -11q6 -12 13 -22q17 -25 44 -43q33 -21 84 -34q1 -1 -2 -6l-17 -22q-41 -2 -93 17q-67 24 -104 71q-35 -40 -91 -68q-46 -23 -80 -27l-12 12q-4 6 -7 9q-3 5 -1 6q48 14 86 42q30 23 51 52q16 23 25 46q6 18 4 21l12 2q0 1 4 2l17 4q31 7 38 -1
q5 -7 10 -18zM36 -1v20q51 0 72 37q8 13 11 31l2 13v411q0 41 -18 65q-22 29 -67 29v22h200v-503q0 -62 28 -87q20 -18 57 -18v-20h-285z" />
    <glyph glyph-name="idieresis" unicode="&#xef;" horiz-adv-x="344" 
d="M70 823q52 0 52 -53t-56 -53q-49 0 -49 53t53 53zM232 821q52 0 52 -54q0 -51 -54 -51q-51 0 -51 51q0 54 53 54zM21 -1v20q51 0 73 37q7 13 10 31l2 13v411q0 41 -18 65q-21 29 -67 29v22h200v-503q0 -62 28 -87q20 -18 57 -18v-20h-285z" />
    <glyph glyph-name="ograve" unicode="&#xf2;" horiz-adv-x="791" 
d="M125 73q-84 89 -82 237q0 121 110 226q113 107 250 106q96 0 168 -29q62 -25 103 -72q35 -39 52 -91q15 -42 15 -86q0 -94 -36 -171q-33 -70 -92 -120q-110 -92 -252 -92q-150 0 -236 92zM567 501q-30 39 -73 61q-48 24 -109 24q-106 0 -165 -74q-56 -70 -56 -186
q0 -67 20 -123q19 -52 52 -90q64 -74 145 -74q114 1 178 81q63 79 62 217q0 94 -54 164zM483 766q-1 -4 -3 -11l-4 -12l-2 -5h-41q-25 0 -43 1q-51 2 -84 10q-43 10 -65 32q-26 26 -26 70q0 18 2 29q2 9 5 14l6 9q4 5 7 13l25 -3q-1 -5 10 -25q15 -26 38 -48q30 -30 69 -47
q48 -21 105 -21q2 -1 1 -6z" />
    <glyph glyph-name="oacute" unicode="&#xf3;" horiz-adv-x="739" 
d="M125 73q-84 89 -82 237q0 121 110 226q113 107 250 106q96 0 168 -29q62 -25 103 -72q35 -39 52 -91q15 -42 15 -86q0 -94 -36 -171q-33 -70 -92 -120q-110 -92 -252 -92q-150 0 -236 92zM567 501q-30 39 -73 61q-48 24 -109 24q-106 0 -165 -74q-56 -70 -56 -186
q0 -67 20 -123q19 -52 52 -90q64 -74 145 -74q114 1 178 81q63 79 62 217q0 94 -54 164zM281 752q1 -4 3 -11l4 -12l2 -5q43 0 84 6q48 6 84 17q91 30 91 90q0 18 -2 29q-2 9 -5 14l-6 9q-4 5 -6 13l-26 -3q1 -4 -13 -25q-18 -26 -43 -48q-33 -30 -70 -47q-46 -21 -96 -21
q-2 -1 -1 -6z" />
    <glyph glyph-name="ocircumflex" unicode="&#xf4;" horiz-adv-x="781" 
d="M125 73q-84 89 -82 237q0 121 110 226q113 107 250 106q96 0 168 -29q62 -25 103 -72q35 -39 52 -91q15 -42 15 -86q0 -94 -36 -171q-33 -70 -92 -120q-110 -92 -252 -92q-150 0 -236 92zM567 501q-30 39 -73 61q-48 24 -109 24q-106 0 -165 -74q-56 -70 -56 -186
q0 -67 20 -123q19 -52 52 -90q64 -74 145 -74q114 1 178 81q63 79 62 217q0 94 -54 164zM456 862l13 -32q3 -6 5 -11q6 -12 13 -22q17 -25 45 -43q32 -21 83 -34q1 -1 -1 -6l-17 -22q-41 -2 -93 17q-67 24 -104 71q-36 -40 -91 -68q-46 -23 -81 -27l-19 21q-2 5 -1 6
q49 14 86 42q31 23 52 52q16 23 24 46q7 18 5 21l11 2q1 1 5 2l17 4q31 7 38 -1q5 -7 10 -18z" />
    <glyph glyph-name="odieresis" unicode="&#xf6;" horiz-adv-x="791" 
d="M309 824q52 0 52 -53t-56 -53q-49 0 -49 53t53 53zM471 822q52 0 52 -54q0 -51 -54 -51q-51 0 -51 51q0 54 53 54zM125 73q-84 89 -82 237q0 121 110 226q113 107 250 106q96 0 168 -29q62 -25 103 -72q35 -39 52 -91q15 -42 15 -86q0 -94 -36 -171q-33 -70 -92 -120
q-110 -92 -252 -92q-150 0 -236 92zM567 501q-30 39 -73 61q-48 24 -109 24q-106 0 -165 -74q-56 -70 -56 -186q0 -67 20 -123q19 -52 52 -90q64 -74 145 -74q114 1 178 81q63 79 62 217q0 94 -54 164z" />
    <glyph glyph-name="ugrave" unicode="&#xf9;" horiz-adv-x="755" 
d="M9 621v5h199v-385q0 -39 6 -72q8 -38 24 -66q39 -68 126 -68q67 0 130 63q65 65 65 138v273q0 53 -24 77q-20 19 -61 19v22h201v-498q0 -52 15 -78q20 -33 69 -33v-18h-200v76l-38 -28q-28 -17 -56 -31q-36 -16 -71 -25q-42 -11 -83 -11q-32 0 -66 11q-40 12 -72 35
q-37 27 -57 65q-23 44 -23 100v336q0 40 -28 60q-23 17 -56 17q-1 9 0 16zM492 742q-1 -4 -3 -11l-4 -12l-2 -5h-41q-26 0 -43 1q-51 2 -84 10q-43 10 -65 32q-26 26 -26 70q0 18 2 29q1 9 5 14l6 9q4 5 6 13l26 -3q-2 -5 10 -25q15 -26 38 -48q30 -30 69 -47
q47 -21 105 -21q1 -1 1 -6z" />
    <glyph glyph-name="uacute" unicode="&#xfa;" horiz-adv-x="755" 
d="M9 621v5h199v-385q0 -39 6 -72q8 -38 24 -66q39 -68 126 -68q67 0 130 63q65 65 65 138v273q0 53 -24 77q-20 19 -61 19v22h201v-498q0 -52 15 -78q20 -33 69 -33v-18h-200v76l-38 -28q-28 -17 -56 -31q-36 -16 -71 -25q-42 -11 -83 -11q-32 0 -66 11q-40 12 -72 35
q-37 27 -57 65q-23 44 -23 100v336q0 40 -28 60q-23 17 -56 17q-1 9 0 16zM229 751q1 -4 3 -11l4 -12l2 -5q43 0 84 6q48 6 84 17q91 30 91 90q0 18 -2 29q-2 9 -5 14l-7 9q-3 5 -6 13l-25 -3q1 -4 -14 -25q-18 -26 -43 -48q-32 -30 -70 -47q-46 -21 -95 -21q-2 -1 -1 -6z
" />
    <glyph glyph-name="ucircumflex" unicode="&#xfb;" horiz-adv-x="755" 
d="M9 621v5h199v-385q0 -39 6 -72q8 -38 24 -66q39 -68 126 -68q67 0 130 63q65 65 65 138v273q0 53 -24 77q-20 19 -61 19v22h201v-498q0 -52 15 -78q20 -33 69 -33v-18h-200v76l-38 -28q-28 -17 -56 -31q-36 -16 -71 -25q-42 -11 -83 -11q-32 0 -66 11q-40 12 -72 35
q-37 27 -57 65q-23 44 -23 100v336q0 40 -28 60q-23 17 -56 17q-1 9 0 16zM449 867l14 -31q3 -6 5 -11q6 -13 13 -23q17 -25 44 -42q33 -21 84 -35q1 0 -1 -5l-18 -22q-41 -2 -93 17q-66 24 -104 71q-35 -41 -91 -69q-45 -22 -80 -26l-19 21q-3 4 -1 5q49 15 86 43
q31 22 52 52q16 23 24 45q7 19 5 22q1 -1 11 2l21 6q31 7 38 -1q5 -8 10 -19z" />
    <glyph glyph-name="udieresis" unicode="&#xfc;" horiz-adv-x="755" 
d="M9 621v5h199v-385q0 -39 6 -72q8 -38 24 -66q39 -68 126 -68q67 0 130 63q65 65 65 138v273q0 53 -24 77q-20 19 -61 19v22h201v-498q0 -52 15 -78q20 -33 69 -33v-18h-200v76l-38 -28q-28 -17 -56 -31q-36 -16 -71 -25q-42 -11 -83 -11q-32 0 -66 11q-40 12 -72 35
q-37 27 -57 65q-23 44 -23 100v336q0 40 -28 60q-23 17 -56 17q-1 9 0 16zM276 811q53 0 53 -53t-56 -53q-49 0 -49 53t52 53zM439 809q52 0 52 -54q0 -51 -54 -51q-51 0 -51 51q0 54 53 54z" />
    <glyph glyph-name="bullet" unicode="&#x2022;" horiz-adv-x="344" 
d="M169 838q64 0 64 -64t-64 -64t-64 64t64 64z" />
    <glyph glyph-name="ellipsis" unicode="&#x2026;" horiz-adv-x="746" 
d="M743 111q20 0 20 -20v-89q0 -20 -20 -20h-89q-20 0 -20 20v89q0 20 20 20h89zM430 111q20 0 20 -20v-89q0 -20 -20 -20h-89q-20 0 -20 20v89q0 20 20 20h89zM133 111q20 0 20 -20v-89q0 -20 -20 -20h-89q-20 0 -20 20v89q0 20 20 20h89z" />
    <glyph glyph-name="oe" unicode="&#x153;" horiz-adv-x="1209" 
d="M739 342v-11l5 -57q4 -27 9 -50q7 -29 17 -53q24 -61 67 -94q53 -41 133 -42q38 0 78 10q33 9 65 23q23 10 43 23q16 9 16 10l-1 -42q0 -1 -14 -12q-19 -15 -45 -27q-35 -17 -79 -26q-53 -12 -116 -12q-59 0 -112 22q-42 19 -78 52q-25 23 -45 51q-14 20 -14 23
q0 -2 -21 -23q-26 -28 -59 -51q-45 -33 -95 -52q-63 -23 -130 -23q-82 0 -146 28q-59 25 -99 72q-75 85 -75 213q0 88 40 160q35 62 98 108q54 39 119 61q58 19 106 19q67 -1 124 -17q47 -14 86 -37q29 -18 51 -39q8 -7 14 -15l7 -8q0 2 14 18q8 10 18 19q13 11 27 21
q37 26 82 40q56 18 123 18q88 0 145 -39q47 -31 72 -86q18 -39 23 -85l2 -16v-24zM1076 453q0 8 -2 16q-3 26 -15 48q-16 30 -45 48q-36 21 -91 22q-46 0 -84 -25q-31 -20 -55 -55q-18 -25 -31 -56q-3 -5 -5 -11q-1 -4 -3 -8l-3 -8l334 23v6zM621 343q0 78 -32 133
q-26 45 -74 73q-35 21 -79 31q-16 3 -32 5l-30 1q-7 0 -13 -1q-16 -2 -32 -5q-41 -10 -73 -34q-42 -31 -65 -83q-27 -62 -27 -154q0 -62 21 -116q18 -48 52 -84q65 -70 143 -70q88 0 145 43q46 35 70 97q10 25 16 54q5 23 8 49q2 19 2 39v22z" />
    <glyph glyph-name="dotlessi" unicode="&#x131;" horiz-adv-x="368" 
d="M35 -1v20q51 0 72 37q8 13 11 31l2 13v411q0 41 -18 65q-22 29 -67 29v22h200v-503q0 -62 28 -87q20 -18 57 -18v-20h-285z" />
    <glyph glyph-name="quoteright" unicode="&#x2019;" horiz-adv-x="159" 
d="M-9 628zM-9 628q6 3 9 6l12 10q14 13 25 27q30 39 31 89h-27q-9 1 -14 9q-3 6 -3 9v95q0 4 2 7q4 9 13 9q5 -1 19 -1l78 1q10 -1 13 -7l2 -5v-43q0 -54 -21 -101q-17 -39 -46 -71q-12 -13 -25 -24l-22 -17q-21 -15 -21 -13z" />
    <glyph glyph-name="ccaron" unicode="&#x10d;" horiz-adv-x="647" 
d="M277 704l-14 31q-2 6 -5 11q-6 12 -13 22q-17 24 -44 42q-33 20 -84 33q-1 1 2 5l6 10l11 12q41 2 93 -16q67 -24 104 -70q35 40 91 67q46 22 81 26l3 -3q5 -5 8 -9q5 -5 7 -9q3 -4 2 -5q-49 -14 -87 -41q-30 -23 -51 -52q-16 -22 -25 -44q-6 -18 -4 -21l-33 -8
q-31 -7 -38 1q-5 7 -10 18zM593 64q1 -5 -20 -18q-22 -15 -54 -28q-39 -17 -80 -26q-49 -12 -96 -12q-93 0 -164 39q-59 32 -100 91q-33 46 -50 103q-14 44 -14 77q0 94 33 166q31 65 88 108q51 40 122 60q64 18 138 18q107 0 168 -46l-10 -132q-5 -1 -13 0q-7 1 -8 2
q0 11 -10 30q-11 21 -29 40q-21 23 -49 36q-32 15 -70 15q-119 0 -183 -80q-58 -72 -58 -191q0 -135 66 -210q62 -71 167 -71q72 0 125 18q44 14 101 52v-41z" />
    <glyph glyph-name="cacute" unicode="&#x107;" horiz-adv-x="647" 
d="M195 730q0 -4 3 -11q1 -6 4 -12l2 -5q43 0 84 6q48 6 84 17q90 30 90 90q0 18 -2 29q-1 9 -4 14l-7 9q-4 5 -6 13l-25 -3q1 -4 -14 -25q-18 -26 -43 -48q-33 -30 -70 -47q-46 -21 -95 -21q-2 -1 -1 -6zM593 64q1 -5 -20 -18q-22 -15 -54 -28q-39 -17 -80 -26
q-49 -12 -96 -12q-93 0 -164 39q-59 32 -100 91q-33 46 -50 103q-14 44 -14 77q0 94 33 166q31 65 88 108q51 40 122 60q64 18 138 18q107 0 168 -46l-10 -132q-5 -1 -13 0q-7 1 -8 2q0 11 -10 30q-11 21 -29 40q-21 23 -49 36q-32 15 -70 15q-119 0 -183 -80
q-58 -72 -58 -191q0 -135 66 -210q62 -71 167 -71q72 0 125 18q44 14 101 52v-41z" />
    <glyph glyph-name="Cacute" unicode="&#x106;" horiz-adv-x="802" 
d="M302 968q0 -4 3 -11q1 -6 4 -12l2 -5q43 0 84 6q48 6 84 17q90 30 90 90q0 18 -2 29q-1 9 -4 14l-7 9q-4 5 -6 13l-25 -3q1 -4 -14 -25q-18 -26 -43 -48q-33 -30 -70 -47q-46 -21 -95 -21q-2 -1 -1 -6zM720 694h-21v6q-1 7 -4 15q-7 26 -24 47q-25 30 -67 47
q-53 21 -130 21q-76 0 -139 -35q-57 -32 -98 -89q-79 -108 -79 -244q0 -75 16 -141q17 -75 53 -131q41 -63 102 -96q69 -38 161 -38q65 0 118 25q43 19 77 54q24 24 41 53l12 25h28l-18 -101q0 -2 -16 -21q-21 -24 -49 -45q-38 -29 -83 -45q-55 -20 -118 -20q-82 0 -157 23
q-84 26 -146 78q-70 58 -107 143q-42 95 -42 219q0 108 41 198q38 83 109 144q137 118 332 118q48 0 92 -10q34 -8 65 -22q21 -11 38 -23q13 -9 13 -10v-145z" />
    <glyph glyph-name="Ccaron" unicode="&#x10c;" horiz-adv-x="802" 
d="M402 943l-3 9l-4 9q-2 6 -4 9q-2 6 -5 10q-5 10 -11 19q-14 21 -37 36q-28 19 -72 30q-2 1 7 12l9 11q35 2 79 -14q57 -20 89 -61q30 35 78 59q39 19 69 22q0 1 3 -3l6 -7q10 -11 8 -12q-42 -13 -74 -37q-26 -19 -44 -44q-14 -20 -21 -39q-5 -16 -4 -19q-1 1 -9 -1
q-1 -1 -5 -2l-14 -3q-11 -3 -19 -3q-10 0 -13 3zM720 694h-21v6q-1 7 -4 15q-7 26 -24 47q-25 30 -67 47q-53 21 -130 21q-76 0 -139 -35q-57 -32 -98 -89q-79 -108 -79 -244q0 -75 16 -141q17 -75 53 -131q41 -63 102 -96q69 -38 161 -38q65 0 118 25q43 19 77 54
q24 24 41 53l12 25h28l-18 -101q0 -2 -16 -21q-21 -24 -49 -45q-38 -29 -83 -45q-55 -20 -118 -20q-82 0 -157 23q-84 26 -146 78q-70 58 -107 143q-42 95 -42 219q0 108 41 198q38 83 109 144q137 118 332 118q48 0 92 -10q34 -8 65 -22q21 -11 38 -23q13 -9 13 -10v-145z
" />
    <glyph glyph-name="scaron" unicode="&#x161;" horiz-adv-x="566" 
d="M165 -7q-36 8 -68 24q-22 10 -40 24l-14 10l-1 122h22q0 -60 66 -101q56 -36 112 -36q74 0 122 32q52 36 52 98t-58 92q-23 11 -60 21l-69 16q-42 10 -68 20q-36 12 -60 30q-58 43 -58 127q0 45 22 81q19 30 53 52q28 18 64 28q30 9 55 9q53 0 99 -8q37 -6 68 -17
q23 -8 42 -18l21 -13l-1 -12q0 -7 -1 -14q-1 -9 -1 -18q-3 -50 -3 -84h-11q-11 1 -13 0q0 55 -46 92q-50 39 -131 36q-54 0 -88 -21q-39 -23 -39 -69q0 -58 61 -89q24 -12 62 -23l45 -11q2 -1 9 -2q6 -2 9 -2q5 -2 9 -2q45 -11 72 -21q37 -13 62 -30q61 -41 61 -118
q0 -65 -34 -113q-28 -40 -79 -66q-39 -20 -88 -30q-18 -4 -36 -6q-15 -2 -26 -2q-50 1 -95 12zM231 704l-13 31q-3 6 -6 11q-6 12 -13 22q-17 24 -44 42q-33 20 -84 33q-1 1 2 5l6 10l11 12q41 2 93 -16q67 -24 104 -70q35 40 91 67q46 22 81 26l3 -3q5 -5 8 -9q5 -5 7 -9
q3 -4 2 -5q-49 -14 -87 -41q-30 -23 -51 -52q-16 -22 -25 -44q-6 -18 -4 -21l-33 -8q-31 -7 -38 1q-5 7 -10 18z" />
    <glyph glyph-name="glyph125" horiz-adv-x="210" 
d="M91 613q15 34 11 70q-3 27 -16 52q-4 9 -9 15l-5 7q6 24 27 41q-1 1 7 0q9 0 19 -2q12 -4 23 -11q13 -9 22 -23q25 -41 13 -88q-10 -38 -43 -78q-25 -29 -58 -56l-12 -10l-19 -13l-4 3q-5 3 -10 5l-8 7q-4 4 -3 5q46 35 65 76z" />
  </font>
</defs>
</svg>
